<svg width="510" height="425" viewBox="0 0 510 425" fill="none" xmlns="http://www.w3.org/2000/svg">
<g filter="url(#filter0_d)">
<g clip-path="url(#clip0)">
<path opacity="0.37" d="M67.3958 339.306H17.2445C3.80589 324.63 0.202782 301.229 8.28542 282.653C15.8812 265 32.3386 253.3 42.2715 236.878C63.5005 201.983 53.2755 149.845 82.003 121.621C96.4154 107.457 117.158 103.455 136.731 101.812C156.305 100.17 176.56 100.17 194.77 92.1649C217.168 82.2094 234.015 60.9643 256.997 52.9589C282.9 43.9271 313.77 55.2168 328.962 79.0278C338.408 94.0123 342.011 112.794 353.21 126.342C371.322 148.305 403.166 149.948 425.661 166.677C441.145 178.172 451.565 196.851 453.61 216.659C456.044 240.573 447.377 267.771 461.01 287.066C467.632 296.508 478.442 301.743 485.551 310.774C492.659 319.703 494.704 327.914 492.465 339.306H67.3958Z" fill="url(#paint0_linear)"/>
<path opacity="0.37" d="M80.1521 339.306H30.0008C16.5622 324.63 12.9591 301.229 21.0418 282.653C28.6375 265 45.0949 253.3 55.0278 236.878C76.2569 201.983 66.0319 149.845 94.7593 121.621C109.172 107.457 129.914 103.455 149.488 101.812C169.061 100.17 189.316 100.17 207.527 92.1649C229.924 82.2095 246.771 60.9643 269.753 52.9589C295.657 43.9271 326.527 55.2168 341.718 79.0278C351.164 94.0123 354.767 112.794 365.966 126.342C384.079 148.305 415.922 149.948 438.417 166.677C453.901 178.172 464.321 196.851 466.366 216.659C468.8 240.573 460.133 267.771 473.767 287.066C480.389 296.508 491.198 301.743 498.307 310.774C505.416 319.703 507.461 327.914 505.221 339.306H80.1521Z" fill="url(#paint1_linear)"/>
<path d="M195.549 158.364L193.504 158.466H7.01891L6.53201 158.569C4.68176 145.534 14.3225 132.295 26.5925 128.805C37.2071 125.726 49.6719 128.497 58.6309 121.621C66.6162 115.463 68.6612 103.968 73.8224 95.1413C77.036 89.5991 81.7103 84.9806 87.1636 82.0042C93.9803 78.1041 102.452 76.7699 109.367 80.2594C121.734 86.4174 124.071 103.66 132.348 115.155C134.199 117.721 136.536 120.081 139.457 121.005C142.184 121.826 145.105 121.21 147.832 120.697C156.986 118.952 167.893 119.158 173.541 126.855C176.17 130.447 177.144 135.168 178.605 139.479C180.065 143.79 182.5 148.203 186.59 149.742C188.537 150.461 190.777 150.461 192.53 151.692C194.77 153.027 195.451 155.592 195.549 158.364Z" fill="url(#paint2_linear)"/>
<path d="M495.483 183.201H278.031C276.278 180.84 276.083 177.043 277.349 174.272C278.907 170.474 282.315 168.011 285.626 165.856C288.937 163.7 292.541 161.75 295.072 158.671C299.844 152.616 299.552 143.995 300.623 136.195C301.889 126.958 305.59 117.823 312.211 111.563C314.841 109.099 317.86 107.149 321.073 105.61C330.227 101.094 341.426 100.068 349.995 105.61C358.175 110.947 362.168 121.21 369.277 128.087C370.932 129.729 372.88 131.166 375.12 131.679C381.45 133.218 386.903 127.163 391.675 122.442C398.491 115.771 407.548 110.844 416.701 112.076C427.511 113.513 435.886 123.365 439.976 133.937C441.728 138.35 442.994 143.276 446.403 146.458C455.167 154.566 469.872 145.432 480.097 151.384C483.894 153.642 486.524 157.645 488.569 161.648C491.782 168.319 494.217 175.606 495.483 183.201Z" fill="url(#paint3_linear)"/>
<path d="M191.264 310.364H175.586V339.306H137.704V310.364H81.126V280.703L140.236 189.667H175.683V280.19H191.361V310.364H191.264ZM137.704 280.087V262.639C137.704 259.355 137.802 254.942 137.997 249.399C138.191 243.857 138.386 240.881 138.483 240.676H137.412C135.173 245.91 132.738 250.836 129.914 255.455L114.138 280.087H137.704Z" fill="url(#paint4_linear)"/>
<path d="M180.942 310.364H165.263V339.306H127.382V310.364H70.7061V280.703L129.816 189.667H165.263V280.19H180.942V310.364ZM127.382 280.087V262.639C127.382 259.355 127.479 254.942 127.674 249.399C127.869 243.857 128.064 240.881 128.161 240.676H127.09C124.85 245.91 122.415 250.836 119.591 255.455L103.816 280.087H127.382Z" fill="url(#paint5_linear)"/>
<path d="M438.515 311.287L433.062 281.626L422.934 283.679L417.773 284.705L401.51 195.825L366.648 202.906L325.066 304.103L330.422 333.251L386.027 321.961L389.24 339.204H427.803L423.226 314.366L428.387 313.34L438.515 311.287ZM370.348 294.456L357.494 297.021L366.648 274.237L368.498 269.618C370.446 264.589 372.004 259.252 373.172 253.607L374.243 253.402C374.146 253.71 374.536 256.584 375.315 262.126C376.094 267.668 376.775 271.979 377.36 275.16L380.476 292.3L370.348 294.456Z" fill="url(#paint6_linear)"/>
<path d="M428.387 313.443L422.934 283.782L407.548 286.861L391.188 197.98L366.55 203.009L356.423 205.062L314.841 306.258L320.197 335.406L330.324 333.354L375.801 324.117L378.625 339.306H417.188L413.001 316.522L423.129 314.469L428.387 313.443ZM366.648 274.339C366.842 275.468 367.037 276.495 367.134 277.418L370.251 294.558L347.269 299.279L358.273 271.876C360.22 266.847 361.779 261.51 362.947 255.865L364.018 255.66C363.921 255.968 364.31 258.842 365.089 264.384C365.674 268.181 366.258 271.568 366.648 274.339Z" fill="url(#paint7_linear)"/>
<path d="M196.523 263.358H173.346L158.641 149.948C158.641 149.948 137.412 125.521 113.067 120.902L136.244 118.234L188.537 119.773L196.523 263.358Z" fill="url(#paint8_linear)"/>
<path d="M105.276 201.059C105.276 201.059 92.1299 221.381 97.9728 238.726L122.415 201.059L119.202 196.543L105.276 201.059Z" fill="#111023"/>
<path d="M173.443 263.358L172.664 268.592C172.664 268.592 165.653 269.618 165.263 280.087H183.376L193.212 269.926L194.088 263.358H173.443Z" fill="#111023"/>
<path d="M145.397 149.845L116.378 148.716L121.052 195.517L101.381 202.906L90.0849 145.124C86.774 134.347 93.688 123.058 104.4 121.826L113.067 120.8C137.412 125.418 158.641 149.845 158.641 149.845H145.397Z" fill="url(#paint9_linear)"/>
<path d="M92.0326 19.2951V20.6293L90.4745 20.8346C90.085 19.9109 89.5981 19.1925 89.2086 18.7819C87.0662 16.8319 85.6055 15.395 84.1447 16.3187C82.9762 17.0372 83.0736 20.3214 83.1709 21.8609L78.8862 22.4767L41.0049 27.5058V27.4032C43.4394 26.7874 45.387 22.1688 45.387 16.524C45.387 10.9818 43.5368 6.36329 41.1023 5.64485L92.0326 11.7002V12.8292V19.2951Z" fill="url(#paint10_linear)"/>
<path d="M43.8289 8.51858C43.7315 8.72385 43.6341 8.82648 43.5368 9.03175C42.9525 10.1607 42.7577 11.3923 42.076 12.4187C41.5891 13.1371 40.9075 13.7529 40.031 14.0608C39.1546 14.3687 38.2782 14.4713 37.3044 14.574C36.7201 14.6766 36.0384 14.7792 35.5515 15.0871C35.8437 9.75018 37.7913 5.64484 40.3232 5.43958L41.1022 5.54221C42.1734 5.95274 43.1472 6.97908 43.8289 8.51858Z" fill="url(#paint11_linear)"/>
<path d="M45.3878 15.6003C44.7061 16.524 44.414 17.653 43.8297 18.5767C43.148 19.603 42.0768 20.4241 40.9082 20.732C39.8371 21.0399 38.6685 20.8346 37.5973 21.3478C37.1104 21.553 36.7209 22.0662 36.4287 22.5794C35.9418 20.8346 35.6497 18.7819 35.6497 16.524C35.6497 16.0108 35.6497 15.6003 35.6497 15.1898C36.2339 14.8819 36.8182 14.7792 37.4025 14.6766C38.279 14.574 39.2528 14.4713 40.1292 14.1634C40.9082 13.8555 41.6873 13.2397 42.1742 12.5213C42.8559 11.495 43.148 10.2634 43.6349 9.13438C43.7323 8.92912 43.8297 8.82648 43.9271 8.62122C44.7061 10.366 45.2904 12.8292 45.3878 15.6003Z" fill="url(#paint12_linear)"/>
<path d="M45.387 16.524C45.387 22.1688 43.4394 26.7874 41.0049 27.4032C40.8101 27.4032 40.6153 27.5058 40.4206 27.5058C38.6677 27.5058 37.207 25.5557 36.3306 22.5794C36.6227 22.0662 37.0122 21.6557 37.5965 21.3478C38.5703 20.8346 39.7389 20.9372 40.9075 20.732C42.0761 20.4241 43.1472 19.7056 43.8289 18.5767C44.4132 17.653 44.7053 16.524 45.2896 15.7029C45.2896 15.7029 45.2896 15.7029 45.2896 15.6003C45.387 15.9082 45.387 16.2161 45.387 16.524Z" fill="url(#paint13_linear)"/>
<path d="M122.026 13.8555H137.315C135.757 14.574 134.393 15.2924 133.712 15.9082C133.225 16.4214 133.42 17.2424 134.004 18.3714H121.929V13.8555H122.026Z" fill="#111023"/>
<path d="M156.012 16.524V18.2688H147.735C146.956 16.3187 146.371 14.6766 146.177 13.7529H156.109V16.524H156.012Z" fill="#111023"/>
<path d="M122.026 18.2688V19.2951H92.0327V12.7266H122.026V13.8555V18.2688Z" fill="url(#paint14_linear)"/>
<path d="M93.2013 30.4822L86.5793 35.8191C86.5793 35.8191 78.5941 26.9926 78.8862 22.4767L83.171 21.8609C83.0736 20.3214 82.9762 17.0372 84.1448 16.3187C85.6055 15.395 87.0663 16.9345 89.2086 18.7819C89.5982 19.1925 90.0851 19.9109 90.4746 20.8346C92.0327 24.3242 93.2013 30.4822 93.2013 30.4822Z" fill="url(#paint15_linear)"/>
<path d="M48.7953 5.64484C48.3084 4.61851 46.945 5.54221 47.3345 6.46591C50.0612 12.7266 49.6717 19.603 46.4581 25.5557C45.9712 26.4795 47.3345 27.4032 47.9188 26.3768C51.4246 20.0135 51.7167 12.5213 48.7953 5.64484Z" fill="#5B2B89"/>
<path d="M166.432 37.4612V42.7982L160.297 36.7428L166.432 37.4612Z" fill="url(#paint16_linear)"/>
<path d="M166.432 42.7982L172.567 48.9562L178.41 54.8063C178.41 54.8063 191.848 44.9535 197.009 44.8509C197.399 44.8509 197.691 44.8509 198.081 44.9535C202.658 45.6719 205.482 51.2141 204.703 56.6537C203.826 62.4012 204.021 68.8671 198.665 69.8934C193.406 70.9198 170.132 76.8725 170.132 76.8725L144.618 40.4376L147.637 38.1797L154.357 33.2533L155.72 32.2269L158.641 35.1007L160.297 36.7428L166.432 42.7982Z" fill="url(#paint17_linear)"/>
<path d="M182.889 38.5902L198.081 44.8509C197.691 44.7482 197.399 44.7482 197.01 44.7482C191.848 44.8509 178.41 54.7037 178.41 54.7037L172.567 48.8536L182.889 38.5902Z" fill="url(#paint18_linear)"/>
<path d="M198.665 69.6882L189.803 95.0386L188.635 119.773C188.635 119.773 187.563 119.979 185.811 120.286C177.338 121.518 152.117 124.597 136.341 118.336L142.476 87.649L139.652 63.4275L105.276 67.4302L83.7551 38.077L86.5792 35.8191L93.2011 30.4822L113.554 51.4194L145.397 36.7428C146.566 37.6665 147.54 38.077 147.54 38.077L144.521 40.335L170.035 76.7699C170.132 76.7699 193.406 70.8171 198.665 69.6882Z" fill="url(#paint19_linear)"/>
<path d="M154.259 33.1506L147.54 38.077C147.54 38.077 146.566 37.6665 145.397 36.7428C143.839 35.6138 142.087 33.7664 141.892 31.098C141.6 27.5058 135.952 21.7583 134.004 18.2688C133.42 17.1398 133.225 16.3187 133.712 15.8056C134.296 15.1898 135.659 14.4713 137.315 13.7529C140.821 12.316 145.592 11.2897 145.982 13.5476C145.982 13.6503 145.982 13.6503 145.982 13.7529C146.177 14.6766 146.761 16.3187 147.54 18.2688C150.072 24.2215 154.259 33.1506 154.259 33.1506Z" fill="url(#paint20_linear)"/>
<path opacity="0.38" d="M189.803 95.1413C150.851 86.4174 144.618 40.335 144.618 40.335L170.132 76.7699L198.665 69.7908L189.803 95.1413Z" fill="url(#paint21_linear)"/>
<path d="M182.597 16.2161C183.376 16.0108 184.253 16.1135 184.545 17.5503C185.324 20.732 181.916 24.5294 181.916 24.5294L182.792 38.5902L172.47 48.9562L176.462 36.7428L166.335 37.4612L160.2 36.7428L158.544 35.1007C158.544 35.1007 157.375 23.4004 157.375 16.524C157.375 14.9845 157.473 13.6503 157.57 12.7266L157.668 12.4187C164.776 13.6503 174.709 10.7765 174.709 10.7765C174.709 10.7765 176.073 25.0426 178.02 25.2478C179.871 25.4531 180.552 17.5503 180.552 17.5503C180.552 17.5503 181.526 16.524 182.597 16.2161Z" fill="url(#paint22_linear)"/>
<path d="M182.695 5.85011L182.597 16.2161C181.526 16.524 180.455 17.5503 180.455 17.5503C180.455 17.5503 179.87 25.5557 177.923 25.2478C176.073 25.0426 174.612 10.7765 174.612 10.7765C174.612 10.7765 164.679 13.7529 157.57 12.4187C155.33 12.0081 153.383 11.1871 152.117 9.75018C146.663 3.69481 148.514 0.3079 156.402 2.1553C164.289 4.00271 180.455 -5.85011 182.695 5.85011Z" fill="#111023"/>
<path d="M176.56 36.7428L172.567 48.9562L166.432 42.7982V37.4612L176.56 36.7428Z" fill="#F79244"/>
<path d="M156.986 14.2661C158.544 13.445 160.199 13.3424 161.855 13.9582C162.829 14.3687 162.147 15.9082 161.076 15.4977C160.005 15.0871 158.836 15.1898 157.862 15.7029C156.986 16.2161 156.012 14.7792 156.986 14.2661Z" fill="#111023"/>
<path d="M172.264 20.3165C172.908 20.281 173.39 19.4263 173.339 18.4074C173.289 17.3885 172.725 16.5914 172.081 16.6269C171.436 16.6624 170.955 17.5172 171.005 18.536C171.056 19.5549 171.619 20.352 172.264 20.3165Z" fill="#111023"/>
<path d="M174.222 13.8555C172.567 13.2397 170.912 13.2397 169.353 14.0608C168.38 14.574 169.256 16.0108 170.23 15.4977C171.204 14.9845 172.372 14.9845 173.443 15.395C174.515 15.8056 175.196 14.2661 174.222 13.8555Z" fill="#111023"/>
<path d="M162.634 24.2215C163.121 21.553 164.484 18.8846 165.361 16.3187C165.555 15.8056 166.237 16.2161 166.14 16.7293C165.555 18.3714 165.068 19.9109 164.484 21.553C164.289 22.0662 163.803 22.9899 163.803 23.6057C163.608 25.6584 164.484 25.4531 165.458 25.9663C165.945 26.1715 165.555 26.9926 165.068 26.7873C163.803 26.1715 162.342 26.0689 162.634 24.2215Z" fill="#F79244"/>
<path d="M161.758 18.6793C160.979 18.0635 160.102 17.5503 159.128 17.4477C158.544 17.3451 158.252 18.3714 158.836 18.474C159.323 18.5767 159.81 18.6793 160.297 18.8846C159.81 19.0898 159.226 19.1925 158.739 19.3977C158.155 19.603 158.349 20.6293 159.031 20.4241C159.907 20.1162 160.784 19.8083 161.563 19.5004C161.855 19.3977 162.05 18.8846 161.758 18.6793Z" fill="#111023"/>
<path d="M165.75 35.3059C166.933 35.3059 167.892 33.8355 167.892 32.0217C167.892 30.2078 166.933 28.7374 165.75 28.7374C164.567 28.7374 163.608 30.2078 163.608 32.0217C163.608 33.8355 164.567 35.3059 165.75 35.3059Z" fill="white"/>
<path opacity="0.5" d="M464.223 339.306H73.5301C73.5301 339.306 52.4958 353.983 83.7551 356.549C115.015 359.115 163.802 361.373 162.537 372.56C161.271 383.747 133.127 381.591 133.127 401.297C133.127 421.105 263.326 416.487 263.326 416.487C263.326 416.487 336.849 417.513 347.366 404.376C357.883 391.239 317.762 379.334 324.968 374.099C332.272 368.968 385.15 384.465 393.038 371.841C400.926 359.32 391.48 351.315 405.99 349.672C420.499 348.236 461.789 354.188 464.223 339.306Z" fill="url(#paint23_linear)"/>
<path d="M434.717 374.202C451.013 374.202 464.223 370.25 464.223 365.375C464.223 360.501 451.013 356.549 434.717 356.549C418.421 356.549 405.21 360.501 405.21 365.375C405.21 370.25 418.421 374.202 434.717 374.202Z" fill="url(#paint24_linear)"/>
<path d="M120.176 379.744C134.428 379.744 145.982 376.711 145.982 372.97C145.982 369.229 134.428 366.196 120.176 366.196C105.923 366.196 94.3696 369.229 94.3696 372.97C94.3696 376.711 105.923 379.744 120.176 379.744Z" fill="url(#paint25_linear)"/>
<path d="M268.195 405.197C284.383 405.197 297.507 402.532 297.507 399.244C297.507 395.957 284.383 393.292 268.195 393.292C252.007 393.292 238.883 395.957 238.883 399.244C238.883 402.532 252.007 405.197 268.195 405.197Z" fill="#E9FDFF"/>
<path d="M306.953 260.073C300.915 245.602 289.619 236.57 273.064 232.978C271.214 232.568 269.461 232.26 267.806 232.054C253.199 230.104 241.123 233.799 231.677 243.036C221.063 253.402 213.272 271.671 208.208 297.74C205.092 313.751 204.216 327.504 205.579 339.204H241.805C241.318 332.43 242.584 321.243 245.603 305.745C248.816 289.016 252.03 277.726 255.244 271.876C257.094 268.489 259.236 266.231 261.573 265.102C263.229 264.281 265.079 264.076 267.027 264.589C271.701 265.616 274.33 269.618 275.012 276.495C275.694 283.474 274.525 295.071 271.311 311.287C268.974 323.501 266.54 332.738 264.203 339.204H303.837C305.687 333.251 307.245 326.58 308.706 319.396C309.68 314.572 310.361 310.056 310.848 305.643C313.185 287.066 311.822 271.876 306.953 260.073Z" fill="url(#paint26_linear)"/>
<path d="M296.825 257.918C291.469 244.884 281.731 236.262 267.806 232.054C266.248 231.541 264.592 231.131 262.937 230.823C245.895 227.128 232.164 230.515 221.55 240.881C210.935 251.247 203.145 269.516 198.081 295.585C197.01 300.921 196.231 305.951 195.744 310.774C194.575 321.346 194.575 330.89 195.744 339.204H231.872C231.872 338.999 231.775 338.691 231.775 338.485C230.996 331.814 232.262 320.217 235.475 303.59C238.689 286.861 241.902 275.571 245.116 269.721C248.329 263.871 252.225 261.408 256.802 262.434C258.749 262.844 260.307 263.768 261.476 265.205C263.326 267.258 264.397 270.337 264.787 274.339C265.469 281.318 264.3 292.916 261.086 309.132C258.457 322.782 255.73 332.738 253.101 339.204H292.93C295.072 332.635 296.923 325.348 298.481 317.24C303.447 292.198 302.863 272.389 296.825 257.918Z" fill="url(#paint27_linear)"/>
<path d="M324.482 160.108L324.189 160.314L298.773 181.148L282.9 194.183L269.656 232.773L265.956 231.439L279.589 191.719L322.047 156.927L324.482 160.108Z" fill="#2A2A2A"/>
<path d="M336.654 246.731C333.733 250.323 329.838 252.889 325.942 255.25L325.65 254.736C327.208 252.684 328.766 250.221 328.377 247.655C328.085 245.91 326.819 244.473 325.553 243.344C323.41 241.394 321.073 239.649 319.028 237.597C316.983 235.544 315.23 232.875 314.938 229.899C314.549 225.999 316.496 222.304 317.275 218.507C317.567 216.967 317.665 215.325 317.081 213.888C315.815 210.604 311.822 209.886 308.706 208.551C305.882 207.32 303.252 205.164 302.473 202.085C301.305 197.672 304.324 193.054 303.934 188.435C303.642 185.253 301.5 182.38 298.676 181.148L324.092 160.314C328.377 164.214 332.175 169.448 332.175 175.401C332.175 179.198 330.714 182.79 329.74 186.382C329.351 187.819 328.961 189.359 329.253 190.796C329.643 193.054 331.396 194.798 332.954 196.441C336.265 199.725 339.576 203.83 339.478 208.551C339.381 213.888 335.096 218.712 335.778 224.049C336.265 227.436 338.699 230.207 339.77 233.389C341.231 238.007 339.576 243.036 336.654 246.731Z" fill="url(#paint28_linear)"/>
</g>
</g>
<defs>
<filter id="filter0_d" x="0" y="0" width="510" height="425" filterUnits="userSpaceOnUse" color-interpolation-filters="sRGB">
<feFlood flood-opacity="0" result="BackgroundImageFix"/>
<feColorMatrix in="SourceAlpha" type="matrix" values="0 0 0 0 0 0 0 0 0 0 0 0 0 0 0 0 0 0 127 0"/>
<feOffset dy="4"/>
<feGaussianBlur stdDeviation="2"/>
<feColorMatrix type="matrix" values="0 0 0 0 0 0 0 0 0 0 0 0 0 0 0 0 0 0 0.25 0"/>
<feBlend mode="normal" in2="BackgroundImageFix" result="effect1_dropShadow"/>
<feBlend mode="normal" in="SourceGraphic" in2="effect1_dropShadow" result="shape"/>
</filter>
<linearGradient id="paint0_linear" x1="246.297" y1="353.683" x2="263.79" y2="103.056" gradientUnits="userSpaceOnUse">
<stop stop-color="#31D1D6"/>
<stop offset="0.3733" stop-color="#32CED8"/>
<stop offset="0.6175" stop-color="#36C6DF"/>
<stop offset="0.824" stop-color="#3CB7EB"/>
<stop offset="1" stop-color="#45A3FA"/>
</linearGradient>
<linearGradient id="paint1_linear" x1="259.109" y1="353.683" x2="276.602" y2="103.056" gradientUnits="userSpaceOnUse">
<stop stop-color="#31D1D6"/>
<stop offset="0.3733" stop-color="#32CED8"/>
<stop offset="0.6175" stop-color="#36C6DF"/>
<stop offset="0.824" stop-color="#3CB7EB"/>
<stop offset="1" stop-color="#45A3FA"/>
</linearGradient>
<linearGradient id="paint2_linear" x1="100.959" y1="159.196" x2="100.959" y2="115.467" gradientUnits="userSpaceOnUse">
<stop stop-color="#F9E6D9"/>
<stop offset="0.121" stop-color="#FCF1EA"/>
<stop offset="0.2698" stop-color="#FEF9F6"/>
<stop offset="0.4751" stop-color="#FFFEFD"/>
<stop offset="1" stop-color="white"/>
</linearGradient>
<linearGradient id="paint3_linear" x1="385.413" y1="189.892" x2="388.328" y2="147.291" gradientUnits="userSpaceOnUse">
<stop stop-color="#F9E6D9"/>
<stop offset="0.121" stop-color="#FCF1EA"/>
<stop offset="0.2698" stop-color="#FEF9F6"/>
<stop offset="0.4751" stop-color="#FFFEFD"/>
<stop offset="1" stop-color="white"/>
</linearGradient>
<linearGradient id="paint4_linear" x1="81.0818" y1="264.446" x2="191.253" y2="264.446" gradientUnits="userSpaceOnUse">
<stop stop-color="#31D1D6"/>
<stop offset="0.3733" stop-color="#32CED8"/>
<stop offset="0.6175" stop-color="#36C6DF"/>
<stop offset="0.824" stop-color="#3CB7EB"/>
<stop offset="1" stop-color="#45A3FA"/>
</linearGradient>
<linearGradient id="paint5_linear" x1="126.823" y1="349.155" x2="125.657" y2="292.697" gradientUnits="userSpaceOnUse">
<stop stop-color="#F9E6D9"/>
<stop offset="0.121" stop-color="#FCF1EA"/>
<stop offset="0.2698" stop-color="#FEF9F6"/>
<stop offset="0.4751" stop-color="#FFFEFD"/>
<stop offset="1" stop-color="white"/>
</linearGradient>
<linearGradient id="paint6_linear" x1="321.742" y1="286.521" x2="430.302" y2="266.598" gradientUnits="userSpaceOnUse">
<stop stop-color="#31D1D6"/>
<stop offset="0.3733" stop-color="#32CED8"/>
<stop offset="0.6175" stop-color="#36C6DF"/>
<stop offset="0.824" stop-color="#3CB7EB"/>
<stop offset="1" stop-color="#45A3FA"/>
</linearGradient>
<linearGradient id="paint7_linear" x1="372.227" y1="344.083" x2="371.06" y2="287.626" gradientUnits="userSpaceOnUse">
<stop stop-color="#F9E6D9"/>
<stop offset="0.121" stop-color="#FCF1EA"/>
<stop offset="0.2698" stop-color="#FEF9F6"/>
<stop offset="0.4751" stop-color="#FFFEFD"/>
<stop offset="1" stop-color="white"/>
</linearGradient>
<linearGradient id="paint8_linear" x1="151.193" y1="193.148" x2="182.551" y2="185.459" gradientUnits="userSpaceOnUse">
<stop stop-color="#31D1D6"/>
<stop offset="0.3733" stop-color="#32CED8"/>
<stop offset="0.6175" stop-color="#36C6DF"/>
<stop offset="0.824" stop-color="#3CB7EB"/>
<stop offset="1" stop-color="#45A3FA"/>
</linearGradient>
<linearGradient id="paint9_linear" x1="89.3395" y1="161.954" x2="158.713" y2="161.954" gradientUnits="userSpaceOnUse">
<stop stop-color="#31D1D6"/>
<stop offset="0.3733" stop-color="#32CED8"/>
<stop offset="0.6175" stop-color="#36C6DF"/>
<stop offset="0.824" stop-color="#3CB7EB"/>
<stop offset="1" stop-color="#45A3FA"/>
</linearGradient>
<linearGradient id="paint10_linear" x1="41.0387" y1="16.5438" x2="92.0424" y2="16.5438" gradientUnits="userSpaceOnUse">
<stop stop-color="#51ADC6"/>
<stop offset="0.0060817" stop-color="#55AFC4"/>
<stop offset="0.066315" stop-color="#74BFB5"/>
<stop offset="0.1333" stop-color="#8FCDA7"/>
<stop offset="0.2102" stop-color="#A5D89D"/>
<stop offset="0.3001" stop-color="#B6E094"/>
<stop offset="0.4112" stop-color="#C1E78E"/>
<stop offset="0.5672" stop-color="#C8EA8B"/>
<stop offset="1" stop-color="#CAEB8A"/>
</linearGradient>
<linearGradient id="paint11_linear" x1="43.8746" y1="10.33" x2="35.6212" y2="10.33" gradientUnits="userSpaceOnUse">
<stop stop-color="#8AEBD6"/>
<stop offset="0.4615" stop-color="#89E9D7"/>
<stop offset="0.6276" stop-color="#84E2DA"/>
<stop offset="0.7461" stop-color="#7DD7DE"/>
<stop offset="0.8419" stop-color="#72C6E5"/>
<stop offset="0.9229" stop-color="#64B0EE"/>
<stop offset="0.9944" stop-color="#5395F9"/>
<stop offset="1" stop-color="#5193FA"/>
</linearGradient>
<linearGradient id="paint12_linear" x1="45.3855" y1="15.5351" x2="35.5781" y2="15.5351" gradientUnits="userSpaceOnUse">
<stop stop-color="#31D1D6"/>
<stop offset="0.3733" stop-color="#32CED8"/>
<stop offset="0.6175" stop-color="#36C6DF"/>
<stop offset="0.824" stop-color="#3CB7EB"/>
<stop offset="1" stop-color="#45A3FA"/>
</linearGradient>
<linearGradient id="paint13_linear" x1="45.4023" y1="21.5362" x2="36.3851" y2="21.5362" gradientUnits="userSpaceOnUse">
<stop stop-color="#8AEBD6"/>
<stop offset="0.4615" stop-color="#89E9D7"/>
<stop offset="0.6276" stop-color="#84E2DA"/>
<stop offset="0.7461" stop-color="#7DD7DE"/>
<stop offset="0.8419" stop-color="#72C6E5"/>
<stop offset="0.9229" stop-color="#64B0EE"/>
<stop offset="0.9944" stop-color="#5395F9"/>
<stop offset="1" stop-color="#5193FA"/>
</linearGradient>
<linearGradient id="paint14_linear" x1="92.0425" y1="16.021" x2="122.035" y2="16.021" gradientUnits="userSpaceOnUse">
<stop stop-color="#31D1D6"/>
<stop offset="0.3733" stop-color="#32CED8"/>
<stop offset="0.6175" stop-color="#36C6DF"/>
<stop offset="0.824" stop-color="#3CB7EB"/>
<stop offset="1" stop-color="#45A3FA"/>
</linearGradient>
<linearGradient id="paint15_linear" x1="78.9241" y1="25.9092" x2="93.2277" y2="25.9092" gradientUnits="userSpaceOnUse">
<stop stop-color="#F7BE86"/>
<stop offset="0.3293" stop-color="#F7BC83"/>
<stop offset="0.5448" stop-color="#F7B67B"/>
<stop offset="0.7276" stop-color="#F7AC6C"/>
<stop offset="0.8912" stop-color="#F79E57"/>
<stop offset="1" stop-color="#F79244"/>
</linearGradient>
<linearGradient id="paint16_linear" x1="163.407" y1="37.4319" x2="162.881" y2="55.5634" gradientUnits="userSpaceOnUse">
<stop stop-color="#D66E6E"/>
<stop offset="0.4804" stop-color="#D56D6D"/>
<stop offset="0.5625" stop-color="#A66B6B"/>
<stop offset="0.6535" stop-color="#D06868"/>
<stop offset="0.7768" stop-color="#6760C9"/>
<stop offset="0.8765" stop-color="#5655BE"/>
<stop offset="0.961" stop-color="#4047B0"/>
<stop offset="1" stop-color="#A83333"/>
</linearGradient>
<linearGradient id="paint17_linear" x1="175.003" y1="37.6705" x2="173.6" y2="79.7545" gradientUnits="userSpaceOnUse">
<stop stop-color="#D66E6E"/>
<stop offset="0.4804" stop-color="#DA3C3C"/>
<stop offset="0.6535" stop-color="#EA2A2A"/>
<stop offset="0.7768" stop-color="#F14242"/>
<stop offset="0.8765" stop-color="#E13030"/>
<stop offset="0.961" stop-color="#EB2222"/>
<stop offset="1" stop-color="#E32626"/>
</linearGradient>
<linearGradient id="paint18_linear" x1="185.531" y1="38.0737" x2="185.005" y2="56.2051" gradientUnits="userSpaceOnUse">
<stop stop-color="#EC4141"/>
<stop offset="0.4804" stop-color="#D56D6D"/>
<stop offset="0.6535" stop-color="#D06868"/>
<stop offset="0.7768" stop-color="#E73D3D"/>
<stop offset="0.8765" stop-color="#BE5555"/>
<stop offset="0.961" stop-color="#B04040"/>
<stop offset="1" stop-color="#A83333"/>
</linearGradient>
<linearGradient id="paint19_linear" x1="83.7539" y1="76.2984" x2="198.668" y2="76.2984" gradientUnits="userSpaceOnUse">
<stop stop-color="#E12020"/>
<stop offset="0.4804" stop-color="#D56D6D"/>
<stop offset="0.6535" stop-color="#D73232"/>
<stop offset="0.7768" stop-color="#F02D2D"/>
<stop offset="0.8765" stop-color="#F54A24"/>
<stop offset="0.961" stop-color="#B04040"/>
<stop offset="1" stop-color="#A83333"/>
</linearGradient>
<linearGradient id="paint20_linear" x1="133.507" y1="25.168" x2="154.302" y2="25.168" gradientUnits="userSpaceOnUse">
<stop stop-color="#F7BE86"/>
<stop offset="0.3293" stop-color="#F7BC83"/>
<stop offset="0.5448" stop-color="#F7B67B"/>
<stop offset="0.7276" stop-color="#F7AC6C"/>
<stop offset="0.8912" stop-color="#F79E57"/>
<stop offset="1" stop-color="#F79244"/>
</linearGradient>
<linearGradient id="paint21_linear" x1="144.609" y1="67.689" x2="198.668" y2="67.689" gradientUnits="userSpaceOnUse">
<stop stop-color="#870808"/>
<stop offset="0.3227" stop-color="#C82828"/>
<stop offset="0.5338" stop-color="#870E0E"/>
<stop offset="0.7129" stop-color="#881515"/>
<stop offset="0.8732" stop-color="#891F1F"/>
<stop offset="1" stop-color="#8A2A2A"/>
</linearGradient>
<linearGradient id="paint22_linear" x1="157.411" y1="29.8413" x2="184.735" y2="29.8413" gradientUnits="userSpaceOnUse">
<stop stop-color="#F7BE86"/>
<stop offset="0.3293" stop-color="#F7BC83"/>
<stop offset="0.5448" stop-color="#F7B67B"/>
<stop offset="0.7276" stop-color="#F7AC6C"/>
<stop offset="0.8912" stop-color="#F79E57"/>
<stop offset="1" stop-color="#F79244"/>
</linearGradient>
<linearGradient id="paint23_linear" x1="264.395" y1="419.805" x2="265.562" y2="343.42" gradientUnits="userSpaceOnUse">
<stop stop-color="#8AEBD6"/>
<stop offset="0.4615" stop-color="#89E9D7"/>
<stop offset="0.6276" stop-color="#84E2DA"/>
<stop offset="0.7461" stop-color="#7DD7DE"/>
<stop offset="0.8419" stop-color="#72C6E5"/>
<stop offset="0.9229" stop-color="#64B0EE"/>
<stop offset="0.9944" stop-color="#5395F9"/>
<stop offset="1" stop-color="#5193FA"/>
</linearGradient>
<linearGradient id="paint24_linear" x1="434.729" y1="414.903" x2="434.729" y2="347.649" gradientUnits="userSpaceOnUse">
<stop stop-color="#8AEBD6"/>
<stop offset="0.4615" stop-color="#89E9D7"/>
<stop offset="0.6276" stop-color="#84E2DA"/>
<stop offset="0.7461" stop-color="#7DD7DE"/>
<stop offset="0.8419" stop-color="#72C6E5"/>
<stop offset="0.9229" stop-color="#64B0EE"/>
<stop offset="0.9944" stop-color="#5395F9"/>
<stop offset="1" stop-color="#5193FA"/>
</linearGradient>
<linearGradient id="paint25_linear" x1="120.176" y1="414.903" x2="120.176" y2="347.649" gradientUnits="userSpaceOnUse">
<stop stop-color="#8AEBD6"/>
<stop offset="0.4615" stop-color="#89E9D7"/>
<stop offset="0.6276" stop-color="#84E2DA"/>
<stop offset="0.7461" stop-color="#7DD7DE"/>
<stop offset="0.8419" stop-color="#72C6E5"/>
<stop offset="0.9229" stop-color="#64B0EE"/>
<stop offset="0.9944" stop-color="#5395F9"/>
<stop offset="1" stop-color="#5193FA"/>
</linearGradient>
<linearGradient id="paint26_linear" x1="211.613" y1="280.156" x2="312.527" y2="299.722" gradientUnits="userSpaceOnUse">
<stop stop-color="#31D1D6"/>
<stop offset="0.3733" stop-color="#32CED8"/>
<stop offset="0.6175" stop-color="#36C6DF"/>
<stop offset="0.824" stop-color="#3CB7EB"/>
<stop offset="1" stop-color="#45A3FA"/>
</linearGradient>
<linearGradient id="paint27_linear" x1="249.079" y1="346.628" x2="247.912" y2="290.17" gradientUnits="userSpaceOnUse">
<stop stop-color="#F9E6D9"/>
<stop offset="0.121" stop-color="#FCF1EA"/>
<stop offset="0.2698" stop-color="#FEF9F6"/>
<stop offset="0.4751" stop-color="#FFFEFD"/>
<stop offset="1" stop-color="white"/>
</linearGradient>
<linearGradient id="paint28_linear" x1="298.779" y1="207.761" x2="340.362" y2="207.761" gradientUnits="userSpaceOnUse">
<stop stop-color="#D66E6E"/>
<stop offset="0.4804" stop-color="#D56D6D"/>
<stop offset="0.6535" stop-color="#D06868"/>
<stop offset="0.7768" stop-color="#C96D60"/>
<stop offset="0.8765" stop-color="#BE5555"/>
<stop offset="0.961" stop-color="#B04040"/>
<stop offset="1" stop-color="#A83333"/>
</linearGradient>
<clipPath id="clip0">
<rect width="502" height="417" fill="white" transform="translate(4)"/>
</clipPath>
</defs>
</svg>
