<svg width="406" height="406" viewBox="0 0 406 406" fill="none" xmlns="http://www.w3.org/2000/svg">
<path d="M406 310.509H0V310.712H406V310.509Z" fill="#EBEBEB"/>
<path d="M365.317 323.574H338.424V323.777H365.317V323.574Z" fill="#EBEBEB"/>
<path d="M268.95 325.783H261.894V325.986H268.95V325.783Z" fill="#EBEBEB"/>
<path d="M337.612 316.039H322.03V316.242H337.612V316.039Z" fill="#EBEBEB"/>
<path d="M77.6679 317.402H42.5977V317.605H77.6679V317.402Z" fill="#EBEBEB"/>
<path d="M90.0443 317.402H84.9043V317.605H90.0443V317.402Z" fill="#EBEBEB"/>
<path d="M182.823 320.83H106.755V321.033H182.823V320.83Z" fill="#EBEBEB"/>
<path d="M192.445 274.294H35.6557C34.4275 274.292 33.2502 273.802 32.3825 272.933C31.5147 272.064 31.0273 270.886 31.0273 269.657V49.2561C31.038 48.0348 31.5301 46.8672 32.3967 46.0066C33.2633 45.1461 34.4345 44.6622 35.6557 44.6602H192.445C193.675 44.6602 194.854 45.1486 195.723 46.0182C196.593 46.8877 197.081 48.067 197.081 49.2967V269.657C197.081 270.887 196.593 272.066 195.723 272.936C194.854 273.805 193.675 274.294 192.445 274.294ZM35.6557 44.8226C34.4813 44.8247 33.3557 45.2928 32.526 46.124C31.6963 46.9552 31.2303 48.0816 31.2303 49.2561V269.657C31.2303 270.832 31.6963 271.958 32.526 272.789C33.3557 273.621 34.4813 274.089 35.6557 274.091H192.445C193.62 274.089 194.746 273.621 195.577 272.79C196.408 271.959 196.876 270.832 196.878 269.657V49.2561C196.876 48.0809 196.408 46.9545 195.577 46.1235C194.746 45.2925 193.62 44.8247 192.445 44.8226H35.6557Z" fill="#EBEBEB"/>
<path d="M368.087 274.294H211.29C210.061 274.292 208.883 273.802 208.014 272.933C207.145 272.064 206.655 270.886 206.653 269.657V49.2561C206.666 48.0341 207.16 46.8664 208.028 46.0061C208.896 45.1458 210.068 44.6622 211.29 44.6602H368.087C369.307 44.6644 370.476 45.1492 371.341 46.0095C372.206 46.8698 372.697 48.0363 372.707 49.2561V269.657C372.707 270.884 372.221 272.061 371.355 272.93C370.489 273.799 369.314 274.289 368.087 274.294ZM211.29 44.8226C210.115 44.8247 208.988 45.2925 208.157 46.1235C207.326 46.9545 206.858 48.0809 206.856 49.2561V269.657C206.858 270.832 207.326 271.959 208.157 272.79C208.988 273.621 210.115 274.089 211.29 274.091H368.087C369.262 274.089 370.389 273.621 371.22 272.79C372.051 271.959 372.518 270.832 372.521 269.657V49.2561C372.518 48.0809 372.051 46.9545 371.22 46.1235C370.389 45.2925 369.262 44.8247 368.087 44.8226H211.29Z" fill="#EBEBEB"/>
<path d="M182.774 92.5771L191.162 91.351L182.774 90.1249L184.845 86.8444L181.564 88.915L180.338 80.5352L179.112 88.915L175.832 86.8444L177.91 90.1249L169.522 91.351L177.91 92.5771L175.832 95.8576L179.112 93.7789L180.338 102.167L181.564 93.7789L184.845 95.8576L182.774 92.5771Z" fill="#F5F5F5"/>
<path d="M267.091 114.963L275.471 113.737L267.091 112.511L269.161 109.23L265.881 111.301L264.655 102.913L263.429 111.301L260.148 109.23L262.227 112.511L253.839 113.737L262.227 114.963L260.148 118.244L263.429 116.165L264.655 124.553L265.881 116.165L269.161 118.244L267.091 114.963Z" fill="#F5F5F5"/>
<path d="M149.165 151.341L157.553 150.115L149.165 148.881L151.243 145.608L147.963 147.679L146.737 139.291L145.511 147.679L142.23 145.608L144.309 148.881L135.921 150.115L144.309 151.341L142.23 154.622L145.511 152.543L146.737 160.931L147.963 152.543L151.243 154.622L149.165 151.341Z" fill="#F5F5F5"/>
<path d="M78.2675 151.341L86.6473 150.115L78.2675 148.881L80.3381 145.608L77.0576 147.679L75.8315 139.291L74.6053 147.679L71.3249 145.608L73.4036 148.881L65.0156 150.115L73.4036 151.341L71.3249 154.622L74.6053 152.543L75.8315 160.931L77.0576 152.543L80.3381 154.622L78.2675 151.341Z" fill="#F5F5F5"/>
<path d="M118.43 201.271L126.818 200.045L118.43 198.81L120.508 195.538L117.228 197.609L116.002 189.221L114.767 197.609L111.495 195.538L113.566 198.81L105.178 200.045L113.566 201.271L111.495 204.551L114.767 202.473L116.002 210.861L117.228 202.473L120.508 204.551L118.43 201.271Z" fill="#F5F5F5"/>
<path d="M283.192 174.385L291.58 173.159L283.192 171.933L285.271 168.652L281.99 170.731L280.764 162.343L279.538 170.731L276.257 168.652L278.328 171.933L269.948 173.159L278.328 174.385L276.257 177.665L279.538 175.595L280.764 183.983L281.99 175.595L285.271 177.665L283.192 174.385Z" fill="#F5F5F5"/>
<path d="M342.355 248.708L350.735 247.474L342.355 246.248L344.426 242.976L341.145 245.046L339.919 236.658L338.693 245.046L335.413 242.976L337.491 246.248L329.104 247.474L337.491 248.708L335.413 251.981L338.693 249.91L339.919 258.298L341.145 249.91L344.426 251.981L342.355 248.708Z" fill="#F5F5F5"/>
<path d="M272.378 246.125L280.766 244.899L272.378 243.665L274.457 240.393L271.176 242.463L269.95 234.075L268.716 242.463L265.443 240.393L267.514 243.665L259.126 244.899L267.514 246.125L265.443 249.406L268.716 247.327L269.95 255.715L271.176 247.327L274.457 249.406L272.378 246.125Z" fill="#F5F5F5"/>
<path d="M118.43 263.599L126.818 262.365L118.43 261.139L120.508 257.858L117.228 259.937L116.002 251.549L114.767 259.937L111.495 257.858L113.566 261.139L105.178 262.365L113.566 263.599L111.495 266.871L114.767 264.801L116.002 273.189L117.228 264.801L120.508 266.871L118.43 263.599Z" fill="#F5F5F5"/>
<path d="M209.571 225.476L217.959 224.249L209.571 223.023L211.65 219.743L208.369 221.813L207.143 213.434L205.917 221.813L202.637 219.743L204.707 223.023L196.319 224.249L204.707 225.476L202.637 228.756L205.917 226.677L207.143 235.065L208.369 226.677L211.65 228.756L209.571 225.476Z" fill="#F5F5F5"/>
<path d="M161.986 315.795L170.374 314.569L161.986 313.343L164.057 310.062L160.776 312.133L159.55 303.753L158.324 312.133L155.044 310.062L157.122 313.343L148.734 314.569L157.122 315.795L155.044 319.075L158.324 316.997L159.55 325.385L160.776 316.997L164.057 319.075L161.986 315.795Z" fill="#F5F5F5"/>
<path d="M255.294 310.322L263.682 309.096L255.294 307.87L257.364 304.59L254.092 306.668L252.858 298.28L251.632 306.668L248.351 304.59L250.43 307.87L242.042 309.096L250.43 310.322L248.351 313.603L251.632 311.524L252.858 319.912L254.092 311.524L257.364 313.603L255.294 310.322Z" fill="#F5F5F5"/>
<path d="M256.348 158.916C251.362 151.535 249.227 139.956 244.655 135.368C248.195 132.651 251.95 130.229 255.885 128.125C258.687 136.188 260.351 148.701 267.578 151.673C264.039 154.39 260.283 156.812 256.348 158.916Z" fill="#EBEBEB"/>
<path d="M264.795 153.055C264.096 152.592 264.275 151.682 265.128 151.114C260.126 147.095 258.331 137.74 256.066 130.741C255.881 130.825 255.681 130.868 255.478 130.867C255.276 130.867 255.075 130.822 254.891 130.738C254.707 130.653 254.544 130.53 254.411 130.376C254.279 130.222 254.182 130.042 254.125 129.848C251.751 131.163 249.447 132.602 247.223 134.159C247.396 134.569 247.408 135.028 247.258 135.447C247.107 135.865 246.805 136.211 246.411 136.417C249.797 141.199 251.86 150.026 255.562 156.619C255.978 156.465 256.433 156.45 256.858 156.577C257.283 156.705 257.655 156.968 257.917 157.326C260.283 156.023 262.579 154.598 264.795 153.055ZM252.615 144.862C251.876 142.888 252.558 140.745 254.068 140.046C255.579 139.348 257.316 140.509 258.006 142.531C258.697 144.553 258.161 146.648 256.659 147.314C255.156 147.98 253.346 146.851 252.639 144.862H252.615Z" fill="#E0E0E0"/>
<path d="M142.952 134.695C135.814 138.544 124.991 139.023 120.476 142.855C118.211 139.015 116.235 135.012 114.564 130.878C122.189 129.254 133.841 129.368 137.041 122.718C139.312 126.554 141.288 130.558 142.952 134.695Z" fill="#EBEBEB"/>
<path d="M138.127 125.625C137.656 126.25 136.82 125.95 136.357 125.032C132.297 129.36 123.568 129.823 116.95 131.065C117.022 131.243 117.054 131.435 117.043 131.626C117.033 131.817 116.98 132.004 116.89 132.173C116.799 132.342 116.672 132.489 116.519 132.603C116.365 132.718 116.188 132.797 116 132.836C116.966 135.142 118.111 137.57 119.508 140.144C120.133 139.827 121.051 140.322 121.538 141.248C126.174 138.609 134.449 137.813 140.79 135.109C140.666 134.704 140.678 134.269 140.824 133.872C140.971 133.474 141.244 133.136 141.602 132.909C140.644 130.611 139.515 128.191 138.135 125.601L138.127 125.625ZM129.747 136.416C128.892 136.647 127.983 136.563 127.185 136.178C126.387 135.793 125.755 135.134 125.403 134.322C124.859 132.698 126.053 131.228 127.961 130.822C129.869 130.416 131.769 131.236 132.281 132.795C132.792 134.354 131.623 135.946 129.747 136.416Z" fill="#E0E0E0"/>
<path d="M213.791 123.895C207.725 118.495 203.568 108.467 198.42 105.568C201.251 102.122 204.337 98.895 207.652 95.9131C211.785 102.523 215.675 113.509 223.015 114.232C220.187 117.679 217.104 120.909 213.791 123.895Z" fill="#EBEBEB"/>
<path d="M220.654 116.246C219.915 116.019 219.907 115.134 220.613 114.387C215.181 112.056 211.73 104.009 208.295 98.2523C208.153 98.3819 207.984 98.4783 207.8 98.5345C207.616 98.5907 207.421 98.6053 207.231 98.5774C207.041 98.5494 206.859 98.4795 206.699 98.3727C206.539 98.266 206.405 98.125 206.306 97.96C204.47 99.6652 202.579 101.565 200.622 103.774C201.133 104.253 200.979 105.284 200.272 106.056C204.332 109.515 207.921 117.018 212.639 122.044C212.977 121.789 213.389 121.651 213.813 121.651C214.236 121.651 214.648 121.789 214.986 122.044C216.813 120.355 218.697 118.463 220.67 116.279L220.654 116.246ZM207.662 112.056C207.151 111.332 206.919 110.448 207.009 109.566C207.098 108.684 207.503 107.864 208.149 107.257C209.448 106.21 211.267 106.811 212.314 108.467C213.362 110.124 213.224 112.186 211.933 113.201C210.642 114.216 208.742 113.68 207.686 112.056H207.662Z" fill="#E0E0E0"/>
<path d="M232.825 208.579C230.056 200.954 231.16 190.179 228.034 185.152C232.163 183.479 236.411 182.117 240.742 181.076C241.237 188.855 239.418 200.369 245.533 204.51C241.405 206.184 237.157 207.543 232.825 208.579Z" fill="#EBEBEB"/>
<path d="M242.495 205.128C241.951 204.568 242.374 203.797 243.307 203.504C239.621 198.86 240.441 190.147 240.181 183.423C239.994 183.47 239.798 183.475 239.609 183.438C239.419 183.4 239.24 183.321 239.085 183.206C238.93 183.091 238.802 182.944 238.711 182.773C238.619 182.603 238.567 182.415 238.557 182.222C236.121 182.847 233.563 183.618 230.786 184.617C231.006 185.283 230.38 186.119 229.39 186.46C231.322 191.438 230.9 199.745 232.638 206.403C233.056 206.344 233.482 206.422 233.854 206.623C234.225 206.825 234.522 207.141 234.7 207.524C237.136 206.907 239.678 206.143 242.447 205.153L242.495 205.128ZM233.092 195.271C232.985 194.391 233.199 193.503 233.697 192.77C234.194 192.037 234.94 191.509 235.796 191.284C237.42 190.975 238.752 192.372 238.882 194.321C239.012 196.269 237.916 198.023 236.3 198.307C234.684 198.592 233.239 197.195 233.092 195.271Z" fill="#E0E0E0"/>
<path d="M340.683 177.512C334.617 172.112 330.46 162.084 325.312 159.185C328.144 155.741 331.231 152.514 334.544 149.53C338.685 156.14 342.575 167.126 349.915 167.849C347.084 171.297 343.998 174.527 340.683 177.512Z" fill="#EBEBEB"/>
<path d="M347.536 169.871C346.789 169.636 346.789 168.751 347.496 168.004C342.047 165.649 338.604 157.626 335.186 151.845C335.043 151.975 334.874 152.071 334.69 152.127C334.506 152.183 334.312 152.198 334.122 152.17C333.931 152.142 333.75 152.072 333.59 151.966C333.429 151.859 333.295 151.718 333.196 151.553C331.361 153.258 329.469 155.158 327.512 157.367C328.024 157.846 327.87 158.877 327.163 159.648C331.223 163.107 334.812 170.61 339.53 175.637C339.868 175.383 340.28 175.246 340.703 175.246C341.126 175.246 341.538 175.383 341.877 175.637C343.704 173.948 345.587 172.056 347.561 169.871H347.536ZM334.544 165.649C334.033 164.927 333.8 164.043 333.89 163.162C333.979 162.282 334.385 161.463 335.031 160.858C336.322 159.803 338.149 160.404 339.189 162.06C340.228 163.716 340.106 165.779 338.815 166.794C337.524 167.809 335.632 167.273 334.544 165.649Z" fill="#E0E0E0"/>
<path d="M335.873 165.136L335.524 165.404L335.321 165.087L335.662 164.82C335.449 164.468 335.326 164.069 335.305 163.658L335.727 163.585C335.739 163.927 335.83 164.26 335.995 164.56L336.604 164.089C336.417 163.585 336.23 163.025 336.661 162.692C336.969 162.448 337.432 162.538 337.862 163.122L338.212 162.854L338.415 163.179L338.074 163.439C338.241 163.732 338.352 164.055 338.398 164.389L337.984 164.462C337.944 164.197 337.862 163.939 337.741 163.699L337.124 164.178C337.318 164.681 337.521 165.242 337.124 165.567C336.726 165.891 336.312 165.721 335.873 165.136ZM336.977 163.796L337.53 163.382C337.318 163.122 337.132 163.09 336.994 163.196C336.856 163.301 336.888 163.528 336.977 163.796ZM336.734 165.079C336.888 164.966 336.847 164.738 336.734 164.462L336.19 164.884C336.425 165.144 336.604 165.185 336.734 165.079Z" fill="#E0E0E0"/>
<path d="M196.845 161.499C191.397 168.523 186.419 176.042 184.219 184.073C180.549 182.554 176.781 181.028 173.103 179.249C175.985 170.894 180.963 163.562 185.729 156.676C189.399 158.194 193.167 159.721 196.845 161.499Z" fill="#EBEBEB"/>
<path d="M187.436 158.073C187.163 158.44 186.778 158.709 186.339 158.839C185.9 158.97 185.43 158.954 185 158.795C181.07 164.536 177.14 170.594 174.493 177.309C174.893 177.523 175.203 177.873 175.369 178.296C175.534 178.718 175.543 179.186 175.394 179.615C177.692 180.671 180.015 181.653 182.313 182.611C182.37 182.411 182.47 182.226 182.605 182.068C182.74 181.91 182.908 181.783 183.096 181.695C183.285 181.607 183.49 181.561 183.698 181.559C183.906 181.558 184.112 181.601 184.302 181.686C186.535 175.149 190.457 168.978 194.809 163.139C194.62 163.056 194.453 162.928 194.322 162.768C194.19 162.608 194.098 162.419 194.053 162.217C194.008 162.015 194.011 161.805 194.062 161.604C194.113 161.403 194.211 161.217 194.347 161.061C192.04 160.005 189.726 159.023 187.428 158.064L187.436 158.073ZM186.762 171.333C186.33 172.132 185.618 172.744 184.763 173.052C183.908 173.361 182.969 173.344 182.126 173.005C181.733 172.817 181.384 172.548 181.103 172.215C180.821 171.883 180.613 171.494 180.492 171.076C180.371 170.657 180.34 170.218 180.4 169.786C180.46 169.355 180.611 168.941 180.843 168.572C181.307 167.773 182.044 167.169 182.919 166.87C183.793 166.572 184.746 166.599 185.601 166.948C185.993 167.131 186.34 167.398 186.618 167.73C186.895 168.062 187.096 168.451 187.207 168.869C187.318 169.287 187.335 169.724 187.258 170.15C187.182 170.576 187.012 170.979 186.762 171.333Z" fill="#E0E0E0"/>
<path d="M185.519 170.39L185.957 170.593L185.77 170.918L185.332 170.715C185.12 171.061 184.816 171.342 184.455 171.527L184.155 171.161C184.458 171.01 184.718 170.784 184.91 170.503L184.098 170.138C183.74 170.528 183.326 170.95 182.782 170.69C182.384 170.503 182.198 170.041 182.498 169.391L182.06 169.188L182.246 168.863L182.685 169.066C182.866 168.783 183.11 168.547 183.399 168.376L183.7 168.717C183.47 168.859 183.269 169.044 183.107 169.261L183.919 169.626C184.284 169.237 184.731 168.814 185.259 169.074C185.657 169.277 185.827 169.708 185.519 170.39ZM183.651 169.935L182.953 169.61C182.831 169.911 182.904 170.097 183.075 170.179C183.245 170.26 183.448 170.138 183.651 169.935ZM184.991 169.618C184.796 169.529 184.601 169.659 184.398 169.87L185.096 170.187C185.218 169.878 185.137 169.708 184.991 169.618Z" fill="#E0E0E0"/>
<path d="M335.299 203.139C329.842 210.162 324.872 217.682 322.672 225.712C319.002 224.194 315.234 222.667 311.556 220.889C314.438 212.534 319.416 205.201 324.174 198.315C327.853 199.834 331.62 201.377 335.299 203.139Z" fill="#EBEBEB"/>
<path d="M325.887 199.704C325.615 200.074 325.231 200.346 324.791 200.477C324.352 200.609 323.881 200.594 323.451 200.435C319.521 206.168 315.59 212.233 312.943 218.949C313.345 219.159 313.658 219.507 313.825 219.928C313.992 220.35 314.002 220.818 313.853 221.246C316.151 222.31 318.473 223.285 320.771 224.251C320.827 224.05 320.926 223.864 321.061 223.705C321.196 223.546 321.364 223.419 321.553 223.331C321.742 223.243 321.948 223.197 322.156 223.196C322.365 223.195 322.571 223.239 322.76 223.325C324.993 216.829 328.915 210.617 333.268 204.779C333.078 204.695 332.911 204.568 332.78 204.408C332.649 204.248 332.557 204.059 332.512 203.857C332.467 203.654 332.47 203.444 332.521 203.244C332.572 203.043 332.669 202.857 332.805 202.7C330.507 201.653 328.193 200.67 325.895 199.712L325.887 199.704ZM325.172 212.988C324.739 213.788 324.028 214.4 323.173 214.708C322.318 215.017 321.379 215 320.536 214.661C320.142 214.474 319.792 214.205 319.51 213.873C319.228 213.54 319.019 213.152 318.898 212.733C318.776 212.314 318.745 211.874 318.807 211.442C318.868 211.01 319.02 210.596 319.253 210.228C319.728 209.448 320.466 208.863 321.334 208.58C322.202 208.297 323.143 208.334 323.987 208.685C324.368 208.867 324.707 209.13 324.978 209.454C325.25 209.779 325.448 210.158 325.561 210.566C325.673 210.974 325.697 211.402 325.63 211.82C325.563 212.237 325.407 212.636 325.172 212.988Z" fill="#E0E0E0"/>
<path d="M323.988 212.03L324.427 212.233C324.362 212.338 324.297 212.444 324.24 212.557L323.802 212.354C323.582 212.698 323.277 212.977 322.917 213.166L322.624 212.801C322.926 212.647 323.186 212.422 323.379 212.143L322.567 211.778C322.21 212.168 321.796 212.59 321.252 212.33C320.854 212.143 320.667 211.681 320.968 211.031L320.529 210.828C320.586 210.714 320.651 210.609 320.716 210.503L321.155 210.706C321.335 210.421 321.58 210.182 321.869 210.008L322.161 210.357C321.935 210.502 321.737 210.686 321.577 210.901L322.389 211.266C322.754 210.877 323.201 210.454 323.729 210.714C324.11 210.917 324.273 211.372 323.988 212.03ZM322.121 211.575L321.423 211.25C321.301 211.551 321.374 211.737 321.544 211.819C321.715 211.9 321.902 211.778 322.105 211.575H322.121ZM323.461 211.258C323.266 211.169 323.071 211.299 322.868 211.502L323.558 211.827C323.672 211.518 323.615 211.331 323.444 211.258H323.461Z" fill="#E0E0E0"/>
<path d="M300.295 108.533C299.864 99.674 291.939 93.5759 291.509 84.717L302.877 80.5352C303.315 89.3941 311.232 95.4922 311.671 104.343L300.295 108.533Z" fill="#EBEBEB"/>
<path d="M309.444 104.465C309.397 104.002 309.498 103.536 309.733 103.135C309.968 102.733 310.325 102.417 310.751 102.232C309.379 95.3379 303.89 89.9706 302.534 83.0767C302.345 83.1597 302.139 83.1957 301.934 83.1817C301.728 83.1678 301.529 83.1042 301.354 82.9964C301.178 82.8886 301.031 82.7399 300.925 82.563C300.82 82.3861 300.759 82.1862 300.747 81.9805L293.683 84.587C293.731 85.0488 293.631 85.5139 293.397 85.9152C293.164 86.3165 292.809 86.6333 292.384 86.82C293.74 93.7139 299.229 99.0893 300.601 105.983C300.789 105.9 300.994 105.864 301.198 105.877C301.403 105.891 301.601 105.954 301.776 106.061C301.951 106.168 302.097 106.316 302.202 106.492C302.307 106.668 302.368 106.867 302.38 107.071L309.436 104.465H309.444ZM298.523 95.5328C298.302 95.1691 298.167 94.7603 298.126 94.337C298.086 93.9137 298.141 93.4867 298.289 93.0878C298.436 92.689 298.672 92.3286 298.978 92.0334C299.284 91.7383 299.653 91.5161 300.057 91.3834C300.941 91.0939 301.897 91.1166 302.766 91.4477C303.636 91.7787 304.365 92.3981 304.832 93.2023C305.054 93.5651 305.191 93.9734 305.233 94.3968C305.275 94.8201 305.22 95.2474 305.073 95.6466C304.926 96.0458 304.691 96.4066 304.385 96.7019C304.079 96.9972 303.71 97.2193 303.305 97.3516C302.417 97.6404 301.456 97.614 300.585 97.2767C299.713 96.9394 298.985 96.312 298.523 95.5003V95.5328Z" fill="#E0E0E0"/>
<path d="M300.182 95.2722L299.711 95.4427L299.532 95.126L299.995 94.9474C299.811 94.6166 299.742 94.2336 299.8 93.8593H300.32C300.267 94.1677 300.309 94.4851 300.442 94.7687L301.254 94.4602C301.124 93.9811 301.018 93.4533 301.595 93.2422C301.855 93.1682 302.132 93.186 302.38 93.2925C302.629 93.3989 302.833 93.5876 302.959 93.8268L303.43 93.6563L303.617 93.9811L303.146 94.1516C303.288 94.4269 303.356 94.7351 303.341 95.0448H302.878C302.89 94.7971 302.846 94.5499 302.748 94.3221L301.936 94.6388C302.066 95.1179 302.187 95.6457 301.603 95.8568C301.335 95.9474 301.044 95.9381 300.783 95.8307C300.522 95.7232 300.308 95.5248 300.182 95.2722ZM301.806 94.2896L302.545 94.0136C302.342 93.7537 302.131 93.6888 301.944 93.7537C301.757 93.8187 301.733 94.0379 301.79 94.2896H301.806ZM301.246 95.3777C301.449 95.3046 301.449 95.0935 301.392 94.8337L300.653 95.1016C300.84 95.3777 301.051 95.4427 301.254 95.3777H301.246Z" fill="#E0E0E0"/>
<path d="M70.1836 213.46C69.7451 204.625 61.8281 198.503 61.3896 189.644L72.7576 185.462C73.1961 194.321 81.1131 200.411 81.5516 209.27L70.1836 213.46Z" fill="#EBEBEB"/>
<path d="M79.3329 209.392C79.2851 208.93 79.3852 208.465 79.6186 208.063C79.8521 207.662 80.207 207.345 80.6321 207.159C79.2679 200.265 73.7788 194.897 72.4146 187.995C72.2268 188.08 72.0212 188.118 71.8155 188.105C71.6098 188.093 71.4103 188.03 71.2343 187.923C71.0583 187.816 70.9111 187.667 70.8055 187.49C70.6999 187.313 70.639 187.113 70.6283 186.907L63.5638 189.514C63.6116 189.976 63.5116 190.441 63.2781 190.842C63.0446 191.243 62.6897 191.56 62.2646 191.747C63.6288 198.641 69.1179 204.016 70.4821 210.91C70.6699 210.825 70.8756 210.787 71.0813 210.8C71.2869 210.813 71.4864 210.875 71.6624 210.983C71.8384 211.09 71.9856 211.238 72.0912 211.415C72.1969 211.592 72.2577 211.792 72.2685 211.998L79.3329 209.392ZM68.4034 200.46C68.1829 200.096 68.0474 199.687 68.007 199.264C67.9665 198.84 68.0221 198.413 68.1696 198.015C68.3171 197.616 68.5528 197.255 68.859 196.96C69.1652 196.665 69.534 196.443 69.938 196.31C70.8208 196.023 71.7753 196.046 72.6426 196.377C73.51 196.708 74.2377 197.327 74.7045 198.129C74.9266 198.492 75.0638 198.9 75.1056 199.324C75.1474 199.747 75.0928 200.174 74.9459 200.573C74.7991 200.973 74.5637 201.333 74.2575 201.629C73.9513 201.924 73.5822 202.146 73.1779 202.278C72.2905 202.565 71.3315 202.538 70.462 202.2C69.5925 201.863 68.8655 201.237 68.4034 200.427V200.46Z" fill="#E0E0E0"/>
<path d="M70.0578 200.198L69.5868 200.369L69.4082 200.044L69.871 199.874C69.6927 199.541 69.6272 199.159 69.6843 198.786H70.204C70.1465 199.094 70.1891 199.413 70.3258 199.695L71.1378 199.386C70.9997 198.907 70.8942 198.38 71.4788 198.168C71.7387 198.093 72.0168 198.11 72.2655 198.217C72.5143 198.323 72.7184 198.513 72.843 198.753L73.3139 198.583L73.4926 198.907L73.0297 199.078C73.1761 199.352 73.2409 199.662 73.2165 199.971H72.7049C72.7174 199.723 72.6729 199.476 72.575 199.248L71.763 199.565C71.901 200.036 72.0147 200.572 71.4382 200.783C71.176 200.861 70.8948 200.846 70.6429 200.739C70.391 200.632 70.1841 200.441 70.0578 200.198ZM71.6818 199.216L72.4288 198.94C72.3701 198.836 72.2785 198.754 72.1684 198.707C72.0583 198.66 71.9358 198.65 71.8198 198.68C71.6087 198.753 71.6087 198.94 71.6656 199.216H71.6818ZM71.1215 200.304C71.3326 200.231 71.3326 200.02 71.2677 199.752L70.5288 200.028C70.7236 200.304 70.9266 200.369 71.1053 200.304H71.1215Z" fill="#E0E0E0"/>
<path d="M99.1871 108.354C96.0934 116.897 85.3831 116.726 81.859 123.969C78.5623 121.07 75.363 118.285 72.1719 115.8C75.2575 107.258 85.9759 107.429 89.5 100.186C92.7886 103.125 96.0366 105.845 99.1871 108.354Z" fill="#EBEBEB"/>
<path d="M91.0734 102.353C90.6593 103.116 89.6362 103.108 88.8891 102.442C85.0402 107.46 77.2288 108.288 73.6885 114.151C74.034 114.457 74.2718 114.866 74.3669 115.318C74.4619 115.77 74.4091 116.24 74.2163 116.66C76.203 118.284 78.2221 120 80.2738 121.808C80.6879 121.053 81.711 121.053 82.45 121.719C86.2988 116.701 94.1103 115.872 97.6587 110.01C97.3128 109.706 97.0745 109.298 96.9793 108.847C96.8842 108.396 96.9374 107.927 97.1309 107.509C95.1334 105.885 93.1115 104.169 91.0653 102.361L91.0734 102.353ZM88.1908 114.533C86.6318 115.345 84.1308 114.89 82.6286 113.501C81.1264 112.113 81.0046 110.253 82.6286 109.441C84.2526 108.629 86.6886 109.084 88.1989 110.481C89.7092 111.877 89.7417 113.729 88.1908 114.549V114.533Z" fill="#E0E0E0"/>
<path d="M87.1774 113.193C87.3235 113.323 87.4616 113.445 87.5915 113.575L87.291 113.737L86.8769 113.364C86.4968 113.531 86.0804 113.598 85.667 113.558L85.4559 113.128C85.8031 113.168 86.1549 113.121 86.479 112.99L85.7401 112.316C85.4736 112.426 85.1827 112.462 84.8973 112.422C84.6119 112.382 84.3423 112.267 84.1161 112.089C84.0166 112.024 83.9364 111.934 83.8838 111.828C83.8313 111.722 83.8084 111.604 83.8175 111.486C83.8266 111.367 83.8675 111.254 83.9358 111.157C84.0041 111.06 84.0972 110.984 84.2054 110.936L83.7832 110.554L84.0836 110.392L84.4978 110.765C84.8069 110.629 85.1429 110.566 85.4803 110.578L85.6995 111.001C85.4233 110.996 85.1484 111.04 84.8875 111.131L85.6427 111.821C85.9073 111.704 86.199 111.662 86.4856 111.701C86.7723 111.74 87.0426 111.857 87.2667 112.04C87.3639 112.106 87.4419 112.196 87.4928 112.302C87.5438 112.408 87.5658 112.525 87.5568 112.642C87.5477 112.759 87.5078 112.872 87.4412 112.969C87.3746 113.065 87.2835 113.143 87.1774 113.193ZM85.261 111.91L84.5952 111.301C84.5515 111.328 84.5155 111.366 84.4905 111.41C84.4655 111.455 84.4524 111.506 84.4524 111.557C84.4524 111.608 84.4655 111.659 84.4905 111.703C84.5155 111.748 84.5515 111.786 84.5952 111.813C84.6928 111.875 84.8027 111.917 84.9176 111.934C85.0324 111.95 85.1495 111.942 85.261 111.91ZM86.8038 112.324C86.7003 112.254 86.5819 112.209 86.458 112.192C86.334 112.175 86.2078 112.187 86.0893 112.227L86.747 112.828C87.0069 112.649 86.9987 112.47 86.8363 112.324H86.8038Z" fill="#E0E0E0"/>
<path d="M107.509 229.163C104.424 237.705 93.7054 237.535 90.1813 244.778C86.9333 241.879 83.6853 239.094 80.4941 236.609C83.5879 228.067 94.2981 228.237 97.8222 220.994C101.119 223.893 104.359 226.654 107.509 229.163Z" fill="#EBEBEB"/>
<path d="M99.3966 223.162C98.9825 223.917 97.9675 223.917 97.2205 223.251C93.3716 228.27 85.5602 229.098 82.0117 234.96C82.3597 235.265 82.5999 235.674 82.6965 236.126C82.7931 236.578 82.7409 237.049 82.5476 237.47C84.537 239.094 86.5589 240.831 88.6052 242.618C89.0112 241.862 90.0343 241.862 90.7813 242.528C94.6221 237.51 102.442 236.674 105.982 230.819C105.636 230.515 105.398 230.107 105.303 229.656C105.207 229.206 105.261 228.736 105.454 228.318C103.467 226.694 101.448 224.978 99.3966 223.17V223.162ZM96.514 235.342C94.9631 236.154 92.454 235.699 90.96 234.311C89.4659 232.922 89.336 231.063 90.96 230.251C92.584 229.439 95.02 229.894 96.5222 231.29C98.0244 232.687 98.065 234.538 96.514 235.358V235.342Z" fill="#E0E0E0"/>
<path d="M95.5074 234.003L95.9216 234.384C95.816 234.433 95.7186 234.49 95.6211 234.547L95.207 234.165C94.8252 234.336 94.4057 234.406 93.989 234.368C93.924 234.222 93.851 234.084 93.786 233.938C94.1332 233.977 94.4848 233.93 94.8091 233.8L94.0621 233.126C93.7949 233.234 93.5036 233.269 93.2181 233.228C92.9327 233.187 92.6635 233.07 92.4381 232.89C92.3407 232.825 92.2623 232.736 92.2111 232.63C92.1599 232.525 92.1377 232.408 92.1468 232.291C92.1559 232.175 92.196 232.063 92.2629 231.967C92.3298 231.871 92.4211 231.794 92.5274 231.745L92.1133 231.364L92.4137 231.201L92.8278 231.575C93.1348 231.44 93.4672 231.374 93.8022 231.38C93.8753 231.526 93.9565 231.664 94.0296 231.802C93.7528 231.799 93.4778 231.846 93.2176 231.94L93.9646 232.622C94.2312 232.513 94.522 232.476 94.8074 232.516C95.0928 232.556 95.3625 232.671 95.5886 232.85C95.6861 232.915 95.7646 233.005 95.8162 233.11C95.8678 233.215 95.8907 233.333 95.8824 233.45C95.8742 233.567 95.8352 233.679 95.7693 233.777C95.7035 233.874 95.6131 233.952 95.5074 234.003ZM93.6155 232.711L92.9578 232.111C92.7304 232.289 92.7548 232.468 92.9578 232.622C93.0549 232.683 93.1637 232.722 93.2771 232.737C93.3904 232.753 93.5057 232.744 93.6155 232.711ZM95.1583 233.134C95.0564 233.06 94.9379 233.012 94.8132 232.995C94.6886 232.978 94.5616 232.992 94.4437 233.036L95.1014 233.637C95.3288 233.459 95.3207 233.28 95.1583 233.134Z" fill="#E0E0E0"/>
<path d="M254.04 144.698L253.634 144.869C253.594 144.739 253.545 144.609 253.496 144.471L253.894 144.3C253.752 143.88 253.71 143.432 253.772 142.993L254.211 143.05C254.156 143.411 254.181 143.779 254.284 144.13L254.99 143.821C254.901 143.245 254.828 142.611 255.331 142.4C255.697 142.238 256.143 142.465 256.452 143.212L256.85 143.034L256.996 143.431L256.598 143.602C256.71 143.95 256.754 144.317 256.728 144.682L256.298 144.633C256.314 144.343 256.284 144.053 256.208 143.772L255.494 144.081C255.583 144.658 255.672 145.299 255.177 145.51C254.812 145.656 254.365 145.429 254.04 144.698ZM255.429 143.643L256.062 143.366C255.9 143.042 255.721 142.944 255.567 143.017C255.412 143.09 255.388 143.334 255.429 143.643ZM254.917 144.893C255.096 144.82 255.104 144.568 255.055 144.252L254.43 144.528C254.592 144.861 254.771 144.958 254.917 144.893Z" fill="#E0E0E0"/>
<path d="M129.684 134.98C129.733 135.109 129.774 135.256 129.822 135.394L129.449 135.475C129.4 135.337 129.359 135.199 129.319 135.061C128.914 135.143 128.495 135.12 128.101 134.996C128.101 134.858 128.158 134.72 128.182 134.574C128.506 134.683 128.851 134.714 129.189 134.663C129.108 134.419 129.027 134.168 128.953 133.924C128.409 133.924 127.825 133.924 127.654 133.396C127.541 133.014 127.776 132.584 128.466 132.414C128.426 132.276 128.377 132.138 128.336 131.991L128.71 131.91C128.71 132.048 128.799 132.186 128.84 132.324C129.169 132.259 129.509 132.259 129.839 132.324C129.839 132.462 129.839 132.6 129.774 132.738C129.505 132.693 129.23 132.693 128.962 132.738C129.035 132.99 129.116 133.234 129.197 133.485C129.733 133.485 130.334 133.485 130.488 133.989C130.626 134.354 130.383 134.793 129.684 134.98ZM128.807 133.477C128.742 133.258 128.669 133.031 128.604 132.82C128.288 132.925 128.19 133.088 128.247 133.25C128.304 133.412 128.523 133.469 128.807 133.477ZM129.936 134.143C129.879 133.956 129.644 133.924 129.351 133.916C129.424 134.135 129.489 134.354 129.562 134.574C129.92 134.46 129.985 134.297 129.92 134.143H129.936Z" fill="#E0E0E0"/>
<path d="M208.984 111.521L208.635 111.789L208.432 111.472L208.773 111.204C208.56 110.852 208.438 110.453 208.416 110.043L208.838 109.97C208.85 110.311 208.942 110.645 209.106 110.944L209.723 110.473C209.528 109.97 209.342 109.409 209.772 109.076C210.202 108.744 210.584 108.922 210.974 109.507L211.323 109.239L211.526 109.564L211.185 109.824C211.353 110.117 211.463 110.439 211.51 110.774L211.096 110.847C211.055 110.581 210.973 110.323 210.852 110.083L210.235 110.562C210.43 111.066 210.633 111.626 210.235 111.951C209.837 112.276 209.423 112.105 208.984 111.521ZM210.089 110.181L210.641 109.767C210.43 109.507 210.243 109.474 210.105 109.572C209.967 109.669 209.999 109.913 210.089 110.181ZM209.853 111.464C209.999 111.35 209.959 111.123 209.853 110.847L209.309 111.261C209.537 111.529 209.715 111.569 209.853 111.464Z" fill="#E0E0E0"/>
<path d="M234.481 195.416L234.051 195.489C234.051 195.359 234.051 195.229 234.051 195.107L234.481 195.034C234.463 194.623 234.547 194.213 234.725 193.841L235.131 193.987C234.976 194.288 234.895 194.622 234.895 194.961L235.667 194.839C235.732 194.304 235.837 193.727 236.373 193.638C236.763 193.573 237.12 193.865 237.226 194.588L237.656 194.523V194.904L237.234 194.969C237.245 195.307 237.19 195.644 237.071 195.96L236.665 195.83C236.764 195.571 236.816 195.296 236.82 195.018L236.048 195.148C235.975 195.684 235.894 196.269 235.358 196.358C234.96 196.431 234.595 196.139 234.481 195.416ZM236.105 194.766L236.787 194.653C236.722 194.328 236.576 194.214 236.406 194.239C236.235 194.263 236.146 194.482 236.097 194.766H236.105ZM235.293 195.781C235.48 195.781 235.553 195.53 235.602 195.237L234.92 195.343C234.968 195.692 235.106 195.806 235.269 195.781H235.293Z" fill="#E0E0E0"/>
<path d="M202.998 347.18C289.949 347.18 360.437 343.064 360.437 337.988C360.437 332.911 289.949 328.796 202.998 328.796C116.047 328.796 45.5596 332.911 45.5596 337.988C45.5596 343.064 116.047 347.18 202.998 347.18Z" fill="#F5F5F5"/>
<path d="M139.599 101.021C131.828 96.6685 124.715 87.2818 118.593 85.2599C120.528 81.2423 122.796 77.3936 125.373 73.7539C131.495 79.6896 138.609 90.1238 146.379 89.5067C144.439 93.5242 142.171 97.3752 139.599 101.021Z" fill="#407BFF"/>
<path opacity="0.5" d="M139.599 101.021C131.828 96.6685 124.715 87.2818 118.593 85.2599C120.528 81.2423 122.796 77.3936 125.373 73.7539C131.495 79.6896 138.609 90.1238 146.379 89.5067C144.439 93.5242 142.171 97.3752 139.599 101.021Z" fill="white"/>
<path opacity="0.2" d="M144.535 91.9915C143.723 91.894 143.455 91.0008 143.959 90.1076C137.69 88.7597 131.876 81.1756 126.712 75.9707C126.585 76.1296 126.426 76.2592 126.244 76.3505C126.063 76.4418 125.864 76.4927 125.661 76.4997C125.458 76.5066 125.256 76.4694 125.069 76.3907C124.881 76.312 124.713 76.1937 124.576 76.0438C123.048 78.2894 121.636 80.6121 120.346 83.0026C120.684 83.2903 120.902 83.6945 120.956 84.1352C121.01 84.5759 120.897 85.0208 120.638 85.3818C125.81 88.1426 131.616 95.1258 137.893 99.3238C138.195 98.9937 138.597 98.7726 139.038 98.6947C139.478 98.6169 139.932 98.6868 140.329 98.8935C141.853 96.6635 143.263 94.3571 144.551 91.9833L144.535 91.9915ZM129.968 90.132C128.425 88.6947 128.068 86.478 129.107 85.1788C130.147 83.8796 132.201 84.1394 133.744 85.6254C135.287 87.1113 135.725 89.2307 134.686 90.4974C133.646 91.7641 131.543 91.5855 129.968 90.132Z" fill="black"/>
<g opacity="0.2">
<path opacity="0.2" d="M131.149 89.3206L130.873 89.6535L130.565 89.3693C130.662 89.2556 130.751 89.1419 130.849 89.0364C130.531 88.723 130.292 88.3391 130.15 87.9158L130.573 87.7696C130.681 88.1206 130.867 88.4426 131.117 88.7116L131.612 88.1107C131.271 87.6397 130.922 87.1038 131.271 86.6897C131.62 86.2755 132.026 86.3892 132.635 86.9008C132.733 86.7952 132.822 86.6816 132.919 86.5679L133.22 86.8602L132.944 87.1931C133.199 87.4497 133.403 87.7529 133.545 88.0863L133.139 88.2487C133.025 87.9791 132.869 87.7296 132.676 87.5098L132.172 88.1107C132.513 88.5816 132.879 89.1176 132.53 89.5317C132.18 89.9458 131.774 89.8565 131.149 89.3206ZM131.961 87.7534L132.4 87.2256C132.115 87.0064 131.912 87.0063 131.807 87.1363C131.701 87.2662 131.75 87.526 131.921 87.7859L131.961 87.7534ZM132.075 89.1013C132.197 88.9552 132.075 88.7359 131.904 88.468L131.466 88.9958C131.726 89.2556 131.921 89.2637 132.034 89.1338L132.075 89.1013Z" fill="black"/>
</g>
<path d="M206.25 135.384C199.105 139.233 188.289 139.721 183.774 143.545C181.508 139.699 179.538 135.687 177.879 131.544C185.504 129.92 197.156 130.025 200.355 123.375C202.619 127.224 204.59 131.239 206.25 135.384Z" fill="#407BFF"/>
<path opacity="0.5" d="M206.25 135.384C199.105 139.233 188.289 139.721 183.774 143.545C181.508 139.699 179.538 135.687 177.879 131.544C185.504 129.92 197.156 130.025 200.355 123.375C202.619 127.224 204.59 131.239 206.25 135.384Z" fill="white"/>
<path opacity="0.2" d="M201.436 126.322C200.965 126.939 200.136 126.639 199.674 125.729C195.614 130.049 186.876 130.52 180.267 131.755C180.338 131.933 180.37 132.126 180.359 132.318C180.348 132.511 180.295 132.698 180.204 132.868C180.112 133.038 179.985 133.185 179.83 133.3C179.675 133.415 179.497 133.494 179.309 133.533C180.283 135.839 181.42 138.259 182.816 140.841C183.45 140.524 184.367 141.019 184.846 141.953C189.491 139.314 197.765 138.518 204.099 135.815C203.979 135.408 203.993 134.974 204.14 134.576C204.286 134.178 204.556 133.838 204.911 133.606C203.945 131.308 202.816 128.896 201.436 126.298V126.322ZM193.056 137.065C192.202 137.301 191.291 137.218 190.494 136.833C189.696 136.448 189.066 135.786 188.72 134.97C188.176 133.395 189.361 131.884 191.277 131.47C193.194 131.056 195.078 131.893 195.589 133.452C196.101 135.011 194.94 136.635 193.056 137.065Z" fill="black"/>
<g opacity="0.2">
<path opacity="0.2" d="M192.999 135.669C193.048 135.807 193.088 135.945 193.129 136.083L192.756 136.172C192.756 136.034 192.666 135.896 192.626 135.758C192.22 135.835 191.802 135.813 191.408 135.693C191.408 135.547 191.464 135.409 191.497 135.271C191.818 135.382 192.161 135.409 192.496 135.352C192.423 135.108 192.341 134.865 192.26 134.613C191.724 134.613 191.132 134.613 190.969 134.085C190.847 133.712 191.083 133.314 191.781 133.103C191.732 132.965 191.692 132.827 191.643 132.689L192.025 132.607C192.025 132.745 192.106 132.884 192.155 133.022C192.484 132.953 192.824 132.953 193.153 133.022L193.08 133.436C192.812 133.39 192.537 133.39 192.268 133.436C192.35 133.679 192.431 133.931 192.504 134.183C193.048 134.183 193.641 134.183 193.803 134.686C193.941 135.043 193.697 135.449 192.999 135.669ZM192.122 134.166C192.049 133.947 191.984 133.728 191.911 133.509C191.602 133.622 191.505 133.785 191.554 133.947C191.602 134.11 191.838 134.158 192.122 134.166ZM193.243 134.832C193.186 134.654 192.959 134.613 192.666 134.613C192.731 134.832 192.804 135.052 192.869 135.263C193.194 135.149 193.259 134.995 193.259 134.832H193.243Z" fill="black"/>
</g>
<path d="M264.656 84.2209C256.227 87.0629 247.937 90.5789 241.66 96.0599C239.435 92.7632 237.145 89.4096 235.059 85.8936C242.082 80.5263 250.275 77.1403 258.054 74.0547C260.279 77.3514 262.569 80.705 264.656 84.2209Z" fill="#407BFF"/>
<path opacity="0.5" d="M264.656 84.2209C256.227 87.0629 247.937 90.5789 241.66 96.0599C239.435 92.7632 237.145 89.4096 235.059 85.8936C242.082 80.5263 250.275 77.1403 258.054 74.0547C260.279 77.3514 262.569 80.705 264.656 84.2209Z" fill="white"/>
<path opacity="0.2" d="M258.706 76.1579C258.274 76.3165 257.803 76.3302 257.364 76.1968C256.924 76.0635 256.54 75.7904 256.27 75.4189C249.822 78.0255 243.196 80.9081 237.285 85.0412C237.505 85.4412 237.575 85.907 237.481 86.354C237.387 86.801 237.136 87.1995 236.773 87.4771C238.105 89.629 239.494 91.7239 240.882 93.7945C241.04 93.6589 241.226 93.559 241.426 93.5017C241.626 93.4445 241.837 93.4312 242.043 93.4629C242.249 93.4945 242.445 93.5702 242.619 93.6849C242.793 93.7996 242.94 93.9506 243.05 94.1274C248.523 89.905 255.23 86.9331 262.051 84.4727C261.939 84.2976 261.87 84.0986 261.85 83.8918C261.829 83.6851 261.858 83.4764 261.933 83.2827C262.008 83.089 262.128 82.9158 262.282 82.7769C262.437 82.638 262.622 82.5374 262.822 82.4833C261.491 80.3397 260.094 78.2447 258.714 76.1741L258.706 76.1579ZM250.78 86.8357C249.978 87.2632 249.046 87.3803 248.162 87.1646C247.278 86.949 246.505 86.4157 245.99 85.6664C245.766 85.2927 245.623 84.8758 245.572 84.4431C245.52 84.0104 245.561 83.5717 245.692 83.1559C245.822 82.7401 246.039 82.3567 246.328 82.0309C246.618 81.705 246.973 81.4441 247.37 81.2653C248.202 80.855 249.156 80.7614 250.052 81.0019C250.948 81.2424 251.727 81.8007 252.242 82.5727C252.46 82.9415 252.595 83.3531 252.639 83.7792C252.682 84.2053 252.633 84.6358 252.494 85.041C252.355 85.4462 252.13 85.8164 251.834 86.1262C251.538 86.436 251.179 86.6781 250.78 86.8357Z" fill="black"/>
<g opacity="0.2">
<path opacity="0.2" d="M250.306 85.3734L250.558 85.7876L250.217 85.95L249.965 85.544C249.592 85.7175 249.18 85.7876 248.771 85.747C248.771 85.5927 248.771 85.4303 248.731 85.276C249.066 85.3191 249.408 85.2744 249.721 85.1461C249.575 84.8944 249.421 84.6508 249.267 84.4072C248.747 84.5371 248.178 84.6508 247.87 84.1392C247.634 83.7657 247.74 83.2785 248.349 82.905L248.089 82.4827L248.43 82.3203L248.682 82.7263C248.989 82.5943 249.322 82.5332 249.656 82.5477C249.656 82.6938 249.697 82.8481 249.721 83.0024C249.445 82.9921 249.17 83.0334 248.909 83.1242L249.364 83.8712C249.884 83.7494 250.468 83.6358 250.785 84.1473C251.029 84.5208 250.907 84.9918 250.306 85.3734ZM248.999 83.9606L248.593 83.3028C248.325 83.4896 248.284 83.6845 248.381 83.8469C248.479 84.0093 248.714 84.0174 248.999 83.9606ZM250.29 84.4315C250.176 84.2529 249.94 84.261 249.656 84.3178L250.054 84.9674C250.33 84.7807 250.387 84.5939 250.29 84.4478V84.4315Z" fill="black"/>
</g>
<path d="M116.264 170.788C110.125 164.39 100.146 164.991 94.0068 158.608C95.9394 155.079 97.8747 151.547 99.8126 148.012C105.951 154.41 115.931 153.818 122.07 160.192C120.137 163.727 118.202 167.259 116.264 170.788Z" fill="#407BFF"/>
<path opacity="0.5" d="M116.264 170.788C110.125 164.39 100.146 164.991 94.0068 158.608C95.9394 155.079 97.8747 151.547 99.8126 148.012C105.951 154.41 115.931 153.818 122.07 160.192C120.137 163.727 118.202 167.259 116.264 170.788Z" fill="white"/>
<path opacity="0.2" d="M120.502 161.718C120.16 161.401 119.929 160.984 119.841 160.527C119.754 160.07 119.815 159.596 120.015 159.176C114.461 154.873 106.795 154.426 101.241 150.114C101.154 150.301 101.023 150.463 100.859 150.588C100.695 150.712 100.503 150.795 100.3 150.829C100.097 150.862 99.8886 150.846 99.6932 150.781C99.4979 150.716 99.3213 150.604 99.1788 150.455L95.5654 157.065C95.9038 157.382 96.1325 157.798 96.2186 158.253C96.3048 158.709 96.2438 159.18 96.0445 159.598C101.599 163.91 109.264 164.357 114.818 168.668C114.904 168.481 115.035 168.318 115.198 168.193C115.362 168.067 115.554 167.984 115.757 167.95C115.96 167.915 116.169 167.931 116.365 167.995C116.56 168.06 116.737 168.171 116.88 168.319L120.494 161.718H120.502ZM106.373 162.124C105.968 161.993 105.598 161.773 105.29 161.48C104.982 161.187 104.744 160.828 104.594 160.43C104.443 160.032 104.384 159.606 104.421 159.182C104.458 158.758 104.589 158.348 104.806 157.983C105.285 157.181 106.025 156.569 106.902 156.25C107.779 155.93 108.739 155.923 109.621 156.229C110.026 156.356 110.397 156.574 110.706 156.865C111.015 157.156 111.254 157.514 111.406 157.91C111.557 158.307 111.617 158.733 111.581 159.156C111.544 159.579 111.413 159.988 111.196 160.354C110.72 161.16 109.979 161.776 109.1 162.099C108.221 162.421 107.258 162.43 106.373 162.124Z" fill="black"/>
<g opacity="0.2">
<path opacity="0.2" d="M107.471 160.865C107.398 161.011 107.316 161.157 107.235 161.303L106.886 161.173L107.121 160.743C106.767 160.609 106.465 160.364 106.261 160.045L106.667 159.72C106.831 159.985 107.071 160.195 107.357 160.321C107.495 160.061 107.641 159.801 107.787 159.509C107.373 159.233 106.975 158.908 107.243 158.364C107.39 158.137 107.611 157.967 107.869 157.886C108.127 157.804 108.405 157.815 108.656 157.917L108.9 157.471L109.249 157.601L109.005 158.031C109.296 158.143 109.549 158.334 109.736 158.583L109.346 158.908C109.192 158.717 108.998 158.562 108.778 158.453L108.348 159.265C108.762 159.541 109.16 159.866 108.9 160.41C108.75 160.639 108.527 160.809 108.266 160.892C108.006 160.975 107.725 160.965 107.471 160.865ZM108.039 159.07L108.421 158.372C108.096 158.307 107.893 158.372 107.804 158.575C107.714 158.778 107.836 158.908 108.039 159.07ZM108.339 160.256C108.445 160.061 108.339 159.907 108.088 159.744L107.706 160.435C108.039 160.508 108.242 160.418 108.339 160.256Z" fill="black"/>
</g>
<path d="M317.115 138.235C311.317 145.235 301.33 141.483 295.532 147.078C293.412 143.237 291.293 139.543 289.174 136.116C294.972 129.117 304.959 132.868 310.757 127.273C312.876 131.114 314.995 134.793 317.115 138.235Z" fill="#407BFF"/>
<path opacity="0.5" d="M317.115 138.235C311.317 145.235 301.33 141.483 295.532 147.078C293.412 143.237 291.293 139.543 289.174 136.116C294.972 129.117 304.959 132.868 310.757 127.273C312.876 131.114 314.995 134.793 317.115 138.235Z" fill="white"/>
<path opacity="0.2" d="M311.501 129.846C310.86 130.423 309.877 130.074 309.423 129.188C304.104 132.615 296.471 130.756 291.161 135.075C291.382 135.481 291.467 135.946 291.404 136.404C291.341 136.861 291.134 137.286 290.812 137.617C292.127 139.834 293.45 142.14 294.774 144.511C295.416 143.934 296.398 144.284 296.853 145.161C302.163 141.734 309.796 143.593 315.115 139.282C314.892 138.878 314.805 138.413 314.868 137.957C314.931 137.5 315.14 137.076 315.464 136.748C314.14 134.54 312.817 132.225 311.501 129.854V129.846ZM304.672 140.353C302.935 140.589 300.767 139.33 299.8 137.503C298.834 135.676 299.411 133.898 301.14 133.654C302.87 133.411 305.054 134.686 306.012 136.513C306.97 138.34 306.41 140.11 304.672 140.353Z" fill="black"/>
<g opacity="0.2">
<path opacity="0.2" d="M304.177 138.739L304.437 139.234L304.104 139.283L303.836 138.788C303.42 138.822 303.003 138.747 302.626 138.568L302.577 138.089C302.889 138.245 303.236 138.32 303.584 138.309L303.121 137.423C302.837 137.432 302.556 137.367 302.305 137.233C302.054 137.099 301.843 136.901 301.692 136.66C301.622 136.566 301.579 136.455 301.566 136.339C301.554 136.223 301.572 136.105 301.62 135.998C301.668 135.891 301.744 135.799 301.839 135.732C301.935 135.664 302.047 135.623 302.163 135.613L301.895 135.109L302.236 135.061L302.496 135.556C302.833 135.532 303.171 135.582 303.487 135.702C303.487 135.864 303.527 136.019 303.552 136.173C303.292 136.076 303.017 136.029 302.74 136.035L303.219 136.928C303.502 136.918 303.783 136.983 304.034 137.115C304.285 137.248 304.496 137.444 304.648 137.683C304.717 137.778 304.76 137.889 304.773 138.006C304.785 138.123 304.766 138.241 304.719 138.348C304.671 138.455 304.595 138.547 304.5 138.616C304.405 138.685 304.294 138.727 304.177 138.739ZM302.878 136.888L302.456 136.076C302.188 136.173 302.147 136.352 302.253 136.547C302.321 136.65 302.413 136.736 302.522 136.795C302.631 136.855 302.754 136.887 302.878 136.888ZM304.193 137.797C304.119 137.696 304.023 137.613 303.912 137.555C303.8 137.497 303.677 137.466 303.552 137.464L303.966 138.276C304.201 138.162 304.25 137.992 304.153 137.797H304.193Z" fill="black"/>
</g>
<path d="M281.763 192.866C258.583 237.57 227.836 277.922 190.884 312.132L134.117 268.869C171.094 234.666 201.864 194.313 225.061 149.603L281.763 192.866Z" fill="#407BFF"/>
<path opacity="0.2" d="M281.763 192.866C279.858 196.552 277.893 200.206 275.868 203.828C253.458 244.204 224.772 280.762 190.884 312.132L134.117 268.869C171.094 234.666 201.864 194.313 225.061 149.603L281.763 192.866Z" fill="white"/>
<path opacity="0.2" d="M233.937 161.158C233.396 162.251 232.616 163.209 231.654 163.96C230.693 164.71 229.574 165.234 228.382 165.493C227.19 165.752 225.955 165.74 224.769 165.456C223.582 165.172 222.475 164.624 221.529 163.854C201.402 199.866 176.267 232.84 146.874 261.789C147.874 262.491 148.701 263.411 149.293 264.479C149.886 265.547 150.228 266.736 150.295 267.955C150.361 269.175 150.15 270.394 149.677 271.52C149.204 272.646 148.482 273.65 147.564 274.456L182.943 301.423C184.932 299.611 187.481 298.534 190.167 298.372C192.852 298.209 195.512 298.971 197.705 300.53C227.1 271.583 252.236 238.609 272.361 202.594C268.098 199.346 266.79 192.899 269.316 188.125L269.356 188.051L233.969 161.085L233.937 161.158ZM227.441 246.848C220.758 255.594 207.888 256.998 199.175 250.356C190.462 243.714 189.163 231.518 195.854 222.748C202.545 213.979 214.668 212.03 223.397 218.688C232.126 225.347 234.172 238.103 227.473 246.848H227.441Z" fill="black"/>
<g opacity="0.2">
<path opacity="0.2" d="M221.366 239.539L223.713 241.326L222.397 243.047L220.05 241.252C218.353 243.218 216.137 244.679 214.366 245.036L212.986 242.495C214.848 241.991 216.525 240.962 217.817 239.531L213.628 236.34C211.289 238.24 208.585 240.14 205.678 237.915C203.542 236.291 202.901 233.344 205.093 229.836L202.73 228.033C203.169 227.465 203.607 226.888 204.038 226.312L206.36 228.082C207.564 226.626 209.106 225.486 210.85 224.761L212.32 227.245C210.925 227.833 209.666 228.704 208.626 229.803L212.848 233.051C215.187 231.143 217.817 229.129 220.724 231.346C222.852 232.946 223.534 235.95 221.366 239.539ZM211.118 234.415L207.391 231.573C206.482 233.238 206.742 234.44 207.667 235.138C208.593 235.836 209.811 235.357 211.118 234.415ZM218.914 234.18C217.891 233.368 216.713 233.961 215.398 234.992L219.1 237.818C220.05 236.064 219.799 234.87 218.897 234.18H218.914Z" fill="black"/>
</g>
<path opacity="0.2" d="M275.893 203.812C253.476 244.195 224.782 280.759 190.884 312.132C190.884 312.132 166.833 275.438 156.854 268.617C156.854 268.617 234.335 239.864 275.893 203.812Z" fill="black"/>
<path d="M335.973 252.588C298.211 285.909 254.963 312.439 208.148 331.003L170.796 270.168C217.61 251.607 260.855 225.076 298.613 191.753C311.074 212.037 323.528 232.315 335.973 252.588Z" fill="#407BFF"/>
<path opacity="0.3" d="M335.973 252.589C298.21 285.91 254.963 312.44 208.148 331.003L192.013 304.711C184.976 293.208 177.914 281.696 170.828 270.177C217.642 251.615 260.887 225.085 298.645 191.762C311.085 212.04 323.527 232.316 335.973 252.589Z" fill="white"/>
<path opacity="0.2" d="M302.786 205.744C301.893 206.578 300.823 207.198 299.655 207.557C298.488 207.917 297.255 208.008 296.048 207.822C294.841 207.635 293.692 207.178 292.687 206.483C291.682 205.789 290.849 204.875 290.248 203.812C258.477 230.131 223.133 251.811 185.273 268.203C185.952 269.218 186.392 270.374 186.56 271.584C186.727 272.794 186.617 274.026 186.239 275.188C185.86 276.349 185.223 277.409 184.375 278.288C183.527 279.167 182.49 279.842 181.343 280.261L204.623 318.149C207.132 317.178 209.898 317.094 212.461 317.913C215.024 318.731 217.229 320.402 218.711 322.648C256.575 306.262 291.92 284.582 323.686 258.256C320.877 253.693 321.989 247.205 326.066 243.64L326.131 243.583L302.875 205.687L302.786 205.744ZM265.84 283.323C256.445 289.071 243.916 285.759 238.232 276.396C232.548 267.034 235.698 255.211 245.093 249.47C254.488 243.729 266.505 246.222 272.246 255.617C277.987 265.012 275.267 277.59 265.84 283.323Z" fill="black"/>
<g opacity="0.2">
<path opacity="0.2" d="M262.788 274.285L264.33 276.803L262.479 277.931C261.976 277.119 261.464 276.307 260.953 275.446C258.663 276.656 256.081 277.225 254.27 276.916C254.148 275.958 254.026 275 253.896 274.042C255.813 274.243 257.747 273.887 259.467 273.019C258.552 271.525 257.637 270.03 256.722 268.536C253.848 269.462 250.648 270.25 248.732 267.132C247.327 264.842 247.79 261.862 251.103 259.385L249.552 256.852L251.395 255.715L252.922 258.208C254.57 257.285 256.418 256.778 258.305 256.73C258.468 257.68 258.622 258.63 258.785 259.572C257.269 259.624 255.78 259.983 254.408 260.627L257.185 265.158C260.059 264.225 263.234 263.299 265.142 266.409C266.547 268.699 266.093 271.744 262.788 274.285ZM255.057 265.824C254.24 264.493 253.428 263.161 252.621 261.829C251.168 263.055 250.998 264.265 251.59 265.256C252.183 266.247 253.515 266.238 255.057 265.824ZM262.406 268.423C261.732 267.318 260.433 267.424 258.85 267.871L261.286 271.841C262.78 270.583 262.999 269.381 262.406 268.423Z" fill="black"/>
</g>
<path opacity="0.2" d="M335.972 252.588C298.21 285.909 254.963 312.439 208.147 331.003L192.013 304.71L189.195 263.972C189.195 263.972 278.759 270.436 335.972 252.588Z" fill="black"/>
<path d="M346.806 331.434C297.787 342.983 247.139 345.958 197.105 340.228C195.72 316.479 194.328 292.728 192.932 268.975C242.976 274.717 293.637 271.742 342.664 260.181C344.034 283.934 345.414 307.685 346.806 331.434Z" fill="#407BFF"/>
<path opacity="0.4" d="M346.806 331.434C297.787 342.983 247.139 345.958 197.105 340.228C195.72 316.479 194.328 292.728 192.932 268.975C242.976 274.717 293.637 271.742 342.664 260.181C344.034 283.934 345.414 307.685 346.806 331.434Z" fill="white"/>
<path opacity="0.2" d="M339.675 274.455C338.493 274.757 337.259 274.788 336.063 274.547C334.868 274.307 333.742 273.8 332.769 273.064C331.796 272.328 331.001 271.383 330.444 270.298C329.887 269.213 329.581 268.017 329.549 266.798C289.117 274.999 247.725 277.419 206.612 273.984C206.731 275.2 206.573 276.426 206.149 277.572C205.725 278.717 205.046 279.752 204.164 280.597C203.282 281.442 202.22 282.076 201.058 282.451C199.895 282.826 198.663 282.932 197.453 282.762C198.325 297.567 199.191 312.373 200.052 327.178C202.723 327.503 205.201 328.734 207.075 330.665C208.949 332.596 210.104 335.111 210.348 337.791C251.46 341.226 292.852 338.806 333.284 330.605C332.968 325.254 337.012 320.049 342.281 318.863H342.363L339.756 274.455H339.675ZM270.476 325.408C259.482 326.033 250.03 317.191 249.364 306.253C248.698 295.315 257.135 286.383 268.13 285.758C279.124 285.133 288.519 293.066 289.16 304.004C289.802 314.941 281.463 324.799 270.476 325.408Z" fill="black"/>
<g opacity="0.2">
<path opacity="0.2" d="M272.02 315.997L272.191 318.937L270.031 319.067L269.86 316.152C267.525 316.217 265.224 315.569 263.267 314.292C263.616 313.391 263.957 312.49 264.298 311.588C265.894 312.666 267.765 313.266 269.69 313.318C269.592 311.564 269.49 309.813 269.381 308.064C266.417 307.52 263.218 306.708 263.007 303.054C262.853 300.375 264.672 297.971 268.756 297.37L268.585 294.406L270.745 294.276L270.916 297.191C272.804 297.147 274.674 297.574 276.356 298.434L275.431 301.162C274.073 300.49 272.592 300.103 271.078 300.025L271.395 305.336C274.359 305.864 277.599 306.546 277.818 310.208C278.005 312.847 276.17 315.323 272.02 315.997ZM269.203 304.881C269.105 303.327 269.013 301.771 268.927 300.212C267.067 300.602 266.336 301.584 266.401 302.746C266.466 303.907 267.676 304.499 269.235 304.881H269.203ZM274.456 310.646C274.383 309.363 273.189 308.836 271.582 308.486L271.85 313.139C273.79 312.725 274.554 311.808 274.456 310.646Z" fill="black"/>
</g>
<path d="M230.152 331.507C230.363 333.937 230.615 336.408 230.907 338.92H60.1436C65.4865 293.781 60.1436 274.212 60.1436 274.212C117.211 269.916 230.907 274.212 230.907 274.212C230.907 274.212 227.472 295.957 229.787 327.097C229.895 328.543 230.017 330.012 230.152 331.507Z" fill="#407BFF"/>
<path opacity="0.2" d="M230.907 274.212C223.429 277.703 186.848 278.199 165.801 276.891C144.754 275.584 117.211 279.571 117.211 279.571C101.263 274.066 60.1436 274.212 60.1436 274.212C117.211 269.916 230.907 274.212 230.907 274.212Z" fill="white"/>
<path opacity="0.2" d="M60.1436 338.92C65.4865 293.781 60.1436 274.212 60.1436 274.212C60.1436 274.212 93.9958 273.473 117.211 279.571C117.211 279.571 118.023 286.457 117.211 289.997C117.211 289.997 145.136 285.466 169.991 286.067C169.991 286.067 131.518 290.492 117.211 293.781C117.211 293.781 94.1988 290.192 79.6397 289.997C79.6397 289.997 109.911 293.935 117.211 296.29C117.211 296.29 125.867 294.715 130.398 294.715C130.398 294.715 119.558 296.688 117.211 298.45V310.922C117.211 310.922 93.0458 311.401 80.9226 309.672C86.6797 310.573 110.155 314.186 117.211 314.186C117.211 314.186 143.877 313.204 159.362 314.186C159.362 314.186 124.08 316.216 117.211 317.857H86.9233L117.211 320.398V322.924H130.203L117.211 325.165C117.211 325.165 79.6397 322.777 68.832 325.165C68.832 325.165 113.175 327.178 117.162 328.746L117.211 332.481C117.211 332.481 166.938 325.912 210.916 331.563C210.916 331.563 146.695 329.014 117.211 336.159C117.211 336.159 209.462 334.154 230.891 338.92H60.1436Z" fill="black"/>
<path d="M61.1433 279.57L56.6367 281.146C56.6367 281.146 83.7819 282.079 101.297 284.759C101.28 284.759 74.2977 279.96 61.1433 279.57Z" fill="#407BFF"/>
<path opacity="0.2" d="M121.167 284.76L128.037 286.068C128.037 286.068 160.021 282.592 197.828 282.17C197.828 282.17 143.221 279.523 121.167 284.76Z" fill="white"/>
<path opacity="0.2" d="M142.839 292.108C142.839 292.108 162.018 286.879 178.835 287.139C195.651 287.399 227.66 284.76 227.66 284.76L228.919 287.139C228.919 287.139 203.82 288.609 183.106 288.438C169.601 288.464 156.126 289.692 142.839 292.108Z" fill="white"/>
<path opacity="0.2" d="M123.805 299.928C123.805 299.928 146.671 295.056 169.09 295.503C191.509 295.949 219.742 297.703 219.742 297.703C219.742 297.703 158.469 297.703 142.838 300.951L123.805 299.928Z" fill="white"/>
<path d="M163.36 292.848C163.36 292.848 183.051 291.224 200.047 292.109C217.042 292.994 234.889 293.79 234.889 293.79L228.921 295.479C228.921 295.479 188.005 291.378 163.36 292.848Z" fill="#407BFF"/>
<path opacity="0.2" d="M163.36 292.848C163.36 292.848 183.051 291.224 200.047 292.109C217.042 292.994 234.889 293.79 234.889 293.79L228.921 295.479C228.921 295.479 188.005 291.378 163.36 292.848Z" fill="black"/>
<path opacity="0.2" d="M124.545 304.061C124.545 304.061 158.649 303.639 175.076 302.819C191.502 301.998 213.532 306.554 213.532 306.554C213.532 306.554 186.354 305.977 177.942 307.309L124.545 304.061Z" fill="black"/>
<path opacity="0.2" d="M121.167 309.226L142.839 307.31L189.01 309.226L142.247 311.142L121.167 309.226Z" fill="white"/>
<path opacity="0.2" d="M137.374 319.4C137.374 319.4 168.888 316.461 181.165 316.306C193.443 316.152 226.483 313.943 226.483 313.943L222.813 318.815C222.813 318.815 160.687 317.492 137.374 319.4Z" fill="white"/>
<path d="M217.282 302.819L228.918 303.915L232.085 302.819C227.161 302.359 222.206 302.359 217.282 302.819Z" fill="#407BFF"/>
<path d="M230.386 278.256L234.884 278.979L230.053 281.504L201.633 280.903C201.633 280.903 222.94 280.619 230.386 278.256Z" fill="#407BFF"/>
<path opacity="0.2" d="M217.282 302.819L228.918 303.915L232.085 302.819C227.161 302.359 222.206 302.359 217.282 302.819Z" fill="white"/>
<path opacity="0.2" d="M230.386 278.256L234.884 278.979L230.053 281.504L201.633 280.903C201.633 280.903 222.94 280.619 230.386 278.256Z" fill="black"/>
<path opacity="0.2" d="M230.154 331.506C222.522 331.011 169.035 324.287 169.035 324.287C172.6 323.873 219.29 326.634 229.789 327.097C229.897 328.542 230.019 330.012 230.154 331.506Z" fill="black"/>
<path d="M149.62 323.37C149.62 323.37 199.631 323.241 213.939 324.272C228.246 325.303 229.529 323.37 229.529 323.37L236.658 326.805C236.658 326.805 237.024 330.216 218.259 327.837C199.493 325.457 149.62 323.37 149.62 323.37Z" fill="#407BFF"/>
<path d="M108.759 298.222C108.759 298.222 79.4699 293.577 62.3936 294.763C64.9601 295.346 67.3509 296.532 69.3686 298.222H108.759Z" fill="#407BFF"/>
<path d="M62.3628 310.922C63.0286 310.849 84.2868 313.651 92.4068 313.943L59.3584 315.275L62.3628 310.922Z" fill="#407BFF"/>
<path d="M61.1596 329.29L93.266 330.427L56.6367 333.139L61.1596 329.29Z" fill="#407BFF"/>
<path d="M119.655 272.019C119.655 272.019 165.257 279.814 191.704 248.609L241.528 261.398C241.528 261.398 232.361 280.415 163.503 277.89C94.6457 275.365 119.655 272.019 119.655 272.019Z" fill="#407BFF"/>
<path opacity="0.5" d="M119.655 272.019C119.655 272.019 165.257 279.814 191.704 248.609L241.528 261.398C241.528 261.398 232.361 280.415 163.503 277.89C94.6457 275.365 119.655 272.019 119.655 272.019Z" fill="white"/>
<path opacity="0.2" d="M145.697 273.7C145.697 273.7 173.573 272.23 189.334 254.399C190.781 254.846 192.328 254.849 193.776 254.406C195.224 253.963 196.506 253.095 197.454 251.914L233.824 261.553C233.824 261.553 229.91 262.925 231.282 267.456C231.25 267.456 183.512 286.798 145.697 273.7Z" fill="black"/>
<path d="M187.301 183.26L188.153 178.738C188.153 178.738 186.391 177.065 186.594 175.49C186.797 173.914 194.641 171.43 196.03 171.292C197.418 171.153 196.891 176.837 196.468 177.869C196.046 178.9 191.336 180.142 191.336 180.142L190.744 184.909L187.301 183.26Z" fill="#EBB376"/>
<path d="M96.8694 205.493L93.7594 202.099C93.7594 202.099 94.3684 199.752 93.3778 198.55C92.3871 197.348 84.3889 199.322 83.1547 199.963C81.9204 200.605 85.3471 205.127 86.2565 205.777C87.166 206.427 91.8106 204.965 91.8106 204.965L94.8312 208.708L96.8694 205.493Z" fill="#EBB376"/>
<path d="M158.719 198.2C167.464 197.713 175.389 199.54 179.457 198.2C183.525 196.861 187.472 179.938 187.472 179.938L191.751 181.384C191.751 181.384 190.127 198.996 183.095 203.714C176.063 208.432 159.766 208.391 159.766 208.391L158.719 198.2Z" fill="#407BFF"/>
<path opacity="0.7" d="M191.751 181.384C191.751 181.384 190.127 198.996 183.095 203.714C179.035 206.393 172.076 207.538 166.79 208.034C162.787 208.399 159.766 208.391 159.766 208.391L159.279 203.633L158.719 198.2C167.464 197.713 175.389 199.54 179.457 198.2C183.525 196.861 187.472 179.938 187.472 179.938L191.751 181.384Z" fill="white"/>
<path opacity="0.2" d="M166.791 208.034C162.788 208.399 159.767 208.391 159.767 208.391L159.28 203.633C162.002 204.691 164.538 206.176 166.791 208.034Z" fill="black"/>
<path d="M214.627 334.99L220.287 333.439L219.272 319.619L213.62 321.178L214.627 334.99Z" fill="#B97964"/>
<path d="M220.636 332.684L214.058 333.139C213.948 333.143 213.843 333.191 213.767 333.271C213.692 333.352 213.65 333.459 213.652 333.569L213.693 338.791C213.712 339.064 213.837 339.318 214.043 339.499C214.248 339.68 214.516 339.773 214.789 339.757C217.079 339.562 218.167 339.351 221.058 339.132C223.637 339.044 226.207 338.772 228.748 338.32C231.184 337.759 230.534 335.405 229.462 335.429C226.693 335.28 224.01 334.415 221.675 332.92C221.363 332.73 220.999 332.647 220.636 332.684Z" fill="#263238"/>
<path d="M222.776 333.537C222.249 333.561 221.721 333.529 221.201 333.439C221.174 333.436 221.15 333.425 221.129 333.407C221.109 333.39 221.095 333.367 221.087 333.342C221.083 333.316 221.085 333.29 221.092 333.264C221.099 333.239 221.111 333.216 221.128 333.196C221.306 333.05 222.89 331.807 223.629 332.035C223.712 332.061 223.787 332.109 223.847 332.173C223.906 332.237 223.949 332.315 223.97 332.4C224.026 332.526 224.046 332.666 224.026 332.802C224.006 332.939 223.947 333.067 223.856 333.171C223.552 333.42 223.168 333.549 222.776 333.537ZM223.547 332.319C223.158 332.197 222.216 332.757 221.566 333.236C222.63 333.366 223.393 333.285 223.653 332.993C223.705 332.923 223.739 332.84 223.75 332.754C223.761 332.667 223.75 332.579 223.718 332.497C223.705 332.457 223.683 332.42 223.653 332.389C223.624 332.358 223.587 332.334 223.547 332.319Z" fill="#263238"/>
<path d="M221.227 333.439C221.219 333.443 221.209 333.445 221.199 333.445C221.189 333.445 221.179 333.443 221.171 333.439C221.151 333.429 221.134 333.415 221.12 333.398C221.106 333.382 221.096 333.362 221.089 333.341C221.089 333.285 220.838 331.596 221.382 330.979C221.454 330.901 221.542 330.841 221.641 330.802C221.739 330.762 221.844 330.745 221.95 330.751C222.067 330.747 222.181 330.782 222.277 330.849C222.372 330.917 222.443 331.013 222.478 331.125C222.648 331.758 221.861 333.041 221.309 333.423C221.297 333.431 221.284 333.437 221.27 333.44C221.256 333.443 221.241 333.442 221.227 333.439ZM221.877 331.052C221.822 331.054 221.768 331.068 221.719 331.094C221.67 331.119 221.627 331.154 221.593 331.198C221.307 331.779 221.219 332.438 221.341 333.074C221.848 332.587 222.157 331.931 222.21 331.23C222.21 331.149 222.137 331.06 221.942 331.052H221.877Z" fill="#263238"/>
<path opacity="0.2" d="M213.62 321.179L219.28 319.628L219.856 327.529L214.164 328.795L213.62 321.179Z" fill="black"/>
<path d="M207.221 334.787L201.87 337.231L200.514 331.482L198.687 323.752L204.013 321.308L205.848 329.03L207.221 334.787Z" fill="#B97964"/>
<path opacity="0.2" d="M205.848 329.03L200.514 331.482L198.687 323.752L204.013 321.308L205.848 329.03Z" fill="black"/>
<path d="M207.44 333.991L201.025 335.493C200.917 335.513 200.822 335.574 200.76 335.664C200.697 335.754 200.673 335.865 200.692 335.972L201.569 341.128C201.595 341.263 201.648 341.39 201.724 341.504C201.8 341.618 201.898 341.716 202.012 341.791C202.126 341.867 202.254 341.919 202.388 341.945C202.523 341.97 202.661 341.969 202.795 341.94C205.028 341.38 206.043 340.998 208.885 340.316C211.419 339.836 213.916 339.174 216.355 338.335C218.637 337.401 217.655 335.176 216.607 335.371C214.122 335.818 210.403 335.006 208.487 334.121C208.162 333.962 207.793 333.916 207.44 333.991Z" fill="#263238"/>
<path d="M209.696 334.495C209.178 334.6 208.65 334.649 208.121 334.641C208.094 334.645 208.067 334.64 208.044 334.627C208.02 334.613 208.002 334.593 207.991 334.568C207.979 334.546 207.973 334.52 207.973 334.495C207.973 334.469 207.979 334.444 207.991 334.422C208.145 334.251 209.501 332.798 210.273 332.871C210.358 332.886 210.439 332.922 210.507 332.975C210.575 333.029 210.629 333.1 210.663 333.179C210.743 333.3 210.786 333.441 210.786 333.585C210.786 333.73 210.743 333.871 210.663 333.991C210.408 334.266 210.067 334.443 209.696 334.495ZM210.265 333.171C209.851 333.106 209.014 333.813 208.446 334.389C209.518 334.349 210.265 334.146 210.468 333.821C210.514 333.745 210.538 333.658 210.538 333.569C210.538 333.48 210.514 333.393 210.468 333.317C210.453 333.278 210.428 333.244 210.395 333.218C210.362 333.192 210.322 333.176 210.281 333.171H210.265Z" fill="#263238"/>
<path d="M208.148 334.641C208.14 334.644 208.132 334.646 208.123 334.646C208.115 334.646 208.106 334.644 208.099 334.641C208.077 334.634 208.057 334.623 208.04 334.607C208.023 334.592 208.01 334.573 208.001 334.552C208.001 334.503 207.465 332.863 207.912 332.172C207.97 332.085 208.047 332.011 208.137 331.956C208.226 331.901 208.327 331.867 208.432 331.856C208.548 331.832 208.669 331.847 208.775 331.9C208.881 331.953 208.966 332.041 209.016 332.148C209.284 332.741 208.716 334.137 208.204 334.584C208.202 334.598 208.195 334.611 208.185 334.621C208.174 334.631 208.162 334.638 208.148 334.641ZM208.407 332.205C208.3 332.232 208.208 332.299 208.148 332.392C207.962 333.014 207.979 333.68 208.196 334.292C208.62 333.731 208.825 333.035 208.773 332.335C208.773 332.254 208.667 332.172 208.472 332.197L208.407 332.205Z" fill="#263238"/>
<path d="M167.571 256.307L165.841 237.209L133.954 237.956C133.954 237.956 130.178 264.565 132.923 269.453C137.795 278.182 169.966 273.229 177.485 273.968C180.555 275.592 196.973 330.053 196.973 330.053L206.173 326.342C206.173 326.342 196.283 280.391 193.993 271.735C190.899 259.701 178.135 259.912 167.571 256.307Z" fill="#263238"/>
<path d="M220.417 325.401L212.297 326.148C212.297 326.148 202.35 275.488 201.579 275.268C200.198 274.871 196.163 274.416 193.995 273.847C178.94 269.934 141.864 262.731 141.864 262.731L155.538 249.561C155.538 249.561 217.526 256.998 218.874 271.55C219.565 278.516 220.417 325.401 220.417 325.401Z" fill="#263238"/>
<path opacity="0.2" d="M199.392 275.308C198.004 274.911 196.144 274.423 193.993 273.855C194.593 274.172 192.856 266.287 191.118 264.249C187.667 260.189 173.814 257.98 168.853 257.184C164.696 256.519 150.762 255.292 150.762 255.292C150.762 255.292 175.365 253.165 193.903 258.256C203.071 260.774 201.439 269.722 199.392 275.308Z" fill="black"/>
<path d="M129.698 202.837C129.698 202.837 141.464 196.592 158.719 198.2C158.719 198.2 164.704 213.417 165.84 237.176L133.758 239.401C133.758 239.401 134.335 219.036 129.698 202.837Z" fill="#407BFF"/>
<path opacity="0.7" d="M133.758 239.433C133.84 233.889 133.634 228.343 133.141 222.82C132.857 219.572 132.451 216.153 131.866 212.67C131.329 209.354 130.605 206.071 129.698 202.837C129.698 202.837 141.464 196.592 158.719 198.2C158.719 198.2 164.704 213.417 165.84 237.176L133.758 239.433Z" fill="white"/>
<path opacity="0.2" d="M133.165 222.821C132.881 219.573 132.475 216.155 131.891 212.671C132.46 212.092 133.147 211.641 133.904 211.348L133.945 210.99C133.921 211.38 135.602 217.381 133.165 222.821Z" fill="black"/>
<path d="M138.588 200.629C141.527 203.3 148.722 202.31 148.722 202.31C148.722 202.31 153.212 201.083 152.27 199.679C149.623 199.24 148.348 198.006 147.812 196.431C147.528 195.448 147.437 194.419 147.544 193.402C147.544 192.85 147.674 192.281 147.772 191.721L138.848 185.136C140.041 189.48 141.47 197.478 138.588 200.629Z" fill="#EBB376"/>
<path opacity="0.2" d="M140.927 189.317C141.284 194.652 145.669 196.13 147.812 196.431C147.528 195.448 147.437 194.419 147.545 193.402L140.927 189.317Z" fill="black"/>
<path d="M146.572 166.833C149.877 167.726 152.629 175.35 150.153 180.393C147.676 185.435 140.214 171.331 140.214 171.331C140.214 171.331 144.436 166.264 146.572 166.833Z" fill="#263238"/>
<path d="M153.466 184.323C153.482 184.631 153.482 184.94 153.466 185.249C153.409 187.449 152.521 189.547 150.981 191.119C149.605 192.553 147.743 193.422 145.76 193.555C144.349 193.625 142.946 193.311 141.7 192.646C137.753 190.64 136.69 187.165 134.392 181.432C133.819 180.098 133.601 178.639 133.759 177.196C133.916 175.753 134.443 174.375 135.289 173.196C136.135 172.016 137.272 171.076 138.588 170.464C139.905 169.853 141.357 169.592 142.804 169.707C149.3 170.186 152.962 178.639 153.466 184.323Z" fill="#EBB376"/>
<path d="M143.816 180.093C143.938 180.572 144.344 180.905 144.628 180.767C144.913 180.629 145.067 180.191 144.913 179.72C144.758 179.249 144.368 178.908 144.1 179.046C143.833 179.184 143.662 179.606 143.816 180.093Z" fill="#263238"/>
<path d="M149.204 178.323C149.325 178.802 149.74 179.095 150.016 178.997C150.292 178.9 150.454 178.421 150.3 177.942C150.146 177.463 149.764 177.17 149.488 177.268C149.212 177.365 149.058 177.869 149.204 178.323Z" fill="#263238"/>
<path d="M147.57 179.118C148.617 180.387 149.833 181.508 151.184 182.447C150.933 182.789 150.611 183.072 150.239 183.276C149.867 183.479 149.455 183.598 149.032 183.625L147.57 179.118Z" fill="#D58745"/>
<path d="M150.447 175.392C150.408 175.43 150.36 175.458 150.308 175.473C150.256 175.489 150.2 175.491 150.147 175.481C149.792 175.384 149.418 175.372 149.057 175.445C148.696 175.518 148.357 175.675 148.068 175.903C148.012 175.957 147.937 175.987 147.859 175.985C147.782 175.984 147.708 175.951 147.654 175.895C147.6 175.839 147.571 175.764 147.572 175.687C147.574 175.609 147.606 175.535 147.662 175.481C148.023 175.185 148.449 174.979 148.905 174.88C149.361 174.781 149.834 174.792 150.285 174.913C150.323 174.92 150.359 174.936 150.391 174.957C150.423 174.979 150.451 175.007 150.472 175.04C150.493 175.072 150.507 175.109 150.514 175.147C150.521 175.185 150.521 175.224 150.512 175.262C150.496 175.308 150.474 175.351 150.447 175.392Z" fill="#263238"/>
<path d="M142.043 178.291C141.988 178.311 141.927 178.311 141.872 178.291C141.805 178.252 141.757 178.188 141.737 178.113C141.718 178.039 141.728 177.96 141.766 177.893C142.003 177.488 142.333 177.146 142.728 176.895C143.124 176.644 143.573 176.49 144.04 176.447C144.078 176.446 144.117 176.453 144.153 176.466C144.188 176.48 144.221 176.501 144.249 176.527C144.277 176.554 144.299 176.585 144.315 176.62C144.331 176.655 144.339 176.693 144.34 176.732C144.341 176.809 144.311 176.883 144.258 176.938C144.205 176.994 144.133 177.028 144.056 177.032C143.689 177.076 143.337 177.206 143.028 177.41C142.719 177.615 142.462 177.888 142.278 178.209C142.247 178.239 142.209 178.261 142.169 178.275C142.128 178.289 142.085 178.294 142.043 178.291Z" fill="#263238"/>
<path d="M136.291 172.664L137.566 175.1C137.221 175.474 137.029 175.964 137.029 176.472C137.029 176.981 137.221 177.471 137.566 177.845C139.19 179.664 139.255 183.431 138.118 185.38C138.118 185.38 137.72 184.479 137.022 184.99C136.324 185.502 138.386 190.236 140.782 191.949C140.782 191.949 137.688 190.755 134.456 186.2C131.468 181.994 129.828 178.153 130.096 175.977L136.291 172.664Z" fill="#263238"/>
<path d="M133.425 187.011C134.506 188.123 135.984 188.76 137.534 188.782C139.597 188.782 140.084 186.825 139.061 185.16C138.143 183.69 135.959 181.863 134.116 182.667C132.272 183.471 132.11 185.631 133.425 187.011Z" fill="#EBB376"/>
<path d="M149.666 185.663C149.292 186.481 148.977 187.325 148.724 188.188L148.253 188.131C146.126 187.847 145.224 187.011 144.883 186.166C144.725 185.752 144.666 185.307 144.713 184.867C144.729 184.614 144.784 184.365 144.875 184.128C146.11 184.891 147.495 185.378 148.935 185.557C149.406 185.638 149.666 185.663 149.666 185.663Z" fill="#263238"/>
<path d="M148.942 185.557L148.642 186.296C146.636 186.02 145.256 185.557 144.712 184.867C144.728 184.614 144.783 184.365 144.874 184.128C146.111 184.892 147.499 185.38 148.942 185.557Z" fill="white"/>
<path d="M148.252 188.131C146.124 187.847 145.223 187.01 144.882 186.166C145.692 186.301 146.472 186.576 147.188 186.978C147.653 187.243 148.025 187.646 148.252 188.131Z" fill="#DE5753"/>
<path d="M141.726 173.085C141.726 173.085 141.157 169.204 143.609 169.959C146.062 170.714 146.232 169.237 145.501 166.24C144.771 163.244 137.739 162.18 133.76 167.093C129.781 172.005 128.393 176.122 130.317 178.298C132.241 180.475 139.574 174.052 139.574 174.052C139.774 172.955 140.239 171.923 140.93 171.047C140.975 171.793 141.253 172.506 141.726 173.085Z" fill="#263238"/>
<path d="M145.519 202.001L149.408 205.436C149.408 205.436 151.544 219.889 156.789 226.207H160.037L160.679 223.966C155.799 218.518 152.296 211.98 150.464 204.9V200.296L145.519 202.001Z" fill="#263238"/>
<path d="M139.579 197.502L147.569 200.499L148.251 196.431L152.401 197.933L153.464 203.073L147.813 201.676L145.012 205.428L136.867 200.158L139.579 197.502Z" fill="#407BFF"/>
<path opacity="0.5" d="M139.579 197.502L147.569 200.499L148.251 196.431L152.401 197.933L153.464 203.073L147.813 201.676L145.012 205.428L136.867 200.158L139.579 197.502Z" fill="white"/>
<path d="M133.305 238.899L166.215 235.772L166.288 239.768L133.321 242.463L133.305 238.899Z" fill="black"/>
<path d="M159.247 236.592C159.098 236.458 158.923 236.357 158.733 236.296C158.542 236.234 158.341 236.213 158.142 236.235L155.227 236.535C154.867 236.572 154.533 236.742 154.293 237.013C154.052 237.284 153.922 237.635 153.928 237.997V239.864C153.936 240.248 154.097 240.614 154.374 240.88C154.651 241.146 155.022 241.292 155.406 241.285H155.528L158.443 240.977C158.802 240.94 159.135 240.769 159.374 240.498C159.613 240.228 159.742 239.877 159.734 239.515V237.656C159.733 237.454 159.689 237.255 159.605 237.071C159.521 236.888 159.399 236.725 159.247 236.592ZM158.394 240.23L155.487 240.538C155.387 240.552 155.286 240.545 155.189 240.516C155.093 240.488 155.003 240.44 154.927 240.375C154.85 240.31 154.788 240.229 154.744 240.138C154.701 240.048 154.677 239.949 154.675 239.848V237.989C154.672 237.812 154.735 237.64 154.853 237.508C154.97 237.376 155.132 237.292 155.308 237.274L158.215 236.974H158.28C158.465 236.974 158.642 237.046 158.774 237.175C158.906 237.304 158.982 237.479 158.987 237.664V237.916H158.873L158.061 237.989C157.996 237.995 157.933 238.013 157.875 238.043C157.817 238.074 157.766 238.115 157.724 238.165C157.682 238.215 157.65 238.273 157.631 238.336C157.611 238.398 157.604 238.464 157.61 238.529C157.616 238.594 157.635 238.657 157.665 238.715C157.695 238.773 157.737 238.824 157.787 238.866C157.837 238.908 157.895 238.939 157.957 238.959C158.02 238.978 158.085 238.985 158.15 238.979L158.962 238.898H159.003V239.54C159.002 239.709 158.94 239.872 158.828 239.999C158.716 240.126 158.562 240.208 158.394 240.23Z" fill="white"/>
<path d="M129.7 202.837C124.211 206.085 116.286 216.779 113.5 216.56C110.715 216.341 95.6932 202.999 95.6932 202.999L92.2666 206.71C92.2666 206.71 106.144 223.283 112.607 224.534C119.071 225.784 133.305 213.799 133.305 213.799C134.11 211.734 134.11 209.441 133.305 207.376C132.575 205.542 131.321 203.963 129.7 202.837Z" fill="#407BFF"/>
<path opacity="0.7" d="M129.7 202.837C124.211 206.085 116.286 216.779 113.5 216.56C110.715 216.341 95.6932 202.999 95.6932 202.999L92.2666 206.71C92.2666 206.71 106.144 223.283 112.607 224.534C119.071 225.784 133.305 213.799 133.305 213.799C134.11 211.734 134.11 209.441 133.305 207.376C132.575 205.542 131.321 203.963 129.7 202.837Z" fill="white"/>
<path d="M179.946 278.32C179.946 278.32 70.9671 279.075 64.2031 263.769L112.736 260.245C122.368 264.286 132.226 267.764 142.261 270.663C153.466 273.935 166.751 277.037 179.946 278.32Z" fill="#407BFF"/>
<path opacity="0.2" d="M179.945 278.32C179.945 278.32 176.526 278.32 170.842 278.32C147.53 276.696 120.312 265.117 120.312 265.117C110.486 267.277 103.731 263.404 103.731 263.404L77.2431 264.922C77.3858 265.575 77.3795 266.251 77.2249 266.9C77.0702 267.549 76.7712 268.156 76.3499 268.674C90.0808 272.531 104.884 274.877 116.95 276.298C91.4612 274.39 67.2718 270.752 64.1699 263.794L112.703 260.27C112.703 260.27 146.604 275.072 179.945 278.32Z" fill="white"/>
<path opacity="0.2" d="M179.946 278.321C179.946 278.321 70.9671 279.076 64.2031 263.77C64.2031 263.77 101.027 279.677 142.261 270.663C153.466 273.936 166.751 277.038 179.946 278.321Z" fill="black"/>
</svg>
