<svg width="72" height="72" viewBox="0 0 72 72" fill="none" xmlns="http://www.w3.org/2000/svg">
<path d="M36.0002 24C39.1828 24 42.2351 25.2643 44.4855 27.5147C46.736 29.7652 48.0002 32.8174 48.0002 36C48.0002 39.1826 46.736 42.2348 44.4855 44.4853C42.2351 46.7357 39.1828 48 36.0002 48C32.8177 48 29.7654 46.7357 27.515 44.4853C25.2645 42.2348 24.0002 39.1826 24.0002 36C24.0002 32.8174 25.2645 29.7652 27.515 27.5147C29.7654 25.2643 32.8177 24 36.0002 24ZM36.0002 30C34.409 30 32.8828 30.6321 31.7576 31.7574C30.6324 32.8826 30.0002 34.4087 30.0002 36C30.0002 37.5913 30.6324 39.1174 31.7576 40.2426C32.8828 41.3679 34.409 42 36.0002 42C37.5915 42 39.1177 41.3679 40.2429 40.2426C41.3681 39.1174 42.0002 37.5913 42.0002 36C42.0002 34.4087 41.3681 32.8826 40.2429 31.7574C39.1177 30.6321 37.5915 30 36.0002 30ZM30.0002 66C29.2502 66 28.6202 65.46 28.5002 64.74L27.3902 56.79C25.5002 56.04 23.8802 55.02 22.3202 53.82L14.8503 56.85C14.1902 57.09 13.3803 56.85 13.0203 56.19L7.02025 45.81C6.63025 45.15 6.81025 44.34 7.38025 43.89L13.7103 38.91L13.5003 36L13.7103 33L7.38025 28.11C6.81025 27.66 6.63025 26.85 7.02025 26.19L13.0203 15.81C13.3803 15.15 14.1902 14.88 14.8503 15.15L22.3202 18.15C23.8802 16.98 25.5002 15.96 27.3902 15.21L28.5002 7.26C28.6202 6.54 29.2502 6 30.0002 6H42.0002C42.7502 6 43.3802 6.54 43.5002 7.26L44.6102 15.21C46.5002 15.96 48.1202 16.98 49.6802 18.15L57.1502 15.15C57.8102 14.88 58.6202 15.15 58.9802 15.81L64.9802 26.19C65.3702 26.85 65.1903 27.66 64.6203 28.11L58.2902 33L58.5002 36L58.2902 39L64.6203 43.89C65.1903 44.34 65.3702 45.15 64.9802 45.81L58.9802 56.19C58.6202 56.85 57.8102 57.12 57.1502 56.85L49.6802 53.85C48.1202 55.02 46.5002 56.04 44.6102 56.79L43.5002 64.74C43.3802 65.46 42.7502 66 42.0002 66H30.0002ZM33.7502 12L32.6402 19.83C29.0403 20.58 25.8602 22.5 23.5502 25.17L16.3203 22.05L14.0703 25.95L20.4002 30.6C19.2002 34.11 19.2002 37.92 20.4002 41.4L14.0402 46.08L16.2902 49.98L23.5802 46.86C25.8902 49.5 29.0402 51.42 32.6102 52.14L33.7202 60H38.2803L39.3903 52.17C42.9603 51.42 46.1102 49.5 48.4202 46.86L55.7102 49.98L57.9602 46.08L51.6003 41.43C52.8003 37.92 52.8003 34.11 51.6003 30.6L57.9302 25.95L55.6802 22.05L48.4502 25.17C46.1402 22.5 42.9602 20.58 39.3602 19.86L38.2502 12H33.7502Z" fill="#184466"/>
</svg>
