<svg width="72" height="72" viewBox="0 0 72 72" fill="none" xmlns="http://www.w3.org/2000/svg">
<path d="M60 18C61.74 18 63.15 18.6 64.26 19.77C65.4 21 66 22.35 66 24V57C66 58.65 65.4 60 64.26 61.23C63.15 62.4 61.74 63 60 63H12C10.26 63 8.85 62.4 7.74 61.23C6.6 60 6 58.65 6 57V24C6 22.35 6.6 21 7.74 19.77C8.85 18.6 10.26 18 12 18H24V12C24 10.26 24.6 8.85 25.74 7.74C26.85 6.6 28.26 6 30 6H42C43.74 6 45.15 6.6 46.26 7.74C47.4 8.85 48 10.26 48 12V18H60ZM12 24V57H60V24H12ZM42 18V12H30V18H42Z" fill="#184466"/>
</svg>
