<svg width="72" height="72" viewBox="0 0 72 72" fill="none" xmlns="http://www.w3.org/2000/svg">
<path d="M49.5 46.5C54.66 46.5 60.75 48.9 61.5 50.34V52.5H37.5V50.34C38.25 48.9 44.34 46.5 49.5 46.5ZM49.5 42C44.01 42 33 44.76 33 50.25V57H66V50.25C66 44.76 54.99 42 49.5 42ZM27 39C20.01 39 6 42.51 6 49.5V57H27V52.5H10.5V49.5C10.5 47.61 18.87 43.02 29.46 43.5C30.7497 41.9577 32.3295 40.6836 34.11 39.75C31.7699 39.2701 29.3887 39.0189 27 39ZM27 19.5C27.89 19.5 28.76 19.7639 29.5001 20.2584C30.2401 20.7529 30.8169 21.4557 31.1575 22.2779C31.4981 23.1002 31.5872 24.005 31.4135 24.8779C31.2399 25.7508 30.8113 26.5526 30.182 27.182C29.5526 27.8113 28.7508 28.2399 27.8779 28.4135C27.005 28.5872 26.1002 28.4981 25.2779 28.1575C24.4557 27.8169 23.7529 27.2401 23.2584 26.5001C22.7639 25.76 22.5 24.89 22.5 24C22.5 22.8065 22.9741 21.6619 23.818 20.818C24.6619 19.9741 25.8065 19.5 27 19.5ZM27 15C25.22 15 23.4799 15.5278 21.9999 16.5168C20.5198 17.5057 19.3663 18.9113 18.6851 20.5558C18.0039 22.2004 17.8257 24.01 18.1729 25.7558C18.5202 27.5016 19.3774 29.1053 20.636 30.364C21.8947 31.6226 23.4984 32.4798 25.2442 32.8271C26.99 33.1743 28.7996 32.9961 30.4442 32.3149C32.0887 31.6337 33.4943 30.4802 34.4832 29.0001C35.4722 27.5201 36 25.78 36 24C36 21.6131 35.0518 19.3239 33.364 17.636C31.6761 15.9482 29.387 15 27 15ZM49.5 25.5C50.0933 25.5 50.6734 25.6759 51.1667 26.0056C51.6601 26.3352 52.0446 26.8038 52.2716 27.3519C52.4987 27.9001 52.5581 28.5033 52.4424 29.0853C52.3266 29.6672 52.0409 30.2018 51.6213 30.6213C51.2018 31.0409 50.6672 31.3266 50.0853 31.4424C49.5033 31.5581 48.9001 31.4987 48.352 31.2716C47.8038 31.0446 47.3352 30.6601 47.0056 30.1667C46.676 29.6734 46.5 29.0933 46.5 28.5C46.5 27.7044 46.8161 26.9413 47.3787 26.3787C47.9413 25.8161 48.7044 25.5 49.5 25.5ZM49.5 21C48.0166 21 46.5666 21.4399 45.3332 22.264C44.0999 23.0881 43.1386 24.2594 42.5709 25.6299C42.0033 27.0003 41.8547 28.5083 42.1441 29.9632C42.4335 31.418 43.1478 32.7544 44.1967 33.8033C45.2456 34.8522 46.582 35.5665 48.0368 35.8559C49.4917 36.1453 50.9997 35.9968 52.3701 35.4291C53.7406 34.8614 54.9119 33.9001 55.736 32.6668C56.5601 31.4334 57 29.9834 57 28.5C57 26.5109 56.2098 24.6032 54.8033 23.1967C53.3968 21.7902 51.4891 21 49.5 21Z" fill="#184466"/>
</svg>
