<svg width="58" height="64" viewBox="0 0 58 64" fill="none" xmlns="http://www.w3.org/2000/svg">
<path d="M45.2525 9.86468H44.5935V6.08548C44.5935 5.60049 44.4024 5.13537 44.0623 4.79243C43.7222 4.4495 43.2608 4.25684 42.7798 4.25684C42.2988 4.25684 41.8375 4.4495 41.4973 4.79243C41.1572 5.13537 40.9661 5.60049 40.9661 6.08548V9.86468H16.6021V6.08548C16.6021 5.60049 16.411 5.13537 16.0709 4.79243C15.7307 4.4495 15.2694 4.25684 14.7884 4.25684C14.3074 4.25684 13.846 4.4495 13.5059 4.79243C13.1658 5.13537 12.9747 5.60049 12.9747 6.08548V9.86468H12.3157C10.1803 9.87111 8.13422 10.7292 6.62427 12.2516C5.11432 13.774 4.26322 15.837 4.25684 17.99V51.1981C4.26002 53.3532 5.10972 55.4193 6.62002 56.9443C8.13031 58.4694 10.1782 59.3292 12.3157 59.3356H45.2525C47.39 59.3292 49.4379 58.4694 50.9482 56.9443C52.4585 55.4193 53.3082 53.3532 53.3114 51.1981V17.99C53.305 15.837 52.4539 13.774 50.9439 12.2516C49.434 10.7292 47.3879 9.87111 45.2525 9.86468ZM49.684 51.1981C49.6856 51.7859 49.5721 52.3682 49.3501 52.9117C49.1281 53.4552 48.802 53.9492 48.3903 54.3654C47.9786 54.7815 47.4896 55.1117 46.9511 55.337C46.4127 55.5623 45.8355 55.6783 45.2525 55.6783H12.3157C11.1404 55.6783 10.0132 55.2076 9.18218 54.3697C8.35112 53.5318 7.88423 52.3953 7.88423 51.2103V26.5053H49.684V51.1981Z" fill="#9B51E0"/>
<path d="M28.7837 51.5901C30.7411 51.5901 32.6546 50.9844 34.2821 49.8496C35.9097 48.7148 37.1782 47.1019 37.9273 45.2149C38.6764 43.3278 38.8724 41.2514 38.4905 39.2481C38.1086 37.2448 37.166 35.4046 35.7819 33.9603C34.3978 32.516 32.6343 31.5325 30.7145 31.134C28.7947 30.7355 26.8047 30.94 24.9963 31.7217C23.1878 32.5033 21.6422 33.827 20.5547 35.5253C19.4672 37.2236 18.8867 39.2203 18.8867 41.2628C18.8867 44.0018 19.9294 46.6286 21.7855 48.5653C23.6415 50.502 26.1588 51.5901 28.7837 51.5901ZM23.8115 39.4076H27.0058V36.0744C27.0058 35.8308 27.0518 35.5896 27.1411 35.3645C27.2305 35.1394 27.3614 34.9349 27.5265 34.7626C27.6916 34.5904 27.8876 34.4537 28.1033 34.3605C28.319 34.2672 28.5502 34.2193 28.7837 34.2193C29.0172 34.2193 29.2484 34.2672 29.4641 34.3605C29.6798 34.4537 29.8758 34.5904 30.0408 34.7626C30.2059 34.9349 30.3369 35.1394 30.4262 35.3645C30.5156 35.5896 30.5616 35.8308 30.5616 36.0744V39.4076H33.7559C34.2274 39.4076 34.6796 39.6031 35.013 39.951C35.3465 40.2989 35.5338 40.7708 35.5338 41.2628C35.5338 41.7548 35.3465 42.2267 35.013 42.5746C34.6796 42.9226 34.2274 43.118 33.7559 43.118H30.5616V46.4512C30.5616 46.9432 30.3743 47.4151 30.0408 47.763C29.7074 48.1109 29.2552 48.3064 28.7837 48.3064C28.3122 48.3064 27.8599 48.1109 27.5265 47.763C27.1931 47.4151 27.0058 46.9432 27.0058 46.4512V43.118H23.8115C23.34 43.118 22.8878 42.9226 22.5543 42.5746C22.2209 42.2267 22.0336 41.7548 22.0336 41.2628C22.0336 40.7708 22.2209 40.2989 22.5543 39.951C22.8878 39.6031 23.34 39.4076 23.8115 39.4076Z" fill="#9B51E0"/>
</svg>
