<svg width="482" height="482" viewBox="0 0 482 482" fill="none" xmlns="http://www.w3.org/2000/svg">
<path d="M318.464 82.2049C320.736 68.1425 311.179 54.9002 297.116 52.6275C283.054 50.3548 269.812 59.9122 267.539 73.9747C265.266 88.0371 274.824 101.279 288.886 103.552C302.949 105.825 316.191 96.2674 318.464 82.2049Z" fill="#EBEBEB"/>
<path d="M318.581 83.668C320.769 70.2908 311.699 57.6726 298.322 55.4844C284.944 53.2962 272.326 62.3667 270.138 75.7438C267.95 89.121 277.02 101.739 290.397 103.927C303.775 106.116 316.393 97.0452 318.581 83.668Z" fill="#DBDBDB"/>
<path d="M304.475 100.557C316.284 95.7319 321.946 82.2473 317.12 70.4383C312.295 58.6294 298.811 52.9679 287.002 57.7931C275.193 62.6182 269.531 76.1028 274.356 87.9118C279.182 99.7207 292.666 105.382 304.475 100.557Z" fill="white"/>
<path d="M294.666 58.3799H294.078V61.8696H294.666V58.3799Z" fill="#EBEBEB"/>
<path d="M283.974 61.1187L283.465 61.4126L285.209 64.435L285.718 64.1411L283.974 61.1187Z" fill="#EBEBEB"/>
<path d="M276.337 67.702L276.043 68.2136L279.079 69.9585L279.373 69.4469L276.337 67.702Z" fill="#EBEBEB"/>
<path d="M276.543 79.4143H273.053V80.0023H276.543V79.4143Z" fill="#EBEBEB"/>
<path d="M278.79 88.3843L275.768 90.1296L276.062 90.6388L279.084 88.8935L278.79 88.3843Z" fill="#EBEBEB"/>
<path d="M285.202 94.9987L283.459 98.0217L283.968 98.3155L285.712 95.2924L285.202 94.9987Z" fill="#EBEBEB"/>
<path d="M294.666 97.5471H294.078V101.037H294.666V97.5471Z" fill="#EBEBEB"/>
<path d="M303.556 95.0334L303.046 95.3274L304.791 98.3495L305.3 98.0555L303.556 95.0334Z" fill="#EBEBEB"/>
<path d="M309.959 88.3733L309.665 88.8826L312.679 90.6226L312.973 90.1133L309.959 88.3733Z" fill="#EBEBEB"/>
<path d="M315.7 79.4143H312.211V80.0023H315.7V79.4143Z" fill="#EBEBEB"/>
<path d="M312.683 68.7856L309.67 70.5256L309.964 71.0349L312.978 69.2949L312.683 68.7856Z" fill="#EBEBEB"/>
<path d="M304.8 61.1058L303.057 64.1289L303.567 64.4227L305.31 61.3996L304.8 61.1058Z" fill="#EBEBEB"/>
<path d="M297.779 72.3295L287.692 92.1606L288.216 92.4272L298.303 72.5961L297.779 72.3295Z" fill="#EBEBEB"/>
<path d="M293.197 71.803L292.431 71.9563L296.732 93.4417L297.498 93.2885L293.197 71.803Z" fill="#DBDBDB"/>
<path d="M218.828 245.647H53.3286V54.5239H218.828V245.647ZM57.175 241.791H214.972V58.3799H57.1846L57.175 241.791Z" fill="#EBEBEB"/>
<path d="M136.502 59.3918H132.646V243.718H136.502V59.3918Z" fill="#EBEBEB"/>
<path d="M222.337 62.3225H49.8291V67.692H222.337V62.3225Z" fill="#EBEBEB"/>
<path d="M222.337 68.3667H49.8291V73.7362H222.337V68.3667Z" fill="#EBEBEB"/>
<path d="M222.337 74.4014H49.8291V79.7709H222.337V74.4014Z" fill="#EBEBEB"/>
<path d="M222.337 80.4458H49.8291V85.8153H222.337V80.4458Z" fill="#EBEBEB"/>
<path d="M222.337 86.49H49.8291V91.8595H222.337V86.49Z" fill="#EBEBEB"/>
<path d="M222.337 92.5249H49.8291V97.8944H222.337V92.5249Z" fill="#EBEBEB"/>
<path d="M222.337 98.5688H49.8291V103.938H222.337V98.5688Z" fill="#EBEBEB"/>
<path d="M222.337 104.613H49.8291V109.983H222.337V104.613Z" fill="#EBEBEB"/>
<path d="M222.337 110.648H49.8291V116.017H222.337V110.648Z" fill="#EBEBEB"/>
<path d="M210.885 61.2334H209.921V185.001H210.885V61.2334Z" fill="#263238"/>
<path d="M212.109 189.493H208.687L209.545 184.577H211.251L212.109 189.493Z" fill="#263238"/>
<path d="M214.355 61.2334H213.391V240.277H214.355V61.2334Z" fill="#263238"/>
<path d="M215.579 243.892H212.167L213.015 238.976H214.731L215.579 243.892Z" fill="#263238"/>
<path d="M228.314 53.772H43.8428V65.0026H228.314V53.772Z" fill="#DBDBDB"/>
<path d="M442.939 98.0002H338.942V228.96H442.939V98.0002Z" fill="#EBEBEB"/>
<path d="M429.703 125.06H351.822V127.537H429.703V125.06Z" fill="#DBDBDB"/>
<path d="M417.769 130.246H351.822V132.724H417.769V130.246Z" fill="#DBDBDB"/>
<path d="M402.113 135.423H351.822V137.9H402.113V135.423Z" fill="#DBDBDB"/>
<path d="M426.985 140.609H351.822V143.086H426.985V140.609Z" fill="#DBDBDB"/>
<path d="M420.593 145.786H351.822V148.263H420.593V145.786Z" fill="#DBDBDB"/>
<path d="M423.186 156.149H351.822V158.626H423.186V156.149Z" fill="#DBDBDB"/>
<path d="M379.161 161.335H351.822V163.812H379.161V161.335Z" fill="#DBDBDB"/>
<path d="M406.953 166.512H351.822V168.989H406.953V166.512Z" fill="#DBDBDB"/>
<path d="M426.985 171.698H351.822V174.175H426.985V171.698Z" fill="#DBDBDB"/>
<path d="M416.631 176.875H351.822V179.352H416.631V176.875Z" fill="#DBDBDB"/>
<path d="M422.049 187.238H351.822V189.715H422.049V187.238Z" fill="#DBDBDB"/>
<path d="M394.334 192.424H351.822V194.902H394.334V192.424Z" fill="#DBDBDB"/>
<path d="M394.334 208.108H351.822V210.586H394.334V208.108Z" fill="#DBDBDB"/>
<path d="M423.138 218.462C427.488 218.462 431.014 214.936 431.014 210.586C431.014 206.236 427.488 202.71 423.138 202.71C418.788 202.71 415.262 206.236 415.262 210.586C415.262 214.936 418.788 218.462 423.138 218.462Z" fill="#E8505B"/>
<path d="M363.428 108.093C364.374 108.094 365.293 108.409 366.04 108.99C366.071 109.012 366.097 109.041 366.116 109.074C366.135 109.107 366.148 109.144 366.152 109.182C366.157 109.22 366.153 109.258 366.142 109.295C366.131 109.331 366.113 109.365 366.089 109.395C366.067 109.425 366.039 109.45 366.007 109.469C365.975 109.489 365.94 109.501 365.903 109.507C365.866 109.512 365.829 109.51 365.793 109.501C365.757 109.491 365.723 109.475 365.693 109.453C365.05 108.94 364.251 108.661 363.428 108.662C362.49 108.662 361.59 109.035 360.926 109.698C360.263 110.362 359.89 111.262 359.89 112.2C359.89 113.138 360.263 114.038 360.926 114.702C361.59 115.365 362.49 115.738 363.428 115.738C364.245 115.75 365.041 115.474 365.674 114.957C365.704 114.932 365.739 114.914 365.777 114.903C365.814 114.893 365.854 114.891 365.892 114.897C365.931 114.904 365.967 114.918 365.999 114.94C366.032 114.962 366.059 114.991 366.079 115.024C366.108 115.05 366.131 115.081 366.146 115.116C366.162 115.151 366.17 115.189 366.17 115.227C366.17 115.265 366.162 115.303 366.146 115.338C366.131 115.373 366.108 115.404 366.079 115.429C365.328 116 364.41 116.309 363.467 116.307C362.927 116.307 362.393 116.2 361.895 115.994C361.397 115.788 360.944 115.485 360.563 115.104C360.181 114.722 359.879 114.27 359.672 113.771C359.466 113.273 359.36 112.739 359.36 112.2C359.36 111.661 359.466 111.127 359.672 110.628C359.879 110.13 360.181 109.677 360.563 109.296C360.944 108.915 361.397 108.612 361.895 108.406C362.393 108.199 362.927 108.093 363.467 108.093H363.428Z" fill="#A6A6A6"/>
<path d="M371.786 108.093C372.608 108.051 373.424 108.256 374.129 108.682C374.833 109.108 375.394 109.736 375.738 110.484C376.082 111.232 376.194 112.066 376.059 112.878C375.924 113.691 375.549 114.444 374.981 115.04C374.414 115.637 373.681 116.05 372.876 116.226C372.072 116.401 371.234 116.332 370.469 116.026C369.705 115.72 369.05 115.192 368.588 114.51C368.127 113.828 367.881 113.023 367.882 112.2C367.865 111.673 367.953 111.148 368.141 110.656C368.329 110.163 368.613 109.713 368.976 109.331C369.339 108.949 369.774 108.643 370.257 108.43C370.739 108.218 371.259 108.103 371.786 108.093ZM371.786 115.738C372.493 115.778 373.196 115.606 373.804 115.243C374.411 114.879 374.896 114.342 375.195 113.7C375.494 113.058 375.594 112.341 375.481 111.642C375.368 110.943 375.048 110.294 374.563 109.779C374.077 109.264 373.448 108.906 372.757 108.752C372.065 108.599 371.344 108.656 370.686 108.917C370.027 109.177 369.462 109.63 369.064 110.215C368.665 110.8 368.452 111.492 368.451 112.2C368.425 113.111 368.761 113.996 369.387 114.659C370.012 115.322 370.875 115.71 371.786 115.738V115.738Z" fill="#A6A6A6"/>
<path d="M378.36 109.404V116.027C378.368 116.068 378.367 116.109 378.356 116.149C378.346 116.189 378.327 116.226 378.301 116.257C378.275 116.289 378.242 116.314 378.205 116.332C378.167 116.349 378.127 116.358 378.086 116.358C378.045 116.358 378.004 116.349 377.967 116.332C377.93 116.314 377.897 116.289 377.871 116.257C377.844 116.226 377.825 116.189 377.815 116.149C377.805 116.109 377.803 116.068 377.811 116.027V108.604C377.792 108.549 377.791 108.49 377.808 108.434C377.825 108.378 377.86 108.33 377.907 108.296C377.969 108.254 378.045 108.237 378.119 108.25C378.192 108.263 378.258 108.303 378.303 108.363L383.209 115.111V108.527C383.209 108.455 383.238 108.385 383.288 108.333C383.338 108.281 383.407 108.25 383.479 108.248C383.517 108.246 383.554 108.253 383.589 108.266C383.624 108.28 383.656 108.3 383.683 108.326C383.71 108.352 383.732 108.383 383.746 108.418C383.761 108.453 383.769 108.49 383.769 108.527V115.979C383.769 116.016 383.761 116.054 383.746 116.088C383.732 116.123 383.71 116.154 383.683 116.18C383.656 116.206 383.624 116.227 383.589 116.24C383.554 116.254 383.517 116.26 383.479 116.258C383.438 116.258 383.398 116.248 383.361 116.23C383.324 116.212 383.292 116.185 383.267 116.152C383.256 116.149 383.246 116.142 383.238 116.134C383.229 116.126 383.223 116.115 383.219 116.104L378.36 109.404Z" fill="#A6A6A6"/>
<path d="M388.666 108.778H386.227C386.152 108.775 386.08 108.744 386.028 108.69C385.976 108.636 385.947 108.564 385.947 108.489C385.949 108.415 385.98 108.345 386.032 108.294C386.083 108.242 386.153 108.211 386.227 108.209H391.664C391.737 108.211 391.807 108.242 391.859 108.294C391.91 108.345 391.941 108.415 391.943 108.489C391.943 108.564 391.914 108.636 391.862 108.69C391.81 108.744 391.739 108.775 391.664 108.778H389.225V116.027C389.225 116.101 389.195 116.172 389.143 116.225C389.09 116.277 389.019 116.307 388.945 116.307C388.871 116.307 388.8 116.277 388.747 116.225C388.695 116.172 388.666 116.101 388.666 116.027V108.778Z" fill="#A6A6A6"/>
<path d="M398.132 114.475C398.133 114.233 398.073 113.994 397.959 113.78C397.844 113.567 397.679 113.385 397.477 113.251C397.183 113.057 396.856 112.919 396.513 112.846H396.455H394.527V116.046C394.514 116.113 394.479 116.173 394.427 116.216C394.375 116.259 394.31 116.283 394.242 116.283C394.175 116.283 394.109 116.259 394.057 116.216C394.005 116.173 393.97 116.113 393.958 116.046V108.508C393.962 108.44 393.988 108.375 394.034 108.324C394.08 108.273 394.141 108.239 394.209 108.228H396.522C397.046 108.234 397.552 108.417 397.958 108.747C398.364 109.077 398.646 109.536 398.758 110.047C398.87 110.559 398.805 111.093 398.574 111.563C398.343 112.033 397.96 112.41 397.486 112.634C397.522 112.659 397.561 112.678 397.602 112.692C397.928 112.867 398.201 113.127 398.393 113.444C398.584 113.761 398.687 114.124 398.691 114.494C398.674 114.819 398.707 115.144 398.788 115.458C398.809 115.531 398.849 115.598 398.903 115.651C398.969 115.643 399.035 115.657 399.093 115.69C399.15 115.723 399.195 115.774 399.221 115.834C399.24 115.908 399.231 115.987 399.198 116.055C399.164 116.124 399.108 116.179 399.038 116.21H398.874C398.762 116.199 398.655 116.159 398.563 116.093C398.472 116.027 398.4 115.937 398.354 115.834C398.166 115.407 398.09 114.94 398.132 114.475V114.475ZM396.513 108.778H394.517V112.267H396.561C397.024 112.261 397.465 112.071 397.788 111.739C398.11 111.408 398.288 110.961 398.282 110.498C398.275 110.036 398.085 109.594 397.753 109.272C397.422 108.949 396.975 108.771 396.513 108.778V108.778Z" fill="#A6A6A6"/>
<path d="M405.728 114.215H402.036L401.323 116.143C401.303 116.196 401.268 116.242 401.221 116.275C401.175 116.308 401.12 116.325 401.063 116.326H400.957C400.887 116.296 400.831 116.24 400.8 116.17C400.77 116.101 400.767 116.022 400.793 115.95L403.598 108.45C403.623 108.398 403.663 108.354 403.713 108.323C403.762 108.292 403.819 108.276 403.878 108.276C403.936 108.274 403.994 108.289 404.044 108.32C404.094 108.351 404.134 108.396 404.157 108.45L406.962 115.95C406.989 116.019 406.99 116.096 406.963 116.166C406.936 116.235 406.884 116.293 406.818 116.326H406.712C406.654 116.325 406.597 116.307 406.55 116.274C406.502 116.242 406.464 116.196 406.442 116.143L405.728 114.215ZM402.248 113.646H405.526L403.887 109.298L402.248 113.646Z" fill="#A6A6A6"/>
<path d="M412.158 108.093C413.104 108.094 414.024 108.409 414.771 108.99C414.801 109.012 414.827 109.041 414.846 109.074C414.866 109.107 414.878 109.144 414.882 109.182C414.887 109.22 414.884 109.258 414.873 109.295C414.862 109.331 414.843 109.365 414.819 109.395C414.797 109.425 414.769 109.45 414.737 109.469C414.706 109.489 414.67 109.501 414.633 109.507C414.597 109.512 414.559 109.51 414.523 109.501C414.487 109.491 414.453 109.475 414.424 109.453C413.78 108.94 412.981 108.661 412.158 108.662C411.22 108.662 410.32 109.035 409.657 109.698C408.993 110.362 408.62 111.262 408.62 112.2C408.62 113.138 408.993 114.038 409.657 114.702C410.32 115.365 411.22 115.738 412.158 115.738C412.975 115.75 413.771 115.474 414.404 114.957C414.434 114.932 414.469 114.914 414.507 114.903C414.544 114.893 414.584 114.891 414.622 114.897C414.661 114.904 414.697 114.918 414.73 114.94C414.762 114.962 414.789 114.991 414.809 115.024C414.838 115.05 414.861 115.081 414.877 115.116C414.892 115.151 414.901 115.189 414.901 115.227C414.901 115.265 414.892 115.303 414.877 115.338C414.861 115.373 414.838 115.404 414.809 115.429C414.058 116 413.14 116.309 412.197 116.307C411.657 116.307 411.123 116.2 410.625 115.994C410.127 115.788 409.674 115.485 409.293 115.104C408.912 114.722 408.609 114.27 408.403 113.771C408.196 113.273 408.09 112.739 408.09 112.2C408.09 111.661 408.196 111.127 408.403 110.628C408.609 110.13 408.912 109.677 409.293 109.296C409.674 108.915 410.127 108.612 410.625 108.406C411.123 108.199 411.657 108.093 412.197 108.093H412.158Z" fill="#A6A6A6"/>
<path d="M419.34 108.778H416.901C416.826 108.775 416.755 108.744 416.703 108.69C416.651 108.636 416.622 108.564 416.622 108.489C416.624 108.415 416.654 108.345 416.706 108.294C416.758 108.242 416.828 108.211 416.901 108.209H422.338C422.411 108.211 422.481 108.242 422.533 108.294C422.585 108.345 422.615 108.415 422.618 108.489C422.619 108.526 422.613 108.563 422.599 108.598C422.586 108.634 422.565 108.665 422.539 108.692C422.513 108.719 422.482 108.741 422.447 108.756C422.413 108.77 422.376 108.778 422.338 108.778H419.899V116.027C419.899 116.101 419.87 116.172 419.817 116.225C419.765 116.277 419.694 116.307 419.62 116.307C419.545 116.307 419.474 116.277 419.422 116.225C419.37 116.172 419.34 116.101 419.34 116.027V108.778Z" fill="#A6A6A6"/>
<path d="M247.739 352.959H438.717L442.688 274.605H243.767L247.739 352.959Z" fill="#EBEBEB"/>
<path d="M429.664 310.475H349.816L348.322 283.271H431.409L429.664 310.475ZM350.732 309.511H428.758L430.378 284.235H349.344L350.732 309.511Z" fill="#DBDBDB"/>
<path d="M428.19 341.767H352.949L351.725 317.214H429.722L428.19 341.767ZM353.865 340.803H427.283L428.701 318.178H352.737L353.865 340.803Z" fill="#DBDBDB"/>
<path d="M397.428 299.804H384.01L383.171 293.239H398.277L397.428 299.804ZM384.896 298.84H396.619L397.216 294.203H384.299L384.896 298.84Z" fill="#DBDBDB"/>
<path d="M397.428 332.773H384.01L383.171 326.208H398.277L397.428 332.773ZM384.896 331.809H396.619L397.216 327.172H384.299L384.896 331.809Z" fill="#DBDBDB"/>
<path d="M335.751 310.475H255.903L254.409 283.271H337.496L335.751 310.475ZM256.819 309.511H334.845L336.436 284.235H255.46L256.819 309.511Z" fill="#DBDBDB"/>
<path d="M334.277 341.767H259.037L257.812 317.214H335.81L334.277 341.767ZM259.952 340.803H333.371L334.788 318.178H258.824L259.952 340.803Z" fill="#DBDBDB"/>
<path d="M303.515 299.804H290.096L289.258 293.239H304.364L303.515 299.804ZM290.983 298.84H302.696L303.294 294.203H290.376L290.983 298.84Z" fill="#DBDBDB"/>
<path d="M303.515 332.773H290.096L289.258 326.208H304.364L303.515 332.773ZM290.983 331.809H302.696L303.294 327.172H290.376L290.983 331.809Z" fill="#DBDBDB"/>
<path d="M264.869 352.959L263.664 361.5L261.254 378.65H256.54V352.959H264.869Z" fill="#EBEBEB"/>
<path d="M264.869 352.959L263.664 361.5H256.54V352.959H264.869Z" fill="#DBDBDB"/>
<path d="M421.586 352.959L422.782 361.5L425.201 378.65H429.915V352.959H421.586Z" fill="#EBEBEB"/>
<path d="M421.586 352.959L422.782 361.5H429.915V352.959H421.586Z" fill="#DBDBDB"/>
<path d="M241 455.885C337.067 455.885 414.944 445.738 414.944 433.222C414.944 420.705 337.067 410.558 241 410.558C144.933 410.558 67.0559 420.705 67.0559 433.222C67.0559 445.738 144.933 455.885 241 455.885Z" fill="#EBEBEB"/>
<path d="M81.4388 408.418C110.199 408.418 133.514 402.833 133.514 395.944C133.514 389.055 110.199 383.47 81.4388 383.47C52.6784 383.47 29.3635 389.055 29.3635 395.944C29.3635 402.833 52.6784 408.418 81.4388 408.418Z" fill="#EBEBEB"/>
<path d="M32.1978 378.65L84.3984 378.418L136.599 378.331L241 378.177L345.401 378.331L397.602 378.418L449.803 378.65L397.602 378.891L345.401 378.977L241 379.132L136.599 378.977L84.3984 378.891L32.1978 378.65Z" fill="#263238"/>
<path d="M82.9715 211.704C82.9715 211.704 57.0495 208.08 63.1034 176.779C63.1034 176.779 92.0716 183.286 82.9715 211.704Z" fill="#E8505B"/>
<path opacity="0.1" d="M82.9715 211.704C82.9715 211.704 57.0495 208.08 63.1034 176.779C63.1034 176.779 92.0716 183.286 82.9715 211.704Z" fill="black"/>
<path d="M81.6602 205.168C81.1538 203.586 80.565 202.032 79.8961 200.512C79.8961 200.31 79.8961 200.107 79.8286 199.914C79.8286 199.481 79.7515 199.056 79.7226 198.623C79.6455 197.659 79.5876 196.752 79.5298 195.817C79.4237 193.947 79.3081 192.077 79.2791 190.207C79.2791 190.101 79.1153 190.11 79.1153 190.207C79.1153 192.087 79.1153 193.957 79.1153 195.827C79.1153 196.791 79.2117 197.697 79.2695 198.632C79.2695 198.844 79.2695 199.047 79.2695 199.259C77.8126 196.142 76.0699 193.166 74.0639 190.371C73.2187 189.125 72.308 187.925 71.3358 186.775C70.3043 185.589 69.215 184.461 68.1642 183.295C68.0967 183.218 67.9907 183.295 68.0582 183.411C69.9196 185.469 71.5909 187.693 73.0517 190.053C73.8422 191.238 74.5845 192.463 75.2978 193.706L75.0568 193.619L74.0928 193.243L71.972 192.443C70.5839 191.923 69.1957 191.421 67.8075 190.891C67.7208 190.891 67.6629 191.007 67.7497 191.036C69.1282 191.585 70.4875 192.164 71.8563 192.752L73.8615 193.619L74.8737 194.034C75.0908 194.143 75.3207 194.224 75.5581 194.275C76.0787 195.239 76.5992 196.155 77.0812 197.119C78.2835 199.544 79.3393 202.038 80.2431 204.59C80.3106 204.763 80.3685 204.946 80.4359 205.13C79.7512 204.736 79.0393 204.391 78.3055 204.098L75.6256 202.883C73.8036 202.045 72.0009 201.196 70.2561 200.213C70.2382 200.203 70.217 200.2 70.1971 200.206C70.1772 200.211 70.1603 200.224 70.1501 200.242C70.1398 200.26 70.1371 200.281 70.1426 200.301C70.148 200.321 70.1611 200.338 70.179 200.348C71.9624 201.312 73.7072 202.363 75.4906 203.327C76.3871 203.809 77.2837 204.291 78.1995 204.725C78.9531 205.173 79.7731 205.498 80.6287 205.689C81.4985 208.061 82.0716 210.531 82.335 213.044C82.6242 216.582 82.5953 220.149 82.6821 223.696H82.7688C83.0291 220.476 83.1737 217.228 83.193 213.998C83.1551 210.992 82.6377 208.011 81.6602 205.168Z" fill="#263238"/>
<path d="M77.6695 186.765C77.4192 188.595 77.3321 190.444 77.4093 192.289C77.4093 192.337 77.4864 192.337 77.4864 192.289C77.5924 190.457 77.6117 188.626 77.8238 186.804C77.8334 186.707 77.6792 186.669 77.6695 186.765Z" fill="#263238"/>
<path d="M70.2563 188.337C69.0973 187.892 67.9809 187.344 66.9208 186.698C66.8341 186.64 66.7569 186.785 66.8437 186.833C67.8823 187.534 69.0194 188.077 70.2177 188.443C70.2755 188.462 70.3719 188.366 70.2563 188.337Z" fill="#263238"/>
<path d="M83.8005 261.389C83.8005 258.497 83.7234 255.663 83.6945 252.799C83.6366 243.285 83.5595 233.77 83.386 224.255C83.251 216.698 83.0743 209.146 82.8558 201.601C82.8551 201.582 82.8495 201.563 82.8394 201.546C82.8293 201.529 82.815 201.515 82.798 201.505C82.798 199.442 82.798 197.379 82.798 195.316C82.798 195.258 82.7401 195.239 82.6726 195.239C82.6052 195.239 82.5473 195.239 82.557 195.316C82.557 197.386 82.557 199.452 82.557 201.515C82.557 201.515 82.4895 201.563 82.4895 201.601C82.1135 215.097 81.7761 228.487 81.6894 241.935C81.6894 244.673 81.6894 247.401 81.6894 250.139C81.593 258.898 81.5576 267.664 81.5833 276.437C81.5833 277.825 81.5833 279.223 81.5833 280.62C81.5833 288.641 81.6701 296.661 81.6701 304.72C81.6701 305.145 82.1521 305.366 82.6341 305.386C83.1161 305.405 83.8391 305.174 83.8391 304.682C83.8391 295.842 83.8969 286.993 83.8969 278.153C83.868 272.542 83.868 266.961 83.8005 261.389Z" fill="#263238"/>
<path d="M72.9748 252.684C72.9748 252.684 60.5006 243.449 48.6723 249.676C36.844 255.904 34.9739 279.984 34.9739 279.984C34.9739 279.984 52.3259 282.471 63.2962 272.051C73.8424 262.025 72.9748 252.684 72.9748 252.684Z" fill="#E8505B"/>
<path d="M76.3681 253.253C74.0779 252.34 71.5972 252.008 69.1477 252.289C68.6446 252.199 68.1355 252.147 67.6246 252.134L65.8605 251.999L62.2262 251.749C59.768 251.566 57.3002 251.411 54.842 251.161C54.825 251.167 54.8102 251.178 54.7998 251.192C54.7893 251.207 54.7837 251.225 54.7837 251.243C54.7837 251.261 54.7893 251.278 54.7998 251.293C54.8102 251.308 54.825 251.319 54.842 251.325C57.2712 251.633 59.662 251.98 62.1202 252.221C63.3734 252.346 64.6266 252.481 65.8894 252.568L66.7956 252.655C66.4293 252.742 66.0533 252.828 65.687 252.934C63.7305 253.504 61.8375 254.273 60.0379 255.229C59.0739 255.402 58.1099 255.682 57.1459 255.904C55.6035 256.27 54.0708 256.665 52.538 257.07C49.511 257.86 46.513 258.757 43.5053 259.634C43.4089 259.634 43.4571 259.808 43.5053 259.779C46.5034 259.046 49.5303 258.371 52.538 257.658L56.9146 256.607L58.0617 256.337C54.7158 258.418 51.7248 261.022 49.2026 264.049C46.7752 267.037 44.7107 270.302 43.0522 273.776C43.0522 273.863 43.1294 273.95 43.1872 273.863C45.2401 270.312 47.7449 267.042 50.6389 264.136C50.5811 264.3 50.5329 264.473 50.475 264.637L49.781 266.835C49.3182 268.31 48.817 269.775 48.4121 271.25C48.4121 271.347 48.5374 271.376 48.5663 271.25C49.0965 269.824 49.5978 268.358 50.0991 266.961C50.3401 266.257 50.5907 265.563 50.8317 264.859C50.9667 264.493 51.092 264.126 51.2077 263.76C51.2077 263.654 51.2944 263.538 51.333 263.423C52.7227 262.073 54.1975 260.814 55.7481 259.653C57.8071 258.147 60.0286 256.876 62.3708 255.865C62.3708 256.077 62.2937 256.299 62.2455 256.501C62.1202 257.07 61.9949 257.639 61.8792 258.207C61.6382 259.384 61.4068 260.569 61.1755 261.755C60.7031 264.165 60.4139 266.575 59.9608 269.024C59.9608 269.13 60.0958 269.168 60.1151 269.024C60.6742 266.594 61.3972 264.204 61.937 261.774C62.2069 260.56 62.4769 259.345 62.7371 258.13L63.0842 256.414C63.142 256.096 63.2191 255.778 63.2577 255.45L63.9325 255.171C67.2005 253.956 70.8155 253.079 74.3051 253.754C75.9558 254.06 77.5052 254.769 78.8155 255.818C80.1257 256.868 81.156 258.225 81.8147 259.769C81.9304 260.039 82.3545 259.866 82.2871 259.586C81.6123 256.636 79.1155 254.409 76.3681 253.253Z" fill="#263238"/>
<path d="M57.2809 263.529C56.9339 265.11 56.5772 266.691 56.2301 268.272C55.8362 269.786 55.5464 271.326 55.3625 272.88C55.3625 272.947 55.4397 272.947 55.4589 272.88C55.918 271.36 56.2723 269.811 56.5193 268.243C56.8278 266.681 57.1363 265.12 57.4351 263.558C57.4544 263.471 57.3002 263.433 57.2809 263.529Z" fill="#263238"/>
<path d="M45.221 267.549C43.6304 268.349 42.0976 269.265 40.401 269.93C40.3915 269.934 40.3829 269.939 40.3755 269.946C40.3682 269.954 40.3624 269.962 40.3583 269.971C40.3543 269.981 40.3522 269.991 40.3521 270.001C40.3519 270.011 40.3538 270.022 40.3576 270.031C40.3614 270.041 40.367 270.049 40.3742 270.057C40.3813 270.064 40.3898 270.07 40.3992 270.074C40.4086 270.078 40.4187 270.08 40.429 270.08C40.4392 270.08 40.4493 270.078 40.4588 270.074C42.1183 269.339 43.7369 268.516 45.3078 267.607C45.3078 267.607 45.3078 267.529 45.221 267.549Z" fill="#263238"/>
<path d="M75.78 235.718C75.78 235.718 60.5392 236.682 53.4441 226.646C46.3491 216.611 47.9493 202.238 47.9493 202.238C47.9493 202.238 63.9614 204.166 70.3141 211.405C76.6669 218.645 75.78 235.718 75.78 235.718Z" fill="#E8505B"/>
<path d="M82.904 250.756C82.3738 249.127 81.7183 247.517 81.1013 245.936C80.4843 244.355 79.877 242.87 79.1733 241.367C77.816 238.295 76.2938 235.299 74.6136 232.392C73.5339 230.541 72.3771 228.738 71.1914 226.964C71.1914 226.694 71.1143 226.425 71.0757 226.155C71.0082 225.682 70.9407 225.191 70.8636 224.738C70.7094 223.774 70.5455 222.81 70.3816 221.846C70.0346 219.734 69.6008 217.643 69.2634 215.541C69.2634 215.445 69.0899 215.445 69.1091 215.541C69.408 217.623 69.62 219.715 69.9093 221.797C70.0539 222.819 70.1888 223.841 70.3431 224.863L70.5166 225.971C68.192 222.569 65.6751 219.302 62.9781 216.187L61.9273 214.972C61.9273 214.857 61.8309 214.741 61.7827 214.625C61.667 214.336 61.561 214.047 61.455 213.748C61.2236 213.15 61.0115 212.543 60.7898 211.936C60.3657 210.74 59.9801 209.535 59.6523 208.311C59.6523 208.215 59.4788 208.263 59.5077 208.311C59.8162 209.564 60.1343 210.808 60.4717 212.042C60.6549 212.639 60.8477 213.227 61.0597 213.815C61.0597 213.912 61.1272 214.008 61.1658 214.105C59.2378 211.984 57.1844 209.94 55.1311 207.916C55.0636 207.848 54.9576 207.916 55.0251 208.031C58.9632 212.152 62.5731 216.574 65.8219 221.258C65.4522 221.141 65.0755 221.047 64.694 220.978C63.5179 220.747 62.3419 220.583 61.1561 220.428C58.669 220.11 56.1915 219.802 53.7237 219.407C53.6177 219.407 53.5791 219.542 53.7237 219.561C56.0855 220.024 58.4184 220.525 60.7705 221.103C61.8791 221.354 62.9877 221.566 64.0963 221.788C65.0056 221.981 65.901 222.236 66.7762 222.549C67.0172 222.906 67.2775 223.253 67.5185 223.61C68.6368 225.229 69.7068 226.897 70.7576 228.565L69.2055 228.266C68.0295 228.034 66.8437 227.822 65.6677 227.63C63.3444 227.244 61.0115 226.839 58.7172 226.319C58.6208 226.319 58.5823 226.453 58.7172 226.473C61.0501 227.022 63.3541 227.658 65.6677 228.275C66.7859 228.574 67.9138 228.844 69.0417 229.095L70.7287 229.461C70.956 229.521 71.1883 229.56 71.4227 229.577C73.6496 233.182 75.7318 236.884 77.6695 240.653C78.5178 242.311 79.3372 243.989 80.1277 245.666C80.9181 247.343 81.6411 249.165 82.3931 250.92C82.4991 251.286 83.0486 251.142 82.904 250.756Z" fill="#263238"/>
<path d="M67.3258 215.734C67.0366 214.278 66.7281 212.842 66.3618 211.376C66.3618 211.28 66.1883 211.328 66.2076 211.376C66.4967 212.803 66.7763 214.268 67.0366 215.666C67.2492 217.104 67.5356 218.529 67.8945 219.937C67.8036 218.524 67.6136 217.12 67.3258 215.734V215.734Z" fill="#263238"/>
<path d="M58.4375 215.309C57.7337 214.953 56.9818 214.673 56.2492 214.345L55.0924 213.892L54.5043 213.661C54.2791 213.588 54.0625 213.491 53.8585 213.372C53.7428 213.295 53.6753 213.487 53.791 213.507C54.0171 213.568 54.2342 213.659 54.4369 213.777L55.0153 214.037L56.1335 214.528C56.864 214.871 57.614 215.17 58.3796 215.425C58.4664 215.492 58.5242 215.348 58.4375 215.309Z" fill="#263238"/>
<path d="M91.3774 223.735C91.3774 223.735 100.603 206.508 114.629 203.838C128.655 201.168 137.254 215.608 137.254 215.608C137.254 215.608 127.017 228.68 114.118 230.965C101.22 233.25 91.3774 223.735 91.3774 223.735Z" fill="#E8505B"/>
<path d="M124.038 211.56C120.382 211.064 116.672 211.11 113.029 211.695L113.656 211.357L116.769 209.757C118.909 208.574 121.106 207.499 123.353 206.537C123.459 206.489 123.353 206.344 123.296 206.393C121.098 207.414 118.823 208.321 116.625 209.285C115.516 209.786 114.436 210.316 113.366 210.885C112.672 211.251 111.911 211.598 111.226 212.042C108.144 212.66 105.149 213.654 102.309 215.001L104.064 213.073C105.365 211.637 106.657 210.133 108.093 208.831C108.17 208.764 108.093 208.658 107.978 208.725C106.512 210.056 104.96 211.29 103.534 212.678C102.849 213.353 102.184 214.047 101.538 214.77C101.22 215.126 100.892 215.493 100.574 215.878C95.7552 218.458 91.5681 222.075 88.3144 226.467C85.0606 230.859 82.821 235.918 81.7568 241.28C81.7568 241.376 81.8822 241.424 81.9111 241.328C83.8873 234.76 87.4267 228.77 92.2259 223.87C97.398 218.618 103.904 214.876 111.043 213.044C115.278 211.965 119.658 211.568 124.019 211.868C124.06 211.871 124.1 211.857 124.13 211.83C124.161 211.803 124.18 211.764 124.182 211.723C124.185 211.683 124.171 211.642 124.144 211.612C124.117 211.581 124.079 211.562 124.038 211.56V211.56Z" fill="#263238"/>
<path opacity="0.1" d="M137.254 215.608C137.254 215.608 127.016 228.68 114.118 230.965C104.295 232.7 96.2167 227.581 92.9101 225.056L92.1968 223.889C92.1968 223.889 98.8387 218.298 111.409 215.069C123.98 211.839 137.254 215.608 137.254 215.608Z" fill="black"/>
<path d="M115.882 205.419C114.808 206.047 113.769 206.733 112.769 207.472C111.794 208.216 110.887 209.045 110.06 209.95C110.049 209.967 110.045 209.987 110.047 210.007C110.05 210.027 110.06 210.046 110.075 210.06C110.089 210.073 110.109 210.081 110.129 210.083C110.149 210.084 110.169 210.078 110.185 210.065C111.149 209.256 112.046 208.446 113.019 207.684C113.957 206.913 114.942 206.202 115.969 205.554C115.978 205.548 115.986 205.541 115.992 205.532C115.998 205.524 116.002 205.514 116.004 205.504C116.006 205.493 116.007 205.483 116.005 205.472C116.003 205.462 115.999 205.452 115.993 205.443C115.988 205.434 115.98 205.427 115.972 205.421C115.963 205.415 115.953 205.41 115.943 205.408C115.933 205.406 115.922 205.406 115.912 205.408C115.901 205.409 115.891 205.413 115.882 205.419V205.419Z" fill="#263238"/>
<path d="M123.585 208.33C123.064 208.552 122.534 208.735 122.013 208.957L120.452 209.603C120.346 209.603 120.394 209.834 120.51 209.786L122.071 209.15C122.601 208.938 123.112 208.697 123.633 208.485C123.729 208.446 123.681 208.292 123.585 208.33Z" fill="#263238"/>
<path d="M89.5364 245.415C89.5364 245.415 92.0042 262.507 104.854 268.484C117.704 274.461 133.369 268.484 133.369 268.484C133.369 268.484 127.248 231.514 89.5364 245.415Z" fill="#E8505B"/>
<path d="M124.51 257.388C123.334 257.253 122.148 257.051 120.982 256.839L119.247 256.511L118.35 256.328C118.003 256.01 117.666 255.682 117.309 255.364C114.868 253.226 112.235 251.319 109.443 249.667C107.924 248.767 106.353 247.959 104.738 247.247H104.979L109.211 247.43C112.026 247.565 114.851 247.623 117.666 247.806C117.772 247.806 117.762 247.661 117.666 247.652C114.832 247.459 112.017 247.151 109.192 246.91L105.085 246.543L102.965 246.36L102.425 246.302C101.692 246.023 100.96 245.762 100.208 245.531C96.705 244.329 92.9374 244.122 89.3241 244.933C86.0947 245.762 82.8653 247.883 82.0266 251.286C82.0266 251.402 82.1809 251.489 82.2291 251.373C83.4341 248.481 86.596 247.083 89.4494 246.495C91.3574 246.133 93.3125 246.094 95.2334 246.379C95.363 247.26 95.5794 248.125 95.8793 248.963C96.236 250.168 96.583 251.373 96.9493 252.568C97.682 254.969 98.4821 257.388 99.1955 259.75C99.1955 259.77 99.2036 259.79 99.218 259.805C99.2325 259.819 99.2521 259.827 99.2726 259.827C99.293 259.827 99.3126 259.819 99.3271 259.805C99.3416 259.79 99.3497 259.77 99.3497 259.75C98.752 257.35 98.2411 254.93 97.6627 252.52C97.3831 251.344 97.0843 250.168 96.7951 248.992C96.6271 248.17 96.4115 247.359 96.1492 246.562C97.275 246.759 98.3887 247.019 99.4847 247.343C101.456 247.933 103.388 248.648 105.269 249.483C105.452 250.698 105.731 251.903 106.011 253.108C106.358 254.612 106.753 256.106 107.226 257.581C107.231 257.596 107.241 257.609 107.254 257.618C107.267 257.626 107.282 257.631 107.298 257.631C107.314 257.631 107.329 257.626 107.342 257.618C107.355 257.609 107.365 257.596 107.37 257.581L107.312 257.301C107.023 255.904 106.715 254.506 106.416 253.108C106.184 251.98 105.963 250.852 105.722 249.734C107.322 250.445 108.886 251.237 110.407 252.105C110.407 252.453 110.522 252.809 110.571 253.127C110.667 253.706 110.773 254.294 110.879 254.882C111.12 256.193 111.38 257.514 111.699 258.815C112.28 261.336 113.017 263.818 113.906 266.247C113.895 266.261 113.889 266.278 113.889 266.296C113.889 266.313 113.895 266.33 113.906 266.344L113.983 266.431C114.041 266.498 114.128 266.431 114.109 266.353C113.52 263.818 112.836 261.302 112.277 258.767C112.007 257.494 111.727 256.222 111.467 254.911C111.342 254.274 111.226 253.638 111.101 252.983L111.014 252.414C112.745 253.428 114.415 254.542 116.017 255.749C118.791 257.827 121.358 260.167 123.681 262.738C123.768 262.844 123.951 262.738 123.864 262.584C122.91 261.289 121.89 260.044 120.808 258.853C120.162 258.159 119.488 257.485 118.803 256.829H119.015C119.623 256.935 120.22 257.022 120.828 257.099C122.013 257.263 123.209 257.379 124.404 257.514C124.578 257.533 124.616 257.388 124.51 257.388Z" fill="#263238"/>
<path d="M115.487 263.172C115.487 263.027 115.487 262.873 115.41 262.729C115.333 262.584 115.285 262.362 115.256 262.169C114.996 261.022 114.774 259.875 114.562 258.718C114.562 258.641 114.427 258.661 114.427 258.718C114.505 260.248 114.831 261.756 115.391 263.182C115.391 263.23 115.497 263.182 115.487 263.182V263.172Z" fill="#263238"/>
<path d="M104.729 262.892C104.729 262.892 104.729 262.815 104.652 262.815C104.286 261.302 103.938 259.788 103.63 258.265C103.466 257.465 103.302 256.665 103.148 255.865C103.061 255.431 102.984 254.997 102.907 254.563C102.873 254.181 102.779 253.807 102.627 253.455C102.622 253.44 102.612 253.427 102.599 253.418C102.586 253.409 102.571 253.405 102.555 253.405C102.539 253.405 102.524 253.409 102.511 253.418C102.498 253.427 102.488 253.44 102.483 253.455C102.473 254.232 102.583 255.006 102.811 255.749C102.965 256.578 103.129 257.417 103.312 258.246C103.688 259.933 104.102 261.61 104.584 263.268C104.59 263.285 104.601 263.3 104.616 263.311C104.631 263.321 104.648 263.327 104.666 263.327C104.684 263.327 104.702 263.321 104.717 263.311C104.731 263.3 104.742 263.285 104.748 263.268L104.729 262.892Z" fill="#263238"/>
<path d="M123.392 252.443C121.04 252.125 118.697 251.787 116.345 251.479C116.249 251.479 116.21 251.624 116.345 251.633C118.688 251.98 121.04 252.27 123.392 252.597C123.392 252.617 123.44 252.462 123.392 252.443Z" fill="#263238"/>
<path d="M82.9521 205.332C82.9521 205.332 75.0858 170.84 112.152 156.872C112.152 156.872 122.428 202.286 82.9521 205.332Z" fill="#E8505B"/>
<path d="M90.9534 185.772L91.3486 185.531L93.4501 184.355L97.7496 181.955C100.574 180.364 103.37 178.726 106.213 177.135C106.31 177.135 106.213 176.952 106.136 177C103.244 178.552 100.352 180.008 97.5086 181.521L93.2573 183.767L91.5221 184.731C92.756 182.389 94.0767 180.094 95.5324 177.877C97.4604 174.918 99.5908 172.093 101.798 169.355C101.821 169.331 101.834 169.299 101.833 169.265C101.832 169.232 101.818 169.2 101.794 169.177C101.769 169.154 101.737 169.142 101.703 169.143C101.67 169.144 101.638 169.158 101.615 169.182C98.3604 172.34 95.4843 175.866 93.0452 179.69C93.0452 179.564 93.0452 179.439 93.0452 179.323C93.0452 178.465 93.1127 177.607 93.1224 176.749C93.1224 175.062 93.0645 173.375 93.1224 171.698C93.1224 171.592 92.9681 171.602 92.9585 171.698C92.891 173.356 92.6886 175.014 92.5922 176.672C92.5922 177.492 92.515 178.321 92.4861 179.15C92.4861 179.593 92.4861 180.114 92.4861 180.596C91.7278 181.81 90.9983 183.041 90.2978 184.288C89.0556 186.537 87.9482 188.858 86.9817 191.238C86.9817 190.38 86.8949 189.522 86.8467 188.664C86.731 186.736 86.5093 184.895 86.4225 183.006C86.4225 182.985 86.4144 182.966 86.4 182.951C86.3855 182.937 86.3659 182.929 86.3454 182.929C86.325 182.929 86.3054 182.937 86.2909 182.951C86.2764 182.966 86.2683 182.985 86.2683 183.006C86.2683 184.934 86.2683 186.785 86.2683 188.674C86.2683 189.638 86.3261 190.602 86.384 191.508C86.384 191.855 86.384 192.212 86.4515 192.559C85.2729 195.643 84.3382 198.815 83.6559 202.045C83.0129 205.492 82.5528 208.97 82.2773 212.466C82.2773 212.466 82.2773 212.466 82.2773 212.466C82.651 209.321 83.296 206.215 84.2053 203.182C84.6584 201.553 85.1693 199.934 85.6706 198.362C87.213 197.639 88.688 196.733 90.1725 195.904L94.8286 193.359C97.9231 191.662 101.008 189.937 104.199 188.443C104.285 188.443 104.199 188.26 104.112 188.308C100.883 189.763 97.6242 191.2 94.472 192.752C92.891 193.552 91.339 194.4 89.7966 195.268C88.5144 195.991 87.1841 196.714 85.9405 197.552C86.2972 196.473 86.6732 195.403 87.0877 194.352C88.2252 191.426 89.5155 188.563 90.9534 185.772V185.772Z" fill="#263238"/>
<path d="M87.8301 177.878C87.8242 177.861 87.8131 177.846 87.7985 177.835C87.7838 177.825 87.7662 177.819 87.7482 177.819C87.7302 177.819 87.7126 177.825 87.6979 177.835C87.6832 177.846 87.6722 177.861 87.6663 177.878C87.8012 179.806 87.8687 181.811 88.0808 183.777C88.0808 183.8 88.0899 183.822 88.1062 183.839C88.1225 183.855 88.1445 183.864 88.1675 183.864C88.1905 183.864 88.2126 183.855 88.2289 183.839C88.2451 183.822 88.2543 183.8 88.2543 183.777C88.1868 181.811 87.9747 179.854 87.8301 177.878Z" fill="#263238"/>
<path d="M105.597 184.471C103.283 185.435 100.94 186.293 98.6268 187.257C98.5689 187.257 98.6268 187.392 98.6268 187.363C100.969 186.486 103.273 185.532 105.606 184.625C105.741 184.587 105.693 184.433 105.597 184.471Z" fill="#263238"/>
<path d="M109.125 168.556C106.856 169.597 104.653 170.778 102.531 172.094C102.516 172.111 102.506 172.132 102.504 172.155C102.502 172.178 102.507 172.2 102.519 172.22C102.531 172.239 102.549 172.255 102.57 172.263C102.592 172.272 102.615 172.273 102.637 172.267C104.787 171.004 106.975 169.799 109.202 168.691C109.298 168.7 109.212 168.517 109.125 168.556Z" fill="#263238"/>
<path d="M108.556 279.936H55.1023V336.282H108.556V279.936Z" fill="#455A64"/>
<path d="M54.1672 299.881H51.4294V396.397H54.1672V299.881Z" fill="#263238"/>
<path d="M111.959 299.881H109.221V396.397H111.959V299.881Z" fill="#263238"/>
<path d="M84.5139 299.881H81.7761V396.397H84.5139V299.881Z" fill="#263238"/>
<path d="M110.59 332.677H52.7983V340.475H110.59V332.677Z" fill="#263238"/>
<path d="M323.547 364.874C323.547 364.874 323.547 406.393 323.547 406.422C323.547 414.356 323.48 421.316 323.084 424.912C323.089 424.92 323.092 424.93 323.092 424.941C323.092 424.951 323.089 424.961 323.084 424.97C323.085 425.823 322.887 426.664 322.506 427.428L322.458 427.476C320.106 429.086 256.674 431.264 254.438 430.59C252.202 429.915 253.927 423.495 256.366 421.441C258.805 419.388 282.683 407.704 282.683 407.704L283.078 366.204L323.547 364.874Z" fill="#AD6359"/>
<path d="M323.538 397.891V406.422C323.538 414.356 323.47 421.316 323.075 424.912C323.08 424.921 323.083 424.931 323.083 424.941C323.083 424.951 323.08 424.961 323.075 424.97C322.975 425.808 322.781 426.633 322.497 427.428L322.448 427.476C320.096 429.086 256.665 431.265 254.428 430.59C252.192 429.915 253.918 423.495 256.356 421.441C258.795 419.388 282.674 407.704 282.674 407.704L282.558 399.028L323.538 397.891Z" fill="#C7C7C7"/>
<path d="M254.429 430.59C256.665 431.265 320.096 429.096 322.458 427.476C323.364 426.878 323.586 417.614 323.538 406.422V406.066L282.597 407.03L282.645 407.724C282.645 407.724 258.738 419.417 256.328 421.47C253.918 423.524 252.183 429.944 254.429 430.59Z" fill="#263238"/>
<path d="M255.055 428.112C265.746 427.476 308.895 425.953 319.499 426.184C319.585 426.184 319.585 426.242 319.499 426.252C308.895 427.1 265.765 428.286 255.065 428.324C254.843 428.286 254.833 428.122 255.055 428.112Z" fill="#455A64"/>
<path d="M279.194 407.945C283.378 406.981 288.545 407.483 291.861 410.375C291.996 410.49 291.861 410.664 291.697 410.625C287.63 409.467 283.452 408.746 279.232 408.475C279.169 408.469 279.11 408.44 279.066 408.395C279.022 408.349 278.995 408.29 278.991 408.227C278.986 408.163 279.004 408.1 279.041 408.049C279.078 407.998 279.132 407.961 279.194 407.945V407.945Z" fill="#455A64"/>
<path d="M276.224 409.883C280.399 408.919 285.575 409.42 288.891 412.312C289.017 412.418 288.891 412.602 288.718 412.563C284.652 411.403 280.473 410.683 276.253 410.413C276.191 410.405 276.133 410.376 276.09 410.329C276.047 410.283 276.021 410.223 276.018 410.16C276.015 410.097 276.033 410.035 276.071 409.984C276.109 409.934 276.163 409.898 276.224 409.883Z" fill="#455A64"/>
<path d="M273.246 411.811C277.43 410.847 282.597 411.358 285.913 414.24C286.048 414.356 285.913 414.539 285.749 414.5C281.683 413.339 277.504 412.615 273.284 412.341C273.221 412.335 273.162 412.306 273.118 412.261C273.074 412.215 273.047 412.155 273.043 412.092C273.038 412.029 273.056 411.966 273.093 411.915C273.13 411.863 273.184 411.826 273.246 411.811V411.811Z" fill="#455A64"/>
<path d="M327.182 210.952L327.143 213.699L325.591 335.028L325.581 335.491L324.665 408.167L280.264 407.28L288.834 211.096L288.949 208.474L289.383 185.714H326.883L327.182 210.952Z" fill="#455A64"/>
<path d="M282.124 399.877C289.055 399.809 287.06 399.732 293.991 399.751C297.384 399.751 319.682 399.838 322.843 400.397C322.911 400.397 322.911 400.532 322.843 400.542C319.662 401.024 297.375 400.542 293.981 400.484C287.05 400.339 289.046 400.301 282.114 400.079C282.093 400.071 282.075 400.057 282.062 400.038C282.05 400.019 282.043 399.997 282.045 399.974C282.046 399.952 282.054 399.93 282.068 399.912C282.083 399.895 282.102 399.882 282.124 399.877V399.877Z" fill="#263238"/>
<path d="M302.011 223.715C302.011 223.695 302.003 223.675 301.989 223.661C301.974 223.646 301.955 223.638 301.934 223.638C301.914 223.638 301.894 223.646 301.88 223.661C301.865 223.675 301.857 223.695 301.857 223.715C301.857 235.332 301.385 241.839 301.105 253.445C300.826 265.052 300.488 276.658 300.141 288.255C299.515 311.459 298.58 334.643 297.722 357.837C297.24 370.844 296.639 383.845 295.919 396.84C295.919 396.858 295.926 396.875 295.939 396.888C295.951 396.9 295.969 396.908 295.986 396.908C296.004 396.908 296.021 396.9 296.034 396.888C296.047 396.875 296.054 396.858 296.054 396.84C297.741 373.704 299.351 350.491 300.276 327.288C301.202 304.084 301.857 280.89 301.963 257.687C302.06 244.663 301.982 236.739 302.011 223.715Z" fill="#263238"/>
<path d="M327.172 210.952L325.591 335.028L295.833 185.714H326.873L327.172 210.952Z" fill="#263238"/>
<path d="M373.348 362.628C373.348 362.628 378.939 403.762 378.939 403.79C380.057 411.657 380.867 418.569 380.982 422.184C380.982 422.184 380.982 422.184 380.982 422.241C381.095 423.084 381.016 423.94 380.751 424.748C380.75 424.767 380.75 424.786 380.751 424.806C378.63 426.734 316.067 437.434 313.763 437.068C311.459 436.701 312.307 430.108 314.399 427.746C316.491 425.384 338.624 410.587 338.624 410.587L333.419 369.414L373.348 362.628Z" fill="#AD6359"/>
<path d="M377.792 395.346C377.792 395.346 378.939 403.762 378.939 403.791C380.057 411.657 380.867 418.569 380.982 422.184C380.982 422.184 380.982 422.184 380.982 422.242C381 423.083 380.923 423.924 380.751 424.748C380.75 424.767 380.75 424.787 380.751 424.806C378.63 426.734 316.067 437.434 313.763 437.068C311.459 436.702 312.307 430.108 314.399 427.746C316.491 425.384 338.624 410.587 338.624 410.587L337.304 401.988L377.792 395.346Z" fill="#C7C7C7"/>
<path d="M313.724 437.068C316.038 437.434 378.592 426.724 380.712 424.806C381.532 424.083 380.5 414.886 378.939 403.791L378.881 403.444L338.451 409.902L338.586 410.587C338.586 410.587 316.472 425.394 314.36 427.756C312.249 430.117 311.372 436.692 313.724 437.068Z" fill="#263238"/>
<path d="M314.013 434.523C324.521 432.46 367.034 425.124 377.638 423.919C377.724 423.919 377.734 423.967 377.638 423.986C367.275 426.261 324.675 433.25 314.071 434.735C313.821 434.764 313.792 434.571 314.013 434.523Z" fill="#455A64"/>
<path d="M335.212 411.29C339.232 409.806 344.418 409.575 348.091 411.985C348.236 412.081 348.091 412.283 347.956 412.264C343.772 411.66 339.535 411.508 335.318 411.811C335.255 411.812 335.193 411.792 335.144 411.752C335.094 411.713 335.06 411.657 335.047 411.595C335.035 411.533 335.044 411.469 335.074 411.413C335.104 411.357 335.153 411.314 335.212 411.29Z" fill="#455A64"/>
<path d="M332.522 413.604C336.542 412.119 341.728 411.888 345.401 414.308C345.546 414.394 345.401 414.597 345.266 414.578C341.081 413.978 336.845 413.826 332.628 414.124C332.565 414.126 332.503 414.105 332.454 414.066C332.404 414.026 332.37 413.971 332.357 413.909C332.345 413.847 332.354 413.782 332.384 413.726C332.415 413.671 332.463 413.627 332.522 413.604V413.604Z" fill="#455A64"/>
<path d="M329.842 415.927C333.862 414.443 339.039 414.211 342.721 416.621C342.866 416.718 342.721 416.92 342.586 416.901C338.403 416.292 334.165 416.14 329.948 416.448C329.885 416.449 329.823 416.428 329.774 416.389C329.724 416.349 329.69 416.294 329.678 416.232C329.665 416.17 329.675 416.105 329.705 416.05C329.735 415.994 329.784 415.951 329.842 415.927Z" fill="#455A64"/>
<path d="M293.201 185.676C293.365 186.447 295.987 198.613 298.705 209.062C300.681 216.697 302.715 223.407 303.882 224.101C305.203 224.882 311.642 227.735 313.801 228.632L323.663 322.94L336.995 410.259L380.587 403.511L349.566 212.407L344.514 185.676H293.201Z" fill="#455A64"/>
<path d="M337.255 401.496C344.1 400.397 342.075 400.609 348.978 399.568C352.332 399.067 374.389 395.799 377.599 395.886C377.666 395.886 377.685 396.001 377.599 396.021C374.533 396.985 352.419 399.877 349.055 400.301C342.181 401.188 344.148 400.86 337.265 401.679C337.248 401.671 337.234 401.658 337.224 401.643C337.214 401.627 337.208 401.609 337.207 401.591C337.206 401.572 337.21 401.553 337.219 401.537C337.227 401.52 337.24 401.506 337.255 401.496V401.496Z" fill="#263238"/>
<path d="M362.464 375.42C361.375 369.366 360.295 363.312 359.177 357.258C356.947 345.15 354.697 333.046 352.429 320.944C347.879 296.722 343.38 272.481 338.933 248.22C336.446 234.531 336.503 235.813 334.334 222.057C334.334 221.97 334.161 221.98 334.18 222.057C336.262 234.281 335.279 231.601 337.246 243.844C339.212 256.086 341.275 268.069 343.444 280.148C347.801 304.431 352.371 328.676 356.988 352.91C358.274 359.71 359.588 366.5 360.931 373.28C362.281 380.201 363.823 387.084 365.25 393.987C365.25 394.141 365.529 394.131 365.501 393.987C364.498 387.807 363.592 381.599 362.464 375.42Z" fill="#263238"/>
<path d="M350.482 222.964C349.325 222.665 348.081 222.568 346.905 222.385C345.941 222.231 344.977 222.057 344.013 221.855C342.199 221.53 340.48 220.806 338.981 219.734C337.342 218.462 336.503 216.524 335.713 214.663C335.237 213.565 334.755 212.466 334.267 211.367L333.544 209.776C333.207 209.152 332.908 208.508 332.647 207.848C332.647 207.752 332.464 207.848 332.503 207.848C332.667 208.298 332.802 208.759 332.908 209.227C333.072 209.757 333.216 210.287 333.38 210.817C333.679 211.781 333.968 212.745 334.277 213.709C334.746 215.448 335.422 217.125 336.291 218.703C338.046 221.479 341.169 222.607 344.293 223.002C345.189 223.108 346.095 223.176 347.001 223.224C348.137 223.325 349.279 223.325 350.414 223.224C350.44 223.217 350.465 223.203 350.484 223.183C350.503 223.164 350.517 223.14 350.524 223.113C350.531 223.087 350.53 223.059 350.523 223.033C350.516 223.006 350.501 222.982 350.482 222.964V222.964Z" fill="#263238"/>
<path d="M300.46 222.433C305.057 224.103 309.499 226.174 313.734 228.622C313.77 228.639 313.797 228.669 313.811 228.706C313.824 228.743 313.823 228.784 313.806 228.82C313.789 228.856 313.759 228.883 313.722 228.897C313.685 228.91 313.644 228.909 313.608 228.892C309.136 226.964 304.576 225.133 300.219 222.973C300.158 222.935 300.114 222.876 300.093 222.807C300.072 222.739 300.077 222.665 300.106 222.599C300.135 222.534 300.187 222.481 300.252 222.451C300.317 222.42 300.391 222.414 300.46 222.433V222.433Z" fill="#263238"/>
<path d="M299.11 191.836C299.11 191.682 299.399 191.643 299.399 191.836C299.396 196.826 299.647 201.813 300.151 206.778C300.354 209.082 302.204 221.807 306.205 220.881C306.87 220.727 307.169 220.062 307.314 219.059C307.299 217.741 307.121 216.429 306.783 215.155C306.34 212.485 305.983 209.814 305.762 207.125C305.291 202.114 305.346 197.067 305.925 192.067C305.925 192.034 305.939 192.002 305.962 191.979C305.986 191.955 306.018 191.942 306.051 191.942C306.084 191.942 306.116 191.955 306.139 191.979C306.163 192.002 306.176 192.034 306.176 192.067C306.064 199.019 306.47 205.969 307.391 212.861C307.892 216.167 309.56 221.151 306.099 221.662C302.638 222.173 300.315 213.834 299.862 211.55C298.758 205.039 298.505 198.412 299.11 191.836V191.836Z" fill="#263238"/>
<path d="M306.099 221.17C306.451 222.032 306.75 222.914 306.995 223.812C307.253 224.505 307.38 225.241 307.371 225.981C307.366 226.011 307.351 226.039 307.33 226.06C307.308 226.082 307.281 226.097 307.251 226.103C307.221 226.11 307.19 226.107 307.161 226.095C307.133 226.084 307.109 226.064 307.092 226.039C306.661 225.39 306.336 224.677 306.128 223.927C305.819 223.118 305.501 222.298 305.222 221.479C305.181 221.362 305.188 221.235 305.241 221.123C305.294 221.012 305.39 220.927 305.506 220.886C305.622 220.845 305.75 220.852 305.861 220.905C305.973 220.959 306.058 221.054 306.099 221.17V221.17Z" fill="#263238"/>
<path d="M350.019 215.213C344.736 214.866 288.949 208.465 288.949 208.465L289.383 185.705H293.239H344.553L349.604 212.437L350.019 215.213Z" fill="#263238"/>
<path d="M310.948 133.437C304.566 153.411 293.76 174.031 290.636 178.089C282.259 189.001 257.089 199.75 249.406 201.138C246.08 201.736 238.108 180.287 240.171 177.337C242.234 174.387 273.516 162.434 275.048 160.843C276.109 159.734 289.306 142.729 298.184 132.473C309.28 119.719 312.625 128.212 310.948 133.437Z" fill="#AD6359"/>
<path d="M246.852 173.173L259.21 198.237C259.21 198.237 285.479 186.852 291.735 178.725C297.992 170.599 309.328 143.057 311.015 134.285C312.702 125.512 309.791 119.246 298.04 132.068C286.289 144.889 276.552 157.662 274.451 159.802C272.349 161.942 246.852 173.173 246.852 173.173Z" fill="#EBEBEB"/>
<path d="M247.893 171.9L262.7 197.87C262.7 197.87 285.836 186.813 291.736 179.554C297.635 172.296 307.362 150.008 310.408 137.977C313.454 125.946 311.671 117.415 298.05 132.135C284.428 146.856 276.726 157.546 273.95 159.947C272.629 160.988 247.893 171.9 247.893 171.9Z" fill="#37474F"/>
<path d="M254.13 174.301C254.88 174.301 255.489 173.692 255.489 172.942C255.489 172.191 254.88 171.582 254.13 171.582C253.379 171.582 252.771 172.191 252.771 172.942C252.771 173.692 253.379 174.301 254.13 174.301Z" fill="#263238"/>
<path d="M260.54 171.351C261.291 171.351 261.9 170.742 261.9 169.992C261.9 169.241 261.291 168.632 260.54 168.632C259.79 168.632 259.181 169.241 259.181 169.992C259.181 170.742 259.79 171.351 260.54 171.351Z" fill="#263238"/>
<path d="M310.408 137.939C307.362 149.969 297.645 172.218 291.735 179.516C289.21 182.63 283.561 186.428 277.902 189.763L307.719 124.462C312.336 123.209 312.481 129.764 310.408 137.939Z" fill="#263238"/>
<path d="M352.93 205.659C352.776 205.833 286.086 206.035 285.45 205.351C284.592 204.387 299.66 132.087 306.504 123.209C307.96 121.281 312.789 120.77 316.896 121.281C317.967 121.401 319.025 121.618 320.058 121.926H320.173C321.006 122.172 321.792 122.557 322.497 123.064C333.91 132.183 343.531 164.063 345.777 173.635C349.537 189.435 353.48 205.033 352.93 205.659Z" fill="#EBEBEB"/>
<path d="M322.304 122.216C322.304 122.216 316.876 151.811 315.932 159.503C314.987 167.196 316.375 207.829 316.375 207.829L358.251 210.923C358.251 210.923 349.199 184.028 349.093 182.321C349.093 182.321 341.574 150.104 334.527 136.647C331.449 131.074 327.294 126.169 322.304 122.216V122.216Z" fill="#37474F"/>
<path d="M358.251 210.923L339.26 209.516L325.707 125.195V125.252L334.209 136.146C334.305 136.319 334.402 136.493 334.489 136.666C341.535 150.162 349.055 182.341 349.055 182.341C349.199 184.028 358.251 210.923 358.251 210.923Z" fill="#263238"/>
<path d="M306.099 122.862C306.099 122.862 301.655 152.832 301.173 155.31C300.691 157.787 293.962 206.662 293.962 206.662L283.483 206.99L288.949 184.644C288.949 184.644 301.105 129.243 306.099 122.862Z" fill="#37474F"/>
<path d="M312.22 139.307L309.251 133.523L305.414 137.707L306.359 141.872L310.138 142.363L312.22 139.307Z" fill="#263238"/>
<path d="M310.138 142.363L311.95 184.914L303.978 198.989L299.833 183.15L306.359 141.872L310.138 142.363Z" fill="#263238"/>
<path d="M308.467 259.967L308.415 309.94L390.895 310.027L390.947 260.053L308.467 259.967Z" fill="#E8505B"/>
<path opacity="0.1" d="M308.463 259.972L308.438 283.503L390.918 283.59L390.943 260.058L308.463 259.972Z" fill="black"/>
<path d="M306.499 275.929L392.883 276.019L392.907 252.7L306.523 252.61L306.499 275.929Z" fill="#E8505B"/>
<path d="M331.539 239.342L331.52 252.635L337.776 252.645L337.786 245.078L361.645 245.106L361.635 252.674H367.891L367.901 239.371L331.539 239.342Z" fill="#263238"/>
<path d="M375.385 281.561L381.015 281.567L381.027 270.423L375.397 270.418L375.385 281.561Z" fill="#263238"/>
<path d="M318.345 281.515L323.975 281.521L323.987 270.377L318.357 270.371L318.345 281.515Z" fill="#263238"/>
<path d="M331.52 131.104C350.125 147.983 361.934 172.093 362.734 176.961C364.662 188.732 367.101 209.361 366.686 218.413C366.532 221.768 341.112 217.7 341.16 214.114C341.324 202.893 339.829 178.214 339.762 177.781C339.309 174.763 333.775 161.2 328.194 146.489C322.612 131.779 323.692 124.018 331.52 131.104Z" fill="#AD6359"/>
<path d="M338.48 249.28C339.221 249.618 340.048 249.72 340.849 249.573C341.651 249.427 342.388 249.039 342.962 248.461C343.688 249.639 344.803 250.526 346.115 250.967C348.457 251.642 350.539 248.259 350.539 248.259C351.549 249.324 352.855 250.063 354.289 250.379C356.593 250.794 359.186 247.68 359.186 247.68C360.652 248.142 362.234 248.067 363.65 247.468C366.05 246.34 368.084 239.457 368.585 235.495C369.087 231.533 366.783 219.821 366.571 217.546L341.16 214.133C341.16 214.133 333.872 231.273 333.949 236.016C334.016 240.036 335.684 247.892 338.48 249.28Z" fill="#AD6359"/>
<path d="M342.577 248.23C341.487 243.998 341.709 239.67 341.69 235.351C341.69 235.33 341.698 235.311 341.712 235.296C341.727 235.282 341.747 235.274 341.767 235.274C341.787 235.274 341.807 235.282 341.822 235.296C341.836 235.311 341.844 235.33 341.844 235.351C341.844 239.65 342.635 243.902 342.808 248.201C342.812 248.232 342.803 248.263 342.784 248.287C342.765 248.311 342.738 248.327 342.707 248.331C342.676 248.335 342.645 248.326 342.621 248.307C342.596 248.288 342.581 248.261 342.577 248.23Z" fill="#263238"/>
<path d="M350.221 248.133C350.065 247.148 350.039 246.147 350.144 245.155C350.144 244.104 350.26 243.043 350.346 241.993C350.514 239.885 350.729 237.783 350.992 235.688C350.992 235.592 351.147 235.592 351.137 235.688C350.983 237.79 350.857 239.891 350.78 241.993C350.78 243.053 350.722 244.104 350.703 245.155C350.745 246.151 350.681 247.15 350.51 248.133C350.499 248.163 350.48 248.188 350.454 248.206C350.428 248.224 350.397 248.234 350.366 248.234C350.334 248.234 350.304 248.224 350.278 248.206C350.252 248.188 350.232 248.163 350.221 248.133V248.133Z" fill="#263238"/>
<path d="M359.186 247.593C359.063 246.699 359.089 245.79 359.264 244.904C359.36 243.94 359.447 242.976 359.533 242.012C359.707 240.084 359.871 238.156 359.967 236.228C359.967 236.131 360.122 236.131 360.122 236.228C360.025 238.156 359.958 240.142 359.852 242.099L359.678 244.991C359.698 245.871 359.565 246.749 359.283 247.584C359.278 247.592 359.272 247.6 359.264 247.605C359.256 247.61 359.247 247.614 359.237 247.615C359.228 247.616 359.218 247.614 359.209 247.61C359.2 247.607 359.193 247.601 359.186 247.593Z" fill="#263238"/>
<path d="M339.916 214.249L368.094 215.772C368.094 215.772 366.012 184.924 363.775 176.354C361.539 167.784 342.451 139.221 331.182 128.867C320.578 119.121 320.578 127.229 324.598 138.652C328.618 150.075 338.567 177.684 338.904 179.699C339.241 181.714 339.916 214.249 339.916 214.249Z" fill="#37474F"/>
<path d="M341.179 208.561C342.259 208.465 343.348 208.561 344.428 208.561C345.507 208.561 346.587 208.609 347.667 208.658C349.749 208.744 351.831 208.87 353.914 209.005L360.151 209.419C362.3 209.564 364.498 209.602 366.629 209.92C366.643 209.926 366.656 209.936 366.665 209.949C366.674 209.962 366.679 209.977 366.679 209.993C366.679 210.008 366.674 210.024 366.665 210.037C366.656 210.05 366.643 210.06 366.629 210.065C364.479 210.152 362.291 209.959 360.141 209.882L353.779 209.622C351.658 209.525 349.537 209.419 347.416 209.284C346.375 209.226 345.334 209.149 344.302 209.034C343.271 208.918 342.191 208.908 341.169 208.706C341.073 208.686 341.102 208.571 341.179 208.561Z" fill="#263238"/>
<path d="M310.254 132.752C311.353 132.704 318.65 126.968 320.858 122.553C321.012 122.245 320.443 119.102 319.942 115.256C319.643 112.923 319.364 110.31 319.286 107.91C319.286 107.418 317.628 108.382 317.628 108.382L314.544 109.231L304.364 112.065C305.323 115.037 305.912 118.116 306.118 121.232C306.129 121.555 306.107 121.878 306.051 122.196C306.055 122.251 306.055 122.306 306.051 122.36C305.829 124.259 308.48 132.82 310.254 132.752Z" fill="#AD6359"/>
<path d="M306.089 122.216C306.094 122.27 306.094 122.325 306.089 122.38C306.606 122.429 307.125 122.429 307.641 122.38C317.763 121.82 318.602 108.884 318.602 108.884L314.601 109.192L304.422 112.026C305.381 114.998 305.97 118.078 306.176 121.194C306.185 121.537 306.156 121.879 306.089 122.216Z" fill="#263238"/>
<path d="M318.91 87.5697C321.34 92.5921 320.935 108.267 317.705 112.248C313.04 118.032 304.209 119.873 299.004 113.983C293.962 108.286 294.859 87.8685 298.57 84.0993C304.036 78.6238 315.324 80.1469 318.91 87.5697Z" fill="#AD6359"/>
<path d="M305.472 99.0024C305.472 99.0024 305.549 99.0024 305.549 99.0988C305.492 100.15 305.607 101.374 306.513 101.74C306.513 101.74 306.513 101.808 306.513 101.798C305.386 101.615 305.251 99.9954 305.472 99.0024Z" fill="#263238"/>
<path d="M306.436 97.9229C308.133 97.8265 308.201 101.239 306.62 101.326C305.039 101.413 305.01 98 306.436 97.9229Z" fill="#263238"/>
<path d="M299.361 99.2917C299.361 99.2917 299.284 99.3399 299.284 99.3881C299.332 100.439 299.216 101.663 298.262 102.03V102.087C299.438 101.895 299.582 100.256 299.361 99.2917Z" fill="#263238"/>
<path d="M298.397 98.1929C296.7 98.0965 296.623 101.509 298.204 101.596C299.785 101.683 299.804 98.3279 298.397 98.1929Z" fill="#263238"/>
<path d="M307.757 96.3421C307.285 96.2264 306.87 96.0529 306.427 95.8986C305.934 95.8112 305.486 95.5598 305.154 95.1853C305.072 95.0499 305.037 94.8905 305.056 94.733C305.075 94.5755 305.147 94.4291 305.26 94.3177C305.512 94.1244 305.811 94.0019 306.127 93.9629C306.442 93.924 306.762 93.9699 307.053 94.0959C307.684 94.2627 308.23 94.6578 308.586 95.2045C308.66 95.3337 308.695 95.4814 308.687 95.63C308.679 95.7785 308.628 95.9216 308.54 96.0418C308.452 96.162 308.332 96.2544 308.193 96.3076C308.054 96.3609 307.903 96.3729 307.757 96.3421V96.3421Z" fill="#263238"/>
<path d="M297.047 96.5057C297.503 96.4054 297.954 96.2799 298.397 96.1298C298.889 96.0611 299.346 95.8345 299.698 95.4839C299.788 95.3522 299.831 95.1943 299.82 95.0353C299.81 94.8763 299.746 94.7254 299.64 94.6067C299.398 94.3999 299.105 94.2621 298.791 94.2078C298.477 94.1536 298.154 94.1848 297.857 94.2982C297.22 94.4329 296.656 94.8008 296.276 95.3297C296.196 95.4549 296.154 95.6006 296.155 95.7491C296.156 95.8976 296.2 96.0427 296.281 96.1669C296.363 96.2912 296.478 96.3892 296.614 96.4493C296.75 96.5094 296.9 96.529 297.047 96.5057Z" fill="#263238"/>
<path d="M302.262 106.946C302.715 107.52 303.31 107.965 303.988 108.238C304.361 108.377 304.769 108.397 305.154 108.296C306.003 108.055 306.003 107.332 305.839 106.618C305.744 106.283 305.611 105.96 305.443 105.654C304.547 106.412 303.433 106.864 302.262 106.946Z" fill="#263238"/>
<path d="M303.988 108.238C304.361 108.377 304.769 108.397 305.154 108.296C306.003 108.055 306.003 107.332 305.839 106.618C305.394 106.644 304.971 106.818 304.636 107.111C304.301 107.404 304.073 107.801 303.988 108.238V108.238Z" fill="#FF9ABB"/>
<path d="M296.411 89.3434C296.96 87.9938 297.606 86.6345 298.406 86.3453C299.206 86.0561 299.775 88.0227 301.616 88.1094C304.094 88.2348 305.251 85.9404 308.711 85.632C313.676 85.1885 315.941 89.3048 316.202 96.3613C316.423 102.656 320.251 103.177 320.251 103.177C320.251 103.177 322.294 89.2373 318.323 84.7065C314.351 80.1757 305.289 78.3152 299.332 82.7785C297.124 84.4655 296.411 89.3434 296.411 89.3434Z" fill="#263238"/>
<path d="M317.021 100.757C317.021 100.757 319.807 95.3491 322.217 96.2745C324.627 97.1999 322.998 104.719 320.492 106.059C320.182 106.252 319.837 106.38 319.477 106.436C319.117 106.492 318.749 106.474 318.396 106.384C318.043 106.294 317.712 106.133 317.423 105.912C317.133 105.69 316.892 105.412 316.713 105.095L317.021 100.757Z" fill="#AD6359"/>
<path d="M321.696 98.4241C321.696 98.4241 321.754 98.4723 321.696 98.4916C319.952 99.4555 319.209 101.326 318.804 103.196C318.886 102.995 319.01 102.815 319.168 102.667C319.326 102.52 319.515 102.409 319.72 102.342C319.926 102.275 320.144 102.253 320.359 102.279C320.573 102.305 320.78 102.378 320.964 102.492C321.012 102.492 320.964 102.598 320.964 102.598C320.625 102.538 320.276 102.585 319.966 102.731C319.655 102.878 319.397 103.118 319.229 103.418C318.947 103.918 318.72 104.449 318.554 104.999C318.496 105.182 318.178 105.133 318.216 104.931C317.811 102.54 319.2 99.0025 321.696 98.4241Z" fill="#263238"/>
<path d="M306.041 122.582L309.675 131.509L320.704 120.23L323.846 123.835C323.846 123.835 313.069 141.708 313.001 140.927L309.319 133.273L304.046 138.613L304.441 125.224L306.041 122.582Z" fill="#EBEBEB"/>
<path d="M303.862 131.991C304.007 129.783 304.084 127.547 304.325 125.349C304.325 125.272 304.46 125.243 304.479 125.349C304.923 127.479 304.344 135.953 304.354 137.948C304.576 137.717 309.242 133.254 309.29 133.321C310.09 134.536 312.789 140.069 312.972 140.619C314.679 137.775 321.205 127.441 323.229 124.751C323.242 124.74 323.257 124.734 323.273 124.732C323.29 124.731 323.306 124.735 323.32 124.744C323.334 124.752 323.345 124.765 323.351 124.78C323.357 124.795 323.359 124.812 323.355 124.828C321.88 127.778 313.242 141.708 313.107 141.708C311.685 139.076 310.398 136.373 309.251 133.61C308.461 134.574 303.747 139.635 303.728 139.307C303.645 136.868 303.69 134.426 303.862 131.991V131.991Z" fill="#263238"/>
<path d="M181.521 131.778C193.648 155.715 205.968 213.294 207.115 220.997C207.896 226.231 180.374 230.964 180.374 227.34C180.374 222.693 174.821 168.343 175.351 146.865C175.641 135.018 179.015 126.833 181.521 131.778Z" fill="#EB9481"/>
<path d="M180.268 225.046C179.825 228.198 180.875 239.12 182.938 247.218C183.902 251.17 188.028 262.208 191.123 261.678C194.217 261.147 193.301 257.822 193.301 257.822C193.301 257.822 195.731 262.218 198.787 261.398C201.842 260.579 200.271 255.431 200.271 255.431C200.271 255.431 203.086 259.779 206.055 258.737C209.024 257.696 206.585 252.79 206.585 252.79C206.585 252.79 208.986 256.887 211.087 254.988C213.622 252.703 208.359 245.666 207.472 241.241C207.27 240.277 204.812 220.592 204.812 220.592L180.268 225.046Z" fill="#EB9481"/>
<path d="M206.624 252.722C202.768 247.536 201.977 244.595 201.495 238.262C201.488 238.24 201.475 238.221 201.457 238.208C201.438 238.195 201.416 238.188 201.394 238.188C201.371 238.188 201.349 238.195 201.331 238.208C201.313 238.221 201.299 238.24 201.293 238.262C201.206 244.518 201.669 248.345 206.383 252.944C206.614 253.146 206.807 252.963 206.624 252.722Z" fill="#263238"/>
<path d="M200.348 255.71C196.81 249.975 195.923 246.793 194.921 240.19C194.921 240.094 194.747 240.103 194.757 240.19C195.191 246.755 195.721 250.563 200.03 255.836C200.223 256.086 200.512 255.971 200.348 255.71Z" fill="#263238"/>
<path d="M193.022 257.388C190.004 251.604 188.886 248.143 188.742 241.607C188.734 241.581 188.718 241.558 188.697 241.542C188.675 241.525 188.648 241.516 188.621 241.516C188.594 241.516 188.567 241.525 188.546 241.542C188.524 241.558 188.508 241.581 188.501 241.607C187.999 248.288 189.368 252.597 192.839 257.475C193.08 257.754 193.215 257.716 193.022 257.388Z" fill="#263238"/>
<path d="M206.942 219.628C206.942 219.628 211.376 226.376 212.668 229.817C213.96 233.259 214.104 247.69 210.981 247.902C206.951 248.172 205.197 239.833 204.908 235.64C204.908 235.64 195.576 236.267 193.051 230.55C190.525 224.834 206.942 219.628 206.942 219.628Z" fill="#EB9481"/>
<path d="M209.853 247.603C205.997 245.203 205.939 239.669 205.332 235.621C205.326 235.56 205.305 235.502 205.272 235.452C205.238 235.401 205.193 235.36 205.14 235.33C205.087 235.301 205.028 235.285 204.967 235.283C204.907 235.282 204.847 235.295 204.792 235.322C200.869 235.322 195.326 234.184 192.954 230.791C192.949 230.778 192.941 230.766 192.931 230.756C192.921 230.747 192.909 230.739 192.896 230.734C192.883 230.73 192.869 230.728 192.855 230.729C192.841 230.731 192.827 230.735 192.815 230.742C192.803 230.749 192.793 230.759 192.785 230.771C192.777 230.782 192.772 230.795 192.769 230.809C192.767 230.823 192.768 230.837 192.771 230.851C192.775 230.864 192.781 230.877 192.79 230.887C194.834 234.878 200.194 236.44 204.493 236.16C205.052 240.315 205.351 245.868 209.824 247.642C209.853 247.651 209.872 247.622 209.853 247.603Z" fill="#263238"/>
<path d="M209.757 218.008L178.494 222.828C178.494 222.828 173.51 164.786 173.327 145.303C173.144 125.821 180.143 121.049 187.652 140.975C195.162 160.901 209.757 218.008 209.757 218.008Z" fill="#E8505B"/>
<path d="M178.34 217.941C191.132 215.049 205.004 213.979 207.414 213.622C207.53 213.622 207.54 213.786 207.414 213.796C205.043 214.027 189.31 216.986 178.34 218.134C178.253 218.143 178.244 217.96 178.34 217.941Z" fill="#263238"/>
<path d="M247.632 430.542C245.463 431.245 181.888 430.291 179.555 428.758C179.275 428.585 179.237 422.839 179.314 414.963L176.219 368.18L216.447 368.296L219.628 408.784C219.628 408.784 228.651 412.949 236.093 416.592C239.35 418.072 242.514 419.746 245.569 421.605C247.97 423.61 249.801 429.847 247.632 430.542Z" fill="#EB9481"/>
<path d="M247.632 430.541C245.463 431.245 181.888 430.291 179.555 428.758C179.275 428.584 179.237 422.839 179.314 414.963C195.017 418.462 236.893 424.131 238.118 420.844C238.609 419.523 237.607 418.029 236.113 416.65C239.369 418.13 242.533 419.804 245.589 421.663C247.97 423.61 249.801 429.847 247.632 430.541Z" fill="#263238"/>
<path d="M159.234 197.909C159.234 197.909 170.628 318.814 170.879 320.279C170.879 320.472 171.004 322.708 171.11 326.343C171.746 346.288 173.308 408.485 173.308 408.485H221.103C221.103 408.485 217.989 334.816 216.196 317.638C213.912 295.707 199.866 197.909 199.866 197.909H159.234Z" fill="#37474F"/>
<path d="M176.576 324.367C175.104 299.264 172.89 274.2 169.934 249.175C168.257 235.1 166.232 221.074 164.227 207.038C164.227 206.913 164.015 206.922 164.034 207.038C167.736 232.015 170.348 257.166 172.604 282.336C174.86 307.506 176.46 332.618 177.424 357.817C178.012 372.085 178.456 386.371 178.909 400.648C178.921 400.71 178.953 400.765 179.002 400.805C179.05 400.845 179.111 400.867 179.174 400.867C179.237 400.867 179.297 400.845 179.346 400.805C179.394 400.765 179.427 400.71 179.439 400.648C178.803 375.237 178.07 349.787 176.576 324.367Z" fill="#263238"/>
<path d="M218.086 400.783C216.833 400.619 215.473 400.667 214.23 400.629C212.803 400.629 211.338 400.561 209.93 400.513C207.164 400.407 204.387 400.33 201.621 400.291C196.039 400.195 190.448 400.233 184.876 400.407L180.268 400.571C178.629 400.629 176.99 400.783 175.352 400.773C175.236 400.773 175.236 400.918 175.352 400.918C178.157 400.918 181.001 401.159 183.816 401.265C186.63 401.371 189.349 401.409 192.116 401.448C197.697 401.525 203.298 401.448 208.87 401.274C210.403 401.217 211.935 401.197 213.468 401.149L215.936 401.024C216.669 401.024 217.392 401.024 218.124 400.956C218.221 400.956 218.211 400.802 218.086 400.783Z" fill="#263238"/>
<path d="M193.764 197.909L171.93 355.388C171.621 343.646 171.313 332.792 171.11 326.343C171.004 322.708 170.917 320.472 170.879 320.279C170.609 318.814 159.234 197.909 159.234 197.909H193.764Z" fill="#263238"/>
<path d="M167.562 438.928C165.287 438.745 106.965 413.411 105.404 411.098C105.211 410.837 107.332 405.516 110.484 398.277L123.344 352.969L160.554 367.901L150.056 408.129C150.056 408.129 156.804 415.445 162.26 421.625C164.697 424.247 166.976 427.012 169.086 429.905C170.541 432.653 169.828 439.121 167.562 438.928Z" fill="#EB9481"/>
<path d="M167.562 438.928C165.287 438.745 106.965 413.411 105.404 411.098C105.211 410.837 107.332 405.516 110.484 398.276C123.643 407.55 160.111 428.874 162.54 426.31C163.504 425.288 163.147 423.514 162.299 421.663C164.736 424.286 167.015 427.051 169.124 429.944C170.541 432.653 169.828 439.121 167.562 438.928Z" fill="#263238"/>
<path d="M106.3 393.611L152.929 408.071C152.929 408.071 175.699 328.203 177.444 309.444C179.169 290.848 180.837 252.857 181.579 225.296C181.579 225.296 189.368 220.688 191.344 218.172C193.321 215.656 195.094 206.604 198.989 197.928H141.939C128.308 224.409 138.565 236.189 138.565 241.964C138.565 269.843 134.353 306.851 133.013 312.336C130.217 323.769 106.3 393.611 106.3 393.611Z" fill="#37474F"/>
<path d="M152.823 397.872C151.656 397.39 150.336 397.091 149.121 396.715C147.743 396.3 146.354 395.915 144.986 395.49C142.344 394.671 139.684 393.89 137.023 393.138C131.657 391.609 126.252 390.201 120.808 388.916L116.316 387.884C114.726 387.518 113.096 387.239 111.496 386.814C111.371 386.814 111.342 386.92 111.496 386.959C114.215 387.672 116.895 388.646 119.584 389.475C122.274 390.304 124.896 391.046 127.556 391.808C132.926 393.321 138.344 394.7 143.781 395.963C145.284 396.3 146.769 396.676 148.263 397.033L150.664 397.563C151.377 397.727 152.071 397.958 152.794 398.064C152.82 398.068 152.846 398.062 152.866 398.046C152.887 398.031 152.901 398.008 152.905 397.982C152.909 397.957 152.902 397.931 152.887 397.91C152.871 397.889 152.848 397.875 152.823 397.872V397.872Z" fill="#263238"/>
<path d="M192.675 217.546C189.952 218.797 187.368 220.328 184.963 222.115C182.408 223.87 180.056 225.884 177.598 227.764C177.501 227.841 177.598 227.995 177.694 227.928C180.287 226.27 183.006 224.814 185.57 223.108C188.145 221.546 190.571 219.752 192.819 217.748C192.887 217.671 192.8 217.497 192.675 217.546Z" fill="#263238"/>
<path d="M193.031 201.476C192.704 203.25 192.27 205.014 191.884 206.778C191.499 208.542 191.258 210.123 190.824 211.762C190.465 213.347 189.659 214.796 188.501 215.936C187.855 216.543 187.132 217.073 186.438 217.633C186.071 217.931 185.667 218.211 185.281 218.519C185.329 218.278 185.368 218.047 185.406 217.796C185.532 217.131 185.647 216.456 185.753 215.782C186.004 214.287 186.245 212.784 186.476 211.289C186.929 208.34 187.344 205.361 187.961 202.44C187.967 202.414 187.963 202.387 187.95 202.365C187.936 202.342 187.914 202.326 187.889 202.319C187.863 202.313 187.836 202.317 187.813 202.331C187.791 202.344 187.774 202.366 187.768 202.392C187.035 205.284 186.226 208.176 185.589 211.068C185.271 212.494 184.153 219.551 184.105 220.052C184.057 220.554 184.008 221.084 183.989 221.604C183.926 222.133 183.926 222.667 183.989 223.195C183.989 223.32 184.182 223.301 184.23 223.195C184.446 222.705 184.598 222.19 184.683 221.662C184.809 221.161 184.924 220.65 185.011 220.139C185.011 219.956 185.069 219.763 185.098 219.57C185.792 219.146 186.438 218.606 187.093 218.124C187.749 217.642 188.501 217.16 189.166 216.563C190.392 215.528 191.275 214.147 191.701 212.6C192.13 210.935 192.41 209.235 192.54 207.52C192.762 205.515 192.925 203.5 193.205 201.505C193.234 201.476 193.051 201.38 193.031 201.476Z" fill="#263238"/>
<path d="M191.836 124.607C190.92 135.934 189.783 147.579 187.141 158.645C185.078 167.264 180.393 173.963 171.043 174.86C162.367 175.689 150.365 173.896 144.002 167.331C141.033 164.275 140.387 160.438 141.168 156.351C142.258 150.673 151.097 119.941 153.787 110.339C155.426 104.497 157.045 98.5689 159.706 93.0741C165.278 81.5061 171.274 82.4701 172.103 82.3255C172.884 81.9592 177.742 80.5517 183.989 83.5209C185.633 84.2881 187.096 85.3941 188.282 86.7664C189.468 88.1386 190.351 89.7461 190.872 91.4835C194.188 101.818 192.723 114.003 191.836 124.607Z" fill="#263238"/>
<path d="M170.04 83.7424C162.396 86.1138 159.6 93.7294 156.901 100.516C153.141 109.973 149.536 119.497 146.393 129.185C144.889 133.841 143.501 138.536 142.219 143.26C141.014 147.791 139.443 152.582 139.115 157.276C138.575 164.988 145.13 169.5 151.801 171.534C151.868 171.556 151.94 171.55 152.002 171.518C152.065 171.487 152.112 171.432 152.134 171.365C152.155 171.299 152.15 171.226 152.118 171.164C152.087 171.102 152.032 171.054 151.965 171.033C148.186 169.731 144.378 168.141 141.882 164.834C138.671 160.631 139.77 155.869 140.86 151.126C142.73 143.048 145.053 135.095 147.608 127.228C150.162 119.362 153.112 111.573 156.12 103.851C159.012 96.4961 161.682 86.6633 170.021 83.8677C170.146 83.8677 170.117 83.7135 170.04 83.7424Z" fill="#263238"/>
<path d="M193.002 100.15C192.443 94.0863 190.168 87.9359 184.22 85.3813C191.875 89.0253 192.627 98.0387 192.684 105.481C192.749 113.328 192.527 121.162 192.019 128.983C191.537 136.512 190.882 144.079 189.715 151.531C188.452 159.571 185.956 166.955 180.287 172.922C180.275 172.934 180.264 172.947 180.257 172.963C180.25 172.978 180.245 172.995 180.245 173.012C180.244 173.029 180.246 173.046 180.252 173.062C180.257 173.078 180.266 173.093 180.278 173.105C180.289 173.118 180.303 173.128 180.318 173.136C180.334 173.143 180.35 173.147 180.367 173.148C180.384 173.149 180.401 173.147 180.417 173.141C180.433 173.135 180.448 173.126 180.461 173.115C185.888 168.382 188.462 161.19 189.783 154.307C191.376 145.17 192.365 135.937 192.742 126.669C193.243 117.945 193.812 108.932 193.002 100.15Z" fill="#263238"/>
<path d="M169.587 126.149C169.953 127.113 175.573 132.993 180.124 132.193C181.598 131.923 180.509 123.777 180.509 123.777L180.567 123.16L181.357 114.484L170.628 109.414L169.095 108.758C169.095 108.758 169.028 111.149 168.989 114.118C168.989 114.263 168.989 114.398 168.989 114.542C168.98 114.706 168.98 114.87 168.989 115.034C168.989 115.477 168.989 115.93 168.989 116.384C168.989 116.837 168.989 117.058 168.989 117.415C168.989 117.772 168.989 118.138 168.989 118.495C169.015 121.057 169.214 123.614 169.587 126.149V126.149Z" fill="#EB9481"/>
<path d="M168.989 114.118C170.146 116.374 171.78 118.352 173.778 119.913C175.775 121.474 178.089 122.583 180.557 123.16L181.348 114.484L170.628 109.414L169.095 108.758C169.095 108.758 169.028 111.149 168.989 114.118Z" fill="#263238"/>
<path d="M192.386 101.712C193.6 116.943 184.616 119.391 181.328 119.652C178.34 119.883 168.151 120.307 165.374 105.269C162.598 90.2303 169.298 84.8319 176.094 83.9643C182.89 83.0967 191.181 86.4707 192.386 101.712Z" fill="#EB9481"/>
<path d="M189.821 98.4724C189.474 98.4212 189.129 98.3504 188.79 98.2603C188.413 98.2376 188.054 98.092 187.768 97.8458C187.695 97.7502 187.656 97.6333 187.656 97.5132C187.656 97.3931 187.695 97.2762 187.768 97.1806C187.94 97.0147 188.152 96.8971 188.384 96.8396C188.616 96.782 188.859 96.7866 189.089 96.8529C189.58 96.9147 190.029 97.1632 190.342 97.5469C190.41 97.6368 190.451 97.7447 190.458 97.8573C190.466 97.9699 190.441 98.0823 190.385 98.1807C190.33 98.2791 190.247 98.3591 190.147 98.4109C190.047 98.4628 189.933 98.4841 189.821 98.4724V98.4724Z" fill="#263238"/>
<path d="M179.68 98.6846C180.036 98.6364 180.355 98.54 180.711 98.4629C181.07 98.4227 181.407 98.271 181.675 98.0291C181.749 97.9341 181.79 97.8171 181.79 97.6965C181.79 97.576 181.749 97.4589 181.675 97.3639C181.501 97.1989 181.286 97.0832 181.052 97.029C180.818 96.9748 180.574 96.9839 180.345 97.0555C179.86 97.1332 179.42 97.3872 179.111 97.7688C179.041 97.862 179.001 97.9742 178.996 98.0906C178.991 98.207 179.021 98.3222 179.082 98.4212C179.144 98.5202 179.234 98.5983 179.34 98.6453C179.447 98.6923 179.565 98.706 179.68 98.6846V98.6846Z" fill="#263238"/>
<path d="M182.061 102.531C182.061 102.531 181.984 102.531 181.984 102.618C182.052 103.659 181.984 104.864 181.02 105.24C181.02 105.24 181.02 105.307 181.02 105.297C182.196 105.076 182.293 103.504 182.061 102.531Z" fill="#263238"/>
<path d="M181.097 101.47C179.42 101.403 179.4 104.758 180.952 104.825C182.505 104.893 182.505 101.528 181.097 101.47Z" fill="#263238"/>
<path d="M180.442 101.644C180.143 101.837 179.854 102.164 179.478 102.203C179.102 102.241 178.764 101.885 178.514 101.547H178.456C178.456 102.184 178.678 102.849 179.42 102.945C180.162 103.042 180.509 102.473 180.673 101.827C180.663 101.75 180.557 101.567 180.442 101.644Z" fill="#263238"/>
<path d="M187.845 102.299C187.845 102.299 187.922 102.299 187.922 102.386C187.874 103.427 187.99 104.632 188.935 104.989C188.935 104.989 188.935 105.056 188.935 105.047C187.778 104.873 187.633 103.273 187.845 102.299Z" fill="#263238"/>
<path d="M188.79 101.22C190.457 101.123 190.544 104.478 188.992 104.575C187.44 104.671 187.382 101.307 188.79 101.22Z" fill="#263238"/>
<path d="M189.493 101.432C189.763 101.596 190.033 101.914 190.351 101.933C190.67 101.952 190.978 101.576 191.209 101.22H191.258C191.258 101.856 191.094 102.531 190.486 102.666C189.879 102.801 189.522 102.251 189.33 101.625C189.301 101.538 189.387 101.355 189.493 101.432Z" fill="#263238"/>
<path d="M186.322 107.004C186.322 107.004 186.544 108.556 186.544 109.289C186.544 109.366 186.37 109.395 186.119 109.414C185.491 109.533 184.841 109.476 184.243 109.25C183.644 109.024 183.119 108.637 182.726 108.132C182.712 108.116 182.705 108.096 182.706 108.075C182.707 108.055 182.716 108.035 182.731 108.021C182.746 108.007 182.767 108 182.787 108C182.808 108.001 182.828 108.01 182.842 108.026C183.777 108.662 184.893 108.977 186.023 108.922C186.071 108.72 185.551 106.271 185.666 106.262C186.236 106.307 186.797 106.431 187.334 106.628C186.968 103.379 186.081 100.217 185.753 96.988C185.753 96.9624 185.763 96.9379 185.781 96.9198C185.799 96.9018 185.824 96.8916 185.85 96.8916C185.875 96.8916 185.9 96.9018 185.918 96.9198C185.936 96.9379 185.946 96.9624 185.946 96.988C187.003 100.35 187.723 103.808 188.096 107.312C188.125 107.64 186.611 107.1 186.322 107.004Z" fill="#263238"/>
<path d="M187.498 103.312C187.267 100.824 188.414 98.6844 190.053 98.4916C191.691 98.2988 193.224 100.227 193.455 102.714C193.687 105.201 192.491 107.341 190.901 107.534C189.31 107.727 187.729 105.799 187.498 103.312ZM188.105 103.254C188.308 105.403 189.532 107.052 190.843 106.936C192.154 106.821 193.06 104.96 192.858 102.81C192.655 100.661 191.421 99.0121 190.11 99.1278C188.799 99.2435 187.903 101.104 188.105 103.254Z" fill="#263238"/>
<path d="M176.171 104.382C176.15 103.558 176.371 102.746 176.805 102.045C177.24 101.345 177.869 100.787 178.616 100.439C179.364 100.091 180.196 99.9693 181.012 100.088C181.827 100.207 182.59 100.561 183.207 101.108C183.824 101.654 184.268 102.369 184.485 103.164C184.702 103.959 184.681 104.801 184.426 105.584C184.171 106.368 183.693 107.061 183.05 107.576C182.408 108.092 181.628 108.409 180.808 108.488C179.649 108.554 178.512 108.16 177.643 107.39C176.775 106.621 176.245 105.54 176.171 104.382ZM176.778 104.324C176.901 105.017 177.223 105.659 177.705 106.173C178.187 106.686 178.807 107.048 179.491 107.214C180.175 107.38 180.893 107.344 181.557 107.109C182.22 106.874 182.801 106.451 183.228 105.892C183.655 105.332 183.91 104.66 183.962 103.958C184.014 103.256 183.86 102.555 183.52 101.938C183.179 101.322 182.667 100.819 182.045 100.489C181.423 100.16 180.718 100.018 180.017 100.082C179.026 100.216 178.128 100.738 177.521 101.534C176.914 102.329 176.647 103.332 176.778 104.324Z" fill="#263238"/>
<path d="M184.346 103.196C186.524 102.232 187.614 102.839 187.623 102.849L187.951 102.338C187.903 102.338 186.611 101.49 184.095 102.646L184.346 103.196Z" fill="#263238"/>
<path d="M176.412 103.958L176.47 103.35C176.065 103.35 166.714 102.483 165.712 102.521C164.709 102.56 162.328 104.17 162.068 104.353L162.415 104.854C163.405 104.105 164.513 103.525 165.692 103.138H165.808C166.541 103.148 173.086 103.659 176.412 103.958Z" fill="#263238"/>
<path d="M165.808 104.179C167.456 104.083 171.756 99.5234 171.891 91.5414C171.891 91.5414 171.274 98.704 170.744 99.7547C170.213 100.805 173.144 97.1905 173.337 90.7606C175.368 92.2093 177.594 93.3616 179.95 94.1828C182.986 95.0311 184.847 95.0022 185.069 94.7805C185.29 94.5588 180.808 93.1513 179.593 91.7632C179.593 91.7632 187.691 95.5131 191.412 95.8023C191.846 95.8023 192.376 86.9624 186.592 83.2028C180.808 79.4432 171.698 83.5113 169.24 85.8828C169.24 85.8828 166.348 86.2876 163.234 90.5582C160.12 94.8287 164.034 104.286 165.808 104.179Z" fill="#263238"/>
<path d="M167.89 106.252C167.89 106.252 164.584 101.432 162.415 102.627C160.246 103.823 162.694 110.735 165.229 111.699C165.546 111.845 165.889 111.925 166.238 111.936C166.587 111.946 166.934 111.886 167.259 111.759C167.583 111.632 167.879 111.441 168.129 111.197C168.378 110.953 168.576 110.661 168.71 110.339L167.89 106.252Z" fill="#EB9481"/>
<path d="M163.167 104.594V104.661C164.94 105.404 165.866 107.062 166.512 108.778C166.41 108.597 166.271 108.442 166.103 108.321C165.936 108.2 165.744 108.118 165.541 108.079C165.338 108.041 165.129 108.047 164.928 108.098C164.728 108.148 164.541 108.242 164.381 108.373C164.381 108.373 164.381 108.479 164.429 108.469C164.743 108.371 165.08 108.372 165.393 108.474C165.706 108.576 165.979 108.773 166.174 109.038C166.5 109.479 166.778 109.954 167.003 110.455C167.08 110.619 167.37 110.532 167.312 110.349C167.35 108.035 165.605 104.844 163.167 104.594Z" fill="#263238"/>
<path d="M167.36 111.352C167.362 111.573 167.298 111.79 167.176 111.975C167.055 112.161 166.881 112.305 166.676 112.391C166.472 112.478 166.247 112.501 166.03 112.459C165.812 112.417 165.612 112.311 165.454 112.155C165.297 111.999 165.19 111.8 165.146 111.583C165.102 111.366 165.123 111.14 165.208 110.935C165.292 110.731 165.435 110.555 165.619 110.432C165.804 110.309 166.02 110.243 166.242 110.243C166.537 110.243 166.82 110.359 167.029 110.567C167.239 110.775 167.357 111.057 167.36 111.352Z" fill="white"/>
<path d="M201.476 203.066C201.476 203.066 150.133 203.828 137.389 202.931C137.389 202.931 147.781 144.031 161.489 129.147C162 128.588 162.54 128.057 163.109 127.556C163.947 126.852 163.832 121.232 164.227 120.808C164.622 120.384 181.28 122.572 181.492 122.977C181.704 123.382 182.562 128.684 182.562 128.684C186.341 133.504 198.497 150.162 199.914 157.035C201.331 163.909 196.868 171.495 196.868 171.495L201.476 203.066Z" fill="#E8505B"/>
<path d="M157.566 139.654C154.529 154.288 156.332 185.926 163.35 191.71C174.918 201.177 202.72 203.944 210.48 204.859C213.825 205.255 220.486 183.362 218.192 180.538C215.898 177.713 181.724 173.317 180.095 171.862C178.967 170.821 173.655 151.704 169.076 140.927C162.916 126.342 158.674 134.256 157.566 139.654Z" fill="#EB9481"/>
<path d="M212.408 178.773C212.408 178.773 222.665 178.667 229.374 178.918C233.124 179.053 239.515 179.882 242.224 181.232C246.263 183.266 261.88 194.352 259.268 198.198C256.906 201.678 252.259 197.099 252.259 197.099C252.259 197.099 257.812 201.62 254.409 204.358C251.006 207.096 245.502 200.56 245.502 200.56C245.502 200.56 251.729 204.956 247.815 207.52C244.422 209.756 237.298 202.893 237.298 202.893C237.298 202.893 244.345 206.749 241.087 209.419C237.491 212.311 225.518 203.365 225.518 203.365C216.938 205.293 211.53 205.293 205.226 204.262C204.069 204.069 212.408 178.773 212.408 178.773Z" fill="#EB9481"/>
<path d="M247.218 202.083L245.82 200.608C244.955 199.631 244.035 198.704 243.063 197.832C242.099 197.003 241.135 196.212 240.075 195.46C239.014 194.708 237.819 193.957 236.759 193.137C236.672 193.07 236.575 193.195 236.672 193.253C237.725 194.065 238.735 194.93 239.699 195.846C240.663 196.714 241.627 197.6 242.591 198.478C243.555 199.355 244.519 200.136 245.483 200.974C245.955 201.389 246.447 201.823 246.881 202.257C247.292 202.702 247.74 203.112 248.22 203.481C248.269 203.481 248.327 203.481 248.298 203.404C247.986 202.926 247.624 202.483 247.218 202.083Z" fill="#263238"/>
<path d="M253.397 198.063C251.85 196.195 250.175 194.436 248.384 192.8C246.571 191.175 244.597 189.737 242.494 188.51C242.417 188.51 242.34 188.568 242.398 188.626C244.21 190.255 246.051 191.855 247.893 193.446C248.789 194.227 252.761 197.909 253.224 198.266C253.33 198.324 253.465 198.169 253.397 198.063Z" fill="#263238"/>
<path d="M241.501 206.016C240.001 204.291 238.391 202.665 236.681 201.148C234.8 199.762 232.818 198.519 230.753 197.427C230.676 197.427 230.599 197.504 230.666 197.552C232.536 198.94 234.426 200.28 236.228 201.755C237.115 202.478 240.451 205.544 241.357 206.151C241.453 206.209 241.559 206.093 241.501 206.016Z" fill="#263238"/>
<path d="M202.787 205.766L215.02 177.241C215.02 177.241 181.512 171.698 180.48 171.023C179.449 170.348 173.337 148.099 169.413 139.365C165.49 130.631 158.752 125.503 156.149 144.253C153.546 163.003 157.315 185.898 161.085 190.66C165.654 196.424 183.748 203.722 202.787 205.766Z" fill="#E8505B"/>
<path d="M185.57 202.16C180.557 200.801 175.67 198.43 170.879 196.376C166.762 194.651 162.559 192.52 160.275 188.481C159.21 186.425 158.465 184.217 158.067 181.936C157.537 179.391 157.103 176.817 156.737 174.224C156.293 171.267 155.895 168.305 155.542 165.336C155.368 163.812 155.194 162.289 155.04 160.766C154.886 159.243 154.606 157.72 154.549 156.187C154.549 156.167 154.54 156.147 154.526 156.133C154.512 156.118 154.492 156.11 154.471 156.11C154.451 156.11 154.431 156.118 154.417 156.133C154.402 156.147 154.394 156.167 154.394 156.187C154.5 157.595 154.394 159.012 154.51 160.429C154.51 161.393 154.626 162.28 154.693 163.205L154.423 162.617C154.126 161.942 153.9 161.238 153.748 160.516C153.748 160.429 153.585 160.467 153.604 160.516C153.777 161.239 153.951 161.971 154.153 162.685C154.25 163.032 154.365 163.379 154.5 163.726C154.581 163.959 154.674 164.187 154.78 164.41C155.011 167.18 155.31 169.937 155.676 172.681C156.033 175.342 156.448 177.983 156.92 180.625C157.27 182.961 157.891 185.248 158.771 187.44C159.646 189.507 160.985 191.344 162.685 192.81C164.446 194.255 166.391 195.461 168.469 196.396C173.167 198.566 178.024 200.377 182.996 201.813C188.944 203.683 190.756 203.558 185.57 202.16Z" fill="#263238"/>
<path d="M198.15 174.272C196.916 174.108 182.331 171.042 181.762 170.878C181.477 170.792 181.22 170.632 181.016 170.416C180.811 170.2 180.666 169.934 180.596 169.644C180.143 168.468 179.747 167.263 179.323 166.078C178.591 164.034 177.845 162 177.087 159.976C177.087 159.522 177 159.012 176.952 158.616C176.904 158.221 176.807 157.537 176.72 156.997C176.528 155.83 176.181 154.683 176.036 153.517C176.036 153.401 175.853 153.44 175.882 153.517C176.175 154.665 176.35 155.841 176.402 157.026C176.45 157.488 176.479 157.99 176.508 158.424C176.065 157.238 175.612 156.052 175.139 154.876C174.59 153.507 173.963 152.129 173.52 150.721C173.52 150.625 173.346 150.673 173.375 150.721C173.877 151.984 174.233 153.324 174.629 154.577C175.024 155.83 175.448 157.18 175.872 158.481C176.701 161.036 177.578 163.571 178.465 166.116C178.889 167.341 179.304 168.584 179.757 169.799C179.881 170.254 180.126 170.666 180.465 170.994C180.805 171.321 181.226 171.551 181.685 171.659C184.22 172.344 196.617 174.397 198.121 174.455C198.275 174.551 198.314 174.291 198.15 174.272Z" fill="#263238"/>
<path d="M208.822 177.684C206.894 181.781 204.966 185.849 203.221 190.033C201.456 194.149 199.908 198.355 198.584 202.633C198.576 202.652 198.577 202.673 198.585 202.692C198.593 202.711 198.608 202.726 198.627 202.734C198.646 202.742 198.668 202.741 198.687 202.733C198.706 202.725 198.721 202.71 198.729 202.691C200.657 198.671 202.344 194.497 204.05 190.361C205.756 186.225 207.308 181.974 209.034 177.829C209.12 177.655 208.899 177.521 208.822 177.684Z" fill="#263238"/>
<path d="M244.856 174.426C243.381 175.255 234.937 172.922 231.514 175.486C229.249 177.183 227.032 181.27 226.55 186.601C226.058 192.106 230.406 191.826 232.016 189.493C233.977 186.422 235.689 183.199 237.134 179.853C238.683 180.162 240.209 180.571 241.704 181.078L244.856 174.426Z" fill="#AD6359"/>
<path d="M234.503 193.638C231.89 190.901 218.838 200.936 222.935 205.496C227.032 210.055 237.452 196.743 234.503 193.638Z" fill="#AD6359"/>
<path d="M238.86 197.562C236.248 194.824 223.195 204.86 227.292 209.419C231.389 213.979 241.81 200.666 238.86 197.562Z" fill="#AD6359"/>
<path d="M242.291 198.95C239.544 196.82 229.075 207.761 233.461 211.328C237.847 214.895 245.405 201.36 242.291 198.95Z" fill="#AD6359"/>
<path d="M246.023 199.548C242.87 198.343 236.228 211.453 241.309 213.526C246.389 215.599 249.599 200.869 246.023 199.548Z" fill="#AD6359"/>
<path d="M234.117 198.15C233.392 198.636 232.708 199.181 232.073 199.779C231.37 200.396 230.675 201.023 230.039 201.707C229.419 202.354 228.836 203.037 228.294 203.751C227.726 204.522 227.253 205.361 226.675 206.113C226.664 206.119 226.656 206.129 226.65 206.139C226.643 206.15 226.64 206.162 226.639 206.175C226.639 206.187 226.642 206.2 226.647 206.211C226.652 206.222 226.66 206.232 226.67 206.239C226.68 206.247 226.692 206.252 226.704 206.254C226.716 206.256 226.729 206.255 226.741 206.251C226.753 206.247 226.763 206.24 226.772 206.231C226.781 206.222 226.787 206.211 226.79 206.199C227.362 205.472 227.984 204.786 228.651 204.146C229.278 203.491 229.866 202.806 230.492 202.141C231.119 201.476 231.678 200.83 232.295 200.213C232.912 199.596 233.606 198.96 234.223 198.285C234.252 198.198 234.184 198.111 234.117 198.15Z" fill="#263238"/>
<path d="M239.303 199.374C238.744 200.232 236.787 203.558 236.19 204.397C235.592 205.235 234.965 206.074 234.329 206.893C233.693 207.713 233.076 208.609 232.353 209.38C232.295 209.448 232.401 209.554 232.469 209.486C233.192 208.715 233.982 208.012 234.666 207.202C235.351 206.392 235.977 205.573 236.594 204.715C237.665 203.014 238.631 201.25 239.486 199.432C239.486 199.345 239.352 199.297 239.303 199.374Z" fill="#263238"/>
<path d="M242.928 201.244C242.349 202.517 241.848 203.838 241.26 205.1C240.971 205.727 240.672 206.354 240.383 207.028L239.978 207.944C239.851 208.309 239.689 208.661 239.496 208.995C239.438 209.072 239.592 209.159 239.631 209.053C239.825 208.671 240.05 208.307 240.306 207.964C240.47 207.674 240.643 207.385 240.797 207.096C241.125 206.453 241.424 205.827 241.694 205.216C242.257 203.967 242.728 202.678 243.101 201.36C243.117 201.337 243.122 201.309 243.117 201.282C243.111 201.255 243.095 201.231 243.072 201.216C243.049 201.2 243.021 201.195 242.994 201.2C242.967 201.205 242.943 201.221 242.928 201.244V201.244Z" fill="#263238"/>
<path d="M251.44 91.6765C250.979 96.0801 249.303 100.269 246.601 103.776C243.898 107.283 240.274 109.97 236.133 111.538C231.992 113.105 227.497 113.492 223.15 112.654C218.802 111.816 214.773 109.786 211.511 106.792L199.548 108.547L205.534 98.2125C203.979 94.3895 203.44 90.2289 203.97 86.1357C204.5 82.0426 206.081 78.1566 208.56 74.8561C211.038 71.5557 214.329 68.9533 218.111 67.3025C221.894 65.6518 226.04 65.0089 230.145 65.4365C236.447 66.0952 242.23 69.229 246.223 74.1492C250.216 79.0694 252.093 85.3736 251.44 91.6765V91.6765Z" fill="white"/>
<path d="M251.44 91.6765C250.976 96.0785 249.308 100.268 246.62 103.784C245.955 104.663 245.234 105.497 244.461 106.281C243.664 107.043 242.82 107.754 241.935 108.412C240.171 109.753 238.223 110.834 236.151 111.622C234.091 112.434 231.926 112.95 229.721 113.154C228.619 113.259 227.511 113.281 226.405 113.222C225.296 113.194 224.19 113.078 223.099 112.875C218.695 112.082 214.6 110.079 211.27 107.091L211.56 107.178L199.625 108.932L198.758 109.067L199.191 108.306L205.139 97.9522V98.357C203.745 94.9414 203.15 91.2519 203.4 87.571C203.651 83.89 204.74 80.3152 206.585 77.1201C208.445 73.9323 211.003 71.2068 214.066 69.1478C217.873 66.599 222.328 65.1881 226.908 65.0806C231.488 64.9731 236.004 66.1734 239.927 68.5409C243.849 70.9083 247.016 74.3448 249.055 78.4475C251.094 82.5503 251.921 87.1492 251.44 91.7054V91.6765ZM251.44 91.6765C251.821 88.0779 251.371 84.4398 250.125 81.0424C248.879 77.6451 246.869 74.5791 244.252 72.0805C241.634 69.582 238.478 67.7176 235.026 66.6309C231.574 65.5442 227.919 65.2641 224.342 65.8124C220.802 66.3324 217.426 67.651 214.471 69.6684C211.552 71.7187 209.114 74.3799 207.328 77.4672C205.562 80.5641 204.523 84.0221 204.291 87.5795C204.072 91.1282 204.645 94.6812 205.968 97.9811L206.055 98.1932L205.939 98.3956L199.924 108.71L199.5 108.074L211.463 106.397H211.627L211.752 106.503C214.943 109.491 218.901 111.533 223.185 112.403C224.257 112.616 225.343 112.748 226.434 112.798C227.522 112.875 228.614 112.875 229.702 112.798C231.885 112.629 234.033 112.155 236.084 111.39C238.156 110.65 240.105 109.603 241.868 108.286C243.661 107.017 245.245 105.475 246.562 103.717C249.26 100.226 250.947 96.0608 251.44 91.6765Z" fill="#263238"/>
<path d="M224.872 102.82L214.673 92.4862L218.096 89.1026L224.063 95.1372L236.45 75.7126L240.509 78.3058L224.872 102.82Z" fill="#E8505B"/>
</svg>
