<svg width="271" height="271" viewBox="0 0 271 271" fill="none" xmlns="http://www.w3.org/2000/svg">
<g filter="url(#filter0_d)">
<path d="M5.5 13.8302C5.5 6.99236 11.0431 1.44922 17.881 1.44922H135.5C207.297 1.44922 265.5 59.6522 265.5 131.449C265.5 203.246 207.297 261.449 135.5 261.449C63.703 261.449 5.5 203.246 5.5 131.449V13.8302Z" fill="#2D9CDB"/>
</g>
<mask id="mask0" mask-type="alpha" maskUnits="userSpaceOnUse" x="5" y="1" width="261" height="261">
<path d="M5.5 13.8302C5.5 6.99236 11.0431 1.44922 17.881 1.44922H135.5C207.297 1.44922 265.5 59.6522 265.5 131.449C265.5 203.246 207.297 261.449 135.5 261.449C63.703 261.449 5.5 203.246 5.5 131.449V13.8302Z" fill="#2D9CDB"/>
</mask>
<g mask="url(#mask0)">
<path d="M-28.3906 252.521H245.152" stroke="#263238" stroke-linecap="round" stroke-linejoin="round"/>
<path d="M182.123 160.246V160.316C182.123 160.431 182.149 160.551 182.2 160.679C182.484 162.072 182.696 163.48 182.836 164.896C182.957 166.111 183.052 167.497 183.077 169.043C183.138 172.615 182.893 176.186 182.346 179.716C182.206 180.645 182.041 181.624 181.843 182.604C181.532 184.22 181.15 185.912 180.679 187.661C180.47 188.475 180.228 189.308 179.973 190.148L179.674 191.172C179.56 191.585 179.445 191.999 179.337 192.444C178.606 195.27 178.022 198.132 177.588 201.018C177.047 204.612 176.71 208.18 176.526 211.558C176.278 216.061 176.291 220.221 176.399 223.643C176.396 223.701 176.396 223.758 176.399 223.815C176.513 227.294 176.729 230.023 176.876 231.575C176.958 232.485 177.016 233 177.022 233.032" stroke="#263238" stroke-linecap="round" stroke-linejoin="round"/>
<path d="M182.142 160.336C181.19 159.49 180.042 158.893 178.803 158.6L182.142 160.336Z" fill="white"/>
<path d="M182.142 160.336C181.19 159.49 180.042 158.893 178.803 158.6" stroke="#263238" stroke-linecap="round" stroke-linejoin="round"/>
<path d="M182.854 164.916L184.546 163.383" stroke="#263238" stroke-linecap="round" stroke-linejoin="round"/>
<path d="M180.699 187.668C180.611 187.222 180.479 186.785 180.305 186.364C180.054 185.747 179.713 185.17 179.294 184.653C178.98 184.264 178.624 183.912 178.231 183.604" stroke="#263238" stroke-linecap="round" stroke-linejoin="round"/>
<path d="M179.344 192.439C179.583 191.844 179.943 191.306 180.399 190.856C180.855 190.407 181.399 190.055 181.996 189.824" stroke="#263238" stroke-linecap="round" stroke-linejoin="round"/>
<path d="M176.405 216.1C176.971 215.413 177.398 212.812 177.627 211.412C177.684 211.082 177.728 210.776 177.773 210.592" fill="white"/>
<path d="M176.405 216.1C176.971 215.413 177.398 212.812 177.627 211.412C177.684 211.082 177.728 210.776 177.773 210.592" stroke="#263238" stroke-linecap="round" stroke-linejoin="round"/>
<path d="M172.048 220.819C172.236 220.8 172.426 220.8 172.614 220.819C173.447 220.9 174.242 221.206 174.915 221.705C175.587 222.204 176.111 222.876 176.43 223.65" fill="white"/>
<path d="M172.048 220.819C172.236 220.8 172.426 220.8 172.614 220.819C173.447 220.9 174.242 221.206 174.915 221.705C175.587 222.204 176.111 222.876 176.43 223.65" stroke="#263238" stroke-linecap="round" stroke-linejoin="round"/>
<path d="M181.863 182.656C181.863 182.656 182.161 172.332 176.494 168.586" stroke="#263238" stroke-linecap="round" stroke-linejoin="round"/>
<path d="M182.346 204.784C183.091 207.195 177.894 211.781 177.894 211.781C177.894 211.781 171.031 210.922 170.261 208.518C169.491 206.114 171.253 202.157 174.586 201.14C177.919 200.122 181.628 202.374 182.346 204.784Z" fill="#F2994A"/>
<path d="M188.128 175.569C187.492 178.113 182.556 179.939 182.556 179.939C182.556 179.939 179.166 175.976 179.802 173.419C180.438 170.862 183.18 168.051 185.482 168.642C187.785 169.234 188.79 173.012 188.128 175.569Z" fill="#F2994A"/>
<path d="M168.416 213.779C171.501 214.974 173.39 220.432 173.39 220.432C173.39 220.432 168.302 223.173 165.223 221.971C162.144 220.769 158.862 217.385 159.753 215.127C160.643 212.869 165.331 212.551 168.416 213.779Z" fill="#F2994A"/>
<path d="M175.177 183.757C175.802 184.282 176.518 184.687 177.289 184.952C177.676 185.078 178.091 185.094 178.487 185C178.883 184.906 179.245 184.704 179.534 184.418C180.17 183.661 180.018 182.51 179.604 181.562C178.778 179.749 175.737 176.664 173.403 177.548C170.032 178.84 173.676 182.656 175.177 183.757Z" fill="#F2994A"/>
<path d="M182.079 188.381C181.634 188.928 181.163 189.622 181.411 190.289C181.55 190.57 181.777 190.797 182.058 190.935C182.338 191.073 182.657 191.114 182.963 191.053C183.574 190.908 184.143 190.627 184.63 190.232C185.819 189.405 188.262 187.688 186.704 186.053C185.145 184.418 182.983 187.23 182.079 188.381Z" fill="#F2994A"/>
<path d="M172.125 165.31C171.868 165.325 171.622 165.42 171.423 165.582C171.223 165.744 171.079 165.965 171.012 166.213C170.91 166.805 171.4 167.32 171.87 167.683C173.053 168.599 176.609 171.054 177.398 168.681C178.148 166.442 173.689 165.138 172.125 165.31Z" fill="#F2994A"/>
<path d="M178.67 157.511C177.939 157.581 177.207 157.314 176.469 157.359C175.732 157.403 174.924 157.995 175.083 158.72C175.242 159.445 176.062 159.604 176.737 159.642C177.897 159.717 179.063 159.637 180.203 159.407C180.473 159.381 180.723 159.254 180.903 159.051C181.202 158.612 180.731 158.026 180.222 157.874C179.7 157.804 179.186 157.681 178.689 157.505L178.67 157.511Z" fill="#F2994A"/>
<path d="M185.832 162.555C186.564 162.555 187.276 162.262 188.014 162.256C188.752 162.25 189.604 162.79 189.483 163.528C189.362 164.266 188.574 164.476 187.899 164.558C186.747 164.711 185.579 164.711 184.426 164.558C184.154 164.552 183.894 164.441 183.701 164.247C183.377 163.833 183.809 163.216 184.299 163.026C184.818 162.929 185.324 162.773 185.807 162.561L185.832 162.555Z" fill="#F2994A"/>
<path d="M185.107 216.761C185.275 216.585 185.501 216.475 185.743 216.449C185.906 216.465 186.059 216.537 186.175 216.653C186.291 216.769 186.363 216.922 186.379 217.085C186.414 217.4 186.375 217.718 186.264 218.014C185.762 219.687 180.164 231.766 178.873 229.597C178.116 228.325 179.986 224.069 180.54 222.867C181.596 220.521 183.155 218.437 185.107 216.761Z" fill="#F2994A"/>
<path d="M182.378 161.03C182.378 161.03 182.041 158.098 182.747 157.85" stroke="#263238" stroke-linecap="round" stroke-linejoin="round"/>
<path d="M181.755 157.97C182.116 156.934 182.738 156.009 183.561 155.285C184.445 154.649 185.864 154.598 186.506 155.482C187.225 156.468 186.506 157.963 185.406 158.491C184.306 159.019 183.008 158.86 181.799 158.688C181.799 158.51 181.799 158.332 181.799 158.154L181.755 157.97Z" fill="#F2994A"/>
<path d="M184.769 252.375C178.773 253.386 172.65 253.386 166.654 252.375L159.606 231.582H191.817L184.769 252.375Z" fill="white" stroke="#263238" stroke-linecap="round" stroke-linejoin="round"/>
<path d="M177.48 172.461H169.714" stroke="#263238" stroke-linecap="round" stroke-linejoin="round"/>
<path d="M238.385 172.461H222.565" stroke="#263238" stroke-linecap="round" stroke-linejoin="round"/>
<path d="M169.001 76.9796H197.033V50.2773" stroke="#263238" stroke-linecap="round" stroke-linejoin="round"/>
<path d="M5.62012 68.8262H35.401V90.548H68.0442" stroke="#263238" stroke-linecap="round" stroke-linejoin="round"/>
<path d="M14.6582 73.5586V106.812" stroke="#263238" stroke-linecap="round" stroke-linejoin="round"/>
<path d="M27.959 73.5586V131.727" stroke="#263238" stroke-linecap="round" stroke-linejoin="round"/>
<path d="M91.6738 65.3075V27.0605H145.823V65.3075" stroke="#263238" stroke-linecap="round" stroke-linejoin="round"/>
<path d="M95.6436 46.0595V31.6016H105.655" stroke="#263238" stroke-linecap="round" stroke-linejoin="round"/>
<path d="M107.855 46.0595V31.6016H117.867" stroke="#263238" stroke-linecap="round" stroke-linejoin="round"/>
<path d="M120.068 46.0595V31.6016H130.08" stroke="#263238" stroke-linecap="round" stroke-linejoin="round"/>
<path d="M132.281 46.0595V31.6016H142.293" stroke="#263238" stroke-linecap="round" stroke-linejoin="round"/>
<path d="M95.6436 65.3075V50.8496H105.655" stroke="#263238" stroke-linecap="round" stroke-linejoin="round"/>
<path d="M107.855 65.3075V50.8496H117.867" stroke="#263238" stroke-linecap="round" stroke-linejoin="round"/>
<path d="M120.068 65.3075V50.8496H130.08" stroke="#263238" stroke-linecap="round" stroke-linejoin="round"/>
<path d="M132.281 65.3075V50.8496H142.293" stroke="#263238" stroke-linecap="round" stroke-linejoin="round"/>
<path d="M201.371 53.584V101.512" stroke="#263238" stroke-linecap="round" stroke-linejoin="round"/>
<path d="M221.032 168.949H222.565" stroke="#263238" stroke-linecap="round" stroke-linejoin="round"/>
<path d="M213.157 67.3496V121.009" stroke="#263238" stroke-linecap="round" stroke-linejoin="round"/>
<path d="M224.95 155.248V168.949H234.358" stroke="#263238" stroke-linecap="round" stroke-linejoin="round"/>
<path d="M224.95 84.8418V121.282" stroke="#263238" stroke-linecap="round" stroke-linejoin="round"/>
<path d="M236.736 112.492V168.95H238.88" stroke="#263238" stroke-linecap="round" stroke-linejoin="round"/>
<path d="M137.893 145.615H16.4033V224.526H137.893V145.615Z" fill="#FFD71D" stroke="#263238" stroke-linecap="round" stroke-linejoin="round"/>
<path d="M16.4033 145.615L77.1481 185.071L137.893 145.615H16.4033Z" fill="#FFE204" stroke="#263238" stroke-linecap="round" stroke-linejoin="round"/>
<path d="M58.8865 173.209L16.4033 224.527" stroke="#263238" stroke-linecap="round" stroke-linejoin="round"/>
<path d="M95.7402 173.209L138.223 224.527" stroke="#263238" stroke-linecap="round" stroke-linejoin="round"/>
<path d="M158.112 72.921H129.871C129.057 72.9219 128.259 73.1407 127.559 73.5546C126.859 73.9685 126.282 74.5623 125.889 75.2744C125.195 76.527 124.178 77.5708 122.945 78.2977C121.711 79.0246 120.305 79.4079 118.873 79.4079C117.441 79.4079 116.035 79.0246 114.802 78.2977C113.568 77.5708 112.551 76.527 111.857 75.2744C111.467 74.5531 110.89 73.9506 110.185 73.5307C109.481 73.1108 108.676 72.8892 107.856 72.8892H79.6465C78.8722 72.8791 78.1035 73.0216 77.3842 73.3087C76.665 73.5957 76.0093 74.0216 75.4547 74.5621C74.9 75.1025 74.4573 75.7469 74.1517 76.4585C73.8462 77.1701 73.6838 77.9349 73.6738 78.7092V237.994C73.6956 239.558 74.3367 241.048 75.4565 242.139C76.5763 243.231 78.0832 243.833 79.6465 243.814H158.112C159.676 243.833 161.184 243.231 162.305 242.14C163.425 241.049 164.068 239.558 164.091 237.994V78.741C164.07 77.1766 163.428 75.6848 162.306 74.5935C161.185 73.5022 159.677 72.9006 158.112 72.921Z" fill="#FF3A46"/>
<path d="M166.845 76.9787C166.848 75.9057 166.64 74.8426 166.232 73.8503C165.823 72.858 165.223 71.9561 164.466 71.1962C163.708 70.4363 162.808 69.8334 161.817 69.422C160.826 69.0106 159.763 68.7988 158.69 68.7988H79.0734C78.0028 68.798 76.9426 69.0081 75.9533 69.4172C74.964 69.8263 74.065 70.4264 73.3077 71.1831C72.5504 71.9398 71.9497 72.8383 71.5398 73.8273C71.1299 74.8163 70.9189 75.8763 70.9189 76.9469V244.355C70.9189 246.516 71.7774 248.588 73.3055 250.116C74.8335 251.644 76.906 252.503 79.067 252.503H158.69C160.852 252.503 162.925 251.644 164.454 250.117C165.983 248.589 166.843 246.516 166.845 244.355V76.9787ZM164.091 237.994C164.067 239.558 163.425 241.049 162.304 242.139C161.183 243.23 159.676 243.833 158.112 243.814H79.6458C78.0825 243.833 76.5756 243.23 75.4558 242.139C74.336 241.048 73.6949 239.557 73.6731 237.994V78.7406C73.6831 77.9663 73.8455 77.2015 74.151 76.4899C74.4566 75.7783 74.8993 75.1339 75.454 74.5935C76.0086 74.053 76.6643 73.6271 77.3835 73.3401C78.1028 73.053 78.8715 72.9105 79.6458 72.9206H107.868C108.688 72.9203 109.491 73.142 110.195 73.562C110.898 73.9819 111.475 74.5846 111.863 75.3058C112.557 76.5584 113.574 77.6022 114.807 78.3291C116.041 79.056 117.447 79.4393 118.879 79.4393C120.311 79.4393 121.717 79.056 122.95 78.3291C124.184 77.6022 125.201 76.5584 125.895 75.3058C126.287 74.5928 126.863 73.9982 127.563 73.5842C128.264 73.1702 129.063 72.952 129.876 72.9524H158.118C158.892 72.9423 159.661 73.0848 160.38 73.3719C161.1 73.6589 161.755 74.0848 162.31 74.6253C162.864 75.1657 163.307 75.8101 163.613 76.5217C163.918 77.2333 164.081 77.9981 164.091 78.7724V237.994Z" fill="#263238"/>
<path opacity="0.2" d="M139.793 68.8242L86.9033 252.515L107.906 252.496L158.837 68.8242H139.793Z" fill="white"/>
<path opacity="0.2" d="M131.905 68.8242L75.9883 252.522L79.0478 252.503L133.915 68.8242H131.905Z" fill="white"/>
<path d="M133.146 205.384C133.185 207.204 132.859 209.015 132.188 210.708C131.516 212.401 130.513 213.942 129.237 215.241C127.961 216.541 126.438 217.571 124.757 218.273C123.076 218.975 121.272 219.333 119.451 219.326C115.735 219.312 112.172 217.846 109.522 215.241C106.872 212.636 105.345 209.099 105.267 205.384C105.228 203.563 105.555 201.754 106.226 200.062C106.898 198.369 107.902 196.829 109.178 195.53C110.454 194.231 111.977 193.201 113.657 192.5C115.337 191.799 117.141 191.441 118.961 191.447C122.677 191.46 126.24 192.924 128.89 195.528C131.54 198.132 133.068 201.669 133.146 205.384Z" fill="white" stroke="#263238" stroke-linecap="round" stroke-linejoin="round"/>
<path d="M114.636 215.788C113.342 215.309 112.155 214.578 111.144 213.638C110.126 212.659 109.337 211.467 108.835 210.146C108.264 208.666 107.981 207.09 108.002 205.503C107.994 204.15 108.233 202.807 108.708 201.54C109.14 200.37 109.787 199.291 110.616 198.36C112.251 196.571 114.363 195.287 116.704 194.658C117.852 194.348 119.037 194.192 120.227 194.193C121.215 194.189 122.2 194.307 123.16 194.543C124.085 194.771 124.971 195.137 125.787 195.631C126.594 196.116 127.318 196.728 127.93 197.444C128.568 198.215 129.056 199.1 129.368 200.052C129.724 201.137 129.901 202.274 129.889 203.416C129.876 205.625 129.08 207.757 127.644 209.434C127.026 210.134 126.295 210.725 125.481 211.183C124.78 211.585 123.988 211.804 123.179 211.819C122.62 211.826 122.075 211.65 121.627 211.316C121.402 211.15 121.219 210.933 121.092 210.684C120.965 210.434 120.897 210.159 120.895 209.879C120.478 210.513 119.905 211.03 119.232 211.381C118.558 211.732 117.806 211.904 117.047 211.883C116.45 211.909 115.854 211.802 115.304 211.569C114.754 211.335 114.263 210.982 113.867 210.534C113.073 209.611 112.653 208.424 112.69 207.207C112.695 206.206 112.869 205.212 113.205 204.269C113.539 203.318 114.013 202.422 114.611 201.61C115.206 200.812 115.965 200.151 116.837 199.67C117.708 199.178 118.693 198.922 119.693 198.926C120.389 198.919 121.075 199.085 121.69 199.409C122.288 199.728 122.772 200.223 123.077 200.828L123.204 200.402C123.306 200.103 123.521 199.857 123.804 199.717C124.087 199.578 124.413 199.556 124.712 199.657C124.827 199.697 124.936 199.752 125.036 199.823C125.131 199.898 125.206 199.995 125.256 200.106C125.306 200.217 125.329 200.338 125.322 200.459C125.322 200.578 125.303 200.696 125.265 200.809L123.204 207.665C123.022 208.188 122.905 208.73 122.854 209.281C122.835 209.384 122.842 209.49 122.874 209.589C122.905 209.689 122.961 209.779 123.036 209.852C123.111 209.925 123.202 209.978 123.303 210.007C123.403 210.037 123.509 210.04 123.611 210.019C124.341 209.972 125.024 209.646 125.52 209.109C126.207 208.43 126.735 207.607 127.065 206.699C127.46 205.707 127.663 204.649 127.663 203.582C127.671 202.642 127.534 201.706 127.256 200.809C127.022 200.035 126.652 199.309 126.162 198.665C125.698 198.079 125.136 197.578 124.502 197.183C123.869 196.784 123.178 196.486 122.454 196.299C121.71 196.103 120.945 196.005 120.177 196.006C119.202 196.008 118.232 196.145 117.295 196.413C116.33 196.687 115.411 197.1 114.566 197.641C113.715 198.178 112.944 198.834 112.276 199.587C111.589 200.381 111.054 201.296 110.699 202.284C110.3 203.361 110.099 204.501 110.107 205.649C110.087 207.009 110.333 208.36 110.833 209.625C111.263 210.719 111.943 211.699 112.817 212.487C113.662 213.22 114.637 213.788 115.692 214.16C116.805 214.553 117.978 214.751 119.159 214.745C120.421 214.745 121.675 214.554 122.88 214.179C123 214.136 123.127 214.114 123.255 214.115C123.374 214.113 123.493 214.137 123.602 214.184C123.712 214.231 123.81 214.301 123.891 214.389C123.972 214.473 124.036 214.573 124.079 214.682C124.121 214.791 124.142 214.908 124.139 215.025C124.154 215.21 124.102 215.394 123.993 215.544C123.883 215.693 123.722 215.798 123.541 215.839C122.04 216.298 120.48 216.538 118.911 216.551C117.452 216.549 116.005 216.291 114.636 215.788ZM119.89 209.192C120.519 208.74 120.985 208.098 121.22 207.36L122.549 202.685L122.46 202.494C122.377 202.341 122.277 202.198 122.161 202.068C122.002 201.884 121.827 201.714 121.639 201.559C121.401 201.369 121.132 201.221 120.844 201.12C120.092 200.857 119.267 200.887 118.535 201.203C118.134 201.373 117.766 201.612 117.448 201.909C117.117 202.218 116.822 202.564 116.57 202.939C116.317 203.331 116.104 203.746 115.934 204.18C115.755 204.613 115.617 205.063 115.52 205.522C115.424 205.959 115.375 206.404 115.374 206.851C115.369 207.138 115.386 207.426 115.425 207.71C115.454 207.963 115.51 208.212 115.59 208.454C115.66 208.679 115.761 208.893 115.889 209.09C116.005 209.268 116.151 209.423 116.322 209.548C116.504 209.68 116.709 209.777 116.926 209.834C117.18 209.909 117.444 209.943 117.709 209.936C118.504 209.946 119.281 209.691 119.916 209.211L119.89 209.192Z" fill="#F2994A" stroke="#263238" stroke-linecap="round" stroke-linejoin="round"/>
<path d="M132.834 157.595C132.873 159.415 132.546 161.225 131.875 162.917C131.203 164.609 130.2 166.15 128.923 167.449C127.647 168.747 126.124 169.778 124.444 170.479C122.764 171.18 120.96 171.538 119.14 171.531C115.424 171.519 111.861 170.054 109.211 167.451C106.561 164.847 105.033 161.31 104.955 157.595C104.916 155.774 105.241 153.964 105.912 152.27C106.583 150.577 107.586 149.035 108.862 147.735C110.138 146.436 111.662 145.405 113.343 144.704C115.024 144.003 116.829 143.645 118.65 143.652C122.366 143.667 125.929 145.133 128.579 147.737C131.229 150.342 132.756 153.88 132.834 157.595Z" fill="white" stroke="#263238" stroke-linecap="round" stroke-linejoin="round"/>
<path d="M127.644 156.323C123.274 153.46 114.706 153.46 110.54 156.323C109.778 156.465 109.093 156.877 108.61 157.483C108.126 158.089 107.877 158.849 107.907 159.624C107.97 161.475 115.66 161.475 115.597 159.624C115.559 158.85 115.264 158.111 114.757 157.525C117.641 156.901 120.625 156.901 123.51 157.525C123.04 158.121 122.797 158.865 122.823 159.624C122.886 161.475 130.576 161.475 130.506 159.624C130.47 158.832 130.168 158.075 129.649 157.476C129.129 156.877 128.423 156.471 127.644 156.323Z" fill="#F2994A" stroke="#263238" stroke-linecap="round" stroke-linejoin="round"/>
<path d="M132.834 111.174C132.911 114.603 131.041 117.668 128.038 119.71V128.036L122.066 122.057C121.1 122.23 120.121 122.315 119.14 122.312C111.443 122.312 105.089 117.325 104.955 111.174C104.822 105.023 110.947 100.043 118.65 100.043C126.353 100.043 132.732 105.055 132.834 111.174Z" fill="white" stroke="#263238" stroke-linecap="round" stroke-linejoin="round"/>
<path d="M112.957 111.175C112.958 111.533 112.853 111.883 112.655 112.18C112.458 112.478 112.176 112.711 111.846 112.849C111.516 112.986 111.153 113.023 110.802 112.954C110.451 112.885 110.128 112.713 109.875 112.461C109.622 112.209 109.449 111.887 109.379 111.536C109.309 111.186 109.344 110.822 109.481 110.492C109.617 110.161 109.849 109.879 110.146 109.68C110.443 109.481 110.793 109.375 111.15 109.375C111.628 109.375 112.087 109.564 112.425 109.902C112.764 110.239 112.955 110.697 112.957 111.175Z" fill="#F2994A" stroke="#263238" stroke-linecap="round" stroke-linejoin="round"/>
<path d="M120.685 111.175C120.686 111.533 120.582 111.883 120.384 112.18C120.186 112.478 119.904 112.711 119.574 112.849C119.244 112.986 118.881 113.023 118.53 112.954C118.179 112.885 117.857 112.713 117.604 112.461C117.35 112.209 117.178 111.887 117.107 111.536C117.037 111.186 117.073 110.822 117.209 110.492C117.346 110.161 117.577 109.879 117.874 109.68C118.172 109.481 118.521 109.375 118.879 109.375C119.357 109.375 119.815 109.564 120.154 109.902C120.492 110.239 120.683 110.697 120.685 111.175Z" fill="#F2994A" stroke="#263238" stroke-linecap="round" stroke-linejoin="round"/>
<path d="M128.414 111.175C128.415 111.533 128.31 111.883 128.112 112.18C127.915 112.478 127.633 112.711 127.303 112.849C126.973 112.986 126.61 113.023 126.259 112.954C125.908 112.885 125.585 112.713 125.332 112.461C125.079 112.209 124.906 111.887 124.836 111.536C124.766 111.186 124.801 110.822 124.938 110.492C125.074 110.161 125.306 109.879 125.603 109.68C125.9 109.481 126.25 109.375 126.607 109.375C127.085 109.375 127.544 109.564 127.882 109.902C128.221 110.239 128.412 110.697 128.414 111.175Z" fill="#F2994A" stroke="#263238" stroke-linecap="round" stroke-linejoin="round"/>
<path d="M191.442 139.243C191.442 139.243 169.275 146.113 165.103 140.687L165.669 113.012H169.033L172.99 132.507L191.156 129.181C191.156 129.181 193.484 136.394 191.442 139.243Z" fill="#EB5757"/>
<path d="M182.105 140.21C180.834 140.715 179.62 141.355 178.485 142.118C179.986 142.595 181.589 141.991 183.091 141.514C185.073 140.905 187.094 140.429 189.14 140.089C189.235 139.523 188.504 138.232 188.217 137.729C187.696 136.852 187.581 136.775 186.703 137.208C185.107 138.009 183.746 139.402 182.105 140.21Z" fill="#EB5757"/>
<path d="M191.442 139.243C191.442 139.243 169.275 146.113 165.103 140.687L165.669 113.012H169.033L172.99 132.507L191.156 129.181C191.156 129.181 193.484 136.394 191.442 139.243Z" stroke="#263238" stroke-linecap="round" stroke-linejoin="round"/>
<path d="M189.267 139.968L193.16 163.935C193.058 179.468 200.468 177.134 205.614 177.089C211.561 177.038 220.587 171.142 216.16 161.964L217.865 128.742L207.503 127.953C204.087 127.686 190.094 128.125 188.981 129.912C186.093 134.549 189.267 139.968 189.267 139.968Z" fill="#EB5757"/>
<path d="M189.877 141.945C192.189 150.691 197.733 158.234 205.391 163.05C204.562 162.919 203.752 162.686 202.98 162.357C202.204 162.022 201.333 161.975 200.525 162.223C200.33 162.294 200.15 162.402 199.997 162.542C199.844 162.681 199.719 162.85 199.631 163.038C199.543 163.226 199.493 163.429 199.484 163.637C199.475 163.844 199.506 164.051 199.577 164.246C199.763 164.544 200.015 164.795 200.315 164.977C201.578 165.865 202.959 166.572 204.418 167.077C203.138 166.945 201.846 167.044 200.601 167.369C200.372 168.476 201.606 169.277 202.579 169.818C204.132 170.733 205.462 171.983 206.472 173.475C203.057 173.483 199.644 173.678 196.251 174.061C195.803 174.161 195.335 174.116 194.915 173.933C194.474 173.606 194.178 173.12 194.088 172.579C193.332 169.932 192.892 167.206 192.778 164.456C192.714 162.91 192.778 161.352 192.574 159.819C192.41 158.61 192.185 157.411 191.9 156.225C190.912 151.637 190.155 147.013 189.629 142.352C189.394 142.371 189.877 141.945 189.877 141.945Z" fill="#EB5757"/>
<path d="M216.153 140.038C215.295 139.762 214.495 139.331 213.793 138.766C213.99 139.72 215.415 141.367 216.248 141.876C216.42 141.984 216.668 142.073 216.821 141.927C216.973 141.781 217.075 141.405 217.228 141.291L216.153 140.038Z" fill="#EB5757"/>
<path d="M189.267 139.968L193.16 163.935C193.058 179.468 200.468 177.134 205.614 177.089C211.561 177.038 220.587 171.142 216.16 161.964L217.865 128.742L207.503 127.953C204.087 127.686 190.094 128.125 188.981 129.912C186.093 134.549 189.267 139.968 189.267 139.968Z" stroke="#263238" stroke-linecap="round" stroke-linejoin="round"/>
<path d="M196.842 127.463C195.727 129.505 195.19 131.812 195.29 134.135C195.289 134.338 195.328 134.539 195.405 134.727C195.691 135.293 196.473 135.293 197.103 135.363C199.552 135.675 201.072 138.257 203.381 139.122C203.462 139.172 203.552 139.205 203.646 139.22C203.74 139.234 203.836 139.229 203.928 139.205C204.02 139.181 204.106 139.139 204.182 139.081C204.257 139.023 204.32 138.951 204.367 138.868C205.372 137.596 205.728 135.808 207.102 134.988C207.7 134.632 208.457 134.485 208.87 133.926C209.341 133.29 209.131 132.374 208.902 131.598C208.527 130.325 208.107 129.002 207.134 128.118C206.097 127.309 204.823 126.862 203.508 126.846C201.583 126.689 199.646 126.869 197.783 127.38C197.809 127.622 196.842 127.463 196.842 127.463Z" fill="#EB5757" stroke="#263238" stroke-linecap="round" stroke-linejoin="round"/>
<path d="M227.629 143.729C226.074 141.465 224.929 138.946 224.245 136.286C223.996 134.954 223.608 133.652 223.087 132.4C222.596 131.433 221.887 130.594 221.016 129.948C220.145 129.303 219.136 128.868 218.069 128.679C217.613 128.579 217.139 128.601 216.695 128.743C215.772 129.092 215.365 130.155 215.181 131.122C214.782 133.198 214.9 135.341 215.524 137.361C215.951 138.735 221.071 148.696 224.429 152.557C224.137 150.611 226.376 144.104 227.629 143.729Z" fill="#EB5757"/>
<path d="M217.585 141.775L220.727 147.697C221.179 148.543 221.688 149.446 222.565 149.815C222.013 147.858 221.699 145.842 221.63 143.811C221.665 142.79 221.547 141.769 221.281 140.783C221.153 140.891 221.02 140.433 221.02 140.433C220.88 140.694 220.511 140.7 220.225 140.643C218.17 140.21 216.758 138.378 215.537 136.674C215.378 137.245 215.353 137.845 215.463 138.427C215.573 139.01 215.816 139.559 216.173 140.032C216.173 140.032 217.483 141.578 217.585 141.775Z" fill="#EB5757"/>
<path d="M227.629 143.729C226.074 141.465 224.929 138.946 224.245 136.286C223.996 134.954 223.608 133.652 223.087 132.4C222.596 131.433 221.887 130.594 221.016 129.948C220.145 129.303 219.136 128.868 218.069 128.679C217.613 128.579 217.139 128.601 216.695 128.743C215.772 129.092 215.365 130.155 215.181 131.122C214.782 133.198 214.9 135.341 215.524 137.361C215.951 138.735 221.071 148.696 224.429 152.557C224.137 150.611 226.376 144.104 227.629 143.729Z" stroke="#263238" stroke-linecap="round" stroke-linejoin="round"/>
<path d="M223.214 150.852C219.792 144.294 221.445 129.181 221.344 126.751L225.86 126.51C226.311 126.51 228.404 139.397 229.829 144.746C231.101 149.618 229.88 154.548 227.628 154.548C225.758 154.548 223.932 152.233 223.214 150.852Z" fill="#EB5757" stroke="#263238" stroke-linecap="round" stroke-linejoin="round"/>
<path d="M182.436 133.825C185.616 129.181 191.856 128.812 191.856 128.812" stroke="#263238" stroke-linecap="round" stroke-linejoin="round"/>
<path d="M170.166 136.426C171.128 135.543 171.882 134.456 172.373 133.246L170.166 136.426Z" fill="#EB5757"/>
<path d="M170.166 136.426C171.128 135.543 171.882 134.456 172.373 133.246" stroke="#263238" stroke-linecap="round" stroke-linejoin="round"/>
<path d="M193.796 158.371C195.609 161.342 207.351 164.516 212.032 163.835" stroke="#263238" stroke-linecap="round" stroke-linejoin="round"/>
<path d="M197.116 166.753C200.499 167.335 203.965 167.203 207.293 166.365" stroke="#263238" stroke-linecap="round" stroke-linejoin="round"/>
<path d="M212.693 137.934L214.932 140.968C215.238 141.381 215.664 141.845 216.166 141.731" stroke="#263238" stroke-linecap="round" stroke-linejoin="round"/>
<path d="M229.332 253.024C229.135 253.832 229.072 254.792 229.651 255.397C230.229 256.001 231.069 255.988 231.851 255.975L234.542 255.925C235.579 255.976 236.617 255.814 237.589 255.448C238.075 255.259 238.491 254.925 238.781 254.491C239.071 254.058 239.221 253.546 239.211 253.024C239.144 252.621 239.016 252.23 238.829 251.866C238.587 251.345 238.346 250.817 238.11 250.295C235.14 243.75 230.605 247.732 229.332 253.024Z" fill="#EB5757" stroke="#263238" stroke-linecap="round" stroke-linejoin="round"/>
<path d="M225.542 245.309C225.636 248.314 225.385 251.319 224.792 254.265C224.652 254.933 224.792 255.944 225.428 255.881C225.677 255.843 225.904 255.713 226.064 255.518C228.402 253.212 230.074 250.318 230.904 247.141C231.029 246.811 231.087 246.46 231.075 246.107C231.063 245.754 230.981 245.407 230.834 245.087C230.66 244.829 230.445 244.602 230.198 244.412C228.042 242.689 225.345 240.978 225.542 245.309Z" fill="#EB5757" stroke="#263238" stroke-linecap="round" stroke-linejoin="round"/>
<path d="M218.157 168.428C218.157 168.428 221.51 174.254 222.228 175.609C222.947 176.964 238.13 196.917 241.043 211.445C241.59 214.206 230.389 245.081 230.389 245.081L227.845 243.643C227.845 243.643 229.613 215.484 229.181 213.144C228.748 210.803 217.572 193.527 217.572 193.527C217.572 193.527 211.332 188.941 208.763 183.611L218.157 168.428Z" fill="#263238"/>
<path d="M218.52 183.024C218.52 183.024 216.612 187.273 216.612 187.884C216.612 188.494 227.107 221.659 230.192 229.33C232.143 234.27 233.862 239.325 235.351 244.494C235.351 244.494 236.546 246.065 235.643 247.674C234.74 249.284 231.146 250.339 230.408 248.902C229.67 247.464 222.4 239.997 219.334 232.568C216.268 225.138 211.956 212.722 209.501 208.098C206.285 202.189 203.43 196.091 200.952 189.836C197.867 181.943 194.712 173.432 194.712 173.432C195.993 173.547 197.281 173.584 198.567 173.54C201.594 173.437 204.592 172.906 207.472 171.963C214.176 169.711 217.076 165.398 217.076 165.398C217.076 165.398 218.736 169.895 219.169 170.767L218.52 183.024Z" fill="#263238"/>
<path d="M225.765 126.515L224.429 126.623C222.736 126.924 220.998 126.843 219.34 126.388C218.278 126.127 215.817 125.364 215.524 125.313C214.793 125.156 214.054 125.037 213.311 124.957C211.065 124.823 212.204 123.983 213.139 124.022C214.373 124.079 214.786 124.053 215.734 124.123C215.619 124.06 215.27 123.99 215.263 123.716C215.263 123.048 216.141 123.08 216.141 123.08C216.141 123.08 215.181 122.673 215.314 122.171C215.448 121.668 216.09 121.534 216.497 121.573C216.497 121.573 215.957 121.312 215.982 121.032C216.097 119.951 218.316 119.874 218.316 119.874C217.779 119.634 217.277 119.324 216.822 118.952C216.655 118.773 216.539 118.554 216.485 118.316C216.473 118.203 216.491 118.088 216.539 117.985C216.586 117.881 216.661 117.792 216.754 117.727C216.848 117.662 216.957 117.623 217.071 117.615C217.185 117.607 217.298 117.629 217.4 117.68C217.975 118.062 218.529 118.474 219.061 118.914C219.748 119.404 220.543 119.715 221.268 120.154C221.974 120.759 222.545 121.507 222.941 122.349C223.055 122.527 225.765 126.515 225.765 126.515Z" fill="#FFB878"/>
<path d="M165.668 113.012V109.507C165.66 107.748 165.917 105.999 166.431 104.317C166.724 103.388 167.068 102.58 167.379 102.459C167.958 102.25 168.212 104.597 168.212 104.597C167.777 102.715 167.499 100.8 167.379 98.872C167.379 96.8302 170.127 105.309 170.127 105.309L169.033 113.012H165.668Z" fill="#FFB878"/>
<path d="M168.989 107.314C169.322 107.057 169.57 106.707 169.702 106.309L168.989 107.314Z" fill="#EB5757"/>
<path d="M168.989 107.314C169.322 107.057 169.57 106.707 169.702 106.309" stroke="#263238" stroke-linecap="round" stroke-linejoin="round"/>
<path d="M195.628 120.319C196.816 122.32 197.473 124.59 197.536 126.916C197.651 130.783 202.129 136.196 203.407 136.457C204.686 136.717 205.869 130.35 205.811 128.423C205.754 126.496 205.042 121.172 205.042 121.172C205.042 121.172 198.916 116.541 195.628 120.319Z" fill="#FFB878"/>
<path d="M197.428 125.441C197.428 125.441 203.299 133.449 205.601 125.307C207.904 117.166 199.145 127.534 197.428 125.441Z" fill="#263238"/>
<path d="M207.338 119.684C207.026 124.436 204.857 127.107 202.358 127.578C200.074 127.998 196.735 125.67 195.068 122.216C194.941 122.133 192.912 120.727 192.428 120.384C192.176 120.207 191.97 119.972 191.828 119.698C191.686 119.425 191.613 119.121 191.614 118.813C191.63 118.517 191.735 118.233 191.914 117.997C192.093 117.761 192.339 117.585 192.619 117.49H192.677C192.963 117.427 193.261 117.449 193.535 117.553C193.115 115.931 192.772 114.284 192.511 112.624C192.632 108.807 193.898 105.691 197.969 105.385C202.039 105.08 205.442 107.357 205.601 108.998C205.716 110.27 206.129 113.635 206.498 117.114C206.6 118.018 207.408 118.615 207.338 119.684Z" fill="#FFB878"/>
<path d="M205.601 114.188C205.601 114.188 202.981 112.986 203.426 116.892C203.515 117.661 204.946 118.8 204.946 118.8C204.946 118.8 204.577 119.951 203.897 119.951" fill="#FFB878"/>
<path d="M200.538 115.524C200.538 115.524 199.203 114.71 198.287 115.213C197.809 115.42 197.402 115.763 197.116 116.199" fill="#FFB878"/>
<path d="M199.775 117.777C199.876 118.248 199.775 118.667 199.501 118.725C199.228 118.782 198.96 118.438 198.865 117.968C198.77 117.497 198.865 117.077 199.145 117.02C199.425 116.963 199.679 117.3 199.775 117.777Z" fill="#263238"/>
<path d="M204.94 116.402C205.041 116.873 204.94 117.293 204.666 117.35C204.393 117.407 204.126 117.064 204.03 116.599C203.935 116.135 204.03 115.702 204.304 115.652C204.577 115.601 204.844 115.938 204.94 116.402Z" fill="#263238"/>
<path d="M192.205 107.694C191.74 108.15 191.418 108.731 191.277 109.367C190.896 110.712 190.786 112.119 190.953 113.507C191.12 114.895 191.561 116.236 192.25 117.452C192.674 117.4 193.104 117.417 193.522 117.503C193.967 117.617 194.54 118.38 194.75 118.775C194.934 119.195 195.039 119.646 195.061 120.104C194.96 118.896 194.864 117.693 194.762 116.485C194.694 116.002 194.716 115.51 194.826 115.035C195.138 114.042 194.794 111.702 194.883 109.609C197.523 112.834 201.358 112.261 202.631 112.153C204.539 111.994 206.167 110.041 206.065 108.648C205.964 107.255 205.588 103.668 199.298 103.299C197.912 103.152 196.514 103.443 195.303 104.132C194.919 104.385 194.593 104.717 194.346 105.105C194.1 105.493 193.938 105.929 193.872 106.384C193.783 106.969 194.005 107.02 193.56 107.306C193.115 107.593 192.644 107.319 192.205 107.694Z" fill="#263238" stroke="#263238" stroke-linecap="round" stroke-linejoin="round"/>
<path d="M200.538 122.189C200.538 122.189 201.473 123.22 203.426 122.539L200.538 122.189Z" fill="#EB5757"/>
<path d="M200.538 122.189C200.538 122.189 201.473 123.22 203.426 122.539" stroke="#263238" stroke-linecap="round" stroke-linejoin="round"/>
</g>
<defs>
<filter id="filter0_d" x="0.5" y="0.449219" width="270" height="270" filterUnits="userSpaceOnUse" color-interpolation-filters="sRGB">
<feFlood flood-opacity="0" result="BackgroundImageFix"/>
<feColorMatrix in="SourceAlpha" type="matrix" values="0 0 0 0 0 0 0 0 0 0 0 0 0 0 0 0 0 0 127 0" result="hardAlpha"/>
<feMorphology radius="1" operator="dilate" in="SourceAlpha" result="effect1_dropShadow"/>
<feOffset dy="4"/>
<feGaussianBlur stdDeviation="2"/>
<feColorMatrix type="matrix" values="0 0 0 0 0 0 0 0 0 0 0 0 0 0 0 0 0 0 0.25 0"/>
<feBlend mode="normal" in2="BackgroundImageFix" result="effect1_dropShadow"/>
<feBlend mode="normal" in="SourceGraphic" in2="effect1_dropShadow" result="shape"/>
</filter>
</defs>
</svg>
