<svg width="1366" height="733" viewBox="0 0 1366 733" fill="none" xmlns="http://www.w3.org/2000/svg">
<g clip-path="url(#clip0)">
<rect width="1366" height="733" fill="white"/>
<g filter="url(#filter0_d)">
<path d="M194.5 282.74C-0.300003 134.484 -89.6667 213.947 -110 272.211V758.325L1475 785V583.886C1456.5 587.395 1398.7 598.346 1315.5 614.07C1211.5 633.725 1226.5 628.461 1171 557.211C1115.5 485.961 930 469.815 729.5 521.41C529 573.005 438 468.061 194.5 282.74Z" fill="#F2F2F2"/>
</g>
<path opacity="0.3" d="M430.811 664.436C430.811 671.606 384.649 677.317 327.667 677.317C270.685 677.317 224.523 671.558 224.523 664.436C224.523 657.315 270.71 651.556 327.667 651.556C384.624 651.556 430.811 657.339 430.811 664.436Z" fill="black"/>
<path opacity="0.3" d="M646.744 664.436C646.744 671.606 600.558 677.317 543.601 677.317C486.644 677.317 440.457 671.558 440.457 664.436C440.457 657.315 486.644 651.556 543.601 651.556C600.558 651.556 646.744 657.339 646.744 664.436Z" fill="black"/>
<path opacity="0.3" d="M932.778 664.436C932.778 671.606 886.616 677.317 829.659 677.317C772.702 677.317 726.516 671.558 726.516 664.436C726.516 657.315 772.677 651.556 829.659 651.556C886.641 651.556 932.778 657.339 932.778 664.436Z" fill="black"/>
<path opacity="0.3" d="M1171.72 664.436C1171.72 671.606 1125.54 677.317 1068.58 677.317C1011.62 677.317 965.336 671.558 965.336 664.436C965.336 657.315 1011.52 651.556 1068.48 651.556C1125.44 651.556 1171.72 657.339 1171.72 664.436Z" fill="black"/>
<path d="M840.807 287.624C840.807 287.624 836.574 304.352 836.574 307.172C836.572 308.916 836.37 310.655 835.973 312.358C835.973 312.358 826.931 322.705 828.134 325.573C829.595 327.803 831.687 329.592 834.17 330.735C834.17 330.735 838.979 347.463 843.813 348.562C848.778 349.447 853.798 350.022 858.841 350.283L860.645 364.071L884.74 360.63L878.729 339.935L881.233 322.108C881.233 322.108 885.441 314.652 881.233 302.584C877.025 290.516 867.983 289.942 861.947 289.942C854.864 289.514 847.808 288.74 840.807 287.624V287.624Z" fill="white" stroke="#263238" stroke-width="1.04742" stroke-linecap="round" stroke-linejoin="round"/>
<path d="M851.649 279.021C851.649 279.021 830.56 278.424 831.161 283.609C831.762 288.795 853.453 295.558 853.453 295.558C853.453 295.558 846.214 300.146 849.821 304.758C853.428 309.371 861.869 313.385 861.869 313.385C861.869 313.385 859.364 323.159 863.096 323.733C866.828 324.306 869.107 319.121 869.708 317.4C870.31 315.679 876.947 316.253 878.75 320.841C879.77 323.226 880.379 325.751 880.554 328.321C880.554 328.321 887.792 307.626 888.995 298.426C890.197 289.225 863.096 279.021 851.649 279.021Z" fill="#263238" stroke="#263238" stroke-width="1.04742" stroke-linecap="round" stroke-linejoin="round"/>
<path d="M865 324.019C865 324.019 872.289 308.724 876.647 316.252C881.005 323.78 879.152 331.618 874.869 332.455C870.585 333.291 867.004 334.103 867.004 334.103" fill="white"/>
<path d="M865 324.019C865 324.019 872.289 308.724 876.647 316.252C881.005 323.78 879.152 331.618 874.869 332.455C870.585 333.291 867.004 334.103 867.004 334.103" stroke="#263238" stroke-width="1.04742" stroke-linecap="round" stroke-linejoin="round"/>
<path d="M835.371 483.629C834.194 484.943 814.883 524.445 812.478 537.661C810.074 550.876 794.419 629.641 793.793 633.083C793.167 636.524 760.08 643.43 757.65 644.004C755.221 644.577 760.155 650.91 767.293 652.631C774.432 654.351 795.02 662.405 799.854 657.792C804.688 653.18 811.301 627.323 813.104 624.456C814.908 621.588 848.821 545.356 848.821 545.356C848.821 545.356 866.204 508.769 869.811 505.304C873.417 501.839 865.528 486.521 862.497 481.908C859.466 477.296 843.812 474.429 835.371 483.629Z" fill="#263238" stroke="#263238" stroke-width="1.04742" stroke-linecap="round" stroke-linejoin="round"/>
<path d="M831.76 484.132C831.76 484.132 840.201 522.654 844.409 536.443C848.347 548.024 854.272 558.902 861.941 568.633C866.776 574.965 890.27 630.766 890.27 630.766L893.876 639.393C893.876 639.393 892.674 642.834 886.062 647.422C879.449 652.01 860.739 659.49 865.573 661.235C870.407 662.979 889.668 662.955 898.71 662.382C906.495 661.855 913.793 658.574 919.174 653.181C922.806 649.143 913.163 637.648 913.163 635.354C913.163 633.06 892.073 562.945 890.871 559.48C889.668 556.015 883.632 531.329 883.632 531.329V503.25C883.632 503.25 886.663 498.088 886.663 486.522C886.663 474.955 877.621 472.709 877.621 472.709L828.203 477.321L831.76 484.132Z" fill="#263238" stroke="#263238" stroke-width="1.04742" stroke-linecap="round" stroke-linejoin="round"/>
<path d="M827.578 480.762C827.578 480.762 828.805 490.536 832.412 491.109C836.019 491.683 873.364 501.457 889.645 489.962C889.645 489.962 892.65 481.335 890.847 479.041C889.043 476.747 884.811 477.894 863.145 477.894C841.479 477.894 827.578 477.894 827.578 480.762Z" fill="#407BFF" stroke="#263238" stroke-width="1.04742" stroke-linecap="round" stroke-linejoin="round"/>
<path d="M882.962 352.004C882.962 352.004 860.67 354.872 851.027 363.953C841.384 373.034 832.968 389.833 828.76 405.343C824.553 420.852 821.522 477.775 827.533 480.643C833.544 483.511 884.165 486.402 892.655 483.033C901.146 479.663 892.054 452.564 892.054 442.216C892.054 431.869 901.697 396.811 899.894 377.287C898.091 357.763 882.962 352.004 882.962 352.004Z" fill="#407BFF" stroke="#263238" stroke-width="1.04742" stroke-linecap="round" stroke-linejoin="round"/>
<path d="M802.532 411.746C802.256 388.088 792.137 367.895 778.687 359.172V354.393L741.617 354.751C720.753 354.966 704.047 381.038 704.473 412.821C704.899 444.605 722.006 470.342 742.895 470.175L779.964 469.817V465.037C792.989 455.789 802.657 435.404 802.532 411.746Z" fill="#263238" stroke="#263238" stroke-width="1.04742" stroke-linecap="round" stroke-linejoin="round"/>
<path d="M819.167 411.58C818.892 386.727 808.848 365.506 794.721 356.282V351.191L778.842 351.359C756.901 351.574 739.443 378.888 739.818 412.368C740.194 445.849 758.253 472.805 780.194 472.59L796.074 472.422V467.356C809.875 457.845 819.443 436.337 819.167 411.58Z" fill="white" stroke="#263238" stroke-width="1.04742" stroke-linecap="round" stroke-linejoin="round"/>
<path d="M835.098 411.412C835.474 444.868 817.991 472.207 796.075 472.422C774.159 472.637 756 445.681 755.699 412.225C755.399 378.769 772.806 351.43 794.722 351.191C816.639 350.952 834.672 377.932 835.098 411.412Z" fill="#737373" stroke="#263238" stroke-width="1.04742" stroke-linecap="round" stroke-linejoin="round"/>
<path d="M825.98 410.385C826.156 426.229 817.865 439.181 807.471 439.301C797.076 439.42 788.51 426.611 788.335 410.624C788.159 394.637 796.45 381.947 806.845 381.708C817.239 381.469 825.805 394.517 825.98 410.385Z" fill="#263238" stroke="#263238" stroke-width="1.04742" stroke-linecap="round" stroke-linejoin="round"/>
<path d="M1121.13 529.537C1123.2 514.807 1124.08 499.947 1123.76 485.088C1115.62 488.672 1068.13 489.987 1063.78 490.082C1059.42 490.178 1011.93 488.672 1003.79 485.088C1003.43 499.944 1004.27 514.804 1006.29 529.537C1009.57 548.918 1038.43 626.512 1039.08 630.264C1039.92 633.882 1041.02 637.443 1042.36 640.922C1042.36 640.922 1025.95 652.178 1018.74 656.551C1011.53 660.924 1016.79 662.812 1024 662.812C1031.21 662.812 1046.29 660.924 1050.88 660.924C1054.93 660.924 1062 657.555 1063.65 656.742C1065.3 657.555 1072.37 660.924 1076.4 660.924C1081.01 660.924 1096.09 662.812 1103.3 662.812C1110.51 662.812 1115.82 660.924 1108.56 656.551C1101.3 652.178 1084.94 640.922 1084.94 640.922C1086.28 637.443 1087.38 633.882 1088.22 630.264C1089 626.44 1117.85 548.846 1121.13 529.537Z" fill="#263238" stroke="#263238" stroke-width="1.04742" stroke-linecap="round" stroke-linejoin="round"/>
<path d="M1053.86 363.427C1053.86 363.427 1028.48 371.337 1015.39 379.271C1002.29 387.205 989.136 430.172 989.136 431.845C988.383 434.839 987.36 437.765 986.08 440.591C986.08 440.591 972.955 437.676 970.35 448.095C967.746 458.514 983.45 471.873 991.766 472.303C1000.08 472.733 1002.69 470.224 1002.69 470.224C1002.69 470.224 997.451 480.237 999.63 484.395C1001.81 488.553 1020.19 504.014 1056.49 503.513C1092.78 503.011 1119.1 497.252 1122.94 492.257C1126.77 487.262 1127.32 476.819 1127.32 476.819C1127.32 476.819 1140.87 473.474 1145.68 465.134C1150.49 456.793 1149.61 448.023 1146.98 439.277C1144.35 430.53 1130.8 405.128 1121.63 390.933C1112.47 376.738 1093.21 368.828 1084.06 366.318C1074.92 363.809 1059.97 363.427 1053.86 363.427Z" fill="#407BFF" stroke="#263238" stroke-width="1.04742" stroke-linecap="round" stroke-linejoin="round"/>
<path d="M1061.55 398.556C1065.18 397.409 1076.57 387.754 1080.96 378.1C1082.69 374.404 1083.91 370.507 1084.59 366.509L1084.01 366.342C1074.85 363.833 1059.97 363.427 1053.96 363.427C1053.96 363.427 1048.65 365.076 1041.63 367.633C1041.68 372.798 1042.69 377.914 1044.64 382.736C1048.6 392.39 1058.01 399.727 1061.55 398.556Z" fill="white" stroke="#263238" stroke-width="1.04742" stroke-linecap="round" stroke-linejoin="round"/>
<path d="M1103.25 418.056C1103.25 418.056 1113.74 471.466 1125.64 476.962" stroke="#263238" stroke-width="1.04742" stroke-linecap="round" stroke-linejoin="round"/>
<path d="M1002.68 470.223C1002.68 470.223 1015.8 423.074 1016.68 418.485" stroke="#263238" stroke-width="1.04742" stroke-linecap="round" stroke-linejoin="round"/>
<path d="M1120.21 442.191C1120.21 442.191 1112.94 443.745 1112.94 448.763" stroke="#263238" stroke-width="1.04742" stroke-linecap="round" stroke-linejoin="round"/>
<path d="M996.797 442.956C996.797 442.956 1004.89 447.975 1004.09 455.693" stroke="#263238" stroke-width="1.04742" stroke-linecap="round" stroke-linejoin="round"/>
<path d="M1051 660.972C1055.06 660.972 1062.12 657.602 1063.78 656.79C1065.43 657.602 1072.49 660.972 1076.53 660.972C1081.13 660.972 1096.21 662.86 1103.43 662.86C1110.64 662.86 1115.95 660.972 1108.69 656.599C1102.4 652.799 1089.22 643.813 1085.87 641.519C1078.13 648.258 1062.83 646.586 1062.83 646.586C1059.72 646.14 1056.66 645.517 1053.63 644.722C1049.05 643.455 1042.49 640.97 1042.49 640.97C1042.49 640.97 1026.08 652.225 1018.87 656.599C1011.65 660.972 1016.91 662.86 1024.13 662.86C1031.34 662.86 1046.42 660.972 1051 660.972Z" fill="#407BFF" stroke="#263238" stroke-width="1.04742" stroke-linecap="round" stroke-linejoin="round"/>
<path d="M1062.82 641.065V531.95" stroke="white" stroke-width="1.04742" stroke-linecap="round" stroke-linejoin="round"/>
<path d="M1063.78 656.669L1062.82 646.465V641.064" stroke="#263238" stroke-width="1.04742" stroke-linecap="round" stroke-linejoin="round"/>
<path d="M1053.63 528.197H1072.64" stroke="white" stroke-width="1.04742" stroke-linecap="round" stroke-linejoin="round"/>
<path d="M1028.79 300.815C1028.79 300.815 1015.16 308.606 1017.19 315.44C1019.22 322.275 1025.38 323.589 1024.03 327.389C1022.68 331.188 1017.94 333.578 1023.33 335.968C1026.39 337.278 1029.6 338.264 1032.89 338.907C1032.89 338.907 1037.9 355.492 1046.52 358.407C1055.14 361.323 1070.06 359.387 1080.63 358.097C1084.21 357.763 1087.58 356.4 1090.32 354.189C1093.06 351.978 1095.03 349.023 1095.96 345.718C1096.99 342.157 1091.53 346.387 1088.8 342.468C1086.07 338.549 1090.18 328.488 1093.23 319.694C1096.29 310.9 1087.1 294.315 1075.17 288.795C1063.25 283.274 1040.48 286.166 1028.79 300.815Z" fill="#263238" stroke="#263238" stroke-width="1.04742" stroke-linecap="round" stroke-linejoin="round"/>
<path d="M1051.68 357.475C1049.95 362.93 1048.77 368.532 1048.17 374.203C1047.72 381.372 1053.86 389.235 1060.42 388.804C1066.98 388.374 1072.64 375.876 1073.52 369.687C1074.4 363.497 1071.34 346.745 1071.34 346.745C1071.34 346.745 1061.32 347.175 1057.34 350.497C1055 352.455 1053.08 354.824 1051.68 357.475V357.475Z" fill="white" stroke="#263238" stroke-width="1.04742" stroke-linecap="round" stroke-linejoin="round"/>
<path d="M1042.79 309.92C1042.79 309.92 1043.11 319.67 1053.36 329.038C1059.51 334.719 1066.82 339.15 1074.82 342.062C1074.64 344.197 1074.07 346.285 1073.12 348.227C1072.67 349.039 1071.98 349.703 1071.13 350.129C1070.28 350.556 1069.31 350.726 1068.36 350.617H1064.93C1064.93 350.617 1059.92 361.825 1053.86 363.45C1047.8 365.075 1032.89 363.952 1030.84 349.637C1028.78 335.323 1028.46 323.613 1030.16 320.674C1031.87 317.734 1042.79 309.92 1042.79 309.92Z" fill="white" stroke="#263238" stroke-width="1.04742" stroke-linecap="round" stroke-linejoin="round"/>
<path d="M1149.96 435.859C1151.52 432.87 1152.46 429.626 1152.74 426.3C1152.74 421.951 1144.28 415.714 1142.72 414.161C1141.17 412.607 1139.62 412.774 1139.29 414.949C1139.29 416.17 1139.55 417.378 1140.05 418.501C1140.55 419.623 1141.29 420.634 1142.22 421.473C1143.49 422.428 1144.41 423.741 1144.85 425.225C1145 426.3 1142.05 431.582 1143.53 434.999C1145 438.416 1149.16 439.444 1149.96 435.859Z" fill="white" stroke="#263238" stroke-width="1.04742" stroke-linecap="round" stroke-linejoin="round"/>
<path d="M810.75 411.46C810.75 411.46 847.619 422.716 869.786 449.003C891.952 475.29 906.505 471.514 934.056 462.767C961.608 454.021 972.103 422.716 1010.15 449.003C1048.2 475.29 1056.06 485.279 1087.54 470.271C1119.03 455.264 1136.06 418.964 1164.94 431.462C1193.82 443.96 1180.67 507.933 1183.3 539C1185.93 570.066 1181.97 647.9 1188.53 657.913C1195.1 667.926 1366 648.5 1366 648.5" stroke="#263238" stroke-width="3.14226" stroke-linecap="round" stroke-linejoin="round"/>
<path d="M879.801 369.687C879.801 369.687 872.463 358.264 861.642 361.251C850.196 364.406 844.285 380.01 841.605 389.737C838.925 399.463 837.121 409.978 832.212 419.035C832.212 419.035 810.521 418.676 798.424 415.331C789.193 412.585 780.114 409.395 771.223 405.772C771.223 405.772 766.94 400.06 763.909 398.937C760.878 397.814 753.013 395.615 752.437 397.336C751.861 399.057 761.555 404.72 761.555 404.72C761.555 404.72 743.521 407.11 741.717 408.95C739.914 410.79 754.466 416.287 754.466 416.287C754.466 416.287 759.901 417.959 773.126 414.948C773.126 414.948 821.642 444.342 831.31 447.711C840.978 451.081 846.339 452.156 852.926 440.017C859.513 427.877 881.379 397.766 884.861 385.65" fill="#407BFF"/>
<path d="M879.801 369.687C879.801 369.687 872.463 358.264 861.642 361.251C850.196 364.406 844.285 380.01 841.605 389.737C838.925 399.463 837.121 409.978 832.212 419.035C832.212 419.035 810.521 418.676 798.424 415.331C789.193 412.585 780.114 409.395 771.223 405.772C771.223 405.772 766.94 400.06 763.909 398.937C760.878 397.814 753.013 395.615 752.437 397.336C751.861 399.057 761.555 404.72 761.555 404.72C761.555 404.72 743.521 407.11 741.717 408.95C739.914 410.79 754.466 416.287 754.466 416.287C754.466 416.287 759.901 417.959 773.126 414.948C773.126 414.948 821.642 444.342 831.31 447.711C840.978 451.081 846.339 452.156 852.926 440.017C859.513 427.877 881.379 397.766 884.861 385.65" stroke="#263238" stroke-width="1.04742" stroke-linecap="round" stroke-linejoin="round"/>
<path d="M783.824 410.647C776.736 408.114 771.301 405.868 771.301 405.868C771.301 405.868 767.018 400.156 763.987 399.033C760.956 397.91 753.092 395.711 752.516 397.432C751.939 399.153 761.633 404.816 761.633 404.816C761.633 404.816 743.599 407.206 741.795 409.046C739.992 410.886 754.544 416.383 754.544 416.383C754.544 416.383 759.98 418.055 773.204 415.044L779.992 419.131L783.824 410.647Z" fill="white" stroke="#263238" stroke-width="1.04742" stroke-linecap="round" stroke-linejoin="round"/>
<path d="M970.827 440.256C969.273 437.267 968.329 434.023 968.047 430.697C968.047 426.348 976.538 420.135 978.066 418.581C979.594 417.028 981.146 417.195 981.472 419.37C981.476 420.591 981.219 421.799 980.715 422.921C980.211 424.044 979.471 425.055 978.542 425.894C977.272 426.849 976.352 428.162 975.912 429.646C975.761 430.697 978.717 436.003 977.239 439.42C975.761 442.837 971.629 443.817 970.827 440.256Z" fill="white" stroke="#263238" stroke-width="1.04742" stroke-linecap="round" stroke-linejoin="round"/>
<path d="M976.662 427.136C976.662 427.136 969.674 439.443 973.732 443.864C977.789 448.285 981.722 433.923 982.473 429.956C983.224 425.989 979.242 421.998 976.662 427.136Z" fill="white" stroke="#263238" stroke-width="1.04742" stroke-linecap="round" stroke-linejoin="round"/>
<path d="M982.42 431.556C982.42 431.556 975.432 443.863 979.489 448.284C983.547 452.705 987.479 438.343 988.231 434.376C988.982 430.409 985 426.275 982.42 431.556Z" fill="white" stroke="#263238" stroke-width="1.04742" stroke-linecap="round" stroke-linejoin="round"/>
<path d="M988.756 432.584C988.756 432.584 981.768 444.891 985.825 449.312C989.883 453.733 993.815 439.371 994.567 435.404C995.318 431.437 991.336 427.422 988.756 432.584Z" fill="white" stroke="#263238" stroke-width="1.04742" stroke-linecap="round" stroke-linejoin="round"/>
<path d="M996.874 432.68C996.874 432.68 990.361 442.239 993.918 445.848C997.475 449.456 1001.31 438.105 1002.06 434.831C1002.81 431.557 999.278 428.379 996.874 432.68Z" fill="white" stroke="#263238" stroke-width="1.04742" stroke-linecap="round" stroke-linejoin="round"/>
<path d="M1145.31 427.615C1145.31 427.615 1152.29 439.922 1148.24 444.343C1144.18 448.764 1140.25 434.378 1139.5 430.411C1138.74 426.444 1142.73 422.453 1145.31 427.615Z" fill="white" stroke="#263238" stroke-width="1.04742" stroke-linecap="round" stroke-linejoin="round"/>
<path d="M1139.54 431.917C1139.54 431.917 1146.53 444.224 1142.47 448.645C1138.42 453.066 1134.48 438.68 1133.73 434.713C1132.98 430.746 1136.96 426.779 1139.54 431.917Z" fill="white" stroke="#263238" stroke-width="1.04742" stroke-linecap="round" stroke-linejoin="round"/>
<path d="M1133.15 433.063C1133.15 433.063 1140.14 445.37 1136.08 449.791C1132.02 454.212 1128.09 439.849 1127.36 435.858C1126.64 431.868 1130.65 427.901 1133.15 433.063Z" fill="white" stroke="#263238" stroke-width="1.04742" stroke-linecap="round" stroke-linejoin="round"/>
<path d="M1125.09 433.16C1125.09 433.16 1131.6 442.838 1128.04 446.327C1124.49 449.816 1120.66 438.584 1119.93 435.31C1119.2 432.036 1122.68 428.858 1125.09 433.16Z" fill="white" stroke="#263238" stroke-width="1.04742" stroke-linecap="round" stroke-linejoin="round"/>
<path d="M263.322 569.327V582.9C258.385 588.048 254.835 594.265 252.978 601.014C249.947 612.103 240.454 659.826 242.959 661.068C245.464 662.311 269.033 667.449 276.547 666.374C285.163 665.131 292.502 665.561 288.169 661.021C283.836 656.48 261.068 643.791 261.068 643.791C261.068 643.791 286.115 609.235 291.676 596.474C297.236 583.713 298.138 563.974 298.138 563.974L264.525 562.755L263.322 569.327Z" fill="white" stroke="#263238" stroke-width="1.04742" stroke-linecap="round" stroke-linejoin="round"/>
<path d="M276.548 666.372C285.164 665.129 292.503 665.559 288.17 661.019C283.836 656.478 261.069 643.789 261.069 643.789L260.217 648.712L243.811 646.8C242.609 654.782 242.083 660.637 242.96 661.138C245.64 662.286 269.034 667.447 276.548 666.372Z" fill="#263238" stroke="#263238" stroke-width="1.04742" stroke-linecap="round" stroke-linejoin="round"/>
<path d="M345.673 576.351L349.556 582.947C347.946 585.907 347 589.154 346.775 592.482C346.551 595.811 347.054 599.147 348.253 602.28C352.135 613.798 361.203 656.168 361.203 658.629C361.203 661.091 366.788 662.74 371.221 662.74C375.655 662.74 387.928 663.552 389.656 663.552C391.384 663.552 403.883 665.607 408.191 663.146C412.499 660.684 402.705 655.738 396.243 652.87C389.781 650.002 375.554 642.594 375.554 642.594C375.554 642.594 378.986 608.851 378.986 594.035C378.986 579.219 382.442 574.296 377.708 565.239C372.975 556.182 343.219 569.373 343.219 569.373L345.673 576.351Z" fill="white" stroke="#263238" stroke-width="1.04742" stroke-linecap="round" stroke-linejoin="round"/>
<path d="M396.124 652.87C389.661 649.978 375.435 642.594 375.435 642.594L373.706 648.759L359.855 651.149C360.682 655.259 361.208 658.079 361.208 658.653C361.208 661.043 366.793 662.763 371.227 662.763C375.66 662.763 387.933 663.576 389.661 663.576C391.39 663.576 403.888 665.631 408.196 663.169C412.504 660.708 402.586 655.737 396.124 652.87Z" fill="#263238" stroke="#263238" stroke-width="1.04742" stroke-linecap="round" stroke-linejoin="round"/>
<path d="M322.458 302.512C319.078 297 315.216 291.772 310.912 286.883C304.975 280.502 286.365 280.861 278.2 289.272C270.035 297.684 272.615 312.692 275.695 316.945C278.776 321.199 284.988 341.082 284.988 341.082L286.466 355.277L321.056 366.986L313.992 343.926C313.992 343.926 327.392 341.536 328.495 337.545C329.597 333.554 326.265 320.148 326.265 320.148C326.265 320.148 330.724 317.304 330.348 314.819C329.972 312.333 322.458 302.512 322.458 302.512Z" fill="white" stroke="#263238" stroke-width="1.04742" stroke-linecap="round" stroke-linejoin="round"/>
<path d="M282.659 317.806C282.659 317.806 288.57 322.586 291.801 317.113C295.032 311.641 297.487 306.288 297.487 301.652C297.487 297.015 285.339 293.168 293.429 290.061C301.519 286.955 307.355 293.861 310.962 286.931C314.569 280.001 311.288 279.26 291.851 279.26C272.415 279.26 262.697 288.532 266.804 300.122C270.089 308.681 274.154 316.95 278.952 324.832L282.659 317.806Z" fill="#263238" stroke="#263238" stroke-width="1.04742" stroke-linecap="round" stroke-linejoin="round"/>
<path d="M323.561 310.709C323.561 312.462 323.016 314.176 321.995 315.634C320.974 317.092 319.523 318.229 317.825 318.9C316.127 319.571 314.259 319.746 312.456 319.404C310.654 319.062 308.998 318.218 307.698 316.978C306.399 315.738 305.514 314.158 305.155 312.438C304.797 310.718 304.981 308.936 305.684 307.316C306.387 305.696 307.578 304.311 309.106 303.337C310.635 302.363 312.431 301.843 314.269 301.843C316.733 301.843 319.097 302.777 320.84 304.44C322.582 306.102 323.561 308.357 323.561 310.709V310.709Z" stroke="#263238" stroke-width="1.04742" stroke-linecap="round" stroke-linejoin="round"/>
<path d="M322.207 302.847C323.288 302.425 324.445 302.206 325.613 302.202C327.548 302.206 329.427 302.821 330.956 303.953C332.485 305.085 333.577 306.668 334.061 308.456C334.545 310.243 334.394 312.133 333.631 313.83C332.869 315.526 331.537 316.934 329.846 317.831" stroke="#263238" stroke-width="1.04742" stroke-linecap="round" stroke-linejoin="round"/>
<path d="M304.973 310.708L282.656 317.806" stroke="#263238" stroke-width="1.04742" stroke-linecap="round" stroke-linejoin="round"/>
<path d="M289.073 322.417C289.073 322.417 284.615 313.551 280.157 315.248C275.698 316.945 277.928 330.877 282.386 332.287C283.884 332.609 285.441 332.583 286.927 332.213C288.413 331.843 289.785 331.139 290.927 330.16C290.927 330.16 294.659 337.616 299.117 339.719" fill="white"/>
<path d="M289.073 322.417C289.073 322.417 284.615 313.551 280.157 315.248C275.698 316.945 277.928 330.877 282.386 332.287C283.884 332.609 285.441 332.583 286.927 332.213C288.413 331.843 289.785 331.139 290.927 330.16C290.927 330.16 294.659 337.616 299.117 339.719" stroke="#263238" stroke-width="1.04742" stroke-linecap="round" stroke-linejoin="round"/>
<path d="M259.815 481.742L257.034 515.724L248.719 566.027C248.719 566.027 268.155 580.581 286.289 580.581C304.423 580.581 309.408 578.382 309.408 578.382L319.577 526.764L329.746 581.035C329.746 581.035 349.783 577.952 363.058 574.845C372.289 572.395 381.037 568.52 388.957 563.375L362.132 496.749L356.321 462.385C356.321 462.385 326.264 465.037 308.205 465.922C290.146 466.806 266.126 462.385 266.126 462.385L259.815 481.742Z" fill="#407BFF" stroke="#263238" stroke-width="1.04742" stroke-linecap="round" stroke-linejoin="round"/>
<path d="M278.874 345.956C278.874 345.956 321.454 360.127 334.603 373.892C341.867 381.539 350.007 433.875 352.938 446.66C355.868 459.445 360.978 484.895 360.978 484.895C360.978 484.895 335.004 496.079 314.916 496.485C294.829 496.892 256.281 488.097 256.281 488.097C256.281 488.097 260.865 431.389 260.865 405.03C260.865 378.672 261.291 361.466 265.874 353.078C265.899 353.149 273.438 345.144 278.874 345.956Z" fill="#263238" stroke="#263238" stroke-width="1.04742" stroke-linecap="round" stroke-linejoin="round"/>
<path d="M267.679 492.208C267.679 492.208 269.983 529.273 267.679 542.966C266.061 551.8 263.266 560.401 259.363 568.56" stroke="#263238" stroke-width="1.04742" stroke-linecap="round" stroke-linejoin="round"/>
<path d="M268.609 509.869C272.087 508.729 275.195 506.747 277.627 504.116C280.06 501.485 281.734 498.296 282.485 494.861" stroke="#263238" stroke-width="1.04742" stroke-linecap="round" stroke-linejoin="round"/>
<path d="M251.023 558.858C251.023 558.858 274.167 577.833 310.235 570.807" stroke="#263238" stroke-width="1.04742" stroke-linecap="round" stroke-linejoin="round"/>
<path d="M328.742 569.875C328.742 569.875 366.663 565.908 383.32 555.321" stroke="#263238" stroke-width="1.04742" stroke-linecap="round" stroke-linejoin="round"/>
<path d="M498.365 328.8C498.365 328.8 494.708 331.381 481.959 340.271C469.21 349.161 479.254 362.591 479.254 362.591C479.254 362.591 470.137 363.953 457.964 376.165C445.791 388.376 463.399 409.334 479.855 412.608C496.311 415.882 515.547 396.453 521.308 378.435C527.069 360.416 519.454 333.245 515.622 327.629C511.79 322.013 498.365 328.8 498.365 328.8Z" fill="#263238" stroke="#263238" stroke-width="1.04742" stroke-linecap="round" stroke-linejoin="round"/>
<path d="M546.653 326.409C546.653 326.409 552.989 317.065 547.254 303.515C541.518 289.965 524.386 283.776 507.704 293.598C502.145 296.754 497.832 301.573 495.436 307.307C493.041 313.041 492.695 319.369 494.455 325.309C496.083 331.571 504.298 341.201 506.026 341.345C507.755 341.488 522.758 346.698 533.002 342.133C543.246 337.569 546.653 326.409 546.653 326.409Z" fill="#263238" stroke="#263238" stroke-width="1.04742" stroke-linecap="round" stroke-linejoin="round"/>
<path d="M472.938 641.855C472.938 641.855 484.835 659.515 505.499 662.526C526.162 665.537 507.578 647.853 504.096 645.176C500.614 642.5 475.743 636.717 472.938 641.855Z" fill="#737373" stroke="#263238" stroke-width="1.04742" stroke-linecap="round" stroke-linejoin="round"/>
<path d="M583.023 646.395C583.023 646.395 605.741 651.724 603.988 656.408C602.234 661.092 583.725 660.733 572.904 658.057C562.084 655.38 551.915 651.389 553.318 647.064C554.72 642.738 583.023 646.395 583.023 646.395Z" fill="#737373" stroke="#263238" stroke-width="1.04742" stroke-linecap="round" stroke-linejoin="round"/>
<path d="M518.424 361.539C518.424 361.539 488.017 365.793 482.456 376.045C476.896 386.297 484.735 442.145 484.735 442.145C484.735 442.145 471.761 469.459 471.586 487.048C471.41 504.636 479.626 535.583 478.975 543.302C478.323 551.021 470.008 638.891 470.008 641.281C470.008 643.671 487.541 649.024 512.813 651.891C538.086 654.759 586.426 646.18 586.426 646.18C586.426 646.18 585.475 594.323 588.004 563.4C590.534 532.476 586.927 504.684 580.49 493.141C574.053 481.599 544.072 440.042 544.072 440.042C544.072 440.042 558.599 414.902 559.501 403.909C560.402 392.916 555.719 387.181 544.748 374.539C541.488 370.81 537.48 367.739 532.96 365.507C528.439 363.275 523.497 361.926 518.424 361.539V361.539Z" fill="#407BFF" stroke="#263238" stroke-width="1.04742" stroke-linecap="round" stroke-linejoin="round"/>
<path d="M544.147 440.065C544.147 440.065 558.674 414.925 559.576 403.933C560.478 392.94 555.794 387.205 544.823 374.563C544.297 373.942 543.746 373.392 543.195 372.818L542.795 373.177C531.523 390.741 494.253 420.756 483.158 429.503C484.009 436.983 484.736 442.144 484.736 442.144C484.736 442.144 471.761 469.459 471.586 487.047C471.794 495.062 472.631 503.05 474.091 510.945C500.415 496.606 535.631 469.77 554.692 454.81C548.731 446.398 544.147 440.065 544.147 440.065Z" fill="#737373" stroke="#263238" stroke-width="1.04742" stroke-linecap="round" stroke-linejoin="round"/>
<path d="M512.812 341.035C513.653 347.594 514.113 354.191 514.19 360.798C513.789 365.697 515.442 376.881 524.209 380.394C532.975 383.907 538.486 379.008 538.461 374.085C538.143 370.019 537.301 366.006 535.956 362.136L536.206 348.634C536.206 348.634 521.078 339.601 512.812 341.035Z" fill="white" stroke="#263238" stroke-width="1.04742" stroke-linecap="round" stroke-linejoin="round"/>
<path d="M504.95 332.264C504.95 332.264 498.513 326.863 498.313 334.653C498.112 342.444 505.626 345.025 507.279 345.551C508.675 345.731 510.09 345.398 511.237 344.619C511.237 344.619 522.909 354.177 532.276 354.799C541.644 355.42 545.451 351.286 547.655 335.06C549.859 318.833 532.301 302.368 532.301 302.368C532.301 302.368 517.273 328.799 504.95 332.264Z" fill="white" stroke="#263238" stroke-width="1.04742" stroke-linecap="round" stroke-linejoin="round"/>
<path d="M361.708 484.561C361.622 481.792 362.099 479.033 363.11 476.436C364.663 473.186 373.129 471.322 375.008 470.701C376.886 470.079 377.838 470.701 377.287 472.397C376.849 473.309 376.221 474.127 375.442 474.801C374.663 475.474 373.748 475.99 372.754 476.316C371.458 476.613 370.293 477.29 369.422 478.252C368.946 479.017 369.247 483.916 366.918 485.995C364.588 488.074 360.931 487.5 361.708 484.561Z" fill="white" stroke="#263238" stroke-width="1.04742" stroke-linecap="round" stroke-linejoin="round"/>
<path d="M553.667 412.702C553.667 412.702 523.611 408.95 510.361 428.976C497.111 449.002 472.339 519.068 426.428 530.348C380.517 541.627 367.392 451.487 339.841 453.996C313.591 456.386 295.257 453.996 279.503 481.526C271.087 496.27 229.008 657.266 209.12 658.915C145.777 664.197 -3.5 677 -3.5 677" stroke="#263238" stroke-width="3.14226" stroke-linecap="round" stroke-linejoin="round"/>
<path d="M280.828 347.105C280.828 347.105 273.89 344.452 264.623 349.733C255.355 355.015 230.409 412.846 232.262 419.035C234.116 425.225 260.465 436.696 275.268 440.662C290.071 444.629 316.896 449.505 316.896 449.505C316.896 449.505 325.211 461.859 327.992 462.29C332.035 462.237 336.063 461.797 340.014 460.975C340.014 460.975 345.024 464.942 346.952 460.521C348.881 456.1 345.099 450.389 340.941 445.968C336.783 441.547 319.2 439.348 319.2 439.348L271.536 407.995L291.573 372.699" fill="#263238"/>
<path d="M280.828 347.105C280.828 347.105 273.89 344.452 264.623 349.733C255.355 355.015 230.409 412.846 232.262 419.035C234.116 425.225 260.465 436.696 275.268 440.662C290.071 444.629 316.896 449.505 316.896 449.505C316.896 449.505 325.211 461.859 327.992 462.29C332.035 462.237 336.063 461.797 340.014 460.975C340.014 460.975 345.024 464.942 346.952 460.521C348.881 456.1 345.099 450.389 340.941 445.968C336.783 441.547 319.2 439.348 319.2 439.348L271.536 407.995L291.573 372.699" stroke="#263238" stroke-width="1.04742" stroke-linecap="round" stroke-linejoin="round"/>
<path d="M327.992 462.266C332.036 462.214 336.064 461.773 340.015 460.952C340.015 460.952 345.024 464.918 346.953 460.497C348.882 456.076 345.099 450.365 340.942 445.944C336.784 441.523 319.201 439.324 319.201 439.324L271.536 407.995L278.65 395.353C260.841 384.767 249.019 385.556 242.632 387.682C236.245 402.308 231.386 416.168 232.238 419.012C234.091 425.201 260.441 436.672 275.243 440.639C290.046 444.606 316.871 449.481 316.871 449.481C316.871 449.481 325.212 461.836 327.992 462.266Z" fill="white" stroke="#263238" stroke-width="1.04742" stroke-linecap="round" stroke-linejoin="round"/>
<path d="M625.926 413.682C623.898 392.82 613.403 375.686 600.879 368.875L600.479 364.621L567.767 367.513C549.358 369.138 536.659 393.25 539.389 421.353C542.119 449.456 559.251 470.892 577.661 469.148L610.372 466.256L609.946 462.003C620.967 453.208 627.955 434.545 625.926 413.682Z" fill="#263238" stroke="#263238" stroke-width="1.04742" stroke-linecap="round" stroke-linejoin="round"/>
<path d="M640.726 412.44C638.597 390.526 628.203 372.484 614.953 365.314L614.502 360.846L600.501 362.088C581.164 363.809 567.814 389.116 570.67 418.653C573.525 448.19 591.559 470.726 610.895 469.005L624.897 467.762L624.471 463.293C636.043 453.878 642.855 434.282 640.726 412.44Z" fill="white" stroke="#263238" stroke-width="1.04742" stroke-linecap="round" stroke-linejoin="round"/>
<path d="M654.756 411.125C657.637 440.662 644.287 465.969 624.926 467.689C605.564 469.41 587.555 446.851 584.625 417.338C581.694 387.825 595.095 362.374 614.431 360.773C633.767 359.172 651.851 381.611 654.756 411.125Z" fill="white" stroke="#263238" stroke-width="1.04742" stroke-linecap="round" stroke-linejoin="round"/>
<path d="M669.78 393.872L615.453 398.651C614.691 398.72 613.922 398.645 613.191 398.43C612.46 398.215 611.781 397.864 611.192 397.398C610.603 396.931 610.116 396.359 609.76 395.713C609.404 395.067 609.185 394.36 609.116 393.633V393.633C609.044 392.906 609.122 392.173 609.348 391.475C609.573 390.777 609.941 390.129 610.429 389.567C610.918 389.005 611.518 388.541 612.196 388.201C612.873 387.861 613.614 387.653 614.376 387.587L668.703 382.807C669.465 382.738 670.233 382.813 670.964 383.028C671.696 383.243 672.375 383.594 672.964 384.06C673.553 384.527 674.039 385.099 674.395 385.745C674.752 386.392 674.971 387.098 675.04 387.826V387.826C675.112 388.552 675.033 389.286 674.808 389.983C674.582 390.681 674.215 391.329 673.726 391.891C673.237 392.453 672.637 392.917 671.96 393.257C671.283 393.597 670.542 393.806 669.78 393.872V393.872Z" fill="#737373" stroke="#263238" stroke-width="1.04742" stroke-linecap="round" stroke-linejoin="round"/>
<path d="M673.823 434.951L619.496 439.731C618.734 439.8 617.965 439.725 617.234 439.51C616.503 439.295 615.823 438.944 615.235 438.478C614.646 438.011 614.159 437.439 613.803 436.793C613.447 436.146 613.228 435.44 613.159 434.712V434.712C613.086 433.986 613.165 433.252 613.391 432.555C613.616 431.857 613.984 431.209 614.472 430.647C614.961 430.085 615.561 429.621 616.239 429.281C616.916 428.941 617.657 428.732 618.419 428.666L672.746 423.887C674.281 423.76 675.808 424.216 676.994 425.155C678.18 426.095 678.93 427.442 679.083 428.905V428.905C679.155 429.632 679.076 430.366 678.851 431.063C678.625 431.761 678.258 432.409 677.769 432.971C677.28 433.533 676.68 433.997 676.003 434.337C675.326 434.677 674.585 434.886 673.823 434.951V434.951Z" fill="#737373" stroke="#263238" stroke-width="1.04742" stroke-linecap="round" stroke-linejoin="round"/>
<path d="M499.641 365.435C499.641 365.435 486.566 367.824 480.38 374.993C474.193 382.163 461.494 437.485 464.425 443.842C467.355 450.198 514.318 458.18 528.821 459.327C540.482 459.767 552.162 459.272 563.736 457.845C563.736 457.845 576.26 457.535 579.691 456.985C583.122 456.436 589.434 453.209 589.534 451.991C589.635 450.772 589.008 447.856 584.325 447.498C579.641 447.139 569.597 443.937 568.32 443.842C571.329 443.086 574.382 442.496 577.462 442.073C577.462 442.073 578.113 439.683 572.953 439.683C567.794 439.683 563.11 439.349 561.156 442.073C559.759 444.196 558.569 446.435 557.6 448.765C557.6 448.765 528.67 450.7 512.966 443.388C497.261 436.075 492.302 433.637 492.302 433.637L503.573 390.622" fill="#407BFF"/>
<path d="M499.641 365.435C499.641 365.435 486.566 367.824 480.38 374.993C474.193 382.163 461.494 437.485 464.425 443.842C467.355 450.198 514.318 458.18 528.821 459.327C540.482 459.767 552.162 459.272 563.736 457.845C563.736 457.845 576.26 457.535 579.691 456.985C583.122 456.436 589.434 453.209 589.534 451.991C589.635 450.772 589.008 447.856 584.325 447.498C579.641 447.139 569.597 443.937 568.32 443.842C571.329 443.086 574.382 442.496 577.462 442.073C577.462 442.073 578.113 439.683 572.953 439.683C567.794 439.683 563.11 439.349 561.156 442.073C559.759 444.196 558.569 446.435 557.6 448.765C557.6 448.765 528.67 450.7 512.966 443.388C497.261 436.075 492.302 433.637 492.302 433.637L503.573 390.622" stroke="#263238" stroke-width="1.04742" stroke-linecap="round" stroke-linejoin="round"/>
<path d="M579.618 457.056C583.099 456.506 589.361 453.28 589.461 452.061C589.561 450.843 588.935 447.927 584.251 447.569C579.567 447.21 569.524 444.008 568.246 443.912C571.256 443.157 574.308 442.567 577.388 442.144C577.388 442.144 578.04 439.754 572.88 439.754C567.72 439.754 563.036 439.42 561.083 442.144C559.686 444.266 558.495 446.506 557.526 448.835C557.526 448.835 528.597 450.771 512.892 443.458C497.188 436.146 492.229 433.708 492.229 433.708L499.091 407.421C490.158 403.914 480.73 401.683 471.114 400.802C466.43 418.82 462.598 440.041 464.351 443.817C467.257 450.174 514.245 458.155 528.747 459.302C540.409 459.742 552.088 459.247 563.663 457.821C563.663 457.821 576.211 457.606 579.618 457.056Z" fill="white" stroke="#263238" stroke-width="1.04742" stroke-linecap="round" stroke-linejoin="round"/>
<path d="M368.067 479.925C368.067 479.925 358.399 486.832 359.876 491.396C361.354 495.96 369.419 486.617 371.423 483.868C373.427 481.12 371.849 476.962 368.067 479.925Z" fill="white" stroke="#263238" stroke-width="1.04742" stroke-linecap="round" stroke-linejoin="round"/>
<path d="M369.972 486.115C369.972 486.115 360.329 493.022 361.782 497.586C363.235 502.15 371.35 492.807 373.329 490.058C375.307 487.31 373.754 483.104 369.972 486.115Z" fill="white" stroke="#263238" stroke-width="1.04742" stroke-linecap="round" stroke-linejoin="round"/>
<path d="M374.554 490.129C374.554 490.129 364.911 497.035 366.388 501.6C367.866 506.164 375.931 496.82 377.935 494.072C379.939 491.324 378.361 487.118 374.554 490.129Z" fill="white" stroke="#263238" stroke-width="1.04742" stroke-linecap="round" stroke-linejoin="round"/>
<path d="M378.339 493.381C378.339 493.381 369.999 498.495 371.401 502.271C372.804 506.046 379.692 498.901 381.42 496.703C383.148 494.504 381.746 490.967 378.339 493.381Z" fill="white" stroke="#263238" stroke-width="1.04742" stroke-linecap="round" stroke-linejoin="round"/>
</g>
<defs>
<filter id="filter0_d" x="-120" y="184" width="1605" height="607" filterUnits="userSpaceOnUse" color-interpolation-filters="sRGB">
<feFlood flood-opacity="0" result="BackgroundImageFix"/>
<feColorMatrix in="SourceAlpha" type="matrix" values="0 0 0 0 0 0 0 0 0 0 0 0 0 0 0 0 0 0 127 0"/>
<feOffset dy="-4"/>
<feGaussianBlur stdDeviation="5"/>
<feColorMatrix type="matrix" values="0 0 0 0 0 0 0 0 0 0 0 0 0 0 0 0 0 0 0.25 0"/>
<feBlend mode="normal" in2="BackgroundImageFix" result="effect1_dropShadow"/>
<feBlend mode="normal" in="SourceGraphic" in2="effect1_dropShadow" result="shape"/>
</filter>
<clipPath id="clip0">
<rect width="1366" height="733" fill="white"/>
</clipPath>
</defs>
</svg>
