<svg width="80" height="80" viewBox="0 0 80 80" fill="none" xmlns="http://www.w3.org/2000/svg">
<mask id="path-1-inside-1" fill="white">
<path fill-rule="evenodd" clip-rule="evenodd" d="M9.375 10.625H70.625C75.7944 10.625 80 14.8306 80 20V60C80 65.1694 75.7944 69.375 70.625 69.375H9.375C4.20563 69.375 0 65.1694 0 60V20C0 14.8306 4.20563 10.625 9.375 10.625ZM70.625 63.125C72.3481 63.125 73.75 61.7231 73.75 60V21.9158L39.9997 47.0195L6.25 21.9163V60C6.25 61.7231 7.65188 63.125 9.375 63.125H70.625ZM9.94476 16.875L39.9997 39.2302L70.0546 16.875H9.94476Z"/>
</mask>
<path fill-rule="evenodd" clip-rule="evenodd" d="M9.375 10.625H70.625C75.7944 10.625 80 14.8306 80 20V60C80 65.1694 75.7944 69.375 70.625 69.375H9.375C4.20563 69.375 0 65.1694 0 60V20C0 14.8306 4.20563 10.625 9.375 10.625ZM70.625 63.125C72.3481 63.125 73.75 61.7231 73.75 60V21.9158L39.9997 47.0195L6.25 21.9163V60C6.25 61.7231 7.65188 63.125 9.375 63.125H70.625ZM9.94476 16.875L39.9997 39.2302L70.0546 16.875H9.94476Z" fill="#2F80ED"/>
<path d="M73.75 21.9158H74.75V19.9257L73.1532 21.1134L73.75 21.9158ZM39.9997 47.0195L39.4029 47.8219L39.9997 48.2658L40.5965 47.8219L39.9997 47.0195ZM6.25 21.9163L6.84681 21.1139L5.25 19.9262V21.9163H6.25ZM39.9997 39.2302L39.4029 40.0325L39.9997 40.4764L40.5965 40.0325L39.9997 39.2302ZM9.94476 16.875V15.875H6.92478L9.34795 17.6774L9.94476 16.875ZM70.0546 16.875L70.6514 17.6774L73.0746 15.875H70.0546V16.875ZM70.625 9.625H9.375V11.625H70.625V9.625ZM81 20C81 14.2783 76.3467 9.625 70.625 9.625V11.625C75.2421 11.625 79 15.3829 79 20H81ZM81 60V20H79V60H81ZM70.625 70.375C76.3467 70.375 81 65.7217 81 60H79C79 64.6171 75.2421 68.375 70.625 68.375V70.375ZM9.375 70.375H70.625V68.375H9.375V70.375ZM-1 60C-1 65.7217 3.65334 70.375 9.375 70.375V68.375C4.75791 68.375 1 64.6171 1 60H-1ZM-1 20V60H1V20H-1ZM9.375 9.625C3.65334 9.625 -1 14.2783 -1 20H1C1 15.3829 4.75791 11.625 9.375 11.625V9.625ZM72.75 60C72.75 61.1708 71.7958 62.125 70.625 62.125V64.125C72.9004 64.125 74.75 62.2754 74.75 60H72.75ZM72.75 21.9158V60H74.75V21.9158H72.75ZM40.5965 47.8219L74.3468 22.7182L73.1532 21.1134L39.4029 46.2171L40.5965 47.8219ZM5.65319 22.7187L39.4029 47.8219L40.5965 46.2171L6.84681 21.1139L5.65319 22.7187ZM7.25 60V21.9163H5.25V60H7.25ZM9.375 62.125C8.20416 62.125 7.25 61.1708 7.25 60H5.25C5.25 62.2754 7.09959 64.125 9.375 64.125V62.125ZM70.625 62.125H9.375V64.125H70.625V62.125ZM40.5965 38.4278L10.5416 16.0726L9.34795 17.6774L39.4029 40.0325L40.5965 38.4278ZM69.4578 16.0726L39.4029 38.4278L40.5965 40.0325L70.6514 17.6774L69.4578 16.0726ZM9.94476 17.875H70.0546V15.875H9.94476V17.875Z" fill="white" mask="url(#path-1-inside-1)"/>
</svg>
