<svg width="600" height="505" viewBox="0 0 600 505" fill="none" xmlns="http://www.w3.org/2000/svg">
<path d="M463.9 491.006C459.566 496.683 454.453 500.892 455.58 502.814C455.58 502.814 457.885 504.56 464.247 504.56C475.167 504.56 485.913 503.722 484.145 502.604C481.701 501.049 474.629 500.49 467.869 498.132C466.136 497.556 471.527 494.29 470.071 493.766C467.924 493.064 465.856 492.139 463.9 491.006V491.006Z" fill="#002E4F"/>
<path d="M575.845 502.529C575.845 502.529 577.243 504.56 582.583 504.56C591.762 504.56 601.329 503.265 599.847 502.284C597.792 500.954 581.707 497.47 581.707 497.47L578.102 492.813L571.988 496.315L575.845 502.529Z" fill="#002E4F"/>
<path d="M546.234 364.5C542.154 364.516 538.087 364.022 534.125 363.028C532.508 362.524 531.148 361.401 530.33 359.895C529.513 358.388 529.303 356.618 529.744 354.957C530.186 353.296 531.245 351.875 532.697 350.994C534.149 350.113 535.881 349.841 537.526 350.236C537.747 350.236 552.391 354.113 560.93 346.653C566.644 341.667 568.821 332.251 567.393 318.697L566.934 314.369L580.098 306.77C580.844 306.297 581.676 305.982 582.544 305.844C583.412 305.706 584.299 305.749 585.151 305.969C586.003 306.19 586.802 306.583 587.5 307.126C588.199 307.669 588.782 308.35 589.215 309.129C589.648 309.907 589.922 310.767 590.02 311.656C590.118 312.545 590.038 313.445 589.785 314.301C589.532 315.158 589.112 315.954 588.549 316.641C587.986 317.328 587.293 317.892 586.51 318.299L580.693 321.657C581.612 337.634 577.802 349.353 569.332 356.779C562.154 362.976 553.242 364.5 546.234 364.5Z" fill="#00A4E2"/>
<path d="M568.745 327.452C568.503 337.125 565.951 344.124 561.105 348.292C551.602 356.507 535.322 352.321 535.047 352.252C534.128 352.001 533.17 351.935 532.226 352.057C531.282 352.179 530.372 352.487 529.546 352.964C527.879 353.926 526.66 355.516 526.156 357.384C525.653 359.252 525.907 361.244 526.863 362.923C527.819 364.602 529.398 365.83 531.252 366.337C535.498 368.195 540.093 369.107 544.721 369.011C572.797 368.004 589.75 343.621 590.06 329.397L568.745 327.452Z" fill="#E1F3F6"/>
<path d="M530.136 294.031C527.612 292.896 525.14 291.676 522.702 290.404C499.366 303.605 469.564 320.537 468.976 321.122C468.976 321.122 483.79 344.568 484.741 345.514C485.346 346.116 522.08 319.918 548.494 300.941C542.392 298.586 536.117 296.678 530.136 294.031Z" fill="#008DC4"/>
<path d="M530.898 293.339C536.917 296.004 543.225 297.935 549.33 300.343C563.629 289.956 574.699 281.876 574.699 281.876L550.248 275.042L524.096 289.973C526.307 291.169 528.602 292.297 530.898 293.339Z" fill="#00AFE2"/>
<path d="M487.952 262.828L502.635 301.779L531.325 312.09L494.973 247.03L487.952 262.828Z" fill="#184466"/>
<path d="M532.356 322.03H511.446L530.053 355.054L558.434 367.211L532.356 322.03Z" fill="#184466"/>
<path d="M558.749 367.307L542.015 338.672L470.401 380.765L456.325 356.702L465.172 213.527L497.353 194.621L555.268 293.674L574.762 282.227L590.964 309.951L571.487 321.398L588.221 350.033L558.749 367.307ZM493.787 256.205L491.969 257.27L487.049 333.739L525.813 310.965L493.787 256.205Z" fill="#0076AD"/>
<path d="M431.928 350.042L455.781 356.611L469.879 380.765L444.687 374.369L431.928 350.042Z" fill="#184466"/>
<path d="M431.928 349.829L456.305 356.367L465.361 213.409L443.002 208.175L431.928 349.829Z" fill="#184466"/>
<path d="M442.771 208.181L464.692 213.596L496.988 194.049L474.775 187.392L442.771 208.181Z" fill="#00D2FD"/>
<path d="M490.882 406.97C490.882 406.97 494.32 444.687 494.32 457.939C494.32 457.939 466.816 479.352 459.94 490.513C462.828 492.708 468.535 495.657 472.317 495.519C484.22 484.361 497.127 474.318 510.875 465.517C510.875 465.517 519.59 440.332 522.289 419.005L490.882 406.97Z" fill="#184466"/>
<path d="M510.699 408.755C516.921 408.968 523.097 407.625 528.658 404.851C526.932 397.316 530.696 375.106 535.566 363.239C535.566 363.239 539.365 354.985 536.706 352.433C526.862 343.049 518.487 343.871 515.88 343.717C506.831 351.286 489.976 373.599 490.684 403.121C495.26 407.916 504.672 408.721 510.699 408.755Z" fill="#E1F3F6"/>
<path d="M571.743 497.477C575.369 496.68 578.631 494.712 581.024 491.877C570.346 474.646 531.186 411.048 529.064 406.068C529.064 405.948 528.96 405.793 528.908 405.655C522.942 408.633 516.296 409.988 509.639 409.583C503.86 409.359 495.476 408.549 490.663 404.259C490.663 404.569 490.663 404.879 490.663 405.189C491.473 421.765 546.556 477.058 568.293 498.235C569.458 498.057 570.61 497.803 571.743 497.477Z" fill="#184466"/>
<path d="M457.967 391.608C456.465 391.616 454.972 391.385 453.545 390.922C451.413 390.193 449.502 388.938 447.992 387.274C446.481 385.611 445.42 383.594 444.908 381.412C444.632 380.577 444.528 379.695 444.601 378.819C444.674 377.943 444.923 377.09 445.333 376.311C445.744 375.533 446.307 374.843 446.99 374.285C447.673 373.726 448.462 373.31 449.31 373.059C450.158 372.809 451.048 372.73 451.927 372.828C452.807 372.925 453.657 373.197 454.429 373.627C455.2 374.057 455.877 374.636 456.42 375.33C456.962 376.025 457.359 376.82 457.587 377.67C457.661 377.955 457.765 378.231 457.897 378.494C458.606 378.494 461.214 378.288 467.587 374.563C473.287 371.25 480.024 366.289 486.587 361.5C497.59 353.415 507.988 345.777 516.573 343.065C518.228 342.596 520.002 342.787 521.518 343.598C523.034 344.408 524.173 345.773 524.692 347.404C525.211 349.035 525.07 350.803 524.299 352.332C523.528 353.862 522.188 355.032 520.563 355.595C514.068 357.638 504.102 364.968 494.446 372.074C480.317 382.459 467.864 391.608 457.967 391.608Z" fill="#00A4E2"/>
<path d="M470.487 386.659C469.669 382.765 468.746 378.455 466.326 375.254C460.946 378.213 458.665 378.403 458.004 378.386C457.871 378.121 457.766 377.842 457.69 377.555C457.461 376.699 457.061 375.897 456.514 375.197C455.968 374.497 455.285 373.912 454.507 373.479C453.73 373.046 452.872 372.772 451.986 372.673C451.1 372.575 450.203 372.654 449.348 372.907C448.493 373.159 447.698 373.579 447.01 374.143C446.321 374.706 445.753 375.4 445.34 376.186C444.926 376.971 444.675 377.83 444.601 378.714C444.528 379.597 444.633 380.486 444.911 381.328C445.427 383.528 446.496 385.562 448.019 387.239C449.542 388.916 451.467 390.181 453.616 390.916C455.055 391.383 456.56 391.616 458.073 391.608C462.541 391.368 466.892 390.1 470.783 387.905C470.644 387.489 470.574 387.074 470.487 386.659Z" fill="#00A4E2"/>
<path d="M524.674 347.376C524.151 345.727 522.992 344.351 521.451 343.552C519.91 342.753 518.114 342.595 516.457 343.114C507.897 345.808 497.625 353.344 486.737 361.427C480.282 366.184 473.606 371.112 467.905 374.403L467.169 374.829C469.617 378.052 473.845 393.961 473.931 394.319C480.882 390.704 514.197 365.434 521.421 357.812C523.955 355.186 525.77 350.804 524.674 347.376Z" fill="#E1F3F6"/>
<path d="M449.015 386.187C448.625 386.183 448.246 386.062 447.928 385.839C442.908 382.275 440.281 375.429 440.18 375.147C440.005 374.685 440.022 374.174 440.228 373.724C440.433 373.275 440.81 372.925 441.276 372.752C441.742 372.578 442.259 372.595 442.712 372.798C443.166 373.002 443.519 373.376 443.694 373.837C443.694 373.837 446.037 379.921 450.12 382.805C450.524 383.094 450.797 383.53 450.878 384.018C450.96 384.505 450.843 385.005 450.555 385.408C450.381 385.651 450.15 385.85 449.882 385.985C449.614 386.121 449.317 386.19 449.015 386.187V386.187Z" fill="#00A4E2"/>
<path d="M449.003 381.669C448.695 381.67 448.393 381.595 448.12 381.448C447.848 381.301 447.614 381.088 447.44 380.827C444.994 377.322 443.04 368.786 442.819 367.839C442.707 367.328 442.793 366.792 443.06 366.346C443.327 365.9 443.753 365.58 444.246 365.456C444.492 365.396 444.746 365.388 444.995 365.43C445.244 365.473 445.482 365.567 445.695 365.705C445.908 365.844 446.093 366.025 446.238 366.238C446.383 366.451 446.485 366.691 446.54 366.945C447.083 369.329 448.85 376.06 450.549 378.549C450.695 378.76 450.799 378.999 450.856 379.252C450.912 379.505 450.919 379.768 450.876 380.023C450.833 380.279 450.742 380.524 450.607 380.743C450.472 380.963 450.296 381.152 450.09 381.301C449.774 381.539 449.394 381.667 449.003 381.669Z" fill="#00A4E2"/>
<path d="M451.634 380.765C451.251 380.757 450.879 380.638 450.565 380.423C450.251 380.208 450.009 379.908 449.87 379.559C448.105 375.2 447.329 366.067 447.294 365.688C447.259 365.186 447.422 364.69 447.75 364.302C448.078 363.914 448.547 363.664 449.058 363.603C449.574 363.56 450.087 363.716 450.486 364.039C450.886 364.361 451.139 364.823 451.193 365.327C451.467 369.629 452.231 373.888 453.469 378.025C453.667 378.503 453.663 379.038 453.458 379.513C453.253 379.987 452.863 380.363 452.375 380.558C452.147 380.68 451.894 380.75 451.634 380.765V380.765Z" fill="#00A4E2"/>
<path d="M454.299 379.861C453.854 379.863 453.422 379.723 453.07 379.462C452.718 379.201 452.466 378.835 452.355 378.422C451.624 375.215 451.624 371.893 452.355 368.686C452.482 368.189 452.808 367.761 453.263 367.494C453.717 367.228 454.263 367.145 454.78 367.264C455.037 367.32 455.279 367.425 455.493 367.572C455.707 367.72 455.888 367.907 456.025 368.122C456.163 368.338 456.255 368.577 456.295 368.827C456.335 369.077 456.324 369.332 456.26 369.578C455.685 372.171 455.685 374.852 456.26 377.445C456.327 377.69 456.343 377.946 456.306 378.197C456.27 378.448 456.182 378.69 456.047 378.908C455.913 379.127 455.735 379.317 455.524 379.469C455.312 379.621 455.072 379.731 454.816 379.793C454.648 379.84 454.474 379.863 454.299 379.861Z" fill="#00A4E2"/>
<path d="M532.145 358.175C531.221 358.168 530.31 357.961 529.474 357.568C528.733 357.218 528.068 356.726 527.517 356.118C526.967 355.511 526.542 354.801 526.266 354.03C525.991 353.258 525.87 352.439 525.912 351.621C525.953 350.802 526.156 350 526.508 349.26C527.792 346.784 529.345 344.457 531.139 342.322C532.208 341.055 533.737 340.265 535.389 340.125C537.042 339.985 538.682 340.507 539.949 341.577C541.216 342.646 542.007 344.175 542.146 345.827C542.286 347.48 541.764 349.12 540.695 350.387V350.387C539.583 351.699 538.613 353.123 537.798 354.637C537.284 355.698 536.48 356.593 535.48 357.218C534.48 357.844 533.324 358.176 532.145 358.175V358.175Z" fill="#00A4E2"/>
<path d="M533.478 354.954C534.174 355.769 534.913 356.543 535.692 357.271C536.697 356.633 537.501 355.702 538.005 354.591C538.781 353.082 539.706 351.662 540.764 350.355C541.269 349.73 541.651 349.006 541.888 348.226C542.125 347.446 542.213 346.625 542.147 345.81C542.081 344.994 541.863 344.2 541.503 343.473C541.144 342.746 540.652 342.1 540.054 341.572C539.456 341.044 538.765 340.645 538.02 340.396C537.274 340.148 536.49 340.056 535.71 340.125C534.931 340.194 534.172 340.423 533.477 340.799C532.783 341.174 532.165 341.69 531.661 342.315C531.545 342.471 531.066 343.076 530.422 343.958C530.488 347.865 530.934 351.946 533.478 354.954Z" fill="#0086CF"/>
<path d="M553.598 347.368C552.425 350.217 550.176 352.481 547.344 353.666C544.512 354.851 541.329 354.859 538.491 353.688V353.688C537.085 353.108 535.806 352.254 534.729 351.176C533.652 350.099 532.796 348.818 532.212 347.407C531.628 345.997 531.327 344.484 531.325 342.956C531.324 341.429 531.622 339.915 532.203 338.504L535.262 331.04C535.84 329.626 536.689 328.341 537.761 327.259C538.833 326.176 540.108 325.316 541.511 324.729C542.915 324.142 544.419 323.839 545.939 323.837C547.46 323.836 548.965 324.136 550.37 324.72V324.72C553.206 325.896 555.463 328.156 556.642 331.003C557.821 333.851 557.826 337.053 556.657 339.904L553.598 347.368Z" fill="#00A4E2"/>
<path d="M533.105 338.055C532.131 342.17 526.289 340.851 524.098 338.706C521.073 335.734 519.264 327.362 525.976 327.82C521.142 320.451 537.521 312.449 539.225 320.978C540.512 318.78 541.816 316.793 544.667 316.617C546.719 316.476 550.301 318.094 550.005 320.627C551.519 319.481 553.367 318.88 555.257 318.918C557.147 318.957 558.97 319.632 560.437 320.838C561.411 321.629 563.15 323.388 562.28 324.654C561.794 325.358 559.325 325.586 558.507 325.832C559.933 325.182 565.758 326.501 564.61 328.945C564.089 330.088 561.22 329.068 560.385 328.822V329.086C563.515 330.845 564.784 332.603 564.419 336.49C564.245 338.249 563.411 341.766 561.289 341.959C560.194 342.082 558.942 341.379 558.959 340.201C561.568 342.821 557.881 349.856 554.595 346.391C554.059 345.669 553.817 344.766 553.921 343.869C554.024 342.972 554.465 342.15 555.152 341.573C553.204 340.447 548.979 334.538 551.987 332.779C550.579 332.779 544.076 330.581 546.145 328.699C546.701 330.88 544.006 333.729 541.885 332.603C543.207 335.523 539.294 337.703 536.895 337.879C538.373 339.743 533.852 341.959 532.461 339.251L533.105 338.055Z" fill="#184466"/>
<path d="M312.962 314.801C312.962 314.801 309.174 300.2 328.012 296.729L326.57 314.278L312.962 314.801Z" fill="#0089E0"/>
<path d="M238.348 350.945C234.389 350.98 230.473 350.136 226.888 348.473C209.836 340.493 207.949 316.483 207.845 315.47C207.733 313.739 208.315 312.035 209.466 310.728C210.616 309.421 212.24 308.617 213.986 308.493C215.731 308.368 217.455 308.933 218.782 310.063C220.109 311.193 220.932 312.797 221.071 314.526C221.434 319.366 224.222 332.736 232.566 336.614C239.49 339.824 250.119 336.614 263.432 327.175C264.866 326.207 266.626 325.834 268.333 326.137C270.041 326.44 271.561 327.395 272.567 328.797C273.573 330.198 273.985 331.935 273.714 333.634C273.443 335.333 272.511 336.859 271.118 337.884C258.862 346.585 247.8 350.945 238.348 350.945Z" fill="#CDE5E8"/>
<path d="M273.51 363.119C275.341 358.311 277.052 353.451 279.039 348.695C277.677 348.591 276.321 348.413 274.979 348.162C268.923 347.136 263.278 344.441 258.686 340.383C254.096 336.229 250.547 331.066 248.32 325.307C245.787 318.661 244.363 311.648 244.105 304.546C243.506 287.991 246.671 271.515 253.365 256.345C256.254 249.888 260.175 243.939 264.975 238.726C269.145 234.153 274.342 230.622 280.144 228.423C285.368 226.632 290.944 226.097 296.415 226.861C301.887 227.625 307.099 229.667 311.623 232.819C313.489 229.11 315.51 225.453 317.428 221.812C319.691 217.519 321.799 213.123 323.803 208.71C324.667 206.821 325.41 204.864 326.205 202.94C319.402 199.141 312.01 196.495 304.332 195.11C293.623 192.904 282.534 193.323 272.024 196.329C261.94 199.323 252.631 204.462 244.744 211.389C236.318 218.927 229.371 227.951 224.253 238.005C212.744 260.591 207.876 285.945 210.207 311.157C211.282 322.359 214.439 333.264 219.52 343.32C224.27 352.672 231.022 360.877 239.302 367.36C247.309 373.533 256.627 377.808 266.547 379.861C268.966 374.315 271.35 368.803 273.51 363.119Z" fill="#184466"/>
<path d="M362.668 264.004C361.619 252.757 358.51 241.802 353.497 231.689C348.77 222.3 342.059 214.061 333.832 207.547C331.612 205.793 329.277 204.191 326.842 202.753C326.069 204.702 325.331 206.65 324.472 208.547C322.428 212.979 320.384 217.393 318.117 221.722C316.194 225.395 314.167 229.085 312.295 232.844C312.965 233.361 313.618 233.879 314.253 234.448C318.787 238.658 322.31 243.847 324.558 249.623C327.154 256.226 328.623 263.222 328.903 270.316C329.507 286.941 326.36 303.488 319.697 318.72C316.837 325.278 312.881 331.296 308.002 336.516C303.777 341.051 298.579 344.56 292.802 346.776C288.696 348.292 284.323 348.943 279.956 348.691C277.775 353.864 275.937 359.261 273.945 364.538C271.952 369.815 269.754 374.884 267.47 379.954L269.016 380.282C279.663 382.484 290.684 382.058 301.132 379.04C311.155 376.039 320.409 370.884 328.25 363.934C336.644 356.407 343.579 347.386 348.705 337.327C360.164 314.657 365.01 289.198 362.685 263.884L362.668 264.004Z" fill="#184466"/>
<path d="M288.59 387.527C277.848 385.648 267.726 381.188 259.098 374.531C250.845 368.038 244.114 359.824 239.373 350.465C234.315 340.389 231.167 329.467 230.088 318.25C227.755 293.014 232.616 267.634 244.11 245.036C249.252 235.008 256.208 226.015 264.628 218.511C272.495 211.576 281.784 206.437 291.846 203.452C302.348 200.599 313.363 200.176 324.053 202.213C334.744 204.251 344.827 208.696 353.536 215.21C361.786 221.706 368.518 229.919 373.26 239.277C378.324 249.345 381.478 260.262 382.563 271.475C384.895 296.71 380.034 322.09 368.54 344.689C363.393 354.699 356.444 363.679 348.04 371.179C340.179 378.113 330.896 383.253 320.839 386.238C310.354 389.276 299.285 389.719 288.59 387.527V387.527ZM294.74 355.45C300.652 356.657 306.784 356.198 312.449 354.126C318.256 351.93 323.478 348.43 327.712 343.898C332.594 338.669 336.555 332.653 339.427 326.106C342.794 318.579 345.252 310.679 346.748 302.572C348.386 294.44 349.028 286.139 348.66 277.852C348.362 270.781 346.883 263.809 344.285 257.224C342.036 251.468 338.501 246.3 333.949 242.113C329.438 238.107 323.906 235.424 317.962 234.36C311.965 233.114 305.738 233.555 299.977 235.633C294.195 237.84 289.014 241.373 284.852 245.947C280.058 251.159 276.148 257.116 273.275 263.584C269.873 271.149 267.403 279.097 265.92 287.256C264.317 295.34 263.687 303.587 264.042 311.821C264.289 318.901 265.697 325.892 268.211 332.518C270.413 338.298 273.955 343.476 278.547 347.628C283.121 351.663 288.726 354.353 294.74 355.398V355.45Z" fill="#0076AD"/>
<path d="M405.206 290.719L405.723 314.776C405.723 314.776 398.598 320.932 392.169 314.776L394.52 287.693L405.206 290.719Z" fill="#184466"/>
<path d="M376.479 483.861C376.08 483.549 373.356 482.282 373.009 481.97C371.784 483.853 370.359 485.598 368.759 487.175C369.981 488.153 370.922 489.437 371.486 490.897C372.049 492.357 372.216 493.941 371.968 495.486C370.635 496.655 369.22 497.727 367.735 498.696C363.936 500.57 356.928 503.172 356.928 503.172L374.57 504.56L387.651 491.148C383.735 489.026 379.999 486.589 376.479 483.861V483.861Z" fill="#002E4F"/>
<path d="M308.133 484.751C305.313 484.274 301.746 486.452 299.431 484.751C299.118 487.223 298.972 489.712 298.996 492.203L272.892 502.753H306.323C306.618 499.265 305.975 495.947 306.462 492.697C306.671 491.046 307.819 486.35 308.133 484.751Z" fill="#002E4F"/>
<path d="M338.119 367.211L309.036 422.569C309.036 422.569 320.823 432.561 332.422 435.886L354.217 370.656L338.119 367.211Z" fill="#CDE5E8"/>
<path d="M370.285 488.441C372.049 486.549 373.628 484.496 375 482.309C367.316 475.798 363.562 469.096 353.136 457.558C348.823 452.774 360.244 425.433 363.02 420.838C368.015 412.599 368.783 406.623 372.677 392.512L343.706 403.221C336.721 427.661 328.758 452.118 336.826 463.776C345.33 476.109 360.453 486.04 367.735 490.997C368.015 491.187 370.04 488.268 370.285 488.441Z" fill="#184466"/>
<path d="M321.878 312.089C321.457 312.097 321.046 311.965 320.706 311.713C320.494 311.558 320.313 311.362 320.175 311.136C320.038 310.911 319.945 310.66 319.904 310.398C319.863 310.136 319.873 309.869 319.935 309.611C319.996 309.353 320.108 309.11 320.263 308.896C321.622 307.073 322.606 304.993 323.157 302.779C323.28 302.282 323.586 301.852 324.011 301.573C324.436 301.295 324.95 301.189 325.449 301.278C325.948 301.366 326.396 301.642 326.702 302.051C327.008 302.459 327.149 302.969 327.098 303.478C326.451 306.291 325.243 308.94 323.547 311.264C323.357 311.529 323.105 311.742 322.814 311.886C322.523 312.03 322.202 312.1 321.878 312.089V312.089Z" fill="#00A4E2"/>
<path d="M370.309 398.837C378.701 375.569 385.87 339.064 388.554 324.507C387.2 323.949 385.816 323.468 384.409 323.066C381.912 322.381 378.939 321.557 376.374 322.363C375.112 322.804 373.913 323.409 372.807 324.164C372.171 326.067 371.677 328.016 371.329 329.994C371.329 329.994 353.288 364.784 341.566 388.498C351.551 390.671 361.213 394.147 370.309 398.837V398.837Z" fill="#F6EE9E"/>
<path d="M340.993 388.898L337.99 394.953C335.629 399.122 333.078 402.981 330.613 406.683C306.921 442.323 297.965 470.696 296.386 484.156C298.642 485.886 307.199 486.907 310.063 487.392C314.437 465.125 325.805 450.904 346.2 434.105C353.021 428.482 358.124 421.337 362.619 415.403C365.945 410.423 368.589 405.024 370.482 399.347C361.156 394.586 351.241 391.073 340.993 388.898V388.898Z" fill="#184466"/>
<path d="M318.27 398.837C316.727 398.83 315.236 398.277 314.059 397.278C312.883 396.278 312.097 394.896 311.839 393.373C311.581 391.851 311.869 390.286 312.651 388.955C313.432 387.624 314.658 386.611 316.113 386.096C324.055 383.338 336.259 372.395 344.475 360.8C353.428 347.855 363.067 335.398 373.351 323.483C373.915 322.807 374.61 322.251 375.393 321.849C376.177 321.447 377.033 321.207 377.911 321.144C378.789 321.08 379.671 321.194 380.504 321.479C381.337 321.764 382.105 322.214 382.76 322.802C383.416 323.39 383.946 324.104 384.32 324.902C384.694 325.699 384.903 326.564 384.935 327.444C384.968 328.325 384.823 329.202 384.509 330.025C384.194 330.848 383.718 331.6 383.107 332.234V332.234C373.17 343.776 363.846 355.832 355.173 368.353C347.06 379.862 332.716 394.213 320.409 398.478C319.72 398.711 318.997 398.832 318.27 398.837Z" fill="#00A4E2"/>
<path d="M384.221 326.548H383.734C382.017 326.42 380.422 325.649 379.297 324.402C378.171 323.154 377.607 321.533 377.727 319.89C378.016 317.127 378.621 314.402 379.531 311.765C379.808 310.993 380.241 310.282 380.806 309.671C381.371 309.059 382.056 308.561 382.822 308.203C383.589 307.845 384.421 307.634 385.273 307.584C386.124 307.534 386.977 307.644 387.784 307.909C388.591 308.174 389.335 308.589 389.974 309.129C390.613 309.669 391.135 310.324 391.509 311.057C391.884 311.79 392.104 312.586 392.156 313.4C392.209 314.214 392.093 315.03 391.816 315.801C391.231 317.424 390.826 319.1 390.607 320.804C390.478 322.348 389.753 323.792 388.572 324.853C387.392 325.915 385.841 326.519 384.221 326.548Z" fill="#00A4E2"/>
<path d="M386.069 319.587C387.206 320.795 388.448 321.915 389.781 322.934C390.261 322.155 390.549 321.286 390.624 320.39C390.841 318.737 391.243 317.111 391.825 315.537C392.326 314.163 392.278 312.666 391.691 311.322C391.104 309.978 390.017 308.877 388.629 308.222C387.242 307.566 385.648 307.4 384.14 307.754C382.632 308.108 381.312 308.958 380.422 310.148C381.049 313.512 384.025 317.344 386.069 319.587Z" fill="#0086CF"/>
<path d="M401.917 306.067C401.883 307.611 401.547 309.133 400.928 310.545C400.308 311.957 399.418 313.232 398.307 314.295C397.196 315.359 395.888 316.19 394.457 316.741C393.026 317.292 391.501 317.553 389.969 317.507C388.438 317.474 386.928 317.135 385.527 316.51C384.126 315.886 382.861 314.988 381.806 313.869C380.751 312.749 379.926 311.43 379.379 309.988C378.832 308.546 378.574 307.009 378.62 305.465L378.79 297.346C378.828 295.803 379.167 294.282 379.788 292.871C380.409 291.46 381.299 290.187 382.409 289.123C383.518 288.059 384.825 287.225 386.254 286.671C387.683 286.116 389.206 285.85 390.737 285.889V285.889C392.269 285.925 393.779 286.265 395.18 286.89C396.581 287.515 397.845 288.413 398.901 289.531C399.957 290.65 400.784 291.968 401.334 293.409C401.883 294.851 402.145 296.387 402.104 297.931L401.917 306.067Z" fill="#00A4E2"/>
<path d="M308.494 397.028C305.319 396.902 302.198 396.105 299.306 394.682C298.854 394.454 298.5 394.044 298.321 393.54C298.142 393.036 298.151 392.476 298.345 391.978C298.54 391.481 298.905 391.084 299.365 390.872C299.824 390.66 300.342 390.649 300.809 390.841C305.932 393.15 309.894 393.482 312.456 391.802C312.89 391.518 313.412 391.432 313.905 391.563C314.398 391.695 314.823 392.033 315.085 392.503C315.348 392.973 315.427 393.537 315.306 394.071C315.184 394.604 314.871 395.063 314.437 395.347C312.638 396.492 310.58 397.074 308.494 397.028V397.028Z" fill="#00A4E2"/>
<path d="M311.307 399.741C308.521 399.664 305.755 399.224 303.074 398.431L302.21 398.218C301.757 398.059 301.377 397.729 301.145 397.293C300.913 396.856 300.845 396.344 300.955 395.858C301.066 395.372 301.346 394.947 301.741 394.666C302.137 394.385 302.618 394.268 303.091 394.34L303.972 394.552C308.66 396.116 313.692 396.159 318.404 394.676C318.647 394.607 318.9 394.59 319.149 394.625C319.398 394.66 319.638 394.747 319.854 394.881C320.071 395.015 320.259 395.192 320.409 395.404C320.558 395.615 320.666 395.855 320.725 396.111C320.848 396.622 320.774 397.165 320.517 397.619C320.26 398.073 319.841 398.403 319.353 398.537C316.73 399.291 314.026 399.696 311.307 399.741V399.741Z" fill="#00A4E2"/>
<path d="M308.831 393.416C304.836 393.359 300.987 391.978 297.948 389.511C297.752 389.341 297.592 389.136 297.48 388.908C297.367 388.68 297.303 388.432 297.291 388.18C297.279 387.928 297.32 387.676 297.412 387.439C297.503 387.202 297.643 386.985 297.823 386.8C298.188 386.43 298.69 386.211 299.223 386.189C299.755 386.166 300.276 386.343 300.673 386.68C302.187 387.891 303.976 388.751 305.898 389.192C307.821 389.633 309.825 389.643 311.753 389.221C312.018 389.131 312.3 389.095 312.581 389.115C312.861 389.134 313.135 389.209 313.383 389.335C313.632 389.461 313.85 389.634 314.024 389.845C314.198 390.055 314.324 390.298 314.394 390.557C314.464 390.816 314.477 391.087 314.431 391.351C314.385 391.615 314.282 391.867 314.127 392.091C313.973 392.315 313.772 392.506 313.536 392.652C313.3 392.798 313.035 392.895 312.757 392.938C311.473 393.249 310.155 393.409 308.831 393.416V393.416Z" fill="#00A4E2"/>
<path d="M312.4 390.686H312.181C310.317 390.517 308.518 389.946 306.919 389.015C305.32 388.084 303.963 386.817 302.95 385.31C302.703 384.881 302.645 384.375 302.787 383.905C302.93 383.434 303.262 383.037 303.71 382.801C304.159 382.565 304.687 382.509 305.178 382.646C305.67 382.782 306.084 383.1 306.331 383.53C307.041 384.539 307.98 385.382 309.078 385.996C310.176 386.61 311.404 386.979 312.671 387.075C313.173 387.103 313.643 387.321 313.978 387.681C314.312 388.04 314.484 388.513 314.455 388.994C314.425 389.475 314.198 389.925 313.822 390.245C313.447 390.565 312.953 390.73 312.451 390.702L312.4 390.686Z" fill="#00A4E2"/>
<path d="M336.072 314.764H335.767C332.615 314.185 323.906 312.69 321.974 312.69C321.709 312.717 321.441 312.683 321.188 312.59C320.935 312.497 320.703 312.347 320.505 312.149C320.308 311.951 320.151 311.71 320.043 311.441C319.935 311.172 319.879 310.881 319.879 310.587C319.879 310.293 319.935 310.003 320.043 309.734C320.151 309.465 320.308 309.224 320.505 309.026C320.703 308.828 320.935 308.678 321.188 308.584C321.441 308.491 321.709 308.458 321.974 308.485C324.651 308.485 335.191 310.354 336.394 310.615C336.859 310.713 337.276 310.997 337.562 311.413C337.849 311.829 337.985 312.348 337.945 312.868C337.905 313.389 337.691 313.875 337.345 314.232C336.999 314.589 336.546 314.792 336.072 314.801V314.764Z" fill="#00A4E2"/>
<path d="M335.024 318.349C334.858 318.372 334.688 318.372 334.521 318.349C330.024 317.182 325.445 316.31 320.817 315.74C320.301 315.707 319.82 315.486 319.477 315.126C319.133 314.766 318.954 314.294 318.978 313.812C318.991 313.572 319.055 313.337 319.167 313.12C319.278 312.904 319.434 312.71 319.626 312.55C319.818 312.39 320.042 312.268 320.285 312.189C320.528 312.111 320.786 312.079 321.042 312.094C325.941 312.676 330.788 313.592 335.545 314.833C336.016 314.935 336.43 315.198 336.705 315.57C336.979 315.942 337.096 316.397 337.031 316.845C336.965 317.293 336.724 317.702 336.353 317.992C335.982 318.282 335.508 318.433 335.024 318.414V318.349Z" fill="#00A4E2"/>
<path d="M333.395 322.934C333.201 322.933 333.009 322.899 332.828 322.831C324.371 320.044 322.286 319.873 321.152 319.77C320.622 319.748 320.097 319.668 319.584 319.531C319.332 319.479 319.093 319.374 318.882 319.224C318.67 319.073 318.492 318.88 318.356 318.656C318.22 318.432 318.131 318.182 318.093 317.922C318.055 317.661 318.07 317.395 318.136 317.14C318.202 316.885 318.318 316.647 318.477 316.44C318.637 316.233 318.835 316.062 319.062 315.937C319.288 315.812 319.537 315.735 319.793 315.712C320.049 315.689 320.307 315.72 320.551 315.803C320.846 315.883 321.148 315.929 321.452 315.94C322.803 316.06 325.088 316.248 333.962 319.172C334.383 319.318 334.74 319.613 334.97 320.003C335.2 320.394 335.287 320.855 335.218 321.305C335.148 321.756 334.925 322.166 334.588 322.464C334.251 322.762 333.823 322.928 333.378 322.934H333.395Z" fill="#00A4E2"/>
<path d="M329.825 325.568H329.674C321.153 325.005 320.8 320.817 320.783 320.329H324.565V320.223C324.565 320.223 324.951 321.898 329.96 322.218C330.431 322.271 330.864 322.482 331.172 322.809C331.481 323.137 331.642 323.557 331.625 323.987C331.608 324.417 331.414 324.826 331.081 325.133C330.748 325.44 330.3 325.622 329.825 325.645V325.568Z" fill="#00A4E2"/>
<path d="M322.765 323.837C321.306 323.29 319.748 323.022 318.18 323.05C315.832 323.05 312.677 319.237 312.677 315.301C312.677 315.301 311.522 303.686 324.398 308.934L322.765 323.837Z" fill="#00A4E2"/>
<path d="M360.536 357.737L343.374 441.013C343.374 441.013 369.955 447.324 386.245 438.073L390.361 322.367C390.361 322.367 372.135 316.091 360.536 357.737Z" fill="#CDE5E8"/>
<path d="M364.084 403.347L380.42 402.452C380.42 402.452 380.801 427.733 371.055 426.751C371.055 426.751 357.684 429.698 364.084 403.347Z" fill="#E1F3F6"/>
<path d="M385.259 320.055C384.295 319.185 383.167 318.513 381.941 318.079C380.714 317.644 379.413 317.457 378.113 317.526C376.813 317.596 375.539 317.921 374.366 318.483C373.194 319.046 372.145 319.834 371.281 320.802C360.704 333.003 350.789 345.756 341.578 359.006C340.443 360.603 339.22 362.218 337.892 363.816L336.145 365.952L338.049 367.949C340.076 370.085 342.207 372.151 344.269 374.166L347.589 377.43L350.017 379.861L352.236 377.239C354.211 374.895 356.028 372.551 357.653 370.293C366.466 357.698 375.931 345.567 386.01 333.948C386.882 332.988 387.554 331.867 387.988 330.648C388.422 329.429 388.61 328.137 388.54 326.846C388.47 325.555 388.144 324.291 387.581 323.125C387.018 321.96 386.229 320.917 385.259 320.055V320.055Z" fill="#E1F3F6"/>
<path d="M340.404 358.208L333.861 365.49L350.895 380.795L357.438 373.513L340.404 358.208Z" fill="#F8FDFF"/>
<path d="M366.867 310.808L381.58 316.608C381.58 316.608 387.832 285.983 383.279 281.38C383.262 281.38 366.867 279.823 366.867 310.808Z" fill="#184466"/>
<path d="M384.69 286.643C385.22 287.403 396.67 294.806 405.723 292.757C405.723 292.757 404.183 279.669 383.133 281.553L384.69 286.643Z" fill="#184466"/>
<path d="M393.072 301.23C393.076 302.482 392.707 303.707 392.014 304.749C391.321 305.791 390.335 306.605 389.179 307.086C388.024 307.567 386.751 307.695 385.523 307.453C384.295 307.211 383.167 306.61 382.28 305.726C381.394 304.842 380.79 303.715 380.544 302.487C380.299 301.26 380.423 299.987 380.902 298.83C381.38 297.674 382.19 296.685 383.231 295.989C384.272 295.293 385.495 294.922 386.747 294.922C387.577 294.919 388.399 295.081 389.166 295.397C389.934 295.713 390.631 296.177 391.219 296.763C391.806 297.349 392.272 298.046 392.59 298.812C392.908 299.579 393.072 300.4 393.072 301.23V301.23Z" stroke="#DDDD67" stroke-width="0.87" stroke-miterlimit="10"/>
<path d="M407.53 302.602C407.53 303.764 407.212 304.9 406.616 305.866C406.021 306.831 405.174 307.584 404.183 308.029C403.193 308.473 402.102 308.59 401.051 308.363C399.999 308.136 399.033 307.577 398.275 306.756C397.516 305.934 397 304.888 396.791 303.748C396.582 302.609 396.689 301.428 397.099 300.355C397.51 299.281 398.205 298.364 399.096 297.719C399.988 297.073 401.036 296.729 402.108 296.729C402.821 296.727 403.527 296.877 404.186 297.171C404.845 297.466 405.443 297.898 405.947 298.444C406.451 298.99 406.85 299.638 407.122 300.352C407.394 301.066 407.532 301.83 407.53 302.602Z" stroke="#DDDD67" stroke-width="0.75" stroke-miterlimit="10"/>
<path d="M393.072 301.588C393.662 301.289 394.308 301.184 394.943 301.283C395.578 301.382 396.18 301.681 396.687 302.151" stroke="#DDDD67" stroke-width="0.87" stroke-miterlimit="10"/>
<path d="M204.86 312.994H204.406C202.807 312.875 201.318 312.108 200.269 310.862C199.22 309.616 198.695 307.993 198.811 306.351C199.092 303.575 199.684 300.842 200.575 298.206C201.099 296.648 202.204 295.367 203.647 294.645C205.09 293.924 206.754 293.82 208.271 294.358C209.789 294.896 211.036 296.031 211.739 297.513C212.441 298.995 212.542 300.703 212.018 302.261C211.473 303.879 211.09 305.55 210.876 307.248C210.769 308.81 210.089 310.273 208.972 311.34C207.855 312.406 206.385 312.998 204.86 312.994V312.994Z" fill="#0086CF"/>
<path d="M201.506 484.481C207.557 487.306 214.108 488.91 220.782 489.199C227.448 477.369 247.529 445.317 229.264 419.026L203.425 405.163C203.425 405.163 229.264 432.069 201.506 484.481Z" fill="#184466"/>
<path d="M214.661 495.113C214.661 495.113 217.078 490.254 218.974 487.009C217.565 486.838 211.199 486.58 208.538 485.584C205.156 491.601 201.294 497.342 196.988 502.753H232.229L214.661 495.113Z" fill="#002E4F"/>
<path d="M257.431 420.27C253.095 411.875 221.607 386.587 218.768 372.063C218.51 370.775 218.286 369.454 218.097 368.114C213.055 370.775 206.483 371.548 201.286 371.771C195.384 372.063 191.857 372.424 186.145 369.66C186.626 378.673 185.164 387.377 190.429 396.493C200.89 414.622 235.63 430.124 239.519 436.116C247.159 447.927 249.843 473.559 252.407 489.199C256.502 489.199 266.172 489.01 270.181 487.602C268.839 479.585 271.024 446.571 257.431 420.27Z" fill="#184466"/>
<path d="M268.365 494.048C268.365 494.048 267.234 489.508 266.909 487.392C262.933 488.774 260.619 487.392 256.626 487.392C257.243 491.249 256.781 498.452 257.141 502.753H290.06L268.365 494.048Z" fill="#002E4F"/>
<path d="M201.77 376.124C206.738 375.9 217.2 374.407 221.386 370.269C220.535 363.401 217.473 352.276 218.561 343.348C222.202 313.079 207.554 304.014 207.554 304.014C207.554 304.014 200.749 299.258 195.356 304.941C187.105 313.526 179.075 337.717 179.874 373.514C185.557 376.467 195.798 376.398 201.77 376.124Z" fill="#CDE5E8"/>
<path d="M278.007 386.049C277.504 386.048 277.003 385.996 276.51 385.895C252.658 380.376 232.469 366.132 218.041 344.758C211.584 335.227 206.664 324.747 203.458 313.699C203.103 312.039 203.407 310.305 204.306 308.864C205.206 307.422 206.631 306.383 208.282 305.966C209.933 305.549 211.682 305.786 213.162 306.627C214.642 307.468 215.737 308.848 216.218 310.477C219.129 320.236 223.538 329.487 229.288 337.902C241.928 356.568 258.815 368.463 279.486 373.245C281.072 373.594 282.472 374.517 283.416 375.834C284.36 377.152 284.78 378.772 284.596 380.38C284.413 381.989 283.637 383.472 282.42 384.545C281.203 385.617 279.631 386.202 278.007 386.186V386.049Z" fill="#00A4E2"/>
<path d="M263.199 366.523C249.595 359.915 238.045 349.732 229.785 337.064C224.097 328.704 219.727 319.52 216.827 309.833C216.579 308.841 216.137 307.908 215.528 307.088C214.918 306.267 214.151 305.575 213.273 305.052C212.395 304.528 211.422 304.183 210.41 304.037C209.398 303.891 208.367 303.947 207.377 304.2C206.387 304.449 205.456 304.89 204.636 305.499C203.817 306.108 203.126 306.872 202.603 307.748C202.08 308.625 201.735 309.596 201.587 310.606C201.44 311.616 201.493 312.645 201.745 313.634V313.79C204.69 326.101 209.709 337.822 216.585 348.45C227.624 365.368 243.551 378.524 262.248 386.168C262.391 386.193 262.537 386.193 262.68 386.168C262.915 386.169 263.145 386.096 263.337 385.961C263.495 385.853 263.624 385.709 263.714 385.54C263.804 385.372 263.853 385.184 263.855 384.993V367.577C263.859 367.357 263.799 367.14 263.683 366.953C263.566 366.766 263.398 366.616 263.199 366.523Z" fill="#E1F3F6"/>
<path d="M282.678 386.182C280.466 386.165 278.26 385.951 276.092 385.544C275.629 385.424 275.232 385.148 274.981 384.77C274.729 384.392 274.642 383.941 274.736 383.506C274.829 383.071 275.098 382.685 275.487 382.425C275.877 382.165 276.358 382.049 276.835 382.103C282.492 383.146 287.221 382.757 290.868 380.966C291.317 380.75 291.84 380.706 292.323 380.843C292.806 380.98 293.212 381.287 293.452 381.698C293.57 381.901 293.642 382.124 293.666 382.353C293.69 382.582 293.664 382.814 293.59 383.034C293.516 383.254 293.396 383.458 293.236 383.635C293.076 383.812 292.88 383.958 292.658 384.065C289.574 385.524 286.144 386.252 282.678 386.182Z" fill="#00A4E2"/>
<path d="M282.913 382.572C281.97 382.569 281.029 382.494 280.096 382.347C279.832 382.325 279.575 382.244 279.341 382.108C279.107 381.972 278.9 381.784 278.735 381.557C278.57 381.329 278.449 381.067 278.38 380.786C278.311 380.505 278.295 380.211 278.334 379.923C278.373 379.636 278.465 379.36 278.605 379.113C278.745 378.866 278.93 378.653 279.148 378.488C279.367 378.323 279.613 378.209 279.873 378.153C280.133 378.098 280.401 378.101 280.659 378.164C284.784 378.63 288.942 377.743 292.608 375.613C293.05 375.341 293.572 375.272 294.061 375.419C294.549 375.566 294.966 375.919 295.219 376.401C295.347 376.64 295.431 376.903 295.465 377.177C295.499 377.452 295.483 377.73 295.417 377.997C295.352 378.265 295.239 378.515 295.085 378.734C294.931 378.952 294.739 379.135 294.52 379.271C290.945 381.373 286.966 382.505 282.913 382.572V382.572Z" fill="#00A4E2"/>
<path d="M281.001 378.047H280.071C279.564 377.996 279.099 377.771 278.773 377.42C278.446 377.069 278.283 376.619 278.318 376.163C278.367 375.709 278.613 375.29 279.003 374.996C279.393 374.703 279.896 374.558 280.405 374.593C281.711 374.702 283.028 374.552 284.261 374.153C285.495 373.754 286.615 373.116 287.542 372.285C287.885 371.96 288.353 371.762 288.851 371.733C289.35 371.703 289.843 371.843 290.231 372.125C290.619 372.407 290.874 372.81 290.944 373.253C291.014 373.696 290.895 374.147 290.61 374.514C289.381 375.681 287.889 376.6 286.231 377.209C284.574 377.819 282.791 378.104 281.001 378.047V378.047Z" fill="#00A4E2"/>
<path d="M274.696 375.343C274.203 375.297 273.744 375.068 273.41 374.703C273.077 374.337 272.892 373.86 272.892 373.365C272.892 372.87 273.077 372.394 273.41 372.028C273.744 371.662 274.203 371.433 274.696 371.387C275.931 371.33 277.138 371.002 278.232 370.428C279.325 369.854 280.279 369.046 281.025 368.063C281.324 367.632 281.783 367.337 282.3 367.243C282.818 367.149 283.351 367.264 283.784 367.562C284.216 367.861 284.512 368.318 284.606 368.834C284.701 369.351 284.586 369.883 284.286 370.314C283.171 371.819 281.729 373.053 280.069 373.924C278.408 374.795 276.572 375.28 274.696 375.343V375.343Z" fill="#00A4E2"/>
<path d="M268.144 331.066C267.829 331.067 267.52 330.992 267.24 330.85C266.961 330.707 266.721 330.5 266.54 330.245C264.855 327.991 263.655 325.419 263.015 322.687C262.946 322.423 262.933 322.148 262.978 321.879C263.022 321.61 263.122 321.352 263.272 321.123C263.421 320.894 263.617 320.699 263.847 320.549C264.077 320.398 264.336 320.297 264.607 320.251C264.879 320.205 265.157 320.215 265.424 320.281C265.691 320.347 265.942 320.467 266.16 320.634C266.378 320.8 266.559 321.01 266.691 321.249C266.823 321.489 266.904 321.752 266.928 322.024C267.484 324.169 268.46 326.186 269.8 327.959C269.954 328.167 270.065 328.403 270.126 328.654C270.187 328.905 270.197 329.165 270.156 329.42C270.115 329.675 270.024 329.919 269.887 330.138C269.75 330.358 269.571 330.548 269.36 330.699C269.005 330.947 268.578 331.076 268.144 331.066V331.066Z" fill="#00A4E2"/>
<path d="M268.305 331.937H267.924C263.689 331.403 259.421 331.14 255.149 331.15C254.878 331.174 254.605 331.144 254.347 331.063C254.089 330.981 253.852 330.849 253.651 330.675C253.45 330.502 253.289 330.29 253.179 330.054C253.069 329.818 253.012 329.563 253.012 329.305C253.012 329.047 253.069 328.792 253.179 328.556C253.289 328.32 253.45 328.108 253.651 327.934C253.852 327.761 254.089 327.629 254.347 327.547C254.605 327.465 254.878 327.436 255.149 327.46C259.671 327.444 264.188 327.729 268.668 328.313C269.129 328.414 269.535 328.67 269.812 329.034C270.088 329.398 270.216 329.845 270.172 330.292C270.128 330.739 269.914 331.155 269.571 331.464C269.227 331.772 268.777 331.952 268.305 331.97V331.937Z" fill="#00A4E2"/>
<path d="M254.168 336.484C253.655 336.519 253.15 336.328 252.764 335.952C252.379 335.575 252.144 335.045 252.112 334.477C252.08 333.91 252.253 333.351 252.593 332.925C252.933 332.499 253.413 332.239 253.926 332.204C255.169 332.032 266.017 330.56 269.609 331.248C270.087 331.382 270.502 331.71 270.77 332.168C271.039 332.625 271.14 333.178 271.055 333.716C270.97 334.253 270.704 334.734 270.311 335.064C269.917 335.393 269.426 335.545 268.936 335.49C266.708 335.051 258.848 335.853 254.409 336.465L254.168 336.484Z" fill="#00A4E2"/>
<path d="M256.758 341.006C256.27 340.985 255.805 340.775 255.45 340.414C255.095 340.053 254.874 339.566 254.828 339.043C254.782 338.52 254.915 337.998 255.201 337.572C255.486 337.146 255.907 336.846 256.383 336.728C259.28 336.203 262.135 335.44 264.923 334.445C266.013 334.061 267.388 333.601 269.443 332.948C269.953 332.8 270.498 332.873 270.959 333.152C271.42 333.43 271.76 333.892 271.908 334.437C272.055 334.982 271.998 335.568 271.747 336.068C271.497 336.568 271.073 336.943 270.568 337.112C268.567 337.725 267.281 338.167 266.138 338.57C263.22 339.607 260.234 340.409 257.205 340.968L256.758 341.006Z" fill="#00A4E2"/>
<path d="M261.217 343.717C260.744 343.708 260.29 343.53 259.944 343.215C259.598 342.901 259.384 342.473 259.344 342.015C259.304 341.556 259.441 341.1 259.727 340.733C260.014 340.367 260.43 340.116 260.895 340.03C267.064 339.01 268.301 336.739 268.301 336.739C268.485 336.303 268.832 335.951 269.273 335.754C269.714 335.557 270.216 335.531 270.676 335.679C271.137 335.827 271.522 336.14 271.754 336.554C271.987 336.967 272.048 337.451 271.928 337.907C271.69 338.632 270.046 342.269 261.539 343.684L261.217 343.717Z" fill="#00A4E2"/>
<path d="M268.829 341.006L267.47 325.645C269.24 325.795 270.886 326.665 272.064 328.073C273.242 329.482 273.861 331.319 273.79 333.2C273.805 335.528 273.158 338.175 268.829 341.006Z" fill="#00A4E2"/>
<path d="M224.604 290.059C225.415 293.268 224.969 296.68 223.363 299.546C221.758 302.413 219.125 304.5 216.041 305.349V305.349C212.954 306.198 209.669 305.736 206.909 304.066C204.149 302.396 202.14 299.654 201.324 296.443L199.2 288.059C198.793 286.47 198.692 284.813 198.901 283.184C199.111 281.554 199.627 279.983 200.421 278.562C201.215 277.14 202.271 275.895 203.527 274.898C204.784 273.901 206.218 273.171 207.746 272.751C209.275 272.328 210.868 272.224 212.436 272.443C214.004 272.662 215.514 273.201 216.881 274.028C218.249 274.855 219.445 275.955 220.403 277.264C221.361 278.573 222.061 280.066 222.464 281.657L224.604 290.059Z" fill="#00A4E2"/>
<path d="M223.501 285.886C222.684 288.452 221.204 290.773 219.202 292.629C216.65 294.679 213.574 296.02 210.299 296.512C207.024 297.003 203.674 296.626 200.602 295.42L200.825 296.234C201.722 299.231 203.791 301.77 206.591 303.308C209.391 304.846 212.7 305.262 215.812 304.466C218.924 303.671 221.592 301.727 223.246 299.05C224.9 296.372 225.41 293.174 224.666 290.138L223.501 285.886Z" fill="#184466"/>
<path d="M200.801 295.825C196.481 292.789 191.808 281.29 198.641 278.777C202.866 277.207 201.17 291.411 201.17 295.424L200.801 295.825Z" fill="#184466"/>
<path d="M197.158 279.694C191.454 275.641 198.54 264.199 212.643 264.199C221.391 264.199 221.391 270.732 215.285 274.255C210.263 277.18 202.512 275.47 198.75 280.464L197.158 279.694Z" fill="#184466"/>
<path d="M224.092 287.693C221.443 283.777 219.043 279.696 216.908 275.475C215.966 273.363 214.687 269.746 218.927 272.315C222.46 274.461 224.395 282.049 224.059 285.834L224.092 287.693Z" fill="#184466"/>
<path d="M126.013 315.663C123.742 317.553 121.577 319.562 119.526 321.68L91.265 379.861L112.291 353.085L134.639 307.572C131.734 310.298 128.917 313.006 126.013 315.663Z" fill="#184466"/>
<path d="M109.357 306.257C111.395 303.467 113.348 300.19 115.663 297.295L66.5271 273.235L19.8795 277.915L101.565 315.705C104.277 312.637 106.972 309.534 109.357 306.257Z" fill="#184466"/>
<path d="M116.253 297.633C113.645 300.878 111.521 304.708 109.017 307.731C106.771 310.461 104.509 313.175 102.108 315.854L139.24 332.873L152.711 315.373L116.253 297.633Z" fill="#00AFE2"/>
<path d="M60.5837 365.104L74.8851 335.107L0 299.117L12.0036 273.89L135.332 200.946L168.976 217.133L119.521 320.883L139.876 330.681L126.157 359.662L105.769 349.864L91.4843 379.861L60.5837 365.104ZM116.057 248.731L114.171 247.819L48.2029 286.598L88.7235 306.074L116.057 248.731Z" fill="#0076AD"/>
<path d="M140.086 330.586L152.711 314.801L142.812 336.817L125.602 360.886L140.086 330.586Z" fill="#184466"/>
<path d="M135.056 306.714L184.337 200.042L169.393 217.749L119.277 321.127C120.633 319.805 134.256 307.503 135.056 306.714Z" fill="#184466"/>
<path d="M11.747 274.139L33.7752 254.945L154.518 185.584L135.325 201.286L11.747 274.139Z" fill="#184466"/>
<path d="M135.542 201.167L169.443 217.211L184.337 199.614L154.842 185.584L135.542 201.167Z" fill="#00D2FD"/>
<path d="M94.1066 279.373C89.9819 276.401 87.1408 277.645 85.1554 278.025C83.8273 278.204 82.4797 277.898 81.3558 277.161C81.1446 277.023 80.9083 276.928 80.6607 276.882C80.413 276.835 80.1588 276.839 79.9124 276.892C79.6661 276.945 79.4325 277.046 79.225 277.19C79.0175 277.334 78.8401 277.518 78.703 277.732C78.5659 277.945 78.4717 278.183 78.4259 278.433C78.3801 278.683 78.3835 278.94 78.436 279.189C78.4884 279.437 78.5889 279.673 78.7316 279.883C78.8743 280.092 79.0565 280.271 79.2678 280.41C80.7264 281.316 82.3136 281.992 83.9745 282.414C80.7739 285.368 77.5049 288.927 77.3167 289.135C77.1447 289.322 77.0113 289.543 76.9242 289.783C76.8371 290.023 76.798 290.278 76.8091 290.534C76.8202 290.789 76.8814 291.04 76.9891 291.271C77.0968 291.503 77.2488 291.71 77.4365 291.882C77.7907 292.211 78.2561 292.39 78.7372 292.383C79.0034 292.382 79.2665 292.326 79.5106 292.219C79.7548 292.112 79.975 291.956 80.1578 291.761C80.1578 291.761 82.4683 289.238 85.0014 286.768C82.6395 289.757 80.4316 292.849 80.0209 293.42C79.8127 293.712 79.6886 294.056 79.662 294.415C79.6355 294.773 79.7077 295.132 79.8706 295.452C80.0335 295.772 80.2807 296.041 80.5851 296.228C80.8895 296.415 81.2391 296.513 81.5954 296.512C81.9001 296.51 82.1999 296.436 82.4706 296.295C82.7412 296.153 82.975 295.95 83.1529 295.7C84.4195 293.972 86.1994 291.519 87.8938 289.359C87.2606 290.621 86.4562 292.055 84.8645 294.664C84.7295 294.88 84.6384 295.121 84.5964 295.373C84.5543 295.625 84.5622 295.883 84.6195 296.132C84.6768 296.381 84.7824 296.616 84.9302 296.824C85.078 297.031 85.2651 297.207 85.4806 297.342C85.9147 297.612 86.437 297.698 86.9339 297.582C87.4307 297.465 87.8619 297.155 88.1334 296.72L89.845 293.99C89.678 294.407 89.6602 294.869 89.7945 295.298C89.9288 295.727 90.2069 296.095 90.5809 296.339C90.8927 296.541 91.2548 296.649 91.6249 296.65C91.9449 296.652 92.2602 296.572 92.5414 296.418C92.8227 296.264 93.0608 296.041 93.2338 295.769C94.6707 293.677 95.7096 291.334 96.2974 288.858C97.3756 283.381 96.0749 280.79 94.1066 279.373ZM90.2215 293.057C90.8548 291.934 91.2826 291.07 91.6934 290.223C91.2758 291.205 90.7837 292.152 90.2215 293.057V293.057Z" fill="#00A4E2"/>
<path d="M34.6135 300.98C28.5153 300.634 19.6421 312.705 28.7038 315.995C20.5158 315.805 18.4259 327.529 26.0144 330.768C12.8588 328.17 14.3833 345.419 20.6185 351.671C19.5604 351.538 18.4862 351.648 17.4758 351.992C16.4654 352.337 15.5449 352.907 14.7828 353.661C14.0206 354.415 13.4364 355.333 13.0736 356.347C12.7109 357.361 12.5789 358.444 12.6875 359.516C13.3384 363.985 15.0857 370.185 26.0315 373.51C36.9774 376.835 43.6751 370.618 49.1224 364.747C52.5483 371.951 69.8321 362.218 67.965 353.611C74.4572 355.932 80.2813 348.415 80.4183 342.51C80.5553 336.604 76.5127 332.257 72.6757 328.482C75.3822 325.971 75.8961 321.347 75.1766 317.797C73.9947 311.908 66.7145 311.337 66.7145 306.644C66.7145 305.016 67.0229 299.924 65.6354 297.69C63.477 294.053 59.6571 290.589 54.8437 292.321C34.6135 282.64 34.6135 300.98 34.6135 300.98Z" fill="#184466"/>
<path d="M46.5448 489.405C40.9595 488.44 40.0458 488.711 34.4778 487.392L21.6867 502.753H71.3855L42.5454 495.14L46.5448 489.405Z" fill="#002E4F"/>
<path d="M138.785 493.866L135.829 490.102C133.207 491.805 130.379 493.187 127.41 494.218L135.276 502.753H164.458L138.785 493.866Z" fill="#002E4F"/>
<path d="M28.9156 489.112C34.4883 490.465 40.0609 491.871 45.7026 492.813L86.747 442.652L79.8459 422.722L51.0165 389.801L59.2978 436.449L28.9156 489.112Z" fill="#184466"/>
<path d="M85.0379 375.51C73.8923 372.525 58.7466 376.304 47.8916 380.445C47.8916 380.445 54.5584 407.206 58.9346 415.178C71.6529 438.419 126.731 496.428 126.731 496.428C129.757 495.392 135.586 491.096 138.253 489.353L85.0379 375.51Z" fill="#184466"/>
<path d="M45.8197 391.608C56.6263 387.501 78.4111 380.538 89.4578 383.358C89.4578 383.358 74.706 348.233 68.0161 340.488C63.5048 335.266 38.8554 320.523 38.8554 339.774C39.1467 357.271 41.4845 374.671 45.8197 391.608Z" fill="#CDE5E8"/>
<path d="M55.658 337.957L55.2443 338.09C53.7173 338.502 52.09 338.289 50.7191 337.498C49.3482 336.707 48.3456 335.404 47.931 333.872C47.331 331.257 47.0148 328.585 46.9879 325.902C47.0684 324.369 47.7319 322.925 48.8417 321.869C49.9515 320.812 51.423 320.223 52.9527 320.223C54.4825 320.223 55.9539 320.812 57.0637 321.869C58.1735 322.925 58.837 324.369 58.9175 325.902C58.9167 327.549 59.0942 329.192 59.447 330.8C59.8226 332.253 59.6417 333.794 58.9402 335.119C58.2387 336.444 57.0675 337.457 55.658 337.957Z" fill="#00A4E2"/>
<path d="M59.6385 331.97C59.6129 331.537 59.5465 331.108 59.4401 330.688C59.0875 329.097 58.91 327.472 58.9109 325.842C58.8305 324.325 58.1673 322.897 57.0581 321.851C55.9489 320.806 54.4783 320.223 52.9494 320.223C51.4205 320.223 49.9499 320.806 48.8407 321.851C47.7315 322.897 47.0684 324.325 46.9879 325.842C46.9879 325.924 46.9879 326.105 46.9879 326.351C49.9315 329.604 54.7767 331.165 59.6385 331.97Z" fill="#0086CF"/>
<path d="M66.2902 313.688C67.2567 316.685 67.0021 319.946 65.5823 322.753C64.1626 325.561 61.6939 327.686 58.7191 328.661V328.661C57.2404 329.151 55.6801 329.343 54.1276 329.225C52.5752 329.107 51.0611 328.682 49.6721 327.973C48.2832 327.265 47.0467 326.287 46.0335 325.097C45.0203 323.906 44.2503 322.526 43.7677 321.035L41.2383 313.182C40.76 311.697 40.577 310.132 40.6996 308.576C40.8222 307.019 41.248 305.503 41.9527 304.112C42.6574 302.722 43.6271 301.485 44.8066 300.472C45.986 299.459 47.3521 298.69 48.8266 298.209V298.209C51.8019 297.241 55.037 297.499 57.8233 298.929C60.6096 300.358 62.7197 302.842 63.6914 305.835L66.2902 313.688Z" fill="#00A4E2"/>
<path d="M134.865 307.203C134.625 307.009 134.344 306.873 134.044 306.806L134.968 305.785C135.141 305.599 135.276 305.379 135.364 305.139C135.453 304.9 135.493 304.644 135.484 304.389C135.474 304.133 135.415 303.882 135.309 303.65C135.202 303.417 135.052 303.209 134.865 303.035L134.557 302.793C134.819 302.41 134.937 301.946 134.89 301.483C134.843 301.02 134.634 300.589 134.301 300.268C134.041 300.025 133.72 299.858 133.372 299.788C133.025 299.718 132.665 299.747 132.333 299.871C133.206 298.971 133.753 298.349 133.822 298.279C134.013 298.092 134.164 297.866 134.265 297.617C134.366 297.367 134.415 297.099 134.409 296.83C134.403 296.56 134.341 296.295 134.229 296.051C134.116 295.807 133.955 295.588 133.755 295.41C133.555 295.232 133.32 295.097 133.066 295.015C132.812 294.933 132.544 294.904 132.279 294.932C132.014 294.959 131.757 295.042 131.525 295.175C131.292 295.307 131.09 295.487 130.93 295.702C128.419 298.517 125.541 300.972 122.374 303.001C121.276 301.282 119.706 299.923 117.856 299.092C117.392 298.958 116.895 299.005 116.463 299.223C116.031 299.44 115.695 299.813 115.522 300.268C115.348 300.723 115.349 301.228 115.524 301.682C115.7 302.137 116.037 302.508 116.47 302.724C117.582 303.269 118.52 304.12 119.174 305.18C118.969 305.74 118.82 306.32 118.729 306.909C90.3742 345.684 52.7962 331.918 51.085 331.261C49.4863 330.725 47.7452 330.832 46.2227 331.56C44.7001 332.287 43.5131 333.579 42.9078 335.168C42.3025 336.756 42.3254 338.519 42.9718 340.09C43.6181 341.662 44.8383 342.922 46.3792 343.609C53.7053 346.154 61.4088 347.412 69.1553 347.327C71.9458 347.331 74.7341 347.169 77.5059 346.843C91.6576 345.114 112.586 336.95 129.321 315.159C129.724 314.923 130.112 314.663 130.485 314.381C130.846 314.146 131.194 313.892 131.529 313.62V313.62C132.827 312.49 134.029 311.252 135.122 309.919C135.434 309.52 135.581 309.015 135.533 308.509C135.486 308.003 135.246 307.535 134.865 307.203V307.203Z" fill="#00A4E2"/>
<path d="M82.5407 331.829L80.9421 332.166C76.9877 332.998 72.9544 333.416 68.91 333.413C62.9093 333.485 56.9399 332.557 51.257 330.667C49.3421 329.947 47.2141 330 45.339 330.815C43.464 331.629 41.9948 333.139 41.2532 335.013C40.8417 335.93 40.6408 336.925 40.6645 337.926C40.6883 338.928 40.9362 339.912 41.3907 340.809C45.1722 347.38 55.5542 350.042 68.9787 350.042C71.8508 350.043 74.7204 349.88 77.5731 349.554C79.3688 349.356 81.153 349.07 82.9188 348.694L84.0361 348.408C83.0364 345.268 82.3852 342.031 82.0938 338.754C82.0999 336.439 82.2491 334.126 82.5407 331.829V331.829Z" fill="#E1F3F6"/>
<path d="M41.0637 319.319C45.0467 316.706 46.4079 311.842 45.971 306.962C49.4666 309.385 52.2227 307.914 54.3739 303.76C60.9785 313.296 71.0284 299.122 57.3149 293.981C46.3407 289.879 35.585 301.06 38.4084 312.292L41.0637 319.319Z" fill="#184466"/>
<path d="M241.055 42.7422C241.055 47.7578 240.188 52.1641 238.453 55.9609C236.719 59.7344 234.234 62.6406 231 64.6797C227.789 66.6953 224.086 67.7031 219.891 67.7031C215.742 67.7031 212.039 66.6953 208.781 64.6797C205.547 62.6406 203.039 59.7461 201.258 55.9961C199.5 52.2461 198.609 47.9219 198.586 43.0234V40.1406C198.586 35.1484 199.465 30.7422 201.223 26.9219C203.004 23.1016 205.5 20.1836 208.711 18.168C211.945 16.1289 215.648 15.1094 219.82 15.1094C223.992 15.1094 227.684 16.1172 230.895 18.1328C234.129 20.125 236.625 23.0078 238.383 26.7812C240.141 30.5313 241.031 34.9023 241.055 39.8945V42.7422ZM232.16 40.0703C232.16 34.3984 231.082 30.0508 228.926 27.0273C226.793 24.0039 223.758 22.4922 219.82 22.4922C215.977 22.4922 212.965 24.0039 210.785 27.0273C208.629 30.0273 207.527 34.2812 207.48 39.7891V42.7422C207.48 48.3672 208.57 52.7148 210.75 55.7852C212.953 58.8555 216 60.3906 219.891 60.3906C223.828 60.3906 226.852 58.8906 228.961 55.8906C231.094 52.8906 232.16 48.5078 232.16 42.7422V40.0703ZM290.766 42.7422C290.766 47.7578 289.898 52.1641 288.164 55.9609C286.43 59.7344 283.945 62.6406 280.711 64.6797C277.5 66.6953 273.797 67.7031 269.602 67.7031C265.453 67.7031 261.75 66.6953 258.492 64.6797C255.258 62.6406 252.75 59.7461 250.969 55.9961C249.211 52.2461 248.32 47.9219 248.297 43.0234V40.1406C248.297 35.1484 249.176 30.7422 250.934 26.9219C252.715 23.1016 255.211 20.1836 258.422 18.168C261.656 16.1289 265.359 15.1094 269.531 15.1094C273.703 15.1094 277.395 16.1172 280.605 18.1328C283.84 20.125 286.336 23.0078 288.094 26.7812C289.852 30.5313 290.742 34.9023 290.766 39.8945V42.7422ZM281.871 40.0703C281.871 34.3984 280.793 30.0508 278.637 27.0273C276.504 24.0039 273.469 22.4922 269.531 22.4922C265.688 22.4922 262.676 24.0039 260.496 27.0273C258.34 30.0273 257.238 34.2812 257.191 39.7891V42.7422C257.191 48.3672 258.281 52.7148 260.461 55.7852C262.664 58.8555 265.711 60.3906 269.602 60.3906C273.539 60.3906 276.562 58.8906 278.672 55.8906C280.805 52.8906 281.871 48.5078 281.871 42.7422V40.0703ZM308.52 47.9805V67H299.625V15.8125H319.207C324.926 15.8125 329.461 17.3008 332.812 20.2773C336.188 23.2539 337.875 27.1914 337.875 32.0898C337.875 37.1055 336.223 41.0078 332.918 43.7969C329.637 46.5859 325.031 47.9805 319.102 47.9805H308.52ZM308.52 40.8438H319.207C322.371 40.8438 324.785 40.1055 326.449 38.6289C328.113 37.1289 328.945 34.9727 328.945 32.1602C328.945 29.3945 328.102 27.1914 326.414 25.5508C324.727 23.8867 322.406 23.0312 319.453 22.9844H308.52V40.8438ZM372.434 53.8164C372.434 51.5664 371.637 49.832 370.043 48.6133C368.473 47.3945 365.625 46.1641 361.5 44.9219C357.375 43.6797 354.094 42.2969 351.656 40.7734C346.992 37.8438 344.66 34.0234 344.66 29.3125C344.66 25.1875 346.336 21.7891 349.688 19.1172C353.062 16.4453 357.434 15.1094 362.801 15.1094C366.363 15.1094 369.539 15.7656 372.328 17.0781C375.117 18.3906 377.309 20.2656 378.902 22.7031C380.496 25.1172 381.293 27.8008 381.293 30.7539H372.434C372.434 28.082 371.59 25.9961 369.902 24.4961C368.238 22.9727 365.848 22.2109 362.73 22.2109C359.824 22.2109 357.562 22.832 355.945 24.0742C354.352 25.3164 353.555 27.0508 353.555 29.2773C353.555 31.1523 354.422 32.7227 356.156 33.9883C357.891 35.2305 360.75 36.4492 364.734 37.6445C368.719 38.8164 371.918 40.1641 374.332 41.6875C376.746 43.1875 378.516 44.9219 379.641 46.8906C380.766 48.8359 381.328 51.1211 381.328 53.7461C381.328 58.0117 379.688 61.4102 376.406 63.9414C373.148 66.4492 368.719 67.7031 363.117 67.7031C359.414 67.7031 356.004 67.0234 352.887 65.6641C349.793 64.2812 347.379 62.3828 345.645 59.9688C343.934 57.5547 343.078 54.7422 343.078 51.5312H351.973C351.973 54.4375 352.934 56.6875 354.855 58.2812C356.777 59.875 359.531 60.6719 363.117 60.6719C366.211 60.6719 368.531 60.0508 370.078 58.8086C371.648 57.543 372.434 55.8789 372.434 53.8164ZM397.359 51.918H390.012L389.203 15.8125H398.203L397.359 51.918ZM388.957 62.957C388.957 61.6211 389.391 60.5195 390.258 59.6523C391.125 58.7617 392.309 58.3164 393.809 58.3164C395.309 58.3164 396.492 58.7617 397.359 59.6523C398.227 60.5195 398.66 61.6211 398.66 62.957C398.66 64.2461 398.238 65.3242 397.395 66.1914C396.551 67.0586 395.355 67.4922 393.809 67.4922C392.262 67.4922 391.066 67.0586 390.223 66.1914C389.379 65.3242 388.957 64.2461 388.957 62.957Z" fill="#249BD2"/>
<path d="M173.396 122.576V133H171.234V107.406H179.953C182.613 107.406 184.711 108.086 186.246 109.445C187.793 110.805 188.566 112.674 188.566 115.053C188.566 117.455 187.822 119.312 186.334 120.625C184.857 121.926 182.713 122.576 179.9 122.576H173.396ZM173.396 120.748H179.953C182.051 120.748 183.65 120.25 184.752 119.254C185.854 118.258 186.404 116.869 186.404 115.088C186.404 113.318 185.854 111.912 184.752 110.869C183.662 109.814 182.109 109.275 180.094 109.252H173.396V120.748ZM206.521 133C206.31 132.402 206.175 131.518 206.116 130.346C205.378 131.307 204.435 132.051 203.286 132.578C202.15 133.094 200.943 133.352 199.665 133.352C197.837 133.352 196.355 132.842 195.218 131.822C194.093 130.803 193.53 129.514 193.53 127.955C193.53 126.104 194.298 124.639 195.833 123.561C197.38 122.482 199.53 121.943 202.284 121.943H206.099V119.781C206.099 118.422 205.677 117.355 204.833 116.582C204.001 115.797 202.782 115.404 201.177 115.404C199.712 115.404 198.499 115.779 197.538 116.529C196.577 117.279 196.097 118.182 196.097 119.236L193.987 119.219C193.987 117.707 194.691 116.4 196.097 115.299C197.503 114.186 199.232 113.629 201.282 113.629C203.404 113.629 205.073 114.162 206.292 115.229C207.523 116.283 208.155 117.76 208.191 119.658V128.658C208.191 130.498 208.384 131.875 208.771 132.789V133H206.521ZM199.911 131.488C201.318 131.488 202.571 131.148 203.673 130.469C204.786 129.789 205.595 128.881 206.099 127.744V123.561H202.337C200.239 123.584 198.599 123.971 197.415 124.721C196.232 125.459 195.64 126.479 195.64 127.779C195.64 128.846 196.032 129.73 196.818 130.434C197.614 131.137 198.646 131.488 199.911 131.488ZM214.772 123.314C214.772 120.338 215.428 117.982 216.741 116.248C218.065 114.502 219.858 113.629 222.12 113.629C224.709 113.629 226.678 114.66 228.026 116.723L228.131 113.98H230.1V132.613C230.1 135.062 229.414 137.002 228.043 138.432C226.672 139.861 224.815 140.576 222.471 140.576C221.147 140.576 219.881 140.277 218.674 139.68C217.479 139.094 216.536 138.309 215.844 137.324L217.022 136.059C218.51 137.887 220.28 138.801 222.33 138.801C224.088 138.801 225.459 138.279 226.444 137.236C227.428 136.205 227.938 134.77 227.973 132.93V130.539C226.625 132.414 224.662 133.352 222.084 133.352C219.881 133.352 218.112 132.473 216.776 130.715C215.44 128.957 214.772 126.584 214.772 123.596V123.314ZM216.899 123.684C216.899 126.109 217.385 128.025 218.358 129.432C219.33 130.826 220.702 131.523 222.471 131.523C225.061 131.523 226.895 130.363 227.973 128.043V119.201C227.481 117.982 226.772 117.057 225.846 116.424C224.92 115.779 223.807 115.457 222.506 115.457C220.737 115.457 219.36 116.154 218.375 117.549C217.391 118.932 216.899 120.977 216.899 123.684ZM244.75 133.352C243.132 133.352 241.668 132.953 240.355 132.156C239.054 131.359 238.041 130.252 237.314 128.834C236.588 127.404 236.224 125.805 236.224 124.035V123.279C236.224 121.451 236.576 119.805 237.279 118.34C237.994 116.875 238.984 115.727 240.25 114.895C241.515 114.051 242.886 113.629 244.363 113.629C246.671 113.629 248.5 114.42 249.847 116.002C251.207 117.572 251.886 119.723 251.886 122.453V123.631H238.316V124.035C238.316 126.191 238.931 127.99 240.162 129.432C241.404 130.861 242.963 131.576 244.838 131.576C245.963 131.576 246.953 131.371 247.808 130.961C248.675 130.551 249.461 129.895 250.164 128.992L251.482 129.994C249.935 132.232 247.691 133.352 244.75 133.352ZM244.363 115.422C242.781 115.422 241.445 116.002 240.355 117.162C239.277 118.322 238.621 119.881 238.386 121.838H249.795V121.609C249.736 119.781 249.214 118.293 248.23 117.145C247.246 115.996 245.957 115.422 244.363 115.422ZM270.34 113.98L270.41 117.232C271.125 116.061 272.016 115.17 273.082 114.561C274.148 113.939 275.326 113.629 276.615 113.629C278.654 113.629 280.172 114.203 281.168 115.352C282.164 116.5 282.668 118.223 282.68 120.52V133H280.588V120.502C280.576 118.803 280.213 117.537 279.498 116.705C278.795 115.873 277.664 115.457 276.105 115.457C274.805 115.457 273.65 115.867 272.643 116.688C271.646 117.496 270.908 118.592 270.428 119.975V133H268.336V113.98H270.34ZM288.769 123.209C288.769 121.381 289.12 119.734 289.823 118.27C290.538 116.805 291.54 115.668 292.829 114.859C294.13 114.039 295.601 113.629 297.241 113.629C299.773 113.629 301.823 114.52 303.394 116.301C304.964 118.07 305.749 120.42 305.749 123.35V123.789C305.749 125.629 305.392 127.287 304.677 128.764C303.974 130.229 302.978 131.359 301.689 132.156C300.4 132.953 298.929 133.352 297.277 133.352C294.757 133.352 292.706 132.467 291.124 130.697C289.554 128.916 288.769 126.561 288.769 123.631V123.209ZM290.878 123.789C290.878 126.062 291.464 127.932 292.636 129.396C293.82 130.85 295.366 131.576 297.277 131.576C299.175 131.576 300.71 130.85 301.882 129.396C303.066 127.932 303.657 126.004 303.657 123.613V123.209C303.657 121.756 303.388 120.426 302.849 119.219C302.31 118.012 301.554 117.08 300.581 116.424C299.609 115.756 298.495 115.422 297.241 115.422C295.366 115.422 293.837 116.16 292.654 117.637C291.47 119.102 290.878 121.023 290.878 123.402V123.789ZM315.178 109.111V113.98H319.116V115.703H315.178V128.377C315.178 129.432 315.366 130.217 315.741 130.732C316.127 131.248 316.766 131.506 317.657 131.506C318.008 131.506 318.577 131.447 319.362 131.33L319.45 133.053C318.899 133.252 318.149 133.352 317.2 133.352C315.758 133.352 314.709 132.936 314.053 132.104C313.397 131.26 313.069 130.023 313.069 128.395V115.703H309.571V113.98H313.069V109.111H315.178ZM337.341 133V115.703H334.194V113.98H337.341V111.678C337.341 109.732 337.833 108.238 338.817 107.195C339.813 106.152 341.196 105.631 342.966 105.631C343.762 105.631 344.507 105.73 345.198 105.93L345.04 107.688C344.454 107.547 343.815 107.477 343.124 107.477C341.964 107.477 341.061 107.84 340.417 108.566C339.772 109.281 339.45 110.301 339.45 111.625V113.98H343.985V115.703H339.45V133H337.341ZM348.387 123.209C348.387 121.381 348.738 119.734 349.441 118.27C350.156 116.805 351.158 115.668 352.447 114.859C353.748 114.039 355.219 113.629 356.859 113.629C359.391 113.629 361.441 114.52 363.012 116.301C364.582 118.07 365.367 120.42 365.367 123.35V123.789C365.367 125.629 365.01 127.287 364.295 128.764C363.592 130.229 362.596 131.359 361.307 132.156C360.018 132.953 358.547 133.352 356.895 133.352C354.375 133.352 352.324 132.467 350.742 130.697C349.172 128.916 348.387 126.561 348.387 123.631V123.209ZM350.496 123.789C350.496 126.062 351.082 127.932 352.254 129.396C353.438 130.85 354.984 131.576 356.895 131.576C358.793 131.576 360.328 130.85 361.5 129.396C362.684 127.932 363.275 126.004 363.275 123.613V123.209C363.275 121.756 363.006 120.426 362.467 119.219C361.928 118.012 361.172 117.08 360.199 116.424C359.227 115.756 358.113 115.422 356.859 115.422C354.984 115.422 353.455 116.16 352.271 117.637C351.088 119.102 350.496 121.023 350.496 123.402V123.789ZM383.761 130.592C382.495 132.432 380.474 133.352 377.696 133.352C375.669 133.352 374.128 132.766 373.073 131.594C372.019 130.41 371.48 128.664 371.456 126.355V113.98H373.548V126.092C373.548 129.713 375.013 131.523 377.943 131.523C380.989 131.523 382.917 130.264 383.726 127.744V113.98H385.835V133H383.796L383.761 130.592ZM395.123 113.98L395.194 117.232C395.909 116.061 396.799 115.17 397.866 114.561C398.932 113.939 400.11 113.629 401.399 113.629C403.438 113.629 404.955 114.203 405.952 115.352C406.948 116.5 407.452 118.223 407.463 120.52V133H405.371V120.502C405.36 118.803 404.996 117.537 404.282 116.705C403.579 115.873 402.448 115.457 400.889 115.457C399.588 115.457 398.434 115.867 397.426 116.688C396.43 117.496 395.692 118.592 395.211 119.975V133H393.12V113.98H395.123ZM413.869 123.314C413.869 120.361 414.525 118.012 415.837 116.266C417.162 114.508 418.955 113.629 421.216 113.629C423.783 113.629 425.74 114.643 427.087 116.67V106H429.179V133H427.211L427.123 130.469C425.775 132.391 423.795 133.352 421.181 133.352C418.99 133.352 417.22 132.473 415.873 130.715C414.537 128.945 413.869 126.561 413.869 123.561V123.314ZM415.996 123.684C415.996 126.109 416.482 128.025 417.455 129.432C418.427 130.826 419.798 131.523 421.568 131.523C424.158 131.523 425.998 130.381 427.087 128.096V119.166C425.998 116.693 424.17 115.457 421.603 115.457C419.834 115.457 418.457 116.154 417.472 117.549C416.488 118.932 415.996 120.977 415.996 123.684Z" fill="#2998CB"/>
</svg>
