<svg width="336" height="367" viewBox="0 0 336 367" fill="none" xmlns="http://www.w3.org/2000/svg">
<path d="M240.465 59.3398C213.878 22.7663 175.228 5.72192 134.838 5.72192C134.838 5.72192 36.0641 5.72192 6.81254 94.1488C-3.99026 126.737 -1.58964 162.122 11.4937 193.859C16.4058 205.923 22.5946 217.428 29.9545 228.176C55.5091 265.025 134.922 365.623 134.922 365.623H152.182C174.34 334.847 230.118 232.617 246.827 199.836C267.772 158.702 270.989 101.327 240.465 59.3398ZM151.366 222.906C134.676 222.906 118.361 217.957 104.485 208.684C90.6079 199.412 79.7925 186.233 73.4062 170.813C67.0198 155.394 65.3495 138.427 68.6064 122.058C71.8632 105.689 79.901 90.6536 91.7032 78.8531C103.505 67.0525 118.542 59.0169 134.911 55.7624C151.281 52.5078 168.247 54.1806 183.666 60.5691C199.084 66.9576 212.262 77.7749 221.533 91.653C230.803 105.531 235.75 121.847 235.748 138.536C235.745 160.914 226.853 182.373 211.029 198.196C195.204 214.018 173.743 222.906 151.366 222.906Z" fill="#E8505B"/>
<path opacity="0.4" d="M240.465 59.3398C213.878 22.7663 175.228 5.72192 134.838 5.72192C134.838 5.72192 36.0641 5.72192 6.81254 94.1488C-3.99026 126.737 -1.58964 162.122 11.4937 193.859C16.4058 205.923 22.5946 217.428 29.9545 228.176C55.5091 265.025 134.922 365.623 134.922 365.623H152.182C174.34 334.847 230.118 232.617 246.827 199.836C267.772 158.702 270.989 101.327 240.465 59.3398ZM151.366 222.906C134.676 222.906 118.361 217.957 104.485 208.684C90.6079 199.412 79.7925 186.233 73.4062 170.813C67.0198 155.394 65.3495 138.427 68.6064 122.058C71.8632 105.689 79.901 90.6536 91.7032 78.8531C103.505 67.0525 118.542 59.0169 134.911 55.7624C151.281 52.5078 168.247 54.1806 183.666 60.5691C199.084 66.9576 212.262 77.7749 221.533 91.653C230.803 105.531 235.75 121.847 235.748 138.536C235.745 160.914 226.853 182.373 211.029 198.196C195.204 214.018 173.743 222.906 151.366 222.906Z" fill="black"/>
<path d="M257.833 60.0238C231.247 23.4624 192.597 6.41797 152.206 6.41797C152.206 6.41797 53.4326 6.41798 24.181 94.8449C13.3782 127.433 15.7788 162.818 28.8742 194.555C33.7796 206.62 39.9645 218.125 47.323 228.872C72.8776 265.709 152.254 366.355 152.254 366.355C152.254 366.355 243.97 240.191 264.159 200.58C285.141 159.374 288.369 102.023 257.833 60.0238ZM151.474 223.602C134.785 223.602 118.47 218.653 104.594 209.381C90.7174 200.109 79.902 186.931 73.5153 171.512C67.1286 156.093 65.4576 139.127 68.7135 122.758C71.9694 106.39 80.006 91.3544 91.807 79.5534C103.608 67.7524 118.643 59.7158 135.012 56.4599C151.38 53.204 168.347 54.875 183.766 61.2617C199.184 67.6484 212.363 78.4638 221.635 92.3403C230.907 106.217 235.856 122.531 235.856 139.22C235.939 150.325 233.813 161.335 229.602 171.61C225.391 181.885 219.178 191.22 211.326 199.073C203.474 206.925 194.139 213.137 183.863 217.348C173.588 221.559 162.578 223.685 151.474 223.602Z" fill="#E8505B"/>
<path d="M151.366 54.1544C133.928 54.1543 116.919 59.5564 102.677 69.6178C88.435 79.6792 77.6598 93.9057 71.8333 110.341C78.3437 95.9522 89.3867 84.0911 103.274 76.5708C117.162 69.0505 133.13 66.2847 148.738 68.6962C164.346 71.1077 178.735 78.5637 189.706 89.9247C200.676 101.286 207.624 115.927 209.489 131.609C211.353 147.292 208.031 163.154 200.029 176.77C192.028 190.386 179.788 201.008 165.18 207.011C150.573 213.014 134.401 214.069 119.137 210.014C103.874 205.959 90.3578 197.018 80.6555 184.556C88.6314 196.807 99.6535 206.776 112.642 213.485C125.63 220.193 140.138 223.412 154.745 222.826C169.352 222.24 183.556 217.869 195.964 210.14C208.373 202.412 218.561 191.592 225.529 178.742C232.497 165.891 236.007 151.45 235.714 136.834C235.422 122.219 231.336 107.93 223.859 95.3687C216.381 82.8073 205.768 72.4042 193.06 65.1792C180.352 57.9542 165.984 54.1552 151.366 54.1544Z" fill="#E8505B"/>
<path opacity="0.4" d="M151.366 54.1544C133.928 54.1543 116.919 59.5564 102.677 69.6178C88.435 79.6792 77.6598 93.9057 71.8333 110.341C78.3437 95.9522 89.3867 84.0911 103.274 76.5708C117.162 69.0505 133.13 66.2847 148.738 68.6962C164.346 71.1077 178.735 78.5637 189.706 89.9247C200.676 101.286 207.624 115.927 209.489 131.609C211.353 147.292 208.031 163.154 200.029 176.77C192.028 190.386 179.788 201.008 165.18 207.011C150.573 213.014 134.401 214.069 119.137 210.014C103.874 205.959 90.3578 197.018 80.6555 184.556C88.6314 196.807 99.6535 206.776 112.642 213.485C125.63 220.193 140.138 223.412 154.745 222.826C169.352 222.24 183.556 217.869 195.964 210.14C208.373 202.412 218.561 191.592 225.529 178.742C232.497 165.891 236.007 151.45 235.714 136.834C235.422 122.219 231.336 107.93 223.859 95.3687C216.381 82.8073 205.768 72.4042 193.06 65.1792C180.352 57.9542 165.984 54.1552 151.366 54.1544Z" fill="black"/>
<path d="M319.613 177.222C316.219 174.89 312.1 173.855 308.006 174.306C301.093 175.098 291.07 176.118 291.07 176.118V176.442L242.662 179.419L227.838 149.351L205.38 164.151C205.38 164.151 208.333 168.88 220.924 192.13C223.382 196.668 227.173 200.342 231.786 202.656C236.399 204.97 241.612 205.813 246.719 205.069L303.721 196.667V196.559C309.615 196.235 315.988 195.683 316.925 194.831C318.701 193.222 320.31 187.341 320.31 187.341C320.31 187.341 330.464 193.342 332.421 193.51C334.377 193.679 334.737 192.01 335.95 190.282C336.814 189.213 326.347 181.807 319.613 177.222Z" fill="#FFBE9D"/>
<path d="M230.862 147.431C230.862 147.431 221.452 129.318 212.858 112.214C202.271 91.2201 178.925 87.007 178.925 87.007L145.1 82.5659C145.1 82.5659 116.797 69.7825 90.5101 101.531L68.9045 125.669L73.5017 129.81L94.9273 149.015L99.1644 152.832L108.863 142.845L104.362 168.136L96.4037 203.401L113.604 201.325L125.235 130.206L190.82 135.428L185.587 180.307C186.643 180.151 194.577 178.591 197.158 167.812C197.987 164.372 197.987 160.785 197.158 157.345L200.951 167.056L230.862 147.431Z" fill="#455A64"/>
<path d="M125.151 130.242L113.52 201.361L96.3196 203.437C107.809 213.35 121.762 219.976 136.705 222.617C151.648 225.258 167.027 223.815 181.218 218.441L185.587 180.307L190.736 135.463L125.151 130.242Z" fill="#263238"/>
<path d="M129.04 79.0369L127.624 136.808L138.523 138.536L139.987 79.9851C139.987 79.9851 136.182 78.1847 129.04 79.0369Z" fill="#263238"/>
<path d="M175.324 137.096L184.339 87.475C184.855 86.9229 192.249 89.5755 194.481 92.0962L186.391 138.128L175.324 137.096Z" fill="#263238"/>
<path d="M138.955 130.038C139.071 130.353 139.128 130.687 139.123 131.022C139.205 131.933 139.205 132.848 139.123 133.759C139.039 135.156 138.569 136.502 137.766 137.648C137.272 138.332 136.616 138.885 135.858 139.256C135.02 139.635 134.086 139.748 133.181 139.58C132.334 139.401 131.532 139.05 130.826 138.548C130.12 138.046 129.524 137.405 129.076 136.664C128.382 135.464 127.971 134.121 127.876 132.739C127.796 131.828 127.796 130.912 127.876 130.002C127.87 129.661 127.931 129.323 128.056 129.006C128.164 129.006 128.056 130.446 128.308 132.691C128.475 133.965 128.905 135.191 129.568 136.292C129.984 136.954 130.528 137.526 131.17 137.974C131.811 138.421 132.536 138.735 133.301 138.896C134.06 139.03 134.84 138.946 135.552 138.652C136.265 138.359 136.878 137.869 137.322 137.24C138.088 136.18 138.564 134.939 138.703 133.639C138.967 131.478 138.835 130.038 138.955 130.038Z" fill="#455A64"/>
<path d="M132.521 135.139C131.905 134.894 131.412 134.415 131.149 133.806C130.887 133.197 130.878 132.509 131.123 131.893C131.368 131.277 131.848 130.783 132.457 130.521C133.065 130.259 133.754 130.249 134.37 130.494C134.675 130.616 134.953 130.796 135.188 131.025C135.423 131.254 135.611 131.527 135.741 131.828C135.871 132.13 135.94 132.454 135.945 132.782C135.949 133.11 135.889 133.436 135.768 133.741C135.647 134.046 135.466 134.324 135.237 134.56C135.009 134.795 134.736 134.983 134.434 135.113C134.133 135.243 133.808 135.312 133.48 135.316C133.152 135.321 132.826 135.261 132.521 135.139Z" fill="#455A64"/>
<path d="M183.798 135.451C183.801 135.948 183.656 136.434 183.382 136.848C183.107 137.262 182.716 137.586 182.258 137.778C181.8 137.969 181.295 138.021 180.808 137.925C180.32 137.83 179.872 137.592 179.52 137.241C179.168 136.891 178.928 136.444 178.83 135.957C178.733 135.47 178.782 134.965 178.971 134.506C179.161 134.047 179.482 133.655 179.895 133.378C180.308 133.102 180.793 132.955 181.29 132.955C181.953 132.955 182.589 133.217 183.059 133.685C183.53 134.153 183.795 134.788 183.798 135.451Z" fill="#455A64"/>
<path d="M187.147 133.723C187.127 134.721 186.936 135.707 186.583 136.64C186.246 137.701 185.676 138.673 184.915 139.485C184.429 139.988 183.835 140.375 183.178 140.616C182.521 140.857 181.818 140.946 181.122 140.877C179.732 140.727 178.448 140.063 177.521 139.017C176.799 138.162 176.318 137.13 176.128 136.028C175.989 135.304 175.965 134.563 176.056 133.831C176.071 133.559 176.145 133.292 176.272 133.051C176.289 134.022 176.385 134.989 176.56 135.944C176.794 136.942 177.273 137.866 177.953 138.632C178.799 139.544 179.945 140.119 181.182 140.253C181.792 140.317 182.41 140.242 182.987 140.034C183.565 139.826 184.088 139.491 184.519 139.053C185.244 138.322 185.809 137.447 186.175 136.484C186.799 134.815 187.039 133.687 187.147 133.723Z" fill="#455A64"/>
<path d="M132.317 157.501C132.233 157.501 132.197 157.021 132.221 156.301C132.221 155.929 132.221 155.473 132.281 154.981C132.281 154.717 132.281 154.453 132.341 154.2V153.792V153.576V153.372L132.689 153.06C134.099 153.108 135.494 153.363 136.83 153.816C135.426 153.974 134.007 153.925 132.617 153.672C132.545 153.744 133.277 153.084 132.965 153.372V153.552V153.768V154.188C132.965 154.453 132.905 154.705 132.869 154.981C132.869 155.485 132.737 155.929 132.677 156.313C132.521 156.997 132.401 157.501 132.317 157.501Z" fill="#455A64"/>
<path d="M130.565 173.993C130.406 172.606 130.451 171.203 130.697 169.828C130.741 168.431 130.991 167.047 131.441 165.723C131.614 167.11 131.573 168.514 131.321 169.888C131.266 171.286 131.011 172.668 130.565 173.993Z" fill="#455A64"/>
<path d="M133.001 188.313C131.63 187.975 130.315 187.437 129.1 186.717C129.1 186.789 128.776 186.129 128.92 186.405V186.225V186.009V185.589L129.028 184.808C129.1 184.316 129.172 183.86 129.232 183.488C129.376 182.744 129.496 182.288 129.58 182.288C129.664 182.288 129.7 182.78 129.676 183.488C129.676 183.872 129.652 184.316 129.604 184.82C129.604 185.096 129.604 185.349 129.532 185.613V186.021V186.237V186.429C129.688 186.705 129.328 186.045 129.364 186.117C130.678 186.667 131.903 187.407 133.001 188.313Z" fill="#455A64"/>
<path d="M144.092 193.823C142.073 193.3 140.179 192.377 138.523 191.11C139.555 191.28 140.543 191.655 141.427 192.214C142.413 192.569 143.319 193.115 144.092 193.823Z" fill="#455A64"/>
<path d="M157.296 196.859C156.134 197.666 154.86 198.297 153.514 198.732H153.214H153.118L152.926 198.636L152.554 198.444L151.858 198.084L150.658 197.424C150.01 197.04 149.625 196.763 149.662 196.679C149.698 196.595 150.154 196.679 150.862 197.028C151.21 197.172 151.63 197.352 152.062 197.568L152.77 197.904L153.154 198.084L153.346 198.168H153.442H153.238C154.518 197.533 155.886 197.092 157.296 196.859Z" fill="#455A64"/>
<path d="M166.262 193.222C166.322 193.39 165.374 193.919 164.137 194.423C162.901 194.927 161.845 195.203 161.737 195.047C161.629 194.891 162.625 194.351 163.861 193.847C165.097 193.342 166.19 193.066 166.262 193.222Z" fill="#455A64"/>
<path d="M175.072 185.648C175.23 187.051 175.19 188.47 174.952 189.862L174.748 190.126H174.652L174.448 190.21L174.064 190.366L173.332 190.642C172.851 190.81 172.431 190.966 172.059 191.074C171.339 191.314 170.859 191.422 170.859 191.338C170.859 191.254 171.243 191.014 171.915 190.666L173.115 190.102L173.848 189.789L174.232 189.633L174.424 189.549H174.532L174.34 189.814C174.374 188.396 174.62 186.992 175.072 185.648Z" fill="#455A64"/>
<path d="M176.668 170.092C176.827 172.712 176.556 175.339 175.864 177.87C175.697 176.569 175.729 175.249 175.96 173.957C175.993 172.64 176.232 171.336 176.668 170.092Z" fill="#455A64"/>
<path d="M173.728 157.693C175.132 157.536 176.551 157.585 177.941 157.837L178.217 158.173V158.365V158.581V158.99C178.217 159.254 178.157 159.506 178.121 159.77C178.049 160.274 177.989 160.718 177.917 161.102C177.785 161.846 177.653 162.302 177.569 162.302C177.485 162.302 177.461 161.81 177.473 161.102C177.473 160.718 177.473 160.262 177.545 159.758L177.605 158.978V158.558V158.161L177.881 158.497C176.464 158.435 175.065 158.164 173.728 157.693Z" fill="#455A64"/>
<path d="M159 156.109C161.484 155.954 163.976 156.222 166.37 156.901C165.133 157.076 163.876 157.047 162.649 156.817C161.403 156.776 160.171 156.537 159 156.109Z" fill="#455A64"/>
<path d="M144.272 154.512C145.509 154.337 146.766 154.366 147.993 154.596C149.223 154.642 150.438 154.881 151.594 155.305C149.11 155.459 146.618 155.191 144.224 154.512H144.272Z" fill="#455A64"/>
<path d="M67.1042 134.179C67.0202 135.62 66.9842 137.072 66.9842 138.536C66.9801 144.237 67.5552 149.924 68.7006 155.509V155.677C68.8446 156.373 69.0127 157.057 69.1807 157.741C69.8289 160.454 70.6091 163.131 71.4733 165.771C71.5814 166.095 71.6894 166.432 71.8094 166.756C74.9062 166.059 83.8845 158.281 94.2192 148.571L72.8057 129.366C69.8409 132.295 68.0764 133.843 67.1042 134.179Z" fill="#FFBE9D"/>
<path d="M175.732 90.0679C177.233 81.6657 178.961 72.9394 178.961 72.9394C178.961 72.9394 190.052 73.0475 194.769 59.3759C199.258 46.3406 202.499 14.9644 202.499 14.9644C195.385 10.5359 187.085 8.39202 178.716 8.82119C170.348 9.25037 162.311 12.232 155.687 17.3651L144.632 85.4827C143.348 93.3927 149.121 100.787 157.595 102.095C166.13 103.487 174.256 98.0379 175.732 90.0679Z" fill="#FFBE9D"/>
<path d="M194.205 38.4663C194.128 38.9365 193.87 39.3579 193.487 39.6405C193.103 39.9231 192.624 40.0445 192.152 39.9787C191.918 39.9579 191.691 39.8903 191.484 39.7799C191.277 39.6695 191.094 39.5185 190.946 39.336C190.798 39.1535 190.688 38.9432 190.623 38.7175C190.559 38.4918 190.54 38.2553 190.568 38.0222C190.648 37.5511 190.908 37.1296 191.293 36.8472C191.679 36.5648 192.159 36.4438 192.632 36.5098C192.865 36.5321 193.091 36.6008 193.297 36.7119C193.503 36.823 193.685 36.9741 193.831 37.1565C193.978 37.3388 194.086 37.5487 194.151 37.7736C194.215 37.9986 194.233 38.2341 194.205 38.4663Z" fill="#263238"/>
<path d="M197.482 36.966C197.218 37.158 196.03 35.9097 194.085 35.5736C192.141 35.2375 190.556 35.9457 190.388 35.6816C190.22 35.4176 190.604 35.1655 191.3 34.8294C192.244 34.3907 193.301 34.2565 194.325 34.4453C195.33 34.6282 196.253 35.1189 196.966 35.8497C197.482 36.4138 197.614 36.87 197.482 36.966Z" fill="#263238"/>
<path d="M174.28 35.3095C174.2 35.7806 173.94 36.2021 173.554 36.4845C173.169 36.7669 172.689 36.8879 172.215 36.8219C171.983 36.7995 171.756 36.7308 171.551 36.6198C171.345 36.5087 171.163 36.3576 171.017 36.1752C170.87 35.9929 170.761 35.783 170.697 35.5581C170.633 35.3331 170.615 35.0976 170.643 34.8654C170.723 34.3942 170.983 33.9727 171.368 33.6903C171.754 33.4079 172.234 33.2869 172.708 33.353C172.94 33.3753 173.166 33.444 173.372 33.555C173.578 33.6661 173.76 33.8173 173.906 33.9996C174.053 34.182 174.161 34.3918 174.226 34.6168C174.29 34.8417 174.308 35.0772 174.28 35.3095Z" fill="#263238"/>
<path d="M177.113 34.0972C176.848 34.2892 175.66 33.0409 173.716 32.7048C171.771 32.3687 170.187 33.0889 170.007 32.8129C169.827 32.5368 170.223 32.3087 170.931 31.9606C171.874 31.5323 172.925 31.4024 173.944 31.5885C174.955 31.7611 175.885 32.2533 176.596 32.9929C177.113 33.557 177.245 34.0132 177.113 34.0972Z" fill="#263238"/>
<path d="M181.614 49.7373C182.694 49.5993 183.787 49.5993 184.867 49.7373C185.371 49.7373 185.863 49.7373 186.007 49.4372C186.136 48.9333 186.111 48.4023 185.935 47.9128C185.683 46.6285 185.419 45.2841 185.131 43.8798C184.038 38.1543 183.354 33.4731 183.582 33.4251C183.81 33.377 184.879 37.9982 185.983 43.7357C186.235 45.1401 186.487 46.4844 186.715 47.7688C186.926 48.4216 186.896 49.1285 186.631 49.7613C186.529 49.9229 186.391 50.0595 186.229 50.1613C186.067 50.263 185.885 50.3273 185.695 50.3494C185.408 50.3815 185.118 50.3815 184.831 50.3494C183.737 50.2789 182.657 50.0733 181.614 49.7373Z" fill="#263238"/>
<path d="M178.913 72.9393C172.268 71.8564 166.055 68.9473 160.969 64.5371C160.969 64.5371 163.837 75.0038 178.145 76.1561L178.913 72.9393Z" fill="#EB996E"/>
<path d="M179.969 54.2744C179.678 53.7482 179.26 53.3034 178.752 52.9805C178.245 52.6576 177.665 52.4669 177.065 52.4259C176.632 52.3924 176.197 52.4452 175.785 52.5812C175.373 52.7172 174.992 52.9337 174.664 53.2181C174.347 53.4971 174.125 53.867 174.026 54.2772C173.927 54.6874 173.957 55.1181 174.112 55.5107C174.362 55.9072 174.722 56.2219 175.149 56.416C175.575 56.6101 176.049 56.6751 176.512 56.603C177.483 56.4333 178.412 56.0788 179.249 55.5587C179.497 55.4408 179.721 55.278 179.909 55.0786C179.999 54.9845 180.059 54.8655 180.08 54.737C180.102 54.6085 180.084 54.4766 180.029 54.3584" fill="#EB996E"/>
<path d="M175.732 50.0733C176.056 50.0733 175.732 52.2098 177.221 54.0223C178.709 55.8348 181.05 56.0028 181.014 56.3029C180.978 56.603 180.438 56.615 179.489 56.4829C178.253 56.2828 177.127 55.6539 176.308 54.7065C175.518 53.7953 175.117 52.6098 175.192 51.4056C175.204 50.5174 175.528 50.0253 175.732 50.0733Z" fill="#263238"/>
<path d="M165.206 7.30628C168.963 15.6004 181.134 25.683 190.544 29.26C189.68 27.5555 184.399 22.7423 183.546 21.0378C187.339 25.1549 192.825 30.7483 198.622 32.1527C199.29 32.3739 200.007 32.3947 200.687 32.2127C201.062 32.0214 201.387 31.7466 201.639 31.4095C201.891 31.0723 202.062 30.6819 202.139 30.2682C203.263 26.0876 203.932 21.7975 204.132 17.4729C204.329 13.8258 203.127 10.2409 200.771 7.45031C197.566 3.84938 192.369 2.12093 187.303 1.04065C183.135 -0.0351183 178.795 -0.27983 174.532 0.320469C170.367 1.11267 166.478 3.5133 165.23 7.05421" fill="#263238"/>
<path d="M142.772 38.5264C142.702 35.3213 142.823 32.1149 143.132 28.9239C144.08 21.602 146.373 -5.00885 170.931 1.83292L168.314 8.66269C168.314 8.66269 170.199 25.7911 157.596 34.9855C157.596 34.9855 157.656 52.09 148.917 58.2595C148.917 58.2595 142.832 46.6645 142.772 38.5744" fill="#263238"/>
<path d="M158.124 33.7851C156.671 33.1965 155.085 33.0179 153.538 33.2689C151.994 33.5367 150.615 34.3984 149.697 35.6696C148.864 37.0077 148.569 38.6114 148.869 40.1587C149.179 41.6942 149.827 43.1416 150.766 44.3958C151.374 45.3388 152.196 46.1245 153.166 46.6884C153.661 46.9542 154.213 47.0933 154.775 47.0933C155.336 47.0933 155.889 46.9542 156.383 46.6884" fill="#FFBE9D"/>
<path d="M155.687 42.7515C155.843 42.8355 155.027 43.6278 153.719 43.0156C153.375 42.8284 153.072 42.575 152.827 42.2701C152.582 41.9652 152.399 41.6148 152.29 41.2391C152.012 40.3924 151.906 39.4987 151.978 38.6105C152.028 37.6606 152.42 36.7609 153.082 36.0778C153.358 35.7845 153.697 35.5585 154.074 35.417C154.45 35.2754 154.855 35.2223 155.255 35.2616C156.683 35.4776 156.947 36.5339 156.779 36.5339C156.611 36.5339 156.191 36.0178 155.219 36.0778C154.617 36.1973 154.077 36.5276 153.696 37.0094C153.316 37.4912 153.119 38.0929 153.142 38.7065C153.034 40.2909 153.383 41.8153 154.139 42.3074C154.895 42.7995 155.615 42.6075 155.687 42.7515Z" fill="#EB996E"/>
</svg>
