<svg width="510" height="475" viewBox="0 0 510 475" fill="none" xmlns="http://www.w3.org/2000/svg">
<g opacity="0.3">
<path opacity="0.3" d="M305.326 163.075C305.326 163.075 319.59 93.6709 374.238 84.5021C374.238 84.5021 384.875 82.8797 388.763 94.5331C392.65 106.186 371.436 106.894 358.45 111.993C345.465 117.092 315.471 138.032 305.326 163.075Z" fill="#AEC3FF"/>
</g>
<g opacity="0.3">
<path opacity="0.3" d="M303.703 150.213C303.703 150.213 296.345 93.2783 335.799 71.8535C335.799 71.8535 343.524 67.8084 349.575 75.7071C355.626 83.6058 339.553 89.7369 330.953 97.0732C322.353 104.409 304.881 128.35 303.703 150.213Z" fill="#AEC3FF"/>
</g>
<path d="M82.0916 129.388C88.782 110.346 121.122 118.832 121.122 118.832C121.122 118.832 140.881 154.469 147.296 155.757C153.711 157.046 136.353 121.987 136.353 121.987C148.99 121.696 179.833 139.431 179.833 139.431C179.833 139.431 174.889 178.95 181.425 178.616C187.961 178.282 184.018 143.402 184.018 143.402C195.894 147.939 206.184 162.939 206.184 162.939C218.65 187.043 187.043 201.818 187.043 201.818C187.043 201.818 185.625 215.551 192.964 231.963C192.964 231.963 194.667 235.019 196.252 240.115L192.942 239.871C192.738 238.966 192.5 238.085 192.232 237.238C192.23 237.226 192.23 237.213 192.232 237.201C192.043 236.673 191.768 235.919 191.428 235.004C190.563 232.949 189.988 231.438 189.633 230.35C187.062 223.91 183.291 215.492 180.504 213.579C180.841 213.128 181.116 212.635 181.323 212.111C181.063 212.581 180.788 213.066 180.504 213.579C173.943 225.304 145.46 225.242 129.913 220.841C114.366 216.441 121.57 212.498 130.606 205.897C139.642 199.296 157.309 202.498 162.778 200.065C168.248 197.633 160.767 194.219 150.185 194.256C139.604 194.293 133.563 204.426 116.446 204.794C99.329 205.161 88.7264 172.231 88.7264 172.231C100.197 176.737 121.721 171.811 122.83 167.825C123.94 163.838 92.7406 161.953 87.9724 160.374C83.2041 158.795 75.3981 148.427 82.0916 129.388Z" fill="#CDE0FB"/>
<path d="M32.5299 428.677C20.8055 408.229 52.9843 386.121 52.9843 386.121C52.9843 386.121 99.5669 395.852 105.602 391.161C111.637 386.47 67.4004 375.064 67.4004 375.064C76.7855 363.67 116.004 349.943 116.004 349.943C116.004 349.943 147.163 384.471 151.851 378.438C156.539 372.406 122.704 349.273 122.704 349.273C135.775 342.239 156.888 344.591 156.888 344.591C187.72 351.973 176.666 391.183 176.666 391.183C176.666 391.183 187.723 402.926 207.828 408.955C207.828 408.955 211.83 409.78 217.547 412.271L214.806 415.009C213.845 414.499 212.89 414.035 211.932 413.624H211.916L211.873 413.606C211.255 413.371 210.39 413.037 209.321 412.638C206.848 411.838 205.065 411.192 203.835 410.673C196.181 408.034 185.862 404.94 182.046 405.942C181.905 405.297 181.679 404.673 181.375 404.088L182.046 405.942C187.401 420.692 165.612 445.806 149.855 456.205C134.097 466.604 136.115 457.206 137.185 444.187C138.254 431.168 154.57 418 156.585 411.297C158.6 404.594 149.833 408.602 141.798 417.991C133.764 427.379 138.09 440.444 125.364 455.859C112.639 471.273 75.4289 455.506 75.4289 455.506C88.167 448.81 100.238 426.022 97.5583 421.999C94.879 417.975 69.3998 444.11 64.372 447.126C59.3441 450.142 44.2544 449.125 32.5299 428.677Z" fill="#AFCDFB"/>
<g opacity="0.5">
<path opacity="0.5" d="M481.498 156.032C479.227 134.842 443.933 135.742 443.933 135.742C443.933 135.742 415.002 167.599 408.086 167.367C401.17 167.136 427.502 135.303 427.502 135.303C414.582 131.947 378.587 142.719 378.587 142.719C378.587 142.719 374.112 184.534 367.462 182.612C360.811 180.689 373.315 145.788 373.315 145.788C360.027 147.58 345.811 160.51 345.811 160.51C327.162 182.281 356.083 205.106 356.083 205.106C356.083 205.106 354.229 219.562 342.706 234.658C342.706 234.658 340.215 237.386 337.353 242.244L340.814 242.794C341.245 241.911 341.7 241.065 342.18 240.257L342.202 240.223C342.511 239.726 342.987 239.018 343.558 238.159C344.943 236.255 345.901 234.84 346.528 233.808C350.731 227.813 356.64 220.072 359.968 218.78C359.732 218.235 359.568 217.661 359.48 217.074C359.634 217.618 359.789 218.184 359.968 218.78C363.877 232.417 393.17 239.244 410.215 238.48C427.261 237.717 420.806 231.92 413.117 222.949C405.429 213.978 386.488 213.014 381.457 209.175C376.427 205.337 384.937 203.653 395.809 206.249C406.68 208.845 410.432 220.724 427.947 225.242C445.463 229.76 464.313 198.474 464.313 198.474C451.433 200.328 430.5 190.062 430.321 185.696C430.141 181.329 462.673 186.932 467.951 186.468C473.229 186.005 483.773 177.225 481.498 156.032Z" fill="#AFCDFB"/>
</g>
<g opacity="0.2">
<path opacity="0.2" d="M500.037 413.822C523.418 394.638 494.888 353.451 494.888 353.451C494.888 353.451 434.573 343.902 429.474 335.527C424.375 327.152 482.626 333.62 482.626 333.62C476.554 315.678 435.766 281.339 435.766 281.339C435.766 281.339 382.656 308.564 379.773 299.192C376.89 289.819 428.031 277.483 428.031 277.483C415.552 263.088 389.152 256.293 389.152 256.293C348.806 251.098 344.223 303.178 344.223 303.178C344.223 303.178 325.613 312.217 298.74 310.286C298.74 310.286 293.564 309.454 285.573 309.835L287.612 314.371C288.997 314.195 290.356 314.062 291.688 314.019H291.769C292.612 314.019 293.808 314.019 295.276 314.019C298.611 314.183 301.036 314.217 302.751 314.158C313.135 314.467 326.924 315.471 331.046 318.413C331.509 317.709 332.062 317.068 332.69 316.506L331.046 318.413C317.9 333.664 332.591 373.729 346.76 393.374C360.929 413.018 362.786 400.837 367.465 384.721C372.143 368.605 358.54 345.388 359.18 336.429C359.819 327.471 368.45 336.266 373.818 351.185C379.186 366.105 368.018 379.804 376.29 404.1C384.563 428.396 436.356 426.43 436.356 426.43C424.128 412.592 420.027 379.767 425.076 376.152C430.126 372.536 448.782 415.506 453.439 421.415C458.096 427.323 476.656 433.009 500.037 413.822Z" fill="#AFCDFB"/>
</g>
<path d="M140.633 269.865C139.524 272.85 137.599 276.314 135.581 277.173C133.291 278.15 132.336 279.531 132.336 279.531L130.482 278.459L128.275 277.173C128.275 277.173 128.328 276.929 128.436 276.531C128.544 276.132 128.708 275.579 128.931 274.964C129.13 274.682 129.258 274.357 129.303 274.015C129.349 273.673 129.311 273.326 129.193 273.002C128.779 271.908 128.863 270.22 129.57 269.191C130.278 268.162 130.961 265.625 131.387 265.702C132.419 265.879 130.88 269.364 131.322 270.01C131.413 270.183 131.566 270.314 131.751 270.378C131.935 270.441 132.137 270.431 132.314 270.35H132.33C135.225 269.077 138.739 262.21 140.293 263.138C140.871 263.477 141.106 268.595 140.633 269.865Z" fill="#FFB27D"/>
<path d="M130.615 274.021L134.243 276.571C134.304 276.614 134.373 276.645 134.446 276.661C134.519 276.677 134.594 276.679 134.668 276.666C134.741 276.653 134.811 276.626 134.874 276.586C134.937 276.545 134.991 276.493 135.034 276.432L144.33 263.209C144.416 263.085 144.45 262.932 144.424 262.783C144.398 262.634 144.314 262.501 144.191 262.414L140.563 259.865C140.439 259.778 140.286 259.744 140.137 259.771C139.988 259.797 139.856 259.881 139.768 260.004L130.476 273.227C130.389 273.351 130.356 273.504 130.382 273.653C130.408 273.802 130.492 273.934 130.615 274.021Z" fill="#EE4D59"/>
<path d="M133.934 276.355L136.063 277.851C136.11 277.886 136.163 277.911 136.22 277.925C136.277 277.939 136.337 277.941 136.394 277.931C136.452 277.921 136.507 277.899 136.557 277.868C136.606 277.836 136.648 277.794 136.681 277.746L146.131 264.3C146.166 264.253 146.191 264.199 146.204 264.142C146.218 264.085 146.219 264.026 146.21 263.969C146.2 263.911 146.179 263.856 146.147 263.807C146.115 263.757 146.074 263.715 146.026 263.682L143.9 262.186C143.853 262.151 143.799 262.126 143.742 262.113C143.685 262.099 143.625 262.097 143.568 262.108C143.51 262.118 143.455 262.139 143.405 262.172C143.356 262.204 143.314 262.245 143.282 262.294L133.829 275.74C133.794 275.787 133.77 275.84 133.757 275.897C133.744 275.954 133.742 276.012 133.752 276.07C133.761 276.127 133.783 276.182 133.814 276.231C133.845 276.28 133.886 276.322 133.934 276.355Z" fill="#233862"/>
<path d="M78.5655 255.044C78.5655 255.044 97.0267 287.244 103.723 293.168L128.282 274.862C128.282 274.862 131.845 275.953 133.405 279.531C133.405 279.531 118.492 309.915 103.81 311.203C89.128 312.492 68.519 274.785 68.519 274.785L78.5655 255.044Z" fill="#94B0ED"/>
<path d="M36.7884 474.054H26.1208C24.7765 473.325 23.5806 471.656 23.2036 469.165C22.6813 465.729 18.8309 463.856 17.9965 461.044C17.1621 458.232 21.4329 454.279 21.4329 454.279L22.1467 453.352L22.8884 452.397L29.9682 454.063C29.9682 454.063 30.1443 455.75 30.2525 457.898C30.3447 459.533 30.355 461.172 30.2834 462.809C30.0732 466.557 31.331 470.593 34.6592 471.322C37.1221 471.866 37.014 473.328 36.7884 474.054Z" fill="#233862"/>
<path d="M98.6923 474.054H74.2978C73.1235 472.623 73.5561 467.339 73.7354 465.614C73.7724 465.265 73.7972 465.064 73.7972 465.064C73.7972 465.064 82.1254 458.402 83.2719 463.519C83.3059 463.677 83.3492 463.828 83.3955 463.989C84.8356 468.76 91.3004 470.93 95.0365 471.532C97.4624 471.912 98.3617 473.173 98.6923 474.054Z" fill="#233862"/>
<path d="M94.0447 337.888C94.0447 337.888 92.7808 353.67 91.2913 372.641C89.2734 398.407 86.8413 430.061 86.6034 436.059C86.1862 446.47 84.5175 463.127 84.5175 463.127C84.5175 463.127 80.565 467.082 72.6509 465.416C72.6509 465.416 65.5989 441.64 63.584 416.482C63.5531 416.071 63.5222 415.654 63.4913 415.246C61.6155 389.637 58.7014 335.709 58.7014 335.709L94.0447 337.888Z" fill="#433A32"/>
<path d="M94.0447 337.888C94.0447 337.888 92.7808 353.67 91.2913 372.641L63.584 416.482C63.5531 416.071 63.5222 415.654 63.4913 415.246C61.6155 389.637 58.7014 335.709 58.7014 335.709L94.0447 337.888Z" fill="#332A23"/>
<path d="M88.269 339.763C88.269 339.763 65.4691 396.915 50.4782 423.775C35.4874 450.636 30.8025 458.13 30.8025 458.13C30.8025 458.13 22.2147 454.693 21.4329 452.351C21.4329 452.351 27.1653 400.499 37.1932 387.86C42.8638 380.715 49.5295 359.281 49.8416 351.788C50.1537 344.294 51.8719 329.457 51.8719 329.457L88.269 339.763Z" fill="#433A32"/>
<path d="M82.5922 256.444C73.683 259.256 58.2688 251.67 58.2688 251.67C58.2688 251.67 66.4827 245.489 66.0532 232.686L72.9413 238.249L77.62 242.019C77.5555 244.066 77.378 246.109 77.0885 248.137C76.9556 249.163 78.1114 251.422 79.1126 252.695C81.8135 256.107 82.5922 256.444 82.5922 256.444Z" fill="#FFB27D"/>
<path d="M77.62 242.006C77.5555 244.054 77.378 246.097 77.0884 248.125C71.903 247.238 66.0222 238.854 66.0222 238.854C68.2588 238.161 70.6172 237.95 72.9413 238.236L77.62 242.006Z" fill="#ED975D"/>
<path d="M80.3455 241.796C80.3455 241.796 65.6296 244.241 64.2483 235.053C62.867 225.866 60.0363 219.994 69.372 218.057C78.7076 216.119 81.0686 219.339 82.2738 222.294C83.479 225.248 84.1372 240.919 80.3455 241.796Z" fill="#FFB27D"/>
<path d="M95.0274 339.205C94.77 339.429 94.4416 339.555 94.1004 339.56C90.7536 339.514 80.9976 341.374 72.7436 340.524C65.7843 339.857 59.6254 337.796 53.0092 334.832C52.1315 334.436 50.1105 333.358 50.1538 332.36C50.1847 331.284 50.2928 329.727 50.4257 327.761C50.8954 320.935 51.7113 309.192 50.914 295.644C50.7718 293.12 50.6945 290.616 50.6884 288.154C50.6173 269.791 54.2607 253.642 61.5754 248.175C62.1934 247.727 66.0377 249.603 69.5637 251.342C72.5327 252.805 75.9113 253.214 79.1435 252.501L82.2338 255.224C85.9822 258.703 90.0861 263.431 91.8723 270.613C93.3896 276.726 94.2796 287.746 94.7709 299.167C94.9934 304.343 95.1727 309.563 95.219 314.517V314.693C95.2623 315.184 95.2623 315.722 95.2623 316.213C95.4446 328.942 95.2499 339.022 95.0274 339.205Z" fill="#AEC3FF"/>
<path d="M50.4163 327.777C50.886 320.95 51.7018 309.208 50.9045 295.66C50.7624 293.135 50.6851 290.632 50.6789 288.169C53.7259 280.777 56.2167 275.416 56.2167 275.416H63.8991C63.8991 275.416 69.5295 313.883 50.4163 327.777Z" fill="#94B0ED"/>
<path d="M11.0805 371.377L43.8372 376.046C45.8929 376.332 47.9783 375.794 49.6382 374.548C51.2981 373.302 52.3977 371.45 52.697 369.396L54.718 355.199C55.0058 353.144 54.4681 351.059 53.2224 349.399C51.9768 347.739 50.1246 346.64 48.0709 346.343L15.3141 341.673C13.2573 341.384 11.1695 341.92 9.50743 343.166C7.84534 344.412 6.74426 346.265 6.44507 348.32L4.42404 362.536C4.14165 364.59 4.683 366.672 5.93002 368.328C7.17703 369.984 9.02849 371.08 11.0805 371.377Z" fill="#233862"/>
<path d="M49.9126 350.574C49.4499 349.409 48.7159 348.371 47.7716 347.546C46.8273 346.722 45.6999 346.135 44.483 345.833C44.2358 345.775 43.9855 345.722 43.7259 345.685L37.2024 344.758L37.6381 341.695C37.7335 341.015 37.5557 340.324 37.1434 339.774C36.7312 339.224 36.118 338.859 35.4378 338.76L33.7351 338.519L26.884 337.542L25.6479 337.366C24.967 337.27 24.2758 337.447 23.7255 337.86C23.1753 338.272 22.8109 338.886 22.7122 339.566L22.2764 342.632L11.0155 341.028C8.95229 340.738 6.85827 341.277 5.19115 342.527C3.52403 343.776 2.4194 345.635 2.11866 347.697L0.0760051 362.057C-0.212655 364.121 0.327841 366.216 1.5793 367.882C2.83076 369.549 4.69132 370.652 6.75405 370.951L39.4583 375.611C40.0231 375.692 40.5952 375.711 41.1641 375.667C42.0456 375.599 42.9089 375.38 43.7166 375.021C44.9426 374.484 46.0115 373.643 46.8225 372.579C47.6335 371.514 48.1599 370.261 48.352 368.936L50.3978 354.576C50.5903 353.222 50.4229 351.842 49.9126 350.574ZM24.3191 339.807C24.3487 339.603 24.443 339.413 24.5881 339.265C24.7331 339.118 24.9215 339.021 25.1256 338.988C25.2219 338.973 25.3199 338.973 25.4161 338.988L26.8716 339.195L32.261 339.965L35.1999 340.382C35.4536 340.419 35.6825 340.554 35.8366 340.759C35.9906 340.964 36.0572 341.222 36.0219 341.476L35.5862 344.541L23.8834 342.873L24.3191 339.807Z" fill="#EE4D59"/>
<path d="M35.9786 329.099C35.9786 329.099 34.2604 331.392 34.1893 332.307C33.7289 338.515 36.5657 339.375 29.2202 342.814C29.2202 342.814 26.0867 344.01 26.0341 341.578C25.9816 339.146 28.1973 339.106 27.8017 335.706C27.332 331.776 27.3784 331.738 29.9649 329.687L31.6708 326.862L35.9786 329.099Z" fill="#FFB27D"/>
<path d="M31.6028 330.845C33.5067 331.169 35.4416 331.273 37.3692 331.154C37.3692 331.154 45.5831 305.787 46.64 303.469C47.6968 301.151 71.0314 273.74 71.0314 273.74L61.3094 249.411C61.3094 249.411 36.0651 291.574 33.4971 297.498C29.2603 307.288 27.7925 329.239 27.7925 329.239C28.9439 330.021 30.239 330.567 31.6028 330.845Z" fill="#AEC3FF"/>
<path d="M64.233 234.169C64.233 234.169 65.7411 233.916 65.5 231.836C65.259 229.757 65.259 227.037 66.9493 227.544C68.6397 228.051 68.7232 229.398 69.4216 228.613C70.12 227.828 70.1292 224.494 75.1633 224.262C80.1973 224.03 82.24 225.779 84.5793 224.75C86.9186 223.721 87.0515 220.18 87.0515 220.18C87.0515 220.18 86.3871 221.447 85.3797 221.849C85.3797 221.849 89.2858 216.509 84.7616 212.847C80.2375 209.185 75.633 211.583 73.0186 211.74C67.2553 212.09 63.5315 212.436 61.6496 216.221C59.7676 220.007 60.5247 230.523 64.233 234.169Z" fill="#EE4D59"/>
<path d="M33.2652 331.828C33.2652 331.828 34.9216 333.555 35.0267 334.275C35.3635 336.58 36.133 337.579 35.7467 337.829C34.9433 338.351 33.8926 336.642 33.3765 335.109C32.8604 333.577 33.2652 331.828 33.2652 331.828Z" fill="#FFB27D"/>
<path d="M338.793 129.193H178.916C168.868 129.193 160.723 137.338 160.723 147.386V453.229C160.723 463.276 168.868 471.421 178.916 471.421H338.793C348.841 471.421 356.986 463.276 356.986 453.229V147.386C356.986 137.338 348.841 129.193 338.793 129.193Z" fill="#E8505B"/>
<path d="M338.793 473.705H178.912C173.484 473.698 168.28 471.539 164.442 467.7C160.604 463.861 158.445 458.657 158.439 453.229V147.386C158.446 141.958 160.605 136.754 164.443 132.916C168.281 129.078 173.485 126.919 178.912 126.913H338.793C344.221 126.919 349.425 129.078 353.263 132.916C357.101 136.754 359.26 141.958 359.266 147.386V453.22C359.263 458.649 357.105 463.856 353.267 467.697C349.429 471.538 344.223 473.698 338.793 473.705ZM178.912 131.477C174.695 131.483 170.652 133.161 167.671 136.143C164.689 139.126 163.012 143.169 163.007 147.386V453.22C163.011 457.437 164.688 461.481 167.67 464.463C170.652 467.446 174.695 469.123 178.912 469.128H338.793C343.014 469.127 347.061 467.452 350.047 464.469C353.033 461.486 354.712 457.44 354.717 453.22V147.386C354.712 143.168 353.034 139.125 350.051 136.143C347.069 133.161 343.026 131.483 338.809 131.477H178.912Z" fill="#EE4D59"/>
<g opacity="0.9">
<path opacity="0.9" d="M323.398 219.247H194.311V348.333H323.398V219.247Z" fill="white"/>
</g>
<path d="M212.38 334.785H207.25V339.915H212.38V334.785Z" fill="#EE4D59"/>
<path d="M217.51 334.785H212.38V339.915H217.51V334.785Z" fill="#EE4D59"/>
<path d="M222.64 334.785H217.51V339.915H222.64V334.785Z" fill="#EE4D59"/>
<path d="M227.769 334.785H222.64V339.915H227.769V334.785Z" fill="#EE4D59"/>
<path d="M232.899 334.785H227.77V339.915H232.899V334.785Z" fill="#EE4D59"/>
<path d="M243.159 334.785H238.029V339.915H243.159V334.785Z" fill="#EE4D59"/>
<path d="M248.289 334.785H243.159V339.915H248.289V334.785Z" fill="#EE4D59"/>
<path d="M263.678 334.785H258.548V339.915H263.678V334.785Z" fill="#EE4D59"/>
<path d="M274.241 334.785H268.808V339.915H274.241V334.785Z" fill="#EE4D59"/>
<path d="M279.373 334.785H274.244V339.915H279.373V334.785Z" fill="#EE4D59"/>
<path d="M289.633 334.785H284.504V339.915H289.633V334.785Z" fill="#EE4D59"/>
<path d="M294.763 334.785H289.633V339.915H294.763V334.785Z" fill="#EE4D59"/>
<path d="M299.893 334.785H294.763V339.915H299.893V334.785Z" fill="#EE4D59"/>
<path d="M305.023 334.785H299.893V339.915H305.023V334.785Z" fill="#EE4D59"/>
<path d="M310.153 334.785H305.023V339.915H310.153V334.785Z" fill="#EE4D59"/>
<path d="M315.585 334.785H310.153V339.915H315.585V334.785Z" fill="#EE4D59"/>
<path d="M207.25 334.785H202.12V339.915H207.25V334.785Z" fill="#EE4D59"/>
<path d="M232.899 329.656H227.77V334.785H232.899V329.656Z" fill="#EE4D59"/>
<path d="M248.289 329.656H243.159V334.785H248.289V329.656Z" fill="#EE4D59"/>
<path d="M258.549 329.656H253.419V334.785H258.549V329.656Z" fill="#EE4D59"/>
<path d="M263.678 329.656H258.548V334.785H263.678V329.656Z" fill="#EE4D59"/>
<path d="M268.808 329.656H263.678V334.785H268.808V329.656Z" fill="#EE4D59"/>
<path d="M274.241 329.656H268.808V334.785H274.241V329.656Z" fill="#EE4D59"/>
<path d="M289.633 329.656H284.504V334.785H289.633V329.656Z" fill="#EE4D59"/>
<path d="M315.585 329.656H310.153V334.785H315.585V329.656Z" fill="#EE4D59"/>
<path d="M207.25 329.656H202.12V334.785H207.25V329.656Z" fill="#EE4D59"/>
<path d="M217.51 324.526H212.38V329.656H217.51V324.526Z" fill="#EE4D59"/>
<path d="M222.64 324.526H217.51V329.656H222.64V324.526Z" fill="#EE4D59"/>
<path d="M232.899 324.526H227.77V329.656H232.899V324.526Z" fill="#EE4D59"/>
<path d="M243.159 324.526H238.029V329.656H243.159V324.526Z" fill="#EE4D59"/>
<path d="M248.289 324.526H243.159V329.656H248.289V324.526Z" fill="#EE4D59"/>
<path d="M253.419 324.526H248.289V329.656H253.419V324.526Z" fill="#EE4D59"/>
<path d="M263.678 324.526H258.548V329.656H263.678V324.526Z" fill="#EE4D59"/>
<path d="M268.808 324.526H263.678V329.656H268.808V324.526Z" fill="#EE4D59"/>
<path d="M274.241 324.526H268.808V329.656H274.241V324.526Z" fill="#EE4D59"/>
<path d="M279.373 324.526H274.244V329.656H279.373V324.526Z" fill="#EE4D59"/>
<path d="M289.633 324.526H284.504V329.656H289.633V324.526Z" fill="#EE4D59"/>
<path d="M299.893 324.526H294.763V329.656H299.893V324.526Z" fill="#EE4D59"/>
<path d="M305.023 324.526H299.893V329.656H305.023V324.526Z" fill="#EE4D59"/>
<path d="M315.585 324.526H310.153V329.656H315.585V324.526Z" fill="#EE4D59"/>
<path d="M207.25 324.526H202.12V329.656H207.25V324.526Z" fill="#EE4D59"/>
<path d="M217.51 319.396H212.38V324.526H217.51V319.396Z" fill="#EE4D59"/>
<path d="M222.64 319.396H217.51V324.526H222.64V319.396Z" fill="#EE4D59"/>
<path d="M232.899 319.396H227.77V324.526H232.899V319.396Z" fill="#EE4D59"/>
<path d="M243.159 319.396H238.029V324.526H243.159V319.396Z" fill="#EE4D59"/>
<path d="M253.419 319.396H248.289V324.526H253.419V319.396Z" fill="#EE4D59"/>
<path d="M263.678 319.396H258.548V324.526H263.678V319.396Z" fill="#EE4D59"/>
<path d="M289.633 319.396H284.504V324.526H289.633V319.396Z" fill="#EE4D59"/>
<path d="M299.893 319.396H294.763V324.526H299.893V319.396Z" fill="#EE4D59"/>
<path d="M305.023 319.396H299.893V324.526H305.023V319.396Z" fill="#EE4D59"/>
<path d="M315.585 319.396H310.153V324.526H315.585V319.396Z" fill="#EE4D59"/>
<path d="M207.25 319.396H202.12V324.526H207.25V319.396Z" fill="#EE4D59"/>
<path d="M232.899 314.266H227.77V319.395H232.899V314.266Z" fill="#EE4D59"/>
<path d="M243.159 314.266H238.029V319.395H243.159V314.266Z" fill="#EE4D59"/>
<path d="M248.289 314.266H243.159V319.395H248.289V314.266Z" fill="#EE4D59"/>
<path d="M253.419 314.266H248.289V319.395H253.419V314.266Z" fill="#EE4D59"/>
<path d="M263.678 314.266H258.548V319.395H263.678V314.266Z" fill="#EE4D59"/>
<path d="M268.808 314.266H263.678V319.395H268.808V314.266Z" fill="#EE4D59"/>
<path d="M279.373 314.266H274.244V319.395H279.373V314.266Z" fill="#EE4D59"/>
<path d="M289.633 314.266H284.504V319.395H289.633V314.266Z" fill="#EE4D59"/>
<path d="M315.585 314.266H310.153V319.395H315.585V314.266Z" fill="#EE4D59"/>
<path d="M207.25 314.266H202.12V319.395H207.25V314.266Z" fill="#EE4D59"/>
<path d="M212.38 309.136H207.25V314.266H212.38V309.136Z" fill="#EE4D59"/>
<path d="M217.51 309.136H212.38V314.266H217.51V309.136Z" fill="#EE4D59"/>
<path d="M222.64 309.136H217.51V314.266H222.64V309.136Z" fill="#EE4D59"/>
<path d="M227.769 309.136H222.64V314.266H227.769V309.136Z" fill="#EE4D59"/>
<path d="M232.899 309.136H227.77V314.266H232.899V309.136Z" fill="#EE4D59"/>
<path d="M243.159 309.136H238.029V314.266H243.159V309.136Z" fill="#EE4D59"/>
<path d="M253.419 309.136H248.289V314.266H253.419V309.136Z" fill="#EE4D59"/>
<path d="M258.549 309.136H253.419V314.266H258.549V309.136Z" fill="#EE4D59"/>
<path d="M268.808 309.136H263.678V314.266H268.808V309.136Z" fill="#EE4D59"/>
<path d="M289.633 309.136H284.504V314.266H289.633V309.136Z" fill="#EE4D59"/>
<path d="M294.763 309.136H289.633V314.266H294.763V309.136Z" fill="#EE4D59"/>
<path d="M299.893 309.136H294.763V314.266H299.893V309.136Z" fill="#EE4D59"/>
<path d="M305.023 309.136H299.893V314.266H305.023V309.136Z" fill="#EE4D59"/>
<path d="M310.153 309.136H305.023V314.266H310.153V309.136Z" fill="#EE4D59"/>
<path d="M315.585 309.136H310.153V314.266H315.585V309.136Z" fill="#EE4D59"/>
<path d="M207.25 309.136H202.12V314.266H207.25V309.136Z" fill="#EE4D59"/>
<path d="M258.549 304.006H253.419V309.136H258.549V304.006Z" fill="#EE4D59"/>
<path d="M263.678 304.006H258.548V309.136H263.678V304.006Z" fill="#EE4D59"/>
<path d="M268.808 304.006H263.678V309.136H268.808V304.006Z" fill="#EE4D59"/>
<path d="M279.373 304.006H274.244V309.136H279.373V304.006Z" fill="#EE4D59"/>
<path d="M212.38 298.876H207.25V304.006H212.38V298.876Z" fill="#EE4D59"/>
<path d="M217.51 298.876H212.38V304.006H217.51V298.876Z" fill="#EE4D59"/>
<path d="M222.64 298.876H217.51V304.006H222.64V298.876Z" fill="#EE4D59"/>
<path d="M227.769 298.876H222.64V304.006H227.769V298.876Z" fill="#EE4D59"/>
<path d="M243.159 298.876H238.029V304.006H243.159V298.876Z" fill="#EE4D59"/>
<path d="M248.289 298.876H243.159V304.006H248.289V298.876Z" fill="#EE4D59"/>
<path d="M253.419 298.876H248.289V304.006H253.419V298.876Z" fill="#EE4D59"/>
<path d="M263.678 298.876H258.548V304.006H263.678V298.876Z" fill="#EE4D59"/>
<path d="M268.808 298.876H263.678V304.006H268.808V298.876Z" fill="#EE4D59"/>
<path d="M274.241 298.876H268.808V304.006H274.241V298.876Z" fill="#EE4D59"/>
<path d="M279.373 298.876H274.244V304.006H279.373V298.876Z" fill="#EE4D59"/>
<path d="M284.504 298.876H279.374V304.006H284.504V298.876Z" fill="#EE4D59"/>
<path d="M289.633 298.876H284.504V304.006H289.633V298.876Z" fill="#EE4D59"/>
<path d="M294.763 298.876H289.633V304.006H294.763V298.876Z" fill="#EE4D59"/>
<path d="M299.893 298.876H294.763V304.006H299.893V298.876Z" fill="#EE4D59"/>
<path d="M310.153 298.876H305.023V304.006H310.153V298.876Z" fill="#EE4D59"/>
<path d="M315.585 298.876H310.153V304.006H315.585V298.876Z" fill="#EE4D59"/>
<path d="M217.51 293.747H212.38V298.876H217.51V293.747Z" fill="#EE4D59"/>
<path d="M222.64 293.747H217.51V298.876H222.64V293.747Z" fill="#EE4D59"/>
<path d="M238.029 293.747H232.899V298.876H238.029V293.747Z" fill="#EE4D59"/>
<path d="M243.159 293.747H238.029V298.876H243.159V293.747Z" fill="#EE4D59"/>
<path d="M253.419 293.747H248.289V298.876H253.419V293.747Z" fill="#EE4D59"/>
<path d="M268.808 293.747H263.678V298.876H268.808V293.747Z" fill="#EE4D59"/>
<path d="M279.373 293.747H274.244V298.876H279.373V293.747Z" fill="#EE4D59"/>
<path d="M284.504 293.747H279.374V298.876H284.504V293.747Z" fill="#EE4D59"/>
<path d="M294.763 293.747H289.633V298.876H294.763V293.747Z" fill="#EE4D59"/>
<path d="M299.893 293.747H294.763V298.876H299.893V293.747Z" fill="#EE4D59"/>
<path d="M212.38 288.617H207.25V293.747H212.38V288.617Z" fill="#EE4D59"/>
<path d="M222.64 288.617H217.51V293.747H222.64V288.617Z" fill="#EE4D59"/>
<path d="M227.769 288.617H222.64V293.747H227.769V288.617Z" fill="#EE4D59"/>
<path d="M232.899 288.617H227.77V293.747H232.899V288.617Z" fill="#EE4D59"/>
<path d="M238.029 288.617H232.899V293.747H238.029V288.617Z" fill="#EE4D59"/>
<path d="M248.289 288.617H243.159V293.747H248.289V288.617Z" fill="#EE4D59"/>
<path d="M253.419 288.617H248.289V293.747H253.419V288.617Z" fill="#EE4D59"/>
<path d="M258.549 288.617H253.419V293.747H258.549V288.617Z" fill="#EE4D59"/>
<path d="M263.678 288.617H258.548V293.747H263.678V288.617Z" fill="#EE4D59"/>
<path d="M268.808 288.617H263.678V293.747H268.808V288.617Z" fill="#EE4D59"/>
<path d="M274.241 288.617H268.808V293.747H274.241V288.617Z" fill="#EE4D59"/>
<path d="M299.893 288.617H294.763V293.747H299.893V288.617Z" fill="#EE4D59"/>
<path d="M305.023 288.617H299.893V293.747H305.023V288.617Z" fill="#EE4D59"/>
<path d="M315.585 288.617H310.153V293.747H315.585V288.617Z" fill="#EE4D59"/>
<path d="M207.25 288.617H202.12V293.747H207.25V288.617Z" fill="#EE4D59"/>
<path d="M212.38 283.487H207.25V288.617H212.38V283.487Z" fill="#EE4D59"/>
<path d="M217.51 283.487H212.38V288.617H217.51V283.487Z" fill="#EE4D59"/>
<path d="M222.64 283.487H217.51V288.617H222.64V283.487Z" fill="#EE4D59"/>
<path d="M243.159 283.487H238.029V288.617H243.159V283.487Z" fill="#EE4D59"/>
<path d="M248.289 283.487H243.159V288.617H248.289V283.487Z" fill="#EE4D59"/>
<path d="M268.808 283.487H263.678V288.617H268.808V283.487Z" fill="#EE4D59"/>
<path d="M284.504 283.487H279.374V288.617H284.504V283.487Z" fill="#EE4D59"/>
<path d="M289.633 283.487H284.504V288.617H289.633V283.487Z" fill="#EE4D59"/>
<path d="M299.893 283.487H294.763V288.617H299.893V283.487Z" fill="#EE4D59"/>
<path d="M305.023 283.487H299.893V288.617H305.023V283.487Z" fill="#EE4D59"/>
<path d="M310.153 283.487H305.023V288.617H310.153V283.487Z" fill="#EE4D59"/>
<path d="M315.585 283.487H310.153V288.617H315.585V283.487Z" fill="#EE4D59"/>
<path d="M207.25 283.487H202.12V288.617H207.25V283.487Z" fill="#EE4D59"/>
<path d="M222.64 278.357H217.51V283.487H222.64V278.357Z" fill="#EE4D59"/>
<path d="M227.769 278.357H222.64V283.487H227.769V278.357Z" fill="#EE4D59"/>
<path d="M232.899 278.357H227.77V283.487H232.899V278.357Z" fill="#EE4D59"/>
<path d="M238.029 278.357H232.899V283.487H238.029V278.357Z" fill="#EE4D59"/>
<path d="M243.159 278.357H238.029V283.487H243.159V278.357Z" fill="#EE4D59"/>
<path d="M248.289 278.357H243.159V283.487H248.289V278.357Z" fill="#EE4D59"/>
<path d="M263.678 278.357H258.548V283.487H263.678V278.357Z" fill="#EE4D59"/>
<path d="M279.373 278.357H274.244V283.487H279.373V278.357Z" fill="#EE4D59"/>
<path d="M284.504 278.357H279.374V283.487H284.504V278.357Z" fill="#EE4D59"/>
<path d="M305.023 278.357H299.893V283.487H305.023V278.357Z" fill="#EE4D59"/>
<path d="M207.25 278.357H202.12V283.487H207.25V278.357Z" fill="#EE4D59"/>
<path d="M212.38 273.227H207.25V278.357H212.38V273.227Z" fill="#EE4D59"/>
<path d="M217.51 273.227H212.38V278.357H217.51V273.227Z" fill="#EE4D59"/>
<path d="M222.64 273.227H217.51V278.357H222.64V273.227Z" fill="#EE4D59"/>
<path d="M227.769 273.227H222.64V278.357H227.769V273.227Z" fill="#EE4D59"/>
<path d="M238.029 273.227H232.899V278.357H238.029V273.227Z" fill="#EE4D59"/>
<path d="M248.289 273.227H243.159V278.357H248.289V273.227Z" fill="#EE4D59"/>
<path d="M253.419 273.227H248.289V278.357H253.419V273.227Z" fill="#EE4D59"/>
<path d="M263.678 273.227H258.548V278.357H263.678V273.227Z" fill="#EE4D59"/>
<path d="M268.808 273.227H263.678V278.357H268.808V273.227Z" fill="#EE4D59"/>
<path d="M274.241 273.227H268.808V278.357H274.241V273.227Z" fill="#EE4D59"/>
<path d="M279.373 273.227H274.244V278.357H279.373V273.227Z" fill="#EE4D59"/>
<path d="M289.633 273.227H284.504V278.357H289.633V273.227Z" fill="#EE4D59"/>
<path d="M294.763 273.227H289.633V278.357H294.763V273.227Z" fill="#EE4D59"/>
<path d="M299.893 273.227H294.763V278.357H299.893V273.227Z" fill="#EE4D59"/>
<path d="M305.023 273.227H299.893V278.357H305.023V273.227Z" fill="#EE4D59"/>
<path d="M315.585 273.227H310.153V278.357H315.585V273.227Z" fill="#EE4D59"/>
<path d="M212.38 268.098H207.25V273.228H212.38V268.098Z" fill="#EE4D59"/>
<path d="M222.64 268.098H217.51V273.228H222.64V268.098Z" fill="#EE4D59"/>
<path d="M232.899 268.098H227.77V273.228H232.899V268.098Z" fill="#EE4D59"/>
<path d="M238.029 268.098H232.899V273.228H238.029V268.098Z" fill="#EE4D59"/>
<path d="M253.419 268.098H248.289V273.228H253.419V268.098Z" fill="#EE4D59"/>
<path d="M258.549 268.098H253.419V273.228H258.549V268.098Z" fill="#EE4D59"/>
<path d="M263.678 268.098H258.548V273.228H263.678V268.098Z" fill="#EE4D59"/>
<path d="M274.241 268.098H268.808V273.228H274.241V268.098Z" fill="#EE4D59"/>
<path d="M279.373 268.098H274.244V273.228H279.373V268.098Z" fill="#EE4D59"/>
<path d="M284.504 268.098H279.374V273.228H284.504V268.098Z" fill="#EE4D59"/>
<path d="M294.763 268.098H289.633V273.228H294.763V268.098Z" fill="#EE4D59"/>
<path d="M305.023 268.098H299.893V273.228H305.023V268.098Z" fill="#EE4D59"/>
<path d="M310.153 268.098H305.023V273.228H310.153V268.098Z" fill="#EE4D59"/>
<path d="M315.585 268.098H310.153V273.228H315.585V268.098Z" fill="#EE4D59"/>
<path d="M207.25 268.098H202.12V273.228H207.25V268.098Z" fill="#EE4D59"/>
<path d="M212.38 262.968H207.25V268.098H212.38V262.968Z" fill="#EE4D59"/>
<path d="M232.899 262.968H227.77V268.098H232.899V262.968Z" fill="#EE4D59"/>
<path d="M238.029 262.968H232.899V268.098H238.029V262.968Z" fill="#EE4D59"/>
<path d="M248.289 262.968H243.159V268.098H248.289V262.968Z" fill="#EE4D59"/>
<path d="M253.419 262.968H248.289V268.098H253.419V262.968Z" fill="#EE4D59"/>
<path d="M263.678 262.968H258.548V268.098H263.678V262.968Z" fill="#EE4D59"/>
<path d="M268.808 262.968H263.678V268.098H268.808V262.968Z" fill="#EE4D59"/>
<path d="M279.373 262.968H274.244V268.098H279.373V262.968Z" fill="#EE4D59"/>
<path d="M284.504 262.968H279.374V268.098H284.504V262.968Z" fill="#EE4D59"/>
<path d="M289.633 262.968H284.504V268.098H289.633V262.968Z" fill="#EE4D59"/>
<path d="M294.763 262.968H289.633V268.098H294.763V262.968Z" fill="#EE4D59"/>
<path d="M299.893 262.968H294.763V268.098H299.893V262.968Z" fill="#EE4D59"/>
<path d="M305.023 262.968H299.893V268.098H305.023V262.968Z" fill="#EE4D59"/>
<path d="M207.25 262.968H202.12V268.098H207.25V262.968Z" fill="#EE4D59"/>
<path d="M248.289 257.838H243.159V262.968H248.289V257.838Z" fill="#EE4D59"/>
<path d="M258.549 257.838H253.419V262.968H258.549V257.838Z" fill="#EE4D59"/>
<path d="M263.678 257.838H258.548V262.968H263.678V257.838Z" fill="#EE4D59"/>
<path d="M274.241 257.838H268.808V262.968H274.241V257.838Z" fill="#EE4D59"/>
<path d="M279.373 257.838H274.244V262.968H279.373V257.838Z" fill="#EE4D59"/>
<path d="M284.504 257.838H279.374V262.968H284.504V257.838Z" fill="#EE4D59"/>
<path d="M212.38 252.708H207.25V257.838H212.38V252.708Z" fill="#EE4D59"/>
<path d="M217.51 252.708H212.38V257.838H217.51V252.708Z" fill="#EE4D59"/>
<path d="M222.64 252.708H217.51V257.838H222.64V252.708Z" fill="#EE4D59"/>
<path d="M227.769 252.708H222.64V257.838H227.769V252.708Z" fill="#EE4D59"/>
<path d="M232.899 252.708H227.77V257.838H232.899V252.708Z" fill="#EE4D59"/>
<path d="M243.159 252.708H238.029V257.838H243.159V252.708Z" fill="#EE4D59"/>
<path d="M248.289 252.708H243.159V257.838H248.289V252.708Z" fill="#EE4D59"/>
<path d="M263.678 252.708H258.548V257.838H263.678V252.708Z" fill="#EE4D59"/>
<path d="M284.504 252.708H279.374V257.838H284.504V252.708Z" fill="#EE4D59"/>
<path d="M289.633 252.708H284.504V257.838H289.633V252.708Z" fill="#EE4D59"/>
<path d="M299.893 252.708H294.763V257.838H299.893V252.708Z" fill="#EE4D59"/>
<path d="M315.585 252.708H310.153V257.838H315.585V252.708Z" fill="#EE4D59"/>
<path d="M207.25 252.708H202.12V257.838H207.25V252.708Z" fill="#EE4D59"/>
<path d="M232.899 247.578H227.77V252.708H232.899V247.578Z" fill="#EE4D59"/>
<path d="M274.241 247.578H268.808V252.708H274.241V247.578Z" fill="#EE4D59"/>
<path d="M279.373 247.578H274.244V252.708H279.373V247.578Z" fill="#EE4D59"/>
<path d="M289.633 247.578H284.504V252.708H289.633V247.578Z" fill="#EE4D59"/>
<path d="M294.763 247.578H289.633V252.708H294.763V247.578Z" fill="#EE4D59"/>
<path d="M305.023 247.578H299.893V252.708H305.023V247.578Z" fill="#EE4D59"/>
<path d="M310.153 247.578H305.023V252.708H310.153V247.578Z" fill="#EE4D59"/>
<path d="M315.585 247.578H310.153V252.708H315.585V247.578Z" fill="#EE4D59"/>
<path d="M207.25 247.578H202.12V252.708H207.25V247.578Z" fill="#EE4D59"/>
<path d="M217.51 242.448H212.38V247.578H217.51V242.448Z" fill="#EE4D59"/>
<path d="M222.64 242.448H217.51V247.578H222.64V242.448Z" fill="#EE4D59"/>
<path d="M232.899 242.448H227.77V247.578H232.899V242.448Z" fill="#EE4D59"/>
<path d="M243.159 242.448H238.029V247.578H243.159V242.448Z" fill="#EE4D59"/>
<path d="M248.289 242.448H243.159V247.578H248.289V242.448Z" fill="#EE4D59"/>
<path d="M258.549 242.448H253.419V247.578H258.549V242.448Z" fill="#EE4D59"/>
<path d="M263.678 242.448H258.548V247.578H263.678V242.448Z" fill="#EE4D59"/>
<path d="M274.241 242.448H268.808V247.578H274.241V242.448Z" fill="#EE4D59"/>
<path d="M294.763 242.448H289.633V247.578H294.763V242.448Z" fill="#EE4D59"/>
<path d="M299.893 242.448H294.763V247.578H299.893V242.448Z" fill="#EE4D59"/>
<path d="M305.023 242.448H299.893V247.578H305.023V242.448Z" fill="#EE4D59"/>
<path d="M207.25 242.448H202.12V247.578H207.25V242.448Z" fill="#EE4D59"/>
<path d="M217.51 237.315H212.38V242.445H217.51V237.315Z" fill="#EE4D59"/>
<path d="M222.64 237.315H217.51V242.445H222.64V237.315Z" fill="#EE4D59"/>
<path d="M232.899 237.315H227.77V242.445H232.899V237.315Z" fill="#EE4D59"/>
<path d="M243.159 237.315H238.029V242.445H243.159V237.315Z" fill="#EE4D59"/>
<path d="M253.419 237.315H248.289V242.445H253.419V237.315Z" fill="#EE4D59"/>
<path d="M258.549 237.315H253.419V242.445H258.549V237.315Z" fill="#EE4D59"/>
<path d="M263.678 237.315H258.548V242.445H263.678V237.315Z" fill="#EE4D59"/>
<path d="M268.808 237.315H263.678V242.445H268.808V237.315Z" fill="#EE4D59"/>
<path d="M274.241 237.315H268.808V242.445H274.241V237.315Z" fill="#EE4D59"/>
<path d="M284.504 237.315H279.374V242.445H284.504V237.315Z" fill="#EE4D59"/>
<path d="M289.633 237.315H284.504V242.445H289.633V237.315Z" fill="#EE4D59"/>
<path d="M294.763 237.315H289.633V242.445H294.763V237.315Z" fill="#EE4D59"/>
<path d="M305.023 237.315H299.893V242.445H305.023V237.315Z" fill="#EE4D59"/>
<path d="M310.153 237.315H305.023V242.445H310.153V237.315Z" fill="#EE4D59"/>
<path d="M315.585 237.315H310.153V242.445H315.585V237.315Z" fill="#EE4D59"/>
<path d="M207.25 237.315H202.12V242.445H207.25V237.315Z" fill="#EE4D59"/>
<path d="M232.899 232.186H227.77V237.316H232.899V232.186Z" fill="#EE4D59"/>
<path d="M253.419 232.186H248.289V237.316H253.419V232.186Z" fill="#EE4D59"/>
<path d="M258.549 232.186H253.419V237.316H258.549V232.186Z" fill="#EE4D59"/>
<path d="M268.808 232.186H263.678V237.316H268.808V232.186Z" fill="#EE4D59"/>
<path d="M274.241 232.186H268.808V237.316H274.241V232.186Z" fill="#EE4D59"/>
<path d="M279.373 232.186H274.244V237.316H279.373V232.186Z" fill="#EE4D59"/>
<path d="M284.504 232.186H279.374V237.316H284.504V232.186Z" fill="#EE4D59"/>
<path d="M310.153 232.186H305.023V237.316H310.153V232.186Z" fill="#EE4D59"/>
<path d="M207.25 232.186H202.12V237.316H207.25V232.186Z" fill="#EE4D59"/>
<path d="M212.38 227.056H207.25V232.186H212.38V227.056Z" fill="#EE4D59"/>
<path d="M217.51 227.056H212.38V232.186H217.51V227.056Z" fill="#EE4D59"/>
<path d="M222.64 227.056H217.51V232.186H222.64V227.056Z" fill="#EE4D59"/>
<path d="M227.769 227.056H222.64V232.186H227.769V227.056Z" fill="#EE4D59"/>
<path d="M232.899 227.056H227.77V232.186H232.899V227.056Z" fill="#EE4D59"/>
<path d="M243.159 227.056H238.029V232.186H243.159V227.056Z" fill="#EE4D59"/>
<path d="M248.289 227.056H243.159V232.186H248.289V227.056Z" fill="#EE4D59"/>
<path d="M274.241 227.056H268.808V232.186H274.241V227.056Z" fill="#EE4D59"/>
<path d="M284.504 227.056H279.374V232.186H284.504V227.056Z" fill="#EE4D59"/>
<path d="M294.763 227.056H289.633V232.186H294.763V227.056Z" fill="#EE4D59"/>
<path d="M299.893 227.056H294.763V232.186H299.893V227.056Z" fill="#EE4D59"/>
<path d="M315.585 227.056H310.153V232.186H315.585V227.056Z" fill="#EE4D59"/>
<path d="M207.25 227.056H202.12V232.186H207.25V227.056Z" fill="#EE4D59"/>
<g opacity="0.8">
<path opacity="0.8" d="M184.973 237.161C184.489 237.16 184.025 236.967 183.683 236.625C183.341 236.282 183.149 235.818 183.149 235.335V210.455C183.149 209.971 183.341 209.508 183.683 209.166C184.025 208.824 184.489 208.632 184.973 208.632H210.093C210.577 208.632 211.041 208.824 211.383 209.166C211.725 209.508 211.917 209.971 211.917 210.455C211.917 210.938 211.725 211.402 211.383 211.744C211.041 212.086 210.577 212.278 210.093 212.278H186.814V235.335C186.814 235.576 186.767 235.814 186.674 236.037C186.581 236.26 186.445 236.462 186.274 236.631C186.103 236.801 185.9 236.935 185.676 237.026C185.453 237.117 185.214 237.163 184.973 237.161Z" fill="white"/>
<path opacity="0.8" d="M332.733 237.272C332.249 237.272 331.784 237.08 331.442 236.737C331.099 236.395 330.907 235.93 330.907 235.446V212.179H307.851C307.38 212.16 306.934 211.959 306.608 211.619C306.282 211.279 306.099 210.826 306.099 210.355C306.099 209.883 306.282 209.43 306.608 209.09C306.934 208.75 307.38 208.549 307.851 208.53H332.733C333.217 208.531 333.681 208.723 334.023 209.066C334.365 209.408 334.557 209.872 334.557 210.356V235.458C334.553 235.94 334.36 236.401 334.018 236.741C333.677 237.08 333.215 237.271 332.733 237.272Z" fill="white"/>
</g>
<g opacity="0.8">
<path opacity="0.8" d="M332.733 362.304H307.628C307.157 362.285 306.712 362.084 306.386 361.744C306.059 361.404 305.877 360.951 305.877 360.479C305.877 360.008 306.059 359.555 306.386 359.215C306.712 358.875 307.157 358.674 307.628 358.655H330.923V335.598C330.912 335.352 330.952 335.107 331.039 334.877C331.126 334.646 331.259 334.436 331.43 334.259C331.6 334.081 331.805 333.94 332.031 333.843C332.258 333.747 332.501 333.697 332.747 333.697C332.994 333.697 333.237 333.747 333.464 333.843C333.69 333.94 333.895 334.081 334.065 334.259C334.236 334.436 334.368 334.646 334.455 334.877C334.543 335.107 334.582 335.352 334.572 335.598V360.478C334.572 360.719 334.525 360.957 334.432 361.18C334.339 361.402 334.204 361.604 334.033 361.774C333.862 361.943 333.659 362.078 333.436 362.169C333.213 362.26 332.974 362.306 332.733 362.304Z" fill="white"/>
<path opacity="0.8" d="M209.855 362.415H184.972C184.489 362.414 184.025 362.222 183.683 361.879C183.341 361.537 183.149 361.073 183.149 360.589V335.481C183.139 335.235 183.179 334.989 183.266 334.759C183.353 334.529 183.486 334.318 183.656 334.141C183.827 333.963 184.031 333.822 184.258 333.725C184.484 333.629 184.728 333.579 184.974 333.579C185.22 333.579 185.464 333.629 185.69 333.725C185.917 333.822 186.121 333.963 186.292 334.141C186.462 334.318 186.595 334.529 186.682 334.759C186.769 334.989 186.809 335.235 186.799 335.481V358.759H209.855C210.326 358.779 210.771 358.98 211.098 359.32C211.424 359.66 211.606 360.113 211.606 360.584C211.606 361.056 211.424 361.509 211.098 361.849C210.771 362.189 210.326 362.39 209.855 362.409V362.415Z" fill="white"/>
</g>
<path d="M319.937 393.46H197.769C195.859 393.46 194.311 395.009 194.311 396.918V400.407C194.311 402.317 195.859 403.865 197.769 403.865H319.937C321.846 403.865 323.395 402.317 323.395 400.407V396.918C323.395 395.009 321.846 393.46 319.937 393.46Z" fill="white"/>
<path d="M284.504 393.46V403.865H197.769C196.853 403.863 195.975 403.498 195.327 402.85C194.679 402.202 194.314 401.324 194.311 400.407V396.918C194.314 396.002 194.679 395.124 195.327 394.476C195.975 393.828 196.853 393.463 197.769 393.46H284.504Z" fill="#332A23"/>
<path d="M266.432 393.46L256.833 403.865H238.879L248.474 393.46H266.432Z" fill="#433A32"/>
<path d="M284.504 393.46V403.865H267.86L277.458 393.46H284.504Z" fill="#433A32"/>
<path d="M237.519 393.46L227.924 403.865H209.969L219.565 393.46H237.519Z" fill="#433A32"/>
<path d="M208.61 393.46L199.03 403.865H197.714C196.797 403.863 195.918 403.498 195.27 402.85C194.622 402.202 194.256 401.324 194.252 400.407V396.918C194.256 396.002 194.622 395.124 195.27 394.476C195.918 393.828 196.797 393.463 197.714 393.46H208.61Z" fill="#433A32"/>
<path d="M245.613 387.524L246.296 386.711C246.842 387.242 247.571 387.543 248.332 387.552C249.033 387.552 249.475 387.243 249.475 386.721C249.475 386.26 249.219 386.01 248.02 385.726C246.645 385.417 245.857 384.996 245.857 383.788C245.857 382.682 246.784 381.934 248.06 381.934C248.911 381.916 249.741 382.203 250.399 382.744L249.781 383.603C249.285 383.196 248.67 382.963 248.029 382.938C247.365 382.938 246.978 383.278 246.978 383.723C246.978 384.221 247.287 384.44 248.524 384.737C249.886 385.067 250.597 385.556 250.597 386.644C250.597 387.852 249.648 388.572 248.292 388.572C247.3 388.568 246.344 388.194 245.613 387.524Z" fill="white"/>
<path d="M251.66 385.234C251.651 384.794 251.73 384.356 251.894 383.948C252.058 383.539 252.302 383.167 252.613 382.856C252.924 382.544 253.295 382.298 253.703 382.133C254.111 381.969 254.548 381.888 254.989 381.896C255.457 381.879 255.923 381.959 256.358 382.132C256.794 382.305 257.188 382.567 257.516 382.901L256.787 383.738C256.554 383.492 256.274 383.294 255.963 383.157C255.653 383.019 255.319 382.945 254.979 382.938C253.743 382.938 252.85 383.951 252.85 385.234C252.85 386.516 253.746 387.53 254.979 387.53C255.773 387.53 256.28 387.221 256.833 386.689L257.563 387.428C257.238 387.8 256.834 388.096 256.381 388.294C255.928 388.492 255.436 388.586 254.942 388.571C254.505 388.576 254.072 388.492 253.668 388.325C253.264 388.158 252.898 387.911 252.592 387.6C252.286 387.288 252.045 386.918 251.885 386.512C251.725 386.105 251.649 385.671 251.66 385.234Z" fill="white"/>
<path d="M261.039 381.964H262.09L264.927 388.454H263.731L263.076 386.909H260.022L259.361 388.454H258.199L261.039 381.964ZM262.662 385.901L261.546 383.318L260.44 385.901H262.662Z" fill="white"/>
<path d="M266.027 382.01H267.078L270.532 386.47V382.01H271.648V388.463H270.699L267.142 383.871V388.463H266.027V382.01Z" fill="white"/>
<path d="M355.644 336.649C361.596 334.915 368.314 336.905 372.517 341.467C382.91 352.752 375.246 361.451 380.447 369.35C383.59 374.121 386.229 382.48 376.494 387.425C371.992 389.712 358.571 401.659 355.839 401.949C328.027 404.804 327.52 376.581 336.896 368.401C350.082 356.899 338.03 341.785 355.644 336.649Z" fill="#233862"/>
<path d="M370.187 380.289C370.187 380.289 395.577 392.591 400.333 392.384C405.089 392.177 434.817 381.707 434.817 381.707L434.072 386.747C434.072 386.747 411.455 399.757 403.544 400.487C395.759 401.213 369.14 393.5 366.572 391.871C364.004 390.243 362.718 381.933 370.187 380.289Z" fill="#ED985F"/>
<path d="M372.981 391.887C370.312 393.689 367.322 394.962 364.173 395.635C350.595 398.772 345.391 387.292 343.438 379.421C344.856 378.635 346.422 378.153 348.036 378.005C349.019 377.891 350.051 377.814 350.907 377.771C352.43 376.602 354.702 371.825 355.205 364.402L355.842 364.575L366.544 367.505C366.544 367.505 366.055 370.904 365.814 374.121C365.629 376.636 365.598 379.041 366.074 379.628C366.911 379.81 367.412 379.937 367.412 379.937C369.645 383.734 371.509 387.735 372.981 391.887Z" fill="#FFB27D"/>
<path d="M366.544 367.505C366.544 367.505 366.052 370.904 365.814 374.121C359.751 373.503 356.939 367.743 355.842 364.578L366.544 367.505Z" fill="#ED985F"/>
<path d="M368.355 370.709C368.355 370.709 353.966 369.918 354.597 360.963C355.227 352.007 353.799 345.876 363.012 346.006C372.224 346.135 373.769 349.677 374.285 352.715C374.801 355.752 372.115 370.675 368.355 370.709Z" fill="#FFB27D"/>
<path d="M374.214 347.696C372.187 344.844 370.465 345.313 369.467 346.055C361.921 341.172 356.399 347.195 356.399 347.195C355.481 351.064 353.248 354.494 350.082 356.899C350.082 356.899 352.631 358.938 358.735 357.585C366.544 355.854 369.242 349.08 369.591 348.042C370.413 348.892 371.473 349.433 372.286 351.278C373.25 353.472 373.858 354.745 373.874 358.345C373.877 358.348 377.258 351.973 374.214 347.696Z" fill="#233862"/>
<path d="M339.337 421.143C338.039 414.502 333.803 387.959 338.039 379.424C339.56 376.359 345.533 376.08 352.084 376.334C354.121 377.65 361.89 382.623 365.064 382.004L365.243 381.961C366.745 381.584 367.313 380.53 366.059 379.619C368.376 379.819 370.681 380.14 372.965 380.58C375.243 381.009 381.491 384.848 381.491 384.848C381.491 384.848 378.658 389.254 374.099 391.183C374.875 398.117 373.722 401.176 366.528 417.19C360.45 430.729 367.347 442.917 367.347 442.917C367.347 442.917 331.568 471.684 331.367 457.036C331.231 446.019 341 429.635 339.337 421.143Z" fill="#433A32"/>
<path d="M369.136 474.205C370.098 474.097 371.024 473.78 371.851 473.278C372.677 472.775 373.385 472.098 373.923 471.294L374.476 470.46C378.549 464.279 380.135 445.429 389.31 425.296C391.544 420.398 399.551 419.517 401.736 413.982C401.736 413.982 407.113 396.037 391.448 395.509C375.784 394.98 349.464 445.435 349.062 450.729C348.66 455.855 338.707 477.632 369.136 474.205Z" fill="#94B0ED"/>
<path d="M431.399 474.104H409.106C409.106 474.104 408.272 470.451 409.724 467.966C411.019 465.769 410.524 464.518 409.563 462.713C410.743 463.237 412.027 463.485 413.318 463.439C414.43 463.374 415.605 462.855 416.634 462.243C417.595 463.365 421.705 468.146 422.987 469.094C424.455 470.154 430.951 469.771 431.399 474.104Z" fill="#0D2644"/>
<path d="M402.23 400.685C403.574 410.75 408.815 442.521 418.064 458.018C421.046 463.015 410.552 465.818 410.496 465.803C409.087 465.435 406.742 463.192 405.663 462.218C398.154 455.45 382.913 436.288 382.913 420.926C382.913 413.435 382.78 399.13 388.228 395.496C391.581 393.268 401.689 396.698 402.23 400.685Z" fill="#94B0ED"/>
<path d="M340.215 391.871C340.215 391.871 344.739 401.077 365.864 407.582C386.989 414.087 374.903 397.743 374.903 397.743L345.375 387.425L340.215 391.871Z" fill="#332A23"/>
<path d="M358.249 474.233C359.062 472.923 359.686 471.505 360.104 470.021C361.303 465.815 361.729 462.756 364.031 456.205C366.448 449.326 369.316 440.865 372.903 432.061C374.01 429.341 375.184 426.591 376.433 423.847C378.664 418.949 384.804 419.625 386.989 414.088C386.989 414.088 395.509 394.897 379.844 394.366C364.18 393.834 334.417 445.707 332.702 450.732C330.823 456.226 324.093 479.487 358.249 474.233Z" fill="#AEC3FF"/>
<path d="M415.033 474.104H392.728C392.728 474.104 391.893 470.451 393.346 467.966C394.64 465.769 394.143 464.518 393.185 462.713C394.365 463.237 395.649 463.486 396.94 463.439C398.049 463.374 399.226 462.855 400.255 462.243C401.216 463.365 405.323 468.146 406.609 469.094C408.086 470.154 414.585 469.771 415.033 474.104Z" fill="#163560"/>
<g opacity="0.5">
<path opacity="0.5" d="M364.025 456.201C366.442 449.322 369.309 440.861 372.897 432.057C371.97 425.385 369.94 419.551 366.544 417.199C366.544 417.199 358.305 442.712 364.025 456.201Z" fill="#94B0ED"/>
</g>
<path d="M389.214 399.983C390.558 410.048 392.449 442.53 401.698 458.028C404.678 463.025 394.186 465.828 394.127 465.812C392.721 465.444 390.376 463.201 389.294 462.228C381.788 455.46 366.544 436.297 366.544 420.935C366.544 413.445 375.335 399.742 380.781 396.105C384.137 393.865 388.682 395.985 389.214 399.983Z" fill="#AEC3FF"/>
<path d="M437.481 368.729L414.647 366.306C414.323 366.268 413.996 366.339 413.716 366.507C413.437 366.674 413.221 366.93 413.102 367.233L404.934 388.701C404.851 388.919 404.821 389.154 404.847 389.386C404.872 389.618 404.953 389.841 405.081 390.036C405.21 390.231 405.383 390.393 405.586 390.508C405.789 390.623 406.017 390.688 406.25 390.697L428.908 391.625C429.209 391.636 429.506 391.556 429.76 391.394C430.014 391.232 430.213 390.997 430.33 390.719L438.673 370.765C438.762 370.554 438.801 370.325 438.786 370.097C438.771 369.868 438.703 369.646 438.587 369.448C438.471 369.251 438.311 369.083 438.119 368.958C437.927 368.833 437.708 368.755 437.481 368.729Z" fill="#DB6B3A"/>
<path d="M439.461 368.939L416.631 366.513C416.307 366.475 415.979 366.545 415.7 366.713C415.42 366.88 415.204 367.136 415.085 367.44L406.943 388.92C406.86 389.139 406.83 389.373 406.855 389.606C406.881 389.838 406.961 390.06 407.09 390.255C407.218 390.45 407.392 390.612 407.595 390.727C407.798 390.842 408.026 390.907 408.259 390.917L430.917 391.844C431.217 391.855 431.514 391.775 431.768 391.613C432.021 391.451 432.219 391.216 432.335 390.938L440.679 370.984C440.771 370.771 440.81 370.539 440.795 370.307C440.78 370.076 440.71 369.851 440.592 369.651C440.473 369.452 440.308 369.283 440.112 369.159C439.916 369.035 439.693 368.96 439.461 368.939Z" fill="#F78248"/>
<path d="M426.807 378.96C427.085 378.194 426.689 377.573 425.923 377.573C425.509 377.601 425.111 377.746 424.776 377.992C424.441 378.238 424.183 378.573 424.032 378.96C423.754 379.726 424.146 380.348 424.912 380.348C425.327 380.319 425.725 380.174 426.06 379.928C426.396 379.682 426.655 379.347 426.807 378.96Z" fill="#EBF3FA"/>
<path d="M438.772 370.966C438.813 370.894 438.833 370.812 438.831 370.73C438.828 370.647 438.804 370.566 438.759 370.497C438.715 370.427 438.652 370.371 438.578 370.334C438.505 370.296 438.422 370.28 438.34 370.286C438.137 370.3 437.942 370.371 437.778 370.492C437.613 370.612 437.487 370.777 437.413 370.966C437.373 371.038 437.354 371.12 437.357 371.202C437.36 371.285 437.385 371.365 437.429 371.434C437.473 371.504 437.535 371.56 437.608 371.598C437.681 371.636 437.763 371.653 437.845 371.649C438.048 371.634 438.243 371.562 438.407 371.442C438.571 371.321 438.698 371.156 438.772 370.966Z" fill="#EBF3FA"/>
<path d="M343.438 379.421C343.438 379.421 375.082 391.074 379.838 390.836C382.928 390.682 408.457 381.701 408.457 381.701L410.75 386.028C410.75 386.028 385.886 402.007 379.05 401.927C365.555 401.773 342.783 393.488 340.215 391.859C337.647 390.23 335.969 381.068 343.438 379.421Z" fill="#FFB27D"/>
<path d="M408.457 381.701C408.457 381.701 410.75 378.172 413.033 378.067C415.317 377.962 419.263 379.612 420.611 379.884C421.958 380.156 425.802 381.389 424.659 383.259C423.516 385.129 418.225 385.543 415.941 385.113C413.658 384.684 410.75 386.04 410.75 386.04L408.457 381.701Z" fill="#FFB27D"/>
<path d="M412.412 378.175C412.412 378.175 416.043 376.51 417.082 376.201C418.12 375.892 417.913 376.201 417.601 377.186C417.289 378.172 415.438 379.112 415.438 379.421C415.438 379.73 412.412 378.175 412.412 378.175Z" fill="#FFB27D"/>
<path d="M437.11 379.832C437.11 379.832 435.664 375.06 434.072 376.559C432.416 378.104 433.42 379.68 433.624 381.67C434.01 385.474 434.78 385.311 435.268 385.141C435.756 384.971 437.651 381.744 437.11 379.832Z" fill="#FFB27D"/>
<path d="M437.196 380.558C437.196 380.558 437.929 384.622 434.072 386.738L435.212 383.942L437.196 380.558Z" fill="#FFB27D"/>
<path d="M371.049 365.549C371.049 365.549 369.69 365.011 365.861 365.323C365.861 365.323 366.065 366.816 368.886 366.964C370.478 367.047 371.049 365.549 371.049 365.549Z" fill="white"/>
<path d="M359.742 385.165C359.742 385.165 356.911 394.127 347.189 396.167C347.189 396.167 331.139 391.222 339.13 380.283C339.13 380.289 347.032 374.418 359.742 385.165Z" fill="#433A32"/>
<path d="M437.196 381.133C437.196 381.133 437.864 378.899 437.904 378.509C437.944 378.12 437.904 377.928 437.552 378.2C437.2 378.472 436.683 379.189 436.838 379.866C436.992 380.543 437.196 381.133 437.196 381.133Z" fill="#FFB27D"/>
<path d="M228.669 180.056C228.372 180.382 228.175 180.786 228.103 181.221C228.031 181.656 228.086 182.102 228.261 182.507C228.851 184.138 230.804 185.962 233.072 187.785C233.363 188.02 233.619 188.23 233.845 188.428L234.018 188.585C234.064 188.622 234.108 188.666 234.151 188.703C236.268 190.653 235.47 191.101 239.271 195.056C243.598 199.565 246.586 199.645 247.436 199.234C248.153 198.885 246.694 196.493 245.078 193.808C245.001 193.678 244.924 193.545 244.843 193.415C244.627 193.057 244.414 192.695 244.2 192.337C242.306 189.101 242.791 187.584 243.242 182.757C243.607 178.845 249.327 160.903 249.327 160.903L241.024 159.472C241.024 159.472 238.524 173.758 235.77 175.958C234.296 177.133 232.649 177.145 231.234 178.017C231.131 178.076 231.028 178.138 230.925 178.202C230.094 178.717 229.335 179.341 228.669 180.056Z" fill="#FFC49C"/>
<path d="M228.669 180.056C228.372 180.382 228.175 180.786 228.103 181.221C228.031 181.656 228.086 182.102 228.261 182.507C228.984 184.138 230.888 185.952 233.082 187.76C233.366 187.998 233.619 188.217 233.845 188.421L234.018 188.579C234.064 188.616 234.108 188.659 234.151 188.696C236.268 190.646 235.47 191.094 239.271 195.05C243.598 199.559 246.586 199.639 247.436 199.228C248.153 198.879 246.694 196.487 245.078 193.801C242.046 192.619 239.38 190.655 237.352 188.109C234.744 184.781 233.001 180.504 231.228 178.026C231.125 178.085 231.022 178.147 230.919 178.211C230.09 178.724 229.334 179.344 228.669 180.056Z" fill="#233862"/>
<path d="M295.622 174.871C296.135 177.432 299.788 177.006 303.87 176.008C307.953 175.01 306.982 176.196 312.792 175.553C318.602 174.911 320.36 172.744 320.539 171.879C320.697 171.113 317.826 170.844 314.748 170.489C314.359 170.445 313.972 170.396 313.583 170.35C310.106 169.914 307.56 167.67 304.402 165.828C301.41 164.082 296.948 156.975 296.948 156.975L288.981 157.593C288.981 157.593 293.163 163.971 294.766 166.715C295.718 168.338 295.669 170.485 295.548 172.145C295.451 173.053 295.476 173.969 295.622 174.871Z" fill="#FFC49C"/>
<path d="M303.87 176.023C307.952 175.025 306.982 176.211 312.792 175.569C318.601 174.926 320.36 172.76 320.539 171.894C320.697 171.128 317.826 170.859 314.748 170.504L314.717 170.562C312.228 172.16 309.354 173.054 306.398 173.149C302.458 173.245 298.283 172.117 295.561 172.16C295.459 173.067 295.48 173.984 295.622 174.886C296.135 177.432 299.788 177.006 303.87 176.023Z" fill="#233862"/>
<path d="M265.1 123.928L257.652 143.968L247.921 170.152C246.184 170.28 244.439 170.12 242.754 169.679C240.43 169.005 237.76 167.247 237.76 167.247C237.76 167.247 240.461 139.15 245.486 123.022C246.778 118.884 248.224 115.534 249.812 113.649C257.637 104.406 265.1 123.928 265.1 123.928Z" fill="#332A23"/>
<path d="M257.519 92.1013C252.884 90.6025 240.025 92.364 226.737 94.898C226.151 95.0102 225.545 94.9404 225 94.6978C224.454 94.4553 223.996 94.0518 223.687 93.5414L221.833 90.4511L191.638 88.0933C191.638 88.0933 183.844 105.8 187.16 120.541C187.973 124.15 192.386 128.823 199.132 129.243C218.044 130.421 230.804 123.854 250.43 116.95C253.83 115.751 255.399 123.338 258.947 130.794C262.495 138.251 292.322 163.802 292.322 163.802C292.322 163.802 296.905 163.848 298.811 163.137C300.845 162.374 301.593 161.382 301.593 161.382C301.593 161.382 268.524 95.652 257.519 92.1013Z" fill="#433A32"/>
<path d="M220.631 2.53603C216.762 0.50573 210.878 0.230696 209.92 0.100905C198.486 -1.44423 191.592 15.1906 191.187 20.2278C190.442 29.4985 185.529 30.9293 178.616 36.7452C164.75 48.4048 168.817 61.9555 176.397 66.9896C180.946 70.0088 188.962 66.9896 188.962 66.9896C189.076 67.0668 210.903 54.7954 221.642 48.8745C237.76 46.5846 230.489 7.71222 220.631 2.53603Z" fill="#233862"/>
<path d="M212.63 43.8346C212.677 43.8655 207.34 45.6888 203.77 44.1066C200.411 42.6232 197.868 37.101 197.917 37.0979C199.463 37.0268 201.122 35.6918 202.414 26.9309L203.063 27.1627L213.999 31.0904C213.999 31.0904 213.208 34.6009 212.695 37.9415C212.256 40.7506 212.031 43.4514 212.63 43.8346Z" fill="#FFB27D"/>
<path d="M213.999 31.0902C213.999 31.0902 213.452 33.5809 212.847 36.9864C206.567 35.8553 203.95 30.5524 203.063 27.1562L213.999 31.0902Z" fill="#ED975D"/>
<path d="M215.628 34.5792C215.628 34.5792 200.668 32.5705 202.062 23.275C203.455 13.9795 202.463 7.45286 212.074 8.34285C221.685 9.23285 223.004 13.0586 223.295 16.2755C223.585 19.4925 219.556 34.8635 215.628 34.5792Z" fill="#FFB27D"/>
<path d="M222.763 11.1763C222.763 11.1763 213.183 19.4304 206.669 20.0979C200.155 20.7654 197.689 18.6702 197.689 18.6702C200.29 16.3406 202.383 13.5004 203.838 10.3265C204.17 9.58063 204.695 8.93694 205.359 8.46208C206.023 7.98721 206.802 7.69843 207.615 7.62563C212.256 7.23625 221.073 7.05393 222.763 11.1763Z" fill="#233862"/>
<path d="M216.762 10.438C216.762 10.438 219.967 13.5283 220.977 15.8336C221.951 18.0524 222.241 23.3553 221.465 25.4629C221.465 25.4629 226.459 15.7563 223.629 11.0375C220.634 6.03747 216.762 10.438 216.762 10.438Z" fill="#233862"/>
<path d="M225.236 65.8741C226.385 92.883 224.568 91.3935 221.799 92.7068C220.844 93.1611 218.758 93.81 215.804 94.0047C206.533 94.6228 190.192 93.0776 189.571 91.3749C187.429 85.4385 188.953 83.5936 187.154 74.5021C186.969 73.5348 186.737 72.4872 186.468 71.3469C184.976 65.1046 183.526 62.9785 188.814 52.9475C193.607 43.8591 198.588 36.4857 199.036 36.7515C211.685 44.2608 212.705 37.9474 212.705 37.9474C212.705 37.9474 224.618 51.115 225.236 65.8741Z" fill="#AEC3FF"/>
<path d="M257.643 143.968L247.921 170.152C246.184 170.281 244.439 170.121 242.754 169.679C240.43 169.006 237.76 167.247 237.76 167.247C237.76 167.247 240.461 139.151 245.486 123.023L257.643 143.968Z" fill="#433A32"/>
<path d="M212.695 37.9473C212.695 37.9473 225.708 40.1537 227.238 45.7563L237.745 84.3012C237.745 84.3012 231.128 85.4909 228.072 82.447C225.016 79.4031 217.436 54.0908 217.436 54.0908L212.695 37.9473Z" fill="#AEC3FF"/>
<path d="M215.795 94.005C206.524 94.6231 190.183 93.0779 189.562 91.3752C187.42 85.4388 188.944 83.5939 187.145 74.5024L191.623 61.8879C191.623 61.8879 190.884 75.9332 195.022 79.6291C199.16 83.3251 211.981 86.7584 213.996 89.8455C214.97 91.3288 215.609 92.8122 215.795 94.005Z" fill="#94B0ED"/>
<path d="M205.149 88.0991C205.149 88.0991 214.308 86.0595 215.788 86.863C217.269 87.6665 220.878 90.6362 221.332 91.6684C221.787 92.7005 218.041 90.8834 216.824 90.5589C216.036 90.3457 213.959 91.0688 212.93 91.4119C208.604 92.8519 205.958 92.1103 205.958 92.1103L205.149 88.0991Z" fill="#FFB27D"/>
<path d="M199.018 36.7456C199.018 36.7456 186.715 37.5027 182.457 43.4422C176.462 51.8044 164.571 87.4382 171.385 92.191C179.061 97.5434 206.305 93.5909 206.305 93.5909C206.305 93.5909 207.21 89.3511 205.949 87.2992C204.688 85.2472 184.178 81.9345 183.23 80.9889C182.281 80.0432 195.062 62.5307 195.062 59.6908C195.062 56.8508 199.018 36.7456 199.018 36.7456Z" fill="#AEC3FF"/>
<path d="M216.237 89.4219C216.237 89.4219 218.159 91.8941 218.786 92.2031C219.102 92.3755 219.462 92.4527 219.821 92.4256L218.53 90.0955L216.237 89.4219Z" fill="#FFB27D"/>
<path d="M215.795 86.8721L221.376 89.5822C221.266 89.7179 221.123 89.8223 220.96 89.8847C220.797 89.9471 220.621 89.9654 220.449 89.9376C219.759 89.9067 218.026 89.2732 218.026 89.2732L215.795 86.8721Z" fill="#FFB27D"/>
<path d="M218.786 95.9851H262.937L276.219 62.9595H232.136L218.786 95.9851Z" fill="#EE4D59"/>
<path d="M263.456 94.7002H205.155V95.9857H262.936L263.456 94.7002Z" fill="#EE4D59"/>
<path d="M251.793 79.4741C252.124 78.3121 251.453 77.3727 250.291 77.3727C249.68 77.4071 249.095 77.6265 248.612 78.0019C248.129 78.3772 247.771 78.8907 247.587 79.4741C247.253 80.636 247.927 81.5754 249.086 81.5754C249.697 81.5417 250.284 81.3225 250.767 80.9471C251.251 80.5717 251.609 80.0579 251.793 79.4741Z" fill="#EBF3FA"/>
</svg>
