<svg width="468" height="476" viewBox="0 0 468 476" fill="none" xmlns="http://www.w3.org/2000/svg">
<path d="M0 409.517L57.2473 409.285L114.495 409.198L229 409.044L343.495 409.198L400.753 409.285L458 409.517L400.753 409.759L343.495 409.845L229 410L114.495 409.845L57.2473 409.759L0 409.517Z" fill="#263238"/>
<path d="M136.199 303.81C143.79 310.159 152.041 315.67 160.809 320.247C148.681 298.068 155.174 250.79 156.277 257.706C161.517 290.756 181.254 328.131 189.843 330.613C189.893 330.605 189.943 330.605 189.993 330.613C213.228 335.292 235.075 331.486 253.71 324.189C253.72 324.153 253.72 324.115 253.71 324.08C237.757 298.791 242.929 250.613 243.882 253.655C254.254 286.296 280.076 306.988 284.881 307.343C303.937 293.894 314.636 279.776 312.254 278.057C294.953 265.495 281.981 235.772 270.67 204.591C259.481 173.832 255.289 129.037 238.165 100.993C222.484 75.3082 187.162 67.7105 165.778 78.3636C109.684 106.244 125.623 294.999 136.199 303.81Z" fill="#263238"/>
<path d="M169.576 76.6995C164.913 78.3248 160.636 80.8974 157.012 84.2562C153.466 87.442 150.226 90.9538 147.334 94.7456C141.887 102.292 137.32 110.438 133.722 119.025C126.304 135.953 122.261 170.026 120.192 188.059C118.443 206.158 118.443 224.384 120.192 242.483C120.546 247.012 121.213 251.513 121.717 256.028L123.704 269.532L126.29 282.954L129.298 296.294L127.188 282.845L125.405 269.355L123.894 255.865C123.554 251.35 123.05 246.862 122.846 242.347C121.516 224.373 121.766 206.316 123.595 188.386C125.337 170.49 129.434 136.717 136.131 119.83C139.416 111.282 143.644 103.129 148.736 95.5231C151.383 91.6702 154.386 88.076 157.706 84.7882C159.407 83.1332 161.226 81.6059 163.151 80.2187C165.112 78.7421 167.276 77.5568 169.576 76.6995Z" fill="#263238"/>
<path d="M314.827 273.338C309.856 266.855 305.226 260.117 300.956 253.15C296.614 246.33 292.558 239.292 288.896 232.144C285.235 224.997 281.805 217.767 278.905 210.32C276.006 202.872 273.365 195.384 270.575 187.909C264.831 173 259.345 142.009 252.621 127.373C249.218 120.062 245.665 112.805 241.568 105.767C239.493 102.227 237.221 98.8074 234.762 95.5232C232.345 92.0452 229.241 89.1017 225.642 86.8752C228.985 89.3309 231.823 92.411 234 95.946C236.22 99.3128 238.252 102.801 240.084 106.394C243.841 113.515 247.094 120.826 250.184 128.219C256.378 142.95 261.863 173.887 267.362 188.85C270.248 196.311 272.957 203.772 276.006 211.234C279.062 218.723 282.585 226.012 286.555 233.058C294.495 247.472 303.974 260.978 314.827 273.338Z" fill="#263238"/>
<path d="M179.961 261.512C194.608 294.48 251.913 400.643 287.276 407.026C310.417 411.2 403.181 398.842 418.412 376.186C425.055 366.324 410.844 299.8 398.539 302.842C386.234 305.884 311.982 318.514 302.726 316.182C293.47 313.849 221.967 237.068 195.615 218.354C150.124 186.04 172.08 243.766 179.961 261.512Z" fill="#EB9481"/>
<path d="M370.213 299.036L375.794 399.646C375.794 399.646 302.549 415.783 270.575 404.72C231.768 391.285 174.966 270.814 167.125 251.008C154.357 218.503 157.896 198.834 175.987 203.635C183.01 205.45 192.321 211.001 203.591 221C215.447 231.421 283.547 299.036 305.04 311.803C317.113 318.95 370.213 299.036 370.213 299.036Z" fill="#E8505B"/>
<path d="M330.943 382.501C328.973 383.208 327.112 384.191 325.417 385.42C327.499 385.255 329.547 384.796 331.501 384.056C333.473 383.358 335.334 382.38 337.028 381.151C334.945 381.303 332.895 381.758 330.943 382.501ZM275.761 303.469C273.793 304.166 271.936 305.145 270.248 306.375C274.424 305.982 278.424 304.496 281.845 302.064C279.76 302.236 277.711 302.709 275.761 303.469ZM220.089 255.728C218.119 256.435 216.258 257.418 214.562 258.647C218.742 258.252 222.746 256.766 226.173 254.337C224.09 254.505 222.041 254.968 220.089 255.715V255.728ZM260.557 363.896C258.586 364.595 256.725 365.573 255.03 366.801C259.206 366.409 263.206 364.922 266.627 362.491C264.547 362.656 262.502 363.125 260.557 363.882V363.896ZM325.321 325.116C323.35 325.821 321.489 326.804 319.795 328.035C321.877 327.87 323.926 327.411 325.88 326.671C327.851 325.974 329.712 324.995 331.406 323.766C329.324 323.914 327.274 324.364 325.321 325.103V325.116ZM228.065 307.52C226.123 308.233 224.29 309.216 222.621 310.439C224.703 310.275 226.751 309.815 228.705 309.075C230.65 308.368 232.483 307.385 234.15 306.156C232.068 306.317 230.02 306.771 228.065 307.507V307.52ZM373.711 363.077C373.48 362.15 373.18 361.236 372.867 360.349C372.162 358.375 371.181 356.51 369.954 354.811C370.112 356.899 370.571 358.952 371.316 360.908C371.943 362.669 372.785 364.346 373.82 365.901L373.711 363.077ZM296.764 368.683C296.063 366.71 295.087 364.845 293.865 363.145C294.029 365.232 294.487 367.285 295.226 369.243C295.926 371.219 296.907 373.084 298.139 374.781C297.997 372.69 297.552 370.632 296.818 368.67L296.764 368.683ZM248.129 282.518C247.423 280.548 246.443 278.688 245.216 276.993C245.381 279.08 245.839 281.133 246.577 283.091C247.277 285.063 248.258 286.924 249.49 288.615C249.333 286.527 248.874 284.474 248.129 282.518ZM194.512 229.621C193.814 227.646 192.838 225.781 191.613 224.083C192.004 228.268 193.488 232.276 195.914 235.704C195.723 233.615 195.228 231.566 194.444 229.621H194.512ZM270.384 394.054C268.513 393.134 266.519 392.491 264.463 392.145C266.056 393.498 267.835 394.614 269.745 395.459C271.634 396.358 273.641 396.983 275.706 397.314C274.096 395.98 272.304 394.882 270.384 394.054ZM337.177 352.656C335.288 351.759 333.281 351.139 331.215 350.815C334.46 353.482 338.338 355.263 342.472 355.984C340.873 354.615 339.091 353.476 337.177 352.602V352.656ZM315.181 407.913C313.294 407.008 311.285 406.383 309.219 406.058C310.227 406.943 311.332 407.712 312.513 408.349L315.725 408.172L315.181 407.913ZM261.169 329.413C259.282 328.508 257.274 327.883 255.207 327.558C258.445 330.228 262.319 332.01 266.451 332.728C264.861 331.356 263.082 330.221 261.169 329.358V329.413ZM179.498 258.388C177.611 257.483 175.603 256.858 173.537 256.533C175.129 257.886 176.908 259.002 178.818 259.848C180.707 260.746 182.715 261.371 184.78 261.703C183.197 260.335 181.428 259.201 179.526 258.333L179.498 258.388ZM230.134 346.013C229.232 347.903 228.613 349.917 228.297 351.988C229.645 350.385 230.758 348.598 231.604 346.682C232.495 344.786 233.118 342.775 233.456 340.707C232.117 342.294 231.009 344.062 230.162 345.959L230.134 346.013ZM202.911 289.761C202.008 291.651 201.389 293.664 201.073 295.735C202.421 294.133 203.535 292.346 204.381 290.429C205.272 288.533 205.895 286.523 206.232 284.455C204.903 286.046 203.799 287.813 202.952 289.706L202.911 289.761ZM289.55 334.937C288.672 336.816 288.062 338.808 287.739 340.857C289.099 339.265 290.218 337.482 291.061 335.565C291.952 333.669 292.575 331.658 292.912 329.59C291.555 331.184 290.437 332.967 289.591 334.883L289.55 334.937ZM160.633 229.389C160.769 230.139 160.918 230.889 161.095 231.667C161.747 230.139 162.204 228.535 162.457 226.893C161.789 227.65 161.192 228.468 160.673 229.334L160.633 229.389Z" fill="white"/>
<path d="M357.472 398.146C356.193 383.305 353.212 322.374 353.457 309.157C353.457 308.243 354.056 308.038 354.165 308.993C359.038 353.379 357.54 383.455 358.044 398.078C358.058 398.405 357.5 398.487 357.472 398.146Z" fill="#263238"/>
<path opacity="0.1" d="M167.18 250.995C174.939 270.801 231.768 391.285 270.629 404.707C280.158 408.022 293.497 408.895 307.381 408.527L173.645 203.09C169.793 202.504 166.703 203.158 164.457 204.959C157.243 210.674 157.937 227.506 167.18 250.995Z" fill="black"/>
<path d="M33.9749 409.59L235.075 409.058L223.954 339.766C223.954 339.766 239.853 320.424 236.845 299.445C233.551 276.461 192.185 218.19 188.714 214.875C174.707 201.699 159.884 199.339 145.646 204.086C79.8602 245.607 33.9749 409.59 33.9749 409.59Z" fill="#E8505B"/>
<path d="M49.6829 369.693C48.5189 370.133 47.3864 370.652 46.2936 371.248L45.8853 372.407C47.3691 372.134 48.8265 371.733 50.241 371.207C52.215 370.508 54.0767 369.525 55.7674 368.288C53.6822 368.459 51.6328 368.933 49.6829 369.693ZM122.343 237.382C120.4 238.095 118.568 239.078 116.898 240.301C118.976 240.136 121.02 239.677 122.969 238.937C124.943 238.239 126.804 237.255 128.495 236.018C126.391 236.168 124.319 236.618 122.343 237.355V237.382ZM217.23 256.97C216.277 257.444 215.366 258.001 214.508 258.634C215.635 258.565 216.752 258.382 217.843 258.088C217.679 257.72 217.448 257.352 217.23 256.97ZM165.424 287.128C163.454 287.83 161.594 288.809 159.897 290.034C164.077 289.639 168.081 288.153 171.508 285.723C169.423 285.895 167.374 286.368 165.424 287.128ZM139.562 366.037C137.591 366.737 135.729 367.715 134.035 368.943C136.117 368.778 138.166 368.319 140.12 367.579C142.064 366.871 143.898 365.888 145.564 364.66C143.522 364.831 141.514 365.295 139.602 366.037H139.562ZM228.038 307.507C226.096 308.22 224.263 309.203 222.593 310.426C224.676 310.261 226.724 309.802 228.678 309.062C230.622 308.354 232.456 307.371 234.123 306.143C232.05 306.31 230.01 306.769 228.065 307.507H228.038ZM96.0855 311.026C94.1438 311.734 92.311 312.712 90.6408 313.931C94.817 313.539 98.8166 312.053 102.238 309.621C100.139 309.789 98.0755 310.262 96.1127 311.026H96.0855ZM195.275 363.882C193.303 364.581 191.443 365.56 189.748 366.788C191.83 366.623 193.879 366.164 195.833 365.424C197.8 364.719 199.656 363.736 201.345 362.504C199.275 362.668 197.239 363.132 195.302 363.882H195.275ZM141.957 207.96L141.549 206.951C141.1 207.264 140.664 207.592 140.188 207.919C140.269 208.124 140.337 208.315 140.405 208.519C141.111 210.477 142.091 212.323 143.318 214.003C143.149 211.935 142.691 209.901 141.957 207.96ZM91.7569 368.015C91.0562 366.041 90.0801 364.177 88.8576 362.477C89.2517 366.666 90.7348 370.678 93.159 374.112C92.9893 372.023 92.517 369.969 91.7569 368.015ZM164.063 336.465C163.356 334.519 162.38 332.683 161.163 331.009C161.555 335.194 163.038 339.202 165.465 342.631C165.3 340.518 164.828 338.441 164.063 336.465ZM138.486 268.455C137.78 266.485 136.8 264.625 135.573 262.93C135.987 267.11 137.469 271.113 139.875 274.552C139.701 272.464 139.234 270.411 138.486 268.455ZM227.344 384.138C226.652 382.16 225.675 380.295 224.445 378.6C224.609 380.687 225.067 382.739 225.806 384.697C226.509 386.669 227.49 388.529 228.719 390.222C228.558 388.138 228.095 386.088 227.344 384.138ZM194.444 229.621C193.746 227.646 192.77 225.781 191.545 224.083C191.936 228.268 193.42 232.276 195.846 235.704C195.677 233.619 195.204 231.57 194.444 229.621ZM117.333 341.826C115.445 340.928 113.437 340.308 111.372 339.984C114.616 342.652 118.494 344.433 122.628 345.154C121.026 343.804 119.244 342.684 117.333 341.826ZM188.754 407.586C189.448 408.191 190.19 408.738 190.973 409.222H194.213C192.479 408.424 190.641 407.873 188.754 407.586ZM70.7676 395.91C68.8782 395.011 66.8708 394.386 64.8056 394.054C66.399 395.417 68.1829 396.538 70.1006 397.383C71.9869 398.277 73.9892 398.902 76.049 399.238C74.4603 397.876 72.6809 396.754 70.7676 395.91ZM192.579 325.13C190.696 324.229 188.692 323.605 186.631 323.275C188.22 324.637 189.999 325.759 191.912 326.603C193.802 327.498 195.81 328.118 197.874 328.445C196.275 327.094 194.492 325.978 192.579 325.13ZM179.526 258.293C177.639 257.388 175.63 256.763 173.564 256.438C175.157 257.79 176.935 258.907 178.845 259.752C180.734 260.651 182.742 261.276 184.807 261.607C183.21 260.271 181.432 259.169 179.526 258.334V258.293ZM101.204 276.789C100.3 278.68 99.6769 280.692 99.3523 282.763C100.703 281.163 101.817 279.376 102.66 277.457C103.565 275.572 104.189 273.564 104.511 271.497C103.158 273.105 102.044 274.902 101.204 276.83V276.789ZM164.308 386.443C163.415 388.337 162.796 390.349 162.47 392.418C163.811 390.855 164.925 389.11 165.778 387.234C166.675 385.341 167.298 383.329 167.629 381.26C166.287 382.84 165.17 384.598 164.308 386.484V386.443ZM202.952 289.665C202.049 291.555 201.43 293.569 201.114 295.64C202.462 294.037 203.576 292.251 204.422 290.334C205.313 288.438 205.936 286.427 206.273 284.359C204.922 285.978 203.804 287.777 202.952 289.706V289.665ZM116.585 392.077C115.679 394 115.056 396.044 114.734 398.147C116.093 396.555 117.212 394.771 118.055 392.854C118.947 390.96 119.566 388.948 119.892 386.88C118.549 388.461 117.436 390.224 116.585 392.118V392.077ZM72.9182 341.962C72.0195 343.855 71.3961 345.867 71.067 347.937C73.7429 344.694 75.5219 340.804 76.2259 336.656C74.878 338.259 73.7643 340.045 72.9182 341.962ZM134.416 309.485C133.511 311.37 132.888 313.378 132.565 315.446C133.915 313.849 135.029 312.067 135.873 310.153C136.77 308.26 137.393 306.248 137.724 304.179C136.376 305.781 135.262 307.568 134.416 309.485ZM159.176 232.103C158.271 233.989 157.647 235.997 157.325 238.064C158.675 236.468 159.789 234.686 160.633 232.772C161.53 230.878 162.153 228.867 162.484 226.797C161.132 228.413 160.019 230.213 159.176 232.144V232.103Z" fill="white"/>
<path d="M210.533 242.947C214.426 249.44 218.7 255.701 222.784 262.043C221.137 257.515 219.531 252.986 217.734 248.526C217.728 248.508 217.729 248.489 217.735 248.472C217.742 248.455 217.754 248.441 217.77 248.431C217.785 248.422 217.804 248.418 217.822 248.42C217.84 248.423 217.857 248.431 217.87 248.444C220.728 253.825 223.058 259.471 224.826 265.303C227.879 270.117 230.607 275.129 232.993 280.308C235.921 286.521 237.763 293.193 238.437 300.032C238.875 306.922 237.903 313.829 235.579 320.328C232.841 327.788 229.433 334.983 225.397 341.825C224.88 342.739 223.614 341.894 224.036 340.98C229.739 328.785 236.042 315.963 235.47 302.146C234.898 288.328 228.555 275.888 222.335 264.035C218.701 256.81 214.609 249.825 210.084 243.124C209.893 242.933 210.356 242.647 210.533 242.947Z" fill="#263238"/>
<path d="M274.073 394.736L269.99 417.638H396.742C400.242 417.526 403.601 416.232 406.274 413.966C408.948 411.701 410.779 408.596 411.47 405.157L413.294 394.736H274.073Z" fill="#DBDBDB"/>
<path d="M259.794 405.157L261.632 394.736H286.528L284.69 405.157C284.006 408.585 282.188 411.682 279.531 413.947C276.873 416.212 273.53 417.512 270.044 417.638C268.496 417.679 266.96 417.372 265.546 416.739C264.133 416.106 262.879 415.164 261.877 413.982C260.907 412.753 260.218 411.326 259.858 409.801C259.499 408.276 259.477 406.691 259.794 405.157Z" fill="#EBEBEB"/>
<path d="M315.262 231.408L282.499 417.638H396.838C400.321 417.505 403.657 416.202 406.311 413.938C408.965 411.674 410.783 408.581 411.47 405.158L444.234 218.927H329.895C326.415 218.993 323.07 220.287 320.448 222.582C317.759 224.839 315.927 227.956 315.262 231.408Z" fill="#DBDBDB"/>
<path d="M329.909 218.927L323.293 256.547H462.487L466.911 231.408C468.123 224.519 463.522 218.927 456.661 218.927H329.909Z" fill="#EBEBEB"/>
<path d="M315.262 231.408L310.838 256.547H335.734L340.158 231.408C341.37 224.519 336.782 218.927 329.908 218.927C326.428 218.993 323.083 220.287 320.462 222.582C317.767 224.837 315.931 227.954 315.262 231.408Z" fill="#DBDBDB"/>
<path d="M427.396 290.948C432.051 304.247 445.472 321.556 445.622 332.032C445.745 334.61 445.038 337.16 443.604 339.304C442.17 341.448 440.086 343.074 437.659 343.94C437.659 343.94 447.405 350.174 445.976 359.695C445.241 364.591 436.774 367.715 436.774 367.715C436.774 367.715 444.37 373.048 442.573 381.437C441.144 388.121 432.882 390.249 432.882 390.249C432.882 390.249 437.782 398.774 434.147 405.117C426.77 417.966 368.552 411.773 361.842 389.321C358.711 378.859 372.854 381.137 372.854 381.137C372.854 381.137 353.307 372.953 354.287 360.868C355.267 348.782 373.439 352.888 373.439 352.888C373.439 352.888 354.573 344.772 356.833 332.359C359.201 319.456 376.692 326.658 376.692 326.658C376.692 326.658 364.673 316.496 368.525 307.398C374.963 292.393 397.409 314.518 410.531 312.854L419.828 292.393L427.396 290.948Z" fill="#EB9481"/>
<path d="M437.115 310.576C433.807 297.604 450.863 283.841 449.474 271.019C447.61 253.628 426.743 268.291 419.882 292.502L417.854 312.213L437.115 310.576Z" fill="#EB9481"/>
<path d="M431.629 390.78C431.669 390.78 431.707 390.796 431.735 390.824C431.763 390.852 431.779 390.891 431.779 390.93C431.779 390.97 431.763 391.008 431.735 391.037C431.707 391.065 431.669 391.08 431.629 391.08C411.974 393.727 389.596 390.589 372.037 381.109C371.452 380.809 371.71 379.745 372.418 379.95C392.414 386.252 410.613 390.235 431.629 390.78Z" fill="#263238"/>
<path d="M437.047 367.865C437.278 367.865 437.265 368.247 437.047 368.274C416.779 370.893 391.665 366.664 372.704 353.351C372.064 352.901 371.928 351.837 372.704 352.301C385.975 360.199 418.127 367.469 437.047 367.865Z" fill="#263238"/>
<path d="M375.617 325.266C394.279 337.324 414.928 342.166 436.87 344.076C437.156 344.076 437.088 344.513 436.87 344.554C425.899 346.545 412.056 343.858 401.479 340.857C391.59 338.265 382.554 333.114 375.277 325.921C374.895 325.634 375.208 325.021 375.617 325.266Z" fill="#263238"/>
<path d="M155.732 203.159C156.004 206.705 168.881 231.408 184.589 233.086C189.707 233.618 193.872 205.805 193.872 205.805L194.662 203.827L205.551 176.015L175.129 149.089L170.692 145.474C170.692 145.474 168.228 153.276 165.247 163.016C165.111 163.466 164.961 163.929 164.825 164.38C164.689 164.83 164.457 165.443 164.308 165.962C163.845 167.408 163.382 168.894 162.946 170.381C162.606 171.513 162.279 172.605 161.966 173.805C161.653 175.005 161.327 176.178 160.986 177.365C157.842 189.218 155.637 201.727 155.732 203.159Z" fill="#EB9481"/>
<path d="M165.206 162.974C166.866 171.511 170.36 179.584 175.447 186.632C180.534 193.679 187.091 199.533 194.662 203.786L205.551 175.973L175.129 149.047L170.692 145.433C170.692 145.433 168.187 153.235 165.206 162.974Z" fill="#263238"/>
<path d="M253.955 142.855C247.067 194.798 215.243 196.53 204.068 195.03C193.927 193.666 159.544 187.732 161.041 135.353C162.538 82.9746 188.822 69.7572 212.194 71.6396C235.565 73.5219 260.856 90.8996 253.955 142.855Z" fill="#EB9481"/>
<path d="M246.509 137.276C245.377 136.853 244.269 136.371 243.188 135.83C241.951 135.491 240.864 134.746 240.098 133.716C239.916 133.347 239.863 132.927 239.947 132.524C240.031 132.121 240.247 131.758 240.561 131.492C241.255 131.053 242.054 130.808 242.875 130.782C243.696 130.755 244.509 130.949 245.23 131.342C246.813 131.917 248.127 133.059 248.919 134.548C249.079 134.899 249.135 135.289 249.078 135.67C249.022 136.052 248.856 136.409 248.6 136.698C248.345 136.987 248.012 137.196 247.64 137.298C247.269 137.401 246.876 137.393 246.509 137.276Z" fill="#263238"/>
<path d="M211.459 128.355C212.661 128.416 213.864 128.416 215.066 128.355C216.343 128.522 217.639 128.263 218.755 127.618C219.063 127.348 219.273 126.985 219.355 126.583C219.436 126.181 219.383 125.764 219.204 125.395C218.736 124.717 218.095 124.176 217.349 123.828C216.602 123.48 215.777 123.338 214.957 123.417C213.278 123.325 211.625 123.86 210.316 124.918C210.037 125.178 209.839 125.513 209.744 125.883C209.65 126.253 209.664 126.642 209.785 127.004C209.905 127.367 210.127 127.687 210.424 127.926C210.721 128.165 211.08 128.314 211.459 128.355Z" fill="#263238"/>
<path d="M216.985 139.785C216.985 139.635 216.686 139.895 216.659 140.045C216.141 143.577 214.957 147.533 211.568 148.12C211.473 148.12 211.445 148.324 211.568 148.324C215.529 148.529 217.053 143.209 216.985 139.785Z" fill="#263238"/>
<path d="M214.522 135.544C208.968 134.098 206.477 145.351 211.636 146.688C216.795 148.025 219.177 136.758 214.522 135.544Z" fill="#263238"/>
<path d="M212.18 135.652C211.064 136.075 209.853 137.016 208.655 136.839C207.294 136.675 206.477 135.257 205.837 133.933C205.769 133.797 205.647 133.865 205.619 134.015C205.102 136.17 205.442 138.558 207.688 139.39C209.716 140.153 211.649 138.585 212.67 136.539C212.861 136.157 212.643 135.488 212.18 135.652Z" fill="#263238"/>
<path d="M237.743 143.073C237.743 142.95 237.975 143.305 237.934 143.455C237.022 146.906 236.573 151.012 239.445 152.881C239.54 152.949 239.445 153.112 239.377 153.072C235.661 151.612 236.328 146.17 237.743 143.073Z" fill="#263238"/>
<path d="M241.663 140.113C247.353 140.972 245.216 152.293 239.962 151.502C234.708 150.711 236.913 139.403 241.663 140.113Z" fill="#263238"/>
<path d="M243.882 141.313C244.658 142.077 245.339 143.332 246.4 143.605C247.462 143.878 248.755 142.868 249.762 141.845C249.871 141.736 249.939 141.845 249.926 141.995C249.572 144.178 248.428 146.292 246.278 146.319C244.127 146.347 243.283 144.219 243.174 141.968C243.147 141.545 243.569 141 243.882 141.313Z" fill="#263238"/>
<path d="M211.445 169.822C212.058 170.845 212.575 172.181 213.8 172.55C215.083 172.867 216.418 172.913 217.72 172.686C217.749 172.676 217.78 172.676 217.808 172.687C217.836 172.698 217.859 172.719 217.872 172.746C217.886 172.773 217.889 172.804 217.881 172.833C217.873 172.863 217.854 172.888 217.829 172.904C217.153 173.446 216.344 173.795 215.486 173.915C214.629 174.036 213.755 173.922 212.956 173.586C212.303 173.219 211.775 172.664 211.44 171.993C211.105 171.322 210.979 170.565 211.078 169.822C211.078 169.671 211.377 169.671 211.445 169.822Z" fill="#263238"/>
<path d="M228.651 160.247C228.651 160.247 228.283 165.607 227.766 168.076C227.766 168.308 227.099 168.281 226.255 168.158C226.241 168.168 226.224 168.174 226.207 168.174C226.19 168.174 226.173 168.168 226.16 168.158C223.973 168.099 221.844 167.439 220.005 166.251C218.167 165.063 216.689 163.392 215.733 161.42C215.706 161.363 215.701 161.297 215.719 161.236C215.737 161.175 215.776 161.123 215.83 161.09C215.883 161.056 215.948 161.043 216.01 161.054C216.072 161.064 216.129 161.098 216.169 161.147C218.851 163.955 222.372 165.812 226.2 166.44C226.513 165.798 226.513 157.232 226.908 157.287C228.784 157.849 230.575 158.666 232.23 159.715C233.319 148.557 232.612 137.318 233.864 126.228C233.864 126.138 233.9 126.051 233.964 125.987C234.027 125.923 234.114 125.887 234.204 125.887C234.294 125.887 234.381 125.923 234.445 125.987C234.509 126.051 234.544 126.138 234.544 126.228C236.11 137.959 235.13 150.78 234.299 162.375C234.218 163.78 229.549 160.874 228.651 160.247Z" fill="#263238"/>
<path d="M164.689 136.021C176.667 138.476 180.261 119.503 180.261 119.503C180.261 119.503 194.104 120.867 199.385 99.1106C199.385 99.1106 203.346 113.678 221.259 119.98C225.057 121.344 213.936 108.618 213.936 108.618C213.936 108.618 226.854 125.9 257.018 126.187C259.141 126.187 263.184 94.4183 242.398 79.4685C221.613 64.5188 197.48 66.6194 180.479 78.2955C180.479 78.2955 164.144 84.0517 159.203 99.5607C154.262 115.07 160.034 135.066 164.689 136.021Z" fill="#263238"/>
<path d="M204.571 159.714C201.444 158.838 198.624 157.1 196.433 154.698C194.243 152.296 192.768 149.326 192.178 146.126C191.588 142.926 191.906 139.624 193.095 136.596C194.284 133.568 196.297 130.935 198.906 128.997C201.514 127.058 204.613 125.892 207.85 125.63C211.087 125.369 214.332 126.023 217.216 127.517C220.101 129.012 222.509 131.288 224.167 134.086C225.825 136.884 226.666 140.093 226.595 143.346C226.477 147.942 224.551 152.305 221.236 155.484C217.921 158.662 213.487 160.399 208.9 160.315C207.437 160.302 205.982 160.101 204.571 159.714ZM213.296 128.451C210.293 127.617 207.105 127.744 204.176 128.812C201.248 129.881 198.726 131.839 196.96 134.412C195.195 136.986 194.275 140.048 194.329 143.17C194.383 146.293 195.408 149.321 197.261 151.832C199.114 154.343 201.703 156.212 204.666 157.179C207.629 158.145 210.82 158.161 213.793 157.224C216.766 156.287 219.373 154.443 221.25 151.951C223.128 149.458 224.183 146.441 224.267 143.319C224.337 139.979 223.303 136.711 221.326 134.022C219.349 131.333 216.54 129.374 213.337 128.451H213.296Z" fill="#EBEBEB"/>
<path d="M244.046 165.689C237.662 163.902 233.687 155.718 235.089 146.756C235.667 142.465 237.571 138.463 240.534 135.312C241.732 133.887 243.276 132.796 245.018 132.145C246.76 131.493 248.64 131.303 250.477 131.592C252.313 131.882 254.044 132.641 255.502 133.797C256.961 134.952 258.097 136.466 258.801 138.19C260.681 142.096 261.29 146.495 260.543 150.766C259.059 160.233 252.131 167.039 245.094 165.934C244.739 165.877 244.389 165.795 244.046 165.689ZM251.042 134.071C250.761 133.986 250.475 133.922 250.184 133.88C248.711 133.719 247.221 133.914 245.838 134.448C244.456 134.982 243.22 135.839 242.235 136.949C239.603 139.749 237.905 143.3 237.376 147.111C236.096 155.295 239.731 162.729 245.543 163.643C251.355 164.557 257.058 158.609 258.351 150.412C259.017 146.621 258.488 142.717 256.841 139.24C256.283 138.012 255.472 136.916 254.46 136.025C253.449 135.134 252.261 134.468 250.974 134.071H251.042Z" fill="#EBEBEB"/>
<path d="M225.751 145.269L224.553 143.277C227.493 141.491 233.959 139.499 237.444 144.641L235.524 146.006C232.407 141.34 226.023 145.105 225.751 145.269Z" fill="#EBEBEB"/>
<path d="M148.681 137.616L146.817 136.252C147.456 135.379 153.214 127.714 158.468 127.686C163.369 127.686 193.628 135.393 194.921 135.72L194.335 137.971C185.665 135.748 162.266 129.991 158.482 130.005C155.011 130.073 150.233 135.557 148.681 137.616Z" fill="#EBEBEB"/>
<path d="M168.759 140.44C168.759 140.44 161.15 121.985 153.037 124.358C144.924 126.732 148.164 151.748 155.95 156.808C156.904 157.526 157.994 158.043 159.153 158.328C160.312 158.613 161.516 158.66 162.694 158.466C163.871 158.272 164.997 157.842 166.005 157.201C167.012 156.56 167.879 155.721 168.555 154.735L168.759 140.44Z" fill="#EB9481"/>
<path d="M154.208 131.506C154.181 131.501 154.153 131.506 154.129 131.519C154.105 131.532 154.086 131.553 154.075 131.578C154.064 131.603 154.062 131.631 154.069 131.657C154.075 131.684 154.091 131.707 154.112 131.724C159.557 135.475 161.436 141.695 162.347 147.915C161.068 145.323 158.931 143.578 155.542 145.023C155.507 145.044 155.479 145.075 155.464 145.113C155.448 145.15 155.444 145.191 155.453 145.231C155.462 145.27 155.484 145.306 155.514 145.332C155.545 145.359 155.583 145.375 155.623 145.378C156.746 145.276 157.873 145.525 158.848 146.092C159.823 146.659 160.599 147.515 161.068 148.543C161.852 150.258 162.441 152.056 162.824 153.903C162.987 154.49 164.008 154.422 163.94 153.767C163.94 153.767 163.94 153.671 163.94 153.617C165.669 146.046 162.13 134.084 154.208 131.506Z" fill="#263238"/>
<path d="M193.478 206.678L186.155 230.63L154.97 203.786L147.633 213.866C147.633 213.866 179.662 258.02 179.662 255.892L187.489 235.131L202.462 247.844L198.378 213.089L193.478 206.678Z" fill="#EBEBEB"/>
<path d="M201.359 230.548C200.501 224.833 199.794 219.049 198.637 213.375C198.637 213.184 198.269 213.116 198.242 213.375C197.561 219.022 200.964 240.86 201.4 246.112C200.774 245.552 187.625 234.981 187.516 235.199C185.719 238.541 179.961 253.668 179.594 255.032C174.53 248.021 153.214 220.481 147.361 213.948C147.347 213.926 147.328 213.908 147.307 213.893C147.286 213.879 147.262 213.869 147.236 213.864C147.211 213.859 147.185 213.859 147.16 213.864C147.134 213.869 147.11 213.879 147.089 213.893C147.067 213.908 147.049 213.926 147.035 213.947C147.02 213.969 147.01 213.993 147.005 214.018C147 214.044 147 214.07 147.005 214.095C147.01 214.12 147.02 214.144 147.034 214.166C151.622 221.641 179.24 258.019 179.567 257.897C182.667 250.728 185.393 243.402 187.734 235.949C190.007 238.296 203.401 250.367 203.374 249.508C203.039 243.157 202.367 236.828 201.359 230.548Z" fill="#263238"/>
<path d="M145.387 252.195C133.273 304.492 98.9575 362.995 77.2331 380.196C64.0025 390.658 21.6563 390.753 19.7642 363.295C17.8722 335.837 101.013 249.781 113.25 233.044C125.487 216.308 156.331 205.013 145.387 252.195Z" fill="#EB9481"/>
<path d="M145.387 252.195C133.273 304.492 98.9575 362.995 77.2331 380.196C64.0025 390.658 21.6563 390.753 19.7642 363.295C17.8722 335.837 101.013 249.781 113.25 233.044C125.487 216.308 156.331 205.013 145.387 252.195Z" fill="#E8505B"/>
<path d="M49.6828 369.692C47.7407 370.405 45.9079 371.388 44.2381 372.611C46.3159 372.446 48.3599 371.987 50.309 371.247C52.2829 370.549 54.1446 369.565 55.8354 368.328C53.7292 368.48 51.6564 368.94 49.6828 369.692ZM122.342 237.382C120.4 238.095 118.568 239.077 116.898 240.301C118.976 240.136 121.02 239.676 122.969 238.937C124.943 238.238 126.804 237.255 128.495 236.018C126.391 236.167 124.319 236.617 122.342 237.354V237.382ZM96.1126 311.039C94.1709 311.747 92.3381 312.725 90.6679 313.944C94.8441 313.552 98.8437 312.066 102.265 309.634C100.158 309.795 98.0848 310.264 96.1126 311.025V311.039ZM75.3819 287.66C74.705 285.669 73.747 283.786 72.537 282.067C72.7015 284.154 73.1598 286.206 73.8982 288.164C74.5985 290.141 75.5796 292.006 76.8111 293.702C76.6211 291.631 76.1399 289.596 75.3819 287.66ZM41.543 339.697C40.8374 337.723 39.8567 335.859 38.6301 334.159C39.0241 338.348 40.5072 342.36 42.9314 345.795C42.7583 343.707 42.2909 341.654 41.543 339.697ZM88.8711 362.477C88.986 364.131 89.3155 365.763 89.8512 367.333L90.9265 365.969C90.3712 364.733 89.682 363.562 88.8711 362.477ZM138.5 268.454C137.794 266.484 136.813 264.624 135.587 262.93C135.745 265.013 136.203 267.062 136.948 269.013C137.544 270.674 138.325 272.262 139.276 273.747C139.384 273.392 139.507 273.051 139.616 272.696C139.358 271.253 138.981 269.834 138.486 268.454H138.5ZM61.212 312.212C59.322 311.318 57.3146 310.698 55.2501 310.371C56.8429 311.724 58.6215 312.84 60.5314 313.685C62.4208 314.584 64.4282 315.209 66.4934 315.54C64.8958 314.19 63.1182 313.07 61.212 312.212ZM101.203 276.747C100.3 278.638 99.6768 280.651 99.3522 282.722C100.703 281.122 101.817 279.334 102.66 277.416C103.565 275.53 104.188 273.522 104.511 271.455C103.154 273.076 102.04 274.887 101.203 276.829V276.747ZM72.9181 341.962C72.0194 343.854 71.396 345.866 71.0669 347.936C73.7428 344.694 75.5218 340.804 76.2258 336.656C74.8779 338.258 73.7642 340.045 72.9181 341.962ZM20.7306 360.267C20.3767 361.072 20.0364 361.89 19.7506 362.736C19.7368 362.917 19.7368 363.1 19.7506 363.281C19.7506 363.841 19.8458 364.4 19.9139 364.932C20.7864 363.671 21.5427 362.333 22.1735 360.935C23.0662 359.04 23.6894 357.029 24.0247 354.961C22.6783 356.562 21.5689 358.349 20.7306 360.267Z" fill="white"/>
<path d="M40.6175 384.179C46.322 385.105 52.1355 385.137 57.85 384.274C63.4463 383.363 68.8296 381.436 73.7349 378.586C84.1071 372.612 91.0491 362.491 97.2152 352.533C103.976 341.621 110.328 330.445 116.272 319.006C122.193 307.589 127.624 295.913 132.864 284.168C135.519 278.248 137.928 272.247 140.446 266.272C142.964 260.298 145.346 254.392 147.538 248.349C148.096 246.821 148.613 245.293 149.144 243.766C149.153 243.737 149.173 243.713 149.2 243.699C149.227 243.685 149.258 243.682 149.287 243.691C149.316 243.7 149.34 243.72 149.354 243.747C149.368 243.774 149.371 243.805 149.362 243.834C147.402 250.081 145.537 256.397 143.427 262.589C143.155 263.394 142.855 264.199 142.57 265.004C144.761 260.325 147.007 255.674 149.376 251.077C149.512 250.804 149.893 251.077 149.784 251.322C147.688 256.097 145.51 260.871 143.277 265.522C142.17 267.841 141.059 270.151 139.943 272.451C138.881 275.316 137.778 278.194 136.649 281.045C131.776 293.266 126.358 305.229 120.396 316.932C114.434 328.636 108.009 340.098 101.122 351.319C94.8195 361.645 88.0545 372.257 77.8593 379.146C68.0938 385.719 56.123 388.138 44.5785 385.87C43.1919 385.574 41.8275 385.182 40.4949 384.697C40.4392 384.67 40.3943 384.625 40.3677 384.569C40.3411 384.513 40.3344 384.449 40.3486 384.389C40.3629 384.328 40.3973 384.275 40.4462 384.236C40.4951 384.198 40.5555 384.178 40.6175 384.179Z" fill="#263238"/>
<path d="M60.8718 174.282C69.5153 153.207 83.5354 124.304 92.9548 119.884C102.864 115.287 138.35 100.556 147.701 99.8057C157.053 99.0555 190.211 108.767 196.2 114.66C200.978 119.379 192.688 130.619 173.795 129.01C156.1 127.495 152.016 126.281 146.885 127.059C141.753 127.836 126.576 140.113 127.91 147.615C128.699 152.021 138.976 159.618 146.966 158.241C154.956 156.863 159.761 149.033 169.63 144.464C179.498 139.894 193.655 144.464 193.478 148.556C193.301 152.648 188.033 153.248 177.334 164.57C170.419 171.84 165.437 186.285 150.941 198.138C143.659 204.086 129.244 221.218 129.244 221.218L60.8718 174.282Z" fill="#EB9481"/>
<path d="M92.9548 119.884C102.701 110.759 125.501 95.6592 144.816 93.4495C157.869 91.9354 193.628 122.449 190.415 129.965C187.203 137.48 180.234 135.721 170.202 131.82C166.554 130.456 148.423 118.084 143.999 121.398C137.574 126.159 126.086 145.132 126.086 145.132L92.9548 119.884Z" fill="#EB9481"/>
<path d="M190.211 126.704C187.311 117.02 177.361 109.681 167.22 103.297C167.057 103.188 166.894 103.434 167.057 103.529C169.63 105.166 185.501 118.111 190.047 126.8C190.102 126.895 190.238 126.8 190.211 126.704Z" fill="#263238"/>
<path d="M92.9548 119.885C102.701 110.759 125.501 95.6596 144.816 93.4498C157.869 91.9358 183.65 125.818 180.451 133.348C177.253 140.877 167.044 138.899 156.957 132.175C153.691 129.992 143.849 118.425 139.385 121.726C132.946 126.487 117.211 138.367 117.211 138.367L92.9548 119.885Z" fill="#EB9481"/>
<path d="M126.467 130.933C128.019 129.569 128.563 128.996 130.142 127.591C131.721 126.186 133.314 124.863 134.988 123.499C136.358 122.262 137.934 121.274 139.643 120.58C141.348 120.108 143.16 120.208 144.802 120.867C148.559 122.231 151.404 125.559 154.181 128.287C157.284 131.315 163.967 136.662 169.916 137.535C171.522 137.876 173.182 137.876 174.789 137.535C175.997 137.321 177.134 136.81 178.096 136.048C181.69 132.434 179.812 126.759 177.498 122.408C173.169 114.442 166.336 107.717 159.53 101.948C157.856 100.515 156.141 99.124 154.439 97.7327C152.571 96.0011 150.351 94.6937 147.933 93.8998C143.917 92.8359 136.281 95.2638 133.926 95.9458C133.749 95.9458 133.695 95.714 133.926 95.6594C136.785 94.7455 144.203 91.3081 150.601 93.3133C152.942 94.0498 154.848 95.8367 156.767 97.3235C158.686 98.8103 160.741 100.515 162.661 102.193C166.425 105.417 169.929 108.934 173.142 112.71C176.15 116.297 179.294 120.389 180.792 124.891C182.153 128.792 181.527 133.702 178.518 136.662C175.987 139.158 172.026 138.899 170.229 138.681C168.474 138.458 166.757 137.999 165.124 137.317C161.555 135.528 158.12 133.481 154.848 131.192C151.69 128.887 149.131 125.736 145.796 123.663C145.018 123.147 144.146 122.792 143.23 122.618C142.313 122.445 141.372 122.457 140.46 122.654C138.724 123.263 137.09 124.132 135.614 125.232C132.582 126.988 129.72 129.025 127.066 131.315C126.29 131.915 125.814 131.533 126.467 130.933Z" fill="#263238"/>
<path d="M85.3867 128.068C89.2661 123.54 98.9985 103.243 104.852 97.7461C110.705 92.249 135.315 74.4212 143.849 77.6676C154.575 81.7596 137.942 98.7282 130.047 105.439C122.152 112.15 119.552 126.377 119.552 126.377L85.3867 128.068Z" fill="#EB9481"/>
<path d="M141.603 93.9681C138.881 96.0414 136.322 98.4557 133.817 100.788C131.313 102.887 128.965 105.166 126.794 107.608C124.835 110.191 123.317 113.081 122.302 116.161C121.757 117.661 121.322 119.189 120.94 120.73C120.559 122.272 120.205 124.154 119.729 125.818C119.729 125.995 119.947 126.105 120.001 125.914C120.997 122.886 122.183 119.924 123.554 117.047C124.915 114.046 126.634 111.22 128.672 108.631C132.756 103.503 137.846 99.3151 141.957 94.2136C142.107 94.0499 141.807 93.818 141.603 93.9681Z" fill="#263238"/>
<path d="M142.951 158.214C146.612 158.427 150.212 157.209 152.996 154.817C155.61 152.853 158.101 150.725 160.728 148.774C163.265 146.728 166.085 145.06 169.099 143.823C172.581 142.72 176.201 142.114 179.852 142.023C183.373 141.646 186.931 142.167 190.197 143.537C192.838 144.792 195.642 147.533 194.185 150.752C193.45 152.196 192.442 153.484 191.218 154.544C190.071 155.637 188.842 156.64 187.543 157.545C184.943 159.414 182.18 161.092 179.757 163.22C176.531 166.057 174.312 169.917 171.944 173.477C171.059 174.841 165.41 183.762 163.26 186.804C161.455 189.395 159.429 191.823 157.202 194.06C154.999 196.089 152.676 197.984 150.247 199.735C147.595 201.627 145.162 203.809 142.992 206.241C142.896 206.364 142.733 206.241 142.801 206.077C145.523 201.058 150.505 197.689 155.052 194.36C160.864 190.05 173.768 167.789 176.109 164.761C180.002 159.728 185.91 157.313 190.347 152.935C191.368 151.925 192.933 150.493 192.906 148.911C192.78 148.159 192.463 147.452 191.987 146.857C191.51 146.262 190.889 145.8 190.184 145.514C187.135 143.891 183.378 144 180.056 144.328C176.564 144.504 173.103 145.076 169.739 146.033C166.804 147.089 164.029 148.544 161.49 150.357C158.577 152.376 155.787 154.449 152.724 156.277C149.817 158.192 146.313 158.977 142.869 158.486C142.706 158.445 142.787 158.2 142.951 158.214Z" fill="#263238"/>
<path d="M190.674 111.96C188.346 110.814 186.032 109.573 183.664 108.495C183.664 108.495 183.664 108.359 183.664 108.386C186.468 109.504 189.353 110.432 192.171 111.523C194.403 112.383 196.704 113.637 197.616 115.984C197.973 117.082 198.036 118.255 197.797 119.386C197.558 120.516 197.026 121.563 196.254 122.422C194.524 124.237 192.427 125.66 190.102 126.596C189.979 126.664 189.884 126.473 190.007 126.405C193.396 124.441 198.65 120.485 195.887 115.97C194.557 114.171 192.751 112.782 190.674 111.96Z" fill="#263238"/>
<path d="M179.335 134.589C181.989 134.671 184.93 134.589 187.284 133.225C188.075 132.789 188.75 132.171 189.254 131.421C189.758 130.671 190.077 129.812 190.184 128.914C190.326 128.263 190.234 127.582 189.925 126.991C189.816 126.855 190.075 126.732 190.116 126.896C190.234 127.25 190.375 127.596 190.538 127.932C190.638 128.234 190.706 128.544 190.742 128.86C190.808 129.487 190.758 130.121 190.592 130.729C190.201 132.053 189.37 133.203 188.237 133.989C185.583 135.898 182.289 135.721 179.294 134.834C179.172 134.78 179.199 134.589 179.335 134.589Z" fill="#263238"/>
<path d="M129.216 221.245C123.418 242.21 79.3429 354.02 67.0923 369.802C54.8417 385.583 25.0455 388.98 16.7287 360.458C8.41191 331.936 51.711 195.615 60.8581 174.282C65.9625 162.415 131.299 213.648 129.216 221.245Z" fill="#EB9481"/>
<path d="M138.854 235.377L52.3644 185.112C52.3644 185.112 15.3676 312.281 14.7142 351.496C14.2378 379.636 47.8997 400.67 74.4972 362.627C101.095 324.584 138.854 235.377 138.854 235.377Z" fill="#E8505B"/>
<path d="M55.005 186.722C53.7151 188.286 52.6394 190.015 51.8063 191.865C50.9138 193.758 50.295 195.77 49.9687 197.839C51.3187 196.243 52.4327 194.46 53.2763 192.547C54.1484 190.698 54.7621 188.738 55.1003 186.722H55.005ZM27.1281 307.984C26.2356 309.878 25.6169 311.89 25.2905 313.959C26.6406 312.363 27.7545 310.58 28.5982 308.666C29.4977 306.764 30.1211 304.743 30.4494 302.665C29.103 304.276 27.9853 306.066 27.1281 307.984ZM20.7306 360.267C19.8318 362.16 19.2084 364.172 18.8794 366.242C20.2257 364.641 21.3351 362.854 22.1734 360.936C23.0662 359.041 23.6893 357.03 24.0246 354.961C22.6783 356.563 21.5689 358.35 20.7306 360.267ZM72.9181 341.962C72.0194 343.855 71.396 345.867 71.0669 347.937C73.7428 344.694 75.5218 340.804 76.2258 336.656C74.8779 338.259 73.7642 340.045 72.9181 341.962ZM101.993 214.003C101.993 214.125 101.993 214.262 101.993 214.385L102.224 214.098L101.993 214.003ZM101.203 276.871C100.3 278.762 99.6768 280.774 99.3522 282.845C100.703 281.245 101.817 279.458 102.66 277.539C103.565 275.654 104.188 273.645 104.511 271.578C103.164 273.162 102.051 274.93 101.203 276.83V276.871ZM61.3209 262.63C60.4198 264.508 59.7962 266.506 59.4697 268.564C62.1316 265.313 63.9088 261.427 64.6286 257.283C63.2806 258.886 62.1669 260.673 61.3209 262.589V262.63ZM90.9401 247.558C89.0508 246.659 87.0433 246.034 84.9782 245.703C86.5668 247.065 88.3462 248.186 90.2595 249.031C92.1517 249.911 94.1591 250.517 96.2215 250.831C94.6269 249.481 92.8486 248.365 90.9401 247.517V247.558ZM61.212 312.213C59.322 311.318 57.3145 310.698 55.2501 310.371C56.8429 311.724 58.6215 312.84 60.5314 313.686C62.4208 314.585 64.4282 315.209 66.4934 315.541C64.8958 314.191 63.1182 313.071 61.212 312.213ZM48.2808 232.308C46.3927 231.406 44.3848 230.781 42.3189 230.453C45.5546 233.134 49.4364 234.917 53.5758 235.623C51.9731 234.291 50.1905 233.193 48.2808 232.363V232.308ZM41.4749 339.643C40.7693 337.669 39.7886 335.805 38.562 334.105C38.9561 338.294 40.4392 342.306 42.8633 345.741C42.7071 343.674 42.2626 341.64 41.543 339.698L41.4749 339.643ZM75.3819 287.66C74.705 285.669 73.747 283.786 72.537 282.068C72.7015 284.154 73.1598 286.207 73.8982 288.165C74.5985 290.142 75.5796 292.007 76.8111 293.703C76.6211 291.631 76.1399 289.597 75.3819 287.66ZM96.1126 311.081C94.1709 311.789 92.3381 312.767 90.6679 313.986C94.8441 313.594 98.8437 312.107 102.265 309.676C100.16 309.823 98.0869 310.278 96.1126 311.026V311.081ZM38.3442 280.663C36.3997 281.371 34.5662 282.354 32.8995 283.582C34.9807 283.41 37.0283 282.951 38.984 282.218C40.9286 281.51 42.762 280.527 44.4287 279.299C42.3455 279.457 40.2962 279.917 38.3442 280.663ZM72.1967 217.058C70.2265 217.765 68.366 218.748 66.6703 219.977C68.7525 219.812 70.801 219.353 72.7548 218.613C74.7273 217.911 76.5886 216.928 78.2812 215.694C76.1988 215.858 74.1501 216.317 72.1967 217.058ZM122.342 237.355C120.4 238.068 118.568 239.051 116.898 240.274C118.976 240.109 121.02 239.65 122.969 238.91C124.943 238.211 126.804 237.228 128.495 235.991C126.39 236.149 124.318 236.609 122.342 237.355ZM49.6828 369.666C47.7407 370.379 45.9079 371.361 44.2381 372.585C46.3159 372.42 48.3599 371.961 50.309 371.221C52.2829 370.522 54.1446 369.539 55.8354 368.302C53.7278 368.462 51.655 368.931 49.6828 369.693V369.666Z" fill="white"/>
<path d="M126.984 250.831C113.89 243.779 61.321 213.007 50.418 205.587C49.6557 205.068 49.8054 204.455 50.663 204.891C90.4638 225.024 114.734 242.647 127.284 250.272C127.597 250.463 127.365 250.982 126.984 250.831Z" fill="#263238"/>
<path d="M99.3114 318.242C108.445 301.055 117.224 283.691 125.174 265.891C127.379 260.907 129.539 255.906 131.653 250.886C133.681 246.058 135.736 241.215 137.56 236.305C135.75 235.036 127.801 229.826 126.943 229.021C126.685 228.789 126.943 228.339 127.297 228.448C128.359 228.843 137.588 234.204 139.548 235.664C139.834 235.868 135.9 245.444 134.103 250.027C132.306 254.61 130.482 259.166 128.577 263.667C124.802 272.642 120.809 281.513 116.598 290.279C112.066 299.746 107.329 309.076 102.306 318.256C97.923 326.167 87.51 340.38 99.3114 318.242Z" fill="#263238"/>
<path d="M448.726 460.06C448.726 460.06 465.686 462.365 466.312 450.648C466.938 438.931 449.828 439.395 449.828 439.395L448.726 460.06Z" fill="#DD6A57"/>
<path d="M330.357 432.994L329.248 453.656L449.443 460.137L450.552 439.475L330.357 432.994Z" fill="#E8505B"/>
<path d="M446.515 437.534L445.22 461.656L449.991 461.914L451.286 437.792L446.515 437.534Z" fill="#37474F"/>
<path d="M441.223 437.239L439.928 461.361L444.713 461.619L446.008 437.497L441.223 437.239Z" fill="#37474F"/>
<path d="M330.317 432.956L315.072 439.926L310.035 442.204L314.8 445.069L329.214 453.635L332.318 451.711L329.432 449.502L332.536 447.565L329.65 445.369L332.753 443.473C332.753 443.473 329.922 441.277 329.881 441.222L332.985 439.34L330.099 437.089L333.203 435.207L330.317 432.956Z" fill="#EBEBEB"/>
<path d="M315.072 439.926L310.035 442.204L314.8 445.068L315.072 439.926Z" fill="#37474F"/>
<path d="M230.189 421.962L247.816 467.575H86.9111L106.145 422.016L230.189 421.962Z" fill="#E8505B"/>
<path d="M231.468 425.277L247.816 467.576V475.31H86.9111V467.576L104.756 425.318L231.468 425.277Z" fill="#E8505B"/>
<path opacity="0.1" d="M230.189 421.962L247.816 467.575H86.9111L106.145 422.016L230.189 421.962Z" fill="black"/>
<path d="M149.28 455.299L148.273 464.07H128.727L130.605 455.299H149.28Z" fill="white"/>
<path d="M150.437 445.369L149.416 454.14H130.864L132.756 445.369H150.437Z" fill="white"/>
<path d="M151.581 435.439L150.573 444.21H133L134.893 435.439H151.581Z" fill="#E8505B"/>
<path d="M152.738 425.509L151.717 434.266L135.151 434.28L137.043 425.509H152.738Z" fill="#E8505B"/>
<path d="M170.705 455.299L170.692 464.07H151.145L152.03 455.299H170.705Z" fill="#37474F"/>
<path d="M170.705 445.369V454.14H152.152L153.037 445.369H170.705Z" fill="#37474F"/>
<path d="M170.719 435.439V444.196H153.146L154.031 435.439H170.719Z" fill="#37474F"/>
<path d="M170.841 425.495V434.266H154.276L155.147 425.509L170.841 425.495Z" fill="white"/>
<path d="M192.117 455.299L193.11 464.07H173.564L173.441 455.299H192.117Z" fill="#37474F"/>
<path d="M190.987 445.369L191.981 454.126L173.428 454.14L173.305 445.369H190.987Z" fill="#37474F"/>
<path d="M189.857 435.425L190.851 444.196H173.291L173.169 435.438L189.857 435.425Z" fill="#37474F"/>
<path d="M188.727 425.495L189.721 434.266H173.155L173.033 425.495H188.727Z" fill="white"/>
<path d="M213.542 455.299L215.543 464.07H195.982L194.866 455.299H213.542Z" fill="#37474F"/>
<path d="M211.268 445.355L213.269 454.126H194.716L193.587 445.369L211.268 445.355Z" fill="#37474F"/>
<path d="M208.995 435.425L210.996 444.196H193.437L192.307 435.425H208.995Z" fill="#37474F"/>
<path d="M206.736 425.481L208.737 434.252L192.157 434.266L191.041 425.495L206.736 425.481Z" fill="white"/>
<path d="M234.953 455.299L237.961 464.056L218.415 464.07L216.278 455.299H234.953Z" fill="#37474F"/>
<path d="M231.55 445.355L234.558 454.126H215.992L213.868 445.355H231.55Z" fill="#37474F"/>
<path d="M228.133 435.412L231.142 444.182L213.582 444.196L211.445 435.425L228.133 435.412Z" fill="white"/>
<path d="M224.73 425.481L227.739 434.252H211.173L209.036 425.481H224.73Z" fill="white"/>
<path d="M137.139 460.987C136.363 460.987 135.777 460.741 135.777 460.386C135.777 460.032 136.54 459.786 137.302 459.786C138.078 459.786 138.663 460.018 138.663 460.386C138.663 460.755 137.874 460.987 137.139 460.987ZM137.288 460.114C136.839 460.114 136.458 460.223 136.417 460.386C136.376 460.55 136.744 460.659 137.179 460.659C137.629 460.659 138.01 460.55 138.037 460.386C138.064 460.223 137.724 460.114 137.288 460.114ZM140.936 460.564L136.24 458.9C136.145 458.9 136.104 458.818 136.118 458.763C136.131 458.709 136.281 458.627 136.444 458.627H136.648L141.358 460.305C141.44 460.305 141.481 460.386 141.481 460.427C141.481 460.468 141.317 460.577 141.14 460.577C141.072 460.589 141.002 460.584 140.936 460.564ZM140.256 459.445C139.48 459.445 138.894 459.2 138.894 458.845C138.894 458.49 139.643 458.245 140.392 458.245C141.154 458.245 141.753 458.49 141.753 458.845C141.753 459.2 141.018 459.445 140.256 459.445ZM140.392 458.559C139.943 458.559 139.561 458.681 139.534 458.845C139.507 459.009 139.861 459.118 140.283 459.118C140.732 459.118 141.113 459.009 141.14 458.845C141.168 458.681 140.814 458.559 140.392 458.559Z" fill="#37474F"/>
<path d="M141.658 442.04C140.229 442.04 139.18 441.44 139.317 440.676C139.369 440.494 139.459 440.324 139.581 440.179C139.703 440.033 139.854 439.914 140.024 439.831C140.207 439.755 140.413 439.755 140.596 439.831C140.759 439.899 140.773 440.035 140.596 440.117C140.476 440.173 140.371 440.254 140.286 440.356C140.201 440.457 140.14 440.576 140.106 440.704C140.091 440.841 140.121 440.98 140.192 441.098C140.264 441.217 140.372 441.308 140.501 441.358C140.876 441.547 141.292 441.641 141.712 441.631C142.158 441.635 142.599 441.542 143.005 441.358C143.153 441.306 143.287 441.219 143.396 441.105C143.505 440.992 143.585 440.854 143.631 440.704C143.642 440.587 143.62 440.471 143.567 440.367C143.514 440.263 143.432 440.176 143.332 440.117C143.223 440.035 143.264 439.899 143.455 439.831C143.543 439.793 143.638 439.773 143.734 439.773C143.83 439.773 143.924 439.793 144.013 439.831C144.156 439.918 144.272 440.043 144.349 440.192C144.426 440.341 144.46 440.509 144.448 440.676C144.353 441.44 143.101 442.04 141.658 442.04Z" fill="#37474F"/>
<path d="M144.326 439.068H140.133C139.915 439.068 139.766 438.972 139.779 438.863L139.997 437.69C139.997 437.581 140.201 437.485 140.419 437.485C140.637 437.485 140.8 437.581 140.786 437.69L140.609 438.672H141.971L142.107 437.826C142.107 437.717 142.325 437.622 142.529 437.622C142.733 437.622 142.91 437.717 142.896 437.826L142.76 438.672H144.121L144.285 437.69C144.285 437.581 144.489 437.485 144.707 437.485C144.924 437.485 145.074 437.581 145.061 437.69L144.884 438.863C144.679 439.068 144.53 439.068 144.326 439.068Z" fill="#37474F"/>
<path d="M143.522 431.033C142.161 431.033 141.208 430.419 141.331 429.669C141.38 429.489 141.466 429.321 141.584 429.176C141.701 429.03 141.846 428.91 142.012 428.824C142.095 428.787 142.186 428.768 142.277 428.768C142.368 428.768 142.459 428.787 142.542 428.824C142.706 428.905 142.706 429.042 142.542 429.124C142.424 429.179 142.319 429.26 142.236 429.362C142.154 429.463 142.095 429.582 142.066 429.71C142.058 429.843 142.089 429.975 142.154 430.092C142.219 430.208 142.316 430.302 142.433 430.365C142.781 430.548 143.171 430.637 143.563 430.624C143.982 430.632 144.396 430.543 144.775 430.365C144.916 430.306 145.043 430.217 145.147 430.104C145.25 429.991 145.328 429.857 145.374 429.71C145.386 429.595 145.366 429.479 145.315 429.376C145.264 429.272 145.186 429.185 145.088 429.124C144.993 429.042 145.088 428.905 145.21 428.824C145.293 428.782 145.383 428.76 145.476 428.76C145.568 428.76 145.659 428.782 145.741 428.824C145.878 428.915 145.987 429.042 146.056 429.191C146.126 429.34 146.154 429.506 146.136 429.669C146.041 430.419 144.87 431.033 143.522 431.033Z" fill="#37474F"/>
<path d="M158.999 458.886L163.641 459.8C163.804 459.8 163.9 459.896 163.9 459.977C163.905 460.004 163.905 460.032 163.9 460.059C163.726 460.171 163.516 460.21 163.314 460.168L159.231 459.377V460.318C159.231 460.428 159.013 460.523 158.768 460.523C158.523 460.523 158.332 460.428 158.346 460.318L158.428 459.064L158.509 458.982H159.04L158.999 458.886Z" fill="white"/>
<path d="M162.511 448.957C163.505 448.957 164.294 449.352 164.267 449.83C164.24 450.307 163.423 450.703 162.429 450.703C161.906 450.73 161.387 450.591 160.946 450.307C160.706 450.393 160.452 450.434 160.197 450.43C159.516 450.43 158.972 450.157 158.986 449.83C158.999 449.502 159.585 449.229 160.265 449.229C160.516 449.224 160.765 449.266 161 449.352C161.454 449.075 161.98 448.938 162.511 448.957ZM162.511 449.352C161.98 449.352 161.517 449.57 161.504 449.83C161.49 450.089 161.926 450.293 162.47 450.307C163.015 450.321 163.45 450.089 163.464 449.83C163.478 449.57 163.028 449.352 162.497 449.352H162.511ZM160.224 450.034C160.469 450.034 160.66 449.939 160.673 449.83C160.687 449.72 160.483 449.625 160.252 449.625C160.02 449.625 159.83 449.72 159.83 449.83C159.83 449.939 159.993 449.98 160.211 449.98L160.224 450.034Z" fill="white"/>
<path d="M161.327 440.745C160.36 440.745 159.612 440.35 159.639 439.859C159.666 439.367 160.374 439.027 161.245 438.986H161.667C162.151 438.986 162.633 439.027 163.11 439.108C163.54 439.176 163.949 439.339 164.308 439.586C164.396 439.649 164.469 439.731 164.523 439.825C164.577 439.919 164.61 440.023 164.621 440.131C164.621 440.24 164.457 440.336 164.226 440.336C163.995 440.336 163.845 440.254 163.831 440.145C163.826 440.078 163.807 440.012 163.774 439.953C163.741 439.894 163.695 439.844 163.641 439.804C163.493 439.697 163.327 439.619 163.151 439.572H162.974C163.054 439.667 163.098 439.788 163.096 439.913C163.069 440.35 162.28 440.745 161.327 440.745ZM161.327 440.35C161.844 440.35 162.28 440.131 162.293 439.859C162.307 439.586 161.898 439.381 161.381 439.381C160.864 439.381 160.442 439.599 160.428 439.859C160.415 440.118 160.823 440.35 161.34 440.35H161.327Z" fill="white"/>
<path d="M162.742 430.665C162.525 430.665 162.348 430.569 162.348 430.46V429.314C162.348 429.205 162.552 429.096 162.77 429.096C162.987 429.096 163.151 429.205 163.151 429.314V430.46C163.151 430.569 162.96 430.665 162.742 430.665Z" fill="#37474F"/>
<path d="M184.154 458.709C184.399 458.709 184.603 458.791 184.603 458.914H185.202C185.447 458.914 185.637 459.009 185.651 459.118C185.665 459.228 185.474 459.323 185.229 459.323H184.63L184.712 460.455C184.712 460.455 184.712 460.537 184.617 460.578C184.52 460.62 184.416 460.641 184.31 460.641C184.205 460.641 184.101 460.62 184.004 460.578L180.261 459.214H180.166H183.718C183.718 458.791 183.909 458.709 184.154 458.709ZM181.799 459.35L183.813 460.073V459.35H181.799Z" fill="white"/>
<path d="M181.704 449.269C182.129 449.07 182.596 448.977 183.065 448.996C183.533 448.99 183.997 449.083 184.426 449.269C184.807 449.447 184.998 449.679 185.011 449.91C185.011 450.142 184.861 450.374 184.508 450.552C184.411 450.592 184.307 450.613 184.201 450.613C184.096 450.613 183.992 450.592 183.895 450.552C183.718 450.47 183.718 450.333 183.895 450.251C184.072 450.17 184.195 450.033 184.181 449.91C184.16 449.829 184.12 449.753 184.063 449.691C184.006 449.629 183.934 449.583 183.854 449.556C183.626 449.461 183.38 449.415 183.133 449.419C182.885 449.41 182.639 449.457 182.411 449.556C182.337 449.582 182.271 449.63 182.223 449.692C182.174 449.755 182.145 449.831 182.139 449.91C182.139 450.033 182.248 450.156 182.452 450.251C182.656 450.347 182.643 450.47 182.452 450.552H182.357H182.098L180.125 450.442C180.018 450.438 179.915 450.405 179.825 450.347C179.816 450.316 179.816 450.283 179.825 450.251V449.174C179.825 449.051 180.002 448.956 180.247 448.956C180.492 448.956 180.669 449.051 180.669 449.174V450.06H181.418C181.366 449.989 181.338 449.903 181.336 449.815C181.173 449.679 181.336 449.447 181.704 449.269Z" fill="white"/>
<path d="M182.371 438.972C183.323 438.972 184.127 439.367 184.154 439.858C184.181 440.349 183.541 440.69 182.67 440.745H182.248C181.755 440.747 181.263 440.701 180.778 440.609C180.331 440.551 179.903 440.393 179.526 440.145C179.337 440.018 179.205 439.822 179.158 439.599C179.158 439.476 179.308 439.395 179.526 439.381C179.744 439.367 179.92 439.463 179.948 439.572C179.957 439.643 179.981 439.712 180.018 439.773C180.056 439.834 180.106 439.886 180.165 439.927C180.326 440.025 180.5 440.099 180.683 440.145H180.873C180.779 440.049 180.721 439.924 180.71 439.79C180.683 439.367 181.431 438.972 182.371 438.972ZM182.371 439.381C181.867 439.381 181.445 439.599 181.459 439.858C181.472 440.117 181.921 440.336 182.439 440.336C182.956 440.336 183.364 440.131 183.337 439.858C183.31 439.585 182.915 439.381 182.398 439.381H182.371Z" fill="white"/>
<path d="M181.431 430.583C181.431 430.692 181.282 430.774 181.091 430.774C180.901 430.774 180.737 430.692 180.724 430.583L180.642 429.11C180.642 429.014 180.792 428.919 180.982 428.919C181.173 428.919 181.322 429.001 181.336 429.11L181.431 430.583ZM179.607 429.601C179.852 429.601 180.07 429.71 180.07 429.846C180.07 429.983 179.88 430.106 179.635 430.106C179.39 430.106 179.185 429.997 179.172 429.846C179.158 429.696 179.349 429.601 179.594 429.601H179.607ZM182.33 429.601C182.575 429.601 182.779 429.71 182.779 429.846C182.779 429.983 182.602 430.106 182.357 430.106C182.098 430.106 181.894 429.983 181.881 429.846C181.867 429.71 182.139 429.601 182.384 429.601H182.33Z" fill="#37474F"/>
<path d="M202.421 459.296H207.103C207.348 459.296 207.552 459.391 207.58 459.5C207.607 459.609 207.43 459.705 207.185 459.705H203.21L203.414 459.841C203.414 459.841 203.496 459.923 203.496 459.95C203.496 459.978 203.496 460.087 203.305 460.114C203.209 460.156 203.104 460.177 202.999 460.177C202.894 460.177 202.79 460.156 202.693 460.114L202.04 459.664H202.38L202.421 459.296Z" fill="white"/>
<path d="M205.129 448.929C205.374 448.929 205.565 449.025 205.592 449.134L205.837 450.43C205.841 450.464 205.832 450.498 205.812 450.526C205.792 450.554 205.762 450.573 205.728 450.58C205.536 450.654 205.322 450.654 205.129 450.58L202.911 449.488C202.674 449.386 202.419 449.335 202.162 449.338C201.947 449.333 201.733 449.375 201.536 449.461C201.332 449.557 201.25 449.679 201.277 449.816C201.304 449.952 201.4 450.034 201.577 450.129L201.808 450.239C201.985 450.32 201.985 450.443 201.808 450.525C201.62 450.6 201.411 450.6 201.223 450.525L200.991 450.416C200.857 450.37 200.735 450.292 200.636 450.191C200.537 450.089 200.463 449.965 200.42 449.829C200.42 449.584 200.542 449.352 200.91 449.175C201.279 449.015 201.678 448.936 202.08 448.943C202.55 448.943 203.015 449.046 203.441 449.243L204.803 449.925L204.653 449.147C204.735 449.025 204.898 448.929 205.129 448.929Z" fill="white"/>
<path d="M200.678 439.299C201.044 439.128 201.446 439.049 201.849 439.067C202.294 439.06 202.734 439.149 203.142 439.326C203.523 439.503 203.741 439.735 203.782 439.967C203.823 440.199 203.7 440.431 203.387 440.608C203.297 440.649 203.2 440.67 203.101 440.67C203.003 440.67 202.905 440.649 202.816 440.608C202.639 440.526 202.625 440.404 202.816 440.322C202.883 440.292 202.94 440.242 202.979 440.178C203.018 440.115 203.037 440.041 203.033 439.967C203.003 439.888 202.956 439.816 202.895 439.757C202.834 439.698 202.76 439.653 202.679 439.626C202.459 439.519 202.216 439.467 201.972 439.476C201.748 439.464 201.526 439.516 201.332 439.626C201.155 439.722 201.087 439.844 201.1 439.967C201.114 440.09 201.1 440.076 201.005 440.117C200.822 440.193 200.617 440.193 200.433 440.117L199.63 439.749L199.726 440.335C199.726 440.445 199.59 440.54 199.358 440.54C199.127 440.54 198.936 440.445 198.923 440.335L198.746 439.258C198.746 439.135 198.895 439.053 199.113 439.053H199.304H199.413L200.42 439.517C200.492 439.429 200.58 439.356 200.678 439.299Z" fill="white"/>
<path d="M199.018 429.26L200.188 429.696L201.209 429.26C201.287 429.226 201.37 429.208 201.454 429.208C201.539 429.208 201.622 429.226 201.699 429.26C201.699 429.26 201.795 429.342 201.795 429.382C201.795 429.423 201.795 429.492 201.686 429.546L200.828 429.914L201.822 430.269C201.917 430.269 201.985 430.365 201.999 430.419C202.012 430.474 201.999 430.501 201.999 430.542C201.924 430.577 201.843 430.595 201.761 430.595C201.678 430.595 201.597 430.577 201.522 430.542L200.325 430.105L199.304 430.542C199.226 430.576 199.143 430.593 199.059 430.593C198.974 430.593 198.891 430.576 198.814 430.542C198.691 430.446 198.705 430.337 198.814 430.269L199.658 429.914L198.691 429.546C198.528 429.478 198.473 429.355 198.569 429.26C198.64 429.229 198.716 429.214 198.793 429.214C198.87 429.214 198.947 429.229 199.018 429.26Z" fill="#37474F"/>
<path d="M228.351 459.527C228.351 459.377 228.542 459.254 228.868 459.254C229.195 459.254 229.494 459.377 229.549 459.527C229.603 459.677 229.358 459.8 229.032 459.8C228.705 459.8 228.406 459.677 228.351 459.527Z" fill="white"/>
<path d="M224.159 450.798C223.52 450.809 222.882 450.726 222.267 450.553C221.749 450.403 221.328 450.157 221.246 449.871C221.164 449.584 221.45 449.353 221.886 449.203C222.444 449.022 223.028 448.939 223.614 448.957C224.245 448.947 224.873 449.03 225.479 449.203C226.01 449.353 226.446 449.598 226.527 449.871C226.609 450.144 226.323 450.403 225.887 450.553C225.329 450.732 224.745 450.815 224.159 450.798ZM223.737 449.366C223.277 449.35 222.818 449.405 222.376 449.53C222.09 449.639 221.967 449.762 222.008 449.871C222.049 449.98 222.226 450.116 222.566 450.226C223.011 450.34 223.468 450.4 223.927 450.403C224.365 450.408 224.8 450.348 225.22 450.226C225.506 450.116 225.615 449.994 225.574 449.871C225.534 449.748 225.37 449.639 225.003 449.53C224.589 449.426 224.164 449.371 223.737 449.366Z" fill="white"/>
<path d="M220.633 440.581C220.415 440.581 220.198 440.485 220.157 440.363L219.844 439.244C219.844 439.121 219.966 439.026 220.184 439.026C220.402 439.026 220.62 439.121 220.66 439.244L220.987 440.363C221.028 440.431 220.905 440.581 220.633 440.581ZM221.994 440.581C221.749 440.581 221.532 440.485 221.504 440.363L221.164 439.244C221.164 439.121 221.3 439.026 221.532 439.026C221.763 439.026 221.981 439.121 222.008 439.244L222.348 440.363C222.362 440.431 222.267 440.581 221.967 440.581H221.994Z" fill="#37474F"/>
<path d="M218.442 430.051L218.605 430.569C218.605 430.678 218.496 430.76 218.292 430.76C218.088 430.76 217.884 430.678 217.856 430.569L217.707 430.051H216.822C216.618 430.051 216.413 429.955 216.386 429.846C216.359 429.737 216.495 429.628 216.713 429.628H217.639L217.489 429.11C217.489 429.001 217.598 428.905 217.802 428.905C218.006 428.905 218.197 429.001 218.224 429.11L218.374 429.628H219.313C219.399 429.619 219.486 429.634 219.565 429.669C219.644 429.705 219.712 429.762 219.762 429.833C219.762 429.955 219.653 430.051 219.435 430.051H218.442Z" fill="#37474F"/>
<path d="M138.527 448.506C138.704 448.506 138.84 448.574 138.826 448.656L138.745 449.12C139.806 449.311 142.583 449.788 143.386 449.897C143.472 449.91 143.555 449.938 143.631 449.979C143.653 449.988 143.671 450.003 143.683 450.023C143.695 450.042 143.701 450.065 143.699 450.088C143.699 450.088 143.699 450.184 143.55 450.225C143.4 450.266 142.488 450.716 142.107 450.866C141.726 451.016 141.358 450.989 141.317 450.961C141.276 450.934 141.317 450.961 141.317 450.88C141.317 450.798 141.317 450.784 141.44 450.743L141.807 450.579L142.107 450.443L142.393 450.32L142.692 450.184L138.309 449.42H138.2C138.2 449.42 138.105 449.338 138.119 449.297L138.227 448.697C138.2 448.615 138.364 448.506 138.527 448.506Z" fill="#37474F"/>
<path d="M127.91 425.509L117.347 464.07H96.7661L111.385 425.522L127.91 425.509Z" fill="#455A64"/>
<path d="M110.283 442.927H117.456C117.837 442.927 118.082 443.077 118.028 443.268C117.973 443.459 117.633 443.596 117.252 443.596H111.276L111.467 443.841C111.482 443.868 111.49 443.899 111.49 443.93C111.49 443.961 111.482 443.992 111.467 444.019C111.418 444.094 111.354 444.158 111.279 444.207C111.204 444.256 111.119 444.29 111.031 444.305C110.885 444.357 110.728 444.374 110.574 444.352C110.42 444.331 110.273 444.272 110.146 444.182L109.52 443.446H109.956L110.283 442.927Z" fill="white"/>
<path d="M118.518 439.395C118.885 439.395 119.117 439.545 119.062 439.736L118.409 441.891C118.347 442.005 118.245 442.092 118.123 442.136C117.974 442.198 117.814 442.23 117.653 442.23C117.492 442.23 117.333 442.198 117.184 442.136L114.543 440.322C114.221 440.138 113.852 440.052 113.481 440.077C113.106 440.077 112.733 440.141 112.379 440.268C112.228 440.313 112.087 440.389 111.966 440.489C111.844 440.59 111.744 440.714 111.671 440.854C111.637 440.954 111.64 441.063 111.68 441.161C111.72 441.259 111.794 441.339 111.889 441.386L112.161 441.577C112.365 441.713 112.27 441.918 111.957 442.054C111.809 442.12 111.649 442.154 111.487 442.154C111.325 442.154 111.165 442.12 111.018 442.054L110.745 441.863C110.572 441.775 110.437 441.627 110.364 441.447C110.291 441.266 110.287 441.065 110.351 440.881C110.49 440.617 110.684 440.384 110.918 440.199C111.152 440.013 111.423 439.879 111.712 439.804C112.362 439.546 113.055 439.417 113.753 439.422C114.434 439.392 115.11 439.558 115.7 439.899L117.388 441.059L117.783 439.763C117.81 439.545 118.15 439.395 118.518 439.395Z" fill="white"/>
<path d="M115.169 436.244C115.857 435.95 116.599 435.802 117.347 435.808C118.01 435.779 118.668 435.93 119.253 436.244C119.454 436.331 119.619 436.488 119.716 436.685C119.813 436.883 119.837 437.108 119.784 437.322C119.669 437.57 119.504 437.793 119.301 437.976C119.097 438.159 118.858 438.298 118.599 438.386C118.452 438.453 118.292 438.488 118.13 438.488C117.968 438.488 117.808 438.453 117.66 438.386C117.442 438.249 117.51 438.031 117.81 437.895C117.95 437.848 118.079 437.773 118.189 437.675C118.299 437.576 118.388 437.456 118.45 437.322C118.48 437.207 118.469 437.086 118.42 436.979C118.37 436.872 118.284 436.786 118.177 436.735C117.856 436.562 117.494 436.477 117.129 436.49C116.722 436.487 116.318 436.57 115.945 436.735C115.661 436.839 115.424 437.043 115.278 437.308C115.278 437.417 115.156 437.499 114.992 437.567C114.844 437.631 114.684 437.665 114.523 437.665C114.361 437.665 114.201 437.631 114.053 437.567L113.046 436.953L112.705 437.936C112.705 438.126 112.283 438.277 111.916 438.277C111.548 438.277 111.303 438.126 111.371 437.936L111.998 436.135C111.998 435.944 112.42 435.794 112.773 435.794C112.873 435.778 112.974 435.778 113.073 435.794H113.223L114.475 436.572C114.69 436.43 114.923 436.32 115.169 436.244Z" fill="white"/>
<path d="M119.43 431.579C119.784 431.579 120.001 431.729 119.947 431.92V431.988H120.818C121.172 431.988 121.39 432.124 121.335 432.315C121.281 432.506 120.968 432.656 120.614 432.656H119.743L119.144 434.566C119.126 434.614 119.099 434.658 119.064 434.696C119.029 434.733 118.987 434.763 118.94 434.784C118.798 434.847 118.645 434.88 118.49 434.88C118.336 434.88 118.183 434.847 118.041 434.784L113.509 432.533V432.465H118.436V432.397C118.817 431.742 119.089 431.579 119.43 431.579ZM115.646 432.656L118.068 433.87L118.463 432.656H115.646Z" fill="white"/>
<path d="M117.742 428.55C118.4 428.25 119.115 428.096 119.838 428.1C120.467 428.08 121.089 428.236 121.635 428.55C121.83 428.639 121.986 428.796 122.076 428.991C122.166 429.186 122.183 429.407 122.125 429.614C122.019 429.862 121.863 430.084 121.666 430.268C121.469 430.451 121.236 430.591 120.981 430.678C120.841 430.745 120.688 430.781 120.532 430.781C120.377 430.781 120.223 430.745 120.083 430.678C119.879 430.541 119.947 430.323 120.233 430.187C120.372 430.138 120.5 430.061 120.607 429.96C120.715 429.859 120.801 429.736 120.859 429.6C120.892 429.49 120.884 429.37 120.837 429.265C120.789 429.16 120.705 429.075 120.6 429.027C120.303 428.854 119.963 428.769 119.62 428.782C119.226 428.78 118.836 428.863 118.477 429.027C118.338 429.074 118.211 429.149 118.103 429.247C117.995 429.346 117.909 429.466 117.851 429.6C117.812 429.711 117.816 429.832 117.862 429.94C117.907 430.048 117.99 430.136 118.096 430.187C118.3 430.323 118.218 430.541 117.932 430.678L117.769 430.746H117.374L114.516 430.569C114.369 430.562 114.229 430.504 114.121 430.405C114.104 430.383 114.095 430.357 114.095 430.33C114.095 430.303 114.104 430.276 114.121 430.255L114.747 428.454C114.747 428.263 115.142 428.113 115.496 428.113C115.85 428.113 116.067 428.263 115.999 428.454L115.482 429.955L116.571 430.023C116.544 429.888 116.544 429.749 116.571 429.614C116.685 429.367 116.848 429.146 117.049 428.963C117.25 428.78 117.485 428.64 117.742 428.55Z" fill="white"/>
<path d="M349.768 45.7907C349.771 54.2291 347.433 62.5023 343.017 69.6868C338.6 76.8712 332.278 82.6844 324.755 86.4774C317.233 90.2704 308.807 91.894 300.418 91.167C292.028 90.44 284.005 87.391 277.245 82.3603L254.935 88.0483L264.205 67.2742C260.94 61.1691 259.107 54.3983 258.847 47.4767C258.586 40.5551 259.905 33.6651 262.701 27.331C265.498 20.9968 269.7 15.3854 274.987 10.9236C280.274 6.46176 286.507 3.2671 293.211 1.58265C299.916 -0.101809 306.915 -0.23168 313.678 1.20292C320.44 2.63751 326.786 5.59878 332.234 9.86143C337.682 14.1241 342.089 19.5758 345.118 25.8018C348.146 32.0279 349.718 38.8642 349.714 45.7907H349.768Z" fill="white"/>
<path d="M349.768 45.7902C349.765 54.2307 347.433 62.5061 343.03 69.7016C341.934 71.488 340.729 73.2054 339.423 74.844C338.071 76.4466 336.621 77.9636 335.081 79.3862C334.278 80.0682 333.57 80.8594 332.713 81.4595L330.194 83.3555C329.364 83.983 328.425 84.4877 327.554 85.047L326.193 85.879C325.743 86.1382 325.253 86.3564 324.831 86.5883L322 87.9523L319.046 89.0572C318.068 89.4377 317.063 89.7432 316.038 89.9711C315.017 90.2166 314.01 90.5713 312.976 90.7213C310.909 91.1251 308.817 91.3803 306.714 91.4852C304.617 91.6556 302.509 91.6556 300.412 91.4852C291.942 90.8172 283.828 87.7886 276.986 82.7417L277.394 82.8236L255.166 88.6343L253.969 88.9481L254.472 87.8023L263.687 67.0145V67.5874C260.338 61.4153 258.473 54.5444 258.243 47.5225C258.002 40.5143 259.362 33.5435 262.219 27.1421C265.076 20.7406 269.354 15.0775 274.726 10.5846C280.089 6.13837 286.389 2.96904 293.151 1.31517C299.913 -0.338688 306.961 -0.43399 313.765 1.03644C320.526 2.55061 326.862 5.56652 332.304 9.8617C337.738 14.1361 342.133 19.5905 345.158 25.814C348.183 32.0375 349.759 38.8677 349.768 45.7902ZM349.768 45.7902C349.733 38.8806 348.133 32.0691 345.089 25.8692C342.045 19.6692 337.636 14.2425 332.195 9.99811C326.735 5.81054 320.411 2.89792 313.683 1.47293C306.959 0.115155 300.014 0.306381 293.375 2.03218C286.733 3.71668 280.567 6.9089 275.353 11.3621C270.201 15.8336 266.085 21.3778 263.293 27.6077C260.548 33.8538 259.256 40.6435 259.516 47.4635C259.775 54.2834 261.579 60.955 264.79 66.9736L264.94 67.26L264.817 67.5465L255.493 88.2933L254.799 87.4749L277.095 81.8824H277.313L277.503 82.0188C284.164 87.0518 292.092 90.1265 300.398 90.8986C302.466 91.0941 304.546 91.126 306.619 90.9941C308.697 90.9168 310.767 90.6889 312.812 90.3121C313.847 90.1757 314.84 89.8483 315.861 89.6164C316.88 89.4005 317.881 89.1087 318.856 88.7435L321.796 87.6932L324.614 86.3291C325.09 86.0972 325.566 85.8926 325.975 85.6471L327.336 84.8423C328.221 84.2831 329.16 83.8057 329.99 83.1919L332.508 81.3231C333.335 80.6854 334.126 80.0023 334.877 79.2771C336.417 77.8653 337.872 76.3622 339.233 74.7758C340.546 73.1491 341.755 71.4406 342.853 69.6607C347.316 62.4976 349.71 54.2346 349.768 45.7902Z" fill="#263238"/>
<path d="M299.405 69.8243L282.485 52.6784L288.175 47.0586L298.043 57.0706L318.57 24.8386L325.294 29.1353L299.405 69.8243Z" fill="#E8505B"/>
</svg>
