<svg id="Layer_1" data-name="Layer 1" xmlns="http://www.w3.org/2000/svg" viewBox="0 0 1500 1500"><defs><style>.cls-1{fill:#fff;}</style></defs><title>logos</title><path class="cls-1" d="M809.56,0c44.08,8.39,88.82,14.24,132.14,25.56,293.58,76.78,509.48,319.78,550.37,619.39,33.22,243.36-38.41,454.18-206.36,630.86-111.29,117.06-250.53,186-409.56,214.59-6.91,1.24-14.09.94-22.69,1.46V991.48h167.92c11-71.21,21.62-140,32.76-212.16H853.06c0-57-3.38-111.07,1-164.51,3.84-46.78,39.51-78.18,86.75-82.91,39.47-3.95,79.31-4.13,122-6.11,0-55.28.3-110.09-.51-164.89-.07-4.87-6.84-13.29-11.35-13.92-87-12.14-174.51-24.12-260.48,5-95.26,32.26-147.94,102.66-160.73,199.46-8.19,62-4.77,125.59-6.43,188.46-.31,11.44,0,22.9,0,37.94H438.84v212H621.45v500.27c-133.71-24.33-251.9-78.82-354.76-166.12-146-123.93-231.33-281.58-260.34-470.34-2-12.95-4.23-25.86-6.35-38.79V681.73c3.34-18.13,7-36.22,10-54.42C57.9,330.21,286.33,85.93,578.08,20.72,615.84,12.29,654.27,6.83,692.39,0Z"/></svg>