<svg width="24" height="24" viewBox="0 0 24 24" fill="none" xmlns="http://www.w3.org/2000/svg">
<path d="M22.4247 11.1001C22.4693 11.1 22.5128 11.1132 22.5499 11.1379C22.587 11.1626 22.6159 11.1978 22.633 11.2389C22.65 11.28 22.6546 11.3253 22.6459 11.369C22.6373 11.4127 22.6159 11.4529 22.5844 11.4844C22.5529 11.5159 22.5128 11.5374 22.4691 11.5462C22.4254 11.5549 22.3801 11.5505 22.339 11.5335C22.2978 11.5165 22.2626 11.4876 22.2378 11.4506C22.213 11.4136 22.1998 11.3701 22.1997 11.3255C22.1997 11.2658 22.2233 11.2085 22.2655 11.1662C22.3077 11.1239 22.365 11.1001 22.4247 11.1001V11.1001Z" fill="#5AC5DF"/>
<path d="M23.2587 4.06033C23.3032 4.06029 23.3468 4.07345 23.3839 4.09816C23.4209 4.12287 23.4498 4.15802 23.4669 4.19916C23.484 4.2403 23.4885 4.28558 23.4799 4.32928C23.4712 4.37298 23.4498 4.41314 23.4184 4.44467C23.3869 4.4762 23.3468 4.49769 23.3031 4.50643C23.2594 4.51517 23.2141 4.51075 23.1729 4.49375C23.1318 4.47674 23.0966 4.44791 23.0718 4.4109C23.047 4.37388 23.0337 4.33035 23.0337 4.2858C23.0336 4.22607 23.0573 4.16876 23.0995 4.12648C23.1417 4.0842 23.199 4.06041 23.2587 4.06033V4.06033Z" fill="#5AC5DF"/>
<path d="M16.12 3.4342C16.1645 3.43425 16.208 3.44749 16.245 3.47226C16.282 3.49703 16.3109 3.53221 16.3279 3.57335C16.3449 3.6145 16.3494 3.65977 16.3407 3.70344C16.332 3.74711 16.3105 3.78722 16.279 3.8187C16.2475 3.85019 16.2074 3.87164 16.1638 3.88033C16.1201 3.88903 16.0748 3.88459 16.0337 3.86757C15.9925 3.85056 15.9574 3.82172 15.9326 3.78472C15.9078 3.74772 15.8946 3.7042 15.8945 3.65967C15.8945 3.63005 15.9003 3.6007 15.9116 3.57332C15.9229 3.54593 15.9395 3.52105 15.9604 3.50011C15.9814 3.47916 16.0063 3.46255 16.0336 3.45124C16.061 3.43993 16.0904 3.43414 16.12 3.4342V3.4342Z" fill="#5AC5DF"/>
<path d="M11.4208 10.2755C11.4653 10.2755 11.5088 10.2888 11.5458 10.3135C11.5828 10.3383 11.6117 10.3735 11.6287 10.4146C11.6457 10.4558 11.6501 10.501 11.6414 10.5447C11.6327 10.5884 11.6113 10.6285 11.5798 10.66C11.5483 10.6915 11.5082 10.7129 11.4645 10.7216C11.4209 10.7303 11.3756 10.7259 11.3345 10.7088C11.2933 10.6918 11.2581 10.663 11.2334 10.626C11.2086 10.589 11.1954 10.5455 11.1953 10.5009C11.1953 10.4713 11.201 10.442 11.2123 10.4146C11.2237 10.3872 11.2403 10.3623 11.2612 10.3414C11.2822 10.3204 11.307 10.3038 11.3344 10.2925C11.3618 10.2812 11.3912 10.2754 11.4208 10.2755V10.2755Z" fill="#5AC5DF"/>
<path d="M12.1346 12.6217C12.1792 12.6218 12.2227 12.635 12.2597 12.6598C12.2967 12.6845 12.3255 12.7197 12.3425 12.7609C12.3596 12.802 12.364 12.8473 12.3553 12.8909C12.3466 12.9346 12.3252 12.9747 12.2937 13.0062C12.2622 13.0377 12.2221 13.0591 12.1784 13.0678C12.1347 13.0765 12.0895 13.0721 12.0483 13.0551C12.0072 13.038 11.972 13.0092 11.9472 12.9722C11.9225 12.9352 11.9092 12.8917 11.9092 12.8472C11.9091 12.8175 11.9149 12.7882 11.9262 12.7608C11.9375 12.7334 11.9541 12.7086 11.9751 12.6876C11.996 12.6667 12.0209 12.65 12.0483 12.6387C12.0757 12.6274 12.105 12.6216 12.1346 12.6217V12.6217Z" fill="#5AC5DF"/>
<path d="M21.1686 2.12656L20.4336 2.71906L20.5053 3.66031L19.715 3.14469L18.8417 3.50328L19.0883 2.59203L18.4771 1.87297L19.4197 1.82562L19.9152 1.02219L20.2513 1.9039L21.1686 2.12656Z" fill="#50DD5A"/>
<path d="M22.8478 7.50551L22.1133 8.09801L22.185 9.03879L21.3942 8.52316L20.5214 8.88176L20.7675 7.97098L20.1567 7.25145L21.0994 7.2041L21.5949 6.40067L21.931 7.28285L22.8478 7.50551Z" fill="#50DD5A"/>
<path d="M20.0534 11.8646L19.1196 12L18.702 12.8466L18.2843 12L17.3501 11.8646L18.026 11.2055L17.8667 10.2755L18.702 10.7147L19.5373 10.2755L19.3779 11.2055L20.0534 11.8646Z" fill="#50DD5A"/>
<path d="M16.5349 13.9441V21.5608C16.5348 21.9368 16.3855 22.2973 16.1197 22.5631C15.8538 22.829 15.4933 22.9783 15.1174 22.9783H11.1953V13.9441H16.5349Z" fill="#E04A5D"/>
<path d="M13.6638 4.94295L14.7256 6.61264L9.82104 9.73076L7.99854 6.86482L11.7068 4.50701C11.8639 4.40712 12.0392 4.33916 12.2226 4.307C12.406 4.27485 12.5939 4.27914 12.7756 4.31962C12.9574 4.3601 13.1293 4.43598 13.2817 4.54294C13.4341 4.64989 13.564 4.78581 13.6638 4.94295V4.94295Z" fill="#E04A5D"/>
<path d="M7.62061 13.9441H11.1953V22.9783H7.62061V13.9441Z" fill="#F9CD53"/>
<path d="M6.44906 7.85006V7.84959L7.99828 6.86475L9.82078 9.73068L6.77953 11.6643L4.95703 8.79881L6.44906 7.85006Z" fill="#F9CD53"/>
<path d="M7.62031 13.9441V22.9783H4.63672C4.45054 22.9783 4.26617 22.9417 4.09415 22.8705C3.92213 22.7993 3.76582 22.6949 3.63415 22.5632C3.50248 22.4316 3.39802 22.2753 3.32675 22.1033C3.25547 21.9313 3.21877 21.747 3.21875 21.5608V13.9441H7.62031Z" fill="#E04A5D"/>
<path d="M6.7793 11.6644L1.79837 14.8313L0.737116 13.1621C0.637186 13.005 0.569181 12.8298 0.536983 12.6464C0.504786 12.463 0.509027 12.2751 0.549466 12.0934C0.589904 11.9116 0.665747 11.7396 0.772663 11.5872C0.879579 11.4348 1.01547 11.3049 1.17259 11.205L4.9568 8.79895L6.7793 11.6644Z" fill="#E04A5D"/>
<path d="M4.625 21.5608V13.9441H3.21875V21.5608C3.21877 21.747 3.25547 21.9313 3.32675 22.1033C3.39802 22.2753 3.50248 22.4316 3.63415 22.5632C3.76582 22.6949 3.92213 22.7993 4.09415 22.8705C4.26617 22.9417 4.45054 22.9783 4.63672 22.9783H6.04297C5.85679 22.9783 5.67242 22.9417 5.5004 22.8705C5.32838 22.7993 5.17207 22.6949 5.0404 22.5632C4.90873 22.4316 4.80427 22.2753 4.733 22.1033C4.66172 21.9313 4.62502 21.747 4.625 21.5608V21.5608Z" fill="#FF5A5A"/>
<path d="M2.19059 12.1785C2.02405 11.9167 1.94805 11.6074 1.97424 11.2981C2.00043 10.9889 2.12736 10.6968 2.33557 10.4667L1.17307 11.2059C1.01596 11.3058 0.880067 11.4356 0.773151 11.5881C0.666235 11.7405 0.590392 11.9125 0.549954 12.0942C0.509516 12.2759 0.505274 12.4639 0.537471 12.6472C0.569669 12.8306 0.637675 13.0058 0.737605 13.1629L1.79885 14.8321L3.25198 13.8478L2.19059 12.1785Z" fill="#FF5A5A"/>
<path d="M16.5345 13.6631H4.16121L14.8759 6.85057C14.9071 6.83076 14.934 6.80499 14.9553 6.77475C14.9765 6.74451 14.9915 6.71038 14.9996 6.67432C15.0076 6.63826 15.0084 6.60098 15.002 6.56459C14.9957 6.5282 14.9822 6.49343 14.9623 6.46226L13.9008 4.79267C13.6587 4.41281 13.2758 4.1445 12.8361 4.0466C12.3964 3.94871 11.9358 4.02922 11.5555 4.27048L10.0477 5.22912L10.1672 4.65767C10.2142 4.45106 10.22 4.23719 10.1842 4.02834C10.1484 3.81949 10.0716 3.61978 9.95838 3.44068C9.84514 3.26158 9.69762 3.10662 9.5243 2.9847C9.35098 2.86279 9.15528 2.77633 8.94844 2.73027C8.74161 2.68422 8.52771 2.6795 8.31904 2.71637C8.11037 2.75323 7.91104 2.83097 7.73251 2.94511C7.55397 3.05925 7.39975 3.20754 7.2787 3.38146C7.15765 3.55538 7.07216 3.75151 7.02714 3.95857L6.24386 7.47673L3.62116 6.89295C3.23004 6.80578 2.82046 6.86774 2.47262 7.0667C2.12478 7.26566 1.86373 7.58729 1.74058 7.96862C1.61743 8.34995 1.64105 8.76351 1.80682 9.12834C1.97258 9.49316 2.26855 9.78298 2.63678 9.94104L1.02157 10.9681C0.641722 11.2102 0.373421 11.5931 0.275525 12.0327C0.17763 12.4724 0.258135 12.9329 0.499379 13.3133L1.56096 14.983C1.58077 15.0141 1.60653 15.0411 1.63677 15.0623C1.667 15.0835 1.70112 15.0986 1.73718 15.1066C1.77323 15.1147 1.81051 15.1155 1.8469 15.1091C1.88328 15.1028 1.91805 15.0893 1.94922 15.0694L2.93735 14.4413V21.5611C2.93786 22.0115 3.11703 22.4434 3.43555 22.7619C3.75407 23.0804 4.18593 23.2595 4.63638 23.26H15.1169C15.5673 23.2595 15.9991 23.0803 16.3176 22.7618C16.6361 22.4433 16.8153 22.0115 16.8158 21.5611V13.9444C16.8158 13.9074 16.8085 13.8708 16.7944 13.8367C16.7803 13.8026 16.7595 13.7716 16.7334 13.7454C16.7073 13.7193 16.6763 13.6986 16.6421 13.6845C16.608 13.6704 16.5714 13.6631 16.5345 13.6631V13.6631ZM11.8573 4.74523C12.0387 4.62922 12.2495 4.56751 12.4648 4.56739C12.5486 4.56743 12.6322 4.57666 12.714 4.5949C12.8598 4.62697 12.9978 4.68764 13.1201 4.77339C13.2423 4.85915 13.3463 4.96829 13.426 5.0945L14.3367 6.52676L9.90705 9.34329L8.38661 6.95201L11.8573 4.74523ZM7.57619 4.08087C7.63695 3.8102 7.80275 3.57474 8.03711 3.42631C8.27147 3.27788 8.5552 3.22863 8.82588 3.28939C9.09655 3.35015 9.33201 3.51595 9.48044 3.75031C9.62887 3.98467 9.67812 4.2684 9.61736 4.53907L9.38646 5.64364L6.87082 7.24906L7.57619 4.08087ZM7.91182 7.25384L9.43225 9.64512L6.86538 11.2771L5.34499 8.88584L7.91182 7.25384ZM2.38896 9.02421C2.27795 8.84964 2.2212 8.64607 2.22589 8.43925C2.23059 8.23242 2.29651 8.03163 2.41531 7.86227C2.53412 7.69291 2.70049 7.56259 2.89337 7.48778C3.08624 7.41297 3.29698 7.39704 3.49891 7.442L5.77164 7.94797L3.24874 9.52948L3.04427 9.48392C2.91007 9.45442 2.78305 9.39861 2.67057 9.3197C2.55809 9.24079 2.46237 9.14036 2.38896 9.02421V9.02421ZM1.88482 14.4439L0.974176 13.0115C0.812804 12.7571 0.758945 12.449 0.824413 12.155C0.889881 11.8609 1.06933 11.6047 1.32339 11.4428L4.87028 9.18767L6.39068 11.5789L1.88482 14.4439ZM7.33886 22.6975H4.63638C4.33508 22.6972 4.04623 22.5773 3.83318 22.3643C3.62013 22.1512 3.50029 21.8624 3.49994 21.5611V14.2256H7.339L7.33886 22.6975ZM10.9137 22.6975H7.90136V14.2256H10.9137V22.6975ZM16.2532 21.5611C16.2529 21.8624 16.133 22.1512 15.92 22.3642C15.707 22.5773 15.4182 22.6971 15.1169 22.6975H11.4762V14.2256H16.2532V21.5611Z" fill="#284268"/>
<path d="M19.6796 11.1087L19.8142 10.3243C19.823 10.2726 19.8172 10.2194 19.7975 10.1708C19.7777 10.1222 19.7447 10.0801 19.7023 10.0493C19.6599 10.0185 19.6096 10.0001 19.5573 9.9963C19.505 9.9925 19.4527 10.0034 19.4062 10.0278L18.7018 10.3981L17.9973 10.0278C17.9508 10.0034 17.8985 9.99243 17.8461 9.99621C17.7938 10 17.7435 10.0183 17.7011 10.0492C17.6586 10.08 17.6256 10.1222 17.6059 10.1708C17.5861 10.2194 17.5803 10.2726 17.5892 10.3243L17.7237 11.1087L17.1538 11.6642C17.1162 11.7008 17.0896 11.7473 17.0771 11.7982C17.0645 11.8492 17.0664 11.9026 17.0826 11.9525C17.0988 12.0025 17.1287 12.0468 17.1688 12.0807C17.2089 12.1145 17.2577 12.1364 17.3097 12.144L18.0972 12.2584L18.4494 12.9721C18.4726 13.0192 18.5085 13.0588 18.5531 13.0865C18.5977 13.1143 18.6491 13.1289 18.7016 13.1289C18.7541 13.1289 18.8056 13.1143 18.8501 13.0865C18.8947 13.0588 18.9306 13.0192 18.9539 12.9721L19.306 12.2584L20.0935 12.144C20.1455 12.1364 20.1943 12.1145 20.2344 12.0807C20.2745 12.0468 20.3044 12.0025 20.3206 11.9525C20.3368 11.9026 20.3388 11.8492 20.3262 11.7982C20.3136 11.7473 20.287 11.7008 20.2494 11.6642L19.6796 11.1087ZM19.0788 11.7228C19.0337 11.7294 18.9909 11.7468 18.954 11.7736C18.9171 11.8004 18.8872 11.8358 18.8671 11.8766L18.7016 12.2119L18.5362 11.8766C18.516 11.8358 18.4862 11.8004 18.4493 11.7736C18.4124 11.7468 18.3695 11.7294 18.3244 11.7228L17.9544 11.669L18.2221 11.4081C18.2548 11.3763 18.2792 11.337 18.2933 11.2936C18.3074 11.2502 18.3108 11.2041 18.3031 11.1591L18.2398 10.7906L18.5708 10.9645C18.6111 10.9858 18.656 10.9969 18.7016 10.9969C18.7472 10.9969 18.7922 10.9858 18.8325 10.9645L19.1634 10.7906L19.1002 11.1591C19.0925 11.2041 19.0958 11.2502 19.1099 11.2936C19.124 11.337 19.1484 11.3762 19.1811 11.4081L19.4488 11.669L19.0788 11.7228Z" fill="#284268"/>
<path d="M22.914 7.23394L22.1405 7.04597L21.8569 6.3024C21.8382 6.25335 21.8062 6.21051 21.7644 6.17873C21.7226 6.14695 21.6728 6.12749 21.6205 6.12255C21.5683 6.11762 21.5157 6.1274 21.4687 6.1508C21.4217 6.1742 21.3822 6.21028 21.3547 6.25496L20.937 6.93244L20.1421 6.97243C20.0897 6.97507 20.0391 6.99231 19.996 7.02222C19.9528 7.05213 19.9189 7.0935 19.8981 7.14166C19.8773 7.18983 19.8703 7.24286 19.8781 7.29476C19.8858 7.34666 19.9079 7.39537 19.9419 7.43537L20.4571 8.04198L20.2496 8.81026C20.2359 8.86092 20.2366 8.9144 20.2517 8.96466C20.2669 9.01491 20.2957 9.05994 20.3351 9.09463C20.3745 9.12933 20.4228 9.15233 20.4745 9.16101C20.5263 9.16969 20.5794 9.16372 20.628 9.14377L21.3639 8.84124L22.0308 9.2761C22.0748 9.30477 22.1259 9.32057 22.1783 9.32172C22.2308 9.32287 22.2825 9.30932 22.3277 9.2826C22.3728 9.25588 22.4096 9.21706 22.4339 9.17052C22.4581 9.12399 22.4689 9.0716 22.4649 9.01927L22.4047 8.22568L23.024 7.72613C23.0649 7.69319 23.0957 7.64949 23.113 7.59996C23.1303 7.55042 23.1334 7.49704 23.1219 7.44584C23.1105 7.39464 23.0849 7.34766 23.0482 7.31022C23.0114 7.27277 22.965 7.24635 22.914 7.23394V7.23394ZM21.9364 7.88082C21.9009 7.90944 21.8729 7.94627 21.8548 7.98812C21.8367 8.02997 21.829 8.07559 21.8325 8.12105L21.8606 8.49385L21.5474 8.28952C21.5092 8.26461 21.4656 8.24936 21.4202 8.24508C21.3748 8.2408 21.329 8.24763 21.2868 8.26496L20.9411 8.40708L21.0386 8.04615C21.0505 8.00213 21.0515 7.95588 21.0416 7.91138C21.0316 7.86689 21.011 7.82548 20.9815 7.79073L20.7394 7.50577L21.1128 7.48702C21.1584 7.48475 21.2027 7.47143 21.242 7.44822C21.2812 7.42502 21.3142 7.39261 21.3382 7.3538L21.5343 7.03557L21.6676 7.38488C21.6838 7.42748 21.7102 7.46548 21.7444 7.49562C21.7786 7.52576 21.8196 7.54713 21.8639 7.5579L22.2273 7.64621L21.9364 7.88082Z" fill="#284268"/>
<path d="M18.7776 2.66152L18.57 3.4298C18.5563 3.48046 18.557 3.53395 18.5722 3.58421C18.5873 3.63448 18.6161 3.67951 18.6555 3.71421C18.6949 3.74892 18.7432 3.77192 18.795 3.7806C18.8467 3.78929 18.8999 3.78331 18.9484 3.76336L19.6844 3.46078L20.351 3.89573C20.3949 3.92441 20.446 3.94021 20.4985 3.94136C20.551 3.94251 20.6027 3.92895 20.6479 3.90223C20.693 3.8755 20.7298 3.83667 20.7541 3.79013C20.7783 3.74359 20.7891 3.69119 20.7851 3.63886L20.7248 2.84527L21.3443 2.34567C21.3852 2.31273 21.416 2.26903 21.4333 2.2195C21.4506 2.16996 21.4537 2.11658 21.4422 2.06538C21.4308 2.01418 21.4053 1.9672 21.3685 1.92976C21.3318 1.89231 21.2853 1.86589 21.2343 1.85348L20.4608 1.66556L20.1773 0.921937C20.1586 0.872897 20.1265 0.830068 20.0847 0.798295C20.0429 0.766523 19.9931 0.747073 19.9409 0.742147C19.8886 0.737221 19.836 0.747015 19.789 0.770422C19.7421 0.793828 19.7026 0.829912 19.675 0.874593L19.2574 1.55203L18.4625 1.59197C18.4101 1.5946 18.3594 1.61184 18.3163 1.64174C18.2732 1.67165 18.2393 1.71302 18.2184 1.76118C18.1976 1.80935 18.1907 1.86238 18.1984 1.91429C18.2061 1.96619 18.2282 2.0149 18.2622 2.05491L18.7776 2.66152ZM19.4334 2.10633C19.479 2.10404 19.5233 2.09072 19.5625 2.0675C19.6018 2.04428 19.6348 2.01187 19.6587 1.97306L19.8549 1.65483L19.9882 2.00414C20.0044 2.04674 20.0308 2.08476 20.065 2.11491C20.0992 2.14505 20.1402 2.16643 20.1845 2.1772L20.5478 2.26547L20.2568 2.50012C20.2213 2.52874 20.1933 2.56557 20.1752 2.60742C20.1571 2.64927 20.1494 2.69489 20.1529 2.74036L20.181 3.1132L19.8678 2.90887C19.8296 2.88397 19.786 2.86871 19.7406 2.86443C19.6952 2.86016 19.6494 2.86698 19.6073 2.88431L19.2615 3.02644L19.359 2.6655C19.3709 2.62148 19.3719 2.57522 19.362 2.53071C19.352 2.48621 19.3314 2.44479 19.3019 2.41003L19.0598 2.12503L19.4334 2.10633Z" fill="#284268"/>
<path d="M13.6752 11.1491C13.0402 11.5487 12.73 12.0329 12.7171 12.0533C12.6771 12.1163 12.6638 12.1926 12.6801 12.2654C12.6964 12.3382 12.741 12.4015 12.804 12.4415C12.867 12.4814 12.9432 12.4947 13.016 12.4784C13.0888 12.4621 13.1522 12.4176 13.1921 12.3546C13.2343 12.289 14.2519 10.7508 16.4668 11.2986C16.5389 11.3158 16.6149 11.3038 16.6782 11.2652C16.7415 11.2266 16.787 11.1646 16.8048 11.0926C16.8227 11.0206 16.8113 10.9445 16.7733 10.8809C16.7353 10.8172 16.6737 10.7711 16.6019 10.7526C15.2392 10.4155 14.2581 10.7821 13.6752 11.1491V11.1491Z" fill="#284268"/>
<path d="M19.0126 8.17129C19.0815 8.19989 19.1589 8.19994 19.2278 8.17144C19.2968 8.14294 19.3516 8.08822 19.3802 8.01932C19.4087 7.95042 19.4088 7.87299 19.3803 7.80405C19.3518 7.73511 19.2971 7.68032 19.2282 7.65173C17.226 6.82078 15.7707 7.44304 14.9026 8.11148C14.3266 8.5594 13.8498 9.12198 13.5025 9.76364C13.4861 9.79672 13.4763 9.83271 13.4738 9.86956C13.4713 9.90641 13.476 9.94339 13.4878 9.9784C13.4996 10.0134 13.5182 10.0457 13.5424 10.0736C13.5667 10.1014 13.5962 10.1242 13.6293 10.1406C13.6624 10.1571 13.6984 10.1668 13.7352 10.1693C13.7721 10.1718 13.8091 10.1671 13.8441 10.1553C13.8791 10.1435 13.9114 10.125 13.9393 10.1007C13.9671 10.0764 13.9899 10.0469 14.0063 10.0138C14.3162 9.44915 14.7379 8.95352 15.2457 8.55717C16.3373 7.71693 17.6047 7.58699 19.0126 8.17129V8.17129Z" fill="#284268"/>
<path d="M15.852 6.08693C15.8291 6.1579 15.8353 6.23508 15.8692 6.30149C15.9032 6.3679 15.9621 6.41811 16.0331 6.44107C16.4203 6.55515 16.8218 6.61318 17.2255 6.61338C17.6958 6.61338 18.239 6.52849 18.7262 6.23974C19.3637 5.86202 19.7724 5.21848 19.9418 4.32724C19.9489 4.2909 19.9487 4.25352 19.9412 4.21725C19.9338 4.18099 19.9193 4.14655 19.8985 4.11591C19.8777 4.08527 19.8511 4.05903 19.8202 4.0387C19.7892 4.01837 19.7546 4.00435 19.7182 3.99744C19.6818 3.99053 19.6445 3.99086 19.6082 3.99843C19.572 4.006 19.5376 4.02064 19.507 4.04153C19.4765 4.06241 19.4503 4.08913 19.4301 4.12014C19.4099 4.15115 19.396 4.18585 19.3892 4.22224C19.2515 4.94698 18.9327 5.46255 18.4418 5.75458C17.508 6.31019 16.2262 5.91241 16.2059 5.90594C16.135 5.88308 16.0579 5.88929 15.9915 5.92323C15.9252 5.95716 15.875 6.01604 15.852 6.08693V6.08693Z" fill="#284268"/>
<path d="M12.1339 13.3545C12.2341 13.3545 12.3321 13.3248 12.4154 13.2692C12.4987 13.2135 12.5636 13.1344 12.6019 13.0419C12.6403 12.9493 12.6503 12.8475 12.6308 12.7492C12.6112 12.6509 12.563 12.5607 12.4922 12.4898C12.4213 12.419 12.3311 12.3707 12.2328 12.3512C12.1346 12.3316 12.0327 12.3417 11.9401 12.38C11.8476 12.4184 11.7685 12.4833 11.7128 12.5666C11.6572 12.6499 11.6274 12.7478 11.6274 12.848C11.6276 12.9823 11.681 13.111 11.776 13.206C11.8709 13.3009 11.9996 13.3544 12.1339 13.3545V13.3545ZM12.1339 12.792C12.145 12.792 12.1559 12.7953 12.1651 12.8014C12.1743 12.8076 12.1815 12.8163 12.1857 12.8266C12.19 12.8368 12.1911 12.8481 12.1889 12.859C12.1868 12.8698 12.1814 12.8798 12.1736 12.8877C12.1658 12.8955 12.1558 12.9008 12.1449 12.903C12.134 12.9051 12.1228 12.904 12.1125 12.8998C12.1023 12.8955 12.0935 12.8884 12.0874 12.8791C12.0812 12.8699 12.078 12.8591 12.078 12.848C12.078 12.8332 12.084 12.819 12.0944 12.8085C12.1049 12.798 12.1191 12.7921 12.1339 12.792V12.792Z" fill="#284268"/>
<path d="M16.1193 4.16699C16.2195 4.16699 16.3174 4.13728 16.4007 4.08163C16.484 4.02597 16.549 3.94686 16.5873 3.8543C16.6256 3.76175 16.6357 3.6599 16.6161 3.56164C16.5966 3.46338 16.5483 3.37313 16.4775 3.30229C16.4067 3.23145 16.3164 3.18321 16.2181 3.16366C16.1199 3.14412 16.018 3.15415 15.9255 3.19249C15.8329 3.23083 15.7538 3.29575 15.6982 3.37905C15.6425 3.46235 15.6128 3.56028 15.6128 3.66046C15.6129 3.79476 15.6664 3.92351 15.7613 4.01847C15.8563 4.11343 15.985 4.16684 16.1193 4.16699V4.16699ZM16.1193 3.60449C16.1304 3.60449 16.1412 3.60778 16.1505 3.61394C16.1597 3.62009 16.1668 3.62884 16.1711 3.63908C16.1753 3.64932 16.1764 3.66059 16.1743 3.67145C16.1721 3.68232 16.1668 3.6923 16.1589 3.70013C16.1511 3.70797 16.1411 3.7133 16.1302 3.71545C16.1194 3.71761 16.1081 3.71649 16.0979 3.71225C16.0876 3.708 16.0789 3.70081 16.0727 3.69159C16.0666 3.68238 16.0633 3.67154 16.0633 3.66046C16.0634 3.64563 16.0693 3.63143 16.0798 3.62095C16.0903 3.61047 16.1045 3.60455 16.1193 3.60449V3.60449Z" fill="#284268"/>
<path d="M23.259 3.77985C23.1588 3.77985 23.0609 3.80955 22.9776 3.86522C22.8943 3.92088 22.8293 3.99999 22.791 4.09255C22.7527 4.18511 22.7426 4.28695 22.7622 4.38521C22.7817 4.48347 22.83 4.57373 22.9008 4.64456C22.9717 4.7154 23.0619 4.76364 23.1602 4.78318C23.2584 4.80272 23.3603 4.79268 23.4529 4.75434C23.5454 4.71599 23.6245 4.65106 23.6802 4.56776C23.7358 4.48445 23.7655 4.38651 23.7655 4.28633C23.7654 4.15204 23.7119 4.02329 23.617 3.92834C23.522 3.83339 23.3933 3.77998 23.259 3.77985V3.77985ZM23.259 4.34235C23.2479 4.34235 23.2371 4.33906 23.2279 4.3329C23.2186 4.32675 23.2115 4.318 23.2072 4.30777C23.203 4.29753 23.2019 4.28627 23.204 4.2754C23.2062 4.26454 23.2115 4.25455 23.2194 4.24672C23.2272 4.23889 23.2372 4.23355 23.248 4.23139C23.2589 4.22923 23.2702 4.23034 23.2804 4.23458C23.2906 4.23882 23.2994 4.246 23.3056 4.25521C23.3117 4.26442 23.315 4.27525 23.315 4.28633C23.3149 4.30117 23.309 4.31538 23.2985 4.32587C23.288 4.33636 23.2738 4.34228 23.259 4.34235V4.34235Z" fill="#284268"/>
<path d="M11.9266 10.5014C11.9266 10.4012 11.8969 10.3032 11.8413 10.2199C11.7856 10.1366 11.7065 10.0717 11.6139 10.0334C11.5213 9.99504 11.4194 9.98503 11.3212 10.0046C11.2229 10.0242 11.1327 10.0724 11.0618 10.1433C10.991 10.2142 10.9428 10.3044 10.9233 10.4027C10.9038 10.501 10.9138 10.6029 10.9522 10.6954C10.9906 10.788 11.0556 10.867 11.1389 10.9227C11.2222 10.9783 11.3202 11.008 11.4204 11.0079C11.5546 11.0077 11.6833 10.9542 11.7782 10.8593C11.8731 10.7643 11.9265 10.6356 11.9266 10.5014V10.5014ZM11.4204 10.5576C11.4093 10.5576 11.3985 10.5544 11.3893 10.5482C11.3801 10.5421 11.3729 10.5334 11.3686 10.5231C11.3644 10.5129 11.3632 10.5017 11.3654 10.4908C11.3675 10.4799 11.3728 10.4699 11.3806 10.4621C11.3884 10.4542 11.3984 10.4489 11.4093 10.4467C11.4201 10.4445 11.4314 10.4456 11.4416 10.4498C11.4518 10.454 11.4606 10.4611 11.4668 10.4703C11.473 10.4795 11.4763 10.4903 11.4764 10.5014C11.4763 10.5162 11.4703 10.5305 11.4598 10.541C11.4493 10.5515 11.435 10.5574 11.4202 10.5574L11.4204 10.5576Z" fill="#284268"/>
<path d="M22.4245 10.8204C22.3243 10.8204 22.2264 10.8501 22.1431 10.9058C22.0598 10.9614 21.9949 11.0405 21.9565 11.1331C21.9182 11.2256 21.9082 11.3275 21.9277 11.4258C21.9472 11.524 21.9955 11.6143 22.0663 11.6851C22.1372 11.7559 22.2274 11.8042 22.3257 11.8237C22.4239 11.8433 22.5258 11.8332 22.6183 11.7949C22.7109 11.7566 22.79 11.6916 22.8457 11.6083C22.9013 11.525 22.931 11.4271 22.931 11.3269C22.9309 11.1926 22.8775 11.0639 22.7825 10.9689C22.6875 10.874 22.5588 10.8206 22.4245 10.8204V10.8204ZM22.4245 11.3829C22.4134 11.3829 22.4026 11.3796 22.3934 11.3734C22.3842 11.3673 22.3771 11.3585 22.3728 11.3483C22.3686 11.3381 22.3675 11.3268 22.3697 11.316C22.3718 11.3051 22.3772 11.2952 22.385 11.2873C22.3928 11.2795 22.4028 11.2742 22.4136 11.272C22.4245 11.2699 22.4358 11.271 22.446 11.2752C22.4562 11.2795 22.4649 11.2866 22.4711 11.2958C22.4772 11.305 22.4805 11.3159 22.4805 11.3269C22.4804 11.3418 22.4745 11.356 22.464 11.3664C22.4535 11.3769 22.4393 11.3828 22.4245 11.3829V11.3829Z" fill="#284268"/>
</svg>
