<svg width="24" height="24" viewBox="0 0 24 24" fill="none" xmlns="http://www.w3.org/2000/svg">
<path d="M22.4247 11.1001C22.4693 11.1 22.5128 11.1132 22.5499 11.1379C22.587 11.1626 22.6159 11.1978 22.633 11.2389C22.65 11.28 22.6545 11.3253 22.6459 11.369C22.6373 11.4127 22.6158 11.4529 22.5844 11.4844C22.5529 11.5159 22.5128 11.5374 22.4691 11.5462C22.4254 11.5549 22.3801 11.5505 22.339 11.5335C22.2978 11.5165 22.2626 11.4876 22.2378 11.4506C22.213 11.4136 22.1998 11.3701 22.1997 11.3255C22.1997 11.2658 22.2233 11.2085 22.2655 11.1662C22.3077 11.1239 22.365 11.1001 22.4247 11.1001V11.1001Z" fill="#5AC5DF"/>
<path d="M23.2587 4.06039C23.3032 4.06035 23.3468 4.07351 23.3839 4.09822C23.4209 4.12293 23.4498 4.15808 23.4669 4.19922C23.484 4.24036 23.4885 4.28564 23.4799 4.32934C23.4712 4.37304 23.4498 4.4132 23.4184 4.44473C23.3869 4.47626 23.3468 4.49776 23.3031 4.50649C23.2594 4.51523 23.2141 4.51082 23.1729 4.49381C23.1318 4.47681 23.0966 4.44797 23.0718 4.41096C23.047 4.37395 23.0337 4.33041 23.0337 4.28586C23.0336 4.22613 23.0573 4.16882 23.0995 4.12654C23.1417 4.08426 23.199 4.06047 23.2587 4.06039V4.06039Z" fill="#5AC5DF"/>
<path d="M16.12 3.4342C16.1645 3.43425 16.208 3.44749 16.245 3.47226C16.282 3.49703 16.3109 3.53221 16.3279 3.57335C16.3449 3.6145 16.3494 3.65977 16.3407 3.70344C16.332 3.74711 16.3105 3.78722 16.279 3.8187C16.2475 3.85019 16.2074 3.87164 16.1638 3.88033C16.1201 3.88903 16.0748 3.88459 16.0337 3.86757C15.9925 3.85055 15.9574 3.82172 15.9326 3.78472C15.9078 3.74772 15.8946 3.7042 15.8945 3.65967C15.8945 3.63005 15.9003 3.6007 15.9116 3.57332C15.9229 3.54593 15.9395 3.52105 15.9604 3.50011C15.9814 3.47916 16.0063 3.46255 16.0336 3.45124C16.061 3.43993 16.0904 3.43414 16.12 3.4342V3.4342Z" fill="#5AC5DF"/>
<path d="M11.4208 10.2756C11.4653 10.2756 11.5088 10.2889 11.5458 10.3136C11.5828 10.3384 11.6117 10.3736 11.6287 10.4147C11.6457 10.4559 11.6501 10.5011 11.6414 10.5448C11.6327 10.5885 11.6113 10.6286 11.5798 10.6601C11.5483 10.6916 11.5082 10.713 11.4645 10.7217C11.4209 10.7304 11.3756 10.726 11.3345 10.7089C11.2933 10.6919 11.2581 10.6631 11.2334 10.6261C11.2086 10.5891 11.1954 10.5456 11.1953 10.501C11.1953 10.4714 11.201 10.4421 11.2123 10.4147C11.2237 10.3873 11.2403 10.3624 11.2612 10.3415C11.2822 10.3205 11.307 10.3039 11.3344 10.2926C11.3618 10.2813 11.3912 10.2755 11.4208 10.2756V10.2756Z" fill="#5AC5DF"/>
<path d="M12.1346 12.6217C12.1792 12.6218 12.2227 12.635 12.2597 12.6598C12.2967 12.6845 12.3255 12.7197 12.3425 12.7609C12.3596 12.802 12.364 12.8473 12.3553 12.8909C12.3466 12.9346 12.3252 12.9747 12.2937 13.0062C12.2622 13.0377 12.2221 13.0591 12.1784 13.0678C12.1347 13.0765 12.0895 13.0721 12.0483 13.0551C12.0072 13.038 11.972 13.0092 11.9472 12.9722C11.9225 12.9352 11.9092 12.8917 11.9092 12.8472C11.9091 12.8175 11.9149 12.7882 11.9262 12.7608C11.9375 12.7334 11.9541 12.7086 11.9751 12.6876C11.996 12.6667 12.0209 12.65 12.0483 12.6387C12.0757 12.6274 12.105 12.6216 12.1346 12.6217V12.6217Z" fill="#5AC5DF"/>
<path d="M21.1686 2.12662L20.4336 2.71912L20.5053 3.66037L19.715 3.14475L18.8417 3.50334L19.0883 2.59209L18.4771 1.87303L19.4197 1.82568L19.9152 1.02225L20.2513 1.90397L21.1686 2.12662Z" fill="#50DD5A"/>
<path d="M22.8478 7.50545L22.1133 8.09795L22.185 9.03873L21.3942 8.5231L20.5214 8.8817L20.7675 7.97092L20.1567 7.25139L21.0994 7.20404L21.5949 6.4006L21.931 7.28279L22.8478 7.50545Z" fill="#50DD5A"/>
<path d="M20.0534 11.8647L19.1196 12.0001L18.702 12.8467L18.2843 12.0001L17.3501 11.8647L18.026 11.2056L17.8667 10.2756L18.702 10.7148L19.5373 10.2756L19.3779 11.2056L20.0534 11.8647Z" fill="#50DD5A"/>
<path d="M16.5349 13.9441V21.5608C16.5348 21.9368 16.3855 22.2973 16.1197 22.5631C15.8538 22.829 15.4933 22.9783 15.1174 22.9783H11.1953V13.9441H16.5349Z" fill="#E04A5D"/>
<path d="M13.6638 4.94292L14.7256 6.61261L9.82103 9.73073L7.99854 6.86479L11.7068 4.50698C11.8639 4.40709 12.0392 4.33913 12.2226 4.30697C12.406 4.27482 12.5939 4.27911 12.7756 4.31959C12.9574 4.36007 13.1293 4.43595 13.2817 4.54291C13.4341 4.64986 13.564 4.78578 13.6638 4.94292V4.94292Z" fill="#E04A5D"/>
<path d="M7.62061 13.9441H11.1953V22.9783H7.62061V13.9441Z" fill="#F9CD53"/>
<path d="M6.44906 7.85012V7.84965L7.99828 6.86481L9.82078 9.73074L6.77953 11.6643L4.95703 8.79887L6.44906 7.85012Z" fill="#F9CD53"/>
<path d="M7.62031 13.9441V22.9783H4.63672C4.45054 22.9783 4.26617 22.9417 4.09415 22.8705C3.92213 22.7993 3.76582 22.6949 3.63415 22.5632C3.50248 22.4316 3.39802 22.2753 3.32675 22.1033C3.25547 21.9313 3.21877 21.747 3.21875 21.5608V13.9441H7.62031Z" fill="#E04A5D"/>
<path d="M6.7793 11.6645L1.79837 14.8313L0.737116 13.1621C0.637186 13.005 0.569181 12.8298 0.536983 12.6464C0.504786 12.463 0.509027 12.2751 0.549466 12.0934C0.589904 11.9117 0.665747 11.7397 0.772663 11.5872C0.879579 11.4348 1.01547 11.305 1.17259 11.2051L4.9568 8.79898L6.7793 11.6645Z" fill="#E04A5D"/>
<path d="M4.625 21.5608V13.9441H3.21875V21.5608C3.21877 21.747 3.25547 21.9313 3.32675 22.1033C3.39802 22.2753 3.50248 22.4316 3.63415 22.5632C3.76582 22.6949 3.92213 22.7993 4.09415 22.8705C4.26617 22.9417 4.45054 22.9783 4.63672 22.9783H6.04297C5.85679 22.9783 5.67242 22.9417 5.5004 22.8705C5.32838 22.7993 5.17207 22.6949 5.0404 22.5632C4.90873 22.4316 4.80427 22.2753 4.733 22.1033C4.66172 21.9313 4.62502 21.747 4.625 21.5608V21.5608Z" fill="#FF5A5A"/>
<path d="M2.19059 12.1785C2.02405 11.9166 1.94805 11.6074 1.97424 11.2981C2.00043 10.9889 2.12736 10.6968 2.33557 10.4666L1.17307 11.2059C1.01596 11.3058 0.880067 11.4356 0.773151 11.588C0.666235 11.7405 0.590392 11.9124 0.549954 12.0942C0.509516 12.2759 0.505274 12.4638 0.537471 12.6472C0.569669 12.8306 0.637675 13.0058 0.737605 13.1629L1.79885 14.8321L3.25198 13.8477L2.19059 12.1785Z" fill="#FF5A5A"/>
<path d="M16.5345 13.6631H4.16121L14.8759 6.8506C14.9071 6.83079 14.934 6.80502 14.9553 6.77478C14.9765 6.74454 14.9915 6.71041 14.9996 6.67436C15.0076 6.6383 15.0084 6.60101 15.002 6.56462C14.9957 6.52823 14.9822 6.49346 14.9623 6.46229L13.9008 4.7927C13.6587 4.41284 13.2758 4.14453 12.8361 4.04663C12.3964 3.94874 11.9358 4.02925 11.5555 4.27051L10.0477 5.22915L10.1672 4.6577C10.2142 4.45109 10.22 4.23722 10.1842 4.02837C10.1484 3.81952 10.0716 3.61981 9.95839 3.44071C9.84514 3.26161 9.69762 3.10665 9.5243 2.98474C9.35098 2.86282 9.15528 2.77636 8.94845 2.73031C8.74161 2.68426 8.52771 2.67953 8.31904 2.7164C8.11037 2.75326 7.91104 2.831 7.73251 2.94514C7.55398 3.05928 7.39975 3.20757 7.2787 3.38149C7.15765 3.55541 7.07216 3.75154 7.02715 3.9586L6.24386 7.47676L3.62116 6.89298C3.23004 6.80581 2.82046 6.86777 2.47262 7.06673C2.12478 7.26569 1.86373 7.58732 1.74058 7.96865C1.61743 8.34998 1.64105 8.76354 1.80682 9.12837C1.97258 9.49319 2.26855 9.78301 2.63679 9.94107L1.02157 10.9681C0.641722 11.2102 0.373421 11.5931 0.275525 12.0328C0.17763 12.4724 0.258135 12.933 0.499379 13.3134L1.56096 14.983C1.58077 15.0142 1.60653 15.0411 1.63677 15.0624C1.667 15.0836 1.70112 15.0986 1.73718 15.1067C1.77323 15.1147 1.81051 15.1155 1.8469 15.1092C1.88328 15.1028 1.91805 15.0893 1.94922 15.0695L2.93735 14.4414V21.5611C2.93786 22.0116 3.11703 22.4434 3.43555 22.7619C3.75407 23.0804 4.18593 23.2596 4.63638 23.26H15.1169C15.5673 23.2595 15.9991 23.0804 16.3176 22.7619C16.6362 22.4434 16.8153 22.0115 16.8158 21.5611V13.9444C16.8158 13.9074 16.8085 13.8709 16.7944 13.8367C16.7803 13.8026 16.7595 13.7716 16.7334 13.7455C16.7073 13.7194 16.6763 13.6986 16.6421 13.6845C16.608 13.6704 16.5714 13.6631 16.5345 13.6631V13.6631ZM11.8573 4.74526C12.0387 4.62925 12.2495 4.56754 12.4648 4.56742C12.5487 4.56746 12.6322 4.57669 12.714 4.59493C12.8598 4.627 12.9979 4.68767 13.1201 4.77342C13.2423 4.85918 13.3463 4.96832 13.4261 5.09453L14.3367 6.52679L9.90705 9.34332L8.38661 6.95204L11.8573 4.74526ZM7.57619 4.0809C7.63695 3.81023 7.80275 3.57477 8.03711 3.42634C8.27148 3.27791 8.5552 3.22866 8.82588 3.28942C9.09656 3.35018 9.33201 3.51598 9.48044 3.75034C9.62887 3.9847 9.67813 4.26843 9.61736 4.5391L9.38646 5.64367L6.87082 7.24909L7.57619 4.0809ZM7.91182 7.25387L9.43225 9.64515L6.86538 11.2772L5.34499 8.88587L7.91182 7.25387ZM2.38896 9.02424C2.27795 8.84967 2.2212 8.6461 2.2259 8.43928C2.23059 8.23245 2.29651 8.03166 2.41531 7.8623C2.53412 7.69294 2.70049 7.56262 2.89337 7.48781C3.08625 7.413 3.29698 7.39707 3.49891 7.44203L5.77165 7.948L3.24874 9.52951L3.04427 9.48395C2.91007 9.45445 2.78306 9.39864 2.67057 9.31973C2.55809 9.24082 2.46237 9.14039 2.38896 9.02424V9.02424ZM1.88482 14.4439L0.974176 13.0116C0.812804 12.7571 0.758945 12.4491 0.824413 12.155C0.889881 11.8609 1.06933 11.6048 1.32339 11.4428L4.87029 9.1877L6.39068 11.579L1.88482 14.4439ZM7.33886 22.6975H4.63638C4.33508 22.6972 4.04623 22.5774 3.83318 22.3643C3.62013 22.1513 3.50029 21.8624 3.49994 21.5611V14.2256H7.339L7.33886 22.6975ZM10.9137 22.6975H7.90136V14.2256H10.9137V22.6975ZM16.2532 21.5611C16.2529 21.8624 16.133 22.1512 15.92 22.3643C15.707 22.5773 15.4182 22.6972 15.1169 22.6975H11.4762V14.2256H16.2532V21.5611Z" fill="#C2CCDB"/>
<path d="M19.6796 11.1088L19.8142 10.3243C19.823 10.2726 19.8172 10.2195 19.7975 10.1709C19.7777 10.1223 19.7447 10.0802 19.7023 10.0493C19.6599 10.0185 19.6096 10.0001 19.5573 9.99633C19.505 9.99253 19.4527 10.0034 19.4062 10.0278L18.7018 10.3981L17.9973 10.0278C17.9508 10.0034 17.8985 9.99246 17.8461 9.99624C17.7938 10 17.7435 10.0184 17.7011 10.0492C17.6586 10.0801 17.6256 10.1222 17.6059 10.1708C17.5861 10.2194 17.5803 10.2726 17.5892 10.3243L17.7237 11.1088L17.1538 11.6642C17.1162 11.7009 17.0896 11.7473 17.0771 11.7982C17.0645 11.8492 17.0664 11.9026 17.0826 11.9526C17.0988 12.0025 17.1287 12.0469 17.1688 12.0807C17.2089 12.1145 17.2577 12.1365 17.3097 12.144L18.0972 12.2585L18.4494 12.9721C18.4726 13.0192 18.5085 13.0589 18.5531 13.0866C18.5977 13.1143 18.6491 13.129 18.7016 13.129C18.7541 13.129 18.8056 13.1143 18.8501 13.0866C18.8947 13.0589 18.9306 13.0192 18.9539 12.9721L19.306 12.2585L20.0935 12.144C20.1455 12.1365 20.1943 12.1145 20.2344 12.0807C20.2745 12.0469 20.3044 12.0025 20.3206 11.9526C20.3368 11.9026 20.3388 11.8492 20.3262 11.7982C20.3136 11.7473 20.287 11.7009 20.2494 11.6642L19.6796 11.1088ZM19.0788 11.7228C19.0337 11.7294 18.9909 11.7468 18.954 11.7736C18.9171 11.8004 18.8872 11.8358 18.8671 11.8767L18.7016 12.2119L18.5362 11.8767C18.516 11.8358 18.4862 11.8004 18.4493 11.7736C18.4124 11.7468 18.3695 11.7294 18.3244 11.7228L17.9544 11.6691L18.2221 11.4081C18.2548 11.3763 18.2792 11.337 18.2933 11.2936C18.3074 11.2502 18.3108 11.2041 18.3031 11.1592L18.2398 10.7906L18.5708 10.9646C18.6111 10.9858 18.656 10.9969 18.7016 10.9969C18.7472 10.9969 18.7922 10.9858 18.8325 10.9646L19.1634 10.7906L19.1002 11.1592C19.0925 11.2041 19.0958 11.2502 19.1099 11.2936C19.124 11.337 19.1484 11.3763 19.1811 11.4081L19.4488 11.6691L19.0788 11.7228Z" fill="#C2CCDB"/>
<path d="M22.914 7.2341L22.1405 7.04613L21.8569 6.30255C21.8382 6.2535 21.8062 6.21067 21.7644 6.17888C21.7226 6.1471 21.6728 6.12764 21.6205 6.12271C21.5683 6.11777 21.5157 6.12756 21.4687 6.15095C21.4217 6.17435 21.3822 6.21043 21.3547 6.25511L20.937 6.9326L20.1421 6.97258C20.0897 6.97522 20.0391 6.99247 19.996 7.02237C19.9528 7.05228 19.9189 7.09365 19.8981 7.14182C19.8773 7.18998 19.8703 7.24301 19.8781 7.29491C19.8858 7.34681 19.9079 7.39552 19.9419 7.43552L20.4571 8.04213L20.2496 8.81041C20.2359 8.86107 20.2366 8.91455 20.2517 8.96481C20.2669 9.01506 20.2957 9.06009 20.3351 9.09479C20.3745 9.12949 20.4228 9.15248 20.4745 9.16116C20.5263 9.16984 20.5794 9.16387 20.628 9.14392L21.3639 8.84139L22.0308 9.27625C22.0748 9.30492 22.1259 9.32073 22.1783 9.32188C22.2308 9.32302 22.2825 9.30947 22.3277 9.28275C22.3728 9.25603 22.4096 9.21721 22.4339 9.17068C22.4581 9.12414 22.4689 9.07175 22.4649 9.01942L22.4047 8.22583L23.024 7.72628C23.0649 7.69335 23.0957 7.64964 23.113 7.60011C23.1303 7.55058 23.1334 7.49719 23.1219 7.44599C23.1105 7.39479 23.0849 7.34781 23.0482 7.31037C23.0114 7.27292 22.965 7.2465 22.914 7.2341V7.2341ZM21.9364 7.88097C21.9009 7.9096 21.8729 7.94642 21.8548 7.98827C21.8367 8.03012 21.829 8.07574 21.8325 8.12121L21.8606 8.494L21.5474 8.28967C21.5092 8.26477 21.4656 8.24951 21.4202 8.24523C21.3748 8.24096 21.329 8.24778 21.2868 8.26511L20.9411 8.40724L21.0386 8.0463C21.0505 8.00228 21.0515 7.95603 21.0416 7.91154C21.0316 7.86704 21.011 7.82563 20.9815 7.79088L20.7394 7.50592L21.1128 7.48717C21.1584 7.4849 21.2027 7.47159 21.242 7.44838C21.2812 7.42517 21.3142 7.39276 21.3382 7.35396L21.5343 7.03572L21.6676 7.38503C21.6838 7.42763 21.7102 7.46563 21.7444 7.49577C21.7786 7.52591 21.8196 7.54729 21.8639 7.55805L22.2273 7.64636L21.9364 7.88097Z" fill="#C2CCDB"/>
<path d="M18.7776 2.66161L18.57 3.42989C18.5563 3.48055 18.557 3.53404 18.5722 3.58431C18.5873 3.63457 18.6161 3.6796 18.6555 3.71431C18.6949 3.74901 18.7432 3.77201 18.795 3.78069C18.8467 3.78938 18.8999 3.7834 18.9484 3.76345L19.6844 3.46087L20.351 3.89583C20.3949 3.9245 20.446 3.9403 20.4985 3.94145C20.551 3.9426 20.6027 3.92904 20.6479 3.90232C20.693 3.87559 20.7298 3.83676 20.7541 3.79022C20.7783 3.74368 20.7891 3.69128 20.7851 3.63895L20.7248 2.84536L21.3443 2.34576C21.3852 2.31282 21.416 2.26912 21.4333 2.21959C21.4506 2.17006 21.4537 2.11667 21.4422 2.06547C21.4308 2.01427 21.4053 1.96729 21.3685 1.92985C21.3318 1.8924 21.2853 1.86598 21.2343 1.85358L20.4608 1.66565L20.1773 0.922029C20.1585 0.872988 20.1265 0.83016 20.0847 0.798387C20.0429 0.766614 19.9931 0.747165 19.9409 0.742239C19.8886 0.737313 19.836 0.747107 19.789 0.770513C19.7421 0.793919 19.7026 0.830004 19.675 0.874685L19.2574 1.55212L18.4625 1.59206C18.4101 1.59469 18.3594 1.61193 18.3163 1.64183C18.2732 1.67174 18.2393 1.71311 18.2184 1.76127C18.1976 1.80944 18.1907 1.86247 18.1984 1.91438C18.2061 1.96629 18.2282 2.01499 18.2622 2.055L18.7776 2.66161ZM19.4334 2.10642C19.479 2.10413 19.5233 2.09081 19.5625 2.06759C19.6018 2.04437 19.6348 2.01197 19.6587 1.97315L19.8549 1.65492L19.9882 2.00423C20.0044 2.04683 20.0308 2.08485 20.065 2.115C20.0992 2.14515 20.1402 2.16653 20.1845 2.17729L20.5478 2.26556L20.2568 2.50022C20.2213 2.52884 20.1933 2.56566 20.1752 2.60751C20.1571 2.64936 20.1494 2.69498 20.1529 2.74045L20.181 3.11329L19.8678 2.90897C19.8296 2.88406 19.786 2.86881 19.7406 2.86453C19.6952 2.86025 19.6494 2.86707 19.6073 2.8844L19.2615 3.02653L19.359 2.66559C19.3709 2.62157 19.3719 2.57531 19.362 2.5308C19.352 2.4863 19.3314 2.44488 19.3019 2.41012L19.0598 2.12512L19.4334 2.10642Z" fill="#C2CCDB"/>
<path d="M13.6752 11.1492C13.0402 11.5488 12.73 12.033 12.7171 12.0534C12.6771 12.1164 12.6638 12.1927 12.6801 12.2655C12.6964 12.3383 12.741 12.4016 12.804 12.4416C12.867 12.4815 12.9432 12.4948 13.016 12.4785C13.0888 12.4622 13.1522 12.4177 13.1921 12.3547C13.2343 12.2891 14.2519 10.7509 16.4668 11.2987C16.5389 11.3159 16.6149 11.3039 16.6782 11.2653C16.7415 11.2267 16.787 11.1647 16.8048 11.0927C16.8227 11.0207 16.8113 10.9446 16.7733 10.881C16.7353 10.8173 16.6737 10.7712 16.6019 10.7527C15.2392 10.4156 14.2581 10.7822 13.6752 11.1492V11.1492Z" fill="#C2CCDB"/>
<path d="M19.0121 8.17144C19.081 8.20004 19.1584 8.20009 19.2273 8.17159C19.2963 8.14309 19.3511 8.08837 19.3797 8.01947C19.4083 7.95058 19.4083 7.87314 19.3798 7.8042C19.3513 7.73527 19.2966 7.68047 19.2277 7.65188C17.2255 6.82093 15.7702 7.44319 14.9021 8.11163C14.3261 8.55955 13.8494 9.12213 13.502 9.76379C13.4856 9.79687 13.4758 9.83286 13.4733 9.86971C13.4708 9.90656 13.4756 9.94354 13.4873 9.97855C13.4991 10.0136 13.5177 10.0459 13.5419 10.0737C13.5662 10.1016 13.5957 10.1244 13.6288 10.1408C13.6619 10.1572 13.6979 10.167 13.7347 10.1695C13.7716 10.172 13.8086 10.1672 13.8436 10.1554C13.8786 10.1437 13.9109 10.1251 13.9388 10.1008C13.9666 10.0766 13.9894 10.047 14.0058 10.014C14.3158 9.4493 14.7374 8.95368 15.2452 8.55732C16.3368 7.71708 17.6042 7.58715 19.0121 8.17144V8.17144Z" fill="#C2CCDB"/>
<path d="M15.852 6.08699C15.8291 6.15796 15.8353 6.23514 15.8692 6.30155C15.9032 6.36796 15.9621 6.41817 16.0331 6.44113C16.4203 6.55522 16.8218 6.61324 17.2255 6.61344C17.6958 6.61344 18.239 6.52855 18.7262 6.2398C19.3637 5.86208 19.7724 5.21854 19.9418 4.3273C19.9489 4.29096 19.9487 4.25358 19.9412 4.21732C19.9338 4.18105 19.9193 4.14661 19.8985 4.11597C19.8777 4.08533 19.8511 4.05909 19.8202 4.03876C19.7892 4.01843 19.7546 4.00441 19.7182 3.9975C19.6818 3.99059 19.6445 3.99092 19.6082 3.99849C19.572 4.00606 19.5376 4.0207 19.507 4.04159C19.4765 4.06247 19.4503 4.08919 19.4301 4.1202C19.4099 4.15121 19.396 4.18591 19.3892 4.2223C19.2515 4.94704 18.9327 5.46261 18.4418 5.75465C17.508 6.31025 16.2262 5.91247 16.2059 5.90601C16.135 5.88314 16.0579 5.88935 15.9915 5.92329C15.9252 5.95722 15.875 6.0161 15.852 6.08699V6.08699Z" fill="#C2CCDB"/>
<path d="M12.1339 13.3547C12.2341 13.3547 12.3321 13.325 12.4154 13.2694C12.4987 13.2137 12.5636 13.1346 12.6019 13.0421C12.6403 12.9495 12.6503 12.8477 12.6308 12.7494C12.6113 12.6511 12.563 12.5609 12.4922 12.49C12.4213 12.4192 12.3311 12.3709 12.2328 12.3514C12.1346 12.3318 12.0327 12.3419 11.9401 12.3802C11.8476 12.4185 11.7685 12.4835 11.7128 12.5668C11.6572 12.6501 11.6274 12.748 11.6274 12.8482C11.6276 12.9825 11.681 13.1112 11.776 13.2062C11.8709 13.3011 11.9996 13.3545 12.1339 13.3547V13.3547ZM12.1339 12.7922C12.145 12.7922 12.1559 12.7955 12.1651 12.8016C12.1743 12.8078 12.1815 12.8165 12.1857 12.8268C12.19 12.837 12.1911 12.8483 12.1889 12.8591C12.1868 12.87 12.1814 12.88 12.1736 12.8878C12.1658 12.8957 12.1558 12.901 12.1449 12.9032C12.134 12.9053 12.1228 12.9042 12.1125 12.9C12.1023 12.8957 12.0935 12.8885 12.0874 12.8793C12.0812 12.8701 12.078 12.8593 12.078 12.8482C12.078 12.8334 12.084 12.8192 12.0944 12.8087C12.1049 12.7982 12.1191 12.7923 12.1339 12.7922V12.7922Z" fill="#C2CCDB"/>
<path d="M16.1193 4.16718C16.2195 4.16718 16.3174 4.13747 16.4007 4.08181C16.484 4.02615 16.549 3.94704 16.5873 3.85449C16.6256 3.76193 16.6357 3.66008 16.6161 3.56183C16.5966 3.46357 16.5483 3.37331 16.4775 3.30247C16.4067 3.23163 16.3164 3.18339 16.2181 3.16385C16.1199 3.1443 16.018 3.15433 15.9255 3.19267C15.8329 3.23101 15.7538 3.29593 15.6982 3.37923C15.6425 3.46253 15.6128 3.56046 15.6128 3.66064C15.6129 3.79494 15.6664 3.92369 15.7613 4.01865C15.8563 4.11361 15.985 4.16703 16.1193 4.16718V4.16718ZM16.1193 3.60468C16.1304 3.60468 16.1412 3.60796 16.1505 3.61412C16.1597 3.62028 16.1668 3.62903 16.1711 3.63927C16.1753 3.6495 16.1764 3.66077 16.1743 3.67164C16.1721 3.6825 16.1668 3.69248 16.1589 3.70032C16.1511 3.70815 16.1411 3.71348 16.1302 3.71564C16.1194 3.71779 16.1081 3.71668 16.0979 3.71243C16.0876 3.70818 16.0789 3.701 16.0727 3.69178C16.0666 3.68256 16.0633 3.67173 16.0633 3.66064C16.0634 3.64582 16.0693 3.63162 16.0798 3.62113C16.0903 3.61065 16.1045 3.60474 16.1193 3.60468V3.60468Z" fill="#C2CCDB"/>
<path d="M23.259 3.77988C23.1588 3.77988 23.0609 3.80959 22.9776 3.86525C22.8943 3.92091 22.8293 4.00002 22.791 4.09258C22.7527 4.18514 22.7426 4.28698 22.7622 4.38524C22.7817 4.4835 22.83 4.57376 22.9008 4.64459C22.9717 4.71543 23.0619 4.76367 23.1602 4.78321C23.2584 4.80275 23.3603 4.79271 23.4529 4.75437C23.5454 4.71602 23.6245 4.65109 23.6802 4.56779C23.7358 4.48448 23.7655 4.38654 23.7655 4.28636C23.7654 4.15207 23.7119 4.02332 23.617 3.92837C23.522 3.83342 23.3933 3.78001 23.259 3.77988V3.77988ZM23.259 4.34238C23.2479 4.34238 23.2371 4.33909 23.2279 4.33293C23.2186 4.32678 23.2115 4.31803 23.2072 4.3078C23.203 4.29756 23.2019 4.2863 23.204 4.27543C23.2062 4.26457 23.2115 4.25458 23.2194 4.24675C23.2272 4.23892 23.2372 4.23358 23.248 4.23142C23.2589 4.22926 23.2702 4.23037 23.2804 4.23461C23.2906 4.23885 23.2994 4.24603 23.3056 4.25524C23.3117 4.26445 23.315 4.27528 23.315 4.28636C23.3149 4.3012 23.309 4.31541 23.2985 4.3259C23.288 4.33639 23.2738 4.34231 23.259 4.34238V4.34238Z" fill="#C2CCDB"/>
<path d="M11.9266 10.5014C11.9266 10.4012 11.8969 10.3033 11.8413 10.22C11.7856 10.1367 11.7065 10.0718 11.6139 10.0334C11.5213 9.9951 11.4194 9.98509 11.3212 10.0047C11.2229 10.0242 11.1327 10.0725 11.0618 10.1434C10.991 10.2142 10.9428 10.3045 10.9233 10.4028C10.9038 10.5011 10.9138 10.6029 10.9522 10.6955C10.9906 10.788 11.0556 10.8671 11.1389 10.9227C11.2222 10.9784 11.3202 11.008 11.4204 11.008C11.5546 11.0078 11.6833 10.9543 11.7782 10.8594C11.8731 10.7644 11.9265 10.6357 11.9266 10.5014V10.5014ZM11.4204 10.5577C11.4093 10.5577 11.3985 10.5544 11.3893 10.5483C11.3801 10.5421 11.3729 10.5334 11.3686 10.5232C11.3644 10.513 11.3632 10.5017 11.3654 10.4909C11.3675 10.48 11.3728 10.47 11.3806 10.4622C11.3884 10.4543 11.3984 10.449 11.4093 10.4468C11.4201 10.4446 11.4314 10.4456 11.4416 10.4498C11.4518 10.454 11.4606 10.4612 11.4668 10.4704C11.473 10.4796 11.4763 10.4904 11.4764 10.5014C11.4763 10.5163 11.4703 10.5305 11.4598 10.541C11.4493 10.5515 11.435 10.5574 11.4202 10.5574L11.4204 10.5577Z" fill="#C2CCDB"/>
<path d="M22.4245 10.8206C22.3243 10.8206 22.2264 10.8503 22.1431 10.9059C22.0598 10.9616 21.9949 11.0407 21.9565 11.1332C21.9182 11.2258 21.9082 11.3276 21.9277 11.4259C21.9472 11.5242 21.9955 11.6144 22.0663 11.6853C22.1372 11.7561 22.2274 11.8043 22.3257 11.8239C22.4239 11.8434 22.5258 11.8334 22.6183 11.7951C22.7109 11.7567 22.79 11.6918 22.8457 11.6085C22.9013 11.5252 22.931 11.4273 22.931 11.3271C22.9309 11.1928 22.8775 11.064 22.7825 10.9691C22.6875 10.8741 22.5588 10.8207 22.4245 10.8206V10.8206ZM22.4245 11.3831C22.4134 11.383 22.4026 11.3798 22.3934 11.3736C22.3842 11.3674 22.3771 11.3587 22.3728 11.3485C22.3686 11.3382 22.3675 11.327 22.3697 11.3161C22.3718 11.3053 22.3772 11.2953 22.385 11.2875C22.3928 11.2797 22.4028 11.2743 22.4136 11.2722C22.4245 11.27 22.4358 11.2711 22.446 11.2754C22.4562 11.2796 22.4649 11.2868 22.4711 11.296C22.4772 11.3052 22.4805 11.316 22.4805 11.3271C22.4804 11.3419 22.4745 11.3561 22.464 11.3666C22.4535 11.3771 22.4393 11.383 22.4245 11.3831V11.3831Z" fill="#C2CCDB"/>
</svg>
