<svg width="80" height="80" viewBox="0 0 80 80" fill="none" xmlns="http://www.w3.org/2000/svg">
<path d="M63.2251 49.5568C61.5873 47.8514 59.6118 46.9396 57.5182 46.9396C55.4414 46.9396 53.449 47.8345 51.7436 49.5399L46.4081 54.8585C45.9691 54.6221 45.5301 54.4026 45.108 54.1831C44.5002 53.8792 43.9261 53.5922 43.4364 53.2882C38.4386 50.1139 33.8967 45.9772 29.5405 40.6248C27.4299 37.9571 26.0116 35.7114 24.9816 33.432C26.3662 32.1657 27.6494 30.8487 28.8989 29.5823C29.3716 29.1096 29.8444 28.6199 30.3172 28.1471C33.8629 24.6014 33.8629 20.0088 30.3172 16.463L25.7077 11.8535C25.1843 11.3301 24.6439 10.7898 24.1374 10.2495C23.1243 9.20267 22.0606 8.12206 20.9631 7.10898C19.3253 5.48807 17.3667 4.62695 15.3068 4.62695C13.2469 4.62695 11.2545 5.48807 9.56604 7.10898C9.54916 7.12587 9.54916 7.12587 9.53228 7.14275L3.79153 12.9342C1.63031 15.0954 0.397736 17.7294 0.127583 20.7855C-0.277646 25.7158 1.17442 30.3084 2.2888 33.3138C5.0241 40.6924 9.11016 47.5306 15.2055 54.8585C22.6009 63.6891 31.4991 70.6624 41.6636 75.5758C45.547 77.4163 50.7306 79.5944 56.522 79.9658C56.8765 79.9827 57.248 79.9996 57.5857 79.9996C61.486 79.9996 64.7616 78.5982 67.3281 75.8122C67.345 75.7785 67.3787 75.7616 67.3956 75.7278C68.2736 74.6641 69.2867 73.7017 70.3504 72.6717C71.0765 71.9794 71.8194 71.2534 72.5454 70.4936C74.217 68.7545 75.095 66.7283 75.095 64.6515C75.095 62.5579 74.2001 60.5486 72.4948 58.8601L63.2251 49.5568ZM69.2698 67.3362C69.2529 67.3362 69.2529 67.3531 69.2698 67.3362C68.6113 68.0453 67.9359 68.6869 67.2099 69.3961C66.1124 70.4429 64.998 71.5404 63.9512 72.773C62.2458 74.5965 60.2366 75.4577 57.6026 75.4577C57.3493 75.4577 57.0792 75.4577 56.8259 75.4408C51.8112 75.12 47.151 73.1614 43.6559 71.4898C34.0993 66.8634 25.7077 60.2953 18.7344 51.9712C12.9767 45.0317 9.12705 38.6156 6.57748 31.7267C5.00722 27.5224 4.43314 24.2468 4.68641 21.1569C4.85526 19.1814 5.61506 17.5436 7.01648 16.1422L12.7741 10.3846C13.6015 9.6079 14.4794 9.18578 15.3406 9.18578C16.4043 9.18578 17.2654 9.8274 17.8057 10.3677C17.8226 10.3846 17.8395 10.4015 17.8564 10.4184C18.8863 11.3808 19.8656 12.377 20.8956 13.4407C21.419 13.981 21.9593 14.5213 22.4996 15.0785L27.1091 19.688C28.8989 21.4777 28.8989 23.1324 27.1091 24.9222C26.6194 25.4118 26.1467 25.9015 25.657 26.3743C24.2387 27.8263 22.888 29.1771 21.419 30.4941C21.3852 30.5279 21.3515 30.5447 21.3346 30.5785C19.8825 32.0306 20.1527 33.4489 20.4566 34.4113C20.4735 34.462 20.4903 34.5126 20.5072 34.5633C21.706 37.4674 23.3945 40.2027 25.9609 43.4614L25.9778 43.4783C30.638 49.2191 35.5514 53.6935 40.9713 57.121C41.6636 57.56 42.3727 57.9146 43.0481 58.2523C43.6559 58.5562 44.23 58.8433 44.7197 59.1472C44.7872 59.1809 44.8547 59.2316 44.9223 59.2654C45.4964 59.5524 46.0367 59.6875 46.5939 59.6875C47.9953 59.6875 48.8733 58.8095 49.1603 58.5224L54.9348 52.7479C55.5089 52.1739 56.4207 51.4816 57.4844 51.4816C58.5312 51.4816 59.3923 52.1401 59.9158 52.7142C59.9326 52.731 59.9327 52.731 59.9495 52.7479L69.2529 62.0513C70.992 63.7735 70.992 65.5464 69.2698 67.3362Z" fill="#2F80ED"/>
<path d="M43.2337 19.0301C47.6574 19.773 51.6759 21.8667 54.884 25.0748C58.0921 28.2828 60.1688 32.3014 60.9287 36.7251C61.1144 37.8395 62.0768 38.6162 63.1743 38.6162C63.3094 38.6162 63.4276 38.5993 63.5626 38.5824C64.8121 38.3798 65.6394 37.1979 65.4368 35.9484C64.5251 30.596 61.9924 25.7164 58.1258 21.8498C54.2593 17.9833 49.3796 15.4506 44.0272 14.5388C42.7778 14.3362 41.6128 15.1635 41.3933 16.3961C41.1738 17.6287 41.9842 18.8275 43.2337 19.0301Z" fill="#2F80ED"/>
<path d="M79.9074 35.2897C78.4047 26.476 74.2511 18.4558 67.8687 12.0734C61.4864 5.69107 53.4662 1.53748 44.6525 0.0347509C43.4199 -0.184748 42.2549 0.659479 42.0354 1.89205C41.8328 3.14151 42.6601 4.30654 43.9096 4.52604C51.7778 5.85992 58.9537 9.5914 64.6607 15.2815C70.3677 20.9885 74.0823 28.1644 75.4161 36.0326C75.6019 37.147 76.5643 37.9237 77.6618 37.9237C77.7969 37.9237 77.915 37.9068 78.0501 37.8899C79.2827 37.7042 80.1269 36.5223 79.9074 35.2897Z" fill="#2F80ED"/>
</svg>
