<svg width="235" height="48" viewBox="0 0 235 48" fill="none" xmlns="http://www.w3.org/2000/svg">
<rect width="235" height="48" rx="4" fill="#27AE60"/>
<path d="M68.0029 25.0693H65.5244V30H63.3008V17.2031H67.8008C69.2773 17.2031 70.417 17.5342 71.2197 18.1963C72.0225 18.8584 72.4238 19.8164 72.4238 21.0703C72.4238 21.9258 72.2158 22.6436 71.7998 23.2236C71.3896 23.7979 70.8154 24.2402 70.0771 24.5508L72.9512 29.8857V30H70.5693L68.0029 25.0693ZM65.5244 23.2852H67.8096C68.5596 23.2852 69.1455 23.0977 69.5674 22.7227C69.9893 22.3418 70.2002 21.8232 70.2002 21.167C70.2002 20.4814 70.0039 19.9512 69.6113 19.5762C69.2246 19.2012 68.6445 19.0078 67.8711 18.9961H65.5244V23.2852ZM82.0127 24.2871H76.7568V28.2246H82.9004V30H74.5332V17.2031H82.8389V18.9961H76.7568V22.5293H82.0127V24.2871ZM94.1328 18.9961H90.1426V30H87.9365V18.9961H83.9814V17.2031H94.1328V18.9961ZM105.181 17.2031V25.7549C105.181 27.1143 104.744 28.1924 103.871 28.9893C103.004 29.7803 101.847 30.1758 100.399 30.1758C98.9346 30.1758 97.7715 29.7861 96.9102 29.0068C96.0488 28.2217 95.6182 27.1348 95.6182 25.7461V17.2031H97.833V25.7637C97.833 26.6191 98.0498 27.2725 98.4834 27.7236C98.917 28.1748 99.5557 28.4004 100.399 28.4004C102.11 28.4004 102.966 27.498 102.966 25.6934V17.2031H105.181ZM112.265 25.0693H109.786V30H107.562V17.2031H112.062C113.539 17.2031 114.679 17.5342 115.481 18.1963C116.284 18.8584 116.686 19.8164 116.686 21.0703C116.686 21.9258 116.478 22.6436 116.062 23.2236C115.651 23.7979 115.077 24.2402 114.339 24.5508L117.213 29.8857V30H114.831L112.265 25.0693ZM109.786 23.2852H112.071C112.821 23.2852 113.407 23.0977 113.829 22.7227C114.251 22.3418 114.462 21.8232 114.462 21.167C114.462 20.4814 114.266 19.9512 113.873 19.5762C113.486 19.2012 112.906 19.0078 112.133 18.9961H109.786V23.2852ZM128.946 30H126.723L121.019 20.9209V30H118.795V17.2031H121.019L126.74 26.3174V17.2031H128.946V30ZM144.775 18.9961H140.785V30H138.579V18.9961H134.624V17.2031H144.775V18.9961ZM156.43 23.9355C156.43 25.1895 156.213 26.291 155.779 27.2402C155.346 28.1836 154.725 28.9102 153.916 29.4199C153.113 29.9238 152.188 30.1758 151.139 30.1758C150.102 30.1758 149.176 29.9238 148.361 29.4199C147.553 28.9102 146.926 28.1865 146.48 27.249C146.041 26.3115 145.818 25.2305 145.812 24.0059V23.2852C145.812 22.0371 146.032 20.9355 146.472 19.9805C146.917 19.0254 147.541 18.2959 148.344 17.792C149.152 17.2822 150.078 17.0273 151.121 17.0273C152.164 17.0273 153.087 17.2793 153.89 17.7832C154.698 18.2812 155.322 19.002 155.762 19.9453C156.201 20.8828 156.424 21.9756 156.43 23.2236V23.9355ZM154.206 23.2676C154.206 21.8496 153.937 20.7627 153.397 20.0068C152.864 19.251 152.105 18.873 151.121 18.873C150.16 18.873 149.407 19.251 148.862 20.0068C148.323 20.7568 148.048 21.8203 148.036 23.1973V23.9355C148.036 25.3418 148.309 26.4287 148.854 27.1963C149.404 27.9639 150.166 28.3477 151.139 28.3477C152.123 28.3477 152.879 27.9727 153.406 27.2227C153.939 26.4727 154.206 25.377 154.206 23.9355V23.2676ZM173.287 30H171.072V24.3135H165.351V30H163.127V17.2031H165.351V22.5293H171.072V17.2031H173.287V30ZM186.137 23.9355C186.137 25.1895 185.92 26.291 185.486 27.2402C185.053 28.1836 184.432 28.9102 183.623 29.4199C182.82 29.9238 181.895 30.1758 180.846 30.1758C179.809 30.1758 178.883 29.9238 178.068 29.4199C177.26 28.9102 176.633 28.1865 176.188 27.249C175.748 26.3115 175.525 25.2305 175.52 24.0059V23.2852C175.52 22.0371 175.739 20.9355 176.179 19.9805C176.624 19.0254 177.248 18.2959 178.051 17.792C178.859 17.2822 179.785 17.0273 180.828 17.0273C181.871 17.0273 182.794 17.2793 183.597 17.7832C184.405 18.2812 185.029 19.002 185.469 19.9453C185.908 20.8828 186.131 21.9756 186.137 23.2236V23.9355ZM183.913 23.2676C183.913 21.8496 183.644 20.7627 183.104 20.0068C182.571 19.251 181.812 18.873 180.828 18.873C179.867 18.873 179.114 19.251 178.569 20.0068C178.03 20.7568 177.755 21.8203 177.743 23.1973V23.9355C177.743 25.3418 178.016 26.4287 178.561 27.1963C179.111 27.9639 179.873 28.3477 180.846 28.3477C181.83 28.3477 182.586 27.9727 183.113 27.2227C183.646 26.4727 183.913 25.377 183.913 23.9355V23.2676ZM191.234 17.2031L194.926 27.0117L198.608 17.2031H201.482V30H199.268V25.7812L199.487 20.1387L195.708 30H194.117L190.347 20.1475L190.566 25.7812V30H188.352V17.2031H191.234ZM211.599 24.2871H206.343V28.2246H212.486V30H204.119V17.2031H212.425V18.9961H206.343V22.5293H211.599V24.2871Z" fill="white"/>
<path d="M32 32V26H36V32H41V24H44L34 15L24 24H27V32H32Z" fill="white"/>
</svg>
