<svg id="Layer_1" data-name="Layer 1" xmlns="http://www.w3.org/2000/svg" viewBox="0 0 1500 1500"><defs><style>.cls-1{fill:#fff;}</style></defs><title>logo</title><path class="cls-1" d="M819.12,2.46c42,8.7,84.68,15.22,126,26.45,295.55,80.32,510.37,327.41,548.94,629.92,50.47,395.79-223.32,764.94-617.55,832.64C464.27,1562.28,77.05,1283.65,9.42,867.53-56.32,463,226.3,73.47,629.76,12.34c17.11-2.6,34-6.55,51-9.88ZM362,752.26l9.76.31c0,62-3.48,124.16.76,185.83,7.59,110.31,86.06,188,197,191.56,121.19,3.85,242.67,3.56,363.87-.07,105.14-3.14,188.64-82.1,193-186.82,5.31-127.29,4.85-255.1.11-382.43-3.67-98.6-82.77-180.16-180.59-184.21-130.81-5.42-262.16-5.07-393,0-88.39,3.43-160.17,69.1-174.23,156.44C367,605,367.07,679.06,362,752.26Z"/><path class="cls-1" d="M750.83,435.52c61.87,2.78,124,3.42,185.62,8.91,69.6,6.19,114.25,52.51,121.89,122.27,3.46,31.63,5.93,63.59,5.65,95.37-.82,90.31-.82,180.74-5.86,270.86-4.27,76.48-53.46,125.65-130,127.78q-177.73,4.93-355.68,0c-77.32-2.17-127.69-50-130.36-126.92-4.23-122-3.75-244.24.1-366.22,2.24-70.94,51.51-117.25,122.77-123.33C626.61,439,688.68,438.27,750.83,435.52ZM750,556A196.31,196.31,0,0,0,553.17,753.42c.25,106.92,89.27,195.54,196.39,195.51,108.46,0,197.59-89.5,197.12-197.87C946.22,643.79,857.66,556,750,556Zm204.83-53.7c-25.67,0-45.32,19.45-45.39,45a45.41,45.41,0,0,0,45,45.73c24.58.21,45.27-20.4,45.51-45.35A44.85,44.85,0,0,0,954.79,502.25Z"/><path class="cls-1" d="M750.11,624.93A127.52,127.52,0,0,1,877.74,753.3c-.46,68.9-58.19,126.71-127,127.17-70.15.46-128.56-57.66-128.6-128C622.11,681.33,678.79,624.83,750.11,624.93Z"/></svg>