<svg width="942" height="605" viewBox="0 0 942 605" fill="none" xmlns="http://www.w3.org/2000/svg">
<path d="M763.335 602.576C763.335 602.576 856.553 600.375 896.384 543.861C968.548 441.511 936.025 351.755 807.556 358.433C663.838 365.907 681.563 48.6297 432.711 201.388C378.676 234.56 258.411 164.897 210.364 310.031C198.951 344.556 113.145 346.947 57.6939 374.629C-29.2931 418.043 -4.7289 603.302 77.4465 604.032C159.622 604.762 763.335 602.576 763.335 602.576Z" fill="#EBF2F9"/>
<path d="M326.437 127.149H321.974V86.371L320.573 86.2463V70.051L320.98 68.7088L125.875 9.93134L44.4216 64.8837L45.2064 66.0462C43.9334 66.0501 42.7137 66.5575 41.8135 67.4576C40.9134 68.3578 40.406 69.5775 40.4021 70.8505V98.8658C40.406 100.139 40.9134 101.359 41.8135 102.259C42.7137 103.159 43.9334 103.666 45.2064 103.67H86.0282C87.3012 103.666 88.521 103.159 89.4211 102.259C90.3212 101.359 90.8286 100.139 90.8325 98.8658V87.6582H118.048V603.163H150.068V87.6582H281.779L318.479 127.149H310.95C309.677 127.153 308.457 127.66 307.557 128.56C306.657 129.46 306.149 130.68 306.146 131.953V136.754C306.148 138.027 306.656 139.247 307.556 140.148C308.456 141.048 309.677 141.555 310.95 141.558H326.423C327.696 141.555 328.916 141.048 329.817 140.148C330.717 139.247 331.224 138.027 331.227 136.754V131.953C331.223 130.683 330.718 129.465 329.821 128.565C328.924 127.666 327.708 127.157 326.437 127.149ZM126.337 12.9973L315.717 70.051H90.7592C90.5683 68.9333 89.9892 67.9188 89.1237 67.1862C88.2583 66.4536 87.1621 66.0499 86.0282 66.0462H47.7112L126.337 12.9973ZM304.671 87.6582L319.172 88.9418V123.782L285.604 87.6766L304.671 87.6582Z" fill="#D2E4FF"/>
<path d="M253.148 603.078H112.279C119.064 598.072 143.412 580.612 165.457 571.172C174.596 567.266 183.339 564.739 190.274 565.051C212.278 566.067 243.11 593.572 253.148 603.078Z" fill="#E27F2B"/>
<path d="M208.369 603.078H67.5005C77.0944 595.997 121.829 564.002 145.502 565.062C151.678 565.341 158.551 567.71 165.464 571.183C183.174 580.08 201.148 596.231 208.369 603.078Z" fill="#E69D43"/>
<path d="M889.893 156.598L890.432 155.802L834.563 118.109L700.728 158.424L700.989 159.352V170.468L700.028 170.552V198.52H696.969C696.094 198.52 695.254 198.868 694.635 199.487C694.016 200.106 693.669 200.945 693.669 201.821V205.121C693.669 205.997 694.016 206.836 694.635 207.455C695.254 208.074 696.094 208.422 696.969 208.422H707.59C708.466 208.422 709.305 208.074 709.924 207.455C710.543 206.836 710.891 205.997 710.891 205.121V201.821C710.891 200.945 710.543 200.106 709.924 199.487C709.305 198.868 708.466 198.52 707.59 198.52H702.423L727.611 171.433H817.979V525.04H839.943V171.425H858.61V179.127C858.61 180.002 858.958 180.842 859.577 181.461C860.196 182.08 861.035 182.428 861.911 182.428H889.915C890.79 182.428 891.63 182.08 892.249 181.461C892.868 180.842 893.216 180.002 893.216 179.127V159.91C893.217 159.473 893.132 159.041 892.965 158.638C892.799 158.235 892.554 157.869 892.245 157.561C891.936 157.253 891.569 157.009 891.165 156.844C890.762 156.679 890.329 156.595 889.893 156.598ZM834.244 120.21L888.177 156.598H861.889C861.111 156.601 860.36 156.878 859.767 157.38C859.174 157.883 858.777 158.579 858.647 159.345H704.337L834.244 120.21ZM701.964 196.191V172.305L711.914 171.425H724.992L701.964 196.191Z" fill="#EBF2F9"/>
<path d="M624.956 28.6497H440.178V603.639H624.956V28.6497Z" fill="#D2E4FF"/>
<path opacity="0.5" d="M573.921 107.987H440.178V192.223H573.921V107.987Z" fill="#AED3FF"/>
<path opacity="0.5" d="M573.921 262.234H440.178V346.47H573.921V262.234Z" fill="#AED3FF"/>
<path opacity="0.5" d="M573.921 414.493H440.178V498.73H573.921V414.493Z" fill="#AED3FF"/>
<path d="M855.306 498.191H830.367V420.295H624.956V28.6497H573.921V603.962H624.956V603.639H830.367H855.306V498.191Z" fill="#AED3FF"/>
<path d="M941.02 605H0.948107C0.703295 604.999 0.468789 604.901 0.295679 604.728C0.12257 604.555 0.0248915 604.321 0.0239258 604.076C0.0258436 603.831 0.123827 603.597 0.296731 603.424C0.469635 603.252 0.703591 603.154 0.948107 603.152H941.02C941.265 603.154 941.499 603.252 941.672 603.424C941.844 603.597 941.942 603.831 941.944 604.076C941.943 604.321 941.846 604.555 941.673 604.728C941.5 604.901 941.265 604.999 941.02 605Z" fill="#283250"/>
<path d="M663.152 603.166C663.152 603.166 663.519 595.208 665.654 590.939C667.788 586.67 684.863 589.604 684.863 589.604C684.863 589.604 688.799 596.726 688.267 603.13L663.152 603.166Z" fill="#233862"/>
<path d="M617.324 603.166C617.324 603.166 617.691 595.208 619.826 590.939C621.96 586.67 639.039 589.604 639.039 589.604C639.039 589.604 642.974 596.726 642.439 603.13L617.324 603.166Z" fill="#233862"/>
<path d="M674.217 265.395C672.086 266.943 652.777 277.021 652.777 277.021L632.408 262.501C632.408 262.501 638.595 261.603 638.757 261.555C640.59 261.042 640.51 256.117 640.744 250.868C640.777 250.058 640.821 249.244 640.884 248.433L660.82 247.7V247.946C660.839 248.19 660.858 248.454 660.875 248.738L660.915 249.306C660.915 249.504 660.944 249.699 660.959 249.904C661.326 254.514 662.089 261.027 663.563 261.786C664.421 262.23 670.095 262.164 674.217 265.395Z" fill="#D9935C"/>
<path d="M660.981 249.915C659.338 253.216 655.674 258.933 650.243 258.746C645.057 258.559 642.105 253.846 640.752 250.868C640.785 250.058 640.829 249.244 640.891 248.433L660.827 247.7V247.946L660.882 248.738L660.922 249.306C660.952 249.515 660.966 249.71 660.981 249.915Z" fill="#CB7D45"/>
<path d="M638.518 203.988C638.518 203.988 648.134 194.413 659.481 204.182C659.481 204.182 652.733 202.782 638.518 203.988Z" fill="#2B478B"/>
<path d="M634.95 239.21C632.911 234.815 631.262 230.248 630.025 225.563C628.682 220.319 629.911 200.427 649.913 201.777C653.94 202.031 657.859 203.185 661.381 205.154C665.892 207.722 672.563 213.534 666.919 231.237L665.554 237.178L634.95 239.21Z" fill="#B64C41"/>
<path d="M662.932 247.564C657.769 252.501 651.354 259.08 637.528 246.915C634.822 244.535 635.005 240.875 634.847 235.619C634.657 229.385 633.16 225.589 633.857 222.002C634.682 217.712 638.35 215.768 645.959 215.111C659.94 213.897 667.007 217.048 666.068 223.986C663.977 239.47 668.18 242.544 662.932 247.564Z" fill="#D9935C"/>
<path d="M651.538 214.858C651.538 214.858 659.826 214.682 661.718 217.455C663.611 220.227 663.871 223.323 664.825 224.885C665.401 225.886 665.677 227.032 665.62 228.186L667.454 215.815L656.247 213.6L651.538 214.858Z" fill="#B64C41"/>
<path d="M699.889 283.09C699.889 283.09 696.35 293.52 682.003 295.431C681.614 295.482 681.214 295.526 680.807 295.567H622.36L622.048 295.471C619.778 294.738 605.816 289.97 604.349 281.022C604.349 281.022 611.684 265.949 617.291 264.078C619.34 263.47 621.439 263.047 623.563 262.813C625.994 262.501 628.55 262.296 630.696 262.157C633.652 261.973 635.83 261.926 635.83 261.926C635.83 261.926 640.381 271.153 651.457 271.017C662.532 270.882 665.096 262.061 665.096 262.061C665.096 262.061 668.206 262.149 672.335 262.597C674.613 262.843 677.198 263.195 679.747 263.697C684.067 264.555 688.274 265.853 690.68 267.808C697.072 273.016 699.889 283.09 699.889 283.09Z" fill="#9ED9F0"/>
<path d="M685.974 363.758C685.351 360.304 684.427 355.045 683.701 350.42C683.701 350.358 685.864 324.308 686.664 319.911C687.463 315.514 682.028 291.555 682.028 291.555C680.763 287.887 678.618 286.769 676.971 286.769L679.736 263.704C677.169 263.195 674.602 262.843 672.324 262.604L671 286.776L670.978 287.143C667.949 287.311 664.172 287.51 660.655 287.671C657.138 287.832 653.877 287.946 651.853 287.946C647.775 287.946 638.419 287.48 632.203 287.139L632.177 286.794L630.677 262.182C628.532 262.322 625.976 262.527 623.544 262.839L626.188 286.794C624.446 286.794 622.444 289.886 622.154 291.602L621.887 299.095C620.57 302.869 617.852 311.252 617.39 317.135C616.793 324.91 620.042 351.975 620.064 352.155C619.947 355.378 619.697 359.49 619.275 363.487C616.837 370.088 606.439 400.869 607.481 442.237C608.471 480.858 609.054 546.846 613.606 578.884C614.339 584.085 615.186 588.39 616.173 591.537C616.414 592.314 616.872 593.006 617.493 593.532C618.114 594.058 618.872 594.395 619.679 594.504C624.898 595.237 636.659 596.561 641.72 594.72C644.144 593.836 645.882 580.37 647.111 563.005C648.288 546.362 648.996 526.133 649.388 509.989C649.704 497.12 649.825 486.844 649.825 483.041C649.825 474.437 651.86 449.19 652.531 434.341C652.531 434.254 652.566 434.17 652.628 434.108C652.69 434.046 652.774 434.011 652.861 434.011C652.949 434.011 653.033 434.046 653.095 434.108C653.157 434.17 653.192 434.254 653.192 434.341C654.211 451.97 657.772 478.717 657.831 484.647C657.963 499.056 657.123 591.625 663.42 594.735C668.235 597.111 679.582 595.314 685.002 594.581C685.961 594.451 686.862 594.045 687.594 593.413C688.327 592.781 688.86 591.949 689.128 591.02C695.902 567.728 696.5 486.792 697.64 442.252C698.704 401.43 688.6 370.961 685.974 363.758Z" fill="#2B478B"/>
<path d="M632.9 380.416C630.901 382.018 624.366 381.347 621.832 379.217C619.297 377.086 614.225 377.75 613.03 376.946C612.945 376.891 589.349 348.927 586.79 337.159C584.222 325.284 600.542 292.604 605.167 283.695C608.589 290.924 619.987 294.826 622.037 295.471L622.349 295.567H622.983C619.136 305.964 607.635 324.682 603.205 331.735C602.663 332.598 602.345 333.584 602.281 334.602C602.217 335.62 602.409 336.637 602.838 337.562C608.53 349.767 614.097 360.062 616.536 367.191C617.02 367.983 618.058 369.392 619.316 369.208C621.054 368.94 626.65 367.741 629.456 371.874C632.262 376.008 634.902 378.817 632.9 380.416Z" fill="#D9935C"/>
<path d="M668.822 204.267C667.551 202.645 666.112 201.162 664.531 199.84C664.095 199.474 663.625 199.081 663.126 198.707C658.058 194.849 649.95 191.086 640.176 195.164C637.706 196.191 635.446 197.663 633.509 199.507C633.076 199.917 632.665 200.335 632.28 200.772C623.805 210.175 624.523 224.922 624.523 224.922L673.428 224.401C673.571 210.747 668.822 204.267 668.822 204.267Z" fill="#FFA412"/>
<path d="M659.676 224.548C659.536 222.49 658.601 205.616 664.531 199.844C664.266 199.599 663.988 199.367 663.699 199.151C657.376 205.785 656.973 222.402 656.995 224.573L641.364 224.742C640.899 212.764 634.29 200.838 633.494 199.507C633.177 199.798 632.876 200.107 632.592 200.431C633.74 202.451 638.056 214 638.46 224.771L624.498 224.922C624.498 224.922 637.521 228.288 647.331 228.167C657.142 228.046 673.403 224.401 673.403 224.401L659.676 224.548Z" fill="#E27F2B"/>
<path d="M634.752 289.296C629.75 298.9 615.538 300.701 615.538 300.701C620.145 289.494 610.87 285.962 605.134 274.487C599.398 263.011 609.535 255.416 609.535 255.416C603.264 256.619 602.064 265.025 602.064 265.025C601.533 259.421 606.201 249.952 621.01 248.081C631.855 246.713 634.473 243.057 635.097 241.198C635.339 243.611 635.925 245.499 637.546 246.926C638.691 247.935 639.787 248.811 640.847 249.574C640.821 250.01 640.803 250.447 640.781 250.88C640.719 252.346 640.678 253.813 640.609 255.141C639.875 255.998 639.352 257.016 639.082 258.112C638.813 259.208 638.804 260.353 639.057 261.453C639.165 261.995 639.337 262.522 639.571 263.022C640.977 264.891 641.863 267.099 642.138 269.422C642.813 275.759 638.504 282.093 634.752 289.296Z" fill="#B64C41"/>
<path d="M685.861 363.131L683.701 350.424C674.311 353.914 664.446 355.962 654.442 356.497C653.918 355.526 653.175 354.692 652.27 354.06C651.366 353.428 650.326 353.017 649.235 352.859L641.474 351.737C640.019 351.527 638.534 351.776 637.227 352.449C635.92 353.122 634.855 354.186 634.18 355.492C626.728 354.341 621.711 352.65 620.101 352.067V352.136L619.331 363.293V363.322C623.812 364.514 628.11 365.442 632.221 366.146L631.99 367.701C631.718 369.554 632.192 371.44 633.308 372.945C634.423 374.45 636.09 375.451 637.943 375.729L646.543 377.02C647.512 377.164 648.502 377.106 649.447 376.848C650.393 376.591 651.276 376.139 652.038 375.523C652.8 374.906 653.426 374.138 653.876 373.267C654.326 372.396 654.59 371.441 654.651 370.462L654.802 368.071C671.191 367.987 682.087 364.54 685.861 363.131Z" fill="#233862"/>
<path d="M717.309 337.159C714.742 348.927 691.153 376.891 691.068 376.946C690.782 377.105 690.469 377.208 690.144 377.251H690.1C688.149 377.588 684.35 377.449 682.263 379.209C679.729 381.34 673.19 382.011 671.187 380.408C669.185 378.806 671.859 376.008 674.657 371.867C677.455 367.727 683.063 368.933 684.797 369.201C685.828 369.359 686.723 368.431 687.269 367.653C687.281 367.639 687.292 367.625 687.302 367.609C687.405 367.459 687.504 367.312 687.577 367.184C689.965 360.216 695.337 350.218 700.893 338.369C701.443 337.202 701.69 335.916 701.613 334.629C701.537 333.342 701.138 332.094 700.453 331.001C696.742 325.071 689.209 312.756 684.364 302.876C683.8 300.019 683.235 297.331 682.798 295.299C693.434 293.586 697.835 287.11 699.276 284.348C704.308 294.118 719.828 325.559 717.309 337.159Z" fill="#D9935C"/>
<path d="M877.046 387.886C873.474 388.708 857.345 388.906 846.02 386.361C843.86 385.908 841.749 385.25 839.715 384.395C837.581 383.452 835.975 382.315 835.153 380.947C833.873 378.817 831.53 371.515 828.776 361.943C821.191 335.571 810.519 291.991 810.519 291.991C810.519 291.991 831.952 296.366 836.484 300.1C841.017 303.833 845.026 363.069 849.291 364.672C849.922 364.906 851.007 365.405 852.394 366.087C852.463 366.12 852.529 366.157 852.599 366.186C853.428 366.597 854.359 367.07 855.368 367.587C864.217 372.135 878.861 380.328 880.38 382.15C882.382 384.549 882.25 386.683 877.046 387.886Z" fill="#739AF0"/>
<path d="M835.92 325.716C835.917 324.7 835.822 323.686 835.637 322.687C832.879 307.522 810.948 291.991 810.519 291.991V292.306C810.519 294.624 806.852 298.908 801.237 299.274C794.559 299.711 786.322 295.904 786.322 292.057C786.281 292.057 782.57 292.559 781.312 292.699C775.961 293.308 765.282 296.198 760.709 299.667C756.359 302.968 762.506 323.674 766.313 338.347C767.923 344.552 769.114 349.676 768.916 351.946C768.821 353.046 767.816 368.115 766.936 381.74C766.203 392.98 765.535 403.238 765.517 403.88C765.465 405.156 771.814 409.627 782.471 413.008C785.243 413.886 788.059 414.62 790.906 415.208C796.958 416.45 803.121 417.064 809.298 417.042C811.499 417.042 813.585 416.925 815.555 416.727C830.793 415.201 836.008 397.851 835.92 325.716Z" fill="#739AF0"/>
<path d="M786.322 291.877C786.194 285.984 786.289 278.953 787.085 273.012L810.597 276.852C810.597 276.852 810.622 284.029 810.519 291.991C810.519 291.991 811.158 299.377 802.062 300.455C792.967 301.534 786.073 297.576 786.322 291.877Z" fill="#D9935C"/>
<path d="M805.99 603.17C803.034 601.336 804.773 587.866 804.773 587.866C804.773 587.866 818.617 576.864 820.484 585.339C822.351 593.814 833.551 597.639 839.921 598.699C844.322 599.433 845.95 601.707 846.368 603.152L805.99 603.17Z" fill="#233862"/>
<path d="M784.455 371.328C784.455 393.875 773.526 387.798 766.932 381.71C767.82 368.086 768.443 319.83 768.443 319.83C768.443 319.83 784.455 339.055 784.455 371.328Z" fill="#4A75CB"/>
<path d="M855.386 367.587C854.95 370.752 849.955 379.957 846.038 386.361C843.879 385.908 841.768 385.25 839.734 384.395C837.599 383.452 835.993 382.315 835.172 380.947C833.892 378.817 831.548 371.515 828.794 361.943C830.833 350.16 832.769 338.523 832.769 338.523L833.371 330.719C833.371 331.32 842.506 365.607 846.647 366.406C849.141 366.894 850.908 366.304 852.412 366.087C852.482 366.12 852.548 366.157 852.617 366.186C853.428 366.597 854.359 367.07 855.386 367.587Z" fill="#4A75CB"/>
<path d="M763.566 603.17C760.61 601.336 762.344 587.866 762.344 587.866C762.344 587.866 776.192 576.864 778.059 585.339C779.926 593.814 791.126 597.639 797.496 598.699C801.897 599.433 803.5 601.707 803.918 603.152L763.566 603.17Z" fill="#233862"/>
<path d="M784.085 266.231C784.085 266.231 768.388 241.502 798.542 239.848C798.542 239.848 809.845 241.179 812.404 238.623C812.404 238.623 821.173 251.947 812.984 266.231C804.795 280.516 784.085 266.231 784.085 266.231Z" fill="#233862"/>
<path d="M809.911 279.144C807.626 280.941 800.925 282.727 798.989 282.936C798.989 282.936 789.058 280.736 787.253 279.636C784.455 277.941 784.635 274.501 784.492 269.734C784.323 264.086 783.758 259.652 784.382 256.399C785.115 252.504 787.602 250.289 794.511 249.688C807.2 248.587 812.482 251.763 812.705 256.018C812.764 257.158 812.815 258.247 812.852 259.281C813.351 272.55 812.302 277.252 809.911 279.144Z" fill="#D9935C"/>
<path d="M812.958 263.631C812.833 271.333 810.758 275.865 809.258 276.441C807.356 277.15 805.391 277.676 803.39 278.011C802.675 278.095 801.989 278.073 801.996 277.666C802.022 276.456 803.639 274.96 802.436 273.889C801.175 272.763 794.401 272.381 793.855 274.839C793.587 276.038 795.773 278.139 794.276 278.202C793.822 278.125 793.374 278.037 792.949 277.923C791.106 277.414 789.348 276.638 787.73 275.62C784.932 273.925 785.115 271.329 784.499 266.594C784.096 263.536 784.096 265.193 784.499 269.737C784.917 274.505 784.096 277.541 787.257 279.639C789.014 280.802 799.143 285.353 799.143 285.353C798.993 282.944 807.629 280.952 809.914 279.151C812.019 277.479 813.083 273.621 812.958 263.631Z" fill="#233862"/>
<path d="M765.513 403.865C765.465 405.141 771.814 409.612 782.471 412.99C783.329 413.265 784.22 413.529 785.134 413.782C785.139 413.784 785.144 413.788 785.147 413.792C785.151 413.797 785.154 413.802 785.156 413.807C786.149 425.473 788.841 441.955 791.269 457.857C791.896 461.979 792.505 466.064 793.066 470.014C794.533 480.466 795.655 489.994 795.776 496.848V496.922C795.828 500.068 793.173 507.924 792.975 509.728C792.85 510.828 792.751 512.009 792.677 513.238C792.416 518.874 792.491 524.521 792.901 530.148C794.643 557.188 801.787 591.786 804.336 593.257C809.404 596.191 818.639 593.257 823.311 592.571C825.251 592.281 826.806 590.627 826.704 588.673C824.415 543.798 830.991 481.299 835.905 442.883C836.032 441.883 836.154 440.905 836.272 439.949C836.859 435.419 837.247 431.187 837.493 427.373C837.717 424.028 837.827 420.992 837.86 418.359C837.86 417.537 837.878 416.752 837.882 416.011C837.882 413.606 835.982 397.862 835.894 325.727C835.89 324.925 835.569 324.156 835.001 323.588C834.433 323.021 833.664 322.701 832.861 322.698H788.779C787.766 322.699 786.764 322.9 785.83 323.291C784.896 323.682 784.049 324.254 783.338 324.975C782.627 325.696 782.066 326.551 781.688 327.491C781.31 328.43 781.123 329.435 781.136 330.447C781.206 335.948 781.008 343.65 779.812 350.985C778.184 361.001 774.7 370.356 767.504 372.622C767.471 372.696 767.273 373.132 766.958 373.862C766.892 375.674 766.816 377.518 766.731 379.396C766.731 379.763 766.701 380.155 766.679 380.533C766.679 380.757 766.679 380.977 766.646 381.204C766.646 381.571 766.613 381.967 766.591 382.352C766.562 382.983 766.533 383.621 766.496 384.263C766.467 384.769 766.441 385.271 766.411 385.781C766.36 386.757 766.298 387.747 766.235 388.744C766.235 389.063 766.199 389.379 766.177 389.702C766.092 390.992 766.004 392.302 765.902 393.618C765.876 394.022 765.843 394.425 765.81 394.836C765.81 395.03 765.784 395.228 765.766 395.423C765.726 395.94 765.685 396.457 765.641 396.974C765.597 397.491 765.55 398.074 765.502 398.632C765.304 400.638 765.564 402.446 765.513 403.865Z" fill="#2B478B"/>
<path d="M792.901 530.152C794.643 557.192 801.787 591.79 804.336 593.261C809.405 596.195 818.639 593.261 823.311 592.575C825.251 592.285 826.806 590.631 826.704 588.676C824.415 543.802 830.991 481.302 835.905 442.886C836.032 441.886 836.155 440.908 836.272 439.952C836.859 435.423 837.248 431.191 837.493 427.377C835.157 412.146 821.965 411.328 809.988 442.839C811.495 453.28 792.505 523.958 792.901 530.152Z" fill="#233862"/>
<path d="M765.018 495.579C764.651 498.708 760.984 506.138 760.558 507.909C754.511 532.231 757.852 589.901 760.848 592.208C765.487 595.776 775.015 594.082 779.75 594.016C781.716 593.99 783.469 592.549 783.626 590.602C787.345 544.649 802.755 481.537 812.665 444.412C817.656 425.708 818.36 411.959 818.36 411.959C818.36 411.959 772.048 383.584 767.039 399.086C762.601 412.802 767.812 471.58 765.018 495.579Z" fill="#2B478B"/>
<path d="M812.192 232.931C811.869 232.564 811.531 232.223 811.176 231.886C809.578 230.363 807.713 229.147 805.675 228.299C797.606 224.929 790.902 228.039 786.718 231.233C786.303 231.545 785.915 231.86 785.555 232.172C784.249 233.268 783.06 234.497 782.009 235.839C782.009 235.839 778.089 241.19 778.221 252.467L818.599 252.871C818.599 252.871 819.193 240.699 812.192 232.931Z" fill="#FFA412"/>
<path d="M789.538 252.563L791.757 252.588C791.801 251.947 791.695 237.284 786.227 231.593C785.986 231.768 785.756 231.958 785.537 232.161C790.73 237.171 789.549 252.412 789.538 252.563Z" fill="#E27F2B"/>
<path d="M807.09 252.757C807.553 243.779 810.993 234.347 811.92 232.671C811.692 232.395 811.447 232.132 811.187 231.886C810.541 232.986 805.271 242.76 804.714 252.731L778.213 252.445C778.213 252.445 791.643 255.46 799.745 255.559C807.846 255.658 818.61 252.878 818.61 252.878L807.09 252.757Z" fill="#E27F2B"/>
<path d="M779.721 292.912C779.721 292.912 793.371 308.813 794.174 322.687L787.206 323.054C787.206 323.054 785.453 307.599 775.18 293.858C775.18 293.858 776.787 293.469 777.322 293.363C778.052 293.212 779.721 292.912 779.721 292.912Z" fill="#2B478B"/>
<path d="M813.754 292.692C823.531 307.489 824.58 322.988 824.58 322.988L831.599 322.867C831.024 311.96 824.169 299.964 820.388 294.279C820.388 294.279 815.533 293.051 813.754 292.692Z" fill="#2B478B"/>
<path d="M798.512 445.292H792.876C790.257 444.104 776.141 437.99 762.575 437.917C752.787 437.862 741.635 445.175 740.964 445.252C739.262 445.453 746.633 445.519 746.633 445.519C746.633 445.519 757.68 440.631 762.642 440.517C767.373 440.407 777.876 443.847 782.079 445.285H750.499C749.226 445.289 748.006 445.796 747.106 446.696C746.206 447.596 745.698 448.816 745.694 450.089V486.118C745.698 487.39 746.206 488.61 747.106 489.509C748.006 490.409 749.226 490.915 750.499 490.918H798.542C799.808 490.906 801.018 490.395 801.911 489.496C802.803 488.598 803.306 487.384 803.309 486.118V450.096C803.305 448.825 802.799 447.606 801.9 446.706C801.002 445.806 799.784 445.298 798.512 445.292Z" fill="#FFA412"/>
<path d="M782.9 445.292H734.876C732.222 445.292 730.071 447.443 730.071 450.096V486.114C730.071 488.767 732.222 490.918 734.876 490.918H782.9C785.554 490.918 787.704 488.767 787.704 486.114V450.096C787.704 447.443 785.554 445.292 782.9 445.292Z" fill="#E27F2B"/>
<path d="M768.799 378.27C769.14 394.554 767.112 426.977 767.112 426.977H757.507C752.971 404.162 751.372 389.485 751.372 381.479C751.372 379.902 751.372 378.435 751.372 377.078C751.434 370.242 751.617 366.271 751.617 366.271C749.817 324.851 758.09 302.704 760.687 299.652C763.283 296.601 775.173 293.861 775.173 293.861C775.173 293.861 779.101 305.304 780.703 314.509C782.306 323.714 768.11 362.394 768.696 375.615C768.748 376.437 768.777 377.328 768.799 378.27Z" fill="#739AF0"/>
<path d="M893.469 389.353H885.701C885.329 389.355 884.972 389.504 884.71 389.768C884.447 390.032 884.3 390.389 884.3 390.761V602.297C884.301 602.669 884.449 603.025 884.711 603.288C884.974 603.551 885.329 603.7 885.701 603.702H893.469C893.84 603.701 894.197 603.552 894.459 603.289C894.722 603.026 894.869 602.669 894.869 602.297V390.765C894.87 390.392 894.724 390.034 894.461 389.77C894.198 389.505 893.841 389.355 893.469 389.353Z" fill="#F1A34F"/>
<path d="M893.469 389.353H885.701C885.329 389.355 884.972 389.504 884.71 389.768C884.447 390.032 884.3 390.389 884.3 390.761V397.315H894.869V390.765C894.87 390.392 894.724 390.034 894.461 389.77C894.198 389.505 893.841 389.355 893.469 389.353Z" fill="#2B478B"/>
<path d="M884.3 602.297C884.301 602.669 884.449 603.025 884.711 603.288C884.974 603.551 885.329 603.7 885.701 603.702H893.469C893.84 603.701 894.197 603.552 894.459 603.289C894.722 603.026 894.869 602.669 894.869 602.297V596.642H884.3V602.297Z" fill="#2B478B"/>
<path d="M889.651 403.234C889.439 403.235 889.236 403.32 889.087 403.469C888.937 403.619 888.852 403.822 888.851 404.034V590.231C888.851 590.443 888.936 590.647 889.085 590.797C889.235 590.947 889.439 591.031 889.651 591.031C889.863 591.031 890.066 590.947 890.216 590.797C890.366 590.647 890.45 590.443 890.45 590.231V404.015C890.445 403.807 890.358 403.609 890.209 403.463C890.06 403.317 889.859 403.235 889.651 403.234Z" fill="#E27F2B"/>
<path d="M767.112 426.977C767.112 426.977 769.14 394.554 768.799 378.27C761.097 375.795 754.922 376.338 751.39 377.078C751.39 378.435 751.39 379.902 751.39 381.479C751.39 389.485 752.989 404.162 757.525 426.977C755.523 435.379 755.659 444.452 759.124 446.048C762.59 447.643 774.069 441.647 773.933 438.977C773.798 436.307 767.112 426.977 767.112 426.977Z" fill="#D9935C"/>
<path d="M898.541 389.485C897.605 386.053 896.909 384.149 894.547 382.484C891.111 380.06 887.032 380.716 883.992 381.248C881.671 381.655 879.224 380.881 878.22 380.485C872.836 376.899 859.325 369.505 852.599 366.183C848.008 368.845 842.367 374.111 839.716 384.391C850.069 388.957 872.722 388.876 877.046 387.883C877.046 387.883 881.04 390.783 884.08 391.051C885.228 391.15 886.68 390.816 888.037 390.362C890.172 389.628 892.464 390.362 893.997 392.258C895.464 394.091 897.404 395.085 898.203 395.085C899.439 395.089 899.131 391.649 898.541 389.485Z" fill="#D9935C"/>
<path d="M83.0833 431.154H35.0587C32.4054 431.154 30.2544 433.305 30.2544 435.959V471.976C30.2544 474.629 32.4054 476.78 35.0587 476.78H83.0833C85.7366 476.78 87.8876 474.629 87.8876 471.976V435.959C87.8876 433.305 85.7366 431.154 83.0833 431.154Z" fill="#FFA412"/>
<path d="M98.6917 431.154H50.6671C48.0138 431.154 45.8628 433.305 45.8628 435.959V471.976C45.8628 474.629 48.0138 476.78 50.6671 476.78H98.6917C101.345 476.78 103.496 474.629 103.496 471.976V435.959C103.496 433.305 101.345 431.154 98.6917 431.154Z" fill="#E27F2B"/>
<path d="M40.259 431.352C40.259 431.352 51.6646 422.947 53.3663 423.148C55.068 423.35 57.7672 423.948 57.7672 423.948L47.5608 431.649L40.259 431.352Z" fill="#FFA412"/>
<path d="M130.294 298.589C125.717 295.13 115.041 292.24 109.687 291.621C108.432 291.481 104.673 291.463 104.633 291.463C104.633 295.31 96.4399 298.633 89.7652 298.196C84.1357 297.83 80.483 293.55 80.483 291.228C80.0503 291.228 58.1119 306.448 55.365 321.613C55.1773 322.612 55.0816 323.626 55.0789 324.642C54.9909 396.776 50.6194 407.841 52.002 407.815C52.002 407.815 60.206 414.126 75.433 415.619C77.3987 415.817 79.4855 415.927 81.6859 415.938C87.8633 415.96 94.0265 415.346 100.078 414.104C102.926 413.52 105.742 412.786 108.513 411.904C119.17 408.526 125.519 404.056 125.471 402.78C125.42 401.357 125.68 399.552 125.504 397.528C124.837 389.892 124.473 383.225 124.195 376.499C135.762 377.515 142.433 376.371 142.433 376.371C151.92 356.009 136.481 303.261 130.294 298.589ZM127.591 357.3C126.887 357.491 126.124 357.667 125.306 357.843C124.741 357.968 124.154 358.081 123.546 358.21C123.546 357.931 123.524 357.652 123.513 357.381C123.355 353.603 123.179 350.006 122.933 346.58C122.724 343.716 122.467 340.973 122.13 338.358C126.12 348.865 128.904 356.948 127.591 357.3Z" fill="#9ED9F0"/>
<path d="M80.4831 291.239C80.4831 291.239 63.5397 293.806 56.2453 299.887C48.9508 305.968 48.2137 344.67 45.7822 355.631C45.3054 357.781 44.8763 361.246 44.5059 365.475C43.2003 380.324 44.7626 400.917 46.0572 408.526C46.2665 410.965 45.9269 413.42 45.0634 415.711C43.193 420.383 42.7932 421.714 46.1306 424.384C49.4679 427.054 53.0656 430.788 55.5998 429.72C57.5582 428.899 57.2098 415.931 56.9494 410.041C59.8833 397.462 64.6143 373.851 69.0775 350.97C75.026 320.446 80.4831 291.239 80.4831 291.239Z" fill="#D9935C"/>
<path d="M80.483 291.243C80.483 291.243 77.3364 308.073 73.2179 329.527C71.9123 336.334 70.5077 343.606 69.0774 350.956C63.2463 362.379 58.2403 370.151 56.6963 368.687C53.5423 365.709 48.0082 365.343 44.5059 365.453C44.8726 361.228 45.3053 357.751 45.7821 355.613C45.9728 354.748 46.1488 353.71 46.3322 352.533C48.3713 338.761 49.5302 305.483 56.2342 299.887C59.7659 296.953 65.5641 294.826 70.6031 293.418C73.1702 292.684 75.5541 292.171 77.3291 291.811C79.2655 291.426 80.483 291.243 80.483 291.243Z" fill="#9ED9F0"/>
<path d="M56.6963 368.687C53.546 365.713 48.0082 365.343 44.5059 365.456C44.8726 361.228 45.3053 357.755 45.7821 355.613C45.9728 354.748 46.1488 353.71 46.3322 352.529L63.811 310.332C63.811 310.332 58.2439 370.151 56.6963 368.687Z" fill="#74ACBE"/>
<path d="M104.67 290.81C104.798 284.92 104.699 277.886 103.903 271.945L80.395 275.788C80.395 275.788 80.395 282.962 80.4977 290.924H80.4757C80.4757 290.924 79.8339 298.306 88.9291 299.388C98.0242 300.47 104.923 296.513 104.67 290.81Z" fill="#D9935C"/>
<path d="M85.0012 603.152C87.9571 601.318 86.2261 587.748 86.2261 587.748C86.2261 587.748 72.3817 576.746 70.515 585.222C68.6483 593.697 57.448 597.522 51.0778 598.582C46.6769 599.315 45.3199 601.758 44.9019 603.203L85.0012 603.152Z" fill="#233862"/>
<path d="M125.31 357.861C125.31 357.861 120.909 363.813 120.007 363.813C119.104 363.813 108 359.512 111.187 349.877C114.374 340.243 122.13 338.332 122.13 338.332C122.467 340.947 122.724 343.69 122.933 346.555C123.179 349.98 123.355 353.578 123.513 357.355C123.513 357.627 123.513 357.905 123.546 358.184C124.154 358.07 124.741 357.957 125.306 357.817L125.31 357.861Z" fill="#74ACBE"/>
<path d="M127.426 603.152C130.382 601.318 128.654 587.748 128.654 587.748C128.654 587.748 114.806 576.746 112.94 585.222C111.073 593.697 99.8726 597.522 93.5023 598.582C89.1014 599.315 87.7445 601.758 87.3264 603.203L127.426 603.152Z" fill="#233862"/>
<path d="M106.914 265.168C106.914 265.168 122.61 240.424 92.4754 238.784C92.4754 238.784 81.1724 240.116 78.6126 237.556C78.6126 237.556 69.8438 250.88 78.0331 265.168C86.2225 279.456 106.914 265.168 106.914 265.168Z" fill="#B64C41"/>
<path d="M81.0991 278.081C83.3839 279.878 90.0806 281.66 92.017 281.869C92.017 281.869 101.952 279.669 103.753 278.568C106.547 276.874 106.368 273.434 106.511 268.666C106.683 263.022 107.244 258.588 106.624 255.332C105.891 251.441 103.404 249.226 96.4949 248.624C83.8057 247.524 78.5246 250.7 78.3009 254.954C78.2422 256.095 78.1909 257.184 78.1542 258.214C77.6481 271.483 78.697 276.188 81.0991 278.081Z" fill="#D9935C"/>
<path d="M78.0405 262.568C78.1651 270.251 80.2409 274.802 81.7372 275.374C83.6382 276.085 85.6032 276.612 87.605 276.947C88.3385 277.032 89.006 277.006 88.995 276.603C88.973 275.389 87.352 273.896 88.5586 272.822C89.7651 271.747 96.5938 271.318 97.1403 273.775C97.408 274.971 95.2222 277.076 96.7185 277.134C97.1733 277.057 97.6207 276.969 98.0461 276.859C99.8877 276.348 101.646 275.572 103.265 274.556C106.063 272.862 105.88 270.262 106.496 265.531C106.899 262.468 106.899 264.13 106.496 268.67C106.078 273.438 106.899 276.474 103.738 278.572C101.981 279.738 91.8519 284.286 91.8519 284.286C91.9986 281.876 83.3655 279.885 81.0807 278.088C78.9976 276.412 77.9158 272.558 78.0405 262.568Z" fill="#B64C41"/>
<path d="M125.486 402.802C125.533 404.078 119.185 408.548 108.528 411.926C107.67 412.201 106.778 412.461 105.865 412.718C105.86 412.72 105.854 412.723 105.851 412.728C105.847 412.732 105.844 412.738 105.843 412.744C104.849 424.41 102.157 440.887 99.7296 456.793C99.1025 460.915 98.4937 464.997 97.9326 468.947C96.4656 479.403 95.3434 488.927 95.2224 495.785V495.854C95.171 499.001 97.8262 506.857 98.0243 508.665C98.1489 509.765 98.248 510.946 98.3213 512.174C98.5822 517.811 98.5075 523.457 98.0976 529.085C96.3556 556.125 89.2115 590.719 86.6626 592.193C81.5943 595.127 72.3598 592.193 67.6875 591.504C65.7475 591.218 64.1925 589.564 64.2915 587.605C66.5836 542.731 60.008 480.235 55.09 441.815C54.9653 440.814 54.837 439.835 54.7233 438.881C54.1328 434.352 53.7477 430.12 53.502 426.306C53.2783 422.961 53.1683 419.921 53.1353 417.288C53.1353 416.466 53.128 415.685 53.1133 414.944C53.1133 412.538 55.013 396.791 55.101 324.657C55.1049 323.854 55.4258 323.085 55.9938 322.518C56.5619 321.95 57.3311 321.63 58.1339 321.627H102.22C103.232 321.628 104.235 321.829 105.169 322.22C106.103 322.612 106.95 323.185 107.661 323.906C108.372 324.627 108.932 325.483 109.309 326.422C109.687 327.362 109.874 328.368 109.859 329.38C109.793 334.881 109.991 342.583 111.187 349.896C112.811 359.911 116.299 369.271 123.494 371.533C123.527 371.607 123.725 372.043 124.041 372.773C124.109 374.585 124.186 376.429 124.272 378.307C124.272 378.674 124.301 379.062 124.323 379.444C124.323 379.668 124.342 379.888 124.356 380.111C124.356 380.478 124.389 380.878 124.411 381.259C124.437 381.894 124.47 382.528 124.507 383.174C124.536 383.68 124.562 384.182 124.591 384.692C124.642 385.67 124.701 386.656 124.767 387.652C124.767 387.974 124.804 388.29 124.826 388.612C124.91 389.903 124.998 391.209 125.097 392.525C125.126 392.933 125.159 393.336 125.192 393.743C125.192 393.941 125.218 394.135 125.236 394.333C125.277 394.847 125.313 395.364 125.357 395.885C125.401 396.406 125.453 396.985 125.5 397.542C125.695 399.567 125.434 401.379 125.486 402.802Z" fill="#2B478B"/>
<path d="M98.0975 529.088C96.3555 556.128 89.2114 590.723 86.6626 592.197C81.5942 595.131 72.3597 592.197 67.6875 591.508C65.7474 591.222 64.1924 589.568 64.2914 587.609C66.5836 542.735 60.0079 480.239 55.0899 441.819C54.9652 440.818 54.8369 439.839 54.7232 438.885C54.1327 434.356 53.7477 430.124 53.502 426.31C55.8381 411.075 69.0297 410.261 81.0075 441.771C86.1088 453.965 98.4936 522.891 98.0975 529.088Z" fill="#233862"/>
<path d="M125.981 494.516C126.347 497.64 130.015 505.074 130.44 506.846C136.488 531.168 133.147 588.838 130.147 591.145C125.511 594.713 115.98 593.015 111.245 592.953C109.283 592.923 107.53 591.486 107.372 589.535C103.654 543.586 88.2432 480.473 78.3339 443.348C73.3426 424.645 72.6348 410.895 72.6348 410.895C72.6348 410.895 118.95 382.521 123.978 398.023C128.394 411.739 123.186 470.513 125.981 494.516Z" fill="#2B478B"/>
<path d="M109.008 234.754C107.957 233.411 106.769 232.182 105.462 231.087C105.095 230.775 104.728 230.463 104.299 230.151C100.115 226.964 93.4179 223.858 85.3422 227.217C83.2981 228.064 81.4271 229.28 79.8228 230.804C79.4561 231.142 79.126 231.49 78.807 231.849C71.8059 239.632 72.3963 251.815 72.3963 251.815L112.793 251.382C112.928 240.105 109.008 234.754 109.008 234.754Z" fill="#FFA412"/>
<path d="M101.461 251.499C101.461 251.349 100.269 236.096 105.462 231.094C105.242 230.892 105.012 230.702 104.772 230.525C99.3041 236.217 99.1941 250.879 99.2418 251.525L101.461 251.499Z" fill="#E27F2B"/>
<path d="M86.3326 251.664C85.9658 241.762 80.4904 231.919 79.8339 230.819C79.5748 231.06 79.3299 231.316 79.1005 231.585C80.0503 233.25 83.615 242.789 83.9561 251.69L72.4221 251.815C72.4221 251.815 83.1823 254.595 91.2872 254.496C99.3922 254.397 112.819 251.382 112.819 251.382L86.3326 251.664Z" fill="#E27F2B"/>
<path d="M111.271 291.844C111.271 291.844 97.6208 307.746 96.8213 321.62H103.76C103.76 321.62 105.528 306.54 115.8 292.798L111.271 291.844Z" fill="#2B478B"/>
<path d="M77.3437 291.811C67.5664 306.609 66.4075 321.62 66.4075 321.62H59.4688C60.0482 310.713 66.8292 299.098 70.614 293.418C73.1885 292.699 75.5686 292.171 77.3437 291.811Z" fill="#2B478B"/>
<path d="M147.809 377.757C147.443 371.363 146.654 365.001 145.447 358.712C145.473 362.091 145.217 365.465 144.681 368.801C146.397 382.48 145.733 392.936 142.686 398.874C140.974 402.334 138.314 405.238 135.017 407.246C136.695 405.597 138.123 403.712 139.257 401.65C141.6 397.451 143.757 389.636 142.957 375.219C142.796 375.63 142.627 376.026 142.447 376.411C142.447 376.411 141.853 376.514 140.709 376.631C141.179 387.171 140.053 395.243 137.361 400.073C135.509 403.515 132.685 406.336 129.241 408.185C130.312 407.118 131.278 405.952 132.127 404.701C134.907 400.616 137.808 392.599 137.933 376.829C137.239 376.868 136.47 376.9 135.626 376.924C135.498 389.027 133.715 398.001 130.36 402.915C130.206 403.143 130.044 403.37 129.879 403.59C132.424 399.222 134.86 391.304 134.984 376.935C134.251 376.935 133.492 376.935 132.674 376.935C132.553 389.008 130.763 397.994 127.411 402.904C125.489 405.814 122.805 408.139 119.651 409.627C118.727 409.469 117.781 409.26 116.831 409.007C116.702 408.977 116.574 408.944 116.464 408.904H116.424L116.057 408.798C114.898 408.46 113.773 408.075 112.683 407.642C99.3371 402.343 91.6796 390.406 90.9351 380.599C90.407 373.631 90.9718 363.256 92.3801 351.971C95.1527 329.732 101.182 303.95 108.539 293.704C108.663 293.531 108.781 293.363 108.905 293.201C109.059 293 109.213 292.802 109.371 292.618C109.643 292.292 109.91 291.987 110.185 291.709C110.697 291.173 111.272 290.703 111.898 290.308C112.075 290.418 112.244 290.54 112.404 290.674C113.043 291.185 113.614 291.774 114.106 292.427V292.446C114.872 292.611 115.668 292.813 116.482 293.007C116.849 293.11 117.249 293.209 117.637 293.322C117.662 293.319 117.687 293.319 117.711 293.322C117.803 293.322 117.894 293.37 117.982 293.396C118.459 293.528 118.936 293.667 119.416 293.81L120.234 294.063L121.195 294.375L122.236 294.742C122.603 294.87 122.97 295.002 123.337 295.138L123.315 295.105C118.991 288.291 115.917 286.703 113.922 286.798C113.608 286.813 113.295 286.854 112.987 286.923C112.661 286.835 112.324 286.789 111.986 286.787C111.3 286.793 110.62 286.917 109.976 287.154C107.923 287.352 105.762 288.65 103.525 291.038C103.371 291.195 103.221 291.364 103.067 291.536C101.693 293.122 100.447 294.814 99.3408 296.597L99.3188 296.63C87.4915 315.334 76.4636 356.849 75.8071 376.286C75.29 391.667 87.132 405.42 99.0988 411.053C100.233 411.589 101.395 412.065 102.579 412.48C103.227 412.707 103.87 412.91 104.508 413.089H104.549C106.889 413.764 109.312 414.114 111.748 414.13C112.243 414.13 112.73 414.13 113.215 414.082C113.713 414.115 114.208 414.13 114.7 414.13C116.812 414.139 118.913 413.832 120.934 413.221C121.246 413.221 121.558 413.184 121.866 413.162C122.174 413.14 122.394 413.114 122.651 413.081C123.157 413.023 123.659 412.946 124.154 412.854C125.569 412.865 126.983 412.756 128.379 412.527C132.585 411.871 136.497 409.97 139.613 407.07C141.662 405.141 143.359 402.87 144.63 400.359C146.628 396.461 148.396 389.632 147.809 377.757ZM78.1066 376.378C78.686 359.174 88.0929 322.636 98.4937 302.909C98.1269 303.782 97.7602 304.684 97.3934 305.612C87.5648 326.428 79.3095 359.523 78.7484 376.264C78.51 383.262 80.8315 389.918 84.5612 395.628C80.098 389.324 77.8975 382.271 78.1066 376.378ZM102.873 408.416C88.0709 401.448 80.6921 387.024 81.0552 376.378C81.3706 366.927 84.3558 351.634 88.7054 336.502C85.313 352.859 83.4206 369.45 83.8864 379.642C84.4732 392.547 93.6417 403.278 103.881 408.867C103.544 408.735 103.203 408.578 102.873 408.416ZM86.1749 379.488C85.5001 364.73 90.165 335.017 97.0634 313.702C97.8372 311.318 98.6367 309.037 99.4618 306.892C99.7699 306.239 100.078 305.604 100.386 304.977C95.0756 319.522 91.0855 340.309 89.3545 357.766C88.467 366.791 88.1846 374.926 88.621 380.87C89.4278 391.506 96.0658 400.418 104.222 406.077C92.8605 399.772 86.5893 388.587 86.1749 379.488Z" fill="#FFA412"/>
<path d="M125.31 357.861C124.943 357.916 117.839 359.211 117.454 359.266C105.641 360.997 89.747 361.763 88.0893 361.833C87.9353 361.69 82.2985 356.438 80.0981 356.438C77.8976 356.438 71.443 358.778 70.7865 360.579C70.1301 362.379 69.8697 365.625 71.707 366.344C73.5444 367.063 81.1469 368.863 83.1163 369.047C83.4299 369.074 83.7452 369.074 84.0588 369.047C95.6989 372.51 107.631 374.904 119.706 376.198C123.011 376.616 126.339 376.84 129.67 376.869C129.538 368.713 126.791 361.177 125.31 357.861Z" fill="#D9935C"/>
<path d="M383.392 189.506V186.403H376.6V165.921H370.978V186.403H356.737V165.921H351.119V186.403H335.635V165.921H330.013V186.403H315.772V165.921H310.15V186.403H302.709V189.506H310.154V199.477H302.709V202.58H310.154V212.551H302.709V215.658H310.154V225.629H302.709V228.732H310.154V238.704H302.709V241.81H310.154V251.771H302.709V254.873H310.154V262.942H302.709V266.074H310.154V276.049H302.709V279.151H310.154V289.105H302.709V292.207H310.154V302.179H302.709V305.285H310.154V315.257H302.709V318.36H310.154V328.331H302.709V331.434H310.154V340.969H302.709V344.075H310.154V354.047H302.709V357.15H310.154V367.121H302.709V370.228H310.154V380.199H302.709V383.302H310.154V393.274H302.709V396.376H310.154V406.352H302.709V409.454H310.154V417.522H302.709V420.625H310.154V430.597H302.709V433.674H310.154V443.645H302.709V446.748H310.154V456.72H302.709V459.822H310.154V469.798H302.709V472.915H310.154V482.887H302.709V485.989H310.154V494.886H302.709V497.989H310.154V507.961H302.709V511.056H310.154V521.027H302.709V524.13H310.154V534.102H302.709V537.208H310.154V547.18H302.709V550.297H310.154V560.269H302.709V563.371H310.154V571.44H302.709V574.546H310.154V584.518H302.709V587.62H310.154V597.592H302.709V600.698H383.392V597.592H376.6V587.62H383.392V584.518H376.6V574.539H383.392V571.432H376.6V563.364H383.392V560.261H376.6V550.297H383.392V547.194H376.6V537.223H383.392V534.116H376.6V524.145H383.392V521.042H376.6V511.056H383.392V507.95H376.6V497.978H383.392V494.875H376.6V485.978H383.392V482.876H376.6V472.915H383.392V469.812H376.6V459.837H383.392V456.734H376.6V446.763H383.392V443.66H376.6V433.674H383.392V430.567H376.6V420.596H383.392V417.493H376.6V409.425H383.392V406.322H376.6V396.347H383.392V393.244H376.6V383.284H383.392V380.181H376.6V370.228H383.392V367.121H376.6V357.15H383.392V354.047H376.6V344.075H383.392V340.969H376.6V331.434H383.392V328.331H376.6V318.36H383.392V315.257H376.6V305.285H383.392V302.179H376.6V292.207H383.392V289.105H376.6V279.133H383.392V276.031H376.6V266.074H383.392V262.971H376.6V254.903H383.392V251.771H376.6V241.81H383.392V238.704H376.6V228.732H383.392V225.629H376.6V215.658H383.392V212.551H376.6V202.58H383.392V199.477H376.6V189.506H383.392ZM351.119 189.506V199.477H335.635V189.506H351.119ZM335.635 584.51V574.539H351.119V584.51H335.635ZM351.119 587.613V597.584H335.635V587.613H351.119ZM335.635 571.432V563.364H351.119V571.432H335.635ZM335.635 560.261V550.297H351.119V560.269L335.635 560.261ZM335.635 547.187V537.215H351.119V547.187H335.635ZM335.635 534.109V524.137H351.119V534.109H335.635ZM335.635 521.035V511.056H351.119V521.027L335.635 521.035ZM335.635 507.957V497.985H351.119V507.957H335.635ZM335.635 494.883V485.986H351.119V494.883H335.635ZM335.635 482.883V472.915H351.119V482.887L335.635 482.883ZM335.635 469.809V459.833H351.119V469.809H335.635ZM335.635 456.731V446.759H351.119V456.731H335.635ZM335.635 443.656V433.674H351.119V443.645L335.635 443.656ZM335.635 430.578V420.607H351.119V430.578H335.635ZM335.635 417.504V409.436H351.119V417.504H335.635ZM335.635 406.333V396.358H351.119V406.333H335.635ZM335.635 393.255V383.284H351.119V393.255H335.635ZM335.635 380.181V370.228H351.119V380.199L335.635 380.181ZM335.635 367.103V357.131H351.119V367.103H335.635ZM335.635 354.029V344.057H351.119V354.029H335.635ZM335.635 340.951V331.416H351.119V340.951H335.635ZM335.635 328.331V318.36H351.119V328.331H335.635ZM335.635 315.257V305.285H351.119V315.257H335.635ZM335.635 302.179V292.207H351.119V302.179H335.635ZM335.635 289.105V279.133H351.119V289.105H335.635ZM335.635 276.031V266.074H351.119V276.049L335.635 276.031ZM335.635 262.953V254.884H351.119V262.953H335.635ZM335.635 251.782V241.81H351.119V251.771L335.635 251.782ZM335.635 238.704V228.732H351.119V238.704H335.635ZM335.635 225.629V215.658H351.119V225.629H335.635ZM335.635 212.551V202.58H351.119V212.551H335.635ZM315.772 189.506H330.013V199.477H315.772V189.506ZM315.772 202.58H330.013V212.551H315.772V202.58ZM315.772 215.658H330.013V225.629H315.772V215.658ZM315.772 228.732H330.013V238.704H315.772V228.732ZM315.772 241.81H330.013V251.771H315.772V241.81ZM315.772 254.884H330.013V262.953H315.772V254.884ZM315.772 266.055H330.013V276.031H315.772V266.055ZM315.772 279.133H330.013V289.105H315.772V279.133ZM315.772 292.207H330.013V302.179H315.772V292.207ZM315.772 305.285H330.013V315.257H315.772V305.285ZM315.772 318.36H330.013V328.331H315.772V318.36ZM315.772 331.434H330.013V340.969H315.772V331.434ZM315.772 344.057H330.013V354.029H315.772V344.057ZM315.772 357.131H330.013V367.103H315.772V357.131ZM315.772 370.209H330.013V380.181H315.772V370.209ZM315.772 383.284H330.013V393.255H315.772V383.284ZM315.772 396.358H330.013V406.333H315.772V396.358ZM315.772 409.436H330.013V417.504H315.772V409.436ZM315.772 420.607H330.013V430.578H315.772V420.607ZM315.772 433.685H330.013V443.656H315.772V433.685ZM315.772 446.759H330.013V456.731H315.772V446.759ZM315.772 459.833H330.013V469.809H315.772V459.833ZM315.772 472.911H330.013V482.883H315.772V472.911ZM315.772 485.986H330.013V494.883H315.772V485.986ZM315.772 497.985H330.013V507.957H315.772V497.985ZM315.772 511.063H330.013V521.035H315.772V511.063ZM315.772 524.137H330.013V534.109H315.772V524.137ZM315.772 537.215H330.013V547.187H315.772V537.215ZM315.772 550.29H330.013V560.261H315.772V550.29ZM315.772 563.364H330.013V571.432H315.772V563.364ZM315.772 574.539H330.013V584.51H315.772V574.539ZM315.772 587.613H330.013V597.584H315.772V587.613ZM370.978 597.584H356.737V587.613H370.978V597.584ZM370.978 584.51H356.737V574.539H370.978V584.51ZM370.978 571.432H356.737V563.364H370.978V571.432ZM370.978 560.261H356.737V550.297H370.978V560.261ZM370.978 547.187H356.737V537.215H370.978V547.187ZM370.978 534.109H356.737V524.137H370.978V534.109ZM370.978 521.035H356.737V511.056H370.978V521.035ZM370.978 507.957H356.737V497.985H370.978V507.957ZM370.978 494.883H356.737V485.986H370.978V494.883ZM370.978 482.883H356.737V472.915H370.978V482.883ZM370.978 469.809H356.737V459.833H370.978V469.809ZM370.978 456.731H356.737V446.759H370.978V456.731ZM370.978 443.656H356.737V433.674H370.978V443.656ZM370.978 430.578H356.737V420.607H370.978V430.578ZM370.978 417.504H356.737V409.436H370.978V417.504ZM370.978 406.333H356.737V396.358H370.978V406.333ZM370.978 393.255H356.737V383.284H370.978V393.255ZM370.978 380.181H356.737V370.228H370.978V380.181ZM370.978 367.103H356.737V357.131H370.978V367.103ZM370.978 354.029H356.737V344.057H370.978V354.029ZM370.978 340.951H356.737V331.416H370.978V340.951ZM370.978 328.331H356.737V318.36H370.978V328.331ZM370.978 315.257H356.737V305.285H370.978V315.257ZM370.978 302.179H356.737V292.207H370.978V302.179ZM370.978 289.105H356.737V279.133H370.978V289.105ZM370.978 276.031H356.737V266.074H370.978V276.031ZM370.978 262.953H356.737V254.884H370.978V262.953ZM370.978 251.782H356.737V241.81H370.978V251.782ZM370.978 238.704H356.737V228.732H370.978V238.704ZM370.978 225.629H356.737V215.658H370.978V225.629ZM370.978 212.551H356.737V202.58H370.978V212.551ZM370.978 199.477H356.737V189.506H370.978V199.477Z" fill="#D2E4FF"/>
<path d="M451.73 0H449.742V35.4124H451.73V0Z" fill="#D2E4FF"/>
<path d="M561.947 0H559.959V35.4124H561.947V0Z" fill="#D2E4FF"/>
<path d="M465.659 0H463.671V35.4124H465.659V0Z" fill="#D2E4FF"/>
<path d="M571.893 0H569.905V35.4124H571.893V0Z" fill="#D2E4FF"/>
<path d="M170.004 521.97C169.853 521.935 169.696 521.931 169.543 521.956C169.39 521.982 169.244 522.038 169.112 522.12C168.981 522.203 168.867 522.31 168.777 522.437C168.687 522.563 168.623 522.706 168.589 522.858L157.847 569.756C154.946 569.844 151.979 572.984 150.992 577.359L149.973 581.837C149.913 582.078 149.866 582.323 149.833 582.57L161.76 585.302C161.867 585.068 161.944 584.822 161.991 584.569L163.014 580.098C164.015 575.738 162.735 571.634 160.154 570.281L170.892 523.375C170.959 523.071 170.903 522.753 170.737 522.49C170.571 522.227 170.307 522.04 170.004 521.97Z" fill="#2B478B"/>
<path d="M138.795 582.504C138.795 582.504 163.564 576.09 171.471 581.312C179.378 586.535 167.437 592.054 167.437 592.054L138.795 582.504Z" fill="#E69D43"/>
<path d="M330.068 299.685C325.333 314.179 299.529 339.227 295.961 341.725C295.961 341.725 289.957 331.72 291.157 326.116C292.136 321.543 302.184 305.238 305.621 297.224C305.801 296.806 305.962 296.41 306.101 296.044C306.574 294.815 306.835 293.843 306.765 293.297C306.593 291.555 301.125 287.322 294.762 282.294C286.499 275.763 276.733 267.907 275.148 262.49C272.347 252.886 262.639 214.851 262.639 214.851C262.639 214.851 286.756 220.066 293.559 226.07C300.362 232.073 329.58 282.1 330.779 294.91C330.867 296.534 330.625 298.158 330.068 299.685Z" fill="#FFA412"/>
<path d="M330.068 299.685C325.333 314.179 299.529 339.227 295.961 341.725C295.961 341.725 289.957 331.72 291.157 326.116C292.191 321.305 303.259 303.51 306.101 296.044C310.411 295.299 320.459 294.386 330.068 299.685Z" fill="#D9935C"/>
<path d="M262.65 211.495V214.451C262.65 214.451 263.453 223.686 252.081 225.035C240.708 226.385 232.141 222.263 232.449 215.133C233.472 209.614 234.547 204.997 234.624 200.431C234.646 198.579 234.51 196.729 234.217 194.9L256.258 194.457L262.749 195.52L262.65 211.495Z" fill="#D9935C"/>
<path d="M262.734 195.52L262.65 211.495C260.165 212.663 257.452 213.267 254.706 213.263C244.577 213.263 238.031 205.837 234.609 200.427C234.631 198.575 234.495 196.725 234.202 194.897L256.243 194.453L262.734 195.52Z" fill="#CB7D45"/>
<path d="M243.224 603.181C243.224 603.181 242.153 594.845 239.677 589.89C237.202 584.936 221.432 588.09 221.432 588.09C221.432 588.09 218.278 590.793 217.603 603.405L243.224 603.181Z" fill="#233862"/>
<path d="M296.94 603.152C293.236 600.892 295.345 584.022 295.345 584.022C295.345 584.022 312.607 570.211 314.98 580.784C317.353 591.357 331.381 596.107 339.365 597.401C344.866 598.296 346.582 601.347 347.11 603.152H296.94Z" fill="#233862"/>
<path d="M261.183 478.585C261.79 481.666 262.214 484.78 262.452 487.911C264.055 519.212 288.799 590.782 293.225 592.432C300.076 594.999 310.858 589.524 316.502 587.727C318.838 586.993 320.415 584.62 319.895 582.225C307.642 525.891 303.138 444.775 301.499 396.75C300.674 372.546 296.522 355.848 296.522 355.848C296.522 355.848 236.171 339.748 235.812 360.117C235.493 378.16 255.803 448.849 261.183 478.585Z" fill="#2B478B"/>
<path d="M261.183 478.585L301.499 396.772C300.674 372.568 296.522 355.87 296.522 355.87C296.522 355.87 236.171 339.77 235.812 360.139C235.493 378.16 255.803 448.849 261.183 478.585Z" fill="#233862"/>
<path d="M274.613 360.208L242.707 591.438C242.707 591.438 228.697 594.816 217.801 592.113C217.801 592.113 208.461 469.134 209.238 439.406C210.016 409.678 202.534 359.849 210.947 354.355C219.36 348.861 274.613 360.208 274.613 360.208Z" fill="#2B478B"/>
<path d="M298.257 360.637C298.257 360.637 281.955 370.143 258.333 369.861C250.298 369.804 242.276 369.2 234.323 368.053C215.385 365.244 205.827 359.959 205.904 357.99C205.967 356.211 206.091 350.288 206.315 347.769C209.326 313.06 207.782 286.065 211.816 265.787C211.864 265.542 211.911 265.296 211.963 265.054C217.332 239.301 225.734 224.478 229.904 218.397C231.429 216.197 232.387 215.13 232.434 215.13C232.434 219.941 242.681 224.096 251.032 223.565C258.069 223.106 262.635 217.756 262.635 214.858C263.211 214.858 294.377 236.518 294.402 256.645C294.52 346.833 299.984 360.667 298.257 360.637Z" fill="#FFA412"/>
<path d="M234.374 367.774C234.374 367.873 234.349 367.972 234.33 368.068C215.392 365.258 205.835 359.974 205.912 358.004C205.974 356.226 206.099 350.303 206.322 347.783C209.333 313.075 207.789 286.079 211.823 265.802C221.766 279.089 242.197 313.889 234.374 367.774Z" fill="#E27F2B"/>
<path d="M286.253 324.627L283.708 333.099L281.178 341.501L171.313 308.454C171.161 308.463 171.009 308.446 170.862 308.403C170.71 308.357 170.566 308.286 170.437 308.194C169.054 307.214 168.801 303.624 169.865 299.579C169.92 299.355 169.986 299.128 170.052 298.9C171.339 294.551 173.675 291.335 175.469 291.305C175.614 291.301 175.758 291.32 175.898 291.36C176.041 291.405 176.178 291.472 176.301 291.558L286.253 324.627Z" fill="#E9F3FE"/>
<path d="M283.708 333.099L281.178 341.501L171.313 308.454C171.161 308.463 171.009 308.446 170.862 308.403C170.71 308.357 170.566 308.286 170.437 308.194C169.054 307.214 168.801 303.624 169.865 299.579C174.357 302.949 195.804 317.857 232.416 325.108C270.256 332.604 281.966 333.073 283.708 333.099Z" fill="#BED4F4"/>
<path d="M286.466 324.58C284.632 324.037 282.01 327.414 280.62 332.12C279.23 336.825 279.604 341.083 281.438 341.622C283.272 342.161 285.89 338.787 287.28 334.082C288.67 329.377 288.304 325.119 286.466 324.58Z" fill="#AFCDFB"/>
<path d="M177.097 288.445L164.147 286.347C164.012 286.279 163.867 286.23 163.718 286.204C163.576 286.184 163.431 286.184 163.289 286.204C161.51 286.468 159.622 289.963 158.914 294.445C158.874 294.683 158.844 294.91 158.815 295.141C158.568 296.898 158.585 298.682 158.863 300.433C159.152 302.007 159.706 303.151 160.469 303.58L160.513 303.609C160.653 303.683 160.804 303.734 160.96 303.76C161.111 303.783 161.264 303.783 161.415 303.76L274.664 322.133L276.069 313.471L277.481 304.743L177.097 288.445Z" fill="#E9F3FE"/>
<path d="M224.168 312.283C199.963 310.724 187.109 297.918 177.097 288.467L164.147 286.369C164.012 286.301 163.867 286.252 163.718 286.226C163.576 286.206 163.431 286.206 163.289 286.226C161.51 286.49 159.622 289.985 158.914 294.467C158.874 294.705 158.844 294.932 158.815 295.163C158.568 296.92 158.585 298.704 158.863 300.455C159.471 302.175 160.095 303.345 160.469 303.602L160.513 303.631C160.653 303.705 160.804 303.756 160.96 303.782C161.111 303.805 161.264 303.805 161.415 303.782L274.664 322.155L276.069 313.493C274.338 313.676 262.668 314.744 224.168 312.283Z" fill="#BED4F4"/>
<path d="M277.686 304.666C275.794 304.369 273.652 308.058 272.878 312.906C272.104 317.755 273.032 321.924 274.925 322.221C276.817 322.519 278.959 318.833 279.733 313.984C280.506 309.136 279.579 304.948 277.686 304.666Z" fill="#AFCDFB"/>
<path d="M237.396 337.991C211.13 333.814 193.754 322.805 186.64 317.483C184.204 315.649 182.972 314.509 182.972 314.509C169.513 286.211 193.864 236.599 198.313 228.189C203.117 219.12 232.442 215.133 232.442 215.133C229.2 225.464 227.018 236.098 225.928 246.871C224.095 264.841 204.584 299.832 205.391 302.77C205.593 303.503 207.958 305.065 211.387 307.024C221.583 312.829 241.28 322.185 242.479 324.382C244.064 327.319 237.396 337.991 237.396 337.991Z" fill="#D9935C"/>
<path d="M242.465 324.385C242.465 324.385 257.134 318.517 260.743 320.916C264.352 323.314 270.348 326.919 270.348 329.322C270.348 331.724 262.745 338.123 256.338 340.129C249.931 342.135 237.396 337.995 237.396 337.995L242.465 324.385Z" fill="#D9935C"/>
<path d="M225.921 246.871C224.087 264.841 204.577 299.832 205.384 302.77C205.585 303.503 207.951 305.065 211.38 307.024C211.16 307.037 210.94 307.037 210.72 307.024C195.368 306.345 188.418 314.839 186.647 317.468C184.212 315.635 182.979 314.494 182.979 314.494C169.52 286.197 193.872 236.584 198.32 228.175C203.124 219.105 232.449 215.119 232.449 215.119C229.202 225.454 227.014 236.093 225.921 246.871Z" fill="#FFA412"/>
<path d="M264.022 203.284C264.022 203.284 235.783 208.987 232.511 191.35C229.24 173.714 223.38 162.576 241.265 158.19C259.151 153.803 263.912 159.88 266.439 165.499C268.965 171.117 271.279 201.344 264.022 203.284Z" fill="#D9935C"/>
<path d="M233.076 196.437C233.076 196.437 227.619 184.789 223.068 179.615C218.517 174.44 220.999 148.585 240.653 149.414C260.307 150.242 267.341 164.307 267.546 167.017C267.751 169.727 251.824 167.637 247.478 171.154C243.132 174.671 247.273 180.462 242.307 182.523C237.341 184.584 233.414 184.591 234.239 189.143C235.064 193.694 233.076 196.437 233.076 196.437Z" fill="#233862"/>
<path d="M239.142 137.403C233.52 138.818 229.299 141.07 226.152 143.791C225.837 144.059 225.532 144.338 225.243 144.617C213.588 155.733 218.238 173.424 218.238 173.424C218.238 173.424 219.789 177.891 220.856 179.626C221.924 181.36 237.4 179.358 238.199 176.024C238.999 172.691 242.069 169.221 242.069 169.221C242.069 169.221 258.381 168.099 259.478 168.018C263.145 167.751 273.682 164.094 273.682 164.094C273.557 163.064 267.638 130.248 239.142 137.403Z" fill="#FFA412"/>
<path d="M283.341 160.628C281.387 160.152 278.049 159.62 272.548 159.418C272.548 159.418 267.931 163.243 258.755 166.159C254.439 160.72 242.153 147.624 226.152 143.788L226.009 143.751C225.672 144.18 225.477 144.327 225.243 144.613C225.158 144.711 225.08 144.814 225.008 144.921C238.034 147.191 250.416 161.82 254.666 167.292C250.531 168.297 246.316 168.939 242.069 169.21C242.069 169.21 270.579 169.742 283.609 162.88C283.823 162.763 283.998 162.585 284.11 162.368C284.222 162.152 284.266 161.906 284.237 161.664C284.209 161.421 284.108 161.193 283.948 161.009C283.788 160.824 283.577 160.692 283.341 160.628Z" fill="#E27F2B"/>
<path d="M312.373 290.095C311.844 293.088 310.231 296.238 305.625 297.224C305.804 296.806 305.966 296.41 306.105 296.044C306.578 294.815 306.838 293.843 306.769 293.297C306.596 291.555 301.128 287.322 294.765 282.294C294.241 279.445 292.961 270.988 294.765 264.277C296.966 256.076 312.978 286.692 312.373 290.095Z" fill="#E27F2B"/>
<path d="M208.31 305.003C208.31 305.003 188.701 303.404 182.297 314.81C182.297 314.81 182.844 318.657 186.64 317.483C186.64 317.483 203.227 306.144 211.373 307.024C211.391 307.024 210.115 305.036 208.31 305.003Z" fill="#E27F2B"/>
<path d="M305.643 297.224C305.643 297.224 315.82 297.65 328.626 303.228C328.626 303.228 331.469 300.433 330.335 298.827C329.202 297.221 311.144 291.478 305.643 297.224Z" fill="#E27F2B"/>
<path d="M446.86 230.599C455.662 185.405 463.759 142.141 463.759 142.141C463.759 142.141 438.66 145.94 427.852 154.948C417.044 163.955 415.955 221.295 412.364 237.504C411.653 240.684 411.018 245.826 410.468 252.086C408.422 275.396 410.971 310.31 412.9 320.098C412.775 321.037 411.976 325.658 407.721 334.522C407.721 334.522 405.521 341.325 419.926 351.531C429.099 358.037 437.303 279.724 446.86 230.599Z" fill="#D9935C"/>
<path d="M463.759 142.141C463.759 142.141 459.098 167.079 452.999 198.857C451.067 208.943 448.987 219.714 446.86 230.599C438.223 247.531 430.812 259.039 428.523 256.876C423.851 252.475 415.651 251.921 410.458 252.086C411.008 245.826 411.642 240.684 412.354 237.504C412.636 236.225 412.904 234.684 413.164 232.939C416.186 212.54 417.899 163.258 427.834 154.948C438.66 145.94 463.759 142.141 463.759 142.141Z" fill="#739AF0"/>
<path d="M452.999 198.857C451.067 208.943 448.987 219.714 446.86 230.599C438.223 247.531 430.812 259.039 428.523 256.876C423.851 252.475 415.651 251.921 410.458 252.086C411.008 245.826 411.642 240.684 412.354 237.504C412.636 236.225 412.904 234.684 413.164 232.939L439.06 170.424L452.999 198.857Z" fill="#4A75CB"/>
<path d="M499.601 141.503C499.792 132.775 499.649 122.359 498.468 113.554L463.627 119.246C463.627 119.246 463.627 129.881 463.781 141.668H463.748C463.748 141.668 462.799 152.612 476.273 154.211C489.747 155.81 499.964 149.945 499.601 141.503Z" fill="#D9935C"/>
<path d="M463.543 121.395C463.543 121.395 471.747 138.206 481.146 138.206C490.546 138.206 499.355 122.396 499.355 122.396L463.543 121.395Z" fill="#CB7D45"/>
<path d="M486.758 603.214C486.758 603.214 488.023 593.341 490.957 587.47C493.891 581.598 512.572 585.335 512.572 585.335C512.572 585.335 516.306 588.537 517.109 603.482L486.758 603.214Z" fill="#233862"/>
<path d="M423.121 603.078C427.522 600.401 425.013 580.417 425.013 580.417C425.013 580.417 404.56 564.057 401.751 576.581C398.942 589.106 382.314 594.731 372.863 596.268C366.335 597.324 364.314 600.94 363.694 603.078H423.121Z" fill="#233862"/>
<path d="M502.916 103.512C502.916 103.512 526.167 66.8384 481.524 64.4289C481.524 64.4289 464.779 66.3983 460.987 62.5952C460.987 62.5952 448 82.3368 460.129 103.501C472.257 124.666 502.916 103.512 502.916 103.512Z" fill="#233862"/>
<path d="M464.673 122.642C468.058 125.304 477.982 127.948 480.85 128.256C480.85 128.256 495.563 124.978 498.237 123.364C502.381 120.852 502.113 115.769 502.326 108.694C502.583 100.333 503.426 93.7645 502.491 88.9418C501.391 83.173 497.723 79.8907 487.484 78.9995C468.688 77.3675 460.859 82.0765 460.532 88.3771C460.444 90.0714 460.367 91.6777 460.312 93.2107C459.56 112.872 461.112 119.84 464.673 122.642Z" fill="#D9935C"/>
<path d="M465.479 454.578C464.647 459.162 464.119 462.925 463.979 465.624C462.076 502.705 432.763 587.492 427.522 589.469C419.409 592.531 406.618 586.021 399.95 583.894C397.178 583.01 395.311 580.227 395.916 577.381C410.432 510.634 415.768 414.548 417.708 357.656C418.687 328.999 423.609 309.202 423.609 309.202C423.609 309.202 495.101 290.132 495.526 314.256C495.915 335.615 471.853 419.371 465.479 454.578Z" fill="#2B478B"/>
<path d="M465.479 454.578L417.719 357.66C418.698 329.002 423.62 309.206 423.62 309.206C423.62 309.206 495.112 290.135 495.537 314.26C495.915 335.615 471.853 419.371 465.479 454.578Z" fill="#233862"/>
<path d="M449.574 314.348L487.348 588.269C487.348 588.269 503.947 592.274 516.856 589.072C516.856 589.072 527.92 443.385 527 408.163C526.079 372.942 534.94 313.911 524.976 307.409C515.011 300.907 449.574 314.348 449.574 314.348Z" fill="#2B478B"/>
<path d="M530.425 307.409C530.455 308.162 530.334 308.913 530.069 309.618C529.804 310.323 529.401 310.968 528.883 311.515C528.365 312.062 527.742 312.5 527.052 312.802C526.362 313.105 525.619 313.266 524.866 313.277L465.307 314.186L421.562 314.85C419.512 314.887 425.989 298.497 426.121 191.625C426.154 167.787 463.07 142.115 463.752 142.115C463.752 145.548 469.162 151.889 477.501 152.432C487.403 153.081 499.531 148.156 499.531 142.456C499.531 142.394 500.679 143.637 502.531 146.329C507.468 153.525 517.417 171.07 523.769 201.615C528.786 225.739 526.857 257.991 530.466 299.605C530.737 302.634 530.348 305.315 530.425 307.409Z" fill="#FFA412"/>
<path d="M528.229 313.61C528.229 313.61 520.311 317.157 505.491 320.212C494.489 322.496 479.665 324.521 461.482 324.613C432.532 324.8 421.57 314.821 421.57 314.821C419.52 314.857 425.996 298.468 426.128 191.596C426.161 167.758 463.077 142.086 463.759 142.086C463.759 142.086 462.81 173.838 472.414 183.161C472.414 183.161 485.889 172.757 503.367 143.139C508.304 150.334 517.425 171.011 523.776 201.571C525.067 207.806 525.9 214.539 526.483 221.852C528.17 242.929 527.792 268.663 530.473 299.561C530.737 302.564 530.348 305.234 530.425 307.339C530.55 310.585 531.401 313.559 528.229 313.61Z" fill="#739AF0"/>
<path d="M528.229 313.61C528.229 313.61 520.311 317.157 505.491 320.212C500.833 313.104 494.962 300.283 494.151 280.076C492.783 245.903 525.243 201.894 525.243 201.894L526.483 221.907C528.17 242.984 527.792 268.718 530.473 299.616C530.737 302.619 530.348 305.289 530.425 307.394C530.55 310.585 531.401 313.559 528.229 313.61Z" fill="#4A75CB"/>
<path d="M500.113 197.898L444.78 229.845L488.602 305.746L543.935 273.8L500.113 197.898Z" fill="#2B478B"/>
<path d="M534.584 153.613C527.807 148.478 511.89 144.859 504.057 143.311C501.295 142.768 499.539 142.482 499.539 142.482C500.356 146.249 502.194 152.157 504.596 159.25C514.656 188.955 534.599 239.522 530.583 240.596C526.611 241.593 522.587 242.368 518.528 242.918C501.035 245.485 477.494 246.614 475.033 246.728C474.839 246.548 466.455 238.729 463.191 238.729C459.927 238.729 450.355 242.199 449.394 244.869C448.433 247.539 448.037 252.339 450.755 253.406C453.472 254.474 464.742 257.143 467.658 257.407C468.124 257.449 468.593 257.449 469.059 257.407C489.992 263.561 508.007 266.576 521.891 268.01C541.263 269.998 552.595 268.894 552.595 268.894C566.626 238.682 543.749 160.544 534.584 153.613Z" fill="#D9935C"/>
<path d="M552.595 268.883C552.595 268.883 541.263 269.983 521.891 267.999C522.962 262.736 523.953 252.456 518.528 242.918C522.587 242.368 526.611 241.593 530.583 240.596C534.617 239.522 514.656 188.974 504.596 159.25C503.789 149.641 503.367 143.208 503.367 143.208L504.057 143.311C511.89 144.859 527.807 148.489 534.584 153.613C543.749 160.544 566.626 238.682 552.595 268.883Z" fill="#739AF0"/>
<path d="M472.415 183.231C472.415 183.231 499.363 171.359 499.762 170.424C500.162 169.489 498.431 162.286 496.561 160.155C496.561 160.155 509.503 161.355 510.302 159.756C511.102 158.157 511.703 144.983 511.703 144.983C511.703 144.983 506.316 139.405 499.649 138.873C499.649 138.873 493.781 153.426 491.624 157.753C485.889 169.225 472.415 183.231 472.415 183.231Z" fill="#4A75CB"/>
<path d="M466.011 159.752C466.011 159.752 467.746 173.626 472.414 183.223C472.414 183.223 458.339 173.42 457.14 170.215C455.94 167.01 460.539 160.812 460.539 160.812C460.539 160.812 452.134 160.61 451.936 157.808C451.738 155.006 454.536 144 454.536 144C454.536 144 461.768 138.723 463.767 138.925L466.011 159.752Z" fill="#4A75CB"/>
<path d="M511.634 83.0886L451.785 83.7304C451.785 83.7304 450.905 65.6831 461.277 54.1748C461.75 53.6431 462.252 53.1296 462.784 52.6272C465.159 50.3688 467.93 48.5673 470.959 47.3131C482.922 42.3255 492.842 46.9464 499.043 51.648C499.652 52.1101 500.228 52.5722 500.764 53.0343C502.699 54.6523 504.459 56.469 506.015 58.4547C506.015 58.4547 511.828 66.3836 511.634 83.0886Z" fill="#FFA412"/>
<path d="M494.822 83.2683C494.657 80.8405 493.601 60.1417 500.87 53.126C500.555 52.832 500.224 52.5553 499.88 52.2971C492.127 60.3654 491.511 80.7341 491.544 83.305L472.411 83.5104C471.842 68.8408 463.756 54.2555 462.784 52.6272C462.395 52.9829 462.028 53.3613 461.684 53.7604C463.088 56.2286 468.369 70.3627 468.875 83.547L451.789 83.7304C451.789 83.7304 467.728 87.8489 479.735 87.7022C491.742 87.5555 511.641 83.0886 511.641 83.0886L494.822 83.2683Z" fill="#E27F2B"/>
</svg>
