<svg id="Layer_1" data-name="Layer 1" xmlns="http://www.w3.org/2000/svg" viewBox="0 0 1500 1500"><defs><style>.cls-1{fill:#fff;}</style></defs><title>logos</title><path class="cls-1" d="M807.42-.83c44.85,8.34,90.38,14.07,134.45,25.45,291.74,75.34,510.45,322.67,551,621.26,55.4,407.89-217.85,778.35-623.29,845-20.7,3.4-41.44,6.63-62.16,9.94H690.68c-44.81-8.5-90.84-13-134.22-26.16C257.1,1383.77,67.94,1187.3,12.08,877.74-57.86,490.17,182.52,121.64,561,23.71,605.17,12.29,651,7.2,696-.83ZM999.6,1142.92h160.32c0-119,1.82-236.35-1.16-353.57-.84-33.29-10.2-68.94-25-98.84-52.07-104.83-224.07-117.94-304.24-25.33-4.77,5.51-9.44,11.11-18.91,22.28V619.55H655.39v523.51h161c.47-10,1.21-18.65,1.21-27.25,0-80.41-1.42-160.86.55-241.22.67-27.5,5.85-56.36,16-81.78,13.44-33.6,52.39-49.28,91.2-43.65,39.83,5.78,61.27,22.72,67.42,63.1,5.67,37.27,6,75.51,6.52,113.35C1000.26,997.07,999.6,1068.54,999.6,1142.92Zm-610.42.09H550.56V619.74H389.18ZM563.46,449.39c-.46-51.32-44.64-94.76-95.35-93.75-50.36,1-92.24,43.69-92.24,94,0,54,42.42,96.7,95.2,95.93C522.57,544.83,563.93,501.77,563.46,449.39Z"/></svg>