<svg width="80" height="80" viewBox="0 0 80 80" fill="none" xmlns="http://www.w3.org/2000/svg">
<path d="M39.6085 71.691L40 72.184L40.3915 71.691C44.5474 66.4582 50.3936 58.5812 55.2038 50.762C57.6086 46.8527 59.7604 42.9484 61.3125 39.3899C62.8592 35.8438 63.8333 32.5907 63.8333 30C63.8333 16.8572 53.1428 6.16667 40 6.16667C26.8572 6.16667 16.1667 16.8572 16.1667 30C16.1667 32.5907 17.1408 35.8438 18.6875 39.3899C20.2396 42.9484 22.3914 46.8527 24.7962 50.762C29.6064 58.5812 35.4526 66.4582 39.6085 71.691ZM10.5 30C10.5 13.7345 23.7345 0.5 40 0.5C56.2655 0.5 69.5 13.7345 69.5 30C69.5 33.7598 67.9991 38.4545 65.6544 43.4749C63.3156 48.4826 60.1632 53.761 56.9158 58.6721C50.4216 68.4937 43.5747 76.8061 42.1746 78.4828C41.6362 79.1275 40.8401 79.5 40 79.5C39.1599 79.5 38.3638 79.1275 37.8254 78.4828C36.4253 76.8061 29.5784 68.4937 23.0842 58.6721C19.8368 53.761 16.6844 48.4826 14.3456 43.4749C12.0009 38.4545 10.5 33.7598 10.5 30Z" fill="#2F80ED" stroke="white"/>
<path d="M47.5165 37.3309L47.5165 37.3308C48.6084 36.2106 50.4018 36.1889 51.5228 37.2815C52.6417 38.3738 52.6644 40.1672 51.5721 41.2878C48.5028 44.4347 44.3953 46.1668 40.0002 46.1668C31.0863 46.1668 23.8335 38.914 23.8335 30.0002C23.8335 21.0863 31.0863 13.8335 40.0002 13.8335C48.914 13.8335 56.1668 21.0863 56.1668 30.0002C56.1668 31.564 54.8974 32.8335 53.3335 32.8335C51.7696 32.8335 50.5002 31.564 50.5002 30.0002C50.5002 24.209 45.7913 19.5002 40.0002 19.5002C34.209 19.5002 29.5002 24.209 29.5002 30.0002C29.5002 35.7913 34.209 40.5002 40.0002 40.5002C42.8533 40.5002 45.5241 39.374 47.5165 37.3309Z" fill="#2F80ED" stroke="white"/>
</svg>
