<svg width="212" height="176" viewBox="0 0 212 176" fill="none" xmlns="http://www.w3.org/2000/svg">
<circle cx="106" cy="71" r="71" fill="#F6D1D1"/>
<path d="M122.547 86.5248L105.053 68.9926L104.636 68.576L72.9419 36.9195L68.1328 41.7285L80.1744 53.7701C79.72 55.6635 79.4928 57.5947 79.4928 59.6395C79.4928 79.5195 105.999 108.866 105.999 108.866C105.999 108.866 112.323 101.861 118.761 92.3942L131.484 105.079L136.293 100.233L122.547 86.5248ZM105.999 50.1728C108.51 50.1728 110.918 51.1702 112.693 52.9455C114.469 54.7209 115.466 57.1288 115.466 59.6395C115.466 62.4038 114.217 64.903 112.323 66.6448L126.069 80.4662C129.78 73.3472 132.506 66.0011 132.506 59.6395C132.506 52.6095 129.713 45.8674 124.743 40.8964C119.772 35.9255 113.029 33.1328 105.999 33.1328C98.4261 33.1328 91.7616 36.2379 86.9147 41.2363L98.9941 53.3157C100.736 51.3845 103.197 50.1728 105.999 50.1728Z" fill="#EB5757"/>
<path d="M3.85938 170.117H8.83594V172H1.51562V160.625H3.85938V170.117ZM9.6875 167.695C9.6875 166.857 9.84896 166.109 10.1719 165.453C10.4948 164.797 10.9583 164.289 11.5625 163.93C12.1719 163.57 12.8776 163.391 13.6797 163.391C14.8203 163.391 15.75 163.74 16.4688 164.438C17.1927 165.135 17.5964 166.083 17.6797 167.281L17.6953 167.859C17.6953 169.156 17.3333 170.198 16.6094 170.984C15.8854 171.766 14.9141 172.156 13.6953 172.156C12.4766 172.156 11.5026 171.766 10.7734 170.984C10.0495 170.203 9.6875 169.141 9.6875 167.797V167.695ZM11.9453 167.859C11.9453 168.661 12.0964 169.276 12.3984 169.703C12.7005 170.125 13.1328 170.336 13.6953 170.336C14.2422 170.336 14.6693 170.128 14.9766 169.711C15.2839 169.289 15.4375 168.617 15.4375 167.695C15.4375 166.909 15.2839 166.299 14.9766 165.867C14.6693 165.435 14.237 165.219 13.6797 165.219C13.1276 165.219 12.7005 165.435 12.3984 165.867C12.0964 166.294 11.9453 166.958 11.9453 167.859ZM22.6016 170.336C23.0182 170.336 23.3568 170.221 23.6172 169.992C23.8776 169.763 24.013 169.458 24.0234 169.078H26.1406C26.1354 169.651 25.9792 170.177 25.6719 170.656C25.3646 171.13 24.9427 171.5 24.4062 171.766C23.875 172.026 23.2865 172.156 22.6406 172.156C21.4323 172.156 20.4792 171.773 19.7812 171.008C19.0833 170.237 18.7344 169.174 18.7344 167.82V167.672C18.7344 166.37 19.0807 165.331 19.7734 164.555C20.4661 163.779 21.4167 163.391 22.625 163.391C23.6823 163.391 24.5286 163.693 25.1641 164.297C25.8047 164.896 26.1302 165.695 26.1406 166.695H24.0234C24.013 166.258 23.8776 165.904 23.6172 165.633C23.3568 165.357 23.013 165.219 22.5859 165.219C22.0599 165.219 21.6615 165.411 21.3906 165.797C21.125 166.177 20.9922 166.797 20.9922 167.656V167.891C20.9922 168.76 21.125 169.385 21.3906 169.766C21.6562 170.146 22.0599 170.336 22.6016 170.336ZM32.3281 172C32.224 171.797 32.1484 171.544 32.1016 171.242C31.5547 171.852 30.8438 172.156 29.9688 172.156C29.1406 172.156 28.4531 171.917 27.9062 171.438C27.3646 170.958 27.0938 170.354 27.0938 169.625C27.0938 168.729 27.4245 168.042 28.0859 167.562C28.7526 167.083 29.7135 166.841 30.9688 166.836H32.0078V166.352C32.0078 165.961 31.9062 165.648 31.7031 165.414C31.5052 165.18 31.1901 165.062 30.7578 165.062C30.3776 165.062 30.0781 165.154 29.8594 165.336C29.6458 165.518 29.5391 165.768 29.5391 166.086H27.2812C27.2812 165.596 27.4323 165.143 27.7344 164.727C28.0365 164.31 28.4635 163.984 29.0156 163.75C29.5677 163.51 30.1875 163.391 30.875 163.391C31.9167 163.391 32.7422 163.654 33.3516 164.18C33.9661 164.701 34.2734 165.435 34.2734 166.383V170.047C34.2786 170.849 34.3906 171.456 34.6094 171.867V172H32.3281ZM30.4609 170.43C30.7943 170.43 31.1016 170.357 31.3828 170.211C31.6641 170.06 31.8724 169.859 32.0078 169.609V168.156H31.1641C30.0339 168.156 29.4323 168.547 29.3594 169.328L29.3516 169.461C29.3516 169.742 29.4505 169.974 29.6484 170.156C29.8464 170.339 30.1172 170.43 30.4609 170.43ZM38.7109 161.469V163.547H40.1562V165.203H38.7109V169.422C38.7109 169.734 38.7708 169.958 38.8906 170.094C39.0104 170.229 39.2396 170.297 39.5781 170.297C39.8281 170.297 40.0495 170.279 40.2422 170.242V171.953C39.7995 172.089 39.3438 172.156 38.875 172.156C37.2917 172.156 36.4844 171.357 36.4531 169.758V165.203H35.2188V163.547H36.4531V161.469H38.7109ZM43.7969 172H41.5312V163.547H43.7969V172ZM41.3984 161.359C41.3984 161.021 41.5104 160.742 41.7344 160.523C41.9635 160.305 42.2734 160.195 42.6641 160.195C43.0495 160.195 43.3568 160.305 43.5859 160.523C43.8151 160.742 43.9297 161.021 43.9297 161.359C43.9297 161.703 43.8125 161.984 43.5781 162.203C43.349 162.422 43.0443 162.531 42.6641 162.531C42.2839 162.531 41.9766 162.422 41.7422 162.203C41.513 161.984 41.3984 161.703 41.3984 161.359ZM45.3125 167.695C45.3125 166.857 45.474 166.109 45.7969 165.453C46.1198 164.797 46.5833 164.289 47.1875 163.93C47.7969 163.57 48.5026 163.391 49.3047 163.391C50.4453 163.391 51.375 163.74 52.0938 164.438C52.8177 165.135 53.2214 166.083 53.3047 167.281L53.3203 167.859C53.3203 169.156 52.9583 170.198 52.2344 170.984C51.5104 171.766 50.5391 172.156 49.3203 172.156C48.1016 172.156 47.1276 171.766 46.3984 170.984C45.6745 170.203 45.3125 169.141 45.3125 167.797V167.695ZM47.5703 167.859C47.5703 168.661 47.7214 169.276 48.0234 169.703C48.3255 170.125 48.7578 170.336 49.3203 170.336C49.8672 170.336 50.2943 170.128 50.6016 169.711C50.9089 169.289 51.0625 168.617 51.0625 167.695C51.0625 166.909 50.9089 166.299 50.6016 165.867C50.2943 165.435 49.862 165.219 49.3047 165.219C48.7526 165.219 48.3255 165.435 48.0234 165.867C47.7214 166.294 47.5703 166.958 47.5703 167.859ZM56.7891 163.547L56.8594 164.523C57.4635 163.768 58.2734 163.391 59.2891 163.391C60.1849 163.391 60.8516 163.654 61.2891 164.18C61.7266 164.706 61.9505 165.492 61.9609 166.539V172H59.7031V166.594C59.7031 166.115 59.599 165.768 59.3906 165.555C59.1823 165.336 58.8359 165.227 58.3516 165.227C57.7161 165.227 57.2396 165.497 56.9219 166.039V172H54.6641V163.547H56.7891ZM75.2734 167.852C75.2734 169.154 74.9766 170.198 74.3828 170.984C73.7943 171.766 72.9974 172.156 71.9922 172.156C71.138 172.156 70.4479 171.859 69.9219 171.266V175.25H67.6641V163.547H69.7578L69.8359 164.375C70.3828 163.719 71.0964 163.391 71.9766 163.391C73.0182 163.391 73.8281 163.776 74.4062 164.547C74.9844 165.318 75.2734 166.38 75.2734 167.734V167.852ZM73.0156 167.688C73.0156 166.901 72.875 166.294 72.5938 165.867C72.3177 165.44 71.9141 165.227 71.3828 165.227C70.6745 165.227 70.1875 165.497 69.9219 166.039V169.5C70.1979 170.057 70.6901 170.336 71.3984 170.336C72.4766 170.336 73.0156 169.453 73.0156 167.688ZM80.5703 172.156C79.3307 172.156 78.3203 171.776 77.5391 171.016C76.763 170.255 76.375 169.242 76.375 167.977V167.758C76.375 166.909 76.5391 166.151 76.8672 165.484C77.1953 164.812 77.6589 164.297 78.2578 163.938C78.862 163.573 79.5495 163.391 80.3203 163.391C81.4766 163.391 82.3854 163.755 83.0469 164.484C83.7135 165.214 84.0469 166.247 84.0469 167.586V168.508H78.6641C78.737 169.06 78.9557 169.503 79.3203 169.836C79.6901 170.169 80.1562 170.336 80.7188 170.336C81.5885 170.336 82.2682 170.021 82.7578 169.391L83.8672 170.633C83.5286 171.112 83.0703 171.487 82.4922 171.758C81.9141 172.023 81.2734 172.156 80.5703 172.156ZM80.3125 165.219C79.8646 165.219 79.5 165.37 79.2188 165.672C78.9427 165.974 78.7656 166.406 78.6875 166.969H81.8281V166.789C81.8177 166.289 81.6823 165.904 81.4219 165.633C81.1615 165.357 80.7917 165.219 80.3125 165.219ZM90.0859 165.664C89.7786 165.622 89.5078 165.602 89.2734 165.602C88.4193 165.602 87.8594 165.891 87.5938 166.469V172H85.3359V163.547H87.4688L87.5312 164.555C87.9844 163.779 88.612 163.391 89.4141 163.391C89.6641 163.391 89.8984 163.424 90.1172 163.492L90.0859 165.664ZM93.2969 163.547L93.3672 164.492C93.9661 163.758 94.776 163.391 95.7969 163.391C96.8854 163.391 97.6328 163.82 98.0391 164.68C98.6328 163.82 99.4792 163.391 100.578 163.391C101.495 163.391 102.177 163.659 102.625 164.195C103.073 164.727 103.297 165.529 103.297 166.602V172H101.031V166.609C101.031 166.13 100.938 165.781 100.75 165.562C100.562 165.339 100.232 165.227 99.7578 165.227C99.0807 165.227 98.612 165.549 98.3516 166.195L98.3594 172H96.1016V166.617C96.1016 166.128 96.0052 165.773 95.8125 165.555C95.6198 165.336 95.2917 165.227 94.8281 165.227C94.1875 165.227 93.724 165.492 93.4375 166.023V172H91.1797V163.547H93.2969ZM107.422 172H105.156V163.547H107.422V172ZM105.023 161.359C105.023 161.021 105.135 160.742 105.359 160.523C105.589 160.305 105.898 160.195 106.289 160.195C106.674 160.195 106.982 160.305 107.211 160.523C107.44 160.742 107.555 161.021 107.555 161.359C107.555 161.703 107.438 161.984 107.203 162.203C106.974 162.422 106.669 162.531 106.289 162.531C105.909 162.531 105.602 162.422 105.367 162.203C105.138 161.984 105.023 161.703 105.023 161.359ZM113.867 169.664C113.867 169.388 113.729 169.172 113.453 169.016C113.182 168.854 112.745 168.711 112.141 168.586C110.13 168.164 109.125 167.31 109.125 166.023C109.125 165.273 109.435 164.648 110.055 164.148C110.68 163.643 111.495 163.391 112.5 163.391C113.573 163.391 114.43 163.643 115.07 164.148C115.716 164.654 116.039 165.31 116.039 166.117H113.781C113.781 165.794 113.677 165.529 113.469 165.32C113.26 165.107 112.935 165 112.492 165C112.112 165 111.818 165.086 111.609 165.258C111.401 165.43 111.297 165.648 111.297 165.914C111.297 166.164 111.414 166.367 111.648 166.523C111.888 166.674 112.289 166.807 112.852 166.922C113.414 167.031 113.888 167.156 114.273 167.297C115.466 167.734 116.062 168.492 116.062 169.57C116.062 170.341 115.732 170.966 115.07 171.445C114.409 171.919 113.555 172.156 112.508 172.156C111.799 172.156 111.169 172.031 110.617 171.781C110.07 171.526 109.641 171.18 109.328 170.742C109.016 170.299 108.859 169.823 108.859 169.312H111C111.021 169.714 111.169 170.021 111.445 170.234C111.721 170.448 112.091 170.555 112.555 170.555C112.987 170.555 113.312 170.474 113.531 170.312C113.755 170.146 113.867 169.93 113.867 169.664ZM122.102 169.664C122.102 169.388 121.964 169.172 121.688 169.016C121.417 168.854 120.979 168.711 120.375 168.586C118.365 168.164 117.359 167.31 117.359 166.023C117.359 165.273 117.669 164.648 118.289 164.148C118.914 163.643 119.729 163.391 120.734 163.391C121.807 163.391 122.664 163.643 123.305 164.148C123.951 164.654 124.273 165.31 124.273 166.117H122.016C122.016 165.794 121.911 165.529 121.703 165.32C121.495 165.107 121.169 165 120.727 165C120.346 165 120.052 165.086 119.844 165.258C119.635 165.43 119.531 165.648 119.531 165.914C119.531 166.164 119.648 166.367 119.883 166.523C120.122 166.674 120.523 166.807 121.086 166.922C121.648 167.031 122.122 167.156 122.508 167.297C123.701 167.734 124.297 168.492 124.297 169.57C124.297 170.341 123.966 170.966 123.305 171.445C122.643 171.919 121.789 172.156 120.742 172.156C120.034 172.156 119.404 172.031 118.852 171.781C118.305 171.526 117.875 171.18 117.562 170.742C117.25 170.299 117.094 169.823 117.094 169.312H119.234C119.255 169.714 119.404 170.021 119.68 170.234C119.956 170.448 120.326 170.555 120.789 170.555C121.221 170.555 121.547 170.474 121.766 170.312C121.99 170.146 122.102 169.93 122.102 169.664ZM128.141 172H125.875V163.547H128.141V172ZM125.742 161.359C125.742 161.021 125.854 160.742 126.078 160.523C126.307 160.305 126.617 160.195 127.008 160.195C127.393 160.195 127.701 160.305 127.93 160.523C128.159 160.742 128.273 161.021 128.273 161.359C128.273 161.703 128.156 161.984 127.922 162.203C127.693 162.422 127.388 162.531 127.008 162.531C126.628 162.531 126.32 162.422 126.086 162.203C125.857 161.984 125.742 161.703 125.742 161.359ZM129.656 167.695C129.656 166.857 129.818 166.109 130.141 165.453C130.464 164.797 130.927 164.289 131.531 163.93C132.141 163.57 132.846 163.391 133.648 163.391C134.789 163.391 135.719 163.74 136.438 164.438C137.161 165.135 137.565 166.083 137.648 167.281L137.664 167.859C137.664 169.156 137.302 170.198 136.578 170.984C135.854 171.766 134.883 172.156 133.664 172.156C132.445 172.156 131.471 171.766 130.742 170.984C130.018 170.203 129.656 169.141 129.656 167.797V167.695ZM131.914 167.859C131.914 168.661 132.065 169.276 132.367 169.703C132.669 170.125 133.102 170.336 133.664 170.336C134.211 170.336 134.638 170.128 134.945 169.711C135.253 169.289 135.406 168.617 135.406 167.695C135.406 166.909 135.253 166.299 134.945 165.867C134.638 165.435 134.206 165.219 133.648 165.219C133.096 165.219 132.669 165.435 132.367 165.867C132.065 166.294 131.914 166.958 131.914 167.859ZM141.133 163.547L141.203 164.523C141.807 163.768 142.617 163.391 143.633 163.391C144.529 163.391 145.195 163.654 145.633 164.18C146.07 164.706 146.294 165.492 146.305 166.539V172H144.047V166.594C144.047 166.115 143.943 165.768 143.734 165.555C143.526 165.336 143.18 165.227 142.695 165.227C142.06 165.227 141.583 165.497 141.266 166.039V172H139.008V163.547H141.133ZM156.758 165.664C156.451 165.622 156.18 165.602 155.945 165.602C155.091 165.602 154.531 165.891 154.266 166.469V172H152.008V163.547H154.141L154.203 164.555C154.656 163.779 155.284 163.391 156.086 163.391C156.336 163.391 156.57 163.424 156.789 163.492L156.758 165.664ZM161.586 172.156C160.346 172.156 159.336 171.776 158.555 171.016C157.779 170.255 157.391 169.242 157.391 167.977V167.758C157.391 166.909 157.555 166.151 157.883 165.484C158.211 164.812 158.674 164.297 159.273 163.938C159.878 163.573 160.565 163.391 161.336 163.391C162.492 163.391 163.401 163.755 164.062 164.484C164.729 165.214 165.062 166.247 165.062 167.586V168.508H159.68C159.753 169.06 159.971 169.503 160.336 169.836C160.706 170.169 161.172 170.336 161.734 170.336C162.604 170.336 163.284 170.021 163.773 169.391L164.883 170.633C164.544 171.112 164.086 171.487 163.508 171.758C162.93 172.023 162.289 172.156 161.586 172.156ZM161.328 165.219C160.88 165.219 160.516 165.37 160.234 165.672C159.958 165.974 159.781 166.406 159.703 166.969H162.844V166.789C162.833 166.289 162.698 165.904 162.438 165.633C162.177 165.357 161.807 165.219 161.328 165.219ZM166 167.695C166 166.367 166.294 165.318 166.883 164.547C167.477 163.776 168.289 163.391 169.32 163.391C170.227 163.391 170.948 163.737 171.484 164.43L171.633 163.547H173.617V175.25H171.352V171.273C170.831 171.862 170.148 172.156 169.305 172.156C168.299 172.156 167.497 171.766 166.898 170.984C166.299 170.203 166 169.107 166 167.695ZM168.258 167.859C168.258 168.667 168.398 169.281 168.68 169.703C168.966 170.125 169.367 170.336 169.883 170.336C170.576 170.336 171.065 170.06 171.352 169.508V166.016C171.07 165.484 170.586 165.219 169.898 165.219C169.378 165.219 168.974 165.43 168.688 165.852C168.401 166.273 168.258 166.943 168.258 167.859ZM180.461 171.141C179.904 171.818 179.133 172.156 178.148 172.156C177.242 172.156 176.549 171.896 176.07 171.375C175.596 170.854 175.354 170.091 175.344 169.086V163.547H177.602V169.008C177.602 169.888 178.003 170.328 178.805 170.328C179.57 170.328 180.096 170.062 180.383 169.531V163.547H182.648V172H180.523L180.461 171.141ZM186.734 172H184.469V163.547H186.734V172ZM184.336 161.359C184.336 161.021 184.448 160.742 184.672 160.523C184.901 160.305 185.211 160.195 185.602 160.195C185.987 160.195 186.294 160.305 186.523 160.523C186.753 160.742 186.867 161.021 186.867 161.359C186.867 161.703 186.75 161.984 186.516 162.203C186.286 162.422 185.982 162.531 185.602 162.531C185.221 162.531 184.914 162.422 184.68 162.203C184.451 161.984 184.336 161.703 184.336 161.359ZM193.352 165.664C193.044 165.622 192.773 165.602 192.539 165.602C191.685 165.602 191.125 165.891 190.859 166.469V172H188.602V163.547H190.734L190.797 164.555C191.25 163.779 191.878 163.391 192.68 163.391C192.93 163.391 193.164 163.424 193.383 163.492L193.352 165.664ZM198.18 172.156C196.94 172.156 195.93 171.776 195.148 171.016C194.372 170.255 193.984 169.242 193.984 167.977V167.758C193.984 166.909 194.148 166.151 194.477 165.484C194.805 164.812 195.268 164.297 195.867 163.938C196.471 163.573 197.159 163.391 197.93 163.391C199.086 163.391 199.995 163.755 200.656 164.484C201.323 165.214 201.656 166.247 201.656 167.586V168.508H196.273C196.346 169.06 196.565 169.503 196.93 169.836C197.299 170.169 197.766 170.336 198.328 170.336C199.198 170.336 199.878 170.021 200.367 169.391L201.477 170.633C201.138 171.112 200.68 171.487 200.102 171.758C199.523 172.023 198.883 172.156 198.18 172.156ZM197.922 165.219C197.474 165.219 197.109 165.37 196.828 165.672C196.552 165.974 196.375 166.406 196.297 166.969H199.438V166.789C199.427 166.289 199.292 165.904 199.031 165.633C198.771 165.357 198.401 165.219 197.922 165.219ZM202.594 167.711C202.594 166.393 202.888 165.344 203.477 164.562C204.07 163.781 204.88 163.391 205.906 163.391C206.729 163.391 207.409 163.698 207.945 164.312V160H210.211V172H208.172L208.062 171.102C207.5 171.805 206.776 172.156 205.891 172.156C204.896 172.156 204.096 171.766 203.492 170.984C202.893 170.198 202.594 169.107 202.594 167.711ZM204.852 167.875C204.852 168.667 204.99 169.273 205.266 169.695C205.542 170.117 205.943 170.328 206.469 170.328C207.167 170.328 207.659 170.034 207.945 169.445V166.109C207.664 165.521 207.177 165.227 206.484 165.227C205.396 165.227 204.852 166.109 204.852 167.875Z" fill="#EB5757"/>
</svg>
