<svg width="26" height="26" viewBox="0 0 26 26" fill="none" xmlns="http://www.w3.org/2000/svg">
<path d="M12.9998 12.4583C12.2815 12.4583 11.5927 12.173 11.0848 11.665C10.5768 11.1571 10.2915 10.4683 10.2915 9.74996C10.2915 9.03167 10.5768 8.34279 11.0848 7.83488C11.5927 7.32697 12.2815 7.04163 12.9998 7.04163C13.7181 7.04163 14.407 7.32697 14.9149 7.83488C15.4228 8.34279 15.7082 9.03167 15.7082 9.74996C15.7082 10.1056 15.6381 10.4578 15.502 10.7864C15.3659 11.115 15.1664 11.4135 14.9149 11.665C14.6634 11.9165 14.3649 12.116 14.0363 12.2521C13.7077 12.3882 13.3555 12.4583 12.9998 12.4583ZM12.9998 2.16663C10.9886 2.16663 9.05976 2.96558 7.63761 4.38773C6.21546 5.80988 5.4165 7.73874 5.4165 9.74996C5.4165 15.4375 12.9998 23.8333 12.9998 23.8333C12.9998 23.8333 20.5832 15.4375 20.5832 9.74996C20.5832 7.73874 19.7842 5.80988 18.3621 4.38773C16.9399 2.96558 15.0111 2.16663 12.9998 2.16663Z" fill="#184466"/>
</svg>
