<svg width="64" height="64" viewBox="0 0 64 64" fill="none" xmlns="http://www.w3.org/2000/svg">
<path d="M48 45.333H16V39.9997H48V45.333ZM48 34.6663H16V29.333H48V34.6663ZM48 23.9997H16V18.6663H48V23.9997ZM8 58.6663L12 54.6663L16 58.6663L20 54.6663L24 58.6663L28 54.6663L32 58.6663L36 54.6663L40 58.6663L44 54.6663L48 58.6663L52 54.6663L56 58.6663V5.33301L52 9.33301L48 5.33301L44 9.33301L40 5.33301L36 9.33301L32 5.33301L28 9.33301L24 5.33301L20 9.33301L16 5.33301L12 9.33301L8 5.33301V58.6663Z" fill="#219653"/>
</svg>
