<svg width="22" height="24" viewBox="0 0 22 24" fill="none" xmlns="http://www.w3.org/2000/svg">
<path d="M0.399048 15.1162C0.373697 15.1162 0.349334 15.1156 0.325959 15.1144C0.143859 15.1053 0 14.9431 0 14.7443V14.7425C0 14.5409 0.147898 14.3791 0.332619 14.3723C0.648137 14.3605 1.13407 14.2358 1.54657 13.6715C1.56968 13.6399 1.59074 13.6084 1.60994 13.5771C0.911877 13.4135 0.491259 13.1533 0.327635 12.7855C0.230655 12.5675 0.180167 12.2139 0.490142 11.7671C0.703867 11.4589 1.01199 11.309 1.33568 11.3562C1.74645 11.416 2.13364 11.785 2.32215 12.2961C2.40761 12.5278 2.44684 12.7667 2.44117 13.0033C2.63698 13.0254 2.83605 13.0394 3.02842 13.044C3.20601 13.0482 3.35777 13.2002 3.35992 13.394C3.36216 13.5952 3.21293 13.7559 3.02881 13.7531C3.01175 13.7527 2.69778 13.7455 2.2919 13.6955C2.23101 13.8404 2.15182 13.9806 2.05467 14.1135C1.43902 14.9556 0.798269 15.1162 0.399048 15.1162ZM1.217 12.0563C1.16148 12.0563 1.08801 12.0798 1.00826 12.1947C0.95794 12.2673 0.878577 12.4002 0.912221 12.4759C0.988061 12.6466 1.33752 12.7931 1.78723 12.8949C1.77928 12.7487 1.74538 12.6314 1.71926 12.5606C1.60835 12.26 1.3991 12.0806 1.2497 12.0589C1.23968 12.0574 1.22873 12.0563 1.217 12.0563Z" fill="#E8679C"/>
<path d="M21.3727 13.0904L20.4583 12.7708C20.2395 12.6944 20.0695 12.5059 20.0006 12.2668C18.9483 8.61647 15.0409 6.94009 11.1077 6.94009C6.50615 6.94009 2.77588 9.234 2.77588 14.2998C2.77588 17.2193 4.08852 19.2643 6.11655 20.4453C6.16644 20.4743 6.20193 20.5259 6.21263 20.5865L6.66698 23.161C6.70904 23.4035 6.90335 23.5791 7.12962 23.5791H8.6639C8.89017 23.5791 9.08443 23.4035 9.12654 23.161L9.3749 21.7296C9.3932 21.624 9.48344 21.5529 9.58128 21.5653C10.0761 21.628 10.5863 21.6594 11.1077 21.6594C11.8046 21.6594 12.5006 21.6033 13.1802 21.4912C13.2801 21.4748 13.3742 21.5464 13.393 21.6546L13.6544 23.161C13.6965 23.4035 13.8908 23.5791 14.117 23.5791H15.6513C15.8776 23.5791 16.0718 23.4035 16.114 23.161L16.5859 20.4351C16.5965 20.3736 16.6328 20.3211 16.6838 20.2923C17.8881 19.6092 18.8845 18.6694 19.5199 17.4713C19.6046 17.3116 19.7385 17.19 19.8996 17.1337L21.3729 16.6189C21.7463 16.4884 21.9998 16.1095 21.9998 15.6817V14.0276C21.9996 13.5997 21.7463 13.2209 21.3727 13.0904Z" fill="#FF7BAC"/>
<path d="M21.8848 13.5483C21.8451 13.4706 21.7962 13.3989 21.7389 13.3355C21.7376 13.3342 21.7365 13.3327 21.7353 13.3314C21.636 13.2231 21.5128 13.1392 21.3728 13.0903L20.6949 12.8534V13.7234C20.6949 14.8042 20.0637 15.7648 19.1254 16.1119C18.6988 16.261 18.3299 16.5559 18.0596 16.9457C17.7286 17.423 17.3353 17.8519 16.8921 18.2325C16.3696 18.6812 16.0171 19.3234 15.9163 20.0405C15.8445 20.5518 15.7888 21.0974 15.7534 21.484C15.7261 21.7814 15.4969 22.0079 15.223 22.0079H14.117C13.8908 22.0079 13.6965 21.8323 13.6544 21.5897L13.393 20.0834C13.3742 19.9751 13.2801 19.9035 13.1803 19.92C12.5007 20.032 11.8047 20.0882 11.1077 20.0882C10.5863 20.0882 10.0762 20.0567 9.58131 19.994C9.48343 19.9817 9.39324 20.0528 9.37489 20.1584L9.12654 21.5898C9.08447 21.8323 8.89017 22.0079 8.66389 22.0079H7.12962C6.90335 22.0079 6.70909 21.8323 6.66698 21.5898L6.21263 19.0153C6.20193 18.9547 6.16644 18.9031 6.11655 18.8741C4.27367 17.8008 3.02179 16.0141 2.80849 13.5061C2.80849 13.5062 2.80849 13.5062 2.80849 13.5062C2.80342 13.5678 2.79895 13.6298 2.79504 13.6922C2.79496 13.6935 2.79491 13.6947 2.79483 13.696C2.79444 13.7021 2.7941 13.7083 2.79375 13.7145C2.79036 13.7706 2.78739 13.8271 2.78495 13.8839C2.78396 13.9074 2.78327 13.9313 2.78245 13.955C2.78091 13.9983 2.77936 14.0417 2.77837 14.0854C2.77687 14.1564 2.77588 14.2277 2.77588 14.2998C2.77588 14.6648 2.79637 15.016 2.83625 15.3537C2.88506 15.7673 2.96322 16.1602 3.06798 16.533C3.07369 16.5534 3.07967 16.5736 3.08555 16.5938C3.10012 16.6439 3.11524 16.6939 3.13088 16.7437C3.13712 16.7635 3.1433 16.7834 3.1497 16.8031C3.1928 16.9358 3.23942 17.0658 3.28948 17.193C3.29481 17.2065 3.30009 17.22 3.30547 17.2334C3.33013 17.295 3.35552 17.356 3.38182 17.4163C3.38616 17.4263 3.39071 17.4361 3.3951 17.4461C3.41959 17.5015 3.4449 17.5566 3.47085 17.6113C3.47532 17.6206 3.47966 17.6301 3.48413 17.6395C3.5124 17.6982 3.54153 17.7561 3.57135 17.8136C3.57784 17.826 3.58442 17.8385 3.59095 17.8509C3.6875 18.0338 3.79191 18.2102 3.9038 18.38C3.9145 18.3962 3.92541 18.4123 3.93624 18.4283C3.9634 18.4687 3.99098 18.5087 4.019 18.5484C4.03004 18.564 4.041 18.5796 4.05213 18.5951C4.09003 18.6477 4.1284 18.6998 4.16776 18.751C4.1681 18.7514 4.16849 18.7519 4.16883 18.7524C4.20823 18.8036 4.24862 18.854 4.28949 18.9038C4.30186 18.919 4.31449 18.9339 4.327 18.9489C4.35751 18.9854 4.38844 19.0216 4.41972 19.0574C4.43236 19.0718 4.4449 19.0864 4.45767 19.1007C4.50051 19.1488 4.54386 19.1965 4.58812 19.2432C4.5882 19.2433 4.58833 19.2435 4.58842 19.2436C4.63775 19.2957 4.68793 19.347 4.73898 19.3974C4.84103 19.4983 4.94648 19.5957 5.05514 19.6898C5.16381 19.7839 5.2757 19.8746 5.39073 19.9619C5.44822 20.0056 5.50648 20.0484 5.56552 20.0904C5.61867 20.1281 5.6726 20.165 5.72696 20.2015C5.7426 20.212 5.75836 20.2222 5.77409 20.2326C5.81517 20.2596 5.85646 20.2862 5.89797 20.3124C5.91443 20.3228 5.93084 20.3332 5.94738 20.3434C6.00329 20.378 6.05953 20.4122 6.11655 20.4453C6.12901 20.4526 6.14057 20.4613 6.1511 20.4712C6.16055 20.4801 6.16884 20.4902 6.17645 20.5008C6.17873 20.504 6.18066 20.5073 6.18272 20.5106C6.18792 20.5189 6.19256 20.5275 6.1966 20.5366C6.19823 20.5402 6.19991 20.5437 6.20133 20.5474C6.20614 20.56 6.21018 20.573 6.21259 20.5866L6.66693 23.1611C6.67218 23.1915 6.67982 23.2207 6.68962 23.2487C6.69452 23.2628 6.69993 23.2764 6.70586 23.2898C6.71179 23.3032 6.71824 23.3161 6.72516 23.3288C6.73207 23.3415 6.73946 23.3537 6.74733 23.3656C6.75519 23.3776 6.76353 23.3891 6.77229 23.4002C6.78222 23.4128 6.79279 23.4247 6.80375 23.4361C6.80723 23.4397 6.81088 23.4431 6.8144 23.4466C6.82231 23.4544 6.83039 23.4619 6.83872 23.4691C6.84293 23.4727 6.84719 23.4762 6.85148 23.4796C6.86008 23.4865 6.86889 23.493 6.87787 23.4992C6.88191 23.502 6.8859 23.5049 6.89003 23.5076C6.90305 23.516 6.91641 23.5239 6.9302 23.531C6.93042 23.5311 6.93059 23.5312 6.9308 23.5313C6.9446 23.5383 6.95882 23.5444 6.97326 23.5499C6.97781 23.5516 6.98249 23.5531 6.98709 23.5547C6.99736 23.5583 7.0078 23.5615 7.01837 23.5643C7.0237 23.5657 7.02907 23.567 7.03444 23.5682C7.04514 23.5706 7.05597 23.5726 7.06688 23.5741C7.07183 23.5749 7.07672 23.5757 7.08167 23.5763C7.09739 23.578 7.11329 23.5792 7.12936 23.5792C7.12945 23.5792 7.12953 23.5792 7.12962 23.5792H8.66389C8.73462 23.5792 8.80217 23.5621 8.86297 23.5311C8.88729 23.5187 8.91053 23.5041 8.9324 23.4875C8.95432 23.4709 8.9749 23.4523 8.99394 23.4319C9.02247 23.4013 9.04752 23.3667 9.06827 23.3288C9.09594 23.2782 9.11597 23.2217 9.12649 23.1611L9.37485 21.7297V21.7297C9.37691 21.7178 9.38018 21.7065 9.38396 21.6955C9.38508 21.6923 9.38641 21.6892 9.3877 21.686C9.39088 21.6782 9.3944 21.6706 9.3984 21.6633C9.39999 21.6604 9.40149 21.6575 9.40321 21.6547C9.40901 21.6453 9.41524 21.6362 9.42233 21.6281C9.44158 21.6059 9.4656 21.5894 9.4919 21.5784C9.49443 21.5773 9.49692 21.5762 9.4995 21.5753C9.50582 21.573 9.51213 21.571 9.51871 21.5694C9.52369 21.5682 9.52876 21.5674 9.53388 21.5666C9.53882 21.5658 9.54363 21.5649 9.54866 21.5646C9.55936 21.5639 9.57023 21.564 9.58123 21.5654C9.66369 21.5758 9.74674 21.5851 9.83006 21.5938C9.8509 21.596 9.87178 21.5981 9.89266 21.6002C9.97594 21.6084 10.0595 21.6161 10.1436 21.6227C10.144 21.6227 10.1444 21.6227 10.1448 21.6227C10.2289 21.6293 10.3134 21.6346 10.3982 21.6394C10.4195 21.6406 10.4409 21.6417 10.4623 21.6429C10.5475 21.6472 10.6328 21.651 10.7187 21.6536C10.8476 21.6576 10.9773 21.6595 11.1076 21.6595C11.2818 21.6595 11.456 21.656 11.6299 21.649C11.7189 21.6454 11.8079 21.6409 11.8967 21.6355C11.9058 21.6349 11.9148 21.6341 11.9238 21.6335C12.0045 21.6284 12.0852 21.6227 12.1657 21.6161C12.1675 21.616 12.1694 21.6157 12.1713 21.6156C12.3478 21.6009 12.5237 21.5827 12.6988 21.5608C12.6994 21.5607 12.6999 21.5606 12.7004 21.5605C12.7805 21.5505 12.8604 21.5398 12.9401 21.5283C12.9787 21.5228 13.017 21.5165 13.0554 21.5106C13.0977 21.5041 13.1401 21.498 13.1823 21.491C13.2678 21.4769 13.3484 21.5293 13.3809 21.6129C13.3814 21.614 13.382 21.6149 13.3824 21.616C13.387 21.6283 13.3905 21.6413 13.3929 21.6548L13.5235 22.4079L13.6542 23.1611C13.6963 23.4037 13.8906 23.5793 14.1169 23.5793H15.6511C15.6512 23.5793 15.6513 23.5793 15.6514 23.5793C15.6675 23.5793 15.6834 23.5781 15.6991 23.5763C15.7041 23.5758 15.7089 23.5749 15.7139 23.5742C15.7248 23.5726 15.7356 23.5707 15.7463 23.5683C15.7517 23.5671 15.757 23.5658 15.7623 23.5643C15.7729 23.5615 15.7833 23.5583 15.7936 23.5547C15.7982 23.5531 15.8029 23.5516 15.8074 23.5499C15.822 23.5443 15.8362 23.5382 15.8501 23.5312C15.8502 23.5311 15.8502 23.5311 15.8503 23.5311C15.8641 23.524 15.8775 23.516 15.8906 23.5076C15.8948 23.5049 15.8987 23.502 15.9028 23.4992C15.9118 23.493 15.9206 23.4865 15.9292 23.4796C15.9335 23.4762 15.9377 23.4727 15.9419 23.4691C15.9503 23.4619 15.9584 23.4544 15.9663 23.4466C15.9699 23.4431 15.9735 23.4398 15.977 23.4361C15.9879 23.4247 15.9985 23.4128 16.0084 23.4002C16.0123 23.3953 16.0158 23.39 16.0195 23.3849C16.0324 23.3671 16.0447 23.3486 16.0555 23.3288C16.0693 23.3036 16.0812 23.2768 16.091 23.2488C16.1008 23.2208 16.1084 23.1915 16.1137 23.1612L16.2172 22.5639L16.3246 21.9431L16.392 21.5538L16.5857 20.4353L16.603 20.335C16.6348 20.3178 16.6476 20.3108 16.6794 20.2937C16.6806 20.2941 16.6813 20.2939 16.682 20.2935C16.6825 20.2932 16.683 20.2927 16.6835 20.2924C16.7204 20.2715 16.7563 20.2496 16.7927 20.2283C16.8308 20.206 16.8693 20.1841 16.9069 20.1613C16.9396 20.1415 16.9714 20.1207 17.0037 20.1005C17.0443 20.0751 17.0853 20.0501 17.1254 20.024C17.1584 20.0026 17.1905 19.9802 17.2231 19.9583C17.2616 19.9325 17.3005 19.9072 17.3384 19.8808C17.3724 19.8572 17.4055 19.8326 17.439 19.8084C17.4747 19.7828 17.5108 19.7577 17.5459 19.7315C17.5791 19.7068 17.6114 19.6812 17.6441 19.656C17.6786 19.6294 17.7136 19.6033 17.7476 19.5762C17.7793 19.551 17.81 19.5248 17.8413 19.499C17.8754 19.471 17.9099 19.4434 17.9434 19.4149C17.9737 19.389 18.003 19.3622 18.0329 19.3358C18.0662 19.3064 18.1001 19.2775 18.1328 19.2475C18.163 19.22 18.1921 19.1914 18.2217 19.1633C18.2531 19.1336 18.2851 19.1044 18.3159 19.0741C18.3446 19.0459 18.3723 19.0167 18.4006 18.988C18.4311 18.9569 18.4623 18.9262 18.4923 18.8946C18.5197 18.8657 18.546 18.8358 18.5729 18.8064C18.6025 18.774 18.6327 18.7421 18.6618 18.7091C18.6882 18.679 18.7135 18.648 18.7394 18.6176C18.7676 18.5842 18.7965 18.5514 18.8241 18.5175C18.8493 18.4866 18.8733 18.4548 18.898 18.4234C18.925 18.389 18.9527 18.3549 18.9791 18.3199C19.0031 18.2881 19.0259 18.2553 19.0493 18.2229C19.0751 18.1874 19.1015 18.1523 19.1265 18.1162C19.1495 18.0831 19.1713 18.0489 19.1938 18.0153C19.2179 17.979 19.2427 17.9433 19.2661 17.9065C19.288 17.8721 19.3086 17.8368 19.3299 17.8019C19.3525 17.7649 19.3758 17.7283 19.3977 17.6908C19.4249 17.6441 19.4498 17.5957 19.477 17.5491C19.4931 17.5214 19.5082 17.4931 19.5233 17.4648C19.6062 17.3091 19.7369 17.1907 19.8941 17.1358L19.8994 17.1339H19.8994L20.651 16.8712L21.3727 16.6191C21.7462 16.4886 21.9996 16.1097 21.9996 15.6819V14.0277C21.9996 13.8815 21.9694 13.7414 21.9155 13.6146C21.9061 13.5919 21.8958 13.5699 21.8848 13.5483Z" fill="#E8679C"/>
<path d="M14.682 7.83385C14.7286 7.59221 14.8819 7.39131 15.0877 7.28851C15.8785 6.89364 17.8933 5.94344 18.4112 6.23941C19.0598 6.61004 18.7201 10.6113 17.7317 11.222C16.777 11.8119 14.0069 11.329 14.682 7.83385Z" fill="#E8679C"/>
<path d="M17.6849 14.2081C17.0991 14.2081 16.6226 13.6882 16.6226 13.0492C16.6226 12.8534 16.768 12.6948 16.9474 12.6948C17.1269 12.6948 17.2723 12.8534 17.2723 13.0492C17.2723 13.2973 17.4574 13.4992 17.6848 13.4992C17.9123 13.4992 18.0974 13.2973 18.0974 13.0492C18.0974 12.8534 18.2428 12.6948 18.4223 12.6948C18.6017 12.6948 18.7471 12.8534 18.7471 13.0492C18.7472 13.6882 18.2707 14.2081 17.6849 14.2081Z" fill="#E8679C"/>
<path d="M12.9092 9.88935C12.875 9.88935 12.8403 9.88345 12.8062 9.87098C11.0343 9.22476 9.08264 9.22476 7.31079 9.87098C7.14063 9.93299 6.95651 9.83287 6.89966 9.6472C6.84277 9.46153 6.9346 9.26072 7.1048 9.19866C9.00955 8.50397 11.1075 8.50397 13.0122 9.19866C13.1824 9.26072 13.2743 9.46153 13.2174 9.6472C13.1719 9.7956 13.0451 9.88935 12.9092 9.88935Z" fill="#E8679C"/>
<path d="M10.0582 9.38722C12.3279 9.38722 14.1678 7.38007 14.1678 4.90412C14.1678 2.42817 12.3279 0.421021 10.0582 0.421021C7.78862 0.421021 5.94873 2.42817 5.94873 4.90412C5.94873 7.38007 7.78862 9.38722 10.0582 9.38722Z" fill="#FFB125"/>
<path d="M18.1361 6.70303C17.6851 6.70303 16.5929 7.1085 15.2859 7.76123C15.2145 7.79685 15.163 7.86412 15.1481 7.94104C14.9577 8.92719 15.0595 9.72092 15.4428 10.2363C15.4876 10.2965 15.5368 10.3532 15.5897 10.4063C15.6514 10.4681 15.7508 10.4334 15.7713 10.3449C16.2255 8.38227 18.43 6.70303 18.1361 6.70303Z" fill="#FF7BAC"/>
<path d="M13.0146 1.79007L7.2041 8.12889C8.81271 9.82431 11.3765 9.80617 12.9643 8.07396C14.5522 6.34175 14.5688 3.54492 13.0146 1.79007Z" fill="#FF901D"/>
<path d="M9.965 7.07582C9.26513 7.06349 8.79102 6.65095 8.79102 6.34926C8.79102 6.20146 8.90952 5.99826 9.05063 5.99826C9.2369 5.99826 9.38927 6.42928 9.965 6.47854V5.03156C9.45703 4.83455 8.89259 4.61288 8.89259 3.82473C8.89259 3.0489 9.4288 2.74103 9.965 2.67944V2.50089C9.965 2.42702 10.0327 2.35928 10.1287 2.35928C10.2134 2.35928 10.2981 2.42702 10.2981 2.50089V2.66716C10.6818 2.67948 11.2237 2.80877 11.2237 3.1105C11.2237 3.2275 11.1447 3.46145 10.9754 3.46145C10.8399 3.46145 10.6931 3.26443 10.2981 3.23364V4.48355C10.7891 4.68057 11.3253 4.9515 11.3253 5.78892C11.3253 6.54627 10.9076 6.96496 10.2981 7.05735V7.26669C10.2981 7.34057 10.2134 7.4083 10.1287 7.4083C10.0328 7.4083 9.965 7.34057 9.965 7.26669V7.07582ZM9.99886 4.3666V3.24597C9.68279 3.28904 9.45703 3.44298 9.45703 3.76318C9.45703 4.11413 9.69972 4.24346 9.99886 4.3666ZM10.2642 5.16703V6.46621C10.5689 6.40462 10.7608 6.2076 10.7608 5.85661C10.7608 5.46877 10.5407 5.29636 10.2642 5.16703Z" fill="#DD7219"/>
</svg>
