<svg width="29" height="29" viewBox="0 0 29 29" fill="none" xmlns="http://www.w3.org/2000/svg">
<path d="M23.6415 14.2693C23.6415 16.713 22.6707 19.0566 20.9428 20.7846C19.2148 22.5125 16.8712 23.4833 14.4276 23.4833C11.9839 23.4833 9.64027 22.5125 7.91233 20.7846C6.18438 19.0566 5.21364 16.713 5.21364 14.2693C5.21364 11.8257 6.18438 9.48207 7.91233 7.75413C9.64027 6.02618 11.9839 5.05543 14.4276 5.05543C15.3029 5.05543 16.1552 5.18212 16.9614 5.41247L18.7696 3.60424C17.4336 3.05141 15.9709 2.75195 14.4276 2.75195C12.9151 2.75195 11.4174 3.04986 10.02 3.62866C8.62268 4.20747 7.35301 5.05583 6.28352 6.12532C4.12359 8.28525 2.91016 11.2147 2.91016 14.2693C2.91016 17.324 4.12359 20.2534 6.28352 22.4134C7.35301 23.4829 8.62268 24.3312 10.02 24.91C11.4174 25.4888 12.9151 25.7867 14.4276 25.7867C17.4822 25.7867 20.4116 24.5733 22.5716 22.4134C24.7315 20.2534 25.9449 17.324 25.9449 14.2693H23.6415ZM9.71694 12.058L8.09298 13.6935L13.2758 18.8763L24.7932 7.35891L23.1693 5.72344L13.2758 15.6169L9.71694 12.058Z" fill="#2F80ED"/>
</svg>
