<svg width="14" height="13" viewBox="0 0 14 13" fill="none" xmlns="http://www.w3.org/2000/svg">
<path d="M13.3751 5.16833H8.57261L10.5134 3.17083C8.5797 1.25833 5.44886 1.1875 3.51511 3.1C1.58136 5.01958 1.58136 8.115 3.51511 10.0346C5.44886 11.9542 8.5797 11.9542 10.5134 10.0346C11.4768 9.08542 11.9584 7.97333 11.9584 6.57083H13.3751C13.3751 7.97333 12.7518 9.79375 11.5051 11.0262C9.01886 13.4912 4.98136 13.4912 2.49511 11.0262C0.0159482 8.56833 -0.00530177 4.57333 2.48095 2.11542C4.9672 -0.3425 8.95511 -0.3425 11.4414 2.11542L13.3751 0.125V5.16833ZM7.35428 3.66667V6.67708L9.83345 8.15042L9.32345 9.0075L6.29178 7.20833V3.66667H7.35428Z" fill="#4F4F4F"/>
</svg>
