<svg width="92" height="92" viewBox="0 0 92 92" fill="none" xmlns="http://www.w3.org/2000/svg">
<circle cx="46" cy="46" r="46" fill="#184466"/>
<path d="M45.9999 20.6855C36.2032 20.6855 28.2798 28.609 28.2798 38.4057C28.2798 51.6958 45.9999 71.3145 45.9999 71.3145C45.9999 71.3145 63.72 51.6958 63.72 38.4057C63.72 28.609 55.7966 20.6855 45.9999 20.6855ZM33.3427 38.4057C33.3427 31.4189 39.0131 25.7484 45.9999 25.7484C52.9867 25.7484 58.6571 31.4189 58.6571 38.4057C58.6571 45.6962 51.3666 56.6068 45.9999 63.4164C40.7345 56.6574 33.3427 45.6203 33.3427 38.4057Z" fill="white"/>
<path d="M46 44.7343C49.4952 44.7343 52.3286 41.9009 52.3286 38.4057C52.3286 34.9105 49.4952 32.0771 46 32.0771C42.5048 32.0771 39.6714 34.9105 39.6714 38.4057C39.6714 41.9009 42.5048 44.7343 46 44.7343Z" fill="white"/>
</svg>
