<svg width="92" height="92" viewBox="0 0 92 92" fill="none" xmlns="http://www.w3.org/2000/svg">
<circle cx="46" cy="46" r="46" fill="#184466"/>
<g clip-path="url(#clip0)">
<path d="M29.875 29.875H41.6875V41.6875H29.875V29.875ZM61.375 29.875V41.6875H49.5625V29.875H61.375ZM49.5625 51.5312H53.5V47.5938H49.5625V43.6562H53.5V47.5938H57.4375V43.6562H61.375V47.5938H57.4375V51.5312H61.375V57.4375H57.4375V61.375H53.5V57.4375H47.5938V61.375H43.6562V53.5H49.5625V51.5312ZM53.5 51.5312V57.4375H57.4375V51.5312H53.5ZM29.875 61.375V49.5625H41.6875V61.375H29.875ZM33.8125 33.8125V37.75H37.75V33.8125H33.8125ZM53.5 33.8125V37.75H57.4375V33.8125H53.5ZM33.8125 53.5V57.4375H37.75V53.5H33.8125ZM29.875 43.6562H33.8125V47.5938H29.875V43.6562ZM39.7188 43.6562H47.5938V51.5312H43.6562V47.5938H39.7188V43.6562ZM43.6562 33.8125H47.5938V41.6875H43.6562V33.8125ZM25.9375 25.9375V33.8125H22V25.9375C22 24.8932 22.4148 23.8917 23.1533 23.1533C23.8917 22.4148 24.8932 22 25.9375 22H33.8125V25.9375H25.9375ZM65.3125 22C66.3568 22 67.3583 22.4148 68.0967 23.1533C68.8352 23.8917 69.25 24.8932 69.25 25.9375V33.8125H65.3125V25.9375H57.4375V22H65.3125ZM25.9375 57.4375V65.3125H33.8125V69.25H25.9375C24.8932 69.25 23.8917 68.8352 23.1533 68.0967C22.4148 67.3583 22 66.3568 22 65.3125V57.4375H25.9375ZM65.3125 65.3125V57.4375H69.25V65.3125C69.25 66.3568 68.8352 67.3583 68.0967 68.0967C67.3583 68.8352 66.3568 69.25 65.3125 69.25H57.4375V65.3125H65.3125Z" fill="white"/>
</g>
<defs>
<clipPath id="clip0">
<rect width="47.25" height="47.25" fill="white" transform="translate(22 22)"/>
</clipPath>
</defs>
</svg>
