<svg width="92" height="92" viewBox="0 0 92 92" fill="none" xmlns="http://www.w3.org/2000/svg">
<circle cx="46" cy="46" r="46" fill="#184466"/>
<path d="M23.5938 71.6875L27.3906 67.8906L31.1875 71.6875L34.9844 67.8906L38.7812 71.6875L42.5781 67.8906L46.375 71.6875L50.1719 67.8906L53.9688 71.6875L57.7656 67.8906L61.5625 71.6875L65.3594 67.8906L69.1562 71.6875V21.0625L65.3594 24.8594L61.5625 21.0625L57.7656 24.8594L53.9688 21.0625L50.1719 24.8594L46.375 21.0625L42.5781 24.8594L38.7812 21.0625L34.9844 24.8594L31.1875 21.0625L27.3906 24.8594L23.5938 21.0625V71.6875ZM61.5625 38.7812H31.1875V33.7188H61.5625V38.7812ZM61.5625 48.9062H31.1875V43.8438H61.5625V48.9062ZM61.5625 59.0312H31.1875V53.9688H61.5625V59.0312Z" fill="white"/>
</svg>
