<svg id="Layer_1" data-name="Layer 1" xmlns="http://www.w3.org/2000/svg" viewBox="0 0 1500 1500"><defs><style>.cls-1{fill:#fff;}</style></defs><title>logos</title><path class="cls-1" d="M1500.18,806.35c-8.58,45.83-14.14,92.48-26.22,137.37C1393.07,1244.33,1147,1460.11,839,1497,429.41,1546,67.69,1259.41,8.76,870.79c-58.66-386.9,176.66-747,552.43-844.13,42.5-11,86.47-16.29,129.75-24.22H808.07c20.72,3.38,41.57,6.15,62.15,10.25C1180.61,74.45,1383,256.1,1473,559.88c14.4,48.63,18.36,100.35,27.16,150.64Zm-1084.42-338c-36.89,82.41-21.4,150.27,38.9,212.25L393.9,663.27c5.68,77.34,45.71,125.54,113.29,157.12l-55.41,2.66c24.4,66.35,74,98.06,143.92,108.6C527.33,982,455.47,1002.8,375.14,999a90.93,90.93,0,0,0,21,15c109.53,57.37,224.13,68.15,342.34,33.91,186.61-54,316.08-229.36,318.56-430.24.21-16.65,4.91-27.34,17.63-38.22,19.72-16.87,36.81-36.81,55-55.44l-3.43-4.16-68.18,16.89c19.7-26.78,37.82-51.4,55.93-76l-5.8-4.77c-11.87,5.26-23.82,10.34-35.58,15.81-32,14.85-58.85,17-92-7.05-68.3-49.63-165-27-213.16,42.86-25.76,37.34-33,78.58-25.12,125.81C609.44,624.53,503.74,569.51,415.76,468.31Z"/></svg>