<svg width="64" height="64" viewBox="0 0 64 64" fill="none" xmlns="http://www.w3.org/2000/svg">
<path d="M53.334 18.6663H40.0007V10.6663C40.0007 7.73301 37.6007 5.33301 34.6673 5.33301H29.334C26.4007 5.33301 24.0007 7.73301 24.0007 10.6663V18.6663H10.6673C7.73398 18.6663 5.33398 21.0663 5.33398 23.9997V53.333C5.33398 56.2663 7.73398 58.6663 10.6673 58.6663H53.334C56.2673 58.6663 58.6673 56.2663 58.6673 53.333V23.9997C58.6673 21.0663 56.2673 18.6663 53.334 18.6663ZM24.0007 31.9997C26.214 31.9997 28.0007 33.7863 28.0007 35.9997C28.0007 38.213 26.214 39.9997 24.0007 39.9997C21.7873 39.9997 20.0007 38.213 20.0007 35.9997C20.0007 33.7863 21.7873 31.9997 24.0007 31.9997ZM32.0007 47.9997H16.0007V45.9997C16.0007 43.333 21.334 41.9997 24.0007 41.9997C26.6673 41.9997 32.0007 43.333 32.0007 45.9997V47.9997ZM34.6673 23.9997H29.334V10.6663H34.6673V23.9997ZM48.0007 43.9997H37.334V39.9997H48.0007V43.9997ZM48.0007 35.9997H37.334V31.9997H48.0007V35.9997Z" fill="#2F80ED"/>
</svg>
