<svg id="Layer_1" data-name="Layer 1" xmlns="http://www.w3.org/2000/svg" viewBox="0 0 1500 1500"><defs><style>.cls-1{fill:#fff;}</style></defs><title>logos</title><path class="cls-1" d="M1490.38,629.63c-47.22-299.28-274.05-542.93-568-609.23C884.66,11.89,846.2,6.53,808.07-.28H696.24c-6.85,1.55-13.62,3.83-20.55,4.56C453.57,27.67,275.28,129.81,144,309.18,16.83,483-24.78,678.59,13.9,890.68c70.75,388,446.36,669.43,862,598.68C1286.41,1419.5,1555.16,1040.22,1490.38,629.63Zm-369.3,49.2c-2.37,76.94-4.11,154-10.22,230.67-4.55,57-38.36,86.68-95.42,91.56-45,3.85-90.05,7.8-135.17,9.44-44.28,1.6-88.66.35-133,.35l-.21,4.44c-86.66-4.66-173.38-8.55-260-14.28-56-3.7-89.23-31.82-97.46-87.52-16.41-111-18.5-222.49,2.61-333.29,9-47.38,38.63-75.32,87.09-79.19,74.11-5.91,148.49-10.77,222.79-11.29C796,489.07,890,492.17,983.9,495.6c89.48,3.28,121.67,33.45,132.13,119.67C1118.59,636.37,1121.73,657.71,1121.08,678.83Z"/><path class="cls-1" d="M676.26,860.15,869.2,750.46,676.26,641.2Z"/></svg>